<svg width="1440" height="800" viewBox="0 0 1440 800" fill="none" xmlns="http://www.w3.org/2000/svg">
<rect width="1440" height="800" fill="#141413"/>
<g opacity="0.2">
<path opacity="0.2" d="M998.402 347.402C991.045 353.445 983.951 360.67 977.119 368.683L999.585 381.689C1006.29 373.676 1013.51 366.582 1020.87 360.407L998.402 347.402Z" fill="#63BDFE"/>
<path opacity="0.2" d="M1012.46 337.155C1009.83 338.862 1007.2 340.57 1004.58 342.541L1027.04 355.546C1029.67 353.576 1032.3 351.737 1034.93 350.16L1012.46 337.155Z" fill="#63BDFE"/>
<path opacity="0.2" d="M1026.65 329.535C1024.02 330.717 1021.39 332.031 1018.77 333.476L1026.65 338.074C1029.28 336.629 1031.9 335.315 1034.53 334.133L1026.65 329.535Z" fill="#63BDFE"/>
<path opacity="0.2" d="M1040.31 337.417C1037.69 338.6 1035.06 339.913 1032.43 341.358L1132.41 399.424C1135.04 397.979 1137.66 396.665 1140.29 395.483L1040.31 337.417Z" fill="#63BDFE"/>
<path opacity="0.2" d="M1040.57 324.675C1038.08 325.331 1035.45 326.12 1032.82 327.039L1040.71 331.637C1043.33 330.718 1045.83 329.929 1048.46 329.273L1040.57 324.675Z" fill="#63BDFE"/>
<path opacity="0.2" d="M1054.24 332.557C1051.74 333.214 1049.12 334.002 1046.49 334.922L1089.71 360.013C1092.34 359.094 1094.84 358.305 1097.46 357.648L1054.24 332.557Z" fill="#63BDFE"/>
<path opacity="0.2" d="M1103.64 361.327C1101.14 361.984 1098.51 362.772 1095.89 363.691L1146.47 393.118C1149.09 392.199 1151.59 391.41 1154.22 390.753L1103.64 361.327Z" fill="#63BDFE"/>
<path opacity="0.2" d="M1053.98 322.835C1051.61 322.835 1049.12 323.098 1046.62 323.492L1054.5 328.09C1057 327.696 1059.49 327.565 1061.86 327.433L1053.98 322.835Z" fill="#63BDFE"/>
<path opacity="0.2" d="M1154.61 373.544C1152.25 373.807 1149.75 373.938 1147.52 373.938L1155.4 378.536C1157.77 378.536 1160.13 378.405 1162.5 378.142L1154.61 373.544Z" fill="#63BDFE"/>
<path opacity="0.2" d="M1139.9 365.005C1137.53 365.268 1135.04 365.399 1132.8 365.399L1140.69 369.997C1143.05 369.997 1145.42 369.866 1147.78 369.603L1139.9 365.005Z" fill="#63BDFE"/>
<path opacity="0.2" d="M1080.38 330.455C1078.02 330.718 1075.52 330.849 1073.29 330.849L1125.97 361.458C1128.34 361.458 1130.7 361.327 1133.07 361.064L1080.38 330.455Z" fill="#63BDFE"/>
<path opacity="0.2" d="M1093.92 327.564C1091.29 328.353 1088.79 329.01 1086.3 329.535L1098.51 336.629C1101.01 336.103 1103.51 335.447 1106.13 334.658L1093.92 327.564Z" fill="#63BDFE"/>
<path opacity="0.2" d="M1114.15 339.257C1111.52 340.045 1109.02 340.702 1106.53 341.227L1138.98 360.013C1141.47 359.488 1143.97 358.831 1146.6 358.043L1114.15 339.257Z" fill="#63BDFE"/>
<path opacity="0.2" d="M1066.72 322.441C1064.36 322.704 1061.86 322.835 1059.63 322.835L1067.51 327.433C1069.87 327.433 1072.24 327.302 1074.6 327.039L1066.72 322.441Z" fill="#63BDFE"/>
<path opacity="0.2" d="M1080.25 319.551C1077.62 320.339 1075.13 320.996 1072.63 321.522L1080.51 326.12C1083.01 325.594 1085.51 324.937 1088.13 324.149L1080.25 319.551Z" fill="#63BDFE"/>
<path opacity="0.2" d="M1094.57 313.902C1091.81 315.216 1089.19 316.398 1086.56 317.449L1094.44 322.047C1097.07 320.996 1099.83 319.814 1102.46 318.5L1094.57 313.902Z" fill="#63BDFE"/>
<path opacity="0.2" d="M1109.29 305.495C1106.92 307.071 1104.56 308.516 1102.32 309.83C1101.93 310.093 1101.54 310.355 1101.14 310.487L1109.02 315.085C1109.42 314.822 1109.81 314.691 1110.21 314.428C1112.57 313.114 1114.94 311.669 1117.17 310.093L1109.29 305.495Z" fill="#63BDFE"/>
<path opacity="0.2" d="M1123.61 294.722C1120.98 296.955 1118.35 298.926 1115.72 300.897L1123.61 305.494C1126.23 303.524 1128.86 301.422 1131.49 299.32L1123.61 294.722Z" fill="#63BDFE"/>
<path opacity="0.2" d="M1137.01 282.111C1134.64 284.607 1132.15 286.972 1129.65 289.336L1137.53 293.934C1140.03 291.569 1142.53 289.205 1144.89 286.709L1137.01 282.111Z" fill="#63BDFE"/>
<path opacity="0.2" d="M1153.43 362.115C1150.8 362.903 1148.31 363.56 1145.81 364.085L1153.69 368.683C1156.19 368.158 1158.69 367.501 1161.31 366.713L1153.43 362.115Z" fill="#63BDFE"/>
<path opacity="0.2" d="M1167.62 356.334C1164.86 357.648 1162.23 358.831 1159.6 359.881L1167.49 364.479C1170.12 363.428 1172.87 362.246 1175.5 360.932L1167.62 356.334Z" fill="#63BDFE"/>
<path opacity="0.2" d="M1162.23 336.235C1159.87 337.811 1157.5 339.256 1155.27 340.57C1154.88 340.833 1154.48 341.096 1154.09 341.227L1182.2 357.517C1182.6 357.254 1182.99 357.123 1183.38 356.86C1185.75 355.546 1188.11 354.101 1190.48 352.525L1162.23 336.235Z" fill="#63BDFE"/>
<path opacity="0.5" d="M1176.55 325.463C1173.93 327.696 1171.3 329.666 1168.67 331.637L1196.79 347.927C1199.41 345.956 1202.04 343.854 1204.67 341.752L1176.55 325.463Z" fill="#63BDFE"/>
<path opacity="0.5" d="M1210.19 324.675C1207.82 327.171 1205.32 329.535 1202.83 331.9L1210.71 336.498C1213.21 334.133 1215.7 331.769 1218.07 329.273L1210.19 324.675Z" fill="#63BDFE"/>
<path opacity="0.2" d="M1168.01 370.654C1165.39 371.442 1162.89 372.099 1160.39 372.624L1168.28 377.222C1170.77 376.697 1173.27 376.04 1175.9 375.252L1168.01 370.654Z" fill="#63BDFE"/>
<path opacity="0.2" d="M1182.33 364.874C1179.57 366.187 1176.95 367.37 1174.32 368.421L1182.2 373.018C1184.83 371.968 1187.59 370.785 1190.22 369.471L1182.33 364.874Z" fill="#63BDFE"/>
<path opacity="0.2" d="M1197.05 356.466C1194.68 358.042 1192.32 359.487 1190.09 360.801C1189.69 361.064 1189.3 361.327 1188.9 361.458L1196.79 366.056C1197.18 365.793 1197.57 365.662 1197.97 365.399C1200.33 364.085 1202.7 362.64 1204.93 361.064L1197.05 356.466Z" fill="#63BDFE"/>
<path opacity="0.2" d="M1211.37 345.825C1208.74 348.058 1206.11 350.029 1203.49 351.999L1211.37 356.597C1214 354.627 1216.62 352.525 1219.25 350.423L1211.37 345.825Z" fill="#63BDFE"/>
<path opacity="0.2" d="M1224.9 333.213C1222.54 335.709 1220.04 338.074 1217.54 340.439L1225.43 345.037C1227.92 342.672 1230.42 340.307 1232.78 337.811L1224.9 333.213Z" fill="#63BDFE"/>
<path opacity="0.5" d="M1224.51 308.516C1223.19 310.092 1221.75 311.669 1220.43 313.245C1219.38 314.428 1218.46 315.61 1217.41 316.792L1225.29 321.39C1226.35 320.208 1227.27 319.025 1228.32 317.843C1229.63 316.267 1231.08 314.69 1232.39 313.114L1224.51 308.516Z" fill="#63BDFE"/>
<path opacity="0.5" d="M1239.22 317.055C1237.91 318.631 1236.46 320.208 1235.15 321.784C1234.1 322.967 1233.18 324.149 1232.13 325.331L1240.01 329.929C1241.06 328.747 1241.98 327.565 1243.03 326.382C1244.34 324.806 1245.79 323.229 1247.1 321.653L1239.22 317.055Z" fill="#63BDFE"/>
<path opacity="0.2" d="M1108.24 321.916C1105.48 323.229 1102.85 324.412 1100.22 325.463L1108.1 330.06C1110.73 329.009 1113.49 327.827 1116.12 326.513L1108.24 321.916Z" fill="#63BDFE"/>
<path opacity="0.2" d="M1122.29 330.061C1119.53 331.374 1116.91 332.557 1114.28 333.608L1152.77 355.94C1155.4 354.889 1158.16 353.707 1160.79 352.393L1122.29 330.061Z" fill="#63BDFE"/>
<path opacity="0.2" d="M1137.01 321.653C1134.64 323.23 1132.28 324.675 1130.04 325.988C1129.65 326.251 1129.26 326.514 1128.86 326.645L1147.26 337.286C1147.65 337.023 1148.04 336.892 1148.44 336.629C1150.8 335.316 1153.17 333.87 1155.53 332.294L1137.01 321.653Z" fill="#63BDFE"/>
<path opacity="0.5" d="M1151.33 310.881C1148.7 313.114 1146.07 315.084 1143.45 317.055L1161.84 327.696C1164.47 325.725 1167.09 323.623 1169.72 321.522L1151.33 310.881Z" fill="#63BDFE"/>
<path opacity="0.5" d="M1164.86 298.269C1162.5 300.765 1160 303.13 1157.5 305.495L1196 327.827C1198.49 325.463 1200.99 323.098 1203.35 320.602L1164.86 298.269Z" fill="#63BDFE"/>
<path opacity="0.3" d="M1179.18 282.242C1177.87 283.819 1176.42 285.395 1175.11 286.972C1174.06 288.154 1173.14 289.336 1172.09 290.518L1210.58 312.851C1211.63 311.669 1212.55 310.487 1213.6 309.304C1214.92 307.728 1216.36 306.151 1217.67 304.575L1179.18 282.242Z" fill="#63BDFE"/>
<path opacity="0.3" d="M1151.33 266.084C1150.01 267.66 1148.57 269.237 1147.26 270.813C1146.2 271.995 1145.28 273.178 1144.23 274.36L1165.78 286.972C1166.83 285.789 1167.75 284.607 1168.8 283.425C1170.12 281.848 1171.56 280.272 1172.87 278.695L1151.33 266.084Z" fill="#63BDFE"/>
<path opacity="0.2" d="M1122.95 313.377C1120.59 314.953 1118.22 316.398 1115.99 317.712C1115.59 317.975 1115.2 318.237 1114.8 318.369L1122.69 322.967C1123.08 322.704 1123.48 322.573 1123.87 322.31C1126.23 320.996 1128.6 319.551 1130.83 317.975L1122.95 313.377Z" fill="#63BDFE"/>
<path opacity="0.2" d="M1137.27 302.736C1134.64 304.969 1132.02 306.939 1129.39 308.91L1137.27 313.508C1139.9 311.537 1142.53 309.435 1145.15 307.334L1137.27 302.736Z" fill="#63BDFE"/>
<path opacity="0.2" d="M1150.8 290.125C1148.44 292.621 1145.94 294.985 1143.45 297.35L1151.33 301.948C1153.82 299.583 1156.32 297.218 1158.69 294.722L1150.8 290.125Z" fill="#63BDFE"/>
<path opacity="0.2" d="M1067.64 330.849C1065.27 330.849 1062.78 331.112 1060.28 331.506L1127.68 370.654C1130.18 370.26 1132.67 370.128 1135.04 369.997L1067.64 330.849Z" fill="#63BDFE"/>
<path opacity="0.2" d="M1141.87 373.807C1139.5 373.807 1137.01 374.069 1134.51 374.463L1160.26 389.44C1162.76 389.046 1165.25 388.914 1167.62 388.783L1141.87 373.807Z" fill="#63BDFE"/>
<path opacity="0.2" d="M1168.41 381.558C1166.04 381.82 1163.55 381.952 1161.31 381.952L1173.27 388.914C1175.63 388.914 1178 388.783 1180.36 388.52L1168.41 381.558Z" fill="#63BDFE"/>
<path opacity="0.2" d="M1181.94 378.667C1179.31 379.455 1176.82 380.112 1174.32 380.638L1186.28 387.6C1188.77 387.075 1191.27 386.418 1193.9 385.63L1181.94 378.667Z" fill="#63BDFE"/>
<path opacity="0.2" d="M1196.13 373.019C1193.37 374.332 1190.74 375.515 1188.11 376.566L1200.07 383.528C1202.7 382.477 1205.46 381.295 1208.08 379.981L1196.13 373.019Z" fill="#63BDFE"/>
<path opacity="0.2" d="M1210.97 364.479C1208.61 366.056 1206.24 367.501 1204.01 368.815C1203.62 369.077 1203.22 369.34 1202.83 369.472L1214.78 376.434C1215.18 376.171 1215.57 376.04 1215.97 375.777C1218.33 374.464 1220.7 373.019 1222.93 371.442L1210.97 364.479Z" fill="#63BDFE"/>
<path opacity="0.2" d="M1225.16 353.839C1222.54 356.072 1219.91 358.042 1217.28 360.013L1229.24 366.976C1231.86 365.005 1234.49 362.903 1237.12 360.801L1225.16 353.839Z" fill="#63BDFE"/>
<path opacity="0.2" d="M1238.7 341.227C1236.33 343.723 1233.83 346.087 1231.34 348.452L1243.29 355.415C1245.79 353.05 1248.29 350.685 1250.65 348.189L1238.7 341.227Z" fill="#63BDFE"/>
<path opacity="0.5" d="M1253.02 325.069C1251.7 326.645 1250.26 328.221 1248.94 329.798C1247.89 330.98 1246.97 332.163 1245.92 333.345L1257.88 340.307C1258.93 339.125 1259.85 337.943 1260.9 336.76C1262.21 335.184 1263.66 333.608 1264.97 332.031L1253.02 325.069Z" fill="#63BDFE"/>
<path opacity="0.5" d="M1239.61 293.54C1236.99 295.773 1234.49 298.138 1231.99 300.634L1272.46 324.149C1274.96 321.653 1277.45 319.288 1280.08 317.055L1239.61 293.54Z" fill="#63BDFE"/>
<path opacity="0.3" d="M1166.57 251.107C1163.94 253.341 1161.44 255.705 1158.95 258.201L1225.29 296.693C1227.79 294.197 1230.29 291.832 1232.91 289.599L1166.57 251.107Z" fill="#63BDFE"/>
<path opacity="0.2" d="M1041.1 353.839C1038.47 355.546 1035.85 357.254 1033.22 359.225L1070.66 381.032C1073.29 379.062 1075.92 377.222 1078.54 375.646L1041.1 353.839Z" fill="#63BDFE"/>
<path opacity="0.2" d="M1084.85 379.193C1082.22 380.901 1079.59 382.608 1076.97 384.579L1094.31 394.694C1096.94 392.724 1099.56 390.885 1102.19 389.308L1084.85 379.193Z" fill="#63BDFE"/>
<path opacity="0.2" d="M1108.76 393.118C1096.54 400.869 1084.46 411.51 1073.42 424.647L1090.76 434.762C1101.8 421.625 1113.88 410.984 1126.1 403.234L1108.76 393.118Z" fill="#63BDFE"/>
<path opacity="0.2" d="M1027.04 364.085C1019.69 370.128 1012.59 377.354 1005.76 385.367L1066.85 420.837C1073.55 412.824 1080.78 405.73 1088.13 399.555L1027.04 364.085Z" fill="#63BDFE"/>
<path opacity="0.3" d="M1271.41 284.738C1267.07 287.234 1262.61 290.124 1258.27 293.409L1174.32 244.67C1178.66 241.386 1182.99 238.496 1187.46 236L1271.41 284.738Z" fill="#63BDFE"/>
<path opacity="0.5" d="M1301.1 301.947C1296.77 304.443 1292.3 307.334 1287.96 310.618L1266.55 298.138C1270.88 294.853 1275.22 291.963 1279.69 289.467L1301.1 301.947Z" fill="#63BDFE"/>
<path opacity="0.4" d="M797.918 510.169C793.188 513.716 788.327 517 783.466 519.759L761 506.753C765.992 503.863 770.722 500.71 775.452 497.163L797.918 510.169Z" fill="#63BDFE"/>
<path opacity="0.4" d="M789.378 485.471C786.882 487.835 784.386 490.069 781.758 492.171L804.224 505.176C806.852 503.074 809.348 500.71 811.844 498.476L789.378 485.471Z" fill="#63BDFE"/>
<path opacity="0.4" d="M802.385 472.071C800.02 474.699 797.655 477.326 795.29 479.822L803.173 484.42C805.669 481.924 808.034 479.428 810.267 476.669L802.385 472.071Z" fill="#63BDFE"/>
<path opacity="0.2" d="M816.048 479.953C813.683 482.581 811.318 485.208 808.954 487.704L908.933 545.769C911.429 543.273 913.794 540.777 916.028 538.019L816.048 479.953Z" fill="#63BDFE"/>
<path opacity="0.4" d="M815.26 457.489C812.764 459.985 810.267 462.744 807.903 465.503L815.785 470.101C818.15 467.342 820.646 464.715 823.143 462.087L815.26 457.489Z" fill="#63BDFE"/>
<path opacity="0.4" d="M829.055 465.503C826.558 467.999 824.062 470.757 821.697 473.516L864.921 498.608C867.286 495.849 869.782 493.222 872.278 490.594L829.055 465.503Z" fill="#63BDFE"/>
<path opacity="0.2" d="M878.322 494.141C875.826 496.637 873.33 499.396 870.965 502.155L921.546 531.581C923.911 528.823 926.407 526.195 928.903 523.568L878.322 494.141Z" fill="#63BDFE"/>
<path opacity="0.2" d="M829.054 445.009C826.427 447.111 823.931 449.344 821.303 451.709L829.186 456.307C831.682 453.942 834.31 451.709 836.937 449.607L829.054 445.009Z" fill="#63BDFE"/>
<path opacity="0.4" d="M930.873 485.865C928.246 487.441 925.618 489.281 922.991 491.12L930.873 495.718C933.501 493.879 936.129 492.039 938.756 490.463L930.873 485.865Z" fill="#63BDFE"/>
<path opacity="0.4" d="M896.058 465.634C893.43 467.21 890.803 469.05 888.175 470.889L916.29 487.179C918.918 485.339 921.546 483.5 924.173 481.924L896.058 465.634Z" fill="#63BDFE"/>
<path opacity="0.4" d="M856.776 442.776C854.148 444.352 851.52 446.191 848.893 448.03L881.344 466.948C883.971 465.109 886.599 463.269 889.226 461.693L856.776 442.776Z" fill="#63BDFE"/>
<path opacity="0.2" d="M870.965 435.419C868.337 436.601 865.709 437.784 863.082 439.229L875.3 446.323C877.928 444.878 880.555 443.695 883.183 442.513L870.965 435.419Z" fill="#63BDFE"/>
<path opacity="0.2" d="M891.066 447.111C888.438 448.293 885.81 449.475 883.183 450.921L895.401 458.015C898.029 456.569 900.656 455.387 903.284 454.205L891.066 447.111Z" fill="#63BDFE"/>
<path opacity="0.2" d="M843.112 434.894C840.484 436.47 837.857 438.309 835.229 440.149L843.112 444.747C845.74 442.907 848.367 441.068 850.995 439.492L843.112 434.894Z" fill="#63BDFE"/>
<path opacity="0.2" d="M857.301 427.406C854.673 428.588 852.046 429.77 849.418 431.215L857.301 435.813C859.928 434.368 862.556 433.186 865.183 432.003L857.301 427.406Z" fill="#63BDFE"/>
<path opacity="0.2" d="M871.227 422.939C868.731 423.464 866.104 424.253 863.476 425.172L871.359 429.77C873.986 428.851 876.483 428.194 879.11 427.537L871.227 422.939Z" fill="#63BDFE"/>
<path opacity="0.2" d="M884.497 421.362C882.132 421.362 879.635 421.494 877.139 421.888L885.022 426.486C887.518 426.223 890.014 425.96 892.379 425.96L884.497 421.362Z" fill="#63BDFE"/>
<path opacity="0.2" d="M897.241 420.837C894.744 421.1 892.379 421.363 890.015 421.363L897.897 425.961C900.262 425.961 902.627 425.698 905.123 425.435L897.241 420.837Z" fill="#63BDFE"/>
<path opacity="0.2" d="M910.904 417.684C908.276 418.473 905.78 419.261 903.284 419.786L911.167 424.384C913.663 423.859 916.29 423.202 918.787 422.282L910.904 417.684Z" fill="#63BDFE"/>
<path opacity="0.4" d="M910.247 458.277C907.619 459.46 904.992 460.642 902.364 462.087L930.479 478.377C933.107 476.932 935.734 475.749 938.362 474.567L910.247 458.277Z" fill="#63BDFE"/>
<path opacity="0.4" d="M924.173 453.679C921.677 454.205 919.049 454.993 916.422 455.913L944.537 472.203C947.164 471.283 949.661 470.626 952.288 469.969L924.173 453.679Z" fill="#63BDFE"/>
<path opacity="0.4" d="M957.675 463.795C955.31 463.795 952.814 463.926 950.318 464.32L958.201 468.918C960.697 468.656 963.193 468.393 965.558 468.393L957.675 463.795Z" fill="#63BDFE"/>
<path opacity="0.2" d="M970.419 463.269C967.923 463.532 965.558 463.795 963.193 463.795L971.076 468.393C973.44 468.393 975.805 468.13 978.301 467.867L970.419 463.269Z" fill="#63BDFE"/>
<path opacity="0.2" d="M983.951 460.116C981.323 460.905 978.827 461.693 976.331 462.218L984.213 466.816C986.71 466.291 989.337 465.634 991.833 464.714L983.951 460.116Z" fill="#63BDFE"/>
<path opacity="0.4" d="M945.062 478.508C942.435 479.691 939.807 480.873 937.18 482.318L945.062 486.916C947.69 485.471 950.318 484.289 952.945 483.106L945.062 478.508Z" fill="#63BDFE"/>
<path opacity="0.4" d="M958.988 473.91C956.492 474.436 953.865 475.224 951.237 476.144L959.12 480.742C961.747 479.822 964.244 479.165 966.871 478.508L958.988 473.91Z" fill="#63BDFE"/>
<path opacity="0.2" d="M972.389 472.334C970.025 472.334 967.528 472.465 965.032 472.859L972.915 477.457C975.411 477.195 977.907 476.932 980.272 476.932L972.389 472.334Z" fill="#63BDFE"/>
<path opacity="0.2" d="M985.133 471.808C982.637 472.071 980.272 472.334 977.907 472.334L985.79 476.932C988.155 476.932 990.52 476.669 993.016 476.406L985.133 471.808Z" fill="#63BDFE"/>
<path opacity="0.2" d="M998.665 468.656C996.038 469.444 993.541 470.232 991.045 470.757L998.928 475.355C1001.42 474.83 1004.05 474.173 1006.55 473.253L998.665 468.656Z" fill="#63BDFE"/>
<path opacity="0.2" d="M1000.11 453.285C997.351 454.73 994.724 456.044 991.965 457.095L999.847 461.693C1002.47 460.51 1005.23 459.328 1007.99 457.883L1000.11 453.285Z" fill="#63BDFE"/>
<path opacity="0.2" d="M1014.82 461.824C1012.07 463.27 1009.44 464.583 1006.68 465.634L1014.56 470.232C1017.19 469.05 1019.95 467.867 1022.71 466.422L1014.82 461.824Z" fill="#63BDFE"/>
<path opacity="0.2" d="M884.891 430.821C882.394 431.347 879.767 432.135 877.139 433.055L885.022 437.653C887.65 436.733 890.146 436.076 892.773 435.419L884.891 430.821Z" fill="#63BDFE"/>
<path opacity="0.2" d="M898.948 438.966C896.452 439.492 893.825 440.28 891.197 441.199L909.59 451.84C912.218 450.921 914.714 450.264 917.341 449.607L898.948 438.966Z" fill="#63BDFE"/>
<path opacity="0.2" d="M912.349 437.521C909.984 437.521 907.488 437.652 904.992 438.046L943.486 460.379C945.982 460.117 948.478 459.854 950.843 459.854L912.349 437.521Z" fill="#63BDFE"/>
<path opacity="0.2" d="M925.093 436.996C922.596 437.258 920.232 437.521 917.867 437.521L956.361 459.854C958.726 459.854 961.091 459.591 963.587 459.328L925.093 436.996Z" fill="#63BDFE"/>
<path opacity="0.2" d="M938.625 433.843C935.997 434.631 933.501 435.419 931.005 435.945L969.499 458.278C971.995 457.752 974.623 457.095 977.119 456.176L938.625 433.843Z" fill="#63BDFE"/>
<path opacity="0.2" d="M954.785 427.011C952.026 428.457 949.398 429.77 946.639 430.821L985.133 453.154C987.761 451.972 990.52 450.789 993.279 449.344L954.785 427.011Z" fill="#63BDFE"/>
<path opacity="0.2" d="M926.932 410.853C924.173 412.298 921.545 413.612 918.786 414.663L940.333 427.274C942.96 426.092 945.719 424.909 948.478 423.464L926.932 410.853Z" fill="#63BDFE"/>
<path opacity="0.2" d="M898.16 429.245C895.795 429.245 893.299 429.376 890.802 429.77L898.685 434.368C901.181 434.105 903.678 433.843 906.042 433.843L898.16 429.245Z" fill="#63BDFE"/>
<path opacity="0.2" d="M910.904 428.719C908.408 428.982 906.043 429.244 903.678 429.244L911.561 433.842C913.926 433.842 916.29 433.58 918.787 433.317L910.904 428.719Z" fill="#63BDFE"/>
<path opacity="0.2" d="M924.568 425.698C921.94 426.486 919.444 427.274 916.948 427.799L924.83 432.397C927.327 431.872 929.954 431.215 932.45 430.295L924.568 425.698Z" fill="#63BDFE"/>
<path opacity="0.4" d="M842.718 452.891C840.09 454.993 837.594 457.227 834.966 459.591L902.364 498.739C904.86 496.375 907.488 494.141 910.115 492.04L842.718 452.891Z" fill="#63BDFE"/>
<path opacity="0.4" d="M916.816 495.981C914.189 498.083 911.692 500.316 909.065 502.681L934.815 517.657C937.311 515.292 939.939 513.059 942.566 510.957L916.816 495.981Z" fill="#63BDFE"/>
<path opacity="0.4" d="M944.8 493.879C942.172 495.455 939.544 497.294 936.917 499.133L948.872 506.096C951.5 504.257 954.127 502.418 956.755 500.841L944.8 493.879Z" fill="#63BDFE"/>
<path opacity="0.4" d="M958.857 486.522C956.23 487.704 953.602 488.886 950.975 490.331L962.93 497.294C965.558 495.849 968.185 494.667 970.813 493.484L958.857 486.522Z" fill="#63BDFE"/>
<path opacity="0.2" d="M972.783 481.924C970.287 482.45 967.66 483.238 965.032 484.157L976.988 491.12C979.615 490.2 982.111 489.543 984.739 488.887L972.783 481.924Z" fill="#63BDFE"/>
<path opacity="0.2" d="M986.184 480.347C983.819 480.347 981.323 480.479 978.827 480.873L990.782 487.836C993.279 487.573 995.775 487.31 998.14 487.31L986.184 480.347Z" fill="#63BDFE"/>
<path opacity="0.2" d="M998.928 479.822C996.432 480.085 994.067 480.347 991.702 480.347L1003.66 487.31C1006.02 487.31 1008.39 487.047 1010.88 486.784L998.928 479.822Z" fill="#63BDFE"/>
<path opacity="0.2" d="M1012.46 476.801C1009.83 477.589 1007.34 478.377 1004.84 478.903L1016.8 485.865C1019.29 485.34 1021.92 484.683 1024.42 483.763L1012.46 476.801Z" fill="#63BDFE"/>
<path opacity="0.2" d="M1028.62 469.969C1025.86 471.414 1023.23 472.728 1020.47 473.779L1032.43 480.742C1035.06 479.559 1037.82 478.377 1040.58 476.932L1028.62 469.969Z" fill="#63BDFE"/>
<path opacity="0.2" d="M1016.66 443.039C1014.04 445.009 1011.28 446.717 1008.52 448.425L1048.98 471.94C1051.74 470.232 1054.37 468.393 1057.13 466.554L1016.66 443.039Z" fill="#63BDFE"/>
<path opacity="0.2" d="M943.486 400.606C940.859 402.577 938.1 404.285 935.341 405.992L1001.69 444.484C1004.45 442.776 1007.07 440.937 1009.83 439.098L943.486 400.606Z" fill="#63BDFE"/>
<path opacity="0.2" d="M818.019 502.155C815.523 504.52 813.026 506.753 810.399 508.855L847.842 530.662C850.469 528.56 852.966 526.196 855.462 523.962L818.019 502.155Z" fill="#63BDFE"/>
<path opacity="0.2" d="M861.768 527.509C859.272 529.874 856.775 532.107 854.148 534.209L871.49 544.325C874.117 542.223 876.614 539.858 879.11 537.625L861.768 527.509Z" fill="#63BDFE"/>
<path opacity="0.2" d="M903.021 551.418C894.087 559.826 884.497 567.051 874.643 572.832L857.301 562.716C867.154 557.067 876.745 549.711 885.679 541.303L903.021 551.418Z" fill="#63BDFE"/>
<path opacity="0.2" d="M865.184 549.317C860.454 552.864 855.593 556.148 850.732 558.907L789.641 523.437C794.633 520.547 799.363 517.394 804.092 513.847L865.184 549.317Z" fill="#63BDFE"/>
<path opacity="0.2" d="M971.733 374.989C965.295 382.083 958.595 388.651 951.5 394.432L1035.45 443.17C1042.55 437.39 1049.25 430.821 1055.68 423.727L971.733 374.989Z" fill="#63BDFE"/>
<path opacity="0.2" d="M1063.83 428.457C1057.39 435.551 1050.69 442.119 1043.6 447.899L1065.01 460.379C1072.11 454.599 1078.81 448.031 1085.24 440.937L1063.83 428.457Z" fill="#63BDFE"/>
</g>
<g opacity="0.2">
<path opacity="0.2" d="M998.403 347.401C991.045 353.444 983.951 360.669 977.119 368.683L999.585 381.689C1006.29 373.675 1013.51 366.581 1020.87 360.407L998.403 347.401Z" fill="#63BDFE"/>
<path opacity="0.2" d="M1012.46 337.155C1009.83 338.862 1007.2 340.57 1004.58 342.541L1027.04 355.546C1029.67 353.576 1032.3 351.737 1034.93 350.16L1012.46 337.155Z" fill="#63BDFE"/>
<path opacity="0.2" d="M1041.1 353.838C1038.47 355.546 1035.85 357.254 1033.22 359.225L1070.66 381.032C1073.29 379.061 1075.92 377.222 1078.54 375.646L1041.1 353.838Z" fill="#63BDFE"/>
<path opacity="0.2" d="M1084.85 379.193C1082.22 380.901 1079.6 382.608 1076.97 384.579L1094.31 394.694C1096.94 392.724 1099.56 390.885 1102.19 389.308L1084.85 379.193Z" fill="#63BDFE"/>
<path opacity="0.2" d="M1108.76 393.118C1096.54 400.868 1084.46 411.509 1073.42 424.646L1090.76 434.762C1101.8 421.625 1113.89 410.984 1126.1 403.233L1108.76 393.118Z" fill="#63BDFE"/>
<path opacity="0.2" d="M1027.04 364.085C1019.69 370.128 1012.59 377.354 1005.76 385.367L1066.85 420.837C1073.55 412.824 1080.78 405.73 1088.13 399.555L1027.04 364.085Z" fill="#63BDFE"/>
<path opacity="0.2" d="M910.904 417.684C908.276 418.472 905.78 419.26 903.284 419.786L911.167 424.384C913.663 423.858 916.29 423.201 918.787 422.282L910.904 417.684Z" fill="#63BDFE"/>
<path opacity="0.2" d="M983.95 460.116C981.323 460.905 978.827 461.693 976.33 462.218L984.213 466.816C986.709 466.291 989.337 465.634 991.833 464.714L983.95 460.116Z" fill="#63BDFE"/>
<path opacity="0.2" d="M998.665 468.656C996.037 469.444 993.541 470.232 991.045 470.757L998.928 475.355C1001.42 474.83 1004.05 474.173 1006.55 473.253L998.665 468.656Z" fill="#63BDFE"/>
<path opacity="0.2" d="M1000.11 453.285C997.351 454.73 994.724 456.044 991.965 457.095L999.848 461.693C1002.48 460.51 1005.23 459.328 1007.99 457.883L1000.11 453.285Z" fill="#63BDFE"/>
<path opacity="0.2" d="M1014.82 461.824C1012.07 463.269 1009.44 464.583 1006.68 465.634L1014.56 470.232C1017.19 469.05 1019.95 467.867 1022.71 466.422L1014.82 461.824Z" fill="#63BDFE"/>
<path opacity="0.2" d="M938.625 433.842C935.997 434.631 933.501 435.419 931.005 435.944L969.499 458.277C971.995 457.752 974.623 457.095 977.119 456.175L938.625 433.842Z" fill="#63BDFE"/>
<path opacity="0.2" d="M954.784 427.011C952.025 428.457 949.398 429.77 946.639 430.821L985.133 453.154C987.761 451.972 990.52 450.789 993.279 449.344L954.784 427.011Z" fill="#63BDFE"/>
<path opacity="0.2" d="M926.932 410.853C924.173 412.298 921.545 413.612 918.786 414.663L940.333 427.274C942.96 426.092 945.719 424.909 948.478 423.464L926.932 410.853Z" fill="#63BDFE"/>
<path opacity="0.2" d="M924.567 425.698C921.939 426.486 919.443 427.274 916.947 427.799L924.83 432.397C927.326 431.872 929.954 431.215 932.45 430.295L924.567 425.698Z" fill="#63BDFE"/>
<path opacity="0.2" d="M1012.46 476.8C1009.83 477.589 1007.34 478.377 1004.84 478.902L1016.8 485.865C1019.29 485.339 1021.92 484.682 1024.42 483.763L1012.46 476.8Z" fill="#63BDFE"/>
<path opacity="0.2" d="M1028.62 469.969C1025.86 471.414 1023.23 472.728 1020.47 473.779L1032.43 480.742C1035.06 479.559 1037.82 478.377 1040.58 476.932L1028.62 469.969Z" fill="#63BDFE"/>
<path opacity="0.2" d="M1016.66 443.039C1014.04 445.009 1011.28 446.717 1008.52 448.425L1048.98 471.94C1051.74 470.232 1054.37 468.393 1057.13 466.554L1016.66 443.039Z" fill="#63BDFE"/>
<path opacity="0.2" d="M943.486 400.606C940.858 402.576 938.099 404.284 935.34 405.992L1001.69 444.483C1004.45 442.775 1007.07 440.936 1009.83 439.097L943.486 400.606Z" fill="#63BDFE"/>
<path opacity="0.2" d="M971.733 374.989C965.295 382.083 958.595 388.651 951.5 394.431L1035.45 443.17C1042.55 437.389 1049.25 430.821 1055.68 423.727L971.733 374.989Z" fill="#63BDFE"/>
<path opacity="0.2" d="M1063.83 428.456C1057.39 435.55 1050.69 442.119 1043.6 447.899L1065.01 460.379C1072.11 454.599 1078.81 448.03 1085.24 440.936L1063.83 428.456Z" fill="#63BDFE"/>
</g>
<g opacity="0.2">
<path opacity="0.2" d="M349.103 323.045C343.553 327.604 338.201 333.055 333.047 339.1L349.995 348.912C355.05 342.866 360.502 337.515 366.052 332.856L349.103 323.045Z" fill="#63BDFE"/>
<path opacity="0.2" d="M359.708 315.314C357.726 316.603 355.744 317.891 353.761 319.378L370.71 329.189C372.693 327.703 374.675 326.315 376.657 325.126L359.708 315.314Z" fill="#63BDFE"/>
<path opacity="0.2" d="M370.413 309.566C368.431 310.458 366.449 311.449 364.466 312.539L370.413 316.008C372.396 314.918 374.378 313.926 376.36 313.034L370.413 309.566Z" fill="#63BDFE"/>
<path opacity="0.2" d="M380.722 315.512C378.739 316.404 376.757 317.396 374.775 318.486L450.202 362.292C452.185 361.202 454.167 360.211 456.149 359.319L380.722 315.512Z" fill="#63BDFE"/>
<path opacity="0.2" d="M380.919 305.899C379.036 306.394 377.054 306.989 375.071 307.683L381.018 311.151C383.001 310.458 384.884 309.863 386.866 309.368L380.919 305.899Z" fill="#63BDFE"/>
<path opacity="0.2" d="M391.228 311.846C389.345 312.341 387.362 312.936 385.38 313.63L417.989 332.559C419.972 331.866 421.855 331.271 423.837 330.776L391.228 311.846Z" fill="#63BDFE"/>
<path opacity="0.2" d="M428.495 333.551C426.612 334.046 424.63 334.641 422.647 335.335L460.807 357.535C462.789 356.841 464.673 356.247 466.655 355.751L428.495 333.551Z" fill="#63BDFE"/>
<path opacity="0.2" d="M391.03 304.511C389.245 304.511 387.362 304.709 385.479 305.007L391.426 308.476C393.309 308.178 395.192 308.079 396.977 307.98L391.03 304.511Z" fill="#63BDFE"/>
<path opacity="0.2" d="M466.953 342.767C465.169 342.966 463.285 343.065 461.6 343.065L467.547 346.533C469.331 346.533 471.116 346.434 472.9 346.236L466.953 342.767Z" fill="#63BDFE"/>
<path opacity="0.2" d="M455.852 336.325C454.067 336.523 452.184 336.623 450.499 336.623L456.446 340.091C458.23 340.091 460.014 339.992 461.799 339.794L455.852 336.325Z" fill="#63BDFE"/>
<path opacity="0.2" d="M410.952 310.26C409.168 310.458 407.285 310.557 405.6 310.557L445.345 333.65C447.129 333.65 448.913 333.55 450.698 333.352L410.952 310.26Z" fill="#63BDFE"/>
<path opacity="0.2" d="M421.161 308.079C419.178 308.674 417.295 309.169 415.412 309.565L424.63 314.917C426.513 314.521 428.396 314.025 430.379 313.431L421.161 308.079Z" fill="#63BDFE"/>
<path opacity="0.2" d="M436.425 316.9C434.442 317.495 432.559 317.99 430.676 318.387L455.158 332.559C457.041 332.163 458.924 331.667 460.907 331.072L436.425 316.9Z" fill="#63BDFE"/>
<path opacity="0.2" d="M400.644 304.214C398.86 304.412 396.977 304.511 395.292 304.511L401.239 307.98C403.023 307.98 404.807 307.881 406.591 307.683L400.644 304.214Z" fill="#63BDFE"/>
<path opacity="0.2" d="M410.853 302.034C408.871 302.628 406.987 303.124 405.104 303.52L411.051 306.989C412.934 306.593 414.818 306.097 416.8 305.503L410.853 302.034Z" fill="#63BDFE"/>
<path opacity="0.2" d="M421.656 297.772C419.575 298.763 417.593 299.655 415.61 300.448L421.557 303.917C423.54 303.124 425.621 302.232 427.603 301.241L421.656 297.772Z" fill="#63BDFE"/>
<path opacity="0.2" d="M432.757 291.429C430.973 292.618 429.189 293.708 427.504 294.7C427.207 294.898 426.91 295.096 426.612 295.195L432.559 298.664C432.857 298.466 433.154 298.367 433.451 298.168C435.235 297.177 437.019 296.087 438.704 294.898L432.757 291.429Z" fill="#63BDFE"/>
<path opacity="0.2" d="M443.561 283.302C441.579 284.987 439.596 286.473 437.614 287.96L443.561 291.429C445.543 289.942 447.526 288.357 449.508 286.771L443.561 283.302Z" fill="#63BDFE"/>
<path opacity="0.2" d="M453.671 273.788C451.887 275.671 450.004 277.455 448.12 279.239L454.067 282.707C455.951 280.923 457.834 279.139 459.618 277.256L453.671 273.788Z" fill="#63BDFE"/>
<path opacity="0.2" d="M466.061 334.145C464.078 334.74 462.195 335.235 460.312 335.632L466.259 339.1C468.142 338.704 470.025 338.208 472.008 337.614L466.061 334.145Z" fill="#63BDFE"/>
<path opacity="0.2" d="M476.765 329.784C474.684 330.775 472.701 331.667 470.719 332.46L476.666 335.929C478.648 335.136 480.73 334.244 482.712 333.253L476.765 329.784Z" fill="#63BDFE"/>
<path opacity="0.2" d="M472.701 314.62C470.917 315.809 469.133 316.9 467.448 317.891C467.151 318.089 466.854 318.287 466.556 318.386L487.767 330.676C488.064 330.478 488.362 330.378 488.659 330.18C490.443 329.189 492.227 328.099 494.011 326.91L472.701 314.62Z" fill="#63BDFE"/>
<path opacity="0.5" d="M483.505 306.494C481.523 308.179 479.54 309.665 477.558 311.152L498.769 323.441C500.751 321.955 502.734 320.369 504.716 318.783L483.505 306.494Z" fill="#63BDFE"/>
<path opacity="0.5" d="M508.879 305.899C507.095 307.782 505.211 309.566 503.328 311.35L509.275 314.819C511.158 313.035 513.042 311.251 514.826 309.368L508.879 305.899Z" fill="#63BDFE"/>
<path opacity="0.2" d="M477.062 340.587C475.08 341.181 473.197 341.677 471.313 342.073L477.26 345.542C479.144 345.146 481.027 344.65 483.009 344.055L477.062 340.587Z" fill="#63BDFE"/>
<path opacity="0.2" d="M487.866 336.226C485.785 337.217 483.802 338.109 481.82 338.902L487.767 342.371C489.749 341.578 491.831 340.686 493.813 339.695L487.866 336.226Z" fill="#63BDFE"/>
<path opacity="0.2" d="M498.967 329.883C497.183 331.072 495.399 332.163 493.714 333.154C493.417 333.352 493.119 333.55 492.822 333.649L498.769 337.118C499.066 336.92 499.364 336.821 499.661 336.622C501.445 335.631 503.229 334.541 504.914 333.352L498.967 329.883Z" fill="#63BDFE"/>
<path opacity="0.2" d="M509.771 321.855C507.789 323.54 505.806 325.027 503.824 326.514L509.771 329.982C511.753 328.496 513.735 326.91 515.718 325.324L509.771 321.855Z" fill="#63BDFE"/>
<path opacity="0.2" d="M519.98 312.341C518.196 314.224 516.313 316.008 514.43 317.792L520.377 321.261C522.26 319.477 524.143 317.693 525.927 315.81L519.98 312.341Z" fill="#63BDFE"/>
<path opacity="0.5" d="M519.682 293.708C518.691 294.898 517.601 296.087 516.61 297.276C515.817 298.168 515.123 299.06 514.33 299.952L520.277 303.421C521.07 302.529 521.764 301.637 522.557 300.745C523.548 299.556 524.638 298.366 525.629 297.177L519.682 293.708Z" fill="#63BDFE"/>
<path opacity="0.5" d="M530.784 300.15C529.793 301.34 528.702 302.529 527.711 303.718C526.918 304.61 526.224 305.502 525.431 306.394L531.378 309.863C532.171 308.971 532.865 308.079 533.658 307.187C534.649 305.998 535.739 304.809 536.731 303.619L530.784 300.15Z" fill="#63BDFE"/>
<path opacity="0.2" d="M431.965 303.817C429.883 304.808 427.901 305.7 425.919 306.493L431.866 309.962C433.848 309.169 435.929 308.277 437.912 307.286L431.965 303.817Z" fill="#63BDFE"/>
<path opacity="0.2" d="M442.57 309.962C440.488 310.953 438.506 311.845 436.524 312.638L465.565 329.487C467.547 328.694 469.628 327.802 471.611 326.811L442.57 309.962Z" fill="#63BDFE"/>
<path opacity="0.2" d="M453.671 303.619C451.887 304.809 450.103 305.899 448.418 306.89C448.121 307.088 447.823 307.286 447.526 307.386L461.402 315.413C461.7 315.215 461.997 315.116 462.294 314.918C464.078 313.927 465.862 312.837 467.647 311.647L453.671 303.619Z" fill="#63BDFE"/>
<path opacity="0.5" d="M464.475 295.492C462.492 297.177 460.51 298.664 458.528 300.151L472.404 308.178C474.386 306.692 476.369 305.106 478.351 303.52L464.475 295.492Z" fill="#63BDFE"/>
<path opacity="0.5" d="M474.684 285.978C472.899 287.861 471.016 289.645 469.133 291.429L498.174 308.278C500.057 306.494 501.941 304.71 503.725 302.827L474.684 285.978Z" fill="#63BDFE"/>
<path opacity="0.3" d="M485.487 273.887C484.496 275.076 483.406 276.265 482.415 277.455C481.622 278.347 480.928 279.239 480.135 280.131L509.176 296.979C509.969 296.087 510.663 295.195 511.456 294.303C512.447 293.114 513.537 291.925 514.529 290.735L485.487 273.887Z" fill="#63BDFE"/>
<path opacity="0.3" d="M464.475 261.696C463.484 262.886 462.393 264.075 461.402 265.264C460.609 266.156 459.915 267.048 459.122 267.94L475.378 277.455C476.17 276.563 476.864 275.671 477.657 274.779C478.648 273.589 479.739 272.4 480.73 271.211L464.475 261.696Z" fill="#63BDFE"/>
<path opacity="0.2" d="M443.065 297.375C441.281 298.565 439.497 299.655 437.812 300.646C437.515 300.844 437.217 301.043 436.92 301.142L442.867 304.61C443.164 304.412 443.462 304.313 443.759 304.115C445.543 303.124 447.327 302.034 449.012 300.844L443.065 297.375Z" fill="#63BDFE"/>
<path opacity="0.2" d="M453.869 289.348C451.887 291.033 449.905 292.519 447.922 294.006L453.869 297.475C455.852 295.988 457.834 294.402 459.816 292.816L453.869 289.348Z" fill="#63BDFE"/>
<path opacity="0.2" d="M464.078 279.833C462.294 281.716 460.411 283.5 458.528 285.284L464.475 288.753C466.358 286.969 468.241 285.185 470.025 283.302L464.078 279.833Z" fill="#63BDFE"/>
<path opacity="0.2" d="M401.337 310.557C399.553 310.557 397.67 310.755 395.787 311.053L446.634 340.587C448.517 340.29 450.4 340.191 452.184 340.092L401.337 310.557Z" fill="#63BDFE"/>
<path opacity="0.2" d="M457.338 342.965C455.554 342.965 453.671 343.164 451.788 343.461L471.215 354.759C473.098 354.462 474.981 354.363 476.765 354.264L457.338 342.965Z" fill="#63BDFE"/>
<path opacity="0.2" d="M477.36 348.813C475.576 349.011 473.693 349.11 472.008 349.11L481.027 354.363C482.811 354.363 484.596 354.264 486.38 354.066L477.36 348.813Z" fill="#63BDFE"/>
<path opacity="0.2" d="M487.569 346.633C485.586 347.227 483.703 347.723 481.82 348.119L490.84 353.372C492.723 352.976 494.606 352.48 496.588 351.885L487.569 346.633Z" fill="#63BDFE"/>
<path opacity="0.2" d="M498.273 342.371C496.192 343.362 494.21 344.254 492.227 345.047L501.247 350.3C503.229 349.507 505.311 348.615 507.293 347.624L498.273 342.371Z" fill="#63BDFE"/>
<path opacity="0.2" d="M509.473 335.929C507.689 337.118 505.905 338.208 504.22 339.2C503.923 339.398 503.626 339.596 503.328 339.695L512.348 344.948C512.645 344.75 512.943 344.651 513.24 344.452C515.024 343.461 516.808 342.371 518.493 341.182L509.473 335.929Z" fill="#63BDFE"/>
<path opacity="0.2" d="M520.178 327.901C518.196 329.586 516.213 331.073 514.231 332.559L523.251 337.812C525.233 336.326 527.215 334.74 529.198 333.154L520.178 327.901Z" fill="#63BDFE"/>
<path opacity="0.2" d="M530.387 318.386C528.603 320.269 526.72 322.053 524.837 323.837L533.856 329.09C535.739 327.306 537.623 325.522 539.407 323.639L530.387 318.386Z" fill="#63BDFE"/>
<path opacity="0.5" d="M541.191 306.196C540.2 307.386 539.109 308.575 538.118 309.764C537.325 310.656 536.631 311.548 535.838 312.44L544.858 317.693C545.651 316.801 546.345 315.909 547.138 315.017C548.129 313.828 549.219 312.638 550.21 311.449L541.191 306.196Z" fill="#63BDFE"/>
<path opacity="0.5" d="M531.081 282.41C529.099 284.095 527.215 285.878 525.332 287.762L555.86 305.502C557.743 303.619 559.627 301.835 561.609 300.15L531.081 282.41Z" fill="#63BDFE"/>
<path opacity="0.3" d="M475.972 250.398C473.99 252.083 472.106 253.867 470.223 255.75L520.277 284.789C522.16 282.906 524.043 281.122 526.026 279.437L475.972 250.398Z" fill="#63BDFE"/>
<path opacity="0.2" d="M381.316 327.901C379.334 329.19 377.351 330.478 375.369 331.965L403.617 348.417C405.6 346.93 407.582 345.543 409.564 344.353L381.316 327.901Z" fill="#63BDFE"/>
<path opacity="0.2" d="M414.322 347.029C412.34 348.318 410.357 349.606 408.375 351.093L421.458 358.724C423.441 357.238 425.423 355.85 427.405 354.661L414.322 347.029Z" fill="#63BDFE"/>
<path opacity="0.2" d="M432.361 357.534C423.143 363.382 414.024 371.41 405.698 381.321L418.782 388.952C427.108 379.041 436.226 371.013 445.444 365.166L432.361 357.534Z" fill="#63BDFE"/>
<path opacity="0.2" d="M370.711 335.631C365.16 340.19 359.808 345.641 354.654 351.687L400.743 378.446C405.798 372.401 411.249 367.049 416.8 362.391L370.711 335.631Z" fill="#63BDFE"/>
<path opacity="0.3" d="M555.067 275.769C551.796 277.653 548.426 279.833 545.155 282.311L481.82 245.541C485.091 243.063 488.362 240.883 491.732 239L555.067 275.769Z" fill="#63BDFE"/>
<path opacity="0.5" d="M577.467 288.753C574.197 290.636 570.827 292.816 567.556 295.294L551.4 285.879C554.671 283.401 557.941 281.22 561.311 279.337L577.467 288.753Z" fill="#63BDFE"/>
<path opacity="0.4" d="M197.852 445.841C194.284 448.517 190.616 450.994 186.949 453.076L170 443.264C173.766 441.084 177.335 438.705 180.903 436.029L197.852 445.841Z" fill="#63BDFE"/>
<path opacity="0.4" d="M191.409 427.208C189.526 428.992 187.643 430.677 185.66 432.263L202.609 442.074C204.592 440.489 206.475 438.705 208.358 437.02L191.409 427.208Z" fill="#63BDFE"/>
<path opacity="0.4" d="M201.221 417.099C199.437 419.082 197.653 421.064 195.869 422.947L201.816 426.416C203.699 424.533 205.483 422.649 207.168 420.568L201.221 417.099Z" fill="#63BDFE"/>
<path opacity="0.2" d="M211.53 423.046C209.746 425.028 207.962 427.01 206.177 428.893L281.605 472.699C283.488 470.816 285.272 468.933 286.957 466.852L211.53 423.046Z" fill="#63BDFE"/>
<path opacity="0.4" d="M210.936 406.098C209.052 407.981 207.169 410.062 205.385 412.144L211.332 415.612C213.116 413.531 214.999 411.549 216.883 409.567L210.936 406.098Z" fill="#63BDFE"/>
<path opacity="0.4" d="M221.342 412.144C219.459 414.027 217.576 416.108 215.792 418.189L248.401 437.119C250.185 435.038 252.068 433.056 253.951 431.074L221.342 412.144Z" fill="#63BDFE"/>
<path opacity="0.2" d="M258.511 433.749C256.628 435.632 254.745 437.714 252.961 439.795L291.12 461.995C292.904 459.914 294.788 457.932 296.671 455.95L258.511 433.749Z" fill="#63BDFE"/>
<path opacity="0.2" d="M221.342 396.683C219.36 398.268 217.477 399.953 215.495 401.737L221.442 405.206C223.325 403.422 225.307 401.737 227.289 400.151L221.342 396.683Z" fill="#63BDFE"/>
<path opacity="0.4" d="M298.157 427.506C296.175 428.695 294.193 430.082 292.21 431.47L298.157 434.939C300.14 433.551 302.122 432.164 304.104 430.974L298.157 427.506Z" fill="#63BDFE"/>
<path opacity="0.4" d="M271.892 412.243C269.909 413.432 267.927 414.82 265.945 416.207L287.156 428.497C289.138 427.109 291.12 425.722 293.103 424.532L271.892 412.243Z" fill="#63BDFE"/>
<path opacity="0.4" d="M242.256 394.998C240.274 396.187 238.291 397.575 236.309 398.962L260.791 413.234C262.773 411.846 264.755 410.459 266.738 409.27L242.256 394.998Z" fill="#63BDFE"/>
<path opacity="0.2" d="M252.96 389.447C250.978 390.339 248.996 391.231 247.013 392.321L256.231 397.673C258.213 396.583 260.196 395.691 262.178 394.799L252.96 389.447Z" fill="#63BDFE"/>
<path opacity="0.2" d="M268.125 398.268C266.143 399.16 264.161 400.052 262.178 401.142L271.396 406.494C273.378 405.404 275.361 404.512 277.343 403.62L268.125 398.268Z" fill="#63BDFE"/>
<path opacity="0.2" d="M231.948 389.051C229.965 390.241 227.983 391.628 226.001 393.016L231.948 396.484C233.93 395.097 235.912 393.709 237.895 392.52L231.948 389.051Z" fill="#63BDFE"/>
<path opacity="0.2" d="M242.652 383.402C240.67 384.294 238.688 385.186 236.705 386.276L242.652 389.745C244.635 388.655 246.617 387.763 248.599 386.871L242.652 383.402Z" fill="#63BDFE"/>
<path opacity="0.2" d="M253.158 380.032C251.275 380.429 249.293 381.024 247.311 381.717L253.258 385.186C255.24 384.492 257.123 383.997 259.105 383.501L253.158 380.032Z" fill="#63BDFE"/>
<path opacity="0.2" d="M263.169 378.843C261.385 378.843 259.502 378.942 257.619 379.239L263.566 382.708C265.449 382.51 267.332 382.312 269.116 382.312L263.169 378.843Z" fill="#63BDFE"/>
<path opacity="0.2" d="M272.784 378.447C270.9 378.645 269.116 378.843 267.332 378.843L273.279 382.312C275.063 382.312 276.847 382.114 278.731 381.915L272.784 378.447Z" fill="#63BDFE"/>
<path opacity="0.2" d="M283.092 376.068C281.109 376.663 279.226 377.257 277.343 377.654L283.29 381.122C285.173 380.726 287.156 380.23 289.039 379.537L283.092 376.068Z" fill="#63BDFE"/>
<path opacity="0.4" d="M282.596 406.693C280.614 407.585 278.632 408.477 276.649 409.567L297.86 421.857C299.843 420.766 301.825 419.874 303.807 418.982L282.596 406.693Z" fill="#63BDFE"/>
<path opacity="0.4" d="M293.102 403.224C291.219 403.62 289.237 404.215 287.254 404.909L308.465 417.198C310.447 416.505 312.331 416.009 314.313 415.513L293.102 403.224Z" fill="#63BDFE"/>
<path opacity="0.4" d="M318.377 410.855C316.593 410.855 314.71 410.955 312.827 411.252L318.774 414.721C320.657 414.522 322.54 414.324 324.324 414.324L318.377 410.855Z" fill="#63BDFE"/>
<path opacity="0.2" d="M327.991 410.459C326.108 410.657 324.324 410.855 322.54 410.855L328.487 414.324C330.271 414.324 332.055 414.126 333.938 413.928L327.991 410.459Z" fill="#63BDFE"/>
<path opacity="0.2" d="M338.2 408.08C336.218 408.675 334.335 409.27 332.452 409.666L338.399 413.135C340.282 412.738 342.264 412.243 344.147 411.549L338.2 408.08Z" fill="#63BDFE"/>
<path opacity="0.4" d="M308.862 421.956C306.88 422.848 304.897 423.74 302.915 424.83L308.862 428.299C310.844 427.208 312.827 426.316 314.809 425.424L308.862 421.956Z" fill="#63BDFE"/>
<path opacity="0.4" d="M319.368 418.487C317.485 418.883 315.502 419.478 313.52 420.172L319.467 423.641C321.449 422.947 323.333 422.451 325.315 421.956L319.368 418.487Z" fill="#63BDFE"/>
<path opacity="0.2" d="M329.478 417.297C327.694 417.297 325.81 417.396 323.927 417.694L329.874 421.163C331.757 420.964 333.641 420.766 335.425 420.766L329.478 417.297Z" fill="#63BDFE"/>
<path opacity="0.2" d="M339.092 416.901C337.209 417.099 335.425 417.297 333.641 417.297L339.588 420.766C341.372 420.766 343.156 420.568 345.039 420.37L339.092 416.901Z" fill="#63BDFE"/>
<path opacity="0.2" d="M349.301 414.522C347.319 415.117 345.436 415.712 343.553 416.108L349.5 419.577C351.383 419.181 353.365 418.685 355.248 417.991L349.301 414.522Z" fill="#63BDFE"/>
<path opacity="0.2" d="M350.392 402.926C348.31 404.016 346.328 405.008 344.246 405.8L350.193 409.269C352.176 408.377 354.257 407.485 356.339 406.395L350.392 402.926Z" fill="#63BDFE"/>
<path opacity="0.2" d="M361.493 409.369C359.411 410.459 357.429 411.45 355.347 412.243L361.294 415.712C363.277 414.82 365.358 413.928 367.44 412.837L361.493 409.369Z" fill="#63BDFE"/>
<path opacity="0.2" d="M263.467 385.979C261.584 386.375 259.601 386.97 257.619 387.664L263.566 391.132C265.548 390.439 267.431 389.943 269.414 389.448L263.467 385.979Z" fill="#63BDFE"/>
<path opacity="0.2" d="M274.072 392.124C272.189 392.52 270.207 393.115 268.224 393.808L282.101 401.836C284.083 401.142 285.966 400.647 287.949 400.151L274.072 392.124Z" fill="#63BDFE"/>
<path opacity="0.2" d="M284.182 391.033C282.398 391.033 280.515 391.132 278.632 391.43L307.673 408.278C309.556 408.08 311.439 407.882 313.223 407.882L284.182 391.033Z" fill="#63BDFE"/>
<path opacity="0.2" d="M293.796 390.637C291.913 390.835 290.129 391.034 288.344 391.034L317.386 407.882C319.17 407.882 320.954 407.684 322.837 407.486L293.796 390.637Z" fill="#63BDFE"/>
<path opacity="0.2" d="M304.005 388.259C302.023 388.853 300.14 389.448 298.256 389.844L327.297 406.693C329.181 406.296 331.163 405.801 333.046 405.107L304.005 388.259Z" fill="#63BDFE"/>
<path opacity="0.2" d="M316.196 383.105C314.115 384.195 312.133 385.186 310.051 385.979L339.092 402.828C341.075 401.936 343.156 401.044 345.237 399.954L316.196 383.105Z" fill="#63BDFE"/>
<path opacity="0.2" d="M295.184 370.914C293.102 372.005 291.12 372.996 289.038 373.788L305.293 383.303C307.276 382.411 309.357 381.519 311.439 380.429L295.184 370.914Z" fill="#63BDFE"/>
<path opacity="0.2" d="M273.477 384.79C271.693 384.79 269.81 384.889 267.927 385.186L273.874 388.655C275.757 388.457 277.64 388.259 279.424 388.259L273.477 384.79Z" fill="#63BDFE"/>
<path opacity="0.2" d="M283.092 384.393C281.209 384.592 279.424 384.79 277.64 384.79L283.587 388.259C285.371 388.259 287.156 388.06 289.039 387.862L283.092 384.393Z" fill="#63BDFE"/>
<path opacity="0.2" d="M293.4 382.114C291.418 382.708 289.535 383.303 287.651 383.699L293.598 387.168C295.482 386.772 297.464 386.276 299.347 385.582L293.4 382.114Z" fill="#63BDFE"/>
<path opacity="0.4" d="M231.65 402.629C229.668 404.215 227.785 405.9 225.802 407.684L276.649 437.218C278.532 435.434 280.514 433.75 282.497 432.164L231.65 402.629Z" fill="#63BDFE"/>
<path opacity="0.4" d="M287.552 435.137C285.57 436.723 283.686 438.408 281.704 440.192L301.131 451.49C303.014 449.706 304.996 448.022 306.979 446.436L287.552 435.137Z" fill="#63BDFE"/>
<path opacity="0.4" d="M308.664 433.552C306.681 434.741 304.699 436.128 302.717 437.516L311.736 442.769C313.719 441.381 315.701 439.994 317.683 438.804L308.664 433.552Z" fill="#63BDFE"/>
<path opacity="0.4" d="M319.269 428.001C317.287 428.893 315.305 429.785 313.322 430.875L322.342 436.128C324.324 435.038 326.307 434.146 328.289 433.254L319.269 428.001Z" fill="#63BDFE"/>
<path opacity="0.2" d="M329.775 424.533C327.892 424.929 325.91 425.524 323.927 426.218L332.947 431.47C334.929 430.777 336.812 430.281 338.795 429.785L329.775 424.533Z" fill="#63BDFE"/>
<path opacity="0.2" d="M339.885 423.343C338.101 423.343 336.218 423.442 334.334 423.739L343.354 428.992C345.237 428.794 347.12 428.596 348.905 428.596L339.885 423.343Z" fill="#63BDFE"/>
<path opacity="0.2" d="M349.5 422.946C347.617 423.145 345.833 423.343 344.049 423.343L353.068 428.596C354.852 428.596 356.636 428.397 358.52 428.199L349.5 422.946Z" fill="#63BDFE"/>
<path opacity="0.2" d="M359.709 420.667C357.726 421.262 355.843 421.856 353.96 422.253L362.979 427.506C364.863 427.109 366.845 426.614 368.728 425.92L359.709 420.667Z" fill="#63BDFE"/>
<path opacity="0.2" d="M371.9 415.513C369.818 416.604 367.836 417.595 365.755 418.388L374.774 423.64C376.757 422.748 378.838 421.856 380.919 420.766L371.9 415.513Z" fill="#63BDFE"/>
<path opacity="0.2" d="M362.88 395.196C360.898 396.683 358.817 397.971 356.735 399.26L387.263 417C389.345 415.712 391.327 414.324 393.408 412.937L362.88 395.196Z" fill="#63BDFE"/>
<path opacity="0.2" d="M307.673 363.184C305.69 364.67 303.609 365.959 301.527 367.247L351.581 396.286C353.663 394.998 355.645 393.61 357.726 392.223L307.673 363.184Z" fill="#63BDFE"/>
<path opacity="0.2" d="M213.017 439.795C211.133 441.579 209.25 443.264 207.268 444.85L235.516 461.302C237.498 459.716 239.382 457.932 241.265 456.247L213.017 439.795Z" fill="#63BDFE"/>
<path opacity="0.2" d="M246.022 458.923C244.139 460.707 242.256 462.392 240.273 463.978L253.357 471.609C255.339 470.023 257.222 468.239 259.105 466.554L246.022 458.923Z" fill="#63BDFE"/>
<path opacity="0.2" d="M277.145 476.961C270.405 483.304 263.169 488.755 255.735 493.116L242.652 485.484C250.086 481.222 257.321 475.672 264.061 469.329L277.145 476.961Z" fill="#63BDFE"/>
<path opacity="0.2" d="M248.599 475.376C245.031 478.052 241.363 480.529 237.696 482.611L191.607 455.851C195.373 453.671 198.942 451.292 202.51 448.616L248.599 475.376Z" fill="#63BDFE"/>
<path opacity="0.2" d="M328.983 343.857C324.126 349.209 319.071 354.165 313.719 358.526L377.054 395.295C382.406 390.934 387.461 385.979 392.318 380.627L328.983 343.857Z" fill="#63BDFE"/>
<path opacity="0.2" d="M398.463 384.195C393.607 389.547 388.552 394.502 383.199 398.863L399.355 408.278C404.708 403.918 409.763 398.962 414.619 393.61L398.463 384.195Z" fill="#63BDFE"/>
</g>
<g opacity="0.2">
<path opacity="0.2" d="M349.103 323.044C343.553 327.603 338.201 333.054 333.047 339.1L349.996 348.911C355.05 342.866 360.502 337.514 366.052 332.856L349.103 323.044Z" fill="#63BDFE"/>
<path opacity="0.2" d="M359.709 315.314C357.726 316.602 355.744 317.891 353.762 319.377L370.711 329.189C372.693 327.703 374.675 326.315 376.658 325.126L359.709 315.314Z" fill="#63BDFE"/>
<path opacity="0.2" d="M381.316 327.901C379.334 329.189 377.351 330.477 375.369 331.964L403.617 348.416C405.6 346.93 407.582 345.542 409.564 344.353L381.316 327.901Z" fill="#63BDFE"/>
<path opacity="0.2" d="M414.322 347.029C412.34 348.317 410.358 349.606 408.375 351.093L421.459 358.724C423.441 357.237 425.423 355.85 427.406 354.66L414.322 347.029Z" fill="#63BDFE"/>
<path opacity="0.2" d="M432.361 357.534C423.143 363.382 414.025 371.41 405.699 381.321L418.782 388.952C427.108 379.041 436.227 371.013 445.445 365.166L432.361 357.534Z" fill="#63BDFE"/>
<path opacity="0.2" d="M370.711 335.631C365.16 340.19 359.808 345.641 354.654 351.687L400.743 378.446C405.798 372.401 411.25 367.049 416.8 362.391L370.711 335.631Z" fill="#63BDFE"/>
<path opacity="0.2" d="M283.092 376.068C281.11 376.662 279.226 377.257 277.343 377.653L283.29 381.122C285.173 380.726 287.156 380.23 289.039 379.536L283.092 376.068Z" fill="#63BDFE"/>
<path opacity="0.2" d="M338.2 408.08C336.218 408.674 334.335 409.269 332.452 409.665L338.399 413.134C340.282 412.738 342.264 412.242 344.147 411.548L338.2 408.08Z" fill="#63BDFE"/>
<path opacity="0.2" d="M349.301 414.522C347.319 415.117 345.436 415.712 343.553 416.108L349.5 419.577C351.383 419.181 353.365 418.685 355.248 417.991L349.301 414.522Z" fill="#63BDFE"/>
<path opacity="0.2" d="M350.392 402.926C348.31 404.016 346.328 405.007 344.246 405.8L350.193 409.269C352.176 408.377 354.257 407.485 356.339 406.395L350.392 402.926Z" fill="#63BDFE"/>
<path opacity="0.2" d="M361.493 409.368C359.411 410.459 357.429 411.45 355.348 412.243L361.295 415.711C363.277 414.819 365.358 413.927 367.44 412.837L361.493 409.368Z" fill="#63BDFE"/>
<path opacity="0.2" d="M304.006 388.258C302.024 388.852 300.14 389.447 298.257 389.844L327.298 406.692C329.182 406.296 331.164 405.8 333.047 405.106L304.006 388.258Z" fill="#63BDFE"/>
<path opacity="0.2" d="M316.196 383.105C314.115 384.195 312.133 385.186 310.051 385.979L339.092 402.828C341.075 401.936 343.156 401.044 345.238 399.954L316.196 383.105Z" fill="#63BDFE"/>
<path opacity="0.2" d="M295.184 370.914C293.102 372.005 291.12 372.996 289.039 373.788L305.294 383.303C307.276 382.411 309.358 381.519 311.439 380.429L295.184 370.914Z" fill="#63BDFE"/>
<path opacity="0.2" d="M293.4 382.113C291.418 382.708 289.534 383.303 287.651 383.699L293.598 387.168C295.481 386.771 297.464 386.276 299.347 385.582L293.4 382.113Z" fill="#63BDFE"/>
<path opacity="0.2" d="M359.709 420.667C357.726 421.262 355.843 421.857 353.96 422.253L362.98 427.506C364.863 427.109 366.845 426.614 368.728 425.92L359.709 420.667Z" fill="#63BDFE"/>
<path opacity="0.2" d="M371.9 415.513C369.819 416.603 367.836 417.594 365.755 418.387L374.774 423.64C376.757 422.748 378.838 421.856 380.92 420.766L371.9 415.513Z" fill="#63BDFE"/>
<path opacity="0.2" d="M362.881 395.196C360.898 396.683 358.817 397.971 356.735 399.26L387.263 417C389.345 415.712 391.327 414.324 393.408 412.937L362.881 395.196Z" fill="#63BDFE"/>
<path opacity="0.2" d="M307.673 363.184C305.69 364.67 303.609 365.959 301.527 367.247L351.581 396.286C353.663 394.998 355.645 393.61 357.726 392.223L307.673 363.184Z" fill="#63BDFE"/>
<path opacity="0.2" d="M328.983 343.857C324.126 349.209 319.072 354.165 313.719 358.526L377.055 395.295C382.407 390.934 387.462 385.979 392.318 380.627L328.983 343.857Z" fill="#63BDFE"/>
<path opacity="0.2" d="M398.463 384.195C393.607 389.547 388.552 394.502 383.199 398.863L399.355 408.278C404.708 403.918 409.763 398.962 414.619 393.61L398.463 384.195Z" fill="#63BDFE"/>
</g>
</svg>
