<svg width="164" height="110" viewBox="0 0 164 110" fill="none" xmlns="http://www.w3.org/2000/svg">
<path d="M77.4346 87.7382V87.1119H77.7988V87.7382H77.4346ZM76.7393 87.7382H76.3751V87.1119H76.7393V87.7382ZM78.5272 87.7382V87.1119H78.8914V87.7382H78.5272ZM75.6467 87.6812H75.2825V87.0549H75.6467V87.6812ZM79.5867 87.6812V87.0549H79.9509L79.984 87.6812H79.5867ZM74.5872 87.6243C74.4548 87.6243 74.3555 87.6243 74.2231 87.5674L74.2562 86.9411C74.3886 86.9411 74.4879 86.9411 74.6204 86.998L74.5872 87.6243ZM80.6793 87.5674L80.6462 86.9411L81.0103 86.8841L81.0435 87.5104L80.6793 87.5674ZM73.4947 87.5104L73.1305 87.4535L73.1636 86.8272L73.5278 86.8841L73.4947 87.5104ZM81.7387 87.4535L81.7056 86.8272L82.0698 86.7702L82.1029 87.3966L81.7387 87.4535ZM72.4352 87.3966L72.071 87.3396L72.1041 86.7133L72.4683 86.7702L72.4352 87.3966ZM82.8313 87.2827L82.7982 86.6564C82.9307 86.6564 83.03 86.5994 83.1624 86.5994L83.1955 87.2257C83.0631 87.2827 82.9306 87.2827 82.8313 87.2827ZM71.3426 87.1688L70.9784 87.1119L71.0115 86.4856L71.3757 86.5425L71.3426 87.1688ZM83.8908 87.1119L83.8577 86.4856L84.2219 86.4286L84.255 87.0549L83.8908 87.1119ZM70.2831 86.998L69.9189 86.9411L69.952 86.3148L70.3162 86.3717L70.2831 86.998ZM84.9503 86.8841L84.9172 86.2578L85.2814 86.2009L85.3476 86.8272L84.9503 86.8841ZM69.2236 86.7133L68.8594 86.5994L68.9257 85.9732L69.2898 86.087L69.2236 86.7133ZM86.0098 86.5994L85.9436 85.9732L86.3077 85.8593L86.374 86.4856L86.0098 86.5994ZM68.131 86.4286L67.7668 86.3148L67.8331 85.6885L68.1973 85.8023L68.131 86.4286ZM87.0692 86.3148L87.003 85.6885L87.3672 85.5746L87.4334 86.2009L87.0692 86.3148ZM67.0716 86.087L66.7074 85.9732L66.7736 85.3469L67.1378 85.4607L67.0716 86.087ZM88.1287 85.9732L88.0625 85.3469L88.4267 85.233L88.4929 85.8593L88.1287 85.9732ZM66.0121 85.7454C65.8797 85.6885 65.7803 85.6315 65.6479 85.6315L65.7141 85.0052C65.8465 85.0622 65.9459 85.1191 66.0783 85.1191L66.0121 85.7454ZM89.1882 85.5746L89.122 84.9483L89.4531 84.8344L89.5193 85.4607L89.1882 85.5746ZM64.9857 85.3469C64.8533 85.2899 64.754 85.233 64.6215 85.176L64.7208 84.6067C64.8202 84.6636 64.9526 84.7206 65.0519 84.7775L64.9857 85.3469ZM90.2477 85.176L90.1484 84.6067L90.4794 84.4359L90.5788 85.0052L90.2477 85.176ZM63.9262 84.8914C63.7938 84.8344 63.6945 84.7775 63.562 84.7206L63.6614 84.1512L63.9924 84.322L63.9262 84.8914ZM91.2741 84.7206L91.1747 84.1512L91.5058 83.9804L91.6051 84.5498L91.2741 84.7206ZM62.8668 84.3789L62.5357 84.2081L62.635 83.6388L62.9661 83.8096L62.8668 84.3789ZM92.3004 84.2081L92.2011 83.6388C92.3004 83.5818 92.4329 83.5249 92.5322 83.468L92.6315 84.0373C92.5322 84.0943 92.4329 84.1512 92.3004 84.2081ZM61.8404 83.8665C61.7411 83.8096 61.6086 83.7527 61.5093 83.6957L61.6086 83.1264C61.7079 83.1833 61.8404 83.2402 61.9397 83.2972L61.8404 83.8665ZM93.3268 83.6388L93.2275 83.0694L93.5586 82.8986L93.6579 83.468L93.3268 83.6388ZM60.814 83.2972L60.4829 83.0694L60.6154 82.5001L60.9464 82.7278L60.814 83.2972ZM94.3532 83.0694L94.2207 82.5001L94.5518 82.2723L94.6843 82.8417L94.3532 83.0694ZM59.7876 82.6709L59.4566 82.4431L59.589 81.8738L59.9201 82.1015L59.7876 82.6709ZM95.3795 82.4431L95.2471 81.8738L95.5782 81.646L95.7106 82.2154L95.3795 82.4431ZM58.7944 81.9876L58.4633 81.7599L58.5957 81.1905L58.9268 81.4183L58.7944 81.9876ZM96.3728 81.7599L96.2404 81.1905L96.5714 80.9628L96.7039 81.5322L96.3728 81.7599ZM57.8011 81.3044C57.7018 81.2475 57.5694 81.1336 57.47 81.0767L57.6025 80.5073C57.7018 80.5642 57.8342 80.6781 57.9336 80.7351L57.8011 81.3044ZM97.3661 81.0197L97.2336 80.4504C97.333 80.3934 97.4654 80.2796 97.5647 80.2226L97.6972 80.792C97.5978 80.8489 97.4654 80.9059 97.3661 81.0197ZM56.8079 80.5643C56.7085 80.4504 56.5761 80.3934 56.4768 80.2796L56.6423 79.7102C56.7416 79.8241 56.841 79.881 56.9734 79.9949L56.8079 80.5643ZM98.3593 80.2226L98.1938 79.6533C98.2931 79.5394 98.3924 79.4825 98.5249 79.3686L98.6904 79.938C98.558 80.0518 98.4587 80.1657 98.3593 80.2226ZM55.8477 79.7102L55.5166 79.4255L55.6822 78.8562L56.0132 79.1409L55.8477 79.7102ZM99.3195 79.4255L99.1539 78.8562L99.485 78.5715L99.6506 79.1409L99.3195 79.4255ZM54.8875 78.8562C54.7882 78.7423 54.6889 78.6854 54.5565 78.5715L54.722 78.0591C54.8213 78.1729 54.9207 78.2299 55.02 78.3437L54.8875 78.8562ZM100.28 78.5146L100.114 78.0021C100.213 77.8883 100.313 77.7744 100.412 77.7174L100.578 78.2299C100.478 78.3438 100.379 78.4007 100.28 78.5146ZM100.743 78.0591L100.578 77.5466C100.677 77.4328 100.776 77.3189 100.876 77.262L101.074 77.7744C100.942 77.8313 100.842 77.9452 100.743 78.0591ZM53.9605 77.9452C53.8612 77.8313 53.7618 77.7175 53.6625 77.6036L53.8612 77.0912C53.9605 77.205 54.0598 77.3189 54.1592 77.4328L53.9605 77.9452ZM101.637 77.0912L101.438 76.5787C101.538 76.4649 101.637 76.351 101.736 76.2371L101.935 76.7495C101.869 76.8634 101.77 76.9773 101.637 77.0912ZM53.0335 76.9773C52.9341 76.8634 52.8348 76.7495 52.7355 76.6357L52.9341 76.1232C53.0335 76.2371 53.1328 76.351 53.2321 76.4649L53.0335 76.9773ZM102.564 76.0663L102.365 75.5539C102.465 75.44 102.564 75.3261 102.663 75.2123L102.862 75.7247C102.763 75.8386 102.663 75.9524 102.564 76.0663ZM52.1395 75.9524C52.0402 75.8386 51.9409 75.7247 51.8415 75.6108L52.0402 75.0984C52.1395 75.2123 52.2388 75.3261 52.3382 75.44L52.1395 75.9524ZM103.425 74.9845L103.226 74.4721C103.326 74.3582 103.425 74.2444 103.524 74.1305L103.756 74.6429C103.624 74.7568 103.524 74.8707 103.425 74.9845ZM51.2456 74.8707C51.1463 74.7568 51.0469 74.6429 50.9476 74.4721L51.1794 74.0166C51.2787 74.1305 51.378 74.2444 51.4442 74.4152L51.2456 74.8707ZM104.286 73.8458L104.054 73.3903C104.153 73.2765 104.253 73.1056 104.319 72.9918L104.551 73.4473C104.451 73.5611 104.385 73.7319 104.286 73.8458ZM50.4179 73.675C50.3185 73.5611 50.2192 73.3903 50.153 73.2765L50.3848 72.821C50.4841 72.9348 50.5503 73.1057 50.6496 73.2195L50.4179 73.675ZM105.114 72.6502L104.882 72.1947C104.981 72.0808 105.047 71.91 105.147 71.7961L105.378 72.2516C105.279 72.3655 105.18 72.4794 105.114 72.6502ZM49.5901 72.4794C49.4908 72.3655 49.4246 72.1947 49.3253 72.0808L49.557 71.6253C49.6564 71.7392 49.7226 71.91 49.8219 72.0239L49.5901 72.4794ZM105.875 71.3406L105.61 70.8852C105.709 70.7143 105.776 70.6005 105.842 70.4297L106.107 70.8282C106.041 71.056 105.974 71.1698 105.875 71.3406ZM48.8286 71.1698C48.7293 70.999 48.6631 70.8852 48.5638 70.7143L48.8286 70.3158C48.8949 70.4866 48.9942 70.6005 49.0604 70.7713L48.8286 71.1698ZM106.637 69.9742L106.372 69.5756C106.438 69.4048 106.537 69.291 106.603 69.1201L106.868 69.5187C106.769 69.6895 106.703 69.8034 106.637 69.9742ZM48.0671 69.8034C48.0009 69.6326 47.9016 69.4618 47.8354 69.3479L48.1003 68.9493C48.1665 69.1201 48.2658 69.234 48.332 69.4048L48.0671 69.8034ZM107.332 68.5508L107.034 68.1522C107.1 67.9814 107.166 67.8106 107.232 67.6398L107.53 67.9814C107.464 68.2092 107.398 68.38 107.332 68.5508ZM47.405 68.38C47.3388 68.2092 47.2725 68.0384 47.1732 67.8676L47.4712 67.5259C47.5374 67.6968 47.6036 67.8676 47.6698 68.0384L47.405 68.38ZM107.961 67.0135L107.663 66.6719C107.729 66.5011 107.795 66.3303 107.862 66.1595L108.16 66.5011C108.093 66.6719 108.027 66.8427 107.961 67.0135ZM46.7759 66.8427C46.7097 66.6719 46.6435 66.5011 46.5773 66.3303L46.8752 65.9887C46.9414 66.1595 47.0077 66.3303 47.0739 66.5011L46.7759 66.8427ZM108.524 65.4762L108.226 65.1916C108.292 65.0208 108.358 64.85 108.391 64.6791L108.689 64.9638C108.656 65.0777 108.59 65.2485 108.524 65.4762ZM46.1799 65.2485C46.1137 65.0777 46.0475 64.9069 46.0144 64.6791L46.3455 64.3945C46.4117 64.5653 46.4448 64.7361 46.511 64.9069L46.1799 65.2485ZM109.053 63.8251L108.722 63.5404C108.789 63.3696 108.822 63.1988 108.855 62.9711L109.186 63.1988C109.153 63.4266 109.087 63.5974 109.053 63.8251ZM45.6833 63.5974C45.6171 63.4266 45.584 63.1988 45.5509 63.028L45.882 62.8003C45.9151 62.9711 45.9813 63.1419 46.0144 63.3696L45.6833 63.5974ZM109.451 62.0601L109.12 61.8324C109.153 61.6616 109.186 61.4338 109.252 61.263L109.583 61.4907C109.55 61.6615 109.517 61.8893 109.451 62.0601ZM45.286 61.8893C45.2529 61.7185 45.2198 61.4907 45.1536 61.3199L45.4847 61.1491C45.5178 61.3199 45.5509 61.5477 45.6171 61.7185L45.286 61.8893ZM109.815 60.2951L109.484 60.1243C109.517 59.9535 109.55 59.7257 109.583 59.5549L109.914 59.7257C109.881 59.8965 109.848 60.1243 109.815 60.2951ZM44.9549 60.0673C44.9218 59.8396 44.8887 59.6688 44.8556 59.4411L45.2198 59.3272C45.2529 59.498 45.286 59.7257 45.3191 59.8965L44.9549 60.0673ZM110.047 58.4731L109.683 58.3593C109.716 58.1885 109.716 57.9607 109.749 57.7899L110.113 57.9038C110.08 58.0746 110.08 58.2454 110.047 58.4731ZM44.7232 58.2454C44.6901 58.0177 44.6901 57.8468 44.6569 57.6191L45.0211 57.5622C45.0211 57.7899 45.0543 57.9607 45.0874 58.1885L44.7232 58.2454ZM110.179 56.5943L109.815 56.5373C109.815 56.3096 109.848 56.1388 109.848 55.911L110.212 55.968C110.212 56.1957 110.212 56.4235 110.179 56.5943ZM44.5907 56.3665C44.5907 56.1388 44.5907 55.968 44.5576 55.7402H44.9218C44.9218 55.968 44.9218 56.1388 44.9549 56.3665H44.5907ZM109.881 54.7723C109.881 54.5446 109.881 54.3738 109.881 54.146H110.245C110.245 54.3738 110.245 54.5446 110.245 54.7723H109.881ZM44.9218 54.5446H44.5576C44.5576 54.3168 44.5576 54.146 44.5576 53.9183L44.9218 53.9752C44.9218 54.146 44.9218 54.3168 44.9218 54.5446ZM109.815 52.9504C109.815 52.7226 109.782 52.5518 109.782 52.3241L110.146 52.2102C110.179 52.4379 110.179 52.6088 110.179 52.8365L109.815 52.9504ZM44.988 52.7226L44.6238 52.6657C44.6238 52.4379 44.6569 52.2671 44.6901 52.0394L45.0542 52.1533C45.0211 52.3241 45.0211 52.5518 44.988 52.7226ZM109.649 51.1284C109.616 50.9576 109.583 50.7299 109.583 50.5591L109.947 50.3883C109.98 50.616 110.014 50.7868 110.014 51.0146L109.649 51.1284ZM45.1867 50.9576L44.8225 50.8437C44.8556 50.616 44.8887 50.4452 44.9218 50.2174L45.2529 50.3883C45.2198 50.5591 45.1867 50.7299 45.1867 50.9576ZM109.385 49.3634C109.351 49.1926 109.318 48.9649 109.285 48.7941L109.616 48.6233C109.649 48.7941 109.683 49.0218 109.716 49.1926L109.385 49.3634ZM45.4516 49.1926L45.1205 49.0218C45.1536 48.851 45.1867 48.6232 45.2529 48.4524L45.584 48.6802C45.5178 48.7941 45.4847 48.9649 45.4516 49.1926ZM109.02 47.6553C108.987 47.4845 108.921 47.2568 108.888 47.086L109.219 46.8582C109.252 47.029 109.318 47.2568 109.351 47.4276L109.02 47.6553ZM45.8158 47.4845L45.4847 47.2568C45.5178 47.086 45.584 46.8582 45.6171 46.6874L45.9482 46.9152C45.9151 47.086 45.882 47.3137 45.8158 47.4845ZM108.59 46.0042C108.524 45.8334 108.491 45.6626 108.424 45.4918L108.755 45.2071C108.822 45.3779 108.855 45.5487 108.921 45.7765L108.59 46.0042ZM46.2793 45.8334L45.9482 45.5487C46.0144 45.3779 46.0475 45.2071 46.1137 44.9794L46.4117 45.264C46.3786 45.4918 46.3124 45.6626 46.2793 45.8334ZM108.06 44.41C107.994 44.2392 107.928 44.0684 107.862 43.8976L108.16 43.556C108.226 43.7268 108.292 43.8976 108.358 44.0684L108.06 44.41ZM46.809 44.2392L46.511 43.8976C46.5773 43.7268 46.6435 43.556 46.7097 43.3851L47.0077 43.7268C46.9083 43.8976 46.8421 44.0684 46.809 44.2392ZM107.497 42.9297C107.431 42.7589 107.365 42.588 107.299 42.4172L107.597 42.0756C107.663 42.2464 107.729 42.4172 107.795 42.5881L107.497 42.9297ZM47.3719 42.7589L47.0739 42.4172C47.1401 42.2464 47.2063 42.0756 47.2725 41.9048L47.5705 42.3034C47.5374 42.4172 47.4381 42.5881 47.3719 42.7589ZM106.835 41.4493C106.769 41.2785 106.67 41.1647 106.603 40.9938L106.868 40.5953C106.934 40.7661 107.034 40.9369 107.1 41.0508L106.835 41.4493ZM48.034 41.2785L47.7692 40.88C47.8354 40.7092 47.9347 40.5384 48.0009 40.4245L48.2658 40.823C48.1665 40.9938 48.1003 41.1077 48.034 41.2785ZM106.14 40.0829C106.074 39.9121 105.974 39.7982 105.908 39.6274L106.173 39.2288C106.272 39.3996 106.339 39.5135 106.405 39.6843L106.14 40.0829ZM48.7293 39.9121L48.4644 39.5135C48.5307 39.3427 48.63 39.2288 48.6962 39.058L48.9611 39.5135C48.8949 39.6274 48.7955 39.7413 48.7293 39.9121ZM105.411 38.7734C105.312 38.6595 105.246 38.4887 105.147 38.3748L105.378 37.9193C105.478 38.0901 105.544 38.204 105.643 38.3748L105.411 38.7734ZM49.4908 38.6025L49.226 38.1471C49.3253 37.9762 49.3915 37.8624 49.4908 37.7485L49.7226 38.204C49.6564 38.3179 49.557 38.4887 49.4908 38.6025ZM104.617 37.5208C104.518 37.4069 104.451 37.2361 104.352 37.1222L104.584 36.6667C104.683 36.7806 104.782 36.9514 104.849 37.0653L104.617 37.5208ZM50.2523 37.35L50.0206 36.8945C50.1199 36.7806 50.1861 36.6098 50.2854 36.4959L50.5172 36.9514C50.451 37.1222 50.3516 37.2361 50.2523 37.35ZM103.822 36.3251C103.723 36.2112 103.624 36.0974 103.557 35.9266L103.789 35.4141C103.888 35.528 103.988 35.6419 104.087 35.8127L103.822 36.3251ZM51.08 36.2112L50.8483 35.7558C50.9476 35.6419 51.0469 35.528 51.1463 35.3572L51.378 35.8696C51.2787 35.9266 51.1794 36.0974 51.08 36.2112ZM102.961 35.2433C102.862 35.1295 102.763 35.0156 102.663 34.9017L102.862 34.3893C102.961 34.5032 103.061 34.617 103.16 34.7309L102.961 35.2433ZM51.9409 35.0725L51.7422 34.5601C51.8415 34.4462 51.9409 34.3324 52.0402 34.2185L52.2388 34.7309C52.1064 34.8448 52.0402 34.9587 51.9409 35.0725ZM102.101 34.1615C102.001 34.0477 101.902 33.9338 101.803 33.8199L102.001 33.3075C102.101 33.4214 102.2 33.5353 102.299 33.6491L102.101 34.1615ZM52.8017 34.0477L52.603 33.5353C52.7024 33.4214 52.8017 33.3075 52.901 33.1936L53.0997 33.7061C53.0003 33.8199 52.901 33.9338 52.8017 34.0477ZM101.207 33.1936C101.107 33.0798 101.008 32.9659 100.909 32.852L101.107 32.3396C101.207 32.4535 101.306 32.5673 101.405 32.6812L101.207 33.1936ZM53.6956 33.0798L53.497 32.5673C53.5963 32.4535 53.6956 32.3396 53.795 32.2257L53.9936 32.7382C53.8943 32.852 53.795 32.9659 53.6956 33.0798ZM100.28 32.2257C100.18 32.1119 100.081 31.998 99.9817 31.9411L100.147 31.4286C100.247 31.5425 100.346 31.6564 100.445 31.7133L100.28 32.2257ZM54.6227 32.1119L54.4571 31.5994C54.5565 31.4856 54.6558 31.3717 54.7551 31.3148L54.9207 31.8272C54.8213 31.9411 54.722 32.0549 54.6227 32.1119ZM99.3526 31.3717C99.2533 31.2578 99.1539 31.2009 99.0215 31.087L99.187 30.5177C99.2864 30.6315 99.3857 30.6885 99.5181 30.8023L99.3526 31.3717ZM55.5497 31.2578L55.3842 30.6885C55.4835 30.5746 55.5828 30.5177 55.7153 30.4038L55.8808 30.9731C55.7815 31.087 55.6822 31.144 55.5497 31.2578ZM98.3924 30.5177C98.2931 30.4038 98.1938 30.3468 98.0613 30.233L98.2269 29.6636C98.3262 29.7775 98.4586 29.8344 98.558 29.9483L98.3924 30.5177ZM56.5099 30.4038L56.3443 29.8344C56.4437 29.7206 56.5761 29.6636 56.6754 29.5497L56.841 30.1191C56.7416 30.233 56.6092 30.3469 56.5099 30.4038ZM97.4323 29.7206L97.1012 29.4928L97.2336 28.9235L97.5647 29.1512L97.4323 29.7206ZM57.47 29.6636L57.3376 29.0943C57.4369 29.0373 57.5694 28.9234 57.6687 28.8665L57.8011 29.4359C57.7018 29.4928 57.6025 29.5497 57.47 29.6636ZM96.439 28.9804L96.1079 28.7526L96.2404 28.1833L96.5714 28.411L96.439 28.9804ZM58.4633 28.9235L58.3309 28.3541C58.4302 28.2972 58.5626 28.1833 58.6619 28.1264L58.7944 28.6957C58.6951 28.7526 58.5626 28.8665 58.4633 28.9235ZM95.4458 28.2972L95.1147 28.0694L95.2471 27.5001L95.5782 27.7278L95.4458 28.2972ZM59.4566 28.2402L59.3241 27.6709L59.6552 27.4431L59.7876 28.0125L59.4566 28.2402ZM94.4525 27.6709L94.1214 27.4431L94.2538 26.8738L94.5849 27.1015L94.4525 27.6709ZM60.4498 27.6139L60.3174 27.0446L60.6485 26.8168L60.7809 27.3862L60.4498 27.6139ZM93.4261 27.1015L93.095 26.9307L93.1944 26.3613L93.5255 26.5321L93.4261 27.1015ZM61.4762 27.0446L61.3769 26.4752L61.7079 26.3044L61.8073 26.8738L61.4762 27.0446ZM92.3998 26.5321L92.0687 26.3613L92.168 25.792L92.4991 25.9628L92.3998 26.5321ZM62.5026 26.4752L62.4032 25.9059L62.7343 25.735L62.8336 26.3044L62.5026 26.4752ZM91.3734 26.0197L91.0423 25.8489L91.1416 25.2796L91.5058 25.4504L91.3734 26.0197ZM63.5289 25.9628L63.4296 25.3934C63.5289 25.3365 63.6614 25.2796 63.7607 25.2226L63.86 25.792L63.5289 25.9628ZM90.347 25.5642L90.0159 25.3934L90.1152 24.8241L90.4794 24.9949L90.347 25.5642ZM64.5553 25.5073L64.456 24.9379L64.8202 24.7671L64.9195 25.3934L64.5553 25.5073ZM89.3206 25.1088L88.9564 24.9949L89.0227 24.3686L89.3869 24.4825L89.3206 25.1088ZM65.5817 25.1088L65.5155 24.4825L65.8797 24.3686L65.9459 24.9949L65.5817 25.1088ZM88.2612 24.7671L87.897 24.6533L87.9632 24.027L88.3274 24.1408L88.2612 24.7671ZM66.6411 24.7102L66.5749 24.0839L66.9391 23.97L67.0053 24.5963L66.6411 24.7102ZM87.2017 24.4255L86.8375 24.3116L86.9037 23.6854L87.2679 23.7992L87.2017 24.4255ZM67.7006 24.3686L67.6344 23.7423L67.9986 23.6284L68.0648 24.2547L67.7006 24.3686ZM86.1422 24.0839L85.778 23.97L85.8442 23.3437L86.2084 23.4576L86.1422 24.0839ZM68.727 24.0839L68.6608 23.4576L69.025 23.3437L69.0912 23.97L68.727 24.0839ZM85.0827 23.7992L84.7185 23.7423L84.7516 23.116L85.1158 23.1729L85.0827 23.7992ZM69.7865 23.7992L69.7534 23.1729L70.1176 23.116L70.1507 23.7423L69.7865 23.7992ZM84.0232 23.5715L83.659 23.5145L83.6922 22.8883L84.0564 22.9452L84.0232 23.5715ZM70.846 23.5715L70.8129 22.9452L71.177 22.8883L71.2102 23.5145L70.846 23.5715ZM82.9638 23.4007L82.5996 23.3437L82.6327 22.7175L82.9969 22.7744L82.9638 23.4007ZM71.9054 23.3437L71.8723 22.7175L72.2365 22.6605L72.2696 23.2868L71.9054 23.3437ZM81.9043 23.2299L81.5401 23.1729L81.5732 22.5466L81.9374 22.6036L81.9043 23.2299ZM72.998 23.1729L72.9649 22.5466L73.3291 22.4897L73.3622 23.116L72.998 23.1729ZM80.8117 23.0591L80.4475 23.0021L80.4806 22.3758L80.8448 22.4328L80.8117 23.0591ZM74.0575 23.0591L74.0244 22.4328L74.3886 22.3758L74.4217 23.0021L74.0575 23.0591ZM79.7522 23.0021H79.388V22.3758H79.7522V23.0021ZM75.117 23.0021V22.3758H75.4812V23.0021H75.117ZM78.6927 22.9452H78.3285V22.3189H78.6927V22.9452ZM76.1765 22.9452V22.3189H76.5407V22.9452H76.1765ZM77.6001 22.8883H77.3684H77.2359V22.262H77.3684H77.6001V22.8883Z" fill="#76D6FD"/>
<ellipse opacity="0.1" cx="38.1396" cy="55" rx="38.1396" ry="38.0168" fill="#53A5F8"/>
<ellipse opacity="0.1" cx="38.1395" cy="55.0001" rx="31.783" ry="31.6807" fill="#53A5F8"/>
<ellipse opacity="0.1" cx="76.6357" cy="55" rx="55.1777" ry="55" fill="#53A5F8"/>
<ellipse opacity="0.1" cx="76.6357" cy="55" rx="45.9814" ry="45.8333" fill="#53A5F8"/>
<ellipse opacity="0.1" cx="125.86" cy="55" rx="38.1396" ry="38.0168" fill="#53A5F8"/>
<ellipse opacity="0.1" cx="125.861" cy="55" rx="31.783" ry="31.6807" fill="#53A5F8"/>
</svg>
