<svg width="155" height="89" viewBox="0 0 155 89" fill="none" xmlns="http://www.w3.org/2000/svg">
<path opacity="0.1" d="M77.5 83C113.675 83 143 65.763 143 44.5C143 23.237 113.675 6 77.5 6C41.3253 6 12 23.237 12 44.5C12 65.763 41.3253 83 77.5 83Z" fill="#53A5F8"/>
<path d="M42.6398 64.6452L42.6392 64.6449C42.4929 64.561 42.3476 64.4767 42.2033 64.392L42.1526 64.4782C41.8612 64.307 41.5739 64.134 41.2907 63.9592L41.3433 63.8741C41.0563 63.6969 40.7736 63.5178 40.4952 63.337L40.4408 63.4209C40.1572 63.2367 39.8782 63.0507 39.6037 62.8628L39.6602 62.7803C39.3818 62.5898 39.1081 62.3974 38.8392 62.2033L38.7806 62.2844C38.5064 62.0864 38.2371 61.8867 37.9728 61.6851L38.0334 61.6055C37.7652 61.401 37.5021 61.1947 37.2442 60.9865L37.1814 61.0643C36.9183 60.852 36.6605 60.6378 36.4081 60.4217L36.4731 60.3457C36.2168 60.1264 35.9661 59.9052 35.721 59.6823L35.6537 59.7562C35.4032 59.5283 35.1586 59.2985 34.9198 59.0669L34.9894 58.9952C34.7472 58.7602 34.511 58.5234 34.281 58.2848L34.209 58.3543C33.9742 58.1106 33.7456 57.8651 33.5235 57.6178L33.5979 57.551C33.3727 57.3003 33.1542 57.0478 32.9423 56.7935L32.8655 56.8575C32.6491 56.5977 32.4396 56.3361 32.2371 56.0727L32.3163 56.0118C32.1108 55.7444 31.9125 55.4753 31.7214 55.2044L31.6397 55.2621C31.4448 54.9857 31.2574 54.7074 31.0776 54.4275L31.1618 54.3735C30.98 54.0905 30.8062 53.8057 30.6402 53.5194L30.5537 53.5695C30.3842 53.2771 30.2229 52.9829 30.0698 52.6872L30.1586 52.6412C30.0042 52.3427 29.8582 52.0425 29.7207 51.7408L29.6297 51.7822C29.4899 51.4753 29.3589 51.1668 29.2367 50.8568L29.3297 50.8201C29.2067 50.508 29.0928 50.1944 28.988 49.8794L28.8931 49.9109C28.7868 49.5913 28.6898 49.2703 28.6022 48.9479L28.6987 48.9217C28.611 48.599 28.5328 48.2749 28.4642 47.9496L28.3663 47.9703C28.297 47.6414 28.2374 47.3113 28.1876 46.9802L28.2865 46.9653C28.2369 46.6354 28.1971 46.3044 28.1673 45.9725L28.0677 45.9814C28.0376 45.6477 28.0176 45.313 28.0075 44.9774L28.1075 44.9744C28.1025 44.8078 28.1 44.6411 28.1 44.4742C28.1 44.3072 28.1025 44.1405 28.1075 43.9739L28.0075 43.9709C28.0176 43.6354 28.0376 43.3006 28.0677 42.9669L28.1673 42.9759C28.1971 42.6439 28.2369 42.3129 28.2865 41.983L28.1876 41.9682C28.2374 41.637 28.297 41.3069 28.3663 40.978L28.4642 40.9987C28.5328 40.6734 28.611 40.3494 28.6987 40.0266L28.6022 40.0004C28.6898 39.678 28.7868 39.357 28.8931 39.0374L28.988 39.069C29.0928 38.754 29.2068 38.4403 29.3297 38.1282L29.2367 38.0915C29.3589 37.7815 29.4899 37.473 29.6297 37.1661L29.7207 37.2076C29.8582 36.9059 30.0042 36.6057 30.1586 36.3071L30.0698 36.2612C30.2229 35.9654 30.3842 35.6712 30.5537 35.3788L30.6402 35.429C30.8062 35.1426 30.9801 34.8579 31.1618 34.5748L31.0776 34.5208C31.2574 34.2409 31.4448 33.9627 31.6397 33.6863L31.7214 33.7439C31.9125 33.473 32.1108 33.2039 32.3163 32.9365L32.2371 32.8756C32.4396 32.6122 32.6491 32.3506 32.8655 32.0908L32.9423 32.1549C33.1542 31.9005 33.3727 31.648 33.5979 31.3973L33.5235 31.3305C33.7456 31.0832 33.9742 30.8377 34.209 30.5941L34.281 30.6635C34.511 30.4249 34.7472 30.1881 34.9894 29.9532L34.9198 29.8814C35.1586 29.6498 35.4032 29.42 35.6537 29.1921L35.721 29.2661C35.9661 29.0431 36.2168 28.8219 36.4731 28.6026L36.4081 28.5266C36.6605 28.3106 36.9183 28.0963 37.1814 27.884L37.2442 27.9618C37.5021 27.7536 37.7652 27.5473 38.0334 27.3428L37.9728 27.2633C38.2371 27.0617 38.5064 26.8619 38.7806 26.664L38.8392 26.745C39.1081 26.5509 39.3818 26.3585 39.6602 26.168L39.6037 26.0855C39.8782 25.8977 40.1572 25.7116 40.4408 25.5274L40.4953 25.6113C40.7736 25.4305 41.0563 25.2514 41.3433 25.0742L41.2908 24.9891C41.5739 24.8143 41.8612 24.6413 42.1526 24.4701L42.2033 24.5563C42.3475 24.4716 42.4928 24.3873 42.6391 24.3035C42.7834 24.221 42.9285 24.1392 43.0742 24.0579L43.0256 23.9706C43.3176 23.8077 43.6124 23.6474 43.9099 23.4896L43.9567 23.5779C44.2518 23.4213 44.5494 23.2672 44.8496 23.1155L44.8045 23.0263C45.1028 22.8755 45.4036 22.7272 45.7069 22.5813L45.7502 22.6715C46.0515 22.5265 46.3552 22.3839 46.6611 22.2438L46.6195 22.1528C46.9232 22.0137 47.2292 21.8769 47.5373 21.7425L47.5773 21.8342C47.8841 21.7003 48.1931 21.5688 48.5042 21.4397L48.4658 21.3473C48.7742 21.2193 49.0846 21.0936 49.397 20.9702L49.4337 21.0632C49.7454 20.94 50.0591 20.8191 50.3747 20.7006L50.3395 20.607C50.6518 20.4896 50.966 20.3745 51.282 20.2616L51.3157 20.3558C51.6312 20.2431 51.9484 20.1326 52.2674 20.0244L52.2353 19.9297C52.5516 19.8224 52.8696 19.7173 53.1892 19.6144L53.2199 19.7096C53.5385 19.607 53.8587 19.5066 54.1804 19.4084L54.1513 19.3127C54.4712 19.2151 54.7928 19.1195 55.1157 19.0262L55.1435 19.1222C55.4647 19.0294 55.7875 18.9387 56.1115 18.8501L56.0852 18.7536C56.4084 18.6653 56.733 18.579 57.0589 18.4949L57.0839 18.5918C57.4075 18.5083 57.7323 18.4269 58.0584 18.3476L58.0347 18.2504C58.3608 18.1711 58.6881 18.0939 59.0165 18.0188L59.0388 18.1163C59.3644 18.0418 59.691 17.9695 60.0188 17.8991L59.9978 17.8014C60.326 17.7309 60.6553 17.6626 60.9856 17.5963L61.0053 17.6943C61.3328 17.6286 61.6614 17.5649 61.9909 17.5032L61.9725 17.4049C62.3021 17.3432 62.6327 17.2836 62.9642 17.2259L62.9813 17.3245C63.311 17.2671 63.6416 17.2118 63.9729 17.1585L63.9571 17.0598C64.2879 17.0066 64.6196 16.9553 64.952 16.9061L64.9666 17.0051C65.2981 16.956 65.6303 16.9089 65.9632 16.8638L65.9498 16.7647C66.2817 16.7198 66.6143 16.6768 66.9475 16.6358L66.9597 16.7351C67.2925 16.6942 67.626 16.6552 67.96 16.6182L67.949 16.5188C68.2819 16.482 68.6154 16.4471 68.9493 16.4142L68.9591 16.5137C69.2926 16.4808 69.6266 16.4499 69.9611 16.4209L69.9524 16.3213C70.2865 16.2923 70.6211 16.2654 70.956 16.2403L70.9634 16.3401C71.2975 16.3151 71.632 16.2921 71.9667 16.271L71.9604 16.1712C72.2954 16.1501 72.6306 16.131 72.9662 16.1138L72.9713 16.2137C73.3058 16.1966 73.6406 16.1814 73.9757 16.1681L73.9717 16.0682C74.3071 16.0549 74.6427 16.0436 74.9785 16.0342L74.9813 16.1341C75.3163 16.1248 75.6514 16.1173 75.9866 16.1118L75.9849 16.0118C76.3205 16.0063 76.6562 16.0027 76.9919 16.0011L76.9924 16.1011C77.3276 16.0994 77.6629 16.0997 77.9982 16.1019L77.9989 16.0019C78.3346 16.0041 78.6702 16.0083 79.0057 16.0143L79.0039 16.1143C79.3392 16.1204 79.6744 16.1284 80.0094 16.1383L80.0124 16.0384C80.348 16.0483 80.6835 16.0602 81.0189 16.0741L81.0148 16.174C81.3497 16.1878 81.6845 16.2035 82.0191 16.2212L82.0243 16.1214C82.3598 16.1391 82.6951 16.1588 83.0301 16.1804L83.0236 16.2802C83.3583 16.3018 83.6926 16.3253 84.0267 16.3508L84.0343 16.2511C84.3692 16.2766 84.7038 16.3041 85.038 16.3336L85.0292 16.4332C85.3635 16.4626 85.6973 16.494 86.0307 16.5274L86.0407 16.4279C86.3747 16.4613 86.7083 16.4967 87.0413 16.5341L87.0302 16.6334C87.364 16.6709 87.6972 16.7103 88.0299 16.7516L88.0422 16.6524C88.3753 16.6938 88.7078 16.7372 89.0396 16.7826L89.026 16.8816C89.359 16.9271 89.6912 16.9746 90.0228 17.0241L90.0375 16.9252C90.3697 16.9748 90.7013 17.0264 91.032 17.08L91.016 17.1787C91.3474 17.2324 91.6781 17.288 92.0079 17.3457L92.0252 17.2472C92.3564 17.3052 92.6868 17.3651 93.0162 17.4271L92.9977 17.5254C93.3274 17.5874 93.6561 17.6514 93.9838 17.7174L94.0036 17.6194C94.3336 17.6859 94.6627 17.7545 94.9907 17.8251L94.9697 17.9228C95.2972 17.9933 95.6238 18.0659 95.9492 18.1405L95.9716 18.043C96.3001 18.1183 96.6275 18.1957 96.9537 18.2752L96.93 18.3723C97.2559 18.4517 97.5806 18.5332 97.9041 18.6167L97.9291 18.5199C98.2551 18.6041 98.5798 18.6904 98.9033 18.7788L98.8769 18.8753C99.2008 18.9638 99.5234 19.0545 99.8446 19.1473L99.8723 19.0512C100.195 19.1445 100.517 19.24 100.837 19.3377L100.808 19.4333C101.13 19.5314 101.45 19.6316 101.769 19.7339L101.799 19.6387C102.119 19.7415 102.437 19.8465 102.754 19.9536L102.722 20.0483C103.041 20.1562 103.358 20.2663 103.673 20.3786L103.707 20.2844C104.023 20.397 104.337 20.5117 104.65 20.6287L104.615 20.7223C104.931 20.8405 105.244 20.9609 105.556 21.0835L105.593 20.9905C105.905 21.1133 106.216 21.2385 106.525 21.3659L106.486 21.4583C106.798 21.5869 107.107 21.7178 107.414 21.8509L107.454 21.7592C107.763 21.8929 108.069 22.0289 108.373 22.1672L108.331 22.2582C108.638 22.3976 108.942 22.5393 109.244 22.6834L109.287 22.5932C109.59 22.7381 109.892 22.8854 110.191 23.0351L110.146 23.1246C110.446 23.2752 110.745 23.4282 111.04 23.5837L111.087 23.4952C111.385 23.6518 111.68 23.8109 111.973 23.9725L111.925 24.06C112.071 24.1406 112.216 24.2217 112.361 24.3034C112.507 24.3873 112.652 24.4716 112.797 24.5563L112.847 24.4701C113.139 24.6413 113.426 24.8143 113.709 24.9891L113.657 25.0742C113.944 25.2514 114.226 25.4305 114.505 25.6113L114.559 25.5274C114.843 25.7116 115.122 25.8977 115.396 26.0855L115.34 26.168C115.618 26.3586 115.892 26.5509 116.161 26.745L116.219 26.664C116.494 26.8619 116.763 27.0617 117.027 27.2633L116.967 27.3428C117.235 27.5473 117.498 27.7536 117.756 27.9618L117.819 27.884C118.082 28.0963 118.34 28.3106 118.592 28.5266L118.527 28.6026C118.783 28.8219 119.034 29.0431 119.279 29.2661L119.346 29.1921C119.597 29.42 119.841 29.6498 120.08 29.8814L120.011 29.9532C120.253 30.1881 120.489 30.4249 120.719 30.6635L120.791 30.5941C121.026 30.8377 121.254 31.0832 121.476 31.3305L121.402 31.3973C121.627 31.648 121.846 31.9006 122.058 32.1549L122.135 32.0908C122.351 32.3506 122.56 32.6122 122.763 32.8756L122.684 32.9365C122.889 33.2039 123.088 33.473 123.279 33.7439L123.36 33.6863C123.555 33.9627 123.743 34.2409 123.922 34.5208L123.838 34.5749C124.02 34.8579 124.194 35.1426 124.36 35.429L124.446 35.3788C124.616 35.6712 124.777 35.9654 124.93 36.2612L124.841 36.3071C124.996 36.6057 125.142 36.9059 125.279 37.2076L125.37 37.1661C125.51 37.473 125.641 37.7815 125.763 38.0916L125.67 38.1282C125.793 38.4403 125.907 38.754 126.012 39.069L126.107 39.0374C126.213 39.357 126.31 39.678 126.398 40.0004L126.301 40.0266C126.389 40.3494 126.467 40.6734 126.536 40.9987L126.634 40.9781C126.703 41.3069 126.763 41.637 126.812 41.9682L126.714 41.983C126.763 42.3129 126.803 42.6439 126.833 42.9759L126.932 42.9669C126.962 43.3006 126.982 43.6354 126.992 43.971L126.893 43.9739C126.897 44.1405 126.9 44.3072 126.9 44.4742C126.9 44.6411 126.897 44.8079 126.893 44.9744L126.992 44.9774C126.982 45.313 126.962 45.6477 126.932 45.9814L126.833 45.9725C126.803 46.3044 126.763 46.6354 126.714 46.9653L126.812 46.9802C126.763 47.3114 126.703 47.6414 126.634 47.9703L126.536 47.9496C126.467 48.2749 126.389 48.599 126.301 48.9217L126.398 48.948C126.31 49.2703 126.213 49.5913 126.107 49.9109L126.012 49.8794C125.907 50.1944 125.793 50.508 125.67 50.8201L125.763 50.8568C125.641 51.1668 125.51 51.4753 125.37 51.7822L125.279 51.7408C125.142 52.0425 124.996 52.3427 124.841 52.6412L124.93 52.6872C124.777 52.9829 124.616 53.2771 124.446 53.5695L124.36 53.5194C124.194 53.8057 124.02 54.0905 123.838 54.3735L123.922 54.4275C123.743 54.7074 123.555 54.9857 123.36 55.2621L123.279 55.2044C123.088 55.4753 122.889 55.7444 122.684 56.0118L122.763 56.0728C122.56 56.3361 122.351 56.5977 122.134 56.8575L122.058 56.7935C121.846 57.0478 121.627 57.3003 121.402 57.551L121.476 57.6178C121.254 57.8651 121.026 58.1106 120.791 58.3543L120.719 58.2849C120.489 58.5234 120.253 58.7602 120.011 58.9952L120.08 59.067C119.841 59.2986 119.597 59.5283 119.346 59.7562L119.279 59.6823C119.034 59.9052 118.783 60.1264 118.527 60.3457L118.592 60.4217C118.34 60.6378 118.082 60.852 117.819 61.0643L117.756 60.9865C117.498 61.1947 117.235 61.401 116.967 61.6055L117.027 61.6851C116.763 61.8867 116.494 62.0865 116.219 62.2844L116.161 62.2033C115.892 62.3974 115.618 62.5898 115.34 62.7803L115.396 62.8628C115.122 63.0507 114.843 63.2367 114.559 63.4209L114.505 63.337C114.226 63.5179 113.944 63.6969 113.657 63.8741L113.709 63.9592C113.426 64.134 113.139 64.307 112.847 64.4782L112.797 64.392C112.652 64.4767 112.507 64.561 112.361 64.6448C112.215 64.7277 112.069 64.81 111.923 64.8916L111.971 64.979C111.678 65.1422 111.382 65.3028 111.083 65.4608L111.036 65.3725C110.74 65.5293 110.442 65.6837 110.141 65.8355L110.186 65.9248C109.886 66.0761 109.584 66.2249 109.28 66.3713L109.236 66.2811C108.934 66.4264 108.63 66.5692 108.324 66.7096L108.365 66.8005C108.06 66.9404 107.753 67.0778 107.443 67.2129L107.403 67.1212C107.096 67.2553 106.786 67.387 106.475 67.5164L106.514 67.6087C106.203 67.7376 105.891 67.8642 105.577 67.9884L105.54 67.8954C105.229 68.0187 104.915 68.1397 104.6 68.2584L104.635 68.352C104.321 68.4703 104.005 68.5863 103.687 68.7L103.653 68.6058C103.337 68.7188 103.02 68.8296 102.701 68.938L102.733 69.0327C102.415 69.1409 102.096 69.2468 101.775 69.3504L101.744 69.2553C101.425 69.3583 101.104 69.4592 100.782 69.5578L100.811 69.6534C100.49 69.7518 100.167 69.848 99.8429 69.9419L99.815 69.8459C99.4927 69.9394 99.1691 70.0306 98.8442 70.1198L98.8706 70.2162C98.5464 70.3051 98.221 70.3919 97.8945 70.4765L97.8694 70.3797C97.5444 70.4639 97.2182 70.5459 96.891 70.6258L96.9147 70.723C96.5881 70.8027 96.2603 70.8804 95.9316 70.9559L95.9092 70.8584C95.582 70.9336 95.2539 71.0067 94.9247 71.0776L94.9458 71.1754C94.6172 71.2462 94.2876 71.315 93.9571 71.3817L93.9373 71.2836C93.6081 71.35 93.2781 71.4144 92.9472 71.4767L92.9657 71.575C92.6352 71.6372 92.3039 71.6973 91.9718 71.7554L91.9546 71.6569C91.6237 71.7148 91.292 71.7707 90.9597 71.8245L90.9756 71.9232C90.6436 71.977 90.3108 72.0287 89.9774 72.0784L89.9627 71.9795C89.6303 72.0291 89.2973 72.0766 88.9638 72.1221L88.9773 72.2212C88.6439 72.2667 88.31 72.3102 87.9756 72.3517L87.9633 72.2525C87.6298 72.2938 87.2958 72.3332 86.9614 72.3706L86.9725 72.47C86.6381 72.5074 86.3032 72.5428 85.968 72.5762L85.9581 72.4767C85.6236 72.51 85.2887 72.5414 84.9535 72.5707L84.9623 72.6704C84.627 72.6997 84.2913 72.7272 83.9555 72.7526L83.9479 72.6529C83.6126 72.6783 83.2771 72.7017 82.9414 72.7232L82.9477 72.823C82.6118 72.8445 82.2756 72.864 81.9393 72.8816L81.9341 72.7817C81.5982 72.7993 81.2622 72.8148 80.9262 72.8285L80.9302 72.9284C80.5938 72.942 80.2572 72.9537 79.9207 72.9635L79.9178 72.8635C79.5815 72.8732 79.2453 72.881 78.9091 72.8869L78.9108 72.9869C78.574 72.9927 78.2373 72.9966 77.9007 72.9985L77.9001 72.8985C77.732 72.8995 77.5638 72.9 77.3958 72.9C77.2284 72.9 77.061 72.8995 76.8937 72.8986L76.8932 72.9986C76.558 72.9967 76.2231 72.993 75.8883 72.9874L75.89 72.8874C75.5553 72.8818 75.2208 72.8743 74.8866 72.8649L74.8838 72.9649C74.5487 72.9555 74.214 72.9442 73.8795 72.931L73.8834 72.8311C73.5488 72.8179 73.2145 72.8029 72.8806 72.7859L72.8755 72.8857C72.5407 72.8687 72.2062 72.8498 71.8721 72.829L71.8783 72.7292C71.5441 72.7083 71.2102 72.6855 70.8769 72.6609L70.8695 72.7606C70.5351 72.7358 70.2012 72.7091 69.8678 72.6805L69.8764 72.5809C69.5427 72.5522 69.2095 72.5216 68.8769 72.4891L68.8672 72.5886C68.5335 72.556 68.2004 72.5214 67.8679 72.4848L67.8788 72.3854C67.5458 72.3488 67.2134 72.3102 66.8818 72.2697L66.8697 72.3689C66.5366 72.3282 66.2043 72.2855 65.8728 72.2408L65.8861 72.1417C65.554 72.097 65.2227 72.0502 64.8922 72.0015L64.8776 72.1004C64.5457 72.0514 64.2146 72.0005 63.8843 71.9475L63.9002 71.8487C63.5693 71.7957 63.2394 71.7405 62.9103 71.6834L62.8932 71.7819C62.5626 71.7245 62.233 71.665 61.9044 71.6035L61.9228 71.5052C61.5934 71.4436 61.2651 71.3799 60.9378 71.3141L60.9181 71.4121C60.5891 71.346 60.2612 71.2778 59.9345 71.2075L59.9555 71.1098C59.6277 71.0393 59.3011 70.9667 58.9756 70.892L58.9533 70.9894C58.6261 70.9143 58.3 70.8371 57.9753 70.7577L57.999 70.6605C57.6733 70.5809 57.3489 70.4992 57.0258 70.4153L57.0007 70.5121C56.6757 70.4277 56.3521 70.3411 56.0299 70.2524L56.0564 70.156C55.7332 70.067 55.4114 69.9758 55.091 69.8824L55.063 69.9784C54.7407 69.8844 54.4199 69.7882 54.1005 69.6898L54.13 69.5942C53.8096 69.4955 53.4908 69.3945 53.1736 69.2912L53.1427 69.3863C52.8234 69.2824 52.5058 69.1762 52.1898 69.0678L52.2223 68.9732C51.9052 68.8643 51.5899 68.7532 51.2763 68.6397L51.2423 68.7338C50.9265 68.6195 50.6125 68.503 50.3003 68.3841L50.3359 68.2906C50.0225 68.1712 49.711 68.0495 49.4014 67.9254L49.3642 68.0182C49.0524 67.8932 48.7425 67.7658 48.4347 67.636L48.4735 67.5438C48.1645 67.4135 47.8575 67.2808 47.5527 67.1457L47.5122 67.2371C47.205 67.101 46.9 66.9623 46.5972 66.8213L46.6395 66.7306C46.3355 66.589 46.0338 66.4449 45.7344 66.2983L45.6904 66.3881C45.3887 66.2404 45.0893 66.0902 44.7923 65.9374L44.838 65.8485C44.5399 65.6951 44.2441 65.5392 43.9509 65.3807L43.9034 65.4687C43.6078 65.309 43.3148 65.1466 43.0244 64.9817L43.0737 64.8947C42.9284 64.8122 42.7838 64.729 42.6398 64.6452ZM42.9574 24.9563L42.9574 24.9563L42.9564 24.9569C42.8051 25.0441 42.655 25.1318 42.506 25.2199L42.5569 25.306C42.2569 25.4835 41.9614 25.6629 41.6706 25.8442L41.6177 25.7593C41.3212 25.9441 41.0294 26.1308 40.7425 26.3194L40.7974 26.403C40.5061 26.5945 40.2198 26.7879 39.9385 26.9831L39.8815 26.901C39.5944 27.1003 39.3126 27.3016 39.036 27.5047L39.0952 27.5853C38.8138 27.7921 38.5378 28.0008 38.2674 28.2114L38.2059 28.1326C37.9296 28.3477 37.6591 28.5649 37.3945 28.784L37.4582 28.861C37.1893 29.0836 36.9265 29.3082 36.6697 29.5347L36.6036 29.4597C36.3411 29.6912 36.085 29.9247 35.8353 30.1602L35.9039 30.2329C35.65 30.4723 35.4028 30.7137 35.1623 30.957L35.0911 30.8867C34.8446 31.1361 34.6051 31.3876 34.3726 31.6409L34.4463 31.7085C34.2103 31.9658 33.9817 32.225 33.7605 32.4862L33.6842 32.4215C33.4579 32.6887 33.2393 32.9579 33.0286 33.229L33.1075 33.2903C32.893 33.5662 32.6867 33.844 32.4886 34.1237L32.407 34.0659C32.2045 34.3518 32.0105 34.6397 31.8252 34.9295L31.9094 34.9834C31.7215 35.2772 31.5425 35.5729 31.3725 35.8704L31.2856 35.8208C31.1118 36.125 30.9473 36.4312 30.7923 36.7391L30.8817 36.7841C30.7251 37.0951 30.5783 37.4079 30.4413 37.7223L30.3497 37.6824C30.2099 38.0033 30.0802 38.326 29.9609 38.6503L30.0547 38.6849C29.9347 39.011 29.8252 39.3387 29.7262 39.6679L29.6305 39.6391C29.5299 39.9736 29.4402 40.3097 29.3615 40.6472L29.4588 40.6699C29.3801 41.0074 29.3124 41.3463 29.2558 41.6865L29.1572 41.6701C29.1 42.0136 29.0542 42.3585 29.0197 42.7045L29.1192 42.7144C29.085 43.0581 29.0621 43.403 29.0507 43.7489L28.9507 43.7455C28.945 43.9193 28.9421 44.0933 28.9421 44.2675C28.9421 44.4417 28.945 44.6157 28.9507 44.7894L29.0507 44.7861C29.0621 45.132 29.085 45.4769 29.1192 45.8206L29.0197 45.8305C29.0542 46.1765 29.1 46.5213 29.1572 46.8648L29.2558 46.8484C29.3124 47.1886 29.3801 47.5275 29.4588 47.865L29.3615 47.8877C29.4402 48.2252 29.5299 48.5613 29.6305 48.8958L29.7262 48.867C29.8252 49.1963 29.9347 49.524 30.0547 49.8501L29.9609 49.8846C30.0802 50.2089 30.2099 50.5316 30.3497 50.8526L30.4413 50.8126C30.5783 51.1271 30.7251 51.4399 30.8817 51.7509L30.7923 51.7958C30.9473 52.1037 31.1118 52.4099 31.2856 52.7141L31.3725 52.6645C31.5425 52.962 31.7215 53.2577 31.9094 53.5516L31.8252 53.6054C32.0105 53.8952 32.2045 54.1831 32.407 54.469L32.4886 54.4112C32.6867 54.6909 32.893 54.9687 33.1075 55.2446L33.0286 55.306C33.2393 55.5771 33.4579 55.8462 33.6842 56.1134L33.7605 56.0488C33.9817 56.3099 34.2103 56.5691 34.4463 56.8264L34.3726 56.894C34.6051 57.1474 34.8446 57.3988 35.0912 57.6482L35.1623 57.5779C35.4028 57.8212 35.65 58.0626 35.9039 58.302L35.8353 58.3748C36.085 58.6102 36.3412 58.8437 36.6036 59.0752L36.6698 59.0003C36.9265 59.2267 37.1893 59.4513 37.4582 59.6739L37.3945 59.7509C37.6591 59.97 37.9296 60.1872 38.2059 60.4024L38.2674 60.3235C38.5378 60.5341 38.8138 60.7428 39.0952 60.9496L39.036 61.0302C39.3126 61.2334 39.5944 61.4346 39.8815 61.6339L39.9385 61.5518C40.2198 61.747 40.5061 61.9404 40.7974 62.1319L40.7425 62.2155C41.0294 62.4041 41.3212 62.5908 41.6177 62.7756L41.6706 62.6908C41.9614 62.872 42.2569 63.0514 42.5569 63.2289L42.506 63.315C42.655 63.4031 42.8051 63.4908 42.9564 63.578L42.957 63.5784C43.0997 63.6592 43.243 63.7395 43.387 63.8191L43.4354 63.7316C43.7228 63.8906 44.0128 64.0471 44.3053 64.2013L44.2586 64.2897C44.55 64.4433 44.8439 64.5944 45.1402 64.7432L45.1851 64.6538C45.4784 64.8011 45.7742 64.946 46.0722 65.0885L46.0291 65.1788C46.3264 65.321 46.6261 65.4609 46.9279 65.5985L46.9694 65.5075C47.2679 65.6435 47.5686 65.7773 47.8714 65.9087L47.8316 66.0004C48.1342 66.1318 48.439 66.2609 48.7457 66.3878L48.7839 66.2953C49.0869 66.4206 49.3918 66.5436 49.6987 66.6644L49.6621 66.7575C49.9694 66.8785 50.2786 66.9972 50.5897 67.1137L50.6248 67.0201C50.9316 67.135 51.2402 67.2477 51.5506 67.3583L51.517 67.4525C51.8279 67.5632 52.1404 67.6718 52.4546 67.7781L52.4867 67.6834C52.7975 67.7886 53.1099 67.8917 53.4239 67.9926L53.3933 68.0878C53.7072 68.1887 54.0225 68.2874 54.3393 68.384L54.3685 68.2883C54.6829 68.3841 54.9987 68.4779 55.316 68.5695L55.2882 68.6656C55.6046 68.7569 55.9224 68.8462 56.2415 68.9334L56.2678 68.8369C56.5854 68.9237 56.9042 69.0084 57.2243 69.091L57.1993 69.1878C57.5179 69.27 57.8377 69.3502 58.1587 69.4283L58.1824 69.3311C58.5026 69.409 58.8241 69.4849 59.1467 69.5587L59.1243 69.6562C59.4449 69.7296 59.7665 69.8009 60.0891 69.8702L60.1101 69.7724C60.4323 69.8417 60.7555 69.9089 61.0797 69.974L61.06 70.0721C61.3826 70.137 61.7062 70.1998 62.0307 70.2607L62.0491 70.1624C62.3728 70.2231 62.6973 70.2819 63.0226 70.3386L63.0054 70.4371C63.3301 70.4937 63.6556 70.5484 63.9819 70.601L63.9978 70.5023C64.3227 70.5547 64.6483 70.6052 64.9746 70.6537L64.9599 70.7526C65.2862 70.8012 65.6133 70.8477 65.941 70.8923L65.9545 70.7932C66.2804 70.8376 66.6069 70.88 66.9341 70.9204L66.9218 71.0197C67.2493 71.0602 67.5775 71.0987 67.9061 71.1354L67.9172 71.036C68.2442 71.0724 68.5717 71.1069 68.8997 71.1395L68.8898 71.239C69.2181 71.2716 69.5467 71.3023 69.8759 71.3311L69.8846 71.2315C70.2127 71.2601 70.5412 71.2869 70.8701 71.3117L70.8626 71.4114C71.1914 71.4363 71.5206 71.4592 71.85 71.4802L71.8564 71.3804C72.1853 71.4013 72.5145 71.4204 72.844 71.4376L72.8388 71.5374C73.1681 71.5546 73.4976 71.5698 73.8273 71.5831L73.8314 71.4832C74.1607 71.4965 74.4902 71.5079 74.8199 71.5174L74.817 71.6174C75.1468 71.6269 75.4767 71.6345 75.8066 71.6402L75.8083 71.5402C76.1379 71.5459 76.4675 71.5497 76.7971 71.5516L76.7965 71.6516C77.1265 71.6535 77.4566 71.6535 77.7866 71.6516L77.786 71.5516C78.1156 71.5497 78.4452 71.5459 78.7748 71.5402L78.7765 71.6402C79.1065 71.6345 79.4363 71.6269 79.7661 71.6174L79.7632 71.5174C80.0929 71.5079 80.4224 71.4965 80.7517 71.4832L80.7558 71.5831C81.0855 71.5698 81.415 71.5546 81.7443 71.5374L81.7391 71.4376C82.0686 71.4204 82.3978 71.4013 82.7267 71.3804L82.7331 71.4802C83.0625 71.4592 83.3917 71.4363 83.7205 71.4114L83.713 71.3117C84.0419 71.2869 84.3704 71.2601 84.6985 71.2315L84.7072 71.3311C85.0364 71.3023 85.365 71.2716 85.6933 71.239L85.6834 71.1395C86.0114 71.1069 86.3389 71.0724 86.6659 71.036L86.677 71.1354C87.0056 71.0987 87.3338 71.0602 87.6613 71.0197L87.649 70.9204C87.9762 70.88 88.3027 70.8376 88.6286 70.7932L88.6421 70.8923C88.9698 70.8477 89.2969 70.8012 89.6232 70.7526L89.6085 70.6537C89.9349 70.6052 90.2605 70.5547 90.5853 70.5023L90.6012 70.601C90.9275 70.5484 91.253 70.4937 91.5777 70.4371L91.5605 70.3386C91.8858 70.2819 92.2104 70.2231 92.534 70.1624L92.5524 70.2607C92.8769 70.1998 93.2005 70.137 93.5231 70.0721L93.5034 69.974C93.8276 69.9089 94.1508 69.8417 94.473 69.7724L94.494 69.8702C94.8167 69.8009 95.1383 69.7296 95.4588 69.6562L95.4365 69.5587C95.759 69.4849 96.0805 69.409 96.4007 69.3311L96.4244 69.4283C96.7454 69.3502 97.0652 69.27 97.3838 69.1878L97.3588 69.091C97.6789 69.0084 97.9977 68.9237 98.3153 68.8369L98.3416 68.9334C98.6607 68.8462 98.9785 68.7569 99.2949 68.6656L99.2671 68.5695C99.5844 68.4779 99.9002 68.3841 100.215 68.2883L100.244 68.384C100.561 68.2874 100.876 68.1887 101.19 68.0878L101.159 67.9926C101.473 67.8917 101.786 67.7886 102.096 67.6834L102.129 67.7781C102.443 67.6718 102.755 67.5632 103.066 67.4525L103.033 67.3583C103.343 67.2477 103.651 67.135 103.958 67.0201L103.993 67.1137C104.304 66.9972 104.614 66.8785 104.921 66.7575L104.884 66.6644C105.191 66.5436 105.496 66.4206 105.799 66.2953L105.837 66.3878C106.144 66.2609 106.449 66.1318 106.752 66.0004L106.712 65.9087C107.015 65.7772 107.315 65.6435 107.614 65.5075L107.655 65.5985C107.957 65.4609 108.257 65.321 108.554 65.1788L108.511 65.0885C108.809 64.946 109.105 64.8011 109.398 64.6538L109.443 64.7432C109.739 64.5944 110.033 64.4433 110.324 64.2897L110.278 64.2013C110.57 64.0472 110.86 63.8906 111.148 63.7316L111.196 63.8192C111.34 63.7395 111.483 63.6592 111.626 63.5784L111.627 63.578C111.778 63.4908 111.928 63.4031 112.077 63.315L112.026 63.2289C112.326 63.0514 112.622 62.872 112.912 62.6908L112.965 62.7756C113.262 62.5908 113.554 62.4041 113.841 62.2155L113.786 62.1319C114.077 61.9404 114.363 61.747 114.645 61.5518L114.702 61.6339C114.989 61.4346 115.271 61.2334 115.547 61.0302L115.488 60.9496C115.769 60.7428 116.045 60.5341 116.316 60.3235L116.377 60.4024C116.653 60.1872 116.924 59.97 117.189 59.7509L117.125 59.6739C117.394 59.4513 117.657 59.2267 117.913 59.0002L117.98 59.0752C118.242 58.8437 118.498 58.6102 118.748 58.3748L118.679 58.302C118.933 58.0626 119.18 57.8212 119.421 57.5779L119.492 57.6482C119.739 57.3988 119.978 57.1474 120.21 56.894L120.137 56.8264C120.373 56.5691 120.601 56.3099 120.823 56.0488L120.899 56.1134C121.125 55.8462 121.344 55.5771 121.555 55.306L121.476 55.2446C121.69 54.9687 121.896 54.6909 122.095 54.4112L122.176 54.469C122.379 54.1831 122.573 53.8952 122.758 53.6054L122.674 53.5516C122.862 53.2577 123.041 52.962 123.211 52.6645L123.297 52.7141C123.471 52.4099 123.636 52.1037 123.791 51.7958L123.701 51.7509C123.858 51.4399 124.005 51.1271 124.142 50.8126L124.233 50.8526C124.373 50.5316 124.503 50.209 124.622 49.8846L124.528 49.8501C124.648 49.524 124.758 49.1963 124.857 48.867L124.953 48.8958C125.053 48.5613 125.143 48.2252 125.222 47.8877L125.124 47.865C125.203 47.5275 125.271 47.1886 125.327 46.8484L125.426 46.8648C125.483 46.5213 125.529 46.1765 125.563 45.8305L125.464 45.8206C125.498 45.4769 125.521 45.132 125.532 44.7861L125.632 44.7894C125.638 44.6157 125.641 44.4417 125.641 44.2675C125.641 44.0933 125.638 43.9193 125.632 43.7455L125.532 43.7488C125.521 43.403 125.498 43.0581 125.464 42.7144L125.563 42.7044C125.529 42.3584 125.483 42.0136 125.426 41.6701L125.327 41.6865C125.271 41.3463 125.203 41.0074 125.124 40.6699L125.222 40.6472C125.143 40.3097 125.053 39.9736 124.953 39.6391L124.857 39.6679C124.758 39.3387 124.648 39.011 124.528 38.6849L124.622 38.6503C124.503 38.326 124.373 38.0033 124.233 37.6824L124.142 37.7223C124.005 37.4079 123.858 37.0951 123.701 36.7841L123.791 36.7391C123.636 36.4312 123.471 36.125 123.297 35.8208L123.211 35.8704C123.041 35.5729 122.862 35.2772 122.674 34.9834L122.758 34.9295C122.573 34.6397 122.379 34.3518 122.176 34.0659L122.095 34.1237C121.896 33.844 121.69 33.5662 121.476 33.2903L121.555 33.229C121.344 32.9579 121.125 32.6887 120.899 32.4215L120.823 32.4862C120.601 32.225 120.373 31.9658 120.137 31.7085L120.21 31.6409C119.978 31.3876 119.739 31.1361 119.492 30.8867L119.421 30.957C119.18 30.7137 118.933 30.4723 118.679 30.2329L118.748 30.1602C118.498 29.9247 118.242 29.6912 117.98 29.4597L117.913 29.5347C117.657 29.3082 117.394 29.0836 117.125 28.861L117.189 28.784C116.924 28.5649 116.653 28.3477 116.377 28.1326L116.316 28.2115C116.045 28.0008 115.769 27.7921 115.488 27.5853L115.547 27.5047C115.271 27.3016 114.989 27.1003 114.702 26.901L114.645 26.9831C114.363 26.7879 114.077 26.5945 113.786 26.403L113.841 26.3194C113.554 26.1308 113.262 25.9441 112.965 25.7593L112.912 25.8442C112.622 25.6629 112.326 25.4835 112.026 25.306L112.077 25.2199C111.928 25.1318 111.778 25.0441 111.627 24.9569L111.627 24.9568C111.484 24.8752 111.341 24.7943 111.197 24.7139L111.149 24.8012C110.863 24.6415 110.574 24.4843 110.283 24.3294L110.33 24.2411C110.04 24.0871 109.747 23.9356 109.452 23.7864L109.407 23.8757C109.115 23.7279 108.82 23.5825 108.523 23.4395L108.566 23.3494C108.271 23.2071 107.972 23.0672 107.672 22.9296L107.63 23.0206C107.332 22.8842 107.032 22.7501 106.73 22.6184L106.77 22.5267C106.469 22.3956 106.166 22.2668 105.861 22.1402L105.822 22.2326C105.52 22.1071 105.215 21.9838 104.908 21.8628L104.945 21.7698C104.639 21.6493 104.332 21.5311 104.023 21.4151L103.988 21.5087C103.681 21.3937 103.372 21.2808 103.062 21.1701L103.095 21.0759C102.786 20.9657 102.475 20.8576 102.163 20.7517L102.131 20.8465C101.82 20.7413 101.508 20.6383 101.194 20.5375L101.225 20.4423C100.913 20.3418 100.598 20.2435 100.283 20.1473L100.254 20.2429C99.94 20.1473 99.6249 20.0538 99.3084 19.9624L99.3361 19.8663C99.0206 19.7752 98.7037 19.6862 98.3854 19.5993L98.3591 19.6958C98.0427 19.6093 97.7249 19.525 97.406 19.4427L97.431 19.3459C97.1129 19.2638 96.7935 19.1838 96.473 19.1058L96.4494 19.203C96.1306 19.1254 95.8106 19.0499 95.4895 18.9764L95.5118 18.8789C95.1916 18.8056 94.8702 18.7343 94.5478 18.6651L94.5268 18.7628C94.2061 18.6939 93.8844 18.627 93.5617 18.5621L93.5814 18.464C93.2593 18.3992 92.9363 18.3364 92.6124 18.2756L92.5939 18.3739C92.2714 18.3133 91.948 18.2548 91.6238 18.1981L91.641 18.0996C91.3172 18.0431 90.9926 17.9885 90.6673 17.9359L90.6514 18.0347C90.3273 17.9823 90.0024 17.9318 89.6769 17.8833L89.6917 17.7844C89.3665 17.736 89.0407 17.6895 88.7142 17.6449L88.7007 17.744C88.3753 17.6996 88.0493 17.6571 87.7228 17.6166L87.7351 17.5174C87.4089 17.4769 87.0821 17.4383 86.7548 17.4017L86.7437 17.5011C86.4173 17.4646 86.0905 17.43 85.7632 17.3973L85.7732 17.2978C85.4459 17.2651 85.1183 17.2344 84.7903 17.2055L84.7815 17.3052C84.4543 17.2764 84.1266 17.2496 83.7988 17.2246L83.8064 17.1249C83.4783 17.1 83.15 17.077 82.8215 17.0559L82.8151 17.1557C82.4872 17.1346 82.159 17.1154 81.8308 17.0982L81.836 16.9984C81.5074 16.9811 81.1787 16.9658 80.8499 16.9523L80.8458 17.0523C80.5174 17.0389 80.1889 17.0274 79.8604 17.0178L79.8633 16.9178C79.5343 16.9083 79.2053 16.9006 78.8764 16.8948L78.8746 16.9948C78.5459 16.9891 78.2172 16.9852 77.8886 16.9833L77.8892 16.8833C77.7247 16.8823 77.5602 16.8819 77.3958 16.8819C77.2302 16.8819 77.0647 16.8823 76.8993 16.8833L76.8998 16.9833C76.5692 16.9852 76.2387 16.9889 75.9084 16.9946L75.9067 16.8946C75.5757 16.9002 75.2449 16.9078 74.9144 16.9172L74.9172 17.0172C74.5867 17.0266 74.2564 17.0379 73.9264 17.0511L73.9224 16.9512C73.5914 16.9644 73.2608 16.9796 72.9306 16.9966L72.9358 17.0965C72.6054 17.1135 72.2754 17.1325 71.9458 17.1533L71.9395 17.0535C71.6089 17.0744 71.2788 17.0972 70.9491 17.122L70.9566 17.2217C70.6267 17.2464 70.2972 17.2731 69.9683 17.3017L69.9596 17.202C69.6296 17.2307 69.3002 17.2613 68.9712 17.2938L68.9811 17.3933C68.6519 17.4259 68.3232 17.4603 67.9951 17.4967L67.9841 17.3974C67.6548 17.4339 67.3262 17.4724 66.9981 17.5128L67.0104 17.612C66.6819 17.6525 66.354 17.695 66.0269 17.7393L66.0134 17.6403C65.685 17.6848 65.3573 17.7313 65.0304 17.7798L65.0451 17.8787C64.7177 17.9273 64.391 17.9778 64.0652 18.0303L64.0492 17.9316C63.722 17.9843 63.3956 18.039 63.0701 18.0957L63.0873 18.1942C62.7612 18.251 62.4359 18.3098 62.1116 18.3706L62.0932 18.2723C61.7674 18.3333 61.4426 18.3964 61.1187 18.4615L61.1384 18.5595C60.8139 18.6248 60.4904 18.692 60.1679 18.7612L60.1469 18.6635C59.8227 18.7331 59.4995 18.8048 59.1775 18.8785L59.1998 18.9759C58.8769 19.0498 58.5552 19.1258 58.2346 19.2038L58.211 19.1066C57.8887 19.185 57.5676 19.2655 57.2477 19.3481L57.2727 19.4449C56.952 19.5277 56.6325 19.6125 56.3143 19.6994L56.288 19.603C55.968 19.6904 55.6493 19.7799 55.332 19.8716L55.3598 19.9677C55.0415 20.0596 54.7247 20.1536 54.4092 20.2497L54.3801 20.1541C54.0628 20.2508 53.7469 20.3497 53.4325 20.4507L53.4631 20.5459C53.1477 20.6472 52.8339 20.7507 52.5216 20.8563L52.4895 20.7616C52.1752 20.8679 51.8626 20.9764 51.5515 21.0871L51.585 21.1813C51.2729 21.2924 50.9625 21.4056 50.6538 21.5211L50.6187 21.4274C50.3078 21.5437 49.9986 21.6622 49.6912 21.7829L49.7278 21.876C49.4193 21.9971 49.1126 22.1205 48.8078 22.2462L48.7697 22.1537C48.4627 22.2803 48.1577 22.4091 47.8546 22.5402L47.8943 22.632C47.5901 22.7635 47.2878 22.8974 46.9876 23.0336L46.9463 22.9425C46.6439 23.0796 46.3436 23.2191 46.0453 23.3609L46.0883 23.4512C45.7889 23.5936 45.4918 23.7383 45.1968 23.8853L45.1522 23.7958C44.855 23.9439 44.56 24.0945 44.2673 24.2474L44.3136 24.336C44.0198 24.4895 43.7284 24.6454 43.4393 24.8036L43.3913 24.7159C43.246 24.7955 43.1014 24.8756 42.9574 24.9563Z" stroke="#5ADBF8" stroke-width="0.2" stroke-dasharray="1 1"/>
<path d="M33.4708 69.6141L33.4703 69.6138C33.3208 69.5293 33.1722 69.4445 33.0245 69.3592L32.9745 69.4459C32.6773 69.2745 32.3835 69.1015 32.0931 68.9272L32.1445 68.8415C31.851 68.6652 31.561 68.4875 31.2745 68.3084L31.2215 68.3932C30.9301 68.2109 30.6423 68.0272 30.3582 67.842L30.4128 67.7583C30.1254 67.5709 29.8417 67.382 29.5618 67.1916L29.5056 67.2743C29.2214 67.0811 28.9411 66.8863 28.6648 66.6901L28.7227 66.6085C28.4431 66.41 28.1676 66.21 27.8961 66.0085L27.8365 66.0888C27.5607 65.8841 27.2891 65.6778 27.0216 65.4701L27.0829 65.3911C26.8123 65.1809 26.5459 64.9691 26.2839 64.7559L26.2208 64.8334C25.9544 64.6166 25.6925 64.3983 25.4351 64.1785L25.5 64.1024C25.2394 63.8799 24.9834 63.6559 24.7322 63.4303L24.6654 63.5048C24.4096 63.2753 24.1587 63.0442 23.9127 62.8117L23.9813 62.739C23.7321 62.5035 23.4878 62.2664 23.2485 62.0278L23.1779 62.0987C22.9344 61.8559 22.6961 61.6116 22.463 61.3659L22.5356 61.297C22.2997 61.0483 22.0692 60.7981 21.8441 60.5463L21.7695 60.613C21.5404 60.3568 21.3168 60.0991 21.0988 59.8399L21.1754 59.7755C20.9549 59.5133 20.7401 59.2496 20.5312 58.9844L20.4526 59.0463C20.2399 58.7764 20.0333 58.505 19.8326 58.2322L19.9131 58.173C19.7103 57.8971 19.5136 57.6198 19.3232 57.3412L19.2406 57.3976C19.0469 57.114 18.8595 56.829 18.6786 56.5426L18.7632 56.4892C18.5804 56.1998 18.4043 55.909 18.2349 55.6169L18.1484 55.667C17.9761 55.3699 17.8106 55.0714 17.6521 54.7716L17.7405 54.7248C17.5807 54.4225 17.428 54.1189 17.2824 53.8139L17.1921 53.857C17.0443 53.5474 16.9038 53.2365 16.7706 52.9243L16.8625 52.885C16.7286 52.571 16.6021 52.2557 16.4831 51.9392L16.3895 51.9744C16.269 51.6537 16.1561 51.3318 16.0511 51.0087L16.1461 50.9777C16.0407 50.6537 15.9432 50.3284 15.8535 50.0021L15.7571 50.0286C15.6664 49.6988 15.5838 49.3678 15.5093 49.0359L15.6069 49.014C15.5323 48.682 15.466 48.3491 15.4078 48.0152L15.3092 48.0324C15.2506 47.6959 15.2002 47.3585 15.1582 47.0202L15.2574 47.0078C15.2155 46.6708 15.1819 46.333 15.1567 45.9944L15.057 46.0018C15.0317 45.6619 15.0148 45.3212 15.0063 44.9798L15.1063 44.9773C15.1021 44.8077 15.1 44.6378 15.1 44.4678C15.1 44.2978 15.1021 44.128 15.1063 43.9583L15.0063 43.9558C15.0148 43.6144 15.0317 43.2737 15.057 42.9338L15.1567 42.9412C15.1819 42.6026 15.2155 42.2648 15.2574 41.9278L15.1582 41.9155C15.2002 41.5772 15.2506 41.2397 15.3092 40.9032L15.4078 40.9204C15.466 40.5865 15.5323 40.2536 15.6069 39.9217L15.5093 39.8998C15.5838 39.5678 15.6664 39.2369 15.7571 38.907L15.8535 38.9335C15.9432 38.6072 16.0407 38.282 16.1462 37.9579L16.0511 37.9269C16.1561 37.6039 16.269 37.2819 16.3895 36.9612L16.4831 36.9964C16.6021 36.6799 16.7286 36.3646 16.8625 36.0506L16.7706 36.0113C16.9038 35.6991 17.0443 35.3882 17.1921 35.0786L17.2824 35.1217C17.428 34.8168 17.5807 34.5131 17.7405 34.2108L17.6521 34.1641C17.8107 33.8642 17.9761 33.5657 18.1484 33.2686L18.2349 33.3188C18.4043 33.0266 18.5804 32.7358 18.7632 32.4465L18.6786 32.3931C18.8595 32.1066 19.0469 31.8216 19.2406 31.5381L19.3232 31.5945C19.5136 31.3158 19.7103 31.0385 19.9132 30.7627L19.8326 30.7034C20.0333 30.4306 20.2399 30.1592 20.4526 29.8893L20.5312 29.9512C20.7401 29.686 20.9549 29.4223 21.1754 29.1601L21.0988 29.0957C21.3168 28.8365 21.5404 28.5788 21.7695 28.3226L21.8441 28.3893C22.0692 28.1376 22.2997 27.8873 22.5356 27.6386L22.4631 27.5698C22.6961 27.324 22.9344 27.0797 23.1779 26.837L23.2485 26.9078C23.4878 26.6692 23.7321 26.4322 23.9813 26.1966L23.9127 26.1239C24.1587 25.8914 24.4097 25.6604 24.6654 25.4309L24.7322 25.5053C24.9835 25.2798 25.2394 25.0557 25.5 24.8332L25.4351 24.7571C25.6925 24.5373 25.9544 24.319 26.2208 24.1022L26.2839 24.1798C26.5459 23.9665 26.8123 23.7548 27.083 23.5445L27.0216 23.4656C27.2891 23.2578 27.5607 23.0516 27.8365 22.8468L27.8962 22.9271C28.1676 22.7256 28.4431 22.5256 28.7227 22.3271L28.6648 22.2456C28.9411 22.0493 29.2214 21.8545 29.5056 21.6613L29.5618 21.744C29.8417 21.5536 30.1254 21.3648 30.4128 21.1774L30.3582 21.0936C30.6423 20.9084 30.9301 20.7247 31.2215 20.5425L31.2745 20.6272C31.561 20.4481 31.851 20.2704 32.1445 20.0942L32.0931 20.0084C32.3835 19.8341 32.6773 19.6612 32.9746 19.4898L33.0245 19.5764C33.1722 19.4912 33.3208 19.4064 33.4701 19.3219C33.6132 19.2413 33.7567 19.1612 33.9008 19.0815L33.8524 18.994C34.1411 18.8344 34.4318 18.6767 34.7247 18.521L34.7716 18.6092C35.064 18.4537 35.3584 18.3001 35.6548 18.1484L35.6093 18.0594C35.9025 17.9093 36.1977 17.7611 36.4948 17.6148L36.5389 17.7045C36.835 17.5587 37.1329 17.4148 37.4327 17.2727L37.3899 17.1823C37.6894 17.0403 37.9907 16.9002 38.2938 16.762L38.3353 16.8529C38.6346 16.7165 38.9355 16.5818 39.2382 16.4489L39.198 16.3574C39.5012 16.2243 39.806 16.093 40.1125 15.9636L40.1514 16.0557C40.4556 15.9272 40.7614 15.8005 41.0689 15.6756L41.0312 15.583C41.3368 15.4588 41.644 15.3364 41.9528 15.2157L41.9892 15.3089C42.2975 15.1884 42.6074 15.0696 42.9187 14.9526L42.8836 14.859C43.1925 14.7429 43.5029 14.6285 43.8148 14.5159L43.8488 14.6099C44.1591 14.4979 44.4708 14.3875 44.7838 14.2788L44.751 14.1843C45.0645 14.0755 45.3793 13.9685 45.6955 13.8631L45.7271 13.9579C46.0394 13.8538 46.353 13.7514 46.6679 13.6507L46.6374 13.5554C46.9524 13.4547 47.2686 13.3555 47.586 13.2581L47.6153 13.3537C47.932 13.2565 48.2499 13.161 48.569 13.0671L48.5408 12.9711C48.8571 12.8781 49.1745 12.7867 49.493 12.6969L49.5201 12.7931C49.8383 12.7034 50.1576 12.6154 50.4779 12.529L50.4519 12.4324C50.7718 12.3461 51.0928 12.2614 51.4148 12.1784L51.4397 12.2752C51.7589 12.1929 52.0791 12.1122 52.4003 12.0331L52.3763 11.936C52.6979 11.8568 53.0203 11.7791 53.3437 11.7031L53.3666 11.8005C53.6886 11.7248 54.0116 11.6507 54.3354 11.5782L54.3135 11.4806C54.6358 11.4085 54.959 11.3379 55.2829 11.2689L55.3038 11.3667C55.6274 11.2978 55.9519 11.2304 56.2772 11.1647L56.2574 11.0666C56.5818 11.001 56.9071 10.937 57.2331 10.8745L57.2519 10.9727C57.5761 10.9105 57.9011 10.8499 58.2268 10.7909L58.2089 10.6925C58.5349 10.6334 58.8617 10.5758 59.1891 10.5198L59.2059 10.6183C59.5318 10.5626 59.8584 10.5084 60.1856 10.4557L60.1697 10.3569C60.4962 10.3044 60.8232 10.2533 61.1509 10.2038L61.1658 10.3027C61.4932 10.2532 61.8211 10.2053 62.1496 10.1589L62.1356 10.0599C62.4633 10.0136 62.7916 9.96879 63.1204 9.92552L63.1334 10.0247C63.4611 9.98155 63.7892 9.93994 64.1179 9.89984L64.1058 9.80058C64.4347 9.76044 64.7642 9.72181 65.094 9.68469L65.1052 9.78407C65.4339 9.74709 65.763 9.7116 66.0925 9.67762L66.0822 9.57815C66.4114 9.5442 66.7409 9.51175 67.0709 9.4808L67.0802 9.58036C67.4098 9.54943 67.7399 9.52 68.0702 9.49205L68.0618 9.39241C68.3917 9.3645 68.722 9.33809 69.0525 9.31316L69.0601 9.41288C69.3898 9.38801 69.7199 9.36462 70.0503 9.34271L70.0437 9.24293C70.3743 9.22101 70.7052 9.20057 71.0364 9.18161L71.0421 9.28145C71.3725 9.26254 71.703 9.24511 72.0338 9.22915L72.029 9.12927C72.3598 9.11332 72.6907 9.09884 73.0218 9.08584L73.0257 9.18576C73.3566 9.17278 73.6875 9.16126 74.0187 9.15122L74.0156 9.05127C74.3467 9.04123 74.678 9.03267 75.0094 9.02558L75.0115 9.12556C75.3424 9.11848 75.6733 9.11287 76.0044 9.10873L76.0031 9.00874C76.3345 9.0046 76.6659 9.00193 76.9973 9.00073L76.9976 9.10073C77.3287 9.09953 77.6598 9.09981 77.9909 9.10155L77.9914 9.00156C78.3228 9.0033 78.6541 9.00652 78.9854 9.01121L78.984 9.1112C79.315 9.11589 79.646 9.12205 79.9769 9.12967L79.9792 9.0297C80.3106 9.03734 80.6419 9.04645 80.9731 9.05703L80.9699 9.15698C81.3009 9.16756 81.6318 9.17961 81.9625 9.19313L81.9666 9.09322C82.2977 9.10675 82.6286 9.12176 82.9593 9.13825L82.9543 9.23812C83.2852 9.25461 83.6158 9.27258 83.9463 9.29202L83.9521 9.19219C84.2831 9.21167 84.614 9.23262 84.9445 9.25506L84.9378 9.35483C85.268 9.37725 85.598 9.40114 85.9278 9.42651L85.9354 9.32681C86.2661 9.35225 86.5965 9.37918 86.9265 9.40759L86.9179 9.50722C87.2481 9.53565 87.578 9.56556 87.9075 9.59696L87.917 9.49742C88.2468 9.52885 88.5762 9.56177 88.9053 9.59617L88.8949 9.69563C89.2245 9.7301 89.5537 9.76605 89.8825 9.80351L89.8939 9.70415C90.2235 9.74171 90.5528 9.78077 90.8816 9.82133L90.8694 9.92057C91.1979 9.9611 91.5259 10.0031 91.8534 10.0466L91.8666 9.94751C92.1955 9.99122 92.524 10.0364 92.8519 10.0832L92.8377 10.1822C93.166 10.229 93.4938 10.2773 93.8209 10.3271L93.836 10.2282C94.1635 10.2781 94.4904 10.3295 94.8167 10.3824L94.8007 10.4811C95.1281 10.5342 95.4548 10.5888 95.7809 10.6449L95.7979 10.5463C96.125 10.6027 96.4516 10.6605 96.7774 10.7199L96.7595 10.8183C97.085 10.8776 97.4098 10.9385 97.7339 11.0009L97.7528 10.9027C98.079 10.9655 98.4044 11.0298 98.7291 11.0958L98.7092 11.1938C99.0342 11.2597 99.3585 11.3273 99.682 11.3964L99.7029 11.2986C100.027 11.3678 100.35 11.4385 100.672 11.5108L100.65 11.6084C100.974 11.6811 101.297 11.7554 101.619 11.8313L101.642 11.734C101.965 11.8101 102.288 11.8877 102.609 11.967L102.585 12.0641C102.906 12.1433 103.226 12.2241 103.545 12.3064L103.57 12.2096C103.893 12.2928 104.214 12.3775 104.534 12.4639L104.508 12.5605C104.828 12.6468 105.147 12.7348 105.465 12.8245L105.492 12.7282C105.811 12.8179 106.128 12.9093 106.445 13.0023L106.416 13.0982C106.736 13.192 107.054 13.2875 107.371 13.3847L107.4 13.289C107.717 13.3863 108.033 13.4852 108.348 13.5858L108.318 13.681C108.633 13.7817 108.947 13.884 109.26 13.9879L109.291 13.893C109.607 13.9981 109.922 14.1048 110.235 14.2133L110.203 14.3078C110.516 14.4161 110.827 14.5261 111.138 14.6378L111.172 14.5437C111.484 14.6561 111.795 14.7701 112.104 14.8859L112.069 14.9795C112.38 15.096 112.69 15.2143 112.999 15.3342L113.035 15.241C113.344 15.3612 113.651 15.483 113.957 15.6066L113.919 15.6993C114.227 15.8237 114.533 15.9498 114.838 16.0777L114.877 15.9855C115.183 16.1143 115.488 16.2448 115.792 16.3771L115.752 16.4688C116.055 16.6009 116.356 16.7348 116.656 16.8705L116.697 16.7794C117.001 16.9168 117.302 17.0561 117.602 17.1972L117.56 17.2877C117.86 17.4289 118.158 17.5719 118.455 17.7167L118.499 17.6269C118.796 17.7722 119.092 17.9194 119.386 18.0685L119.341 18.1577C119.638 18.3082 119.933 18.4607 120.226 18.615L120.272 18.5265C120.566 18.6811 120.857 18.8376 121.146 18.9959L121.098 19.0836C121.243 19.1626 121.387 19.2421 121.53 19.3221C121.679 19.4065 121.828 19.4913 121.976 19.5764L122.025 19.4898C122.323 19.6612 122.617 19.8341 122.907 20.0084L122.855 20.0942C123.149 20.2704 123.439 20.4481 123.726 20.6272L123.779 20.5425C124.07 20.7247 124.358 20.9084 124.642 21.0936L124.587 21.1774C124.875 21.3648 125.158 21.5536 125.438 21.744L125.494 21.6613C125.779 21.8546 126.059 22.0493 126.335 22.2456L126.277 22.3271C126.557 22.5256 126.832 22.7256 127.104 22.9271L127.163 22.8468C127.439 23.0516 127.711 23.2578 127.978 23.4656L127.917 23.5446C128.188 23.7548 128.454 23.9665 128.716 24.1798L128.779 24.1022C129.046 24.319 129.308 24.5373 129.565 24.7571L129.5 24.8332C129.761 25.0557 130.017 25.2798 130.268 25.5053L130.335 25.4309C130.59 25.6604 130.841 25.8914 131.087 26.1239L131.019 26.1966C131.268 26.4322 131.512 26.6692 131.752 26.9078L131.822 26.837C132.066 27.0797 132.304 27.324 132.537 27.5698L132.464 27.6386C132.7 27.8873 132.931 28.1376 133.156 28.3893L133.23 28.3226C133.46 28.5788 133.683 28.8365 133.901 29.0957L133.825 29.1601C134.045 29.4223 134.26 29.6861 134.469 29.9512L134.547 29.8893C134.76 30.1592 134.967 30.4306 135.167 30.7034L135.087 30.7627C135.29 31.0385 135.486 31.3158 135.677 31.5945L135.759 31.5381C135.953 31.8216 136.14 32.1066 136.321 32.3931L136.237 32.4465C136.42 32.7358 136.596 33.0266 136.765 33.3188L136.852 33.2686C137.024 33.5657 137.189 33.8642 137.348 34.1641L137.259 34.2108C137.419 34.5131 137.572 34.8168 137.718 35.1217L137.808 35.0786C137.956 35.3882 138.096 35.6991 138.229 36.0113L138.137 36.0506C138.271 36.3646 138.398 36.6799 138.517 36.9964L138.61 36.9612C138.731 37.2819 138.844 37.6039 138.949 37.927L138.854 37.9579C138.959 38.282 139.057 38.6072 139.147 38.9335L139.243 38.907C139.334 39.2369 139.416 39.5678 139.491 39.8998L139.393 39.9217C139.468 40.2536 139.534 40.5865 139.592 40.9204L139.691 40.9032C139.749 41.2397 139.8 41.5772 139.842 41.9155L139.743 41.9278C139.785 42.2648 139.818 42.6026 139.843 42.9412L139.943 42.9338C139.968 43.2737 139.985 43.6144 139.994 43.9558L139.894 43.9583C139.898 44.128 139.9 44.2978 139.9 44.4678C139.9 44.6378 139.898 44.8077 139.894 44.9773L139.994 44.9798C139.985 45.3212 139.968 45.6619 139.943 46.0018L139.843 45.9944C139.818 46.333 139.785 46.6709 139.743 47.0078L139.842 47.0202C139.8 47.3585 139.749 47.6959 139.691 48.0324L139.592 48.0152C139.534 48.3491 139.468 48.682 139.393 49.014L139.491 49.0359C139.416 49.3678 139.334 49.6988 139.243 50.0286L139.147 50.0021C139.057 50.3284 138.959 50.6537 138.854 50.9778L138.949 51.0087C138.844 51.3318 138.731 51.6537 138.61 51.9744L138.517 51.9392C138.398 52.2557 138.271 52.571 138.137 52.8851L138.229 52.9243C138.096 53.2365 137.956 53.5474 137.808 53.857L137.718 53.8139C137.572 54.1189 137.419 54.4225 137.259 54.7248L137.348 54.7716C137.189 55.0714 137.024 55.3699 136.852 55.667L136.765 55.6169C136.596 55.909 136.42 56.1998 136.237 56.4892L136.321 56.5426C136.14 56.829 135.953 57.114 135.759 57.3976L135.677 57.3412C135.486 57.6198 135.29 57.8971 135.087 58.173L135.167 58.2322C134.967 58.505 134.76 58.7764 134.547 59.0463L134.469 58.9844C134.26 59.2496 134.045 59.5133 133.825 59.7755L133.901 59.8399C133.683 60.0991 133.46 60.3568 133.23 60.613L133.156 60.5464C132.931 60.7981 132.7 61.0483 132.464 61.297L132.537 61.3659C132.304 61.6116 132.066 61.8559 131.822 62.0987L131.751 62.0278C131.512 62.2664 131.268 62.5035 131.019 62.739L131.087 62.8117C130.841 63.0442 130.59 63.2753 130.335 63.5048L130.268 63.4304C130.017 63.6559 129.761 63.8799 129.5 64.1024L129.565 64.1785C129.308 64.3983 129.046 64.6166 128.779 64.8334L128.716 64.7559C128.454 64.9691 128.188 65.1809 127.917 65.3911L127.978 65.4701C127.711 65.6778 127.439 65.8841 127.163 66.0888L127.104 66.0085C126.832 66.21 126.557 66.41 126.277 66.6085L126.335 66.6901C126.059 66.8863 125.779 67.0811 125.494 67.2743L125.438 67.1917C125.158 67.382 124.875 67.5709 124.587 67.7583L124.642 67.842C124.358 68.0272 124.07 68.211 123.779 68.3932L123.725 68.3084C123.439 68.4875 123.149 68.6652 122.855 68.8415L122.907 68.9272C122.617 69.1016 122.323 69.2745 122.025 69.4459L121.975 69.3592C121.828 69.4444 121.679 69.5292 121.53 69.6136C121.386 69.6947 121.241 69.7752 121.096 69.8553L121.144 69.9429C120.854 70.1031 120.561 70.2614 120.267 70.4177L120.22 70.3293C119.927 70.4846 119.633 70.6379 119.337 70.7893L119.382 70.8783C119.087 71.0291 118.79 71.1781 118.491 71.3251L118.447 71.2353C118.15 71.3815 117.851 71.5259 117.55 71.6683L117.593 71.7587C117.293 71.9007 116.992 72.0409 116.688 72.1793L116.647 72.0883C116.346 72.2257 116.043 72.3612 115.738 72.4949L115.779 72.5864C115.475 72.7197 115.17 72.8512 114.863 72.9808L114.824 72.8887C114.519 73.0177 114.212 73.1448 113.904 73.2702L113.942 73.3628C113.634 73.4879 113.325 73.6111 113.015 73.7325L112.978 73.6394C112.67 73.76 112.36 73.8789 112.049 73.996L112.084 74.0896C111.774 74.2064 111.462 74.3215 111.149 74.4348L111.115 74.3408C110.803 74.4536 110.49 74.5647 110.176 74.674L110.209 74.7684C109.895 74.8774 109.581 74.9846 109.265 75.0902L109.233 74.9953C108.919 75.1003 108.604 75.2036 108.287 75.3051L108.318 75.4003C108.002 75.5017 107.684 75.6014 107.366 75.6994L107.337 75.6038C107.02 75.7014 106.702 75.7972 106.383 75.8914L106.411 75.9873C106.093 76.0812 105.774 76.1734 105.453 76.264L105.426 76.1678C105.107 76.258 104.787 76.3465 104.466 76.4334L104.492 76.53C104.172 76.6167 103.85 76.7019 103.528 76.7854L103.503 76.6886C103.182 76.7716 102.86 76.8531 102.538 76.9328L102.562 77.0299C102.239 77.1096 101.916 77.1877 101.592 77.2641L101.569 77.1668C101.247 77.243 100.923 77.3176 100.598 77.3906L100.62 77.4882C100.296 77.561 99.9718 77.6322 99.6464 77.7019L99.6255 77.6041C99.3012 77.6735 98.9762 77.7413 98.6505 77.8075L98.6704 77.9055C98.3449 77.9716 98.0187 78.0362 97.6919 78.0992L97.673 78.001C97.3472 78.0638 97.0209 78.125 96.6938 78.1846L96.7118 78.283C96.3852 78.3426 96.0579 78.4006 95.7301 78.457L95.7131 78.3585C95.3861 78.4148 95.0585 78.4695 94.7303 78.5227L94.7463 78.6214C94.4185 78.6746 94.09 78.7262 93.7611 78.7762L93.7461 78.6774C93.4181 78.7273 93.0896 78.7756 92.7607 78.8224L92.7748 78.9214C92.4459 78.9683 92.1165 79.0136 91.7868 79.0573L91.7736 78.9582C91.4446 79.0018 91.1151 79.0439 90.7853 79.0845L90.7975 79.1838C90.4678 79.2244 90.1378 79.2634 89.8074 79.3009L89.7961 79.2016C89.4662 79.239 89.136 79.275 88.8056 79.3094L88.8159 79.4089C88.4854 79.4433 88.1546 79.4762 87.8235 79.5077L87.8141 79.4081C87.4836 79.4395 87.1529 79.4693 86.8219 79.4976L86.8305 79.5973C86.4993 79.6256 86.168 79.6525 85.8365 79.6778L85.8288 79.5781C85.4977 79.6034 85.1665 79.6272 84.835 79.6495L84.8417 79.7493C84.5102 79.7716 84.1784 79.7925 83.8466 79.8118L83.8407 79.712C83.5092 79.7313 83.1776 79.7491 82.8458 79.7654L82.8508 79.8653C82.5188 79.8817 82.1867 79.8965 81.8545 79.9099L81.8505 79.8099C81.5187 79.8233 81.1867 79.8352 80.8548 79.8455L80.8579 79.9455C80.5257 79.9559 80.1934 79.9648 79.8611 79.9722L79.8588 79.8722C79.5268 79.8796 79.1947 79.8856 78.8628 79.89L78.8641 79.99C78.5316 79.9944 78.1992 79.9974 77.8668 79.9989L77.8664 79.8989C77.7004 79.8996 77.5344 79.9 77.3684 79.9C77.2031 79.9 77.0379 79.8996 76.8726 79.8989L76.8722 79.9989C76.5415 79.9975 76.2109 79.9947 75.8804 79.9904L75.8817 79.8904C75.5511 79.8861 75.2207 79.8804 74.8905 79.8733L74.8883 79.9733C74.5576 79.9661 74.227 79.9576 73.8966 79.9476L73.8997 79.8476C73.5693 79.8376 73.2392 79.8261 72.9094 79.8133L72.9055 79.9132C72.5747 79.9003 72.2443 79.8859 71.9141 79.8701L71.9189 79.7702C71.5887 79.7544 71.2587 79.7371 70.9291 79.7184L70.9234 79.8183C70.5932 79.7995 70.2632 79.7793 69.9336 79.7577L69.9401 79.6579C69.6101 79.6362 69.2804 79.613 68.9511 79.5884L68.9436 79.6881C68.6136 79.6635 68.284 79.6373 67.9548 79.6097L67.9631 79.5101C67.6337 79.4825 67.3047 79.4534 66.9762 79.4228L66.9669 79.5223C66.6372 79.4917 66.308 79.4595 65.9792 79.4258L65.9894 79.3264C65.6604 79.2927 65.332 79.2575 65.004 79.2209L64.9929 79.3202C64.664 79.2835 64.3357 79.2452 64.0079 79.2055L64.02 79.1062C63.6915 79.0664 63.3636 79.025 63.0362 78.9821L63.0232 79.0813C62.695 79.0383 62.3673 78.9938 62.0403 78.9478L62.0542 78.8488C61.7268 78.8027 61.4001 78.7551 61.074 78.706L61.0591 78.8049C60.7316 78.7556 60.4046 78.7047 60.0784 78.6523L60.0942 78.5535C59.7676 78.501 59.4417 78.447 59.1165 78.3914L59.0997 78.49C58.7735 78.4343 58.448 78.377 58.1232 78.3181L58.1411 78.2197C57.8154 78.1607 57.4905 78.1001 57.1664 78.0379L57.1475 78.1361C56.8223 78.0737 56.4978 78.0097 56.1741 77.9441L56.194 77.8461C55.8699 77.7805 55.5467 77.7132 55.2243 77.6444L55.2034 77.7422C54.8794 77.673 54.5563 77.6022 54.2341 77.5298L54.256 77.4322C53.9331 77.3597 53.6111 77.2855 53.2901 77.2097L53.2671 77.307C52.9449 77.231 52.6236 77.1532 52.3033 77.0739L52.3273 76.9768C52.0062 76.8973 51.686 76.8161 51.3669 76.7332L51.3418 76.83C51.021 76.7467 50.7012 76.6618 50.3826 76.5752L50.4088 76.4787C50.0896 76.3919 49.7714 76.3035 49.4543 76.2134L49.427 76.3096C49.1085 76.219 48.7911 76.1268 48.4749 76.0329L48.5034 75.937C48.1859 75.8428 47.8697 75.7468 47.5546 75.6491L47.525 75.7446C47.2085 75.6465 46.8932 75.5467 46.5792 75.4451L46.61 75.3499C46.2953 75.2481 45.9819 75.1446 45.6698 75.0394L45.6379 75.1341C45.3238 75.0282 45.011 74.9205 44.6996 74.8111L44.7327 74.7167C44.4204 74.6069 44.1094 74.4954 43.7998 74.3821L43.7655 74.476C43.4544 74.3621 43.1447 74.2465 42.8364 74.129L42.872 74.0356C42.563 73.9178 42.2554 73.7982 41.9492 73.6768L41.9124 73.7698C41.6041 73.6475 41.2973 73.5234 40.9921 73.3975L41.0302 73.3051C40.7242 73.1788 40.4198 73.0507 40.117 72.9208L40.0776 73.0127C39.7732 72.8821 39.4704 72.7496 39.1692 72.6152L39.21 72.5239C38.9078 72.389 38.6073 72.2523 38.3085 72.1137L38.2664 72.2044C37.9656 72.0649 37.6665 71.9234 37.3692 71.78L37.4126 71.6899C37.1145 71.5462 36.8182 71.4005 36.5238 71.2528L36.479 71.3422C36.1828 71.1938 35.8885 71.0433 35.5962 70.891L35.6424 70.8023C35.3489 70.6493 35.0573 70.4944 34.7677 70.3375L34.7201 70.4255C34.4285 70.2675 34.1389 70.1075 33.8513 69.9455L33.9004 69.8584C33.7567 69.7775 33.6135 69.696 33.4708 69.6141Z" stroke="#5ADBF8" stroke-width="0.2" stroke-dasharray="1 1"/>
<path opacity="0.3" d="M77.3368 89C57.4316 89 37.8526 84.8042 22.8421 76.0898C8.15789 67.6981 0 56.4016 0 44.4597C0 32.5177 8.15789 21.2212 22.8421 12.8296C52.8631 -4.27652 101.811 -4.27652 132.158 12.8296C146.842 21.2212 155 32.5177 155 44.4597C155 56.4016 146.842 67.6981 132.158 76.0898C116.821 84.8042 96.9157 89 77.3368 89ZM77.3368 1.53309C57.7579 1.53309 38.5052 5.72895 23.4947 14.1206C9.46314 22.1895 1.63158 32.8405 1.63158 44.1369C1.63158 55.4334 9.46314 66.0843 23.4947 74.1532C53.1894 90.9365 101.158 90.9365 130.853 74.1532C144.884 66.0843 152.716 55.4334 152.716 44.1369C152.716 32.8405 144.884 22.1895 130.853 14.1206C116.168 5.72895 96.5894 1.53309 77.3368 1.53309Z" fill="#53A5F8"/>
<path d="M98 44.5C98 48.75 94.4585 53 89.5001 53C85.2501 53 81 49.4583 81 44.5C81 40.25 84.5418 36 89.5001 36C94.4585 36 98 39.5417 98 44.5Z" fill="#6BD2FE"/>
<path d="M43.5 27C44.8807 27 46 25.8807 46 24.5C46 23.1193 44.8807 22 43.5 22C42.1193 22 41 23.1193 41 24.5C41 25.8807 42.1193 27 43.5 27Z" fill="#6BD2FE"/>
<path d="M94.5 24C97.5375 24 100 21.5375 100 18.5C100 15.4624 97.5375 13 94.5 13C91.4625 13 89 15.4624 89 18.5C89 21.5375 91.4625 24 94.5 24Z" fill="#6BD2FE"/>
</svg>
