<svg width="190" height="101" viewBox="0 0 190 101" fill="none" xmlns="http://www.w3.org/2000/svg">
<path opacity="0.1" d="M91.834 100.636L27.1855 63.1846L91.834 25.7327L156.455 63.1846L91.834 100.636Z" fill="#53A5F8"/>
<path opacity="0.1" d="M46.0098 90L0 63.5L46.0098 37L92 63.5L46.0098 90Z" fill="#53A5F8"/>
<path d="M58.0021 52L48 46.5L58.0021 41L68 46.5L58.0021 52Z" fill="#69CDFD"/>
<path d="M153.002 69L143 63.5L153.002 58L163 63.5L153.002 69Z" fill="#69CDFD"/>
<path opacity="0.1" d="M144.51 90L99 63.5L144.51 37L190 63.5L144.51 90Z" fill="#53A5F8"/>
<path opacity="0.1" d="M92.2372 51.144L48.127 25.572L92.2372 0L136.32 25.572L92.2372 51.144Z" fill="#53A5F8"/>
<path d="M93.3325 46.2321L92.4518 46.744L92.4016 46.6576L92.0115 46.8843L91.6211 46.6576L91.5709 46.744L90.6896 46.2321L90.7399 46.1457L89.8586 45.6338L89.8084 45.7202L88.9272 45.2083L88.9774 45.1219L88.0962 44.61L88.046 44.6964L87.1647 44.1845L87.215 44.0981L86.3337 43.5862L86.2835 43.6726L85.4023 43.1607L85.4525 43.0742L84.5713 42.5623L84.5211 42.6488L83.6398 42.1369L83.6901 42.0504L82.8088 41.5385L82.7586 41.625L81.8774 41.1131L81.9276 41.0266L81.0464 40.5147L80.9962 40.6012L80.1149 40.0893L80.1652 40.0028L79.2839 39.4909L79.2337 39.5774L78.3525 39.0655L78.4027 38.979L77.5215 38.4671L77.4713 38.5536L76.59 38.0417L76.6403 37.9552L75.759 37.4433L75.7088 37.5298L74.8276 37.0179L74.8778 36.9314L73.9966 36.4195L73.9464 36.506L73.0651 35.9941L73.1154 35.9076L72.2341 35.3957L72.1839 35.4821L71.3027 34.9702L71.3529 34.8838L70.4717 34.3719L70.4215 34.4583L69.5402 33.9464L69.5905 33.86L68.7092 33.3481L68.659 33.4345L67.7778 32.9226L67.828 32.8362L66.9468 32.3242L66.8966 32.4107L66.0153 31.8988L66.0656 31.8123L65.1843 31.3004L65.1341 31.3869L64.2529 30.875L64.3031 30.7885L63.4219 30.2766L63.3717 30.3631L62.4904 29.8512L62.5407 29.7647L61.6594 29.2528L61.6092 29.3393L60.728 28.8274L60.7782 28.7409L59.897 28.229L59.8468 28.3155L58.9655 27.8036L59.0158 27.7171L58.1345 27.2052L58.0843 27.2917L57.2031 26.7798L57.2533 26.6933L56.3721 26.1814L56.3219 26.2679L55.4406 25.756L55.4909 25.6695L55.1991 25.5L55.4908 25.3305L55.4406 25.244L56.3218 24.7321L56.3721 24.8186L57.2533 24.3067L57.2031 24.2202L58.0843 23.7083L58.1345 23.7948L59.0157 23.2829L58.9655 23.1964L59.8467 22.6845L59.897 22.771L60.7782 22.2591L60.728 22.1726L61.6092 21.6607L61.6594 21.7472L62.5406 21.2353L62.4904 21.1488L63.3716 20.6369L63.4219 20.7234L64.3031 20.2115L64.2529 20.125L65.1341 19.6131L65.1843 19.6996L66.0655 19.1877L66.0153 19.1012L66.8965 18.5893L66.9468 18.6758L67.828 18.1639L67.7778 18.0774L68.659 17.5655L68.7092 17.6519L69.5904 17.14L69.5402 17.0536L70.4214 16.5417L70.4717 16.6281L71.3529 16.1162L71.3027 16.0298L72.1839 15.5179L72.2341 15.6043L73.1153 15.0924L73.0651 15.006L73.9463 14.4941L73.9966 14.5805L74.8778 14.0686L74.8276 13.9821L75.7088 13.4702L75.759 13.5567L76.6402 13.0448L76.59 12.9583L77.4712 12.4464L77.5215 12.5329L78.4027 12.021L78.3525 11.9345L79.2337 11.4226L79.2839 11.5091L80.1652 10.9972L80.1149 10.9107L80.9961 10.3988L81.0464 10.4853L81.9276 9.97338L81.8774 9.88691L82.7586 9.375L82.8088 9.46147L83.6901 8.94957L83.6398 8.8631L84.521 8.3512L84.5713 8.43766L85.4525 7.92576L85.4023 7.83929L86.2835 7.32739L86.3337 7.41386L87.215 6.90195L87.1647 6.81548L88.0459 6.30358L88.0962 6.39005L88.9774 5.87814L88.9272 5.79167L89.8084 5.27977L89.8586 5.36624L90.7399 4.85433L90.6896 4.76786L91.5708 4.25596L91.6211 4.34243L92.0115 4.11566L92.4016 4.34241L92.4518 4.25595L93.3325 4.76786L93.2822 4.85431L94.1629 5.36622L94.2132 5.27976L95.0939 5.79167L95.0436 5.87812L95.9243 6.39003L95.9745 6.30357L96.8552 6.81548L96.805 6.90193L97.6856 7.41384L97.7359 7.32738L98.6166 7.83928L98.5663 7.92574L99.447 8.43765L99.4972 8.35119L100.378 8.86309L100.328 8.94955L101.208 9.46145L101.259 9.375L102.139 9.8869L102.089 9.97336L102.97 10.4853L103.02 10.3988L103.901 10.9107L103.85 10.9972L104.731 11.5091L104.781 11.4226L105.662 11.9345L105.612 12.021L106.492 12.5329L106.543 12.4464L107.423 12.9583L107.373 13.0448L108.254 13.5567L108.304 13.4702L109.185 13.9821L109.134 14.0686L110.015 14.5805L110.065 14.494L110.946 15.0059L110.896 15.0924L111.776 15.6043L111.827 15.5179L112.707 16.0298L112.657 16.1162L113.538 16.6281L113.588 16.5417L114.469 17.0536L114.419 17.14L115.299 17.6519L115.349 17.5655L116.23 18.0774L116.18 18.1638L117.061 18.6757L117.111 18.5893L117.991 19.1012L117.941 19.1876L118.822 19.6995L118.872 19.6131L119.753 20.125L119.703 20.2114L120.583 20.7234L120.634 20.6369L121.514 21.1488L121.464 21.2353L122.345 21.7472L122.395 21.6607L123.276 22.1726L123.225 22.2591L124.106 22.771L124.156 22.6845L125.037 23.1964L124.987 23.2829L125.867 23.7948L125.918 23.7083L126.798 24.2202L126.748 24.3067L127.629 24.8186L127.679 24.7321L128.56 25.244L128.509 25.3305L128.801 25.5L128.509 25.6695L128.56 25.7559L127.679 26.2679L127.629 26.1814L126.748 26.6933L126.798 26.7798L125.918 27.2917L125.867 27.2052L124.987 27.7171L125.037 27.8036L124.156 28.3155L124.106 28.229L123.225 28.7409L123.276 28.8274L122.395 29.3393L122.345 29.2528L121.464 29.7647L121.514 29.8512L120.634 30.3631L120.583 30.2766L119.703 30.7885L119.753 30.875L118.872 31.3869L118.822 31.3004L117.941 31.8124L117.992 31.8988L117.111 32.4107L117.061 32.3243L116.18 32.8362L116.23 32.9226L115.349 33.4345L115.299 33.3481L114.419 33.86L114.469 33.9464L113.588 34.4583L113.538 34.3719L112.657 34.8838L112.707 34.9702L111.827 35.4821L111.777 35.3957L110.896 35.9076L110.946 35.994L110.065 36.506L110.015 36.4195L109.134 36.9314L109.185 37.0179L108.304 37.5298L108.254 37.4433L107.373 37.9552L107.423 38.0417L106.543 38.5536L106.492 38.4671L105.612 38.979L105.662 39.0655L104.781 39.5774L104.731 39.4909L103.85 40.0028L103.901 40.0893L103.02 40.6012L102.97 40.5147L102.089 41.0266L102.139 41.1131L101.259 41.625L101.208 41.5385L100.328 42.0505L100.378 42.1369L99.4972 42.6488L99.447 42.5624L98.5663 43.0743L98.6166 43.1607L97.7359 43.6726L97.6856 43.5862L96.805 44.0981L96.8552 44.1845L95.9745 44.6964L95.9243 44.61L95.0436 45.1219L95.0938 45.2083L94.2132 45.7202L94.1629 45.6338L93.2822 46.1457L93.3325 46.2321Z" stroke="#5ADBF8" stroke-width="0.2" stroke-dasharray="1 1"/>
</svg>
