<svg width="148" height="109" viewBox="0 0 148 109" fill="none" xmlns="http://www.w3.org/2000/svg">
<ellipse opacity="0.1" cx="128.5" cy="52" rx="19.5" ry="19" fill="#53A5F8"/>
<circle opacity="0.1" cx="49" cy="60" r="49" fill="#53A5F8"/>
<circle opacity="0.1" cx="49.5" cy="59.5" r="31.5" fill="#53A5F8"/>
<circle opacity="0.1" cx="67" cy="14" r="14" fill="#53A5F8"/>
<path d="M66.5 19C68.9853 19 71 16.9852 71 14.5C71 12.0147 68.9853 10 66.5 10C64.0147 10 62 12.0147 62 14.5C62 16.9852 64.0147 19 66.5 19Z" fill="#6BD2FE"/>
<circle opacity="0.1" cx="143" cy="42" r="5" fill="#53A5F8"/>
<path d="M143 45C144.657 45 146 43.6568 146 42C146 40.3431 144.657 39 143 39C141.343 39 140 40.3431 140 42C140 43.6568 141.343 45 143 45Z" fill="#6BD2FE"/>
<circle opacity="0.1" cx="109.095" cy="14.0953" r="9.09533" fill="#53A5F8"/>
</svg>
