<svg width="239" height="276" viewBox="0 0 239 276" fill="none" xmlns="http://www.w3.org/2000/svg">
<path d="M183.155 247.783C181.96 247.978 180.797 247.288 180.395 246.146L175.454 232.119C174.885 230.506 176.069 228.811 177.779 228.789L233.587 228.059C235.811 228.03 236.963 230.701 235.415 232.299L195.711 273.272C194.396 274.629 192.108 274.092 191.534 272.292L186.818 257.516C186.464 256.406 186.923 255.199 187.926 254.605L198.785 248.174C200.211 247.329 199.416 245.136 197.78 245.403L183.155 247.783Z" stroke="#22BBDD"/>
<path d="M1 1.49622C115.583 59.5127 45.6059 152.1 79.5 203.496C102.822 238.861 146 251.75 183.5 251.75" stroke="#22BBDD" stroke-miterlimit="10" stroke-linecap="round" stroke-dasharray="5.01 5.01"/>
</svg>
