<svg width="173" height="150" viewBox="0 0 173 150" fill="none" xmlns="http://www.w3.org/2000/svg">
<path fill-rule="evenodd" clip-rule="evenodd" d="M92.489 2.20791C88.735 -0.0626312 84.245 -0.0626312 80.4911 2.20791L43.4697 24.5888L43.4696 24.5889L0.707974 50.4633L0 50.8917L0.639911 51.2778V137.574C0.639911 144.265 6.51227 149.627 13.664 149.627H159.3C166.452 149.627 172.324 144.265 172.324 137.574V51.2877L172.981 50.8918L172.272 50.4632L129.496 24.6035L129.496 24.6033L92.4891 2.20798L92.489 2.20791ZM171.324 51.8904L129.51 77.092L129.51 77.0923L86.7486 102.923L86.4902 103.079L86.2317 102.923L43.4701 77.1211L1.63991 51.8812V137.574C1.63991 143.639 6.98703 148.627 13.664 148.627H159.3C165.977 148.627 171.324 143.639 171.324 137.574V51.8904ZM81.0086 3.06357C84.4443 0.985503 88.5356 0.985483 91.9713 3.06351L91.9715 3.06357L128.978 25.459L128.978 25.4591L171.046 50.8905L128.994 76.2358L128.993 76.2361L86.4899 101.911L43.9867 76.2649L1.93364 50.8905L43.9871 25.4446L43.9873 25.4445L81.0085 3.06363L81.0086 3.06357Z" fill="#22BBDD"/>
<mask id="path-2-inside-1" fill="white">
<path d="M4.48883 145.388C4.41635 145.388 4.34387 145.359 4.28589 145.316C4.15543 145.2 4.15543 145.011 4.2569 144.895L57.5857 84.8986C57.7017 84.7681 57.8901 84.7681 58.0061 84.8696C58.1365 84.9855 58.1365 85.174 58.035 85.2899L4.70626 145.287C4.64828 145.359 4.5758 145.388 4.48883 145.388Z"/>
</mask>
<path d="M4.28589 145.316L3.62153 146.063L3.65262 146.091L3.68589 146.116L4.28589 145.316ZM4.2569 144.895L3.50946 144.231L3.50432 144.237L4.2569 144.895ZM57.5857 84.8986L56.8383 84.2342L56.8383 84.2342L57.5857 84.8986ZM58.0061 84.8696L58.6704 84.1221L58.6646 84.117L58.0061 84.8696ZM58.035 85.2899L58.7825 85.9543L58.7876 85.9484L58.035 85.2899ZM4.70626 145.287L3.95884 144.622L3.9416 144.642L3.92539 144.662L4.70626 145.287ZM4.48883 144.388C4.67456 144.388 4.80754 144.457 4.88589 144.516L3.68589 146.116C3.8802 146.261 4.15814 146.388 4.48883 146.388V144.388ZM4.95025 144.568C5.2513 144.836 5.25089 145.278 5.00948 145.554L3.50432 144.237C3.05997 144.745 3.05956 145.564 3.62153 146.063L4.95025 144.568ZM5.00432 145.56L58.3331 85.5629L56.8383 84.2342L3.50948 144.231L5.00432 145.56ZM58.3331 85.5629C58.0655 85.864 57.6235 85.8636 57.3475 85.6221L58.6646 84.117C58.1567 83.6726 57.3378 83.6722 56.8383 84.2342L58.3331 85.5629ZM57.3417 85.617C57.0406 85.3494 57.041 84.9073 57.2825 84.6314L58.7876 85.9484C59.232 85.4406 59.2324 84.6217 58.6704 84.1222L57.3417 85.617ZM57.2876 84.6256L3.95884 144.622L5.45368 145.951L58.7825 85.9543L57.2876 84.6256ZM3.92539 144.662C3.9865 144.586 4.07733 144.507 4.19809 144.453C4.31525 144.4 4.4203 144.388 4.48883 144.388V146.388C4.84131 146.388 5.21669 146.249 5.48713 145.911L3.92539 144.662Z" fill="#22BBDD" mask="url(#path-2-inside-1)"/>
<path d="M168.334 145.226C168.334 145.226 168.334 145.226 168.333 145.226L168.334 145.226Z" stroke="#22BBDD"/>
<mask id="mask0" mask-type="alpha" maskUnits="userSpaceOnUse" x="0" y="6" width="173" height="96">
<path d="M86.3441 101.197L0.96582 50.0285V7.0495H172.157V50.0285L86.3441 101.197Z" fill="#191918" stroke="#22BBDD"/>
</mask>
<g mask="url(#mask0)">
<path d="M19.9549 8.05685H139.217L156.06 25.1707V107.945H16.5991V11.4851C16.5991 9.64732 18.1412 8.05685 19.9549 8.05685Z" fill="#191918" stroke="#22BBDD"/>
<path d="M19.9549 8.05685H139.217L156.06 25.1707V107.945H16.5991V11.4851C16.5991 9.64732 18.1412 8.05685 19.9549 8.05685Z" fill="#191918" stroke="#22BBDD"/>
<path d="M156.108 25.0548L140.337 25.183C139.915 25.183 139.594 25.0263 139.303 24.7413C139.011 24.4563 138.982 24.0574 138.982 23.6585V8.05692" stroke="#22BBDD"/>
</g>
</svg>
