<svg width="199" height="193" viewBox="0 0 199 193" fill="none" xmlns="http://www.w3.org/2000/svg">
<path d="M37.7815 19.0297C38.9764 18.8352 40.1389 19.5248 40.5412 20.6666L43.5137 29.1049C44.0821 30.7182 42.8988 32.413 41.1885 32.4354L4.81548 32.9108C2.59161 32.9399 1.43974 30.2685 2.98745 28.6713L28.7823 2.05194C30.0974 0.69482 32.3848 1.23128 32.9593 3.03159L35.7697 11.8374C36.1239 12.9474 35.6645 14.1549 34.662 14.7486L30.3444 17.3056C28.9182 18.1503 29.7137 20.3431 31.3498 20.0767L37.7815 19.0297Z" stroke="#22BBDD"/>
<path d="M197.556 192.319C118.096 152.086 162.883 93.4986 139.378 57.8568C110.178 13.5797 38.2207 15.7558 38.2207 15.7558" stroke="#22BBDD" stroke-miterlimit="10" stroke-linecap="round" stroke-dasharray="5.01 5.01"/>
</svg>
