<svg width="469" height="476" viewBox="0 0 469 476" fill="none" xmlns="http://www.w3.org/2000/svg">
<circle cx="230" cy="230" r="197.897" stroke="#22BBDD"/>
<circle cx="230" cy="230" r="229.5" stroke="#22BBDD" stroke-dasharray="4 4"/>
<circle cx="230" cy="230" r="187.363" stroke="#22BBDD" stroke-dasharray="4 4"/>
<circle cx="157.697" cy="155.527" r="8.5" transform="rotate(45 157.697 155.527)" stroke="#22BBDD"/>
<circle cx="170.425" cy="168.255" r="4.5" transform="rotate(45 170.425 168.255)" stroke="#22BBDD"/>
<circle cx="179.617" cy="177.447" r="3.5" transform="rotate(45 179.617 177.447)" stroke="#22BBDD"/>
<circle cx="187.395" cy="185.225" r="2.5" transform="rotate(45 187.395 185.225)" stroke="#22BBDD"/>
<circle cx="305.644" cy="157.697" r="8.5" transform="rotate(135 305.644 157.697)" stroke="#22BBDD"/>
<circle cx="292.916" cy="170.425" r="4.5" transform="rotate(135 292.916 170.425)" stroke="#22BBDD"/>
<circle cx="283.723" cy="179.617" r="3.5" transform="rotate(135 283.723 179.617)" stroke="#22BBDD"/>
<circle cx="275.945" cy="187.395" r="2.5" transform="rotate(135 275.945 187.395)" stroke="#22BBDD"/>
<circle cx="303.155" cy="305.644" r="8.5" transform="rotate(-135 303.155 305.644)" stroke="#22BBDD"/>
<circle cx="290.427" cy="292.916" r="4.5" transform="rotate(-135 290.427 292.916)" stroke="#22BBDD"/>
<circle cx="281.235" cy="283.723" r="3.5" transform="rotate(-135 281.235 283.723)" stroke="#22BBDD"/>
<circle cx="273.457" cy="275.945" r="2.5" transform="rotate(-135 273.457 275.945)" stroke="#22BBDD"/>
<circle cx="155.527" cy="303.155" r="8.5" transform="rotate(-45 155.527 303.155)" stroke="#22BBDD"/>
<circle cx="168.255" cy="290.427" r="4.5" transform="rotate(-45 168.255 290.427)" stroke="#22BBDD"/>
<circle cx="177.447" cy="281.235" r="3.5" transform="rotate(-45 177.447 281.235)" stroke="#22BBDD"/>
<circle cx="185.225" cy="273.457" r="2.5" transform="rotate(-45 185.225 273.457)" stroke="#22BBDD"/>
<circle cx="78.2501" cy="81.7617" r="70.229" transform="rotate(-90 78.2501 81.7617)" fill="#141413"/>
<circle cx="78.2501" cy="81.7617" r="69.729" transform="rotate(-90 78.2501 81.7617)" fill="#141413" stroke="#22BBDD"/>
<path d="M35.4158 110.552L35.1799 110.421L45.768 94.0162L33.5812 82.6674L33.6598 82.5621L48.913 65.9733L49.0178 66.0259L118.548 106.418L118.417 106.655L48.9654 66.2892L33.9481 82.641L46.0825 93.9636L35.4158 110.552Z" fill="#22BBDD"/>
<path d="M70.7742 117.411L70.6687 117.384L35.1052 110.685L35.1316 110.422L70.616 117.095L95.4234 49.2084L95.687 49.2873L70.7742 117.411Z" fill="#22BBDD"/>
<path d="M36.962 55.4232L36.7878 55.6199L48.8845 66.3303L49.0587 66.1336L36.962 55.4232Z" fill="#22BBDD"/>
<path d="M35.3609 82.4109C35.3609 83.061 34.8423 83.5796 34.1922 83.5796C33.5421 83.5796 33.0236 83.061 33.0236 82.4109C33.0236 81.7622 33.5399 81.2445 34.1881 81.2423C34.8472 81.2664 35.3609 81.7928 35.3609 82.4109Z" fill="#252423" stroke="#22BBDD" stroke-width="0.5"/>
<path d="M37.9216 110.005C37.9216 110.805 37.2838 111.442 36.4847 111.442C35.6856 111.442 35.0477 110.805 35.0477 110.005C35.0477 109.208 35.6833 108.571 36.4805 108.568C37.2888 108.598 37.9216 109.243 37.9216 110.005Z" fill="#252423" stroke="#22BBDD" stroke-width="0.5"/>
<path d="M97.1252 48.8885C97.1252 49.5386 96.6066 50.0572 95.9565 50.0572C95.3064 50.0572 94.7878 49.5386 94.7878 48.8885C94.7878 48.2384 95.3064 47.7198 95.9565 47.7198C96.6066 47.7198 97.1252 48.2384 97.1252 48.8885Z" fill="#252423" stroke="#22BBDD" stroke-width="0.5"/>
<path d="M37.5318 55.0546C37.5318 55.7047 37.0132 56.2233 36.3631 56.2233C35.713 56.2233 35.1945 55.7047 35.1945 55.0546C35.1945 54.406 35.7108 53.8882 36.359 53.886C37.0181 53.9101 37.5318 54.4366 37.5318 55.0546Z" fill="#252423" stroke="#22BBDD" stroke-width="0.5"/>
<path d="M123.858 58.1118L100.429 68.27L100.533 68.511L123.963 58.3528L123.858 58.1118Z" fill="#22BBDD"/>
<path d="M68.2303 44.6683L68.007 44.8066L78.0313 61.0021L78.2547 60.8638L68.2303 44.6683Z" fill="#22BBDD"/>
<path d="M71.3518 87.7552L45.3545 93.2028L45.4084 93.4599L71.4057 88.0124L71.3518 87.7552Z" fill="#22BBDD"/>
<path opacity="0.8" d="M123.858 58.1117L86.4185 74.3443L86.523 74.5853L123.963 58.3527L123.858 58.1117Z" fill="#22BBDD"/>
<path d="M103.587 83.6033L103.364 83.7427L118.316 107.608L118.539 107.469L103.587 83.6033Z" fill="#22BBDD"/>
<path opacity="0.8" d="M95.4344 70.5908L95.2118 70.7303L118.316 107.608L118.539 107.469L95.4344 70.5908Z" fill="#22BBDD"/>
<path opacity="0.8" d="M68.2303 44.6683L68.007 44.8066L91.9668 83.5166L92.1902 83.3783L68.2303 44.6683Z" fill="#22BBDD"/>
<path opacity="0.8" d="M102.124 81.3072L45.3545 93.2028L45.4084 93.4599L102.178 81.5643L102.124 81.3072Z" fill="#22BBDD"/>
<path d="M70.6864 117.297L45.2294 93.3902L48.8286 66.1729L48.8548 66.1467L68.033 44.6303H68.0855L102.843 39.7964L124.07 58.1864V58.2652L118.579 107.682L118.474 107.708L70.6864 117.297ZM45.5184 93.2851L70.7652 117.034L118.317 107.445L123.781 58.2915L102.764 40.0854L68.1643 44.8668L49.0913 66.278L45.5184 93.2851Z" fill="#22BBDD"/>
<circle opacity="0.1" cx="67.3272" cy="51.8182" r="8.80301" fill="#22BBDD"/>
<circle cx="67.3271" cy="51.8183" r="7.62927" fill="#22BBDD"/>
<circle opacity="0.1" cx="81.2268" cy="67.1077" r="10.6563" fill="#22BBDD"/>
<circle cx="81.2268" cy="67.1076" r="9.23544" fill="#22BBDD"/>
<circle opacity="0.1" cx="92.8095" cy="47.6484" r="10.193" fill="#22BBDD"/>
<circle cx="92.8095" cy="47.6484" r="8.8339" fill="#22BBDD"/>
<path d="M70.9066 107.445V85.0754C70.9066 83.5923 71.4907 82.1698 72.5305 81.1211C73.5703 80.0723 74.9805 79.4831 76.451 79.4831H101.401V76.687C101.401 73.6112 98.9058 71.0947 95.8564 71.0947H57.0456C55.5752 71.0947 54.1649 71.6839 53.1251 72.7326C52.0854 73.7814 51.5012 75.2038 51.5012 76.687V115.833C51.5012 117.316 52.0854 118.739 53.1251 119.787C54.1649 120.836 55.5752 121.425 57.0456 121.425H95.8564C98.9058 121.425 101.401 118.909 101.401 115.833V113.037H76.451C74.9805 113.037 73.5703 112.448 72.5305 111.399C71.4907 110.35 70.9066 108.928 70.9066 107.445ZM79.2232 85.0754C77.6985 85.0754 76.451 86.3337 76.451 87.8716V104.649C76.451 106.186 77.6985 107.445 79.2232 107.445H104.173V85.0754H79.2232ZM87.5398 100.454C85.2389 100.454 83.3815 98.5809 83.3815 96.2601C83.3815 93.9392 85.2389 92.0658 87.5398 92.0658C89.8407 92.0658 91.6981 93.9392 91.6981 96.2601C91.6981 98.5809 89.8407 100.454 87.5398 100.454Z" fill="#141413"/>
<path d="M70.9066 107.445V85.0754C70.9066 83.5923 71.4907 82.1698 72.5305 81.1211C73.5703 80.0723 74.9805 79.4831 76.451 79.4831H101.401V76.687C101.401 73.6112 98.9058 71.0947 95.8564 71.0947H57.0456C55.5752 71.0947 54.1649 71.6839 53.1251 72.7326C52.0854 73.7814 51.5012 75.2038 51.5012 76.687V115.833C51.5012 117.316 52.0854 118.739 53.1251 119.787C54.1649 120.836 55.5752 121.425 57.0456 121.425H95.8564C98.9058 121.425 101.401 118.909 101.401 115.833V113.037H76.451C74.9805 113.037 73.5703 112.448 72.5305 111.399C71.4907 110.35 70.9066 108.928 70.9066 107.445ZM79.2232 85.0754C77.6985 85.0754 76.451 86.3337 76.451 87.8716V104.649C76.451 106.186 77.6985 107.445 79.2232 107.445H104.173V85.0754H79.2232ZM87.5398 100.454C85.2389 100.454 83.3815 98.5809 83.3815 96.2601C83.3815 93.9392 85.2389 92.0658 87.5398 92.0658C89.8407 92.0658 91.6981 93.9392 91.6981 96.2601C91.6981 98.5809 89.8407 100.454 87.5398 100.454Z" fill="url(#paint0_linear)" fill-opacity="0.22"/>
<circle cx="378.066" cy="381.578" r="70.229" fill="#141413"/>
<g filter="url(#filter0_d)">
<circle cx="378.066" cy="381.578" r="70.229" fill="#141413"/>
<circle cx="378.066" cy="381.578" r="69.729" stroke="#22BBDD"/>
</g>
<mask id="mask0" mask-type="alpha" maskUnits="userSpaceOnUse" x="318" y="321" width="120" height="121">
<circle cx="378.066" cy="381.578" r="59.1947" fill="#141413" stroke="#22BBDD"/>
</mask>
<g mask="url(#mask0)">
<mask id="mask1" mask-type="alpha" maskUnits="userSpaceOnUse" x="310" y="307" width="208" height="135">
<rect x="310.178" y="307.656" width="207.176" height="133.482" rx="20" fill="#22BBDD"/>
</mask>
<g mask="url(#mask1)">
<path d="M314.071 395.486L314.071 395.254L431.378 395.254L441.111 404.987L509.474 404.987L509.474 405.219L441.018 405.219L431.285 395.486L314.071 395.486Z" fill="#22BBDD"/>
<path d="M441.065 405.219L441.065 404.987L314.071 404.987L314.071 405.219L441.065 405.219Z" fill="#22BBDD"/>
<path d="M314.071 412.171L314.071 411.94L450.52 411.94L450.566 411.986L469.384 427.698L511.05 427.698L511.05 427.93L469.291 427.93L469.245 427.93L450.427 412.171L314.071 412.171Z" fill="#22BBDD"/>
<path d="M395.783 395.301L415.017 365.545L497.841 365.545L497.841 365.777L415.156 365.777L395.968 395.44L395.783 395.301Z" fill="#22BBDD"/>
<path d="M482.083 377.596L482.083 377.364L407.462 377.364L407.462 377.596L482.083 377.596Z" fill="#22BBDD"/>
<path d="M402.967 384.548L402.967 384.316L314.071 384.316L314.071 384.548L402.967 384.548Z" fill="#22BBDD"/>
<path d="M338.775 395.44L338.96 395.301L345.912 405.034L345.727 405.173L338.775 395.44Z" fill="#22BBDD"/>
<path d="M389.758 384.362L406.814 353.773L407.045 353.865L389.943 384.455L389.758 384.362Z" fill="#22BBDD"/>
<path d="M385.262 384.362L402.364 353.773L402.596 353.865L385.494 384.455L385.262 384.362Z" fill="#22BBDD"/>
<path d="M426.28 412.171L426.465 411.986L444.819 428.949L452.791 428.949L452.791 429.181L444.726 429.181L444.68 429.135L426.28 412.171Z" fill="#22BBDD"/>
<path d="M421.645 412.171L421.83 411.986L441.899 430.849L441.76 430.989L421.645 412.171Z" fill="#22BBDD"/>
<path d="M423.128 377.364L433 365.545L433.186 365.731L423.313 377.549L423.128 377.364Z" fill="#22BBDD"/>
<path d="M426.882 377.364L436.569 365.545L436.754 365.731L427.068 377.549L426.882 377.364Z" fill="#22BBDD"/>
<path d="M366.676 435.762L366.676 424.222L373.165 412.032L373.35 412.125L366.908 424.314L366.908 435.762L366.676 435.762Z" fill="#22BBDD"/>
<path d="M361.671 435.762L361.671 423.851L367.603 412.032L367.789 412.125L361.903 423.944L361.903 435.762L361.671 435.762Z" fill="#22BBDD"/>
<path d="M314.071 426.261L314.071 426.029L341.231 426.029L351.984 411.986L352.169 412.125L341.324 426.261L314.071 426.261Z" fill="#22BBDD"/>
<mask id="path-71-inside-1" fill="white">
<path d="M365.286 437.014C365.286 436.18 365.935 435.531 366.769 435.531C367.603 435.531 368.252 436.18 368.252 437.014C368.252 437.848 367.603 438.497 366.769 438.497C365.935 438.497 365.286 437.848 365.286 437.014ZM368.02 437.014C368.02 436.319 367.464 435.762 366.769 435.762C366.074 435.762 365.517 436.319 365.517 437.014C365.517 437.709 366.074 438.265 366.769 438.265C367.464 438.265 368.02 437.709 368.02 437.014Z"/>
</mask>
<path d="M365.286 437.014C365.286 436.18 365.935 435.531 366.769 435.531C367.603 435.531 368.252 436.18 368.252 437.014C368.252 437.848 367.603 438.497 366.769 438.497C365.935 438.497 365.286 437.848 365.286 437.014ZM368.02 437.014C368.02 436.319 367.464 435.762 366.769 435.762C366.074 435.762 365.517 436.319 365.517 437.014C365.517 437.709 366.074 438.265 366.769 438.265C367.464 438.265 368.02 437.709 368.02 437.014Z" fill="#22BBDD"/>
<path d="M366.286 437.014C366.286 436.732 366.487 436.531 366.769 436.531L366.769 434.531C365.382 434.531 364.286 435.627 364.286 437.014L366.286 437.014ZM366.769 436.531C367.051 436.531 367.252 436.732 367.252 437.014L369.252 437.014C369.252 435.627 368.155 434.531 366.769 434.531L366.769 436.531ZM367.252 437.014C367.252 437.296 367.051 437.497 366.769 437.497L366.769 439.497C368.155 439.497 369.252 438.4 369.252 437.014L367.252 437.014ZM366.769 437.497C366.487 437.497 366.286 437.296 366.286 437.014L364.286 437.014C364.286 438.4 365.382 439.497 366.769 439.497L366.769 437.497ZM369.02 437.014C369.02 435.766 368.016 434.762 366.769 434.762L366.769 436.762C366.912 436.762 367.02 436.871 367.02 437.014L369.02 437.014ZM366.769 434.762C365.521 434.762 364.517 435.766 364.517 437.014L366.517 437.014C366.517 436.871 366.626 436.762 366.769 436.762L366.769 434.762ZM364.517 437.014C364.517 438.261 365.521 439.265 366.769 439.265L366.769 437.265C366.626 437.265 366.517 437.157 366.517 437.014L364.517 437.014ZM366.769 439.265C368.016 439.265 369.02 438.261 369.02 437.014L367.02 437.014C367.02 437.157 366.912 437.265 366.769 437.265L366.769 439.265Z" fill="#22BBDD" mask="url(#path-71-inside-1)"/>
<mask id="path-73-inside-2" fill="white">
<path d="M410.8 398.684C410.8 397.85 411.449 397.201 412.283 397.201C413.117 397.201 413.766 397.85 413.766 398.684C413.766 399.518 413.117 400.167 412.283 400.167C411.449 400.167 410.8 399.472 410.8 398.684ZM413.534 398.684C413.534 397.989 412.978 397.433 412.283 397.433C411.588 397.433 411.031 397.989 411.031 398.684C411.031 399.379 411.588 399.935 412.283 399.935C412.978 399.935 413.534 399.379 413.534 398.684Z"/>
</mask>
<path d="M410.8 398.684C410.8 397.85 411.449 397.201 412.283 397.201C413.117 397.201 413.766 397.85 413.766 398.684C413.766 399.518 413.117 400.167 412.283 400.167C411.449 400.167 410.8 399.472 410.8 398.684ZM413.534 398.684C413.534 397.989 412.978 397.433 412.283 397.433C411.588 397.433 411.031 397.989 411.031 398.684C411.031 399.379 411.588 399.935 412.283 399.935C412.978 399.935 413.534 399.379 413.534 398.684Z" fill="#22BBDD"/>
<path d="M411.8 398.684C411.8 398.402 412.001 398.201 412.283 398.201L412.283 396.201C410.896 396.201 409.8 397.297 409.8 398.684L411.8 398.684ZM412.283 398.201C412.565 398.201 412.766 398.402 412.766 398.684L414.766 398.684C414.766 397.297 413.669 396.201 412.283 396.201L412.283 398.201ZM412.766 398.684C412.766 398.966 412.565 399.167 412.283 399.167L412.283 401.167C413.669 401.167 414.766 400.07 414.766 398.684L412.766 398.684ZM412.283 399.167C412.021 399.167 411.8 398.94 411.8 398.684L409.8 398.684C409.8 400.004 410.876 401.167 412.283 401.167L412.283 399.167ZM414.534 398.684C414.534 397.436 413.53 396.433 412.283 396.433L412.283 398.433C412.426 398.433 412.534 398.541 412.534 398.684L414.534 398.684ZM412.283 396.433C411.035 396.433 410.031 397.436 410.031 398.684L412.031 398.684C412.031 398.541 412.14 398.433 412.283 398.433L412.283 396.433ZM410.031 398.684C410.031 399.931 411.035 400.935 412.283 400.935L412.283 398.935C412.14 398.935 412.031 398.827 412.031 398.684L410.031 398.684ZM412.283 400.935C413.53 400.935 414.534 399.931 414.534 398.684L412.534 398.684C412.534 398.827 412.426 398.935 412.283 398.935L412.283 400.935Z" fill="#22BBDD" mask="url(#path-73-inside-2)"/>
<path d="M405.516 402.531C405.516 403.299 406.139 403.921 406.906 403.921C407.674 403.921 408.297 403.299 408.297 402.531C408.297 401.763 407.674 401.14 406.906 401.14C406.139 401.14 405.516 401.763 405.516 402.531Z" fill="#22BBDD"/>
<path d="M410.892 398.777L410.892 398.545L341.185 398.545L341.185 398.777L410.892 398.777Z" fill="#22BBDD"/>
<path d="M406.906 402.624L406.906 402.392L343.873 402.392L343.873 402.624L406.906 402.624Z" fill="#22BBDD"/>
<path d="M466.232 379.82L466.232 379.589L405.979 379.589L405.979 379.82L466.232 379.82Z" fill="#22BBDD"/>
<path d="M472.257 371.663L472.257 371.431L431.842 371.431L431.842 371.663L472.257 371.663Z" fill="#22BBDD"/>
<mask id="path-80-inside-3" fill="white">
<path d="M360.419 437.014C360.419 436.18 361.068 435.531 361.902 435.531C362.737 435.531 363.385 436.18 363.385 437.014C363.385 437.848 362.737 438.497 361.902 438.497C361.068 438.497 360.419 437.848 360.419 437.014ZM363.2 437.014C363.2 436.319 362.644 435.762 361.949 435.762C361.253 435.762 360.697 436.319 360.697 437.014C360.697 437.709 361.253 438.265 361.949 438.265C362.644 438.265 363.2 437.709 363.2 437.014Z"/>
</mask>
<path d="M360.419 437.014C360.419 436.18 361.068 435.531 361.902 435.531C362.737 435.531 363.385 436.18 363.385 437.014C363.385 437.848 362.737 438.497 361.902 438.497C361.068 438.497 360.419 437.848 360.419 437.014ZM363.2 437.014C363.2 436.319 362.644 435.762 361.949 435.762C361.253 435.762 360.697 436.319 360.697 437.014C360.697 437.709 361.253 438.265 361.949 438.265C362.644 438.265 363.2 437.709 363.2 437.014Z" fill="#22BBDD"/>
<path d="M361.419 437.014C361.419 436.732 361.62 436.531 361.902 436.531L361.902 434.531C360.516 434.531 359.419 435.627 359.419 437.014L361.419 437.014ZM361.902 436.531C362.184 436.531 362.385 436.732 362.385 437.014L364.385 437.014C364.385 435.627 363.289 434.531 361.902 434.531L361.902 436.531ZM362.385 437.014C362.385 437.296 362.184 437.497 361.902 437.497L361.902 439.497C363.289 439.497 364.385 438.4 364.385 437.014L362.385 437.014ZM361.902 437.497C361.62 437.497 361.419 437.296 361.419 437.014L359.419 437.014C359.419 438.4 360.516 439.497 361.902 439.497L361.902 437.497ZM364.2 437.014C364.2 435.766 363.196 434.762 361.949 434.762L361.949 436.762C362.092 436.762 362.2 436.871 362.2 437.014L364.2 437.014ZM361.949 434.762C360.701 434.762 359.697 435.766 359.697 437.014L361.697 437.014C361.697 436.871 361.806 436.762 361.949 436.762L361.949 434.762ZM359.697 437.014C359.697 438.261 360.701 439.265 361.949 439.265L361.949 437.265C361.806 437.265 361.697 437.157 361.697 437.014L359.697 437.014ZM361.949 439.265C363.196 439.265 364.2 438.261 364.2 437.014L362.2 437.014C362.2 437.157 362.092 437.265 361.949 437.265L361.949 439.265Z" fill="#22BBDD" mask="url(#path-80-inside-3)"/>
<path d="M406.165 352.846C406.165 352.012 406.814 351.363 407.648 351.363C408.482 351.363 409.131 352.012 409.131 352.846C409.131 353.68 408.482 354.329 407.648 354.329C406.814 354.329 406.165 353.68 406.165 352.846ZM408.946 352.846C408.946 352.151 408.39 351.594 407.694 351.594C406.999 351.594 406.443 352.151 406.443 352.846C406.443 353.541 406.999 354.097 407.694 354.097C408.39 354.097 408.946 353.541 408.946 352.846Z" fill="#22BBDD"/>
<path d="M402.967 353.736C402.475 353.736 402.076 353.338 402.076 352.846C402.076 352.354 402.475 351.955 402.967 351.955C403.459 351.955 403.857 352.354 403.857 352.846C403.857 353.338 403.459 353.736 402.967 353.736Z" fill="#22BBDD" stroke="#22BBDD"/>
<path d="M310.039 342.139L310.039 341.908L311.476 341.908L321.209 351.641L389.619 351.641L389.619 351.873L321.116 351.873L311.383 342.139L310.039 342.139Z" fill="#22BBDD"/>
<path d="M310.039 358.825L310.039 358.593L330.664 358.593L349.481 374.351L391.148 374.351L391.148 374.583L349.435 374.583L349.389 374.537L330.571 358.825L310.039 358.825Z" fill="#22BBDD"/>
<path d="M375.112 366.704L375.112 366.472L340.026 366.472L340.026 366.704L375.112 366.704Z" fill="#22BBDD"/>
<path d="M363.663 358.825L363.663 358.593L330.617 358.593L330.617 358.825L363.663 358.825Z" fill="#22BBDD"/>
<path d="M285.614 341.954L304.894 312.152L350.594 312.152L350.594 312.384L305.034 312.384L285.845 342.093L285.614 341.954Z" fill="#22BBDD"/>
<path d="M362.181 324.203L362.181 323.971L287.56 323.971L287.56 324.203L362.181 324.203Z" fill="#22BBDD"/>
<path d="M330.154 326.427L330.293 326.288L348.647 343.252L356.619 343.252L356.619 343.483L348.554 343.483L348.508 343.437L330.154 326.427Z" fill="#22BBDD"/>
<path d="M325.519 326.427L325.658 326.288L345.727 345.106L345.588 345.291L325.519 326.427Z" fill="#22BBDD"/>
<path d="M316.759 324.017L326.446 312.199L326.585 312.338L316.945 324.156L316.759 324.017Z" fill="#22BBDD"/>
<path d="M323.99 374.212L324.036 362.672L326.168 358.639L326.354 358.732L324.222 362.764L324.222 374.212L323.99 374.212Z" fill="#22BBDD"/>
<path d="M319.03 374.212L319.03 362.301L320.792 358.778L321.023 358.871L319.262 362.394L319.262 374.212L319.03 374.212Z" fill="#22BBDD"/>
<mask id="path-95-inside-4" fill="white">
<path d="M322.599 375.464C322.599 374.629 323.248 373.98 324.082 373.98C324.917 373.98 325.566 374.629 325.566 375.464C325.566 376.298 324.917 376.947 324.082 376.947C323.248 376.947 322.599 376.298 322.599 375.464ZM325.38 375.464C325.38 374.768 324.824 374.212 324.129 374.212C323.434 374.212 322.877 374.768 322.877 375.464C322.877 376.159 323.434 376.715 324.129 376.715C324.824 376.715 325.38 376.159 325.38 375.464Z"/>
</mask>
<path d="M322.599 375.464C322.599 374.629 323.248 373.98 324.082 373.98C324.917 373.98 325.566 374.629 325.566 375.464C325.566 376.298 324.917 376.947 324.082 376.947C323.248 376.947 322.599 376.298 322.599 375.464ZM325.38 375.464C325.38 374.768 324.824 374.212 324.129 374.212C323.434 374.212 322.877 374.768 322.877 375.464C322.877 376.159 323.434 376.715 324.129 376.715C324.824 376.715 325.38 376.159 325.38 375.464Z" fill="#22BBDD"/>
<path d="M323.599 375.464C323.599 375.182 323.8 374.98 324.082 374.98L324.082 372.98C322.696 372.98 321.599 374.077 321.599 375.464L323.599 375.464ZM324.082 374.98C324.364 374.98 324.566 375.182 324.566 375.464L326.566 375.464C326.566 374.077 325.469 372.98 324.082 372.98L324.082 374.98ZM324.566 375.464C324.566 375.746 324.364 375.947 324.082 375.947L324.082 377.947C325.469 377.947 326.566 376.85 326.566 375.464L324.566 375.464ZM324.082 375.947C323.8 375.947 323.599 375.746 323.599 375.464L321.599 375.464C321.599 376.85 322.696 377.947 324.082 377.947L324.082 375.947ZM326.38 375.464C326.38 374.216 325.376 373.212 324.129 373.212L324.129 375.212C324.272 375.212 324.38 375.321 324.38 375.464L326.38 375.464ZM324.129 373.212C322.881 373.212 321.877 374.216 321.877 375.464L323.877 375.464C323.877 375.321 323.986 375.212 324.129 375.212L324.129 373.212ZM321.877 375.464C321.877 376.711 322.881 377.715 324.129 377.715L324.129 375.715C323.986 375.715 323.877 375.607 323.877 375.464L321.877 375.464ZM324.129 377.715C325.376 377.715 326.38 376.711 326.38 375.464L324.38 375.464C324.38 375.607 324.272 375.715 324.129 375.715L324.129 377.715Z" fill="#22BBDD" mask="url(#path-95-inside-4)"/>
<path d="M361.717 324.11C361.717 324.878 362.34 325.5 363.108 325.5C363.876 325.5 364.498 324.878 364.498 324.11C364.498 323.342 363.876 322.72 363.108 322.72C362.34 322.72 361.717 323.342 361.717 324.11Z" fill="#22BBDD"/>
<path d="M346.376 326.474L346.376 326.242L286.124 326.242L286.124 326.474L346.376 326.474Z" fill="#22BBDD"/>
<path d="M390.824 353.505C389.82 353.505 389.006 352.691 389.006 351.687C389.006 350.683 389.82 349.87 390.824 349.87C391.827 349.87 392.641 350.683 392.641 351.687C392.641 352.691 391.827 353.505 390.824 353.505Z" fill="#22BBDD" stroke="#22BBDD"/>
<path d="M375.529 367.872C374.781 367.872 374.175 367.266 374.175 366.518C374.175 365.771 374.781 365.164 375.529 365.164C376.277 365.164 376.883 365.771 376.883 366.518C376.883 367.266 376.277 367.872 375.529 367.872Z" fill="#22BBDD" stroke="#22BBDD"/>
<path d="M357.685 344.235C357.193 344.235 356.794 343.836 356.794 343.344C356.794 342.853 357.193 342.454 357.685 342.454C358.177 342.454 358.575 342.853 358.575 343.344C358.575 343.836 358.177 344.235 357.685 344.235Z" fill="#22BBDD" stroke="#22BBDD"/>
<path d="M345.171 345.847C345.171 346.615 345.794 347.238 346.561 347.238C347.329 347.238 347.952 346.615 347.952 345.847C347.952 345.079 347.329 344.457 346.561 344.457C345.794 344.457 345.171 345.079 345.171 345.847Z" fill="#22BBDD"/>
<mask id="path-103-inside-5" fill="white">
<path d="M317.779 375.464C317.779 374.629 318.428 373.98 319.262 373.98C320.097 373.98 320.745 374.629 320.745 375.464C320.745 376.298 320.097 376.947 319.262 376.947C318.428 376.947 317.779 376.298 317.779 375.464ZM320.56 375.464C320.56 374.768 320.004 374.212 319.309 374.212C318.613 374.212 318.057 374.768 318.057 375.464C318.057 376.159 318.613 376.715 319.309 376.715C320.004 376.715 320.56 376.159 320.56 375.464Z"/>
</mask>
<path d="M317.779 375.464C317.779 374.629 318.428 373.98 319.262 373.98C320.097 373.98 320.745 374.629 320.745 375.464C320.745 376.298 320.097 376.947 319.262 376.947C318.428 376.947 317.779 376.298 317.779 375.464ZM320.56 375.464C320.56 374.768 320.004 374.212 319.309 374.212C318.613 374.212 318.057 374.768 318.057 375.464C318.057 376.159 318.613 376.715 319.309 376.715C320.004 376.715 320.56 376.159 320.56 375.464Z" fill="#22BBDD"/>
<path d="M318.779 375.464C318.779 375.182 318.98 374.98 319.262 374.98L319.262 372.98C317.876 372.98 316.779 374.077 316.779 375.464L318.779 375.464ZM319.262 374.98C319.544 374.98 319.745 375.182 319.745 375.464L321.745 375.464C321.745 374.077 320.649 372.98 319.262 372.98L319.262 374.98ZM319.745 375.464C319.745 375.746 319.544 375.947 319.262 375.947L319.262 377.947C320.649 377.947 321.745 376.85 321.745 375.464L319.745 375.464ZM319.262 375.947C318.98 375.947 318.779 375.746 318.779 375.464L316.779 375.464C316.779 376.85 317.876 377.947 319.262 377.947L319.262 375.947ZM321.56 375.464C321.56 374.216 320.556 373.212 319.309 373.212L319.309 375.212C319.452 375.212 319.56 375.321 319.56 375.464L321.56 375.464ZM319.309 373.212C318.061 373.212 317.057 374.216 317.057 375.464L319.057 375.464C319.057 375.321 319.166 375.212 319.309 375.212L319.309 373.212ZM317.057 375.464C317.057 376.711 318.061 377.715 319.309 377.715L319.309 375.715C319.166 375.715 319.057 375.607 319.057 375.464L317.057 375.464ZM319.309 377.715C320.556 377.715 321.56 376.711 321.56 375.464L319.56 375.464C319.56 375.607 319.452 375.715 319.309 375.715L319.309 377.715Z" fill="#22BBDD" mask="url(#path-103-inside-5)"/>
<path d="M394.485 441.139L407.138 418.753L407.324 418.892L394.671 441.231L394.485 441.139Z" fill="#22BBDD"/>
<path d="M390.036 441.139L402.642 418.753L402.874 418.892L390.221 441.231L390.036 441.139Z" fill="#22BBDD"/>
<mask id="path-107-inside-6" fill="white">
<path d="M406.443 417.826C406.443 416.991 407.092 416.343 407.926 416.343C408.76 416.343 409.409 416.991 409.409 417.826C409.409 418.66 408.76 419.309 407.926 419.309C407.092 419.309 406.443 418.66 406.443 417.826ZM409.224 417.826C409.224 417.13 408.668 416.574 407.972 416.574C407.277 416.574 406.721 417.13 406.721 417.826C406.721 418.521 407.277 419.077 407.972 419.077C408.668 419.077 409.224 418.521 409.224 417.826Z"/>
</mask>
<path d="M406.443 417.826C406.443 416.991 407.092 416.343 407.926 416.343C408.76 416.343 409.409 416.991 409.409 417.826C409.409 418.66 408.76 419.309 407.926 419.309C407.092 419.309 406.443 418.66 406.443 417.826ZM409.224 417.826C409.224 417.13 408.668 416.574 407.972 416.574C407.277 416.574 406.721 417.13 406.721 417.826C406.721 418.521 407.277 419.077 407.972 419.077C408.668 419.077 409.224 418.521 409.224 417.826Z" fill="#22BBDD"/>
<path d="M407.443 417.826C407.443 417.544 407.644 417.343 407.926 417.343L407.926 415.343C406.539 415.343 405.443 416.439 405.443 417.826L407.443 417.826ZM407.926 417.343C408.208 417.343 408.409 417.544 408.409 417.826L410.409 417.826C410.409 416.439 409.313 415.343 407.926 415.343L407.926 417.343ZM408.409 417.826C408.409 418.108 408.208 418.309 407.926 418.309L407.926 420.309C409.313 420.309 410.409 419.212 410.409 417.826L408.409 417.826ZM407.926 418.309C407.644 418.309 407.443 418.108 407.443 417.826L405.443 417.826C405.443 419.212 406.539 420.309 407.926 420.309L407.926 418.309ZM410.224 417.826C410.224 416.578 409.22 415.574 407.972 415.574L407.972 417.574C408.115 417.574 408.224 417.683 408.224 417.826L410.224 417.826ZM407.972 415.574C406.725 415.574 405.721 416.578 405.721 417.826L407.721 417.826C407.721 417.683 407.829 417.574 407.972 417.574L407.972 415.574ZM405.721 417.826C405.721 419.073 406.725 420.077 407.972 420.077L407.972 418.077C407.829 418.077 407.721 417.969 407.721 417.826L405.721 417.826ZM407.972 420.077C409.22 420.077 410.224 419.073 410.224 417.826L408.224 417.826C408.224 417.969 408.115 418.077 407.972 418.077L407.972 420.077Z" fill="#22BBDD" mask="url(#path-107-inside-6)"/>
<path d="M403.245 418.716C402.753 418.716 402.354 418.317 402.354 417.826C402.354 417.334 402.753 416.935 403.245 416.935C403.737 416.935 404.135 417.334 404.135 417.826C404.135 418.317 403.737 418.716 403.245 418.716Z" fill="#22BBDD" stroke="#22BBDD"/>
<path d="M346.237 326.335C346.237 325.5 346.886 324.852 347.72 324.852C348.554 324.852 349.203 325.5 349.203 326.335C349.203 327.169 348.554 327.818 347.72 327.818C346.886 327.818 346.237 327.169 346.237 326.335ZM349.018 326.335C349.018 325.639 348.462 325.083 347.766 325.083C347.071 325.083 346.515 325.639 346.515 326.335C346.515 327.03 347.071 327.586 347.766 327.586C348.462 327.586 349.018 327.076 349.018 326.335Z" fill="#22BBDD"/>
<path d="M363.015 328.894C360.278 328.894 358.092 326.708 358.092 323.971C358.092 321.235 360.278 319.048 363.015 319.048C365.751 319.048 367.938 321.235 367.938 323.971C367.938 326.705 365.708 328.894 363.015 328.894Z" fill="#22BBDD" stroke="#22BBDD"/>
<path d="M346.422 350.492C343.686 350.492 341.499 348.306 341.499 345.569C341.499 342.833 343.686 340.646 346.422 340.646C349.159 340.646 351.345 342.833 351.345 345.569C351.345 348.306 349.159 350.492 346.422 350.492Z" fill="#22BBDD" stroke="#22BBDD"/>
<path d="M410.161 377.688L410.16 377.688L410.161 377.701C410.199 379.169 408.955 380.433 407.416 380.433C405.885 380.433 404.672 379.22 404.672 377.688C404.672 376.157 405.885 374.944 407.416 374.944C408.948 374.944 410.161 376.157 410.161 377.688Z" fill="#22BBDD" stroke="#22BBDD"/>
<path d="M345.82 407.685C344.288 407.685 343.075 406.472 343.075 404.941C343.075 403.409 344.288 402.197 345.82 402.197C347.351 402.197 348.564 403.409 348.564 404.941C348.564 406.426 347.305 407.685 345.82 407.685Z" fill="#22BBDD" stroke="#22BBDD"/>
<path d="M409.697 402.716L409.697 402.716L409.697 402.729C409.736 404.197 408.492 405.461 406.953 405.461C405.421 405.461 404.208 404.248 404.208 402.716C404.208 401.185 405.421 399.972 406.953 399.972C408.484 399.972 409.697 401.185 409.697 402.716Z" fill="#22BBDD" stroke="#22BBDD"/>
<path d="M437.172 368.197C435.64 368.197 434.427 366.984 434.427 365.452C434.427 363.921 435.64 362.708 437.172 362.708C438.703 362.708 439.916 363.921 439.916 365.452C439.916 366.984 438.703 368.197 437.172 368.197Z" fill="#22BBDD" stroke="#22BBDD"/>
<path d="M349.064 377.188C347.533 377.188 346.32 375.975 346.32 374.444C346.32 372.912 347.533 371.7 349.064 371.7C350.595 371.7 351.808 372.912 351.808 374.444C351.808 375.934 350.591 377.188 349.064 377.188Z" fill="#22BBDD" stroke="#22BBDD"/>
<path d="M343.744 426.585L343.744 426.585L343.744 426.598C343.783 428.108 342.543 429.33 341 429.33C339.468 429.33 338.255 428.117 338.255 426.585C338.255 425.054 339.468 423.841 341 423.841C342.531 423.841 343.744 425.054 343.744 426.585Z" fill="#22BBDD" stroke="#22BBDD"/>
</g>
</g>
<ellipse cx="77.8948" cy="379.237" rx="70.229" ry="70.229" fill="#141413"/>
<path d="M147.624 379.237C147.624 417.747 116.405 448.966 77.8948 448.966C39.3845 448.966 8.16577 417.747 8.16577 379.237C8.16577 340.726 39.3845 309.508 77.8948 309.508C116.405 309.508 147.624 340.726 147.624 379.237Z" fill="#141413" stroke="#22BBDD"/>
<path d="M77.2518 323.053L97.2472 330.964L116.979 339.509L125.525 359.241L133.435 379.237L125.525 399.232L116.979 418.964L97.2472 427.51L77.2518 435.42L57.2565 427.51L37.5243 418.964L28.9788 399.232L21.0686 379.237L28.9788 359.241L37.5243 339.509L57.2565 330.964L77.2518 323.053Z" fill="white" fill-opacity="0.02"/>
<path d="M62.2553 328.986L72.253 325.031L72.3449 325.263L77.2518 323.322L82.1587 325.263L82.2507 325.031L92.2483 328.986L92.1564 329.218L97.1515 331.195L102.081 333.329L102.18 333.1L112.046 337.373L111.947 337.602L116.789 339.699L118.886 344.541L119.116 344.442L123.388 354.308L123.159 354.408L125.294 359.337L127.27 364.332L127.502 364.24L131.457 374.238L131.225 374.33L133.166 379.237L131.225 384.143L131.457 384.235L127.502 394.233L127.27 394.141L125.294 399.136L123.159 404.066L123.388 404.165L119.116 414.031L118.886 413.932L116.789 418.774L111.947 420.871L112.046 421.101L102.18 425.373L102.081 425.144L97.1515 427.279L92.1564 429.255L92.2483 429.487L82.2507 433.442L82.1587 433.21L77.2518 435.151L72.3449 433.21L72.253 433.442L62.2553 429.487L62.3473 429.255L57.3522 427.279L52.4228 425.144L52.3234 425.373L42.4573 421.101L42.5567 420.871L37.7144 418.774L35.6173 413.932L35.3879 414.031L31.1151 404.165L31.3445 404.066L29.2098 399.136L27.2337 394.141L27.0012 394.233L23.0461 384.235L23.2786 384.143L21.3375 379.237L23.2786 374.33L23.0461 374.238L27.0012 364.24L27.2337 364.332L29.2097 359.337L31.3445 354.408L31.1151 354.308L35.3879 344.442L35.6173 344.541L37.7144 339.699L42.5567 337.602L42.4573 337.373L52.3234 333.1L52.4228 333.329L57.3521 331.195L62.3473 329.218L62.2553 328.986Z" stroke="#22BBDD" stroke-opacity="0.4" stroke-width="0.5" stroke-dasharray="10 10"/>
<path d="M34.9627 408.55L34.7467 408.429L44.444 393.405L33.2825 383.011L33.3545 382.914L47.3245 367.721L47.4205 367.769L111.101 404.763L110.981 404.98L47.3725 368.01L33.6185 382.986L44.7321 393.356L34.9627 408.55Z" fill="#22BBDD"/>
<path d="M126.761 414.831L110.752 404.868L111.112 404.771L127.913 388.55L115.912 361.187L116.129 361.091L128.201 388.599L128.153 388.671L111.304 404.916L126.881 414.614L126.761 414.831Z" fill="#22BBDD"/>
<path d="M67.3466 414.831L67.25 414.807L34.6783 408.671L34.7025 408.43L67.2017 414.542L89.9222 352.366L90.1636 352.439L67.3466 414.831Z" fill="#22BBDD"/>
<path d="M36.3791 358.058L36.2196 358.239L47.2987 368.048L47.4582 367.868L36.3791 358.058Z" fill="#22BBDD"/>
<path d="M116.039 361.439L89.8098 352.588L89.7857 352.564L75.9367 338.396L64.8335 348.522L64.689 348.354L75.9608 338.059L89.9543 352.371L115.942 361.151L126.612 346.478L126.805 346.622L116.039 361.439Z" fill="#22BBDD"/>
<path d="M77.5281 337.805C77.5281 338.389 77.0625 338.854 76.4788 338.854C75.895 338.854 75.4294 338.389 75.4294 337.805C75.4294 337.221 75.895 336.756 76.4788 336.756C77.0625 336.756 77.5281 337.221 77.5281 337.805Z" fill="#252423" stroke="#22BBDD" stroke-width="0.5"/>
<path d="M128.249 346.13C128.249 346.714 127.784 347.179 127.2 347.179C126.616 347.179 126.151 346.714 126.151 346.13C126.151 345.546 126.616 345.081 127.2 345.081C127.781 345.081 128.249 345.567 128.249 346.13Z" fill="#252423" stroke="#22BBDD" stroke-width="0.5"/>
<path d="M34.8915 382.776C34.8915 383.359 34.4259 383.825 33.8422 383.825C33.2584 383.825 32.7928 383.359 32.7928 382.776C32.7928 382.193 33.2562 381.729 33.838 381.726C34.4309 381.748 34.8915 382.222 34.8915 382.776Z" fill="#252423" stroke="#22BBDD" stroke-width="0.5"/>
<path d="M37.2368 408.049C37.2368 408.769 36.6621 409.344 35.9418 409.344C35.2215 409.344 34.6467 408.769 34.6467 408.049C34.6467 407.33 35.2193 406.756 35.9376 406.754C36.667 406.78 37.2368 407.363 37.2368 408.049Z" fill="#252423" stroke="#22BBDD" stroke-width="0.5"/>
<path d="M91.4597 352.073C91.4597 352.657 90.9942 353.123 90.4104 353.123C89.8266 353.123 89.3611 352.657 89.3611 352.073C89.3611 351.49 89.8266 351.024 90.4104 351.024C90.9942 351.024 91.4597 351.49 91.4597 352.073Z" fill="#252423" stroke="#22BBDD" stroke-width="0.5"/>
<path d="M128.346 414.44C128.346 415.024 127.88 415.49 127.296 415.49C126.712 415.49 126.247 415.024 126.247 414.44C126.247 413.858 126.71 413.393 127.292 413.391C127.885 413.413 128.346 413.886 128.346 414.44Z" fill="#252423" stroke="#22BBDD" stroke-width="0.5"/>
<path d="M36.8798 357.721C36.8798 358.305 36.4142 358.77 35.8304 358.77C35.2467 358.77 34.7811 358.305 34.7811 357.721C34.7811 357.139 35.2445 356.674 35.8263 356.672C36.4191 356.693 36.8798 357.167 36.8798 357.721Z" fill="#252423" stroke="#22BBDD" stroke-width="0.5"/>
<path d="M115.965 360.521L94.5065 369.824L94.6022 370.045L116.06 360.741L115.965 360.521Z" fill="#22BBDD"/>
<path d="M65.0168 348.208L64.8123 348.335L73.9933 363.168L74.1979 363.041L65.0168 348.208Z" fill="#22BBDD"/>
<path d="M67.8758 387.67L44.0656 392.66L44.1149 392.895L67.9252 387.906L67.8758 387.67Z" fill="#22BBDD"/>
<path opacity="0.8" d="M115.965 360.521L81.6749 375.388L81.7706 375.608L116.061 360.741L115.965 360.521Z" fill="#22BBDD"/>
<path d="M97.3988 383.868L97.1949 383.995L110.889 405.853L111.093 405.725L97.3988 383.868Z" fill="#22BBDD"/>
<path opacity="0.8" d="M89.9323 371.95L89.7284 372.078L110.889 405.853L111.093 405.725L89.9323 371.95Z" fill="#22BBDD"/>
<path opacity="0.8" d="M65.0168 348.208L64.8123 348.335L86.7564 383.788L86.961 383.662L65.0168 348.208Z" fill="#22BBDD"/>
<path opacity="0.8" d="M96.0592 381.765L44.0656 392.66L44.1149 392.895L96.1086 382L96.0592 381.765Z" fill="#22BBDD"/>
<path d="M67.2665 414.727L43.951 392.831L47.2475 367.904L47.2715 367.88L64.8363 348.173H64.8844L96.7175 343.746L116.159 360.589V360.661L111.13 405.921L111.034 405.945L67.2665 414.727ZM44.2157 392.735L67.3387 414.486L110.89 405.704L115.894 360.685L96.6454 344.011L64.9566 348.39L47.4881 368L44.2157 392.735Z" fill="#22BBDD"/>
<path d="M112.366 410.84C116.245 410.84 119.389 407.695 119.389 403.817C119.389 399.938 116.245 396.794 112.366 396.794C108.488 396.794 105.344 399.938 105.344 403.817C105.344 407.695 108.488 410.84 112.366 410.84Z" fill="#22BBDD"/>
<path d="M117.048 403.803C117.048 405.032 116.584 406.151 115.793 406.997C114.946 407.925 113.718 408.499 112.353 408.499C110.906 408.499 109.595 407.844 108.749 406.806C108.067 405.987 107.684 404.95 107.684 403.831C107.684 401.237 109.787 399.135 112.38 399.135C114.946 399.108 117.048 401.21 117.048 403.803Z" fill="#191918"/>
<path d="M115.878 366.361C118.463 366.361 120.56 364.265 120.56 361.679C120.56 359.094 118.463 356.997 115.878 356.997C113.292 356.997 111.196 359.094 111.196 361.679C111.196 364.265 113.292 366.361 115.878 366.361Z" fill="#22BBDD"/>
<path d="M118.999 361.67C118.999 362.489 118.69 363.236 118.162 363.8C117.598 364.418 116.779 364.801 115.869 364.801C114.904 364.801 114.031 364.364 113.466 363.672C113.011 363.126 112.757 362.435 112.757 361.689C112.757 359.96 114.158 358.558 115.887 358.558C117.598 358.54 118.999 359.941 118.999 361.67Z" fill="#191918"/>
<path d="M80.7634 382.748C84.642 382.748 87.7863 379.604 87.7863 375.725C87.7863 371.847 84.642 368.702 80.7634 368.702C76.8847 368.702 73.7405 371.847 73.7405 375.725C73.7405 379.604 76.8847 382.748 80.7634 382.748Z" fill="#22BBDD"/>
<path d="M85.4454 375.712C85.4454 376.94 84.9813 378.059 84.1896 378.906C83.3433 379.834 82.1148 380.407 80.7498 380.407C79.3029 380.407 77.9925 379.752 77.1462 378.715C76.4637 377.896 76.0815 376.858 76.0815 375.739C76.0815 373.146 78.1836 371.044 80.7771 371.044C83.3433 371.016 85.4454 373.118 85.4454 375.712Z" fill="#191918"/>
<path d="M47.9898 372.214C49.9292 372.214 51.5013 370.642 51.5013 368.702C51.5013 366.763 49.9292 365.191 47.9898 365.191C46.0505 365.191 44.4784 366.763 44.4784 368.702C44.4784 370.642 46.0505 372.214 47.9898 372.214Z" fill="#22BBDD"/>
<path d="M50.3309 368.696C50.3309 369.31 50.0988 369.869 49.703 370.293C49.2798 370.757 48.6656 371.043 47.9831 371.043C47.2596 371.043 46.6044 370.716 46.1813 370.197C45.84 369.788 45.6489 369.269 45.6489 368.709C45.6489 367.412 46.7 366.361 47.9967 366.361C49.2798 366.348 50.3309 367.399 50.3309 368.696Z" fill="#191918"/>
<path d="M67.8881 420.204C71.1203 420.204 73.7405 417.583 73.7405 414.351C73.7405 411.119 71.1203 408.499 67.8881 408.499C64.6559 408.499 62.0356 411.119 62.0356 414.351C62.0356 417.583 64.6559 420.204 67.8881 420.204Z" fill="#22BBDD"/>
<path d="M71.7897 414.34C71.7897 415.364 71.4029 416.296 70.7432 417.002C70.0379 417.775 69.0142 418.253 67.8767 418.253C66.6709 418.253 65.5789 417.707 64.8737 416.842C64.3049 416.16 63.9865 415.295 63.9865 414.363C63.9865 412.201 65.7382 410.45 67.8994 410.45C70.0379 410.427 71.7897 412.179 71.7897 414.34Z" fill="#191918"/>
<ellipse cx="378.066" cy="81.9338" rx="70.229" ry="70.229" transform="rotate(90 378.066 81.9338)" fill="#141413"/>
<path d="M378.066 151.663C339.556 151.663 308.337 120.444 308.337 81.9338C308.337 43.4235 339.556 12.2048 378.066 12.2048C416.576 12.2048 447.795 43.4235 447.795 81.9338C447.795 120.444 416.576 151.663 378.066 151.663Z" fill="#141413" stroke="#22BBDD"/>
<path d="M361.759 82.7082H362.618C363.227 82.7082 363.721 82.2142 363.721 81.6048V81.6048C363.721 80.9954 364.215 80.5014 364.824 80.5014H365.499C366.48 80.5014 367.276 81.2973 367.276 82.2791V83.9341C367.276 84.5435 367.77 85.0375 368.38 85.0375V85.0375C368.989 85.0375 369.483 84.5435 369.483 83.9341V83.8728C369.483 83.2296 370.004 82.7082 370.648 82.7082H371.445" stroke="#22BBDD" stroke-width="0.5"/>
<path d="M323.631 89.8188H324.49C325.099 89.8188 325.593 89.3248 325.593 88.7154V88.7154C325.593 88.1061 326.087 87.6121 326.696 87.6121H327.371C328.352 87.6121 329.148 88.4079 329.148 89.3897V91.0448C329.148 91.6542 329.642 92.1482 330.252 92.1482V92.1482C330.861 92.1482 331.355 91.6542 331.355 91.0448V90.9835C331.355 90.3403 331.877 89.8188 332.52 89.8188H333.317" stroke="#22BBDD" stroke-width="0.5"/>
<path d="M434.215 89.8188H433.357C432.747 89.8188 432.253 89.3248 432.253 88.7154V88.7154C432.253 88.1061 431.759 87.6121 431.15 87.6121H430.475C429.494 87.6121 428.698 88.4079 428.698 89.3897V91.0448C428.698 91.6542 428.204 92.1482 427.594 92.1482V92.1482C426.985 92.1482 426.491 91.6542 426.491 91.0448V90.9835C426.491 90.3403 425.97 89.8188 425.326 89.8188H424.53" stroke="#22BBDD" stroke-width="0.5"/>
<path d="M316.031 82.7711H318.076C318.701 82.7711 319.209 83.2785 319.209 83.9043V83.9043C319.209 84.5302 319.716 85.0375 320.342 85.0375H322.64C323.926 85.0375 324.969 83.9946 324.969 82.7082V82.1666C324.969 81.1792 325.77 80.3788 326.757 80.3788H327.349C328.009 80.3788 328.545 80.9144 328.545 81.575V81.575C328.545 82.2356 329.08 82.7711 329.741 82.7711H331.723" stroke="#22BBDD" stroke-width="0.5"/>
<path d="M441.816 82.7711H439.771C439.145 82.7711 438.637 83.2785 438.637 83.9043V83.9043C438.637 84.5302 438.13 85.0375 437.504 85.0375H435.206C433.92 85.0375 432.877 83.9946 432.877 82.7082V82.1666C432.877 81.1792 432.076 80.3788 431.089 80.3788H430.497C429.837 80.3788 429.301 80.9144 429.301 81.575V81.575C429.301 82.2356 428.766 82.7711 428.105 82.7711H426.123" stroke="#22BBDD" stroke-width="0.5"/>
<path d="M385.666 82.7082H387.628V80.5014H391.183V85.0375H393.39V82.7082H395.351" stroke="#22BBDD" stroke-width="0.5"/>
<circle cx="346.802" cy="82.8308" r="11.1564" fill="#22BBDD"/>
<circle r="11.1564" transform="matrix(-1 0 0 1 411.044 82.8308)" fill="#22BBDD"/>
<circle cx="378.433" cy="82.8308" r="5.51689" fill="white" fill-opacity="0.02"/>
<circle cx="378.433" cy="82.8308" r="5.26689" stroke="#22BBDD" stroke-opacity="0.4" stroke-width="0.5" stroke-dasharray="10 10"/>
<circle cx="346.802" cy="82.8308" r="13.8487" stroke="#22BBDD" stroke-width="0.5"/>
<circle r="13.8487" transform="matrix(-1 0 0 1 411.043 82.8308)" stroke="#22BBDD" stroke-width="0.5"/>
<circle cx="378.433" cy="82.8307" r="6.73806" stroke="#22BBDD" stroke-width="0.5"/>
<circle cx="346.802" cy="82.8308" r="14.5843" stroke="#22BBDD" stroke-width="0.5"/>
<circle r="14.5843" transform="matrix(-1 0 0 1 411.044 82.8308)" stroke="#22BBDD" stroke-width="0.5"/>
<circle cx="378.433" cy="82.8308" r="6.98326" stroke="#22BBDD" stroke-width="0.5"/>
<path d="M359.921 75.9653H361.024C362.31 75.9653 363.353 74.9225 363.353 73.636V73.636C363.353 72.3495 364.396 71.3066 365.683 71.3066H367.828C368.742 71.3066 369.483 72.0476 369.483 72.9617V72.9617C369.483 73.8758 370.224 74.6168 371.138 74.6168H373.774C374.79 74.6168 375.613 75.4401 375.613 76.4557V76.4557" stroke="#22BBDD" stroke-width="0.5"/>
<path d="M397.435 75.9653H396.332C395.045 75.9653 394.003 74.9225 394.003 73.636V73.636C394.003 72.3495 392.96 71.3066 391.673 71.3066H389.528C388.614 71.3066 387.873 72.0476 387.873 72.9617V72.9617C387.873 73.8758 387.132 74.6168 386.218 74.6168H383.582C382.566 74.6168 381.743 75.4401 381.743 76.4557V76.4557" stroke="#22BBDD" stroke-width="0.5"/>
<path d="M359.921 89.5737H361.024C362.31 89.5737 363.353 90.6165 363.353 91.903V91.903C363.353 93.1895 364.396 94.2324 365.683 94.2324H367.828C368.742 94.2324 369.483 93.4914 369.483 92.5773V92.5773C369.483 91.6632 370.224 90.9222 371.138 90.9222H373.774C374.79 90.9222 375.613 90.0989 375.613 89.0833V89.0833" stroke="#22BBDD" stroke-width="0.5"/>
<path d="M397.435 89.5737H396.332C395.045 89.5737 394.003 90.6165 394.003 91.903V91.903C394.003 93.1895 392.96 94.2324 391.673 94.2324H389.528C388.614 94.2324 387.873 93.4914 387.873 92.5773V92.5773C387.873 91.6632 387.132 90.9222 386.218 90.9222H383.582C382.566 90.9222 381.743 90.0989 381.743 89.0833V89.0833" stroke="#22BBDD" stroke-width="0.5"/>
<path d="M339.937 69.958V69.5903C339.937 68.2361 338.839 67.1383 337.485 67.1383V67.1383C336.131 67.1383 335.033 66.0405 335.033 64.6864V62.3113C335.033 60.1021 333.242 58.3113 331.033 58.3113H323.631" stroke="#22BBDD" stroke-width="0.5"/>
<path d="M417.909 69.958V69.5903C417.909 68.2361 419.007 67.1383 420.361 67.1383V67.1383C421.715 67.1383 422.813 66.0405 422.813 64.6864V62.3113C422.813 60.1021 424.604 58.3113 426.813 58.3113H434.215" stroke="#22BBDD" stroke-width="0.5"/>
<path d="M334.175 76.4557V76.1298C334.175 74.8672 333.151 73.8437 331.889 73.8437V73.8437C330.626 73.8437 329.603 72.8202 329.603 71.5577V69.6671C329.603 67.458 327.812 65.6671 325.603 65.6671H318.973" stroke="#22BBDD" stroke-width="0.5"/>
<path d="M423.671 76.4557V76.1298C423.671 74.8672 424.695 73.8437 425.957 73.8437V73.8437C427.22 73.8437 428.243 72.8202 428.243 71.5577V69.6671C428.243 67.458 430.034 65.6671 432.243 65.6671H438.873" stroke="#22BBDD" stroke-width="0.5"/>
<circle cx="359.43" cy="89.4511" r="0.975976" transform="rotate(-90 359.43 89.4511)" fill="#252423" stroke="#22BBDD" stroke-width="0.5"/>
<circle r="0.975976" transform="matrix(-1.19249e-08 -1 -1 1.19249e-08 398.416 89.4511)" fill="#252423" stroke="#22BBDD" stroke-width="0.5"/>
<circle r="0.975976" transform="matrix(-1.19249e-08 -1 -1 1.19249e-08 334.42 89.5736)" fill="#252423" stroke="#22BBDD" stroke-width="0.5"/>
<circle cx="423.426" cy="89.5736" r="0.975976" transform="rotate(-90 423.426 89.5736)" fill="#252423" stroke="#22BBDD" stroke-width="0.5"/>
<circle cx="340.06" cy="70.3258" r="0.975976" fill="#252423" stroke="#22BBDD" stroke-width="0.5"/>
<circle r="0.975976" transform="matrix(-1 0 0 1 417.787 70.3258)" fill="#252423" stroke="#22BBDD" stroke-width="0.5"/>
<circle cx="361.147" cy="82.7082" r="0.975976" transform="rotate(-90 361.147 82.7082)" fill="#252423" stroke="#22BBDD" stroke-width="0.5"/>
<circle r="0.975976" transform="matrix(-1.19249e-08 -1 -1 1.19249e-08 396.7 82.7082)" fill="#252423" stroke="#22BBDD" stroke-width="0.5"/>
<circle r="0.975976" transform="matrix(-1.19249e-08 -1 -1 1.19249e-08 332.704 82.7082)" fill="#252423" stroke="#22BBDD" stroke-width="0.5"/>
<circle cx="425.142" cy="82.7082" r="0.975976" transform="rotate(-90 425.142 82.7082)" fill="#252423" stroke="#22BBDD" stroke-width="0.5"/>
<circle cx="359.43" cy="75.9653" r="0.975976" transform="rotate(-90 359.43 75.9653)" fill="#252423" stroke="#22BBDD" stroke-width="0.5"/>
<circle r="0.975976" transform="matrix(-1.19249e-08 -1 -1 1.19249e-08 398.416 75.9653)" fill="#252423" stroke="#22BBDD" stroke-width="0.5"/>
<circle r="0.975976" transform="matrix(-1.19249e-08 -1 -1 1.19249e-08 334.175 75.8427)" fill="#252423" stroke="#22BBDD" stroke-width="0.5"/>
<circle cx="423.671" cy="75.8427" r="0.975976" transform="rotate(-90 423.671 75.8427)" fill="#252423" stroke="#22BBDD" stroke-width="0.5"/>
<path d="M346.803 67.9965V63.5829C346.803 62.2288 347.9 61.131 349.254 61.131V61.131C350.609 61.131 351.706 60.0332 351.706 58.679V58.679C351.706 57.3249 350.609 56.2271 349.254 56.2271H345.209C343.448 56.2271 342.021 54.8 342.021 53.0396V53.0396" stroke="#22BBDD" stroke-width="0.5"/>
<path d="M411.044 67.9965V63.5829C411.044 62.2288 409.946 61.131 408.592 61.131V61.131C407.238 61.131 406.14 60.0332 406.14 58.679V58.679C406.14 57.3249 407.238 56.2271 408.592 56.2271H412.637C414.398 56.2271 415.825 54.8 415.825 53.0396V53.0396" stroke="#22BBDD" stroke-width="0.5"/>
<path d="M347.048 97.4199V101.833C347.048 103.188 345.95 104.285 344.596 104.285V104.285C343.242 104.285 342.144 105.383 342.144 106.737V106.737C342.144 108.092 343.242 109.189 344.596 109.189H348.642C350.402 109.189 351.829 110.616 351.829 112.377V112.377" stroke="#22BBDD" stroke-width="0.5"/>
<path d="M410.799 97.4199V101.833C410.799 103.188 411.896 104.285 413.25 104.285V104.285C414.605 104.285 415.702 105.383 415.702 106.737V106.737C415.702 108.092 414.605 109.189 413.25 109.189H409.205C407.444 109.189 406.017 110.616 406.017 112.377V112.377" stroke="#22BBDD" stroke-width="0.5"/>
<circle cx="346.925" cy="68.6095" r="0.975976" fill="#252423" stroke="#22BBDD" stroke-width="0.5"/>
<circle r="0.975976" transform="matrix(-1 0 0 1 410.921 68.6095)" fill="#252423" stroke="#22BBDD" stroke-width="0.5"/>
<path d="M358.878 116.055V108.971C358.878 107.6 359.989 106.488 361.361 106.488V106.488C362.732 106.488 363.844 105.376 363.844 104.005V103.071C363.844 101.184 362.314 99.6548 360.427 99.6548H358.036C355.827 99.6548 354.036 97.8639 354.036 95.6548V95.2131" stroke="#22BBDD" stroke-width="0.5"/>
<path d="M398.968 116.055V108.971C398.968 107.6 397.857 106.488 396.485 106.488V106.488C395.114 106.488 394.002 105.376 394.002 104.005V103.071C394.002 101.184 395.532 99.6548 397.419 99.6548H399.81C402.019 99.6548 403.81 97.8639 403.81 95.6548V95.2131" stroke="#22BBDD" stroke-width="0.5"/>
<path d="M353.913 70.2032V67.3377C353.913 65.1286 355.704 63.3377 357.913 63.3377H359.92C361.275 63.3377 362.372 62.24 362.372 60.8858V60.8858C362.372 59.5316 361.275 58.4338 359.92 58.4338H359.614C358.09 58.4338 356.855 57.1988 356.855 55.6754V52.6718" stroke="#22BBDD" stroke-width="0.5"/>
<path d="M403.933 70.2032V67.3377C403.933 65.1286 402.142 63.3377 399.933 63.3377H397.926C396.572 63.3377 395.474 62.24 395.474 60.8858V60.8858C395.474 59.5316 396.572 58.4338 397.926 58.4338H398.232C399.756 58.4338 400.991 57.1988 400.991 55.6754V52.6718" stroke="#22BBDD" stroke-width="0.5"/>
<circle cx="346.925" cy="97.0521" r="0.975976" fill="#252423" stroke="#22BBDD" stroke-width="0.5"/>
<circle r="0.975976" transform="matrix(-1 0 0 1 410.921 97.0521)" fill="#252423" stroke="#22BBDD" stroke-width="0.5"/>
<circle cx="353.791" cy="70.4484" r="0.975976" fill="#252423" stroke="#22BBDD" stroke-width="0.5"/>
<circle r="0.975976" transform="matrix(-1 0 0 1 404.056 70.4484)" fill="#252423" stroke="#22BBDD" stroke-width="0.5"/>
<circle cx="353.791" cy="95.0905" r="0.975976" fill="#252423" stroke="#22BBDD" stroke-width="0.5"/>
<circle r="0.975976" transform="matrix(-1 0 0 1 404.056 95.0905)" fill="#252423" stroke="#22BBDD" stroke-width="0.5"/>
<path d="M339.937 95.2132V98.0786C339.937 100.288 338.146 102.079 335.937 102.079H333.93C332.576 102.079 331.478 103.176 331.478 104.531V104.531C331.478 105.885 332.576 106.983 333.93 106.983H334.236C335.76 106.983 336.995 108.218 336.995 109.741V112.745" stroke="#22BBDD" stroke-width="0.5"/>
<path d="M417.909 95.2132V98.0786C417.909 100.288 419.7 102.079 421.909 102.079H423.916C425.271 102.079 426.368 103.176 426.368 104.531V104.531C426.368 105.885 425.271 106.983 423.916 106.983H423.61C422.087 106.983 420.852 108.218 420.852 109.741V112.745" stroke="#22BBDD" stroke-width="0.5"/>
<circle cx="340.06" cy="95.3358" r="0.975976" fill="#252423" stroke="#22BBDD" stroke-width="0.5"/>
<circle r="0.975976" transform="matrix(-1 0 0 1 417.787 95.3358)" fill="#252423" stroke="#22BBDD" stroke-width="0.5"/>
<path d="M220.822 218.723L220.427 217.584H219.858V219.336H220.252V218.066L220.69 219.336H220.953L221.391 218.066V219.336H221.785V217.584H221.26L220.822 218.723Z" fill="#22BBDD"/>
<path d="M218.282 217.89H218.763V219.336H219.158V217.89H219.639V217.584H218.282V217.89Z" fill="#22BBDD"/>
<path d="M211.055 216.883C207.07 216.883 204.792 219.073 203.917 221.745V219.117L200.763 215V221.788C199.887 219.117 197.61 216.927 193.625 216.927C189.552 216.927 187.274 219.204 186.442 222.007C185.61 219.204 183.289 216.883 179.216 216.883C174.004 216.883 171.683 220.65 171.683 224.416C171.683 225.818 171.99 227.219 172.69 228.401C172.209 228.664 171.639 228.796 170.895 228.796C168.88 228.796 167.917 227.832 167.917 225.905V222.708L171.508 218.328H167.917V215L164.632 219.029V226.037C164.632 226.124 164.632 226.212 164.632 226.299C164.632 226.255 164.632 226.212 164.632 226.212C164.676 228.051 163.449 228.883 161.522 228.883C159.508 228.883 158.544 227.92 158.544 225.993L158.5 218.328H155.216L155.26 226.168C155.26 229.759 157.581 231.905 161.522 231.905C163.493 231.905 165.245 231.292 166.296 230.285C167.391 231.292 168.924 231.818 170.895 231.818C172.515 231.818 173.829 231.423 174.88 230.766C176.019 231.511 177.464 231.949 179.26 231.949C182.982 231.949 185.26 230.022 186.223 227.569V233.088L189.289 237.161V230.46C190.428 231.161 191.873 231.949 193.625 231.949C197.566 231.949 199.887 229.759 200.763 227.088V231.949H203.917V227.044C204.792 229.715 207.07 231.905 211.055 231.905C212.851 231.905 214.296 231.467 215.435 230.723V231.905H218.544L218.588 224.942C218.588 224.766 218.588 224.547 218.588 224.372C218.588 220.693 216.267 216.883 211.055 216.883ZM179.216 228.839C176.632 228.839 175.011 227.088 175.011 224.416C175.011 221.745 176.676 219.993 179.216 219.993C181.756 219.993 183.42 221.745 183.42 224.416C183.42 227.088 181.8 228.839 179.216 228.839ZM193.625 228.839C191.041 228.839 189.42 227.088 189.42 224.416C189.42 221.745 191.084 219.993 193.625 219.993C196.165 219.993 197.829 221.745 197.829 224.416C197.829 227.088 196.165 228.839 193.625 228.839ZM211.055 228.839C208.471 228.839 206.851 227.088 206.851 224.416C206.851 221.745 208.515 219.993 211.055 219.993C213.595 219.993 215.26 221.745 215.26 224.416C215.26 227.088 213.595 228.839 211.055 228.839Z" fill="#22BBDD"/>
<path d="M244.077 218.022C240.355 218.022 237.376 220.737 237.376 224.942C237.376 229.19 240.355 231.949 244.077 231.949C246.617 231.949 248.807 230.679 249.946 228.533L248.72 228.095C247.756 229.671 246.048 230.635 244.077 230.635C241.23 230.635 238.909 228.62 238.69 225.511H250.603C250.647 225.292 250.647 225.117 250.647 224.898C250.647 220.737 247.887 218.022 244.077 218.022ZM238.69 224.372C238.953 221.307 241.23 219.336 244.077 219.336C246.968 219.336 249.026 221.263 249.289 224.372H238.69Z" fill="#22BBDD"/>
<path d="M272.632 218.022C268.909 218.022 265.931 220.737 265.931 224.942C265.931 229.19 268.909 231.949 272.632 231.949C275.172 231.949 277.362 230.679 278.5 228.533L277.274 228.095C276.311 229.671 274.603 230.635 272.632 230.635C269.785 230.635 267.464 228.62 267.245 225.511H279.157C279.201 225.292 279.201 225.117 279.201 224.898C279.201 220.737 276.442 218.022 272.632 218.022ZM267.245 224.328C267.508 221.263 269.785 219.292 272.632 219.292C275.522 219.292 277.581 221.219 277.844 224.328H267.245Z" fill="#22BBDD"/>
<path d="M287.391 224.372L285.464 223.934C284.369 223.671 282.88 223.058 283.143 221.175C283.318 220.036 284.588 219.248 286.077 219.248C287.522 219.248 288.661 220.036 288.924 221.35H290.194C289.931 219.161 288.223 218.022 286.077 218.022C283.975 218.022 282.092 219.204 281.829 221.044C281.522 224.022 283.493 224.854 285.114 225.204L287.041 225.642C288.705 226.036 289.318 227 289.318 228.051C289.318 229.584 288.048 230.635 285.99 230.635C283.625 230.635 282.792 229.277 282.398 228.226H281.216C281.522 230.635 283.712 231.905 285.902 231.905C288.661 231.905 290.588 230.372 290.588 228.095C290.676 226.431 289.8 224.985 287.391 224.372Z" fill="#22BBDD"/>
<path d="M301.581 224.372L299.654 223.934C298.559 223.671 297.07 223.058 297.333 221.175C297.508 220.036 298.778 219.248 300.267 219.248C301.712 219.248 302.851 220.036 303.114 221.35H304.384C304.121 219.161 302.413 218.022 300.267 218.022C298.165 218.022 296.282 219.204 296.019 221.044C295.712 224.022 297.683 224.854 299.304 225.204L301.231 225.642C302.895 226.036 303.508 227 303.508 228.051C303.508 229.584 302.238 230.635 300.179 230.635C297.815 230.635 296.982 229.277 296.588 228.226H295.406C295.712 230.635 297.902 231.905 300.092 231.905C302.851 231.905 304.778 230.372 304.778 228.095C304.866 226.431 304.034 224.985 301.581 224.372Z" fill="#22BBDD"/>
<path d="M234.267 221.219C233.172 219.292 230.982 218.066 228.617 218.066C224.807 218.066 221.741 221.044 221.741 225.029C221.741 229.015 224.807 231.949 228.617 231.949C230.982 231.949 233.26 230.679 234.267 228.708V229.672C234.267 232.912 233.479 234.839 232.121 235.891L233.128 236.898C234.661 235.628 235.581 233.35 235.581 229.672V218.328H234.267V221.219ZM228.617 230.635C225.552 230.635 223.055 228.226 223.055 225.029C223.055 221.832 225.552 219.38 228.617 219.38C231.727 219.38 234.267 221.701 234.267 225.029C234.267 228.358 231.595 230.635 228.617 230.635Z" fill="#22BBDD"/>
<path d="M293.785 218.022H292.428V231.993H293.785V218.022Z" fill="#22BBDD"/>
<path d="M261.683 218.985C260.763 218.328 259.668 217.978 258.398 217.978C258.354 217.978 258.354 217.978 258.311 217.978C258.267 217.978 258.267 217.978 258.223 217.978C256.953 217.978 255.814 218.328 254.938 218.985C254.895 218.985 254.895 219.029 254.851 219.073C254.719 219.161 254.588 219.292 254.457 219.38C254.369 219.423 254.325 219.511 254.281 219.555C254.194 219.642 254.106 219.73 254.019 219.818C253.931 219.905 253.887 219.993 253.843 220.08C253.756 220.168 253.712 220.299 253.625 220.387C253.581 220.474 253.493 220.606 253.449 220.693C253.406 220.737 253.406 220.781 253.362 220.869V220.912C253.318 221.044 253.23 221.131 253.187 221.263C252.88 222.051 252.661 223.015 252.705 224.066V231.949H254.062V224.066C254.062 221.701 255.157 220.08 256.909 219.555C257.391 219.423 257.916 219.336 258.398 219.336C258.924 219.336 259.406 219.423 259.887 219.555C261.595 220.124 262.734 221.745 262.734 224.066V231.949H264.092V224.066C264.092 223.015 263.916 222.051 263.61 221.263C263.041 220.255 262.427 219.511 261.683 218.985Z" fill="#22BBDD"/>
<path d="M191.391 241.015V241.54H189.464V242.898H190.997V243.467H189.464V245.307H188.938V241.058L191.391 241.015Z" fill="#22BBDD"/>
<path d="M198.924 240.971C200.15 240.971 201.07 241.934 201.07 243.161C201.07 244.343 200.106 245.35 198.924 245.35C197.698 245.35 196.778 244.387 196.778 243.161C196.778 241.978 197.741 240.971 198.924 240.971ZM198.924 244.781C199.8 244.781 200.5 244.08 200.5 243.161C200.5 242.241 199.8 241.54 198.924 241.54C198.048 241.54 197.347 242.285 197.347 243.161C197.347 244.08 198.048 244.781 198.924 244.781Z" fill="#22BBDD"/>
<path d="M209.435 243.818V241.015H210.004V243.818C210.004 244.737 209.304 245.35 208.428 245.35C207.595 245.35 206.851 244.737 206.851 243.818V241.015H207.42V243.818C207.42 244.387 207.858 244.781 208.384 244.781C208.909 244.781 209.435 244.431 209.435 243.818Z" fill="#22BBDD"/>
<path d="M218.588 245.307L216.661 242.109V245.307H216.092V241.058H216.661L218.588 244.255V241.058H219.157V245.307H218.588Z" fill="#22BBDD"/>
<path d="M225.245 245.307V241.058H226.909C228.136 241.058 228.836 241.978 228.836 243.204C228.836 244.387 228.136 245.307 226.909 245.307H225.245ZM226.866 244.737C227.741 244.737 228.223 244.036 228.223 243.161C228.223 242.285 227.785 241.54 226.866 241.54H225.771V244.737H226.866Z" fill="#22BBDD"/>
<path d="M235.099 244.212L234.705 245.307H234.048L235.668 241.058H236.282L237.902 245.307H237.289L236.895 244.212H235.099ZM236.676 243.686L235.975 241.803L235.274 243.686H236.676Z" fill="#22BBDD"/>
<path d="M245.96 241.015V241.54H244.69V245.263H244.121V241.54H242.851V241.015C242.851 241.015 245.96 241.015 245.96 241.015Z" fill="#22BBDD"/>
<path d="M252.223 241.015V245.263H251.654V241.015C251.654 241.015 252.223 241.015 252.223 241.015Z" fill="#22BBDD"/>
<path d="M260.194 240.971C261.42 240.971 262.34 241.934 262.34 243.161C262.34 244.343 261.377 245.35 260.194 245.35C258.968 245.35 258.048 244.387 258.048 243.161C258.048 241.978 258.968 240.971 260.194 240.971ZM260.194 244.781C261.07 244.781 261.771 244.08 261.771 243.161C261.771 242.241 261.07 241.54 260.194 241.54C259.318 241.54 258.617 242.285 258.617 243.161C258.617 244.08 259.318 244.781 260.194 244.781Z" fill="#22BBDD"/>
<path d="M270.705 245.307L268.778 242.109V245.307H268.208V241.058H268.778L270.705 244.255V241.058H271.274V245.307H270.705Z" fill="#22BBDD"/>
<defs>
<filter id="filter0_d" x="287.837" y="295.349" width="180.458" height="180.458" filterUnits="userSpaceOnUse" color-interpolation-filters="sRGB">
<feFlood flood-opacity="0" result="BackgroundImageFix"/>
<feColorMatrix in="SourceAlpha" type="matrix" values="0 0 0 0 0 0 0 0 0 0 0 0 0 0 0 0 0 0 127 0"/>
<feOffset dy="4"/>
<feGaussianBlur stdDeviation="10"/>
<feColorMatrix type="matrix" values="0 0 0 0 0 0 0 0 0 0 0 0 0 0 0 0 0 0 0.25 0"/>
<feBlend mode="normal" in2="BackgroundImageFix" result="effect1_dropShadow"/>
<feBlend mode="normal" in="SourceGraphic" in2="effect1_dropShadow" result="shape"/>
</filter>
<linearGradient id="paint0_linear" x1="42.5228" y1="83.31" x2="140.835" y2="114.504" gradientUnits="userSpaceOnUse">
<stop stop-color="#24CBE5"/>
<stop offset="0.9375" stop-color="#22BBDD" stop-opacity="0.1"/>
</linearGradient>
</defs>
</svg>
