<svg width="264" height="182" viewBox="0 0 264 182" fill="none" xmlns="http://www.w3.org/2000/svg">
<path opacity="0.4" d="M132.027 172.443L18.2553 104.931L132.027 37.4201L245.745 104.931L132.027 172.443Z" fill="url(#paint0_linear)" fill-opacity="0.1"/>
<path opacity="0.4" d="M132.032 181.829L0 103.816L132.032 25.8674L264 103.816L132.032 181.829Z" fill="url(#paint1_linear)" fill-opacity="0.2"/>
<path opacity="0.014286" d="M90.8675 83.1687L133.326 58.1731C135.172 57.0657 137.711 57.1448 139.633 58.2522L180.554 82.5359L183.323 84.197L221.474 106.82C225.474 109.193 225.936 115.362 222.013 117.815L179.554 142.81C177.708 143.918 175.17 143.839 173.247 142.731L132.326 118.447L129.557 116.786L91.4059 94.1637C87.3292 91.7907 86.8677 85.5417 90.8675 83.1687Z" fill="#2395AE" fill-opacity="0.3"/>
<path opacity="0.028571" d="M90.7904 83.5641L132.942 58.7267C134.711 57.6193 137.403 57.9357 139.172 58.964L179.785 83.0895L182.554 84.7506L220.397 107.215C224.166 109.43 225.166 115.679 221.397 117.894L179.246 142.81C177.477 143.918 174.785 143.601 173.016 142.573L132.403 118.447L129.634 116.786L91.7903 94.3218C87.9444 92.0279 87.0214 85.858 90.7904 83.5641Z" fill="#2395AE" fill-opacity="0.3"/>
<path opacity="0.042857" d="M90.7906 84.0388L132.634 59.3596C134.326 58.3313 137.095 58.7268 138.787 59.7551L179.169 83.7224L181.938 85.3835L219.551 107.69C223.167 109.825 224.551 115.995 221.013 118.131L179.169 142.81C177.477 143.839 174.708 143.443 173.016 142.415L132.634 118.447L129.865 116.786L92.252 94.48C88.6369 92.3443 87.1754 86.1745 90.7906 84.0388Z" fill="#2395AE" fill-opacity="0.3"/>
<path opacity="0.057143" d="M90.7136 84.4343L132.172 59.9924C133.788 59.0432 136.634 59.5969 138.249 60.5461L178.323 84.3552L181.092 86.0163L218.398 108.164C221.782 110.142 223.628 116.312 220.32 118.368L178.862 142.81C177.246 143.759 174.4 143.206 172.785 142.256L132.711 118.447L129.942 116.786L92.6365 94.6382C89.2521 92.5816 87.3292 86.4909 90.7136 84.4343Z" fill="#2395AE" fill-opacity="0.3"/>
<path opacity="0.071429" d="M90.7135 84.8299L131.865 60.5461C133.326 59.676 136.403 60.3088 137.864 61.258L177.631 84.909L180.323 86.491L217.398 108.481C220.628 110.379 222.936 116.47 219.782 118.447L178.631 142.731C177.169 143.601 174.093 142.968 172.631 142.019L132.865 118.368L130.173 116.786L93.098 94.7965C89.8674 92.8981 87.5599 86.8074 90.7135 84.8299Z" fill="#2395AE" fill-opacity="0.3"/>
<path opacity="0.085714" d="M90.7135 85.3044L131.557 61.1789C132.941 60.3088 136.095 61.1789 137.48 61.9699L176.939 85.3835L179.631 86.9655L216.398 108.797C219.397 110.537 222.166 116.628 219.167 118.447L178.323 142.573C176.939 143.443 173.785 142.573 172.4 141.782L132.941 118.289L130.249 116.707L93.4825 94.8755C90.4827 93.1353 87.7137 87.0446 90.7135 85.3044Z" fill="#2395AE" fill-opacity="0.3"/>
<path opacity="0.1" d="M90.6368 85.7L131.173 61.8117C132.48 61.0207 135.711 61.9699 137.018 62.7609L176.247 86.0164L178.939 87.5984L215.475 109.272C218.244 110.933 221.551 117.024 218.705 118.685L178.17 142.573C176.862 143.364 173.631 142.415 172.324 141.624L133.096 118.368L130.403 116.786L93.9443 95.1129C91.0983 93.4518 87.8678 87.3611 90.6368 85.7Z" fill="#2395AE" fill-opacity="0.3"/>
<path opacity="0.1143" d="M90.6368 86.0954L130.865 62.3653C132.096 61.6534 135.48 62.7608 136.711 63.4727L175.631 86.57L178.323 88.152L214.552 109.667C217.167 111.17 220.859 117.261 218.244 118.843L178.016 142.573C176.785 143.285 173.401 142.177 172.17 141.465L133.249 118.368L130.557 116.786L94.3288 95.271C91.7905 93.689 88.0215 87.6774 90.6368 86.0954Z" fill="#2395AE" fill-opacity="0.3"/>
<path opacity="0.1286" d="M90.6368 86.57L130.557 63.0773C131.711 62.3654 135.172 63.631 136.326 64.3429L174.939 87.2819L177.554 88.8639L213.552 110.221C215.936 111.645 220.09 117.656 217.705 119.08L177.785 142.573C176.631 143.285 173.17 142.019 172.016 141.307L133.403 118.368L130.788 116.786L94.7903 95.4292C92.4059 94.0054 88.2523 87.9938 90.6368 86.57Z" fill="#2395AE" fill-opacity="0.3"/>
<path opacity="0.1429" d="M90.5598 86.9655L130.173 63.631C131.173 62.9982 134.788 64.422 135.865 64.9757L174.17 87.7565L176.785 89.3385L212.475 110.537C214.706 111.803 219.321 117.815 217.09 119.159L177.477 142.494C176.477 143.127 172.862 141.703 171.785 141.149L133.48 118.368L130.865 116.786L95.1749 95.5875C93.0212 94.3219 88.4061 88.3102 90.5598 86.9655Z" fill="#2395AE" fill-opacity="0.3"/>
<path opacity="0.1571" d="M90.5598 87.361L129.865 64.1847C130.788 63.631 134.557 65.1339 135.48 65.6876L173.554 88.3102L176.17 89.8922L211.629 110.933C213.629 112.119 218.705 118.131 216.705 119.317L177.4 142.494C176.477 143.048 172.708 141.545 171.785 140.991L133.711 118.368L131.096 116.786L95.6364 95.7457C93.6366 94.5592 88.56 88.5475 90.5598 87.361Z" fill="#2395AE" fill-opacity="0.3"/>
<path opacity="0.1714" d="M90.483 87.8356L129.404 64.8966C130.25 64.422 134.096 66.0831 134.942 66.5577L172.708 88.943L175.324 90.4459L210.475 111.328C212.244 112.357 217.859 118.368 216.013 119.476L177.093 142.415C176.247 142.889 172.401 141.228 171.555 140.754L133.865 118.368L131.25 116.865L96.098 95.9038C94.252 94.8755 88.7139 88.8639 90.483 87.8356Z" fill="#2395AE" fill-opacity="0.3"/>
<path opacity="0.1857" d="M90.4829 88.2311L129.096 65.4502C129.865 64.9756 133.788 66.7949 134.557 67.2695L172.016 89.4967L174.554 90.9996L209.475 111.724C211.09 112.673 217.09 118.605 215.475 119.555L176.939 142.336C176.17 142.81 172.247 140.991 171.478 140.516L134.019 118.289L131.48 116.786L96.5595 96.062C94.9442 95.1128 88.8677 89.1803 90.4829 88.2311Z" fill="#2395AE" fill-opacity="0.3"/>
<path opacity="0.2" d="M90.4829 88.6267L128.788 66.004C129.48 65.6085 133.557 67.586 134.172 67.9024L171.324 89.9714L173.862 91.4743L208.475 112.04C209.86 112.831 216.398 118.764 214.936 119.634L176.631 142.257C175.939 142.652 171.862 140.675 171.247 140.358L134.095 118.289L131.557 116.786L96.944 96.2203C95.5595 95.4293 89.0984 89.4968 90.4829 88.6267Z" fill="#2395AE" fill-opacity="0.3"/>
<path opacity="0.2143" d="M90.4059 89.1012L128.403 66.7158C128.942 66.3994 133.172 68.456 133.711 68.7724L170.631 90.6832L173.17 92.1861L207.552 112.594C208.783 113.306 215.705 119.238 214.475 119.95L176.477 142.336C175.939 142.652 171.708 140.595 171.17 140.279L134.249 118.368L131.711 116.865L97.3285 96.4575C96.1747 95.6665 89.2521 89.8131 90.4059 89.1012Z" fill="#2395AE" fill-opacity="0.3"/>
<path opacity="0.2286" d="M90.4058 89.4967L128.096 67.2696C128.557 66.9532 132.865 69.168 133.326 69.4844L169.939 91.2369L172.477 92.7398L206.552 112.989C207.552 113.543 214.936 119.476 213.936 120.029L176.246 142.256C175.785 142.573 171.477 140.358 171.016 140.042L134.403 118.289L131.865 116.786L97.79 96.5366C96.79 95.9829 89.4059 90.0504 90.4058 89.4967Z" fill="#2395AE" fill-opacity="0.3"/>
<path opacity="0.2429" d="M90.4061 89.8922L127.788 67.8233C128.173 67.586 132.634 69.959 132.942 70.1963L169.247 91.7906L171.708 93.2935L205.552 113.385C206.322 113.86 214.244 119.713 213.398 120.188L176.016 142.257C175.631 142.494 171.17 140.121 170.862 139.884L134.557 118.289L132.096 116.786L98.2517 96.6948C97.4825 96.2202 89.56 90.3668 90.4061 89.8922Z" fill="#2395AE" fill-opacity="0.3"/>
<path opacity="0.2571" d="M90.329 90.2878L127.403 68.4562C127.711 68.298 132.249 70.7501 132.557 70.9874L168.555 92.3444L171.016 93.7682L204.552 113.701C205.168 114.018 213.475 119.871 212.859 120.267L175.785 142.098C175.477 142.257 170.939 139.805 170.631 139.567L134.634 118.21L132.172 116.786L98.6361 96.8531C98.0977 96.5367 89.7136 90.6833 90.329 90.2878Z" fill="#2395AE" fill-opacity="0.3"/>
<path opacity="0.2714" d="M90.329 90.7623L127.019 69.0889C127.173 69.0098 131.865 71.6201 132.096 71.6992L167.786 92.898L170.247 94.3218L203.552 114.097C203.937 114.334 212.783 120.108 212.321 120.425L175.631 142.098C175.477 142.177 170.785 139.567 170.555 139.488L134.865 118.289L132.403 116.865L99.0977 97.0903C98.7131 96.7739 89.9444 90.9996 90.329 90.7623Z" fill="#2395AE" fill-opacity="0.3"/>
<path opacity="0.2857" d="M90.2522 91.1578L126.634 69.6425C126.711 69.5634 131.48 72.3319 131.634 72.411L167.093 93.4517L169.555 94.8755L202.553 114.492C202.783 114.571 212.013 120.425 211.783 120.504L175.4 142.019C175.324 142.098 170.555 139.33 170.401 139.251L134.942 118.21L132.48 116.786L99.4824 97.1694C99.3285 97.0903 90.0984 91.316 90.2522 91.1578Z" fill="#2395AE" fill-opacity="0.3"/>
<path opacity="0.3" d="M175.17 142.019L132.711 116.786L90.2522 91.5533L126.327 70.2754L168.785 95.5083L211.244 120.741L175.17 142.019Z" fill="#AAECFB" fill-opacity="0.3"/>
<path d="M165.732 89.0047L163.499 98.5202L153.796 92.7954L155.952 83.3572L165.732 89.0047Z" fill="url(#paint2_linear)"/>
<path d="M106.559 42.6695L137.249 60.7834L139.479 50.975L108.943 32.9402L106.559 42.6695Z" fill="#22BBDD" fill-opacity="0.47"/>
<path d="M149.248 112.436L169.862 124.459L172.016 114.65L151.633 102.706L149.248 112.436Z" fill="#FAFCFF" fill-opacity="0.4"/>
<path d="M170.17 125.171L97.5591 82.3777L108.404 32.2282L180.938 75.0214L170.17 125.171ZM98.4052 81.9822L169.631 123.984L180.092 75.4169L108.943 33.4938L98.4052 81.9822Z" fill="#E9EFFF"/>
<path d="M180.097 75.0583L169.523 124.503L170.275 124.673L180.849 75.2282L180.097 75.0583Z" fill="#E9EFFF"/>
<path d="M159.863 118.526L160.786 111.407L169.939 69.0888L169.093 76.2869L159.863 118.526Z" fill="#E9EFFF"/>
<path d="M149.479 112.515L152.017 98.2768L159.786 62.9982L157.325 77.2362L149.479 112.515Z" fill="#E9EFFF"/>
<path d="M139.095 106.424L143.249 85.1462L149.633 56.9866L145.479 78.2645L139.095 106.424Z" fill="#E9EFFF"/>
<path d="M128.711 100.333L134.557 72.0156L139.48 50.9749L133.711 79.2137L128.711 100.333Z" fill="#E9EFFF"/>
<path d="M118.327 94.2427L125.788 58.964L129.327 44.9633L121.943 80.242L118.327 94.2427Z" fill="#E9EFFF"/>
<path d="M107.943 88.152L117.02 45.8334L119.173 38.9517L110.174 81.2703L107.943 88.152Z" fill="#E9EFFF"/>
<path d="M108.231 32.7664L97.5803 82.1084L98.3311 82.2798L108.982 32.9378L108.231 32.7664Z" fill="#E9EFFF"/>
<path d="M98.1398 81.8004L97.7572 82.4866L169.688 124.9L170.071 124.214L98.1398 81.8004Z" fill="#E9EFFF" fill-opacity="0.4"/>
<path d="M157.478 106.582L100.021 72.4902L114.635 80.4002L172.093 114.492L157.478 106.582Z" fill="#E9EFFF" fill-opacity="0.4"/>
<path d="M145.171 88.2311L102.251 62.5236L131.172 79.0555L174.169 104.763L145.171 88.2311Z" fill="#E9EFFF" fill-opacity="0.4"/>
<path d="M132.941 69.8798L104.405 52.4778L147.71 77.6316L176.246 94.9546L132.941 69.8798Z" fill="#E9EFFF" fill-opacity="0.4"/>
<path d="M120.712 51.5286L106.636 42.5112L164.17 76.2079L178.246 85.2253L120.712 51.5286Z" fill="#E9EFFF" fill-opacity="0.4"/>
<path d="M108.853 32.5066L108.471 33.1927L180.268 75.5273L180.651 74.8411L108.853 32.5066Z" fill="#E9EFFF" fill-opacity="0.4"/>
<path d="M193.466 51.5872L175.562 141.843L193.466 125.92L211.37 120.639L193.466 51.5872Z" fill="url(#paint3_linear)"/>
<path d="M211.136 120.904L211.37 120.825L193.193 51.5872L182.583 104.306L211.136 120.904Z" fill="url(#paint4_linear)" fill-opacity="0.4"/>
<path d="M193.817 125.932L180.338 118.016L175.562 141.843L193.509 126.01L193.817 125.932Z" fill="url(#paint5_linear)"/>
<path opacity="0.5" d="M193.466 51.5872L175.562 141.843L193.466 125.92L211.37 120.639L193.466 51.5872ZM193.236 125.447L176.33 140.503L193.543 53.7943L210.833 120.245L193.236 125.447Z" fill="white" fill-opacity="0.4"/>
<path fill-rule="evenodd" clip-rule="evenodd" d="M191.009 52.9028L173.472 132.456L92.7109 84.8508L110.324 5.37628L191.009 52.9028ZM181.631 51.5286L186.169 54.2971L185.553 57.4611L181.015 54.7717L181.631 51.5286ZM174.785 47.4945L170.17 44.8051L169.554 47.9691L174.093 50.6585L174.785 47.4945ZM158.709 38.0816L163.324 40.771L162.632 43.935L158.094 41.2456L158.709 38.0816ZM151.863 33.9684L147.248 31.279L146.633 34.443L151.248 37.2115L151.863 33.9684ZM135.787 24.5555L140.402 27.2449L139.787 30.4089L135.172 27.7195L135.787 24.5555ZM128.942 20.5214L124.327 17.7529L123.711 20.996L128.326 23.6854L128.942 20.5214ZM112.943 11.0293L117.481 13.7187L116.866 16.8827L112.251 14.1933L112.943 11.0293Z" fill="url(#paint6_linear)" fill-opacity="0.4"/>
<path d="M192.168 41.6411C190.938 40.9292 189.322 41.0083 187.63 42.0366C184.554 43.8559 182.169 48.1273 182.169 51.7659C182.169 53.3479 182.631 54.6135 183.554 55.4836C184.169 56.0373 184.861 56.3537 185.707 56.3537L186.092 54.3762C185.553 54.4553 185.169 54.2971 184.861 53.9807C184.4 53.5852 184.169 52.7942 184.169 51.7659C184.169 48.9183 186.246 45.2797 188.63 43.7768C189.63 43.144 190.553 43.0649 191.169 43.3813C191.784 43.7768 192.092 44.6469 192.092 45.8334C192.092 47.1781 191.63 48.681 190.861 50.1048L192.553 51.054C193.476 49.3138 194.014 47.4154 194.014 45.7543C194.091 43.8559 193.399 42.353 192.168 41.6411Z" fill="url(#paint7_linear)"/>
<path d="M180.708 34.8385C179.477 34.1266 177.862 34.2057 176.169 35.234C173.093 37.0533 170.708 41.3247 170.708 44.9633C170.708 46.5453 171.17 47.8109 172.093 48.681C172.708 49.2347 173.4 49.5511 174.246 49.5511L174.631 47.5736C174.093 47.6527 173.708 47.4945 173.4 47.1781C172.939 46.7826 172.708 45.9916 172.708 44.9633C172.708 42.1157 174.785 38.4771 177.169 36.9742C178.169 36.3414 179.092 36.2623 179.708 36.5787C180.323 36.9742 180.631 37.8443 180.631 39.0308C180.631 40.3755 180.169 41.8784 179.4 43.3022L181.092 44.2514C182.015 42.5112 182.554 40.6128 182.554 38.9517C182.63 37.0533 181.938 35.6295 180.708 34.8385Z" fill="url(#paint8_linear)"/>
<path d="M169.247 28.1149C168.016 27.403 166.401 27.4821 164.709 28.5104C161.632 30.3297 159.247 34.6011 159.247 38.2397C159.247 39.8217 159.709 41.0873 160.632 41.9574C161.247 42.5111 161.94 42.8275 162.786 42.8275L163.17 40.85C162.632 40.9291 162.247 40.7709 161.94 40.4545C161.478 40.059 161.247 39.268 161.247 38.2397C161.247 35.3921 163.324 31.7535 165.709 30.2506C166.709 29.6178 167.632 29.5387 168.247 29.8551C168.862 30.2506 169.17 31.1207 169.17 32.3072C169.17 33.6519 168.708 35.1548 167.939 36.5786L169.631 37.5278C170.554 35.7876 171.093 33.8892 171.093 32.2281C171.247 30.3297 170.554 28.8268 169.247 28.1149Z" fill="url(#paint9_linear)"/>
<path d="M157.863 21.3915C156.632 20.6796 155.017 20.7587 153.325 21.787C150.248 23.6063 147.863 27.8777 147.863 31.5163C147.863 33.0983 148.325 34.3639 149.248 35.234C149.863 35.7877 150.556 36.1041 151.402 36.1041L151.786 34.1266C151.248 34.2057 150.863 34.0475 150.556 33.7311C150.094 33.3356 149.863 32.5446 149.863 31.5163C149.863 28.6687 151.94 25.0301 154.325 23.5272C155.324 22.8944 156.247 22.8153 156.863 23.1317C157.478 23.5272 157.786 24.3973 157.786 25.5838C157.786 26.9285 157.324 28.4314 156.555 29.8552L158.247 30.8044C159.17 29.0642 159.709 27.1658 159.709 25.5047C159.786 23.6063 159.093 22.1034 157.863 21.3915Z" fill="url(#paint10_linear)"/>
<path d="M146.402 14.5888C145.172 13.8769 143.556 13.956 141.864 14.9843C138.787 16.8036 136.403 21.075 136.403 24.7136C136.403 26.2956 136.864 27.5612 137.787 28.4313C138.403 28.985 139.095 29.3014 139.941 29.3014L140.326 27.3239C139.787 27.403 139.403 27.2448 139.095 26.9284C138.634 26.5329 138.403 25.7419 138.403 24.7136C138.403 21.866 140.48 18.2274 142.864 16.7245C143.864 16.0917 144.787 16.0126 145.402 16.329C146.018 16.7245 146.325 17.5946 146.325 18.7811C146.325 20.1258 145.864 21.6287 145.095 23.0525L146.787 24.0017C147.71 22.2615 148.248 20.3631 148.248 18.702C148.325 16.8036 147.633 15.3798 146.402 14.5888Z" fill="url(#paint11_linear)"/>
<path d="M134.941 7.8653C133.711 7.15339 132.095 7.23249 130.403 8.2608C127.326 10.0801 124.942 14.3515 124.942 17.9901C124.942 19.5721 125.403 20.8377 126.327 21.7078C126.942 22.2615 127.634 22.5779 128.48 22.5779L128.865 20.6004C128.326 20.6795 127.942 20.5213 127.634 20.2049C127.173 19.8094 126.942 19.0184 126.942 17.9901C126.942 15.1425 129.019 11.5039 131.403 10.001C132.403 9.3682 133.326 9.2891 133.941 9.6055C134.557 10.001 134.864 10.8711 134.864 12.0576C134.864 13.4023 134.403 14.9052 133.634 16.329L135.326 17.2782C136.249 15.538 136.787 13.6396 136.787 11.9785C136.864 10.0801 136.172 8.5772 134.941 7.8653Z" fill="url(#paint12_linear)"/>
<path d="M123.48 1.06274C122.25 0.350844 120.634 0.429944 118.942 1.45825C115.866 3.27755 113.481 7.54896 113.481 11.1876C113.481 12.7696 113.943 14.0352 114.866 14.9053C115.481 15.459 116.173 15.7754 117.019 15.7754L117.404 13.7979C116.865 13.877 116.481 13.7188 116.173 13.4024C115.712 13.0069 115.481 12.2159 115.481 11.1876C115.481 8.33996 117.558 4.70135 119.942 3.19845C120.942 2.56565 121.865 2.48655 122.48 2.80295C123.096 3.19845 123.403 4.06855 123.403 5.25505C123.403 6.59976 122.942 8.10266 122.173 9.52646L123.865 10.4757C124.788 8.73546 125.326 6.83706 125.326 5.17596C125.403 3.27755 124.711 1.85375 123.48 1.06274Z" fill="url(#paint13_linear)"/>
<path d="M183.221 51.9821C183.221 48.5257 185.535 44.5065 188.487 42.8184C190.083 41.8538 191.599 41.7734 192.876 42.4969C192.956 42.5773 193.035 42.5773 193.115 42.6577C192.876 42.3361 192.557 42.095 192.237 41.9342C191.041 41.2108 189.445 41.3715 187.849 42.2557C184.897 43.9438 182.583 48.0434 182.583 51.4195C182.583 52.9468 183.062 54.1525 183.86 54.9563C183.94 55.0367 184.019 55.1171 184.179 55.1975C183.62 54.3937 183.221 53.2683 183.221 51.9821Z" fill="url(#paint14_linear)"/>
<path d="M193.115 46.1502C193.115 44.9757 192.657 44.1145 192.016 43.723C192.016 43.723 191.925 43.723 191.925 43.6447C192.291 44.1145 192.474 44.7409 192.474 45.5238C192.474 46.8548 191.925 48.3424 191.009 49.7517L191.833 50.1432C192.657 48.8122 193.115 47.4029 193.115 46.1502Z" fill="url(#paint15_radial)"/>
<path d="M171.945 45.4837C171.945 42.0272 174.104 38.0081 176.86 36.32C178.349 35.3554 179.764 35.275 180.956 35.9985C181.03 36.0789 181.104 36.0789 181.179 36.1593C180.956 35.8377 180.658 35.5966 180.36 35.4358C179.243 34.7123 177.753 34.8731 176.264 35.7573C173.509 37.4454 171.349 41.5449 171.349 44.921C171.349 46.4483 171.796 47.6541 172.541 48.4579C172.615 48.5383 172.69 48.6187 172.839 48.6991C172.243 47.8952 171.945 46.8503 171.945 45.4837Z" fill="url(#paint16_linear)"/>
<path d="M181.881 39.6517C181.881 38.4773 181.423 37.6161 180.782 37.2246C180.782 37.2246 180.69 37.2246 180.69 37.1463C181.057 37.6161 181.24 38.2424 181.24 39.0254C181.24 40.3564 180.69 41.844 179.775 43.2533L180.599 43.6448C181.423 42.3138 181.881 40.9045 181.881 39.6517Z" fill="url(#paint17_radial)"/>
<path d="M160.711 38.4325C160.711 35.1579 162.87 31.3503 165.626 29.7511C167.115 28.8373 168.53 28.7611 169.722 29.4465C169.796 29.5226 169.87 29.5226 169.945 29.5988C169.721 29.2942 169.424 29.0657 169.126 28.9134C168.009 28.228 166.519 28.3803 165.03 29.218C162.275 30.8172 160.115 34.701 160.115 37.8994C160.115 39.3463 160.562 40.4886 161.307 41.2502C161.381 41.3263 161.456 41.4025 161.604 41.4786C161.083 40.7171 160.711 39.6509 160.711 38.4325Z" fill="url(#paint18_linear)"/>
<path d="M169.945 33.1533C169.945 31.9789 169.64 31.1177 169.212 30.7262C169.212 30.7262 169.151 30.7262 169.151 30.6479C169.395 31.1177 169.518 31.744 169.518 32.527C169.518 33.858 169.151 35.3456 168.541 36.7549L169.09 37.1463C169.64 35.8936 169.945 34.406 169.945 33.1533Z" fill="url(#paint19_radial)"/>
<path d="M148.817 31.7648C148.817 28.3083 151.131 24.2892 154.083 22.6011C155.679 21.6365 157.195 21.5561 158.471 22.2796C158.551 22.36 158.631 22.36 158.711 22.4403C158.471 22.1188 158.152 21.8777 157.833 21.7169C156.636 20.9934 155.041 21.1542 153.445 22.0384C150.493 23.7265 148.179 27.826 148.179 31.2021C148.179 32.7294 148.658 33.9352 149.456 34.739C149.535 34.8194 149.615 34.8998 149.775 34.9802C149.136 34.1763 148.817 33.051 148.817 31.7648Z" fill="url(#paint20_linear)"/>
<path d="M158.711 25.9328C158.711 24.7584 158.253 23.8972 157.612 23.5057C157.612 23.5057 157.52 23.5057 157.52 23.4274C157.887 23.8972 158.07 24.5235 158.07 25.3065C158.07 26.6375 157.52 28.125 156.604 29.5343L157.429 29.9258C158.161 28.6731 158.711 27.1855 158.711 25.9328Z" fill="url(#paint21_radial)"/>
<path d="M137.541 24.7136C137.541 21.439 139.7 17.6314 142.456 16.0322C143.945 15.1184 145.36 15.0422 146.551 15.7276C146.626 15.8037 146.7 15.8037 146.775 15.8799C146.551 15.5753 146.253 15.3468 145.956 15.1945C144.838 14.5091 143.349 14.6614 141.86 15.4991C139.104 17.0983 136.945 20.9821 136.945 24.1805C136.945 25.6274 137.392 26.7697 138.136 27.5312C138.211 27.6074 138.285 27.6836 138.434 27.7597C137.838 26.9982 137.541 25.932 137.541 24.7136Z" fill="url(#paint22_linear)"/>
<path d="M147.477 19.4344C147.477 18.26 147.019 17.3988 146.378 17.0073C146.378 17.0073 146.286 17.0073 146.286 16.929C146.653 17.3988 146.836 18.0251 146.836 18.8081C146.836 20.1391 146.286 21.6267 145.37 23.036L146.195 23.4274C146.927 22.0964 147.477 20.6871 147.477 19.4344Z" fill="url(#paint23_radial)"/>
<path d="M126.307 18.046C126.307 14.5895 128.466 10.5703 131.221 8.88225C132.711 7.91765 134.126 7.83726 135.317 8.56071C135.392 8.6411 135.466 8.64109 135.541 8.72148C135.317 8.39994 135.019 8.15879 134.721 7.99803C133.604 7.27457 132.115 7.43534 130.626 8.31956C127.87 10.0076 125.711 14.1072 125.711 17.4833C125.711 19.0106 126.158 20.2163 126.902 21.0202C126.977 21.1005 127.051 21.1809 127.2 21.2613C126.604 20.4575 126.307 19.4125 126.307 18.046Z" fill="url(#paint24_linear)"/>
<path d="M135.541 12.936C135.541 11.7616 135.235 10.9004 134.808 10.5089C134.808 10.5089 134.747 10.5089 134.747 10.4306C134.991 10.9004 135.113 11.5267 135.113 12.3097C135.113 13.6407 134.747 15.1283 134.136 16.5375L134.686 16.929C135.235 15.598 135.541 14.1887 135.541 12.936Z" fill="url(#paint25_radial)"/>
<path d="M114.413 11.5476C114.413 8.09109 116.727 4.07191 119.679 2.38386C121.275 1.41926 122.791 1.33888 124.067 2.06233C124.147 2.14271 124.227 2.14271 124.307 2.22309C124.067 1.90156 123.748 1.66041 123.429 1.49965C122.232 0.776194 120.636 0.936956 119.041 1.82117C116.089 3.50923 113.775 7.60878 113.775 10.9849C113.775 12.5122 114.253 13.7179 115.051 14.5218C115.131 14.6021 115.211 14.6825 115.37 14.7629C114.812 13.9591 114.413 12.8337 114.413 11.5476Z" fill="url(#paint26_linear)"/>
<path d="M124.307 5.71556C124.307 4.54115 124.001 3.67991 123.574 3.28844C123.574 3.28844 123.513 3.28844 123.513 3.21014C123.757 3.67991 123.879 4.30626 123.879 5.0892C123.879 6.4202 123.513 7.90779 122.902 9.31709L123.452 9.70856C124.001 8.45585 124.307 6.96827 124.307 5.71556Z" fill="url(#paint27_radial)"/>
<path d="M118.173 34.2848L110.712 29.8552C110.174 29.5388 109.482 29.8552 109.405 30.488L109.097 32.07L119.019 37.9234L119.25 36.6578C119.481 35.7086 119.019 34.7594 118.173 34.2848Z" fill="white" fill-opacity="0.5"/>
<path d="M128.403 40.2964L120.942 35.8668C120.404 35.5504 119.712 35.8668 119.635 36.4996L119.327 38.0816L129.249 43.935L129.48 42.6694C129.711 41.7202 129.249 40.771 128.403 40.2964Z" fill="white" fill-opacity="0.5"/>
<path d="M138.634 46.308L131.173 41.8784C130.634 41.562 129.942 41.8784 129.865 42.5112L129.557 44.0932L139.48 49.9466L139.71 48.681C139.941 47.7318 139.48 46.7826 138.634 46.308Z" fill="white" fill-opacity="0.5"/>
<path d="M148.864 52.3197L141.402 47.8901C140.864 47.5737 140.172 47.8901 140.095 48.5229L139.787 50.1049L149.71 55.9583L149.94 54.6927C150.171 53.7435 149.71 52.7943 148.864 52.3197Z" fill="white" fill-opacity="0.5"/>
<path d="M159.093 58.3313L151.632 53.9017C151.094 53.5853 150.402 53.9017 150.325 54.5345L150.017 56.1165L159.94 61.9699L160.17 60.7043C160.401 59.7551 159.94 58.8059 159.093 58.3313Z" fill="white" fill-opacity="0.5"/>
<path d="M169.324 64.3429L161.863 59.9132C161.324 59.5968 160.632 59.9133 160.555 60.5461L160.247 62.1281L170.17 67.9815L170.401 66.7159C170.631 65.8458 170.17 64.8175 169.324 64.3429Z" fill="white" fill-opacity="0.5"/>
<path d="M179.554 70.3545L172.093 65.9249C171.554 65.6085 170.862 65.9249 170.785 66.5577L170.478 68.1397L180.4 73.9931L180.631 72.7275C180.862 71.8574 180.4 70.8291 179.554 70.3545Z" fill="white" fill-opacity="0.5"/>
<path d="M130.405 97.9744C130.405 70.0191 111.22 35.9665 87.5037 21.8738C76.093 15.0863 65.6892 14.2235 58.0262 18.25V18.1925L51.37 21.9889L54.4464 27.4534C52.9921 31.6525 52.209 36.5993 52.209 42.2364C52.209 70.1917 71.3945 104.244 95.1107 118.337C99.977 121.213 104.676 123.054 109.038 123.859L112.171 129.439L116.646 126.965C125.092 122.766 130.405 112.7 130.405 97.9744Z" fill="#1E1D1D"/>
<path d="M130.405 97.9744C130.405 70.0191 111.22 35.9665 87.5037 21.8738C76.093 15.0863 65.6892 14.2235 58.0262 18.25V18.1925L51.37 21.9889L54.4464 27.4534C52.9921 31.6525 52.209 36.5993 52.209 42.2364C52.209 70.1917 71.3945 104.244 95.1107 118.337C99.977 121.213 104.676 123.054 109.038 123.859L112.171 129.439L116.646 126.965C125.092 122.766 130.405 112.7 130.405 97.9744Z" fill="url(#paint28_linear)" fill-opacity="0.2"/>
<path d="M124.42 101.311C124.42 129.266 105.235 140.54 81.5187 126.448C57.8025 112.355 38.617 78.3023 38.617 50.3469C38.617 22.3916 57.8025 11.1175 81.5187 25.2102C105.235 39.3029 124.42 73.3554 124.42 101.311Z" fill="url(#paint29_radial)"/>
<path d="M118.1 97.5718C118.1 121.443 101.711 131.049 81.5188 119.027C61.3265 107.005 44.9377 77.9571 44.9377 54.0858C44.9377 30.2144 61.3265 20.6084 81.5188 32.6303C101.711 44.6523 118.1 73.7005 118.1 97.5718Z" fill="#1E1D1D"/>
<path d="M118.1 97.5718C118.1 121.443 101.711 131.049 81.5188 119.027C61.3265 107.005 44.9377 77.9571 44.9377 54.0858C44.9377 30.2144 61.3265 20.6084 81.5188 32.6303C101.711 44.6523 118.1 73.7005 118.1 97.5718Z" fill="url(#paint30_radial)" fill-opacity="0.2"/>
<path d="M82.917 25.0376C74.359 19.9182 66.3604 18.1925 59.6483 19.2854C66.0807 18.5952 73.52 20.4359 81.5186 25.2101C105.235 39.3028 124.42 73.3554 124.42 101.311C124.42 119.142 116.59 130.186 104.787 132.2C117.373 130.877 125.819 119.66 125.819 101.138C125.819 73.1828 106.633 39.0727 82.917 25.0376Z" fill="#2395AE" fill-opacity="0.6"/>
<path d="M83.0291 118.28C62.8367 106.258 46.4479 77.2094 46.4479 53.3381C46.4479 41.3736 50.5312 33.0331 57.1874 29.1216C49.6921 32.5729 44.9377 41.2586 44.9377 54.0858C44.9377 77.9571 61.3265 107.005 81.5188 119.027C91.587 125.009 100.76 125.642 107.361 121.731C100.872 124.722 92.3701 123.859 83.0291 118.28Z" fill="url(#paint31_linear)"/>
<path d="M82.9232 78.3105C83.6966 77.8455 83.6916 76.357 82.9121 74.9857C82.1325 73.6144 80.8736 72.8797 80.1002 73.3447C79.3268 73.8097 79.3318 75.2982 80.1113 76.6695C80.8909 78.0408 82.1498 78.7755 82.9232 78.3105Z" fill="white"/>
<path d="M82.0781 39.1302C81.7984 38.9577 81.5188 38.44 81.5188 38.0373V36.1391C81.5188 35.7365 81.7425 35.5064 82.0781 35.7365C82.3578 35.909 82.6375 36.4267 82.6375 36.8294V38.7276C82.6375 39.1302 82.3578 39.3028 82.0781 39.1302Z" fill="white"/>
<path d="M82.0781 115.979C81.7984 115.806 81.5188 115.288 81.5188 114.886V112.988C81.5188 112.585 81.7425 112.355 82.0781 112.585C82.3578 112.757 82.6375 113.275 82.6375 113.678V115.576C82.6375 115.979 82.3578 116.151 82.0781 115.979Z" fill="white"/>
<path d="M50.9786 57.3645C50.9786 57.7096 50.7549 57.8822 50.4752 57.7096L48.5175 56.5592C48.2378 56.3866 48.0141 55.984 48.0141 55.6388C48.0141 55.2937 48.2378 55.1211 48.5175 55.2937L50.4752 56.4441C50.7549 56.6167 50.9786 57.0194 50.9786 57.3645Z" fill="white"/>
<path d="M116.086 96.0188C116.086 96.3639 115.862 96.5365 115.583 96.3639L113.625 95.2135C113.345 95.0409 113.122 94.6383 113.122 94.2931C113.122 93.948 113.345 93.7754 113.625 93.948L115.583 95.0984C115.862 95.271 116.086 95.6736 116.086 96.0188Z" fill="white"/>
<path d="M66.5283 34.8161C66.2486 34.8161 65.913 34.5285 65.7452 34.1259L64.8503 31.7675C64.6825 31.3649 64.7943 31.0197 65.074 31.0197C65.3537 31.0197 65.6893 31.3073 65.8571 31.71L66.752 34.0684C66.8639 34.471 66.808 34.8161 66.5283 34.8161Z" fill="white"/>
<path d="M99.0821 120.695C98.8024 120.695 98.4668 120.408 98.299 120.005L97.4041 117.647C97.2363 117.244 97.3481 116.899 97.6278 116.899C97.9075 116.899 98.2431 117.187 98.4109 117.589L99.3059 119.948C99.4177 120.35 99.3618 120.695 99.0821 120.695Z" fill="white"/>
<path d="M55.1177 78.1871C55.2855 78.5898 55.1736 78.9349 54.8939 78.9349L53.3278 79.05C53.0481 79.05 52.7125 78.7624 52.5447 78.3597C52.3769 77.9571 52.4888 77.6119 52.7684 77.6119L54.3346 77.4969C54.6143 77.4969 55.0058 77.7845 55.1177 78.1871Z" fill="white"/>
<path d="M111.556 73.2404C111.723 73.6431 111.612 73.9882 111.332 73.9882L109.766 74.1032C109.486 74.1032 109.151 73.8156 108.983 73.413C108.815 73.0103 108.927 72.6652 109.206 72.6652L110.773 72.5502C111.052 72.5502 111.388 72.8378 111.556 73.2404Z" fill="white"/>
<path d="M55.1176 41.4887C54.9498 41.7187 54.6142 41.6037 54.3345 41.2586L52.7684 39.2453C52.4887 38.9002 52.4327 38.44 52.5446 38.2099C52.7124 37.9799 53.048 38.0949 53.3277 38.44L54.8939 40.4533C55.1735 40.7984 55.2854 41.2586 55.1176 41.4887Z" fill="white"/>
<path d="M111.555 113.39C111.388 113.62 111.052 113.505 110.772 113.16L109.206 111.147C108.926 110.802 108.871 110.342 108.982 110.112C109.15 109.881 109.486 109.996 109.765 110.342L111.332 112.355C111.611 112.757 111.667 113.16 111.555 113.39Z" fill="white"/>
<path d="M66.5284 98.3771C66.808 98.7222 66.864 99.1824 66.7521 99.4125L65.8572 100.735C65.6894 100.966 65.3537 100.851 65.0741 100.505C64.7944 100.16 64.7385 99.7001 64.8503 99.47L65.7453 98.147C65.9131 97.9745 66.2487 98.032 66.5284 98.3771Z" fill="white"/>
<path d="M99.0822 51.1522C99.3619 51.4973 99.4178 51.9575 99.3059 52.1875L98.411 53.5105C98.2432 53.7406 97.9076 53.6256 97.6279 53.2804C97.3482 52.9353 97.2923 52.4752 97.4042 52.2451L98.2991 50.9221C98.4669 50.7495 98.8025 50.8646 99.0822 51.1522Z" fill="white"/>
<path d="M82.4697 77.8996L80.5679 76.7492V44.8824L82.4697 46.0328V77.8996Z" fill="white"/>
<path d="M81.8543 75.4262L81.239 76.289L107.416 109.651L108.032 108.789L81.8543 75.4262Z" fill="white"/>
<path d="M82.5256 76.4616C82.5256 77.0943 82.0781 77.3819 81.5187 77.0368C80.9594 76.6917 80.5119 75.8864 80.5119 75.2536C80.5119 74.6209 80.9594 74.3333 81.5187 74.6784C82.0781 74.966 82.5256 75.7713 82.5256 76.4616Z" fill="url(#paint32_linear)"/>
<path d="M89.2377 72.6076L88.1749 70.7669L83.868 73.2403L84.1476 73.758L57.7466 89.2312L58.25 90.1516L84.651 74.6208L84.9307 75.1385L89.2377 72.6076Z" fill="url(#paint33_linear)"/>
<defs>
<linearGradient id="paint0_linear" x1="18.2553" y1="77.1173" x2="245.743" y2="77.1173" gradientUnits="userSpaceOnUse">
<stop stop-color="#22BBDD"/>
<stop offset="0.2679" stop-color="#22BBDD"/>
<stop offset="0.616" stop-color="#AFF1FF"/>
<stop offset="1" stop-color="#0068E5"/>
</linearGradient>
<linearGradient id="paint1_linear" x1="0" y1="71.7209" x2="263.999" y2="71.7209" gradientUnits="userSpaceOnUse">
<stop stop-color="#22BBDD"/>
<stop offset="0.2679" stop-color="#22BBDD"/>
<stop offset="0.616" stop-color="#AFF1FF"/>
<stop offset="1" stop-color="#0068E5"/>
</linearGradient>
<linearGradient id="paint2_linear" x1="159.764" y1="83.3572" x2="159.764" y2="98.5202" gradientUnits="userSpaceOnUse">
<stop stop-color="#5ADBF8"/>
<stop offset="1" stop-color="#5ADBF8" stop-opacity="0.42"/>
</linearGradient>
<linearGradient id="paint3_linear" x1="193.466" y1="51.5872" x2="193.466" y2="141.843" gradientUnits="userSpaceOnUse">
<stop stop-color="#FAFEFF"/>
<stop offset="1" stop-color="#5ADBF8" stop-opacity="0.42"/>
</linearGradient>
<linearGradient id="paint4_linear" x1="197.006" y1="51.5872" x2="196.499" y2="120.9" gradientUnits="userSpaceOnUse">
<stop stop-color="#22BBDD" stop-opacity="0.57"/>
<stop offset="1" stop-color="#22BBDD" stop-opacity="0"/>
</linearGradient>
<linearGradient id="paint5_linear" x1="184.69" y1="118.016" x2="184.69" y2="141.843" gradientUnits="userSpaceOnUse">
<stop stop-color="#5ADBF8"/>
<stop offset="1" stop-color="#5ADBF8" stop-opacity="0.42"/>
</linearGradient>
<linearGradient id="paint6_linear" x1="141.959" y1="5.37628" x2="141.46" y2="132.455" gradientUnits="userSpaceOnUse">
<stop stop-color="#C9F5FF"/>
<stop offset="1" stop-color="#0ECCF7" stop-opacity="0.66"/>
</linearGradient>
<linearGradient id="paint7_linear" x1="188.095" y1="41.174" x2="188.095" y2="56.3537" gradientUnits="userSpaceOnUse">
<stop stop-color="#DEF9FF"/>
<stop offset="1" stop-color="#62E2FF"/>
</linearGradient>
<linearGradient id="paint8_linear" x1="176.634" y1="34.3715" x2="176.634" y2="49.5511" gradientUnits="userSpaceOnUse">
<stop stop-color="#DEF9FF"/>
<stop offset="1" stop-color="#62E2FF"/>
</linearGradient>
<linearGradient id="paint9_linear" x1="165.181" y1="27.6479" x2="165.181" y2="42.8275" gradientUnits="userSpaceOnUse">
<stop stop-color="#DEF9FF"/>
<stop offset="1" stop-color="#62E2FF"/>
</linearGradient>
<linearGradient id="paint10_linear" x1="153.789" y1="20.9245" x2="153.789" y2="36.1041" gradientUnits="userSpaceOnUse">
<stop stop-color="#DEF9FF"/>
<stop offset="1" stop-color="#62E2FF"/>
</linearGradient>
<linearGradient id="paint11_linear" x1="142.329" y1="14.1218" x2="142.329" y2="29.3014" gradientUnits="userSpaceOnUse">
<stop stop-color="#DEF9FF"/>
<stop offset="1" stop-color="#62E2FF"/>
</linearGradient>
<linearGradient id="paint12_linear" x1="130.868" y1="7.39828" x2="130.868" y2="22.5779" gradientUnits="userSpaceOnUse">
<stop stop-color="#DEF9FF"/>
<stop offset="1" stop-color="#62E2FF"/>
</linearGradient>
<linearGradient id="paint13_linear" x1="119.407" y1="0.595734" x2="119.407" y2="15.7754" gradientUnits="userSpaceOnUse">
<stop stop-color="#DEF9FF"/>
<stop offset="1" stop-color="#62E2FF"/>
</linearGradient>
<linearGradient id="paint14_linear" x1="180.447" y1="46.2077" x2="192.59" y2="46.2077" gradientUnits="userSpaceOnUse">
<stop stop-color="white"/>
<stop offset="0.3253" stop-color="#AFF1FF"/>
<stop offset="1" stop-color="#2395AE"/>
</linearGradient>
<radialGradient id="paint15_radial" cx="0" cy="0" r="1" gradientUnits="userSpaceOnUse" gradientTransform="translate(189.777 46.7262) scale(3.85038 3.29172)">
<stop stop-color="white"/>
<stop offset="0.3253" stop-color="#B7B6B6"/>
<stop offset="1" stop-color="#2395AE"/>
</radialGradient>
<linearGradient id="paint16_linear" x1="169.355" y1="39.7093" x2="180.689" y2="39.7093" gradientUnits="userSpaceOnUse">
<stop stop-color="white"/>
<stop offset="0.3253" stop-color="#AFF1FF"/>
<stop offset="1" stop-color="#2395AE"/>
</linearGradient>
<radialGradient id="paint17_radial" cx="0" cy="0" r="1" gradientUnits="userSpaceOnUse" gradientTransform="translate(178.543 40.2278) scale(3.85038 3.29172)">
<stop stop-color="white"/>
<stop offset="0.3253" stop-color="#B7B6B6"/>
<stop offset="1" stop-color="#2395AE"/>
</radialGradient>
<linearGradient id="paint18_linear" x1="158.121" y1="32.962" x2="169.455" y2="32.962" gradientUnits="userSpaceOnUse">
<stop stop-color="white"/>
<stop offset="0.3253" stop-color="#AFF1FF"/>
<stop offset="1" stop-color="#2395AE"/>
</linearGradient>
<radialGradient id="paint19_radial" cx="0" cy="0" r="1" gradientUnits="userSpaceOnUse" gradientTransform="translate(167.719 33.7293) scale(2.56694 3.29172)">
<stop stop-color="white"/>
<stop offset="0.3253" stop-color="#B7B6B6"/>
<stop offset="1" stop-color="#2395AE"/>
</radialGradient>
<linearGradient id="paint20_linear" x1="146.042" y1="25.9904" x2="158.186" y2="25.9904" gradientUnits="userSpaceOnUse">
<stop stop-color="white"/>
<stop offset="0.3253" stop-color="#AFF1FF"/>
<stop offset="1" stop-color="#2395AE"/>
</linearGradient>
<radialGradient id="paint21_radial" cx="0" cy="0" r="1" gradientUnits="userSpaceOnUse" gradientTransform="translate(155.372 26.5088) scale(3.85038 3.29172)">
<stop stop-color="white"/>
<stop offset="0.3253" stop-color="#B7B6B6"/>
<stop offset="1" stop-color="#2395AE"/>
</radialGradient>
<linearGradient id="paint22_linear" x1="134.951" y1="19.2431" x2="146.284" y2="19.2431" gradientUnits="userSpaceOnUse">
<stop stop-color="white"/>
<stop offset="0.3253" stop-color="#AFF1FF"/>
<stop offset="1" stop-color="#2395AE"/>
</linearGradient>
<radialGradient id="paint23_radial" cx="0" cy="0" r="1" gradientUnits="userSpaceOnUse" gradientTransform="translate(144.138 20.0104) scale(3.85038 3.29172)">
<stop stop-color="white"/>
<stop offset="0.3253" stop-color="#B7B6B6"/>
<stop offset="1" stop-color="#2395AE"/>
</radialGradient>
<linearGradient id="paint24_linear" x1="123.717" y1="12.2715" x2="135.05" y2="12.2715" gradientUnits="userSpaceOnUse">
<stop stop-color="white"/>
<stop offset="0.3253" stop-color="#AFF1FF"/>
<stop offset="1" stop-color="#2395AE"/>
</linearGradient>
<radialGradient id="paint25_radial" cx="0" cy="0" r="1" gradientUnits="userSpaceOnUse" gradientTransform="translate(133.315 13.512) scale(2.56691 3.29172)">
<stop stop-color="white"/>
<stop offset="0.3253" stop-color="#B7B6B6"/>
<stop offset="1" stop-color="#2395AE"/>
</radialGradient>
<linearGradient id="paint26_linear" x1="111.638" y1="5.77315" x2="123.781" y2="5.77315" gradientUnits="userSpaceOnUse">
<stop stop-color="white"/>
<stop offset="0.3253" stop-color="#AFF1FF"/>
<stop offset="1" stop-color="#2395AE"/>
</linearGradient>
<radialGradient id="paint27_radial" cx="0" cy="0" r="1" gradientUnits="userSpaceOnUse" gradientTransform="translate(122.081 6.29157) scale(2.56691 3.29172)">
<stop stop-color="white"/>
<stop offset="0.3253" stop-color="#B7B6B6"/>
<stop offset="1" stop-color="#2395AE"/>
</radialGradient>
<linearGradient id="paint28_linear" x1="90.8877" y1="53.3051" x2="90.8877" y2="135.257" gradientUnits="userSpaceOnUse">
<stop stop-color="#15414B" stop-opacity="0.93"/>
<stop stop-color="#1E1D1D" stop-opacity="0.92"/>
<stop offset="0.996856" stop-color="#494949" stop-opacity="0.87"/>
</linearGradient>
<radialGradient id="paint29_radial" cx="0" cy="0" r="1" gradientUnits="userSpaceOnUse" gradientTransform="translate(81.5128 75.8457) rotate(30.678) scale(49.9189 43.538)">
<stop stop-color="#20AECE"/>
<stop offset="0.515625" stop-color="#2395AE"/>
<stop offset="0.9899" stop-color="#2C2B2B"/>
</radialGradient>
<radialGradient id="paint30_radial" cx="0" cy="0" r="1" gradientUnits="userSpaceOnUse" gradientTransform="translate(81.5138 75.8432) rotate(30.6996) scale(42.574 37.1472)">
<stop stop-color="#2395AE"/>
<stop offset="0.515625" stop-color="#2395AE"/>
<stop offset="0.9899" stop-color="#1E1D1D"/>
</radialGradient>
<linearGradient id="paint31_linear" x1="76.1491" y1="29.1216" x2="76.1491" y2="124.195" gradientUnits="userSpaceOnUse">
<stop stop-color="#5ADBF8"/>
<stop offset="1" stop-color="#5ADBF8" stop-opacity="0.42"/>
</linearGradient>
<linearGradient id="paint32_linear" x1="81.5187" y1="74.5308" x2="81.5187" y2="77.1844" gradientUnits="userSpaceOnUse">
<stop stop-color="#5ADBF8"/>
<stop offset="1" stop-color="#5ADBF8" stop-opacity="0.42"/>
</linearGradient>
<linearGradient id="paint33_linear" x1="73.4921" y1="70.7669" x2="73.4921" y2="90.1516" gradientUnits="userSpaceOnUse">
<stop stop-color="#5ADBF8"/>
<stop offset="1" stop-color="#5ADBF8" stop-opacity="0.42"/>
</linearGradient>
</defs>
</svg>
