<svg width="60" height="60" viewBox="0 0 60 60" fill="none" xmlns="http://www.w3.org/2000/svg">
<rect x="6.5" y="7.5" width="47" height="45" stroke="#22BBDD"/>
<path d="M18.258 35.0663L18.9609 35.3785V34.6094V32.3047V31.9682L18.6492 31.8415L14.8796 30.3093L18.6686 28.5799L18.9609 28.4464V28.125V25.8047V24.9953L18.2372 25.3576L10.3387 29.3107L10.0625 29.4489V29.7578V31.1016V31.4266L10.3596 31.5585L18.258 35.0663ZM30.1316 24.5845L30.3747 23.9141H29.6616H26.9584H26.6079L26.4884 24.2436L22.2306 35.9858L21.9875 36.6562H22.7006H25.4038H25.7543L25.8738 36.3267L30.1316 24.5845ZM37.7697 24.5845L38.0128 23.9141H37.2997H34.5966H34.246L34.1265 24.2436L29.8687 35.9858L29.6256 36.6562H30.3388H33.0419H33.3924L33.5119 36.3267L37.7697 24.5845ZM41.273 31.8415L40.9613 31.9682V32.3047V34.6094V35.3785L41.6642 35.0663L49.5626 31.5585L49.8597 31.4266V31.1016V29.7578V29.4489L49.5835 29.3107L41.685 25.3576L40.9613 24.9953V25.8047V28.125V28.4464L41.2536 28.5799L45.0426 30.3093L41.273 31.8415Z" stroke="#22BBDD"/>
</svg>
