<svg width="429" height="498" viewBox="0 0 429 498" fill="none" xmlns="http://www.w3.org/2000/svg">
<circle cx="32.815" cy="32.8885" r="32.6192" fill="url(#paint0_linear)" fill-opacity="0.22"/>
<circle cx="395.539" cy="65.0512" r="32.6192" fill="url(#paint1_linear)" fill-opacity="0.22"/>
<circle cx="185.176" cy="464.405" r="32.6192" fill="url(#paint2_linear)" fill-opacity="0.22"/>
<path d="M198.434 446.787L175.962 453.423C175.506 453.567 175.108 453.852 174.825 454.237C174.541 454.623 174.389 455.088 174.388 455.566V473.926C173.652 473.748 172.898 473.655 172.141 473.651C168.419 473.651 165.399 475.664 165.399 478.146C165.399 480.628 168.419 482.641 172.141 482.641C175.863 482.641 178.883 480.628 178.883 478.146V461.734L196.862 456.466V469.432C196.126 469.253 195.372 469.16 194.615 469.156C190.893 469.156 187.873 471.169 187.873 473.651C187.873 476.133 190.893 478.146 194.615 478.146C198.337 478.146 201.357 476.134 201.357 473.651V448.928C201.357 448.576 201.273 448.228 201.114 447.913C200.954 447.599 200.722 447.326 200.438 447.117C200.153 446.909 199.823 446.77 199.475 446.713C199.127 446.656 198.771 446.681 198.434 446.787Z" fill="#22BBDD"/>
<path d="M401.785 76.4395C401.785 78.9776 399.213 81.0333 396.043 81.0333C392.873 81.0333 390.301 78.9776 390.301 76.4395C390.301 73.9015 392.873 71.8458 396.043 71.8458C399.213 71.8458 401.785 73.9015 401.785 76.4395Z" fill="#22BBDD"/>
<path fill-rule="evenodd" clip-rule="evenodd" d="M401.785 53.4708V76.4394H399.488V53.4708H401.785Z" fill="#22BBDD"/>
<path d="M399.488 53.0574C399.488 52.5266 399.672 52.0123 400.009 51.6019C400.346 51.1916 400.814 50.9105 401.335 50.8065L408.225 49.4283C408.558 49.3618 408.902 49.3699 409.231 49.4522C409.561 49.5344 409.868 49.6887 410.131 49.904C410.394 50.1193 410.605 50.3902 410.751 50.6972C410.896 51.0042 410.972 51.3396 410.972 51.6793V55.7677L399.488 58.0645V53.0574Z" fill="#22BBDD"/>
<path fill-rule="evenodd" clip-rule="evenodd" d="M374.223 72.9942C374.223 72.6896 374.344 72.3975 374.559 72.1821C374.775 71.9667 375.067 71.8457 375.371 71.8457H383.41C383.715 71.8457 384.007 71.9667 384.222 72.1821C384.438 72.3975 384.559 72.6896 384.559 72.9942C384.559 73.2987 384.438 73.5908 384.222 73.8062C384.007 74.0216 383.715 74.1426 383.41 74.1426H375.371C375.067 74.1426 374.775 74.0216 374.559 73.8062C374.344 73.5908 374.223 73.2987 374.223 72.9942ZM374.223 63.8067C374.223 63.5021 374.344 63.21 374.559 62.9946C374.775 62.7793 375.067 62.6583 375.371 62.6583H392.598C392.902 62.6583 393.194 62.7793 393.41 62.9946C393.625 63.21 393.746 63.5021 393.746 63.8067C393.746 64.1113 393.625 64.4034 393.41 64.6188C393.194 64.8341 392.902 64.9551 392.598 64.9551H375.371C375.067 64.9551 374.775 64.8341 374.559 64.6188C374.344 64.4034 374.223 64.1113 374.223 63.8067ZM374.223 54.6193C374.223 54.3147 374.344 54.0226 374.559 53.8072C374.775 53.5918 375.067 53.4708 375.371 53.4708H392.598C392.902 53.4708 393.194 53.5918 393.41 53.8072C393.625 54.0226 393.746 54.3147 393.746 54.6193C393.746 54.9238 393.625 55.2159 393.41 55.4313C393.194 55.6467 392.902 55.7677 392.598 55.7677H375.371C375.067 55.7677 374.775 55.6467 374.559 55.4313C374.344 55.2159 374.223 54.9238 374.223 54.6193Z" fill="#22BBDD"/>
<path d="M30.6938 49.0206C30.6938 52.5819 27.0842 55.4664 22.6366 55.4664C18.189 55.4664 14.5793 52.5819 14.5793 49.0206C14.5793 45.4593 18.189 42.5748 22.6366 42.5748C27.0842 42.5748 30.6938 45.4593 30.6938 49.0206Z" fill="#22BBDD"/>
<path fill-rule="evenodd" clip-rule="evenodd" d="M30.6938 16.7916V49.0206H27.4709V16.7916H30.6938Z" fill="#22BBDD"/>
<path d="M27.4709 16.2114C27.4714 15.4667 27.7298 14.745 28.2022 14.1692C28.6746 13.5934 29.3318 13.199 30.0622 13.053L39.7308 11.1193C40.1982 11.0259 40.6805 11.0373 41.143 11.1527C41.6054 11.2681 42.0365 11.4847 42.4052 11.7868C42.7739 12.0889 43.0709 12.469 43.275 12.8997C43.4791 13.3304 43.5851 13.8011 43.5854 14.2777V20.0145L27.4709 23.2373V16.2114Z" fill="#22BBDD"/>
<circle cx="341.619" cy="316.619" r="32.6192" fill="url(#paint3_linear)" fill-opacity="0.22"/>
<path d="M334.513 309.556C335.919 309.556 337.292 309.97 338.461 310.746C339.63 311.523 340.54 312.626 341.078 313.916C341.616 315.207 341.757 316.627 341.483 317.997C341.208 319.367 340.532 320.626 339.538 321.614C338.544 322.602 337.278 323.274 335.899 323.547C334.521 323.819 333.092 323.679 331.794 323.145C330.495 322.61 329.386 321.705 328.605 320.543C327.824 319.382 327.407 318.016 327.407 316.619C327.407 314.746 328.156 312.95 329.488 311.625C330.821 310.3 332.628 309.556 334.513 309.556ZM334.513 302.493C331.702 302.493 328.955 303.321 326.617 304.874C324.28 306.426 322.459 308.632 321.383 311.213C320.307 313.795 320.026 316.635 320.574 319.375C321.123 322.116 322.476 324.633 324.464 326.608C326.451 328.584 328.984 329.929 331.74 330.474C334.497 331.019 337.355 330.74 339.952 329.67C342.549 328.601 344.768 326.791 346.33 324.468C347.892 322.144 348.725 319.413 348.725 316.619C348.725 312.873 347.228 309.28 344.563 306.63C341.897 303.981 338.282 302.493 334.513 302.493ZM357.608 316.619C358.662 316.619 359.692 316.93 360.569 317.512C361.445 318.094 362.128 318.922 362.532 319.89C362.935 320.857 363.04 321.923 362.835 322.95C362.629 323.978 362.122 324.922 361.376 325.663C360.631 326.403 359.681 326.908 358.647 327.112C357.614 327.317 356.542 327.212 355.568 326.811C354.594 326.41 353.762 325.731 353.176 324.86C352.591 323.989 352.278 322.964 352.278 321.917C352.278 320.512 352.84 319.164 353.839 318.171C354.839 317.177 356.194 316.619 357.608 316.619Z" fill="#22BBDD"/>
<defs>
<linearGradient id="paint0_linear" x1="-10.9248" y1="16.1027" x2="111.819" y2="53.3179" gradientUnits="userSpaceOnUse">
<stop stop-color="#24CBE5"/>
<stop offset="0.9375" stop-color="#22BBDD" stop-opacity="0.1"/>
</linearGradient>
<linearGradient id="paint1_linear" x1="351.799" y1="48.2654" x2="474.543" y2="85.4806" gradientUnits="userSpaceOnUse">
<stop stop-color="#24CBE5"/>
<stop offset="0.9375" stop-color="#22BBDD" stop-opacity="0.1"/>
</linearGradient>
<linearGradient id="paint2_linear" x1="141.436" y1="447.619" x2="264.18" y2="484.835" gradientUnits="userSpaceOnUse">
<stop stop-color="#24CBE5"/>
<stop offset="0.9375" stop-color="#22BBDD" stop-opacity="0.1"/>
</linearGradient>
<linearGradient id="paint3_linear" x1="297.879" y1="299.833" x2="420.623" y2="337.049" gradientUnits="userSpaceOnUse">
<stop stop-color="#24CBE5"/>
<stop offset="0.9375" stop-color="#22BBDD" stop-opacity="0.1"/>
</linearGradient>
</defs>
</svg>
