<svg width="503" height="503" viewBox="0 0 503 503" fill="none" xmlns="http://www.w3.org/2000/svg">
<mask id="path-1-inside-1" fill="white">
<path fill-rule="evenodd" clip-rule="evenodd" d="M251.45 502.901C390.322 502.901 502.901 390.322 502.901 251.45C502.901 112.578 390.322 0 251.45 0C112.578 0 0 112.578 0 251.45C0 390.322 112.578 502.901 251.45 502.901ZM251.503 303.382C280.213 303.382 303.487 280.108 303.487 251.398C303.487 222.688 280.213 199.414 251.503 199.414C222.793 199.414 199.519 222.688 199.519 251.398C199.519 280.108 222.793 303.382 251.503 303.382Z"/>
</mask>
<path fill-rule="evenodd" clip-rule="evenodd" d="M251.45 502.901C390.322 502.901 502.901 390.322 502.901 251.45C502.901 112.578 390.322 0 251.45 0C112.578 0 0 112.578 0 251.45C0 390.322 112.578 502.901 251.45 502.901ZM251.503 303.382C280.213 303.382 303.487 280.108 303.487 251.398C303.487 222.688 280.213 199.414 251.503 199.414C222.793 199.414 199.519 222.688 199.519 251.398C199.519 280.108 222.793 303.382 251.503 303.382Z" fill="white" fill-opacity="0.02"/>
<path d="M503.401 251.45C503.401 249.792 503.385 248.137 503.353 246.486L502.353 246.505C502.385 248.15 502.401 249.798 502.401 251.45H503.401ZM502.971 236.608C502.779 233.303 502.523 230.015 502.205 226.746L501.21 226.843C501.526 230.099 501.781 233.374 501.972 236.666L502.971 236.608ZM501.053 216.911C500.603 213.632 500.091 210.373 499.516 207.136L498.531 207.311C499.104 210.535 499.614 213.781 500.062 217.047L501.053 216.911ZM497.596 197.433C496.891 194.204 496.124 190.997 495.296 187.816L494.328 188.068C495.152 191.237 495.917 194.43 496.619 197.646L497.596 197.433ZM492.614 178.288C491.655 175.124 490.636 171.985 489.557 168.875L488.612 169.202C489.686 172.301 490.702 175.426 491.657 178.578L492.614 178.288ZM486.131 159.592C484.926 156.516 483.663 153.47 482.342 150.454L481.426 150.855C482.741 153.859 484 156.893 485.2 159.957L486.131 159.592ZM478.195 141.474C476.751 138.503 475.251 135.565 473.695 132.66L472.814 133.132C474.363 136.025 475.857 138.952 477.295 141.911L478.195 141.474ZM468.852 124.03C467.18 121.184 465.453 118.373 463.674 115.599L462.832 116.139C464.605 118.901 466.324 121.701 467.99 124.537L468.852 124.03ZM458.17 107.377C456.281 104.672 454.34 102.005 452.348 99.3781L451.551 99.9822C453.535 102.599 455.468 105.255 457.35 107.95L458.17 107.377ZM446.218 91.6121C444.123 89.0626 441.979 86.5551 439.788 84.0908L439.041 84.7553C441.224 87.2099 443.359 89.7075 445.445 92.2469L446.218 91.6121ZM433.07 76.8268C430.784 74.4495 428.451 72.1169 426.074 69.8306L425.381 70.5514C427.749 72.8287 430.072 75.152 432.349 77.52L433.07 76.8268ZM418.81 63.1126C416.346 60.9213 413.838 58.7775 411.289 56.6829L410.654 57.4555C413.193 59.5419 415.691 61.6772 418.145 63.8599L418.81 63.1126ZM403.523 50.5524C400.896 48.561 398.229 46.62 395.523 44.7307L394.951 45.5506C397.646 47.4324 400.302 49.3658 402.918 51.3493L403.523 50.5524ZM387.302 39.2266C384.528 37.4473 381.717 35.7209 378.87 34.0488L378.364 34.9111C381.199 36.5765 383.999 38.2961 386.762 40.0684L387.302 39.2266ZM370.24 29.2055C367.336 27.65 364.398 26.1497 361.427 24.706L360.99 25.6054C363.949 27.0433 366.876 28.5377 369.768 30.0871L370.24 29.2055ZM352.447 20.5591C349.431 19.2382 346.384 17.9746 343.309 16.7697L342.944 17.7008C346.007 18.9009 349.042 20.1594 352.045 21.4751L352.447 20.5591ZM334.026 13.3438C330.915 12.2651 327.777 11.2457 324.612 10.2869L324.322 11.244C327.474 12.1989 330.6 13.2142 333.698 14.2886L334.026 13.3438ZM315.085 7.60511C311.903 6.77713 308.697 6.00977 305.468 5.30435L305.254 6.28131C308.471 6.98392 311.664 7.74821 314.833 8.57288L315.085 7.60511ZM295.765 3.38457C292.527 2.81011 289.268 2.29748 285.99 1.84795L285.854 2.83868C289.12 3.28643 292.366 3.79702 295.59 4.36919L295.765 3.38457ZM276.155 0.695827C272.885 0.377649 269.598 0.12196 266.293 -0.0700321L266.235 0.928285C269.527 1.11952 272.802 1.3742 276.058 1.69112L276.155 0.695827ZM256.415 -0.45206C254.764 -0.483971 253.109 -0.5 251.45 -0.5V0.5C253.103 0.5 254.751 0.515967 256.396 0.547754L256.415 -0.45206ZM251.45 -0.5C249.792 -0.5 248.137 -0.483972 246.486 -0.452062L246.505 0.547751C248.15 0.515966 249.798 0.5 251.45 0.5V-0.5ZM236.608 -0.0700388C233.303 0.121952 230.015 0.37764 226.746 0.695817L226.843 1.69111C230.099 1.37419 233.374 1.11951 236.666 0.928278L236.608 -0.0700388ZM216.911 1.84794C213.632 2.29747 210.373 2.8101 207.136 3.38456L207.311 4.36918C210.535 3.79701 213.781 3.28642 217.047 2.83867L216.911 1.84794ZM197.433 5.30433C194.204 6.00975 190.997 6.77711 187.816 7.60509L188.068 8.57285C191.237 7.74819 194.43 6.9839 197.646 6.28129L197.433 5.30433ZM178.288 10.2869C175.124 11.2457 171.985 12.2651 168.875 13.3437L169.202 14.2885C172.301 13.2142 175.426 12.1989 178.578 11.2439L178.288 10.2869ZM159.592 16.7696C156.516 17.9745 153.47 19.2381 150.454 20.5591L150.855 21.4751C153.859 20.1594 156.893 18.9008 159.957 17.7007L159.592 16.7696ZM141.474 24.706C138.503 26.1496 135.565 27.6499 132.66 29.2055L133.132 30.087C136.025 28.5376 138.952 27.0433 141.911 25.6054L141.474 24.706ZM124.03 34.0487C121.184 35.7208 118.373 37.4473 115.599 39.2266L116.139 40.0683C118.901 38.296 121.701 36.5765 124.537 34.911L124.03 34.0487ZM107.377 44.7307C104.672 46.6199 102.005 48.561 99.3781 50.5523L99.9822 51.3492C102.599 49.3657 105.255 47.4324 107.95 45.5506L107.377 44.7307ZM91.6121 56.6828C89.0626 58.7775 86.5551 60.9212 84.0908 63.1126L84.7553 63.8598C87.2099 61.6771 89.7075 59.5419 92.2469 57.4555L91.6121 56.6828ZM76.8268 69.8306C74.4495 72.1169 72.1169 74.4494 69.8306 76.8267L70.5514 77.5199C72.8287 75.1519 75.152 72.8286 77.52 70.5513L76.8268 69.8306ZM63.1126 84.0907C60.9213 86.555 58.7775 89.0626 56.6829 91.612L57.4555 92.2468C59.5419 89.7075 61.6772 87.2098 63.8599 84.7552L63.1126 84.0907ZM50.5524 99.378C48.561 102.005 46.62 104.672 44.7307 107.377L45.5506 107.95C47.4324 105.255 49.3658 102.598 51.3493 99.9822L50.5524 99.378ZM39.2266 115.599C37.4473 118.372 35.7209 121.183 34.0488 124.03L34.9111 124.537C36.5765 121.701 38.2961 118.901 40.0683 116.139L39.2266 115.599ZM29.2055 132.66C27.65 135.564 26.1497 138.503 24.706 141.474L25.6054 141.911C27.0433 138.952 28.5377 136.025 30.0871 133.132L29.2055 132.66ZM20.5591 150.454C19.2382 153.47 17.9746 156.516 16.7697 159.592L17.7008 159.957C18.9009 156.893 20.1594 153.859 21.4751 150.855L20.5591 150.454ZM13.3438 168.875C12.2651 171.985 11.2457 175.124 10.2869 178.288L11.244 178.578C12.1989 175.426 13.2142 172.3 14.2886 169.202L13.3438 168.875ZM7.60511 187.816C6.77713 190.997 6.00977 194.204 5.30435 197.433L6.28131 197.646C6.98392 194.43 7.74821 191.237 8.57288 188.068L7.60511 187.816ZM3.38457 207.136C2.81011 210.373 2.29748 213.632 1.84795 216.911L2.83868 217.047C3.28643 213.781 3.79702 210.535 4.36919 207.31L3.38457 207.136ZM0.695827 226.746C0.377649 230.015 0.12196 233.303 -0.0700321 236.608L0.928285 236.666C1.11952 233.374 1.3742 230.099 1.69112 226.843L0.695827 226.746ZM-0.45206 246.486C-0.483971 248.137 -0.5 249.792 -0.5 251.45H0.5C0.5 249.798 0.515967 248.15 0.547754 246.505L-0.45206 246.486ZM-0.5 251.45C-0.5 253.109 -0.483972 254.764 -0.452062 256.415L0.547751 256.396C0.515966 254.751 0.5 253.103 0.5 251.45H-0.5ZM-0.0700388 266.293C0.121952 269.598 0.37764 272.885 0.695817 276.155L1.69111 276.058C1.37419 272.801 1.11951 269.527 0.928278 266.235L-0.0700388 266.293ZM1.84794 285.989C2.29747 289.268 2.8101 292.527 3.38456 295.765L4.36918 295.59C3.79701 292.366 3.28642 289.12 2.83867 285.854L1.84794 285.989ZM5.30433 305.468C6.00976 308.697 6.77711 311.903 7.60509 315.085L8.57286 314.833C7.74819 311.664 6.9839 308.471 6.28129 305.254L5.30433 305.468ZM10.2869 324.612C11.2457 327.777 12.2651 330.915 13.3437 334.026L14.2885 333.698C13.2142 330.6 12.1989 327.474 11.2439 324.322L10.2869 324.612ZM16.7696 343.308C17.9745 346.384 19.2381 349.431 20.5591 352.446L21.4751 352.045C20.1594 349.042 18.9008 346.007 17.7007 342.944L16.7696 343.308ZM24.706 361.427C26.1496 364.398 27.6499 367.336 29.2055 370.24L30.087 369.768C28.5376 366.875 27.0433 363.949 25.6054 360.99L24.706 361.427ZM34.0488 378.87C35.7209 381.717 37.4473 384.528 39.2266 387.302L40.0683 386.762C38.296 383.999 36.5765 381.199 34.911 378.364L34.0488 378.87ZM44.7307 395.523C46.62 398.229 48.561 400.896 50.5523 403.523L51.3492 402.918C49.3657 400.302 47.4324 397.646 45.5506 394.951L44.7307 395.523ZM56.6828 411.289C58.7775 413.838 60.9212 416.346 63.1126 418.81L63.8599 418.145C61.6771 415.691 59.5419 413.193 57.4555 410.654L56.6828 411.289ZM69.8306 426.074C72.1169 428.451 74.4494 430.784 76.8267 433.07L77.5199 432.349C75.152 430.072 72.8286 427.749 70.5513 425.381L69.8306 426.074ZM84.0907 439.788C86.555 441.979 89.0626 444.123 91.612 446.218L92.2468 445.445C89.7075 443.359 87.2098 441.223 84.7552 439.041L84.0907 439.788ZM99.378 452.348C102.005 454.34 104.672 456.281 107.377 458.17L107.95 457.35C105.255 455.468 102.598 453.535 99.9822 451.551L99.378 452.348ZM115.599 463.674C118.372 465.453 121.183 467.18 124.03 468.852L124.537 467.99C121.701 466.324 118.901 464.605 116.139 462.832L115.599 463.674ZM132.66 473.695C135.564 475.251 138.503 476.751 141.474 478.195L141.911 477.295C138.952 475.857 136.025 474.363 133.132 472.814L132.66 473.695ZM150.454 482.341C153.47 483.662 156.516 484.926 159.592 486.131L159.957 485.2C156.893 484 153.859 482.741 150.855 481.426L150.454 482.341ZM168.875 489.557C171.985 490.636 175.124 491.655 178.288 492.614L178.578 491.657C175.426 490.702 172.3 489.686 169.202 488.612L168.875 489.557ZM187.816 495.296C190.997 496.124 194.204 496.891 197.433 497.596L197.646 496.619C194.43 495.917 191.237 495.152 188.068 494.328L187.816 495.296ZM207.136 499.516C210.373 500.091 213.632 500.603 216.911 501.053L217.047 500.062C213.781 499.614 210.535 499.104 207.31 498.531L207.136 499.516ZM226.746 502.205C230.015 502.523 233.303 502.779 236.608 502.971L236.666 501.972C233.374 501.781 230.099 501.526 226.843 501.21L226.746 502.205ZM246.486 503.353C248.137 503.385 249.792 503.401 251.45 503.401V502.401C249.798 502.401 248.15 502.385 246.505 502.353L246.486 503.353ZM251.45 503.401C253.109 503.401 254.764 503.385 256.415 503.353L256.396 502.353C254.751 502.385 253.103 502.401 251.45 502.401V503.401ZM266.293 502.971C269.598 502.779 272.885 502.523 276.155 502.205L276.058 501.21C272.801 501.526 269.527 501.781 266.235 501.972L266.293 502.971ZM285.989 501.053C289.268 500.603 292.527 500.091 295.765 499.516L295.59 498.531C292.366 499.104 289.12 499.614 285.854 500.062L285.989 501.053ZM305.468 497.596C308.697 496.891 311.903 496.124 315.085 495.296L314.833 494.328C311.664 495.152 308.471 495.917 305.254 496.619L305.468 497.596ZM324.612 492.614C327.777 491.655 330.915 490.636 334.026 489.557L333.698 488.612C330.6 489.686 327.474 490.702 324.322 491.657L324.612 492.614ZM343.308 486.131C346.384 484.926 349.431 483.662 352.446 482.342L352.045 481.426C349.042 482.741 346.007 484 342.944 485.2L343.308 486.131ZM361.427 478.195C364.398 476.751 367.336 475.251 370.24 473.695L369.768 472.814C366.875 474.363 363.949 475.857 360.99 477.295L361.427 478.195ZM378.87 468.852C381.717 467.18 384.528 465.453 387.302 463.674L386.762 462.832C383.999 464.605 381.199 466.324 378.364 467.99L378.87 468.852ZM395.523 458.17C398.229 456.281 400.896 454.34 403.523 452.348L402.918 451.551C400.302 453.535 397.646 455.468 394.951 457.35L395.523 458.17ZM411.289 446.218C413.838 444.123 416.346 441.979 418.81 439.788L418.145 439.041C415.691 441.224 413.193 443.359 410.654 445.445L411.289 446.218ZM426.074 433.07C428.451 430.784 430.784 428.451 433.07 426.074L432.349 425.381C430.072 427.749 427.749 430.072 425.381 432.349L426.074 433.07ZM439.788 418.81C441.979 416.346 444.123 413.838 446.218 411.289L445.445 410.654C443.359 413.193 441.223 415.691 439.041 418.145L439.788 418.81ZM452.348 403.523C454.34 400.896 456.281 398.229 458.17 395.523L457.35 394.951C455.468 397.646 453.535 400.302 451.551 402.918L452.348 403.523ZM463.674 387.302C465.453 384.528 467.18 381.717 468.852 378.87L467.99 378.364C466.324 381.199 464.605 383.999 462.832 386.762L463.674 387.302ZM473.695 370.24C475.251 367.336 476.751 364.398 478.195 361.427L477.295 360.99C475.857 363.949 474.363 366.876 472.814 369.768L473.695 370.24ZM482.341 352.447C483.662 349.431 484.926 346.384 486.131 343.309L485.2 342.944C484 346.007 482.741 349.042 481.426 352.045L482.341 352.447ZM489.557 334.026C490.636 330.915 491.655 327.777 492.614 324.612L491.657 324.322C490.702 327.474 489.686 330.6 488.612 333.698L489.557 334.026ZM495.296 315.085C496.124 311.903 496.891 308.697 497.596 305.468L496.619 305.254C495.917 308.471 495.152 311.664 494.328 314.833L495.296 315.085ZM499.516 295.765C500.091 292.527 500.603 289.268 501.053 285.99L500.062 285.854C499.614 289.12 499.104 292.366 498.531 295.59L499.516 295.765ZM502.205 276.155C502.523 272.885 502.779 269.598 502.971 266.293L501.972 266.235C501.781 269.527 501.526 272.802 501.21 276.058L502.205 276.155ZM503.353 256.415C503.385 254.764 503.401 253.109 503.401 251.45H502.401C502.401 253.103 502.385 254.751 502.353 256.396L503.353 256.415ZM303.987 251.398C303.987 249.662 303.903 247.946 303.738 246.253L302.743 246.349C302.904 248.01 302.987 249.695 302.987 251.398H303.987ZM301.74 236.158C300.734 232.839 299.409 229.658 297.799 226.653L296.917 227.125C298.496 230.073 299.797 233.192 300.783 236.448L301.74 236.158ZM292.075 218.102C289.893 215.446 287.455 213.008 284.799 210.826L284.165 211.599C286.77 213.74 289.162 216.131 291.303 218.737L292.075 218.102ZM276.249 205.103C273.243 203.493 270.063 202.167 266.743 201.161L266.453 202.118C269.709 203.105 272.829 204.405 275.777 205.984L276.249 205.103ZM256.649 199.163C254.956 198.999 253.239 198.914 251.503 198.914V199.914C253.207 199.914 254.891 199.997 256.552 200.159L256.649 199.163ZM251.503 198.914C249.767 198.914 248.05 198.999 246.357 199.163L246.454 200.159C248.115 199.997 249.799 199.914 251.503 199.914V198.914ZM236.263 201.161C232.943 202.167 229.763 203.493 226.758 205.103L227.23 205.984C230.178 204.405 233.297 203.105 236.553 202.118L236.263 201.161ZM218.207 210.826C215.551 213.008 213.113 215.446 210.931 218.102L211.704 218.737C213.844 216.131 216.236 213.74 218.842 211.599L218.207 210.826ZM205.207 226.653C203.598 229.658 202.272 232.839 201.266 236.158L202.223 236.448C203.21 233.192 204.51 230.073 206.089 227.125L205.207 226.653ZM199.268 246.253C199.103 247.946 199.019 249.662 199.019 251.398H200.019C200.019 249.695 200.102 248.01 200.263 246.35L199.268 246.253ZM199.019 251.398C199.019 253.134 199.103 254.851 199.268 256.544L200.263 256.447C200.102 254.786 200.019 253.102 200.019 251.398H199.019ZM201.266 266.639C202.272 269.958 203.598 273.139 205.207 276.144L206.089 275.672C204.51 272.724 203.21 269.604 202.223 266.349L201.266 266.639ZM210.931 284.695C213.113 287.351 215.551 289.788 218.207 291.97L218.842 291.198C216.236 289.057 213.844 286.665 211.704 284.06L210.931 284.695ZM226.758 297.694C229.763 299.304 232.943 300.63 236.263 301.635L236.553 300.678C233.297 299.692 230.178 298.392 227.23 296.813L226.758 297.694ZM246.357 303.633C248.05 303.798 249.767 303.882 251.503 303.882V302.882C249.799 302.882 248.115 302.8 246.454 302.638L246.357 303.633ZM251.503 303.882C253.239 303.882 254.956 303.798 256.649 303.633L256.552 302.638C254.891 302.8 253.207 302.882 251.503 302.882V303.882ZM266.743 301.635C270.063 300.63 273.243 299.304 276.249 297.694L275.777 296.813C272.829 298.392 269.709 299.692 266.453 300.678L266.743 301.635ZM284.799 291.97C287.455 289.788 289.893 287.351 292.075 284.695L291.303 284.06C289.162 286.665 286.77 289.057 284.165 291.198L284.799 291.97ZM297.799 276.144C299.409 273.139 300.734 269.958 301.74 266.639L300.783 266.349C299.797 269.604 298.496 272.724 296.917 275.672L297.799 276.144ZM303.738 256.544C303.903 254.851 303.987 253.134 303.987 251.398H302.987C302.987 253.102 302.904 254.786 302.743 256.447L303.738 256.544ZM503.901 251.45C503.901 249.788 503.885 248.13 503.853 246.476L501.853 246.515C501.885 248.156 501.901 249.801 501.901 251.45H503.901ZM503.47 236.579C503.277 233.267 503.021 229.973 502.702 226.697L500.712 226.891C501.028 230.141 501.282 233.409 501.473 236.695L503.47 236.579ZM501.548 216.843C501.098 213.558 500.584 210.292 500.008 207.048L498.039 207.398C498.61 210.616 499.12 213.855 499.567 217.115L501.548 216.843ZM498.085 197.326C497.378 194.09 496.609 190.878 495.779 187.69L493.844 188.194C494.667 191.356 495.43 194.543 496.131 197.753L498.085 197.326ZM493.092 178.143C492.132 174.972 491.11 171.828 490.029 168.711L488.14 169.366C489.212 172.458 490.225 175.578 491.178 178.723L493.092 178.143ZM486.597 159.41C485.389 156.328 484.123 153.275 482.8 150.254L480.968 151.056C482.281 154.054 483.537 157.082 484.734 160.139L486.597 159.41ZM478.644 141.255C477.198 138.278 475.695 135.334 474.136 132.424L472.373 133.369C473.919 136.255 475.41 139.176 476.846 142.129L478.644 141.255ZM469.283 123.777C467.608 120.925 465.878 118.108 464.095 115.329L462.411 116.409C464.18 119.166 465.896 121.96 467.559 124.79L469.283 123.777ZM458.58 107.091C456.687 104.38 454.742 101.708 452.747 99.076L451.153 100.284C453.133 102.895 455.062 105.546 456.94 108.236L458.58 107.091ZM446.604 91.2947C444.505 88.7402 442.357 86.2277 440.162 83.7585L438.667 85.0876C440.846 87.5373 442.977 90.03 445.059 92.5643L446.604 91.2947ZM433.43 76.4802C431.14 74.0982 428.803 71.7611 426.421 69.4703L425.034 70.9118C427.397 73.1846 429.716 75.5033 431.989 77.8666L433.43 76.4802ZM419.142 62.739C416.673 60.5433 414.161 58.3953 411.606 56.2965L410.336 57.8419C412.871 59.9241 415.363 62.0552 417.813 64.2336L419.142 62.739ZM403.825 50.154C401.193 48.1587 398.521 46.2138 395.81 44.3208L394.665 45.9606C397.354 47.8386 400.005 49.7682 402.616 51.7477L403.825 50.154ZM387.572 38.8058C384.793 37.0229 381.976 35.2931 379.124 33.6177L378.111 35.3422C380.94 37.0043 383.735 38.7205 386.492 40.4892L387.572 38.8058ZM370.476 28.7648C367.566 27.2061 364.622 25.7028 361.645 24.2563L360.771 26.0552C363.725 27.4902 366.645 28.9815 369.532 30.5278L370.476 28.7648ZM352.647 20.1011C349.625 18.7775 346.573 17.5114 343.491 16.3041L342.761 18.1663C345.819 19.364 348.847 20.62 351.845 21.9331L352.647 20.1011ZM334.19 12.8713C331.073 11.7906 327.928 10.7691 324.757 9.80839L324.177 11.7225C327.323 12.6755 330.443 13.6888 333.535 14.761L334.19 12.8713ZM315.211 7.12123C312.023 6.29159 308.81 5.5227 305.575 4.81587L305.148 6.76979C308.358 7.47099 311.545 8.23375 314.707 9.05676L315.211 7.12123ZM295.852 2.89226C292.608 2.31666 289.343 1.80301 286.057 1.35258L285.786 3.33405C289.045 3.78091 292.285 4.29048 295.503 4.8615L295.852 2.89226ZM276.203 0.198178C272.927 -0.120629 269.633 -0.376821 266.322 -0.56919L266.206 1.42744C269.491 1.6183 272.76 1.87248 276.01 2.18877L276.203 0.198178ZM256.425 -0.951966C254.77 -0.98394 253.112 -1 251.45 -1V1C253.099 1 254.745 1.01594 256.386 1.04766L256.425 -0.951966ZM251.45 -1C249.788 -1 248.13 -0.983941 246.476 -0.951969L246.515 1.04766C248.156 1.01593 249.801 1 251.45 1V-1ZM236.579 -0.569197C233.267 -0.376829 229.973 -0.120638 226.697 0.198168L226.891 2.18876C230.141 1.87247 233.409 1.6183 236.695 1.42744L236.579 -0.569197ZM216.843 1.35257C213.558 1.803 210.292 2.31665 207.048 2.89225L207.398 4.86149C210.616 4.29046 213.855 3.78089 217.115 3.33403L216.843 1.35257ZM197.326 4.81585C194.09 5.52268 190.878 6.29157 187.69 7.1212L188.194 9.05674C191.356 8.23372 194.543 7.47097 197.753 6.76977L197.326 4.81585ZM178.143 9.80836C174.972 10.7691 171.828 11.7905 168.711 12.8713L169.366 14.7609C172.458 13.6888 175.578 12.6755 178.723 11.7224L178.143 9.80836ZM159.41 16.3041C156.328 17.5114 153.275 18.7775 150.254 20.1011L151.056 21.9331C154.054 20.62 157.082 19.364 160.139 18.1663L159.41 16.3041ZM141.255 24.2563C138.278 25.7028 135.334 27.2061 132.424 28.7647L133.369 30.5278C136.255 28.9815 139.176 27.4901 142.129 26.0551L141.255 24.2563ZM123.777 33.6176C120.925 35.293 118.108 37.0229 115.329 38.8057L116.409 40.4891C119.166 38.7204 121.96 37.0043 124.79 35.3421L123.777 33.6176ZM107.091 44.3207C104.38 46.2137 101.708 48.1586 99.076 50.1539L100.284 51.7477C102.895 49.7681 105.546 47.8386 108.236 45.9605L107.091 44.3207ZM91.2946 56.2965C88.7402 58.3953 86.2277 60.5432 83.7585 62.7389L85.0876 64.2335C87.5372 62.0551 90.03 59.924 92.5643 57.8418L91.2946 56.2965ZM76.4802 69.4702C74.0982 71.761 71.761 74.0981 69.4702 76.4801L70.9118 77.8665C73.1846 75.5032 75.5033 73.1845 77.8665 70.9117L76.4802 69.4702ZM62.739 83.7585C60.5433 86.2276 58.3953 88.7401 56.2965 91.2946L57.8419 92.5642C59.9241 90.0299 62.0551 87.5372 64.2335 85.0875L62.739 83.7585ZM50.154 99.0759C48.1587 101.708 46.2138 104.38 44.3208 107.091L45.9606 108.236C47.8386 105.546 49.7682 102.895 51.7477 100.284L50.154 99.0759ZM38.8058 115.329C37.0229 118.108 35.2931 120.925 33.6177 123.777L35.3422 124.79C37.0043 121.96 38.7205 119.166 40.4892 116.409L38.8058 115.329ZM28.7648 132.424C27.2061 135.334 25.7028 138.278 24.2563 141.255L26.0552 142.129C27.4902 139.176 28.9815 136.255 30.5278 133.368L28.7648 132.424ZM20.1011 150.253C18.7775 153.275 17.5114 156.328 16.3041 159.41L18.1663 160.139C19.364 157.082 20.62 154.054 21.9331 151.056L20.1011 150.253ZM12.8713 168.711C11.7906 171.828 10.7691 174.972 9.80839 178.143L11.7225 178.723C12.6755 175.578 13.6888 172.458 14.761 169.366L12.8713 168.711ZM7.12123 187.69C6.29159 190.878 5.5227 194.09 4.81587 197.326L6.76979 197.753C7.47099 194.543 8.23375 191.356 9.05676 188.194L7.12123 187.69ZM2.89226 207.048C2.31666 210.292 1.80301 213.558 1.35258 216.843L3.33405 217.115C3.78091 213.855 4.29048 210.616 4.8615 207.398L2.89226 207.048ZM0.198178 226.697C-0.120629 229.973 -0.376821 233.267 -0.56919 236.579L1.42744 236.695C1.6183 233.409 1.87248 230.141 2.18877 226.891L0.198178 226.697ZM-0.951966 246.476C-0.98394 248.13 -1 249.788 -1 251.45H1C1 249.801 1.01594 248.156 1.04766 246.515L-0.951966 246.476ZM-1 251.45C-1 253.112 -0.983941 254.77 -0.951969 256.424L1.04766 256.386C1.01593 254.745 1 253.099 1 251.45H-1ZM-0.569197 266.322C-0.376829 269.633 -0.120638 272.927 0.198168 276.203L2.18876 276.009C1.87247 272.759 1.6183 269.491 1.42744 266.206L-0.569197 266.322ZM1.35257 286.057C1.803 289.343 2.31665 292.608 2.89225 295.852L4.86149 295.503C4.29046 292.285 3.78089 289.045 3.33403 285.786L1.35257 286.057ZM4.81585 305.574C5.52268 308.81 6.29157 312.023 7.12121 315.211L9.05674 314.707C8.23373 311.544 7.47097 308.358 6.76977 305.148L4.81585 305.574ZM9.80836 324.757C10.7691 327.928 11.7905 331.073 12.8713 334.19L14.7609 333.535C13.6888 330.443 12.6755 327.323 11.7224 324.177L9.80836 324.757ZM16.3041 343.491C17.5114 346.573 18.7775 349.625 20.1011 352.647L21.9331 351.845C20.62 348.847 19.364 345.819 18.1663 342.761L16.3041 343.491ZM24.2563 361.645C25.7028 364.622 27.2061 367.566 28.7647 370.476L30.5278 369.532C28.9815 366.645 27.4901 363.724 26.0551 360.771L24.2563 361.645ZM33.6176 379.124C35.293 381.976 37.0229 384.793 38.8057 387.572L40.4892 386.492C38.7204 383.735 37.0043 380.94 35.3421 378.111L33.6176 379.124ZM44.3207 395.81C46.2137 398.521 48.1586 401.193 50.1539 403.825L51.7477 402.616C49.7681 400.005 47.8386 397.354 45.9605 394.665L44.3207 395.81ZM56.2965 411.606C58.3953 414.16 60.5433 416.673 62.7389 419.142L64.2335 417.813C62.0551 415.363 59.924 412.871 57.8418 410.336L56.2965 411.606ZM69.4702 426.42C71.761 428.802 74.0981 431.14 76.4801 433.43L77.8665 431.989C75.5032 429.716 73.1845 427.397 70.9117 425.034L69.4702 426.42ZM83.7585 440.162C86.2276 442.357 88.7401 444.505 91.2946 446.604L92.5642 445.059C90.0299 442.977 87.5372 440.845 85.0875 438.667L83.7585 440.162ZM99.076 452.747C101.708 454.742 104.38 456.687 107.091 458.58L108.236 456.94C105.546 455.062 102.895 453.132 100.284 451.153L99.076 452.747ZM115.329 464.095C118.108 465.878 120.925 467.608 123.777 469.283L124.79 467.558C121.96 465.896 119.166 464.18 116.409 462.411L115.329 464.095ZM132.424 474.136C135.334 475.695 138.278 477.198 141.255 478.644L142.129 476.845C139.176 475.41 136.255 473.919 133.368 472.373L132.424 474.136ZM150.253 482.799C153.275 484.123 156.328 485.389 159.41 486.597L160.139 484.734C157.082 483.537 154.054 482.281 151.056 480.968L150.253 482.799ZM168.711 490.029C171.828 491.11 174.972 492.132 178.143 493.092L178.723 491.178C175.578 490.225 172.458 489.212 169.366 488.14L168.711 490.029ZM187.69 495.779C190.878 496.609 194.09 497.378 197.326 498.085L197.753 496.131C194.543 495.43 191.356 494.667 188.194 493.844L187.69 495.779ZM207.048 500.008C210.292 500.584 213.558 501.098 216.843 501.548L217.115 499.567C213.855 499.12 210.616 498.61 207.398 498.039L207.048 500.008ZM226.697 502.702C229.973 503.021 233.267 503.277 236.579 503.47L236.695 501.473C233.409 501.282 230.141 501.028 226.891 500.712L226.697 502.702ZM246.476 503.853C248.13 503.885 249.788 503.901 251.45 503.901V501.901C249.801 501.901 248.156 501.885 246.515 501.853L246.476 503.853ZM251.45 503.901C253.112 503.901 254.77 503.885 256.424 503.853L256.386 501.853C254.745 501.885 253.099 501.901 251.45 501.901V503.901ZM266.322 503.47C269.633 503.277 272.927 503.021 276.203 502.702L276.009 500.712C272.759 501.028 269.491 501.282 266.206 501.473L266.322 503.47ZM286.057 501.548C289.343 501.098 292.608 500.584 295.852 500.008L295.503 498.039C292.285 498.61 289.045 499.12 285.786 499.567L286.057 501.548ZM305.574 498.085C308.81 497.378 312.023 496.609 315.211 495.779L314.707 493.844C311.544 494.667 308.358 495.43 305.148 496.131L305.574 498.085ZM324.757 493.092C327.928 492.132 331.073 491.11 334.19 490.029L333.535 488.14C330.443 489.212 327.323 490.225 324.177 491.178L324.757 493.092ZM343.491 486.597C346.573 485.389 349.625 484.123 352.647 482.8L351.845 480.968C348.847 482.281 345.819 483.537 342.761 484.734L343.491 486.597ZM361.645 478.644C364.622 477.198 367.566 475.695 370.476 474.136L369.532 472.373C366.645 473.919 363.724 475.41 360.771 476.845L361.645 478.644ZM379.124 469.283C381.976 467.608 384.793 465.878 387.572 464.095L386.492 462.411C383.735 464.18 380.94 465.896 378.111 467.558L379.124 469.283ZM395.81 458.58C398.521 456.687 401.193 454.742 403.825 452.747L402.616 451.153C400.005 453.133 397.354 455.062 394.665 456.94L395.81 458.58ZM411.606 446.604C414.16 444.505 416.673 442.357 419.142 440.162L417.813 438.667C415.363 440.846 412.871 442.977 410.336 445.059L411.606 446.604ZM426.42 433.43C428.802 431.14 431.14 428.803 433.43 426.421L431.989 425.034C429.716 427.397 427.397 429.716 425.034 431.989L426.42 433.43ZM440.162 419.142C442.357 416.673 444.505 414.161 446.604 411.606L445.059 410.336C442.977 412.871 440.845 415.363 438.667 417.813L440.162 419.142ZM452.747 403.825C454.742 401.193 456.687 398.521 458.58 395.81L456.94 394.665C455.062 397.354 453.132 400.005 451.153 402.616L452.747 403.825ZM464.095 387.572C465.878 384.793 467.608 381.976 469.283 379.124L467.558 378.111C465.896 380.94 464.18 383.735 462.411 386.492L464.095 387.572ZM474.136 370.476C475.695 367.566 477.198 364.622 478.644 361.645L476.845 360.771C475.41 363.725 473.919 366.645 472.373 369.532L474.136 370.476ZM482.799 352.647C484.123 349.625 485.389 346.573 486.597 343.491L484.734 342.761C483.537 345.819 482.281 348.847 480.968 351.845L482.799 352.647ZM490.029 334.19C491.11 331.073 492.132 327.928 493.092 324.757L491.178 324.177C490.225 327.323 489.212 330.443 488.14 333.535L490.029 334.19ZM495.779 315.211C496.609 312.023 497.378 308.81 498.085 305.575L496.131 305.148C495.43 308.358 494.667 311.545 493.844 314.707L495.779 315.211ZM500.008 295.852C500.584 292.608 501.098 289.343 501.548 286.057L499.567 285.786C499.12 289.045 498.61 292.285 498.039 295.503L500.008 295.852ZM502.702 276.203C503.021 272.927 503.277 269.633 503.47 266.322L501.473 266.206C501.282 269.491 501.028 272.76 500.712 276.01L502.702 276.203ZM503.853 256.425C503.885 254.77 503.901 253.112 503.901 251.45H501.901C501.901 253.099 501.885 254.745 501.853 256.386L503.853 256.425ZM304.487 251.398C304.487 249.646 304.402 247.913 304.236 246.204L302.245 246.398C302.405 248.043 302.487 249.711 302.487 251.398H304.487ZM302.219 236.013C301.203 232.662 299.865 229.451 298.24 226.417L296.477 227.361C298.04 230.28 299.328 233.369 300.305 236.593L302.219 236.013ZM292.462 217.785C290.259 215.104 287.798 212.643 285.117 210.44L283.847 211.985C286.428 214.105 288.796 216.474 290.916 219.054L292.462 217.785ZM276.485 204.662C273.451 203.037 270.24 201.698 266.888 200.683L266.308 202.597C269.532 203.574 272.621 204.861 275.54 206.425L276.485 204.662ZM256.697 198.666C254.988 198.499 253.255 198.414 251.503 198.414V200.414C253.191 200.414 254.859 200.496 256.504 200.656L256.697 198.666ZM251.503 198.414C249.751 198.414 248.018 198.499 246.309 198.666L246.503 200.656C248.148 200.496 249.816 200.414 251.503 200.414V198.414ZM236.118 200.683C232.766 201.698 229.556 203.037 226.521 204.662L227.466 206.425C230.385 204.861 233.474 203.574 236.698 202.597L236.118 200.683ZM217.889 210.44C215.208 212.643 212.747 215.104 210.545 217.785L212.09 219.054C214.21 216.474 216.579 214.105 219.159 211.985L217.889 210.44ZM204.767 226.417C203.141 229.451 201.803 232.662 200.788 236.013L202.702 236.593C203.678 233.369 204.966 230.28 206.53 227.361L204.767 226.417ZM198.77 246.204C198.604 247.913 198.519 249.646 198.519 251.398H200.519C200.519 249.711 200.601 248.043 200.761 246.398L198.77 246.204ZM198.519 251.398C198.519 253.151 198.604 254.883 198.77 256.593L200.761 256.399C200.601 254.754 200.519 253.086 200.519 251.398H198.519ZM200.788 266.784C201.803 270.135 203.141 273.346 204.767 276.38L206.53 275.436C204.966 272.516 203.678 269.428 202.702 266.204L200.788 266.784ZM210.545 285.012C212.748 287.693 215.208 290.154 217.889 292.357L219.159 290.811C216.579 288.691 214.21 286.323 212.09 283.742L210.545 285.012ZM226.521 298.135C229.556 299.76 232.766 301.098 236.118 302.114L236.698 300.2C233.474 299.223 230.385 297.936 227.466 296.372L226.521 298.135ZM246.309 304.131C248.018 304.297 249.751 304.382 251.503 304.382V302.382C249.816 302.382 248.148 302.3 246.503 302.14L246.309 304.131ZM251.503 304.382C253.255 304.382 254.988 304.297 256.697 304.131L256.504 302.14C254.859 302.3 253.191 302.382 251.503 302.382V304.382ZM266.888 302.114C270.24 301.098 273.451 299.76 276.485 298.135L275.54 296.372C272.621 297.936 269.532 299.223 266.308 300.2L266.888 302.114ZM285.117 292.357C287.798 290.154 290.259 287.693 292.462 285.012L290.916 283.742C288.796 286.323 286.428 288.691 283.847 290.811L285.117 292.357ZM298.24 276.38C299.865 273.346 301.203 270.135 302.219 266.784L300.305 266.204C299.328 269.428 298.04 272.516 296.477 275.436L298.24 276.38ZM304.236 256.593C304.402 254.883 304.487 253.151 304.487 251.398H302.487C302.487 253.086 302.405 254.754 302.245 256.399L304.236 256.593Z" fill="#22BBDD" fill-opacity="0.4" mask="url(#path-1-inside-1)"/>
</svg>
