<svg width="503" height="503" viewBox="0 0 503 503" fill="none" xmlns="http://www.w3.org/2000/svg">
<circle cx="251.45" cy="251.45" r="251.45" fill="white" fill-opacity="0.02"/>
<circle cx="251.45" cy="251.45" r="250.95" stroke="#22BBDD" stroke-opacity="0.4" stroke-dasharray="10 10"/>
<path opacity="0.1" fill-rule="evenodd" clip-rule="evenodd" d="M251.406 368.978C316.29 368.978 368.889 316.379 368.889 251.495C368.889 186.611 316.29 134.011 251.406 134.011C186.521 134.011 133.922 186.611 133.922 251.495C133.922 316.379 186.521 368.978 251.406 368.978ZM251.503 303.382C280.213 303.382 303.487 280.108 303.487 251.398C303.487 222.688 280.213 199.414 251.503 199.414C222.793 199.414 199.519 222.688 199.519 251.398C199.519 280.108 222.793 303.382 251.503 303.382Z" fill="#141413"/>
<circle cx="251.45" cy="251.45" r="78.3511" stroke="#22BBDD" stroke-opacity="0.4" stroke-dasharray="10 10"/>
</svg>
