<svg width="503" height="529" viewBox="0 0 503 529" fill="none" xmlns="http://www.w3.org/2000/svg">
<circle opacity="0.3" cx="241.176" cy="495.405" r="32.6192" fill="#53A5F8"/>
<path d="M254.434 477.787L231.962 484.424C231.506 484.567 231.108 484.852 230.825 485.237C230.542 485.623 230.389 486.088 230.388 486.566V504.927C229.653 504.748 228.898 504.655 228.141 504.651C224.419 504.651 221.399 506.664 221.399 509.146C221.399 511.628 224.419 513.641 228.141 513.641C231.863 513.641 234.883 511.628 234.883 509.146V492.734L252.862 487.466V500.432C252.127 500.253 251.372 500.16 250.615 500.156C246.893 500.156 243.873 502.169 243.873 504.651C243.873 507.133 246.893 509.146 250.615 509.146C254.337 509.146 257.357 507.134 257.357 504.651V479.929C257.357 479.576 257.273 479.228 257.114 478.913C256.954 478.599 256.722 478.326 256.438 478.118C256.153 477.909 255.824 477.77 255.475 477.713C255.127 477.656 254.771 477.681 254.434 477.787Z" fill="#22BBDD"/>
<circle opacity="0.3" cx="451.539" cy="96.0513" r="32.6192" fill="#53A5F8"/>
<path d="M457.785 107.439C457.785 109.977 455.212 112.033 452.042 112.033C448.873 112.033 446.3 109.977 446.3 107.439C446.3 104.901 448.873 102.846 452.042 102.846C455.212 102.846 457.785 104.901 457.785 107.439Z" fill="#22BBDD"/>
<path fill-rule="evenodd" clip-rule="evenodd" d="M457.785 84.4709V107.44H455.488V84.4709H457.785Z" fill="#22BBDD"/>
<path d="M455.488 84.0574C455.488 83.5266 455.672 83.0123 456.009 82.6019C456.346 82.1916 456.814 81.9105 457.334 81.8065L464.225 80.4283C464.558 80.3618 464.902 80.3699 465.231 80.4522C465.561 80.5344 465.868 80.6887 466.131 80.904C466.394 81.1193 466.605 81.3902 466.751 81.6972C466.896 82.0042 466.972 82.3396 466.972 82.6793V86.7677L455.488 89.0645V84.0574Z" fill="#22BBDD"/>
<path fill-rule="evenodd" clip-rule="evenodd" d="M430.223 103.994C430.223 103.69 430.344 103.398 430.559 103.182C430.774 102.967 431.067 102.846 431.371 102.846H439.41C439.715 102.846 440.007 102.967 440.222 103.182C440.438 103.398 440.559 103.69 440.559 103.994C440.559 104.299 440.438 104.591 440.222 104.806C440.007 105.022 439.715 105.143 439.41 105.143H431.371C431.067 105.143 430.774 105.022 430.559 104.806C430.344 104.591 430.223 104.299 430.223 103.994ZM430.223 94.8068C430.223 94.5022 430.344 94.2101 430.559 93.9948C430.774 93.7794 431.067 93.6584 431.371 93.6584H448.598C448.902 93.6584 449.194 93.7794 449.41 93.9948C449.625 94.2101 449.746 94.5022 449.746 94.8068C449.746 95.1114 449.625 95.4035 449.41 95.6189C449.194 95.8343 448.902 95.9553 448.598 95.9553H431.371C431.067 95.9553 430.774 95.8343 430.559 95.6189C430.344 95.4035 430.223 95.1114 430.223 94.8068ZM430.223 85.6194C430.223 85.3148 430.344 85.0227 430.559 84.8073C430.774 84.5919 431.067 84.4709 431.371 84.4709H448.598C448.902 84.4709 449.194 84.5919 449.41 84.8073C449.625 85.0227 449.746 85.3148 449.746 85.6194C449.746 85.924 449.625 86.2161 449.41 86.4314C449.194 86.6468 448.902 86.7678 448.598 86.7678H431.371C431.067 86.7678 430.774 86.6468 430.559 86.4314C430.344 86.2161 430.223 85.924 430.223 85.6194Z" fill="#22BBDD"/>
<circle opacity="0.3" cx="88.815" cy="63.8885" r="32.6192" fill="#53A5F8"/>
<path d="M86.6936 80.0205C86.6936 83.5818 83.0839 86.4663 78.6363 86.4663C74.1887 86.4663 70.5791 83.5818 70.5791 80.0205C70.5791 76.4592 74.1887 73.5747 78.6363 73.5747C83.0839 73.5747 86.6936 76.4592 86.6936 80.0205Z" fill="#22BBDD"/>
<path fill-rule="evenodd" clip-rule="evenodd" d="M86.6936 47.7915V80.0204H83.4707V47.7915H86.6936Z" fill="#22BBDD"/>
<path d="M83.4707 47.2113C83.4712 46.4665 83.7295 45.7449 84.2019 45.1691C84.6743 44.5933 85.3316 44.1989 86.0619 44.0529L95.7306 42.1192C96.198 42.0257 96.6803 42.0371 97.1427 42.1526C97.6052 42.268 98.0363 42.4845 98.4049 42.7866C98.7736 43.0887 99.0707 43.4688 99.2748 43.8996C99.4789 44.3303 99.5849 44.8009 99.5852 45.2776V51.0143L83.4707 54.2372V47.2113Z" fill="#22BBDD"/>
<circle opacity="0.3" cx="88.9039" cy="278.307" r="32.6192" fill="#53A5F8"/>
<path d="M81.798 271.244C83.2034 271.244 84.5773 271.658 85.7459 272.434C86.9145 273.21 87.8253 274.313 88.3631 275.604C88.9009 276.894 89.0416 278.315 88.7675 279.685C88.4933 281.055 87.8165 282.313 86.8227 283.301C85.8289 284.289 84.5627 284.962 83.1843 285.234C81.8059 285.507 80.3771 285.367 79.0786 284.832C77.7802 284.298 76.6704 283.392 75.8895 282.231C75.1087 281.069 74.692 279.704 74.692 278.307C74.692 276.434 75.4406 274.637 76.7733 273.312C78.1059 271.988 79.9133 271.244 81.798 271.244ZM81.798 264.18C78.9871 264.18 76.2394 265.009 73.9022 266.561C71.565 268.113 69.7434 270.32 68.6678 272.901C67.5921 275.482 67.3106 278.323 67.859 281.063C68.4074 283.803 69.761 286.32 71.7486 288.296C73.7361 290.271 76.2685 291.617 79.0254 292.162C81.7822 292.707 84.6398 292.427 87.2367 291.358C89.8336 290.289 92.0532 288.478 93.6149 286.155C95.1765 283.832 96.01 281.101 96.01 278.307C96.01 274.56 94.5127 270.967 91.8474 268.318C89.1821 265.669 85.5672 264.18 81.798 264.18ZM104.893 278.307C105.947 278.307 106.977 278.618 107.853 279.2C108.73 279.782 109.413 280.609 109.816 281.577C110.22 282.545 110.325 283.61 110.12 284.638C109.914 285.665 109.406 286.609 108.661 287.35C107.916 288.091 106.966 288.595 105.932 288.8C104.898 289.004 103.827 288.899 102.853 288.498C101.879 288.097 101.047 287.418 100.461 286.547C99.8756 285.676 99.563 284.652 99.563 283.604C99.563 282.199 100.125 280.852 101.124 279.858C102.123 278.865 103.479 278.307 104.893 278.307Z" fill="#22BBDD"/>
</svg>
