<svg width="491" height="499" viewBox="0 0 491 499" fill="none" xmlns="http://www.w3.org/2000/svg">
<mask id="mask0" mask-type="alpha" maskUnits="userSpaceOnUse" x="0" y="0" width="477" height="499">
<rect y="0.974121" width="476.524" height="497.052" fill="#C4C4C4"/>
</mask>
<g mask="url(#mask0)">
<g opacity="0.4">
<path d="M4.69189 220.029V283.81" stroke="#22BBDD" stroke-width="3" stroke-miterlimit="10"/>
<path d="M18.0349 208.739V295.247" stroke="#22BBDD" stroke-width="3" stroke-miterlimit="10"/>
<path d="M31.231 213.578V306.537" stroke="#22BBDD" stroke-width="3" stroke-miterlimit="10"/>
<path d="M44.427 185.866V295.246" stroke="#22BBDD" stroke-width="3" stroke-miterlimit="10"/>
<path d="M57.7695 174.576V329.263" stroke="#22BBDD" stroke-width="3" stroke-miterlimit="10"/>
<path d="M70.9656 197.302V340.7" stroke="#22BBDD" stroke-width="3" stroke-miterlimit="10"/>
<path d="M84.1616 151.849V322.812" stroke="#22BBDD" stroke-width="3" stroke-miterlimit="10"/>
<path d="M97.5044 167.245V363.426" stroke="#22BBDD" stroke-width="3" stroke-miterlimit="10"/>
<path d="M110.7 104.637V374.863" stroke="#22BBDD" stroke-width="3" stroke-miterlimit="10"/>
<path d="M216.708 220.029V283.81" stroke="#22BBDD" stroke-width="3" stroke-miterlimit="10"/>
<path d="M203.512 208.739V295.247" stroke="#22BBDD" stroke-width="3" stroke-miterlimit="10"/>
<path d="M190.17 213.578V306.537" stroke="#22BBDD" stroke-width="3" stroke-miterlimit="10"/>
<path d="M176.974 185.866V295.246" stroke="#22BBDD" stroke-width="3" stroke-miterlimit="10"/>
<path d="M163.778 174.576V329.263" stroke="#22BBDD" stroke-width="3" stroke-miterlimit="10"/>
<path d="M150.435 197.302V295.247" stroke="#22BBDD" stroke-width="3" stroke-miterlimit="10"/>
<path d="M137.239 151.849V322.812" stroke="#22BBDD" stroke-width="3" stroke-miterlimit="10"/>
<path d="M124.043 208.739V340.7" stroke="#22BBDD" stroke-width="3" stroke-miterlimit="10"/>
<path d="M428.725 220.029V283.81" stroke="#22BBDD" stroke-width="3" stroke-miterlimit="10"/>
<path d="M415.383 208.739V306.537" stroke="#22BBDD" stroke-width="3" stroke-miterlimit="10"/>
<path d="M402.187 213.578V277.212" stroke="#22BBDD" stroke-width="3" stroke-miterlimit="10"/>
<path d="M388.991 185.866V295.246" stroke="#22BBDD" stroke-width="3" stroke-miterlimit="10"/>
<path d="M375.648 208.739V292.608" stroke="#22BBDD" stroke-width="3" stroke-miterlimit="10"/>
<path d="M362.452 197.302V306.537" stroke="#22BBDD" stroke-width="3" stroke-miterlimit="10"/>
<path d="M349.256 111.235V356.535" stroke="#22BBDD" stroke-width="3" stroke-miterlimit="10"/>
<path d="M335.913 119.446V396.123" stroke="#22BBDD" stroke-width="3" stroke-miterlimit="10"/>
<path d="M322.717 89.8279V368.851" stroke="#22BBDD" stroke-width="3" stroke-miterlimit="10"/>
<path d="M229.905 208.739V295.247" stroke="#22BBDD" stroke-width="3" stroke-miterlimit="10"/>
<path d="M243.247 213.578V306.537" stroke="#22BBDD" stroke-width="3" stroke-miterlimit="10"/>
<path d="M256.443 185.866V295.247" stroke="#22BBDD" stroke-width="3" stroke-miterlimit="10"/>
<path d="M269.786 213.578V283.81" stroke="#22BBDD" stroke-width="3" stroke-miterlimit="10"/>
<path d="M282.982 197.303V303.018" stroke="#22BBDD" stroke-width="3" stroke-miterlimit="10"/>
<path d="M296.178 190.558V322.812" stroke="#22BBDD" stroke-width="3" stroke-miterlimit="10"/>
<path d="M309.521 167.245V363.426" stroke="#22BBDD" stroke-width="3" stroke-miterlimit="10"/>
<path d="M441.922 208.739V306.537" stroke="#22BBDD" stroke-width="3" stroke-miterlimit="10"/>
<path d="M455.264 213.578V277.212" stroke="#22BBDD" stroke-width="3" stroke-miterlimit="10"/>
<path d="M468.46 185.866V295.247" stroke="#22BBDD" stroke-width="3" stroke-miterlimit="10"/>
</g>
<g opacity="0.3">
<path d="M27.8586 314.014V295.539C27.8586 293.191 25.9549 291.287 23.6066 291.287C21.2582 291.287 19.3545 293.191 19.3545 295.539V314.014C19.3545 316.362 21.2582 318.266 23.6066 318.266C25.9549 318.266 27.8586 316.362 27.8586 314.014Z" fill="#22BBDD"/>
<path d="M71.5525 306.243V287.035C71.5525 284.606 69.5831 282.637 67.1538 282.637C64.7245 282.637 62.7551 284.606 62.7551 287.035V306.243C62.7551 308.672 64.7245 310.642 67.1538 310.642C69.5831 310.642 71.5525 308.672 71.5525 306.243Z" fill="#22BBDD"/>
<path d="M115.539 311.301V291.507C115.539 288.956 113.471 286.889 110.92 286.889C108.37 286.889 106.302 288.956 106.302 291.507V311.301C106.302 313.852 108.37 315.92 110.92 315.92C113.471 315.92 115.539 313.852 115.539 311.301Z" fill="#22BBDD"/>
<path d="M157.913 324.204V303.677C157.913 301.045 155.78 298.912 153.148 298.912C150.516 298.912 148.383 301.045 148.383 303.677V324.204C148.383 326.836 150.516 328.969 153.148 328.969C155.78 328.969 157.913 326.836 157.913 324.204Z" fill="#22BBDD"/>
<path d="M201.02 331.829V310.422C201.02 307.709 198.821 305.51 196.109 305.51C193.396 305.51 191.197 307.709 191.197 310.422V331.829C191.197 334.541 193.396 336.74 196.109 336.74C198.821 336.74 201.02 334.541 201.02 331.829Z" fill="#22BBDD"/>
<path d="M243.688 323.178V301.038C243.688 298.244 241.423 295.979 238.629 295.979C235.835 295.979 233.571 298.244 233.571 301.038V323.178C233.571 325.972 235.835 328.236 238.629 328.236C241.423 328.236 243.688 325.972 243.688 323.178Z" fill="#22BBDD"/>
<path d="M281.37 300.524V277.798C281.37 274.883 279.006 272.52 276.091 272.52C273.176 272.52 270.813 274.883 270.813 277.798V300.524C270.813 303.44 273.176 305.803 276.091 305.803C279.006 305.803 281.37 303.44 281.37 300.524Z" fill="#22BBDD"/>
<path d="M311.574 269.44V245.981C311.574 242.985 309.145 240.556 306.149 240.556C303.153 240.556 300.724 242.985 300.724 245.981V269.44C300.724 272.437 303.153 274.865 306.149 274.865C309.145 274.865 311.574 272.437 311.574 269.44Z" fill="#22BBDD"/>
<path d="M336.207 233.371V209.178C336.207 206.101 333.712 203.607 330.635 203.607C327.558 203.607 325.063 206.101 325.063 209.178V233.371C325.063 236.448 327.558 238.943 330.635 238.943C333.712 238.943 336.207 236.448 336.207 233.371Z" fill="#22BBDD"/>
<path d="M358.64 196.129V171.203C358.64 168.045 356.08 165.485 352.922 165.485C349.764 165.485 347.203 168.045 347.203 171.203V196.129C347.203 199.287 349.764 201.847 352.922 201.847C356.08 201.847 358.64 199.287 358.64 196.129Z" fill="#22BBDD"/>
<path d="M383.419 160.28V134.767C383.419 131.488 380.761 128.829 377.481 128.829C374.201 128.829 371.543 131.488 371.543 134.767V160.28C371.543 163.559 374.201 166.218 377.481 166.218C380.761 166.218 383.419 163.559 383.419 160.28Z" fill="#22BBDD"/>
<path d="M413.624 128.756V102.51C413.624 99.1498 410.899 96.4255 407.539 96.4255C404.178 96.4255 401.454 99.1498 401.454 102.51V128.756C401.454 132.116 404.178 134.841 407.539 134.841C410.899 134.841 413.624 132.116 413.624 128.756Z" fill="#22BBDD"/>
<path d="M450.719 106.176V79.1975C450.719 75.756 447.929 72.9661 444.488 72.9661C441.046 72.9661 438.256 75.756 438.256 79.1975V106.176C438.256 109.618 441.046 112.408 444.488 112.408C447.929 112.408 450.719 109.618 450.719 106.176Z" fill="#22BBDD"/>
</g>
</g>
<g clip-path="url(#clip0)">
<path d="M10.395 480.408L8.63599 477.918L142.759 380.508L232.614 447.304L304.88 396.035L381.982 443.788L482.391 317.668L484.737 319.718L382.569 447.89L305.026 399.844L232.614 451.259L231.588 450.526L142.759 384.463L10.395 480.408Z" fill="#22BBDD"/>
<g opacity="0.7">
<path opacity="0.7" d="M10.395 480.408L8.63599 477.918L142.759 380.508L232.614 447.304L304.88 396.035L381.982 443.788L482.391 317.668L484.737 319.718L382.569 447.89L305.026 399.844L232.614 451.259L231.588 450.526L142.759 384.463L10.395 480.408Z" fill="white"/>
</g>
<path d="M17.2844 480.408C16.698 484.656 12.5937 487.732 8.34283 487C4.09193 486.414 1.01369 482.312 1.74661 478.064C2.33294 473.817 6.43725 470.74 10.6882 471.473C15.0856 472.059 18.0173 476.014 17.2844 480.408Z" fill="#22BBDD"/>
<path d="M146.424 383.731C145.984 386.807 143.052 389.004 139.828 388.565C136.749 388.125 134.551 385.196 134.99 381.973C135.43 378.897 138.362 376.7 141.587 377.139C144.811 377.579 147.01 380.508 146.424 383.731Z" fill="#22BBDD"/>
<path d="M309.717 399.844C309.277 402.48 306.932 404.238 304.293 403.799C301.655 403.359 299.896 401.016 300.336 398.379C300.775 395.742 303.121 393.985 305.759 394.424C308.398 394.717 310.157 397.207 309.717 399.844Z" fill="#22BBDD"/>
<path d="M239.944 450.38C239.357 454.481 235.546 457.264 231.442 456.678C227.337 456.092 224.552 452.284 225.139 448.182C225.725 444.081 229.536 441.298 233.64 441.884C237.745 442.47 240.676 446.278 239.944 450.38Z" fill="#22BBDD"/>
<path d="M387.846 446.571C387.406 449.647 384.474 451.698 381.396 451.259C378.318 450.819 376.265 447.89 376.705 444.814C377.145 441.737 380.077 439.687 383.155 440.126C386.233 440.712 388.285 443.495 387.846 446.571Z" fill="#22BBDD"/>
<path d="M490.6 308L461.284 327.189L478.287 340.812L490.6 308Z" fill="#22BBDD"/>
</g>
<defs>
<clipPath id="clip0">
<rect width="489" height="179" fill="white" transform="translate(1.6001 308)"/>
</clipPath>
</defs>
</svg>
