<svg width="503" height="503" viewBox="0 0 503 503" fill="none" xmlns="http://www.w3.org/2000/svg">
<circle cx="251.45" cy="251.45" r="251.45" fill="white" fill-opacity="0.02"/>
<circle cx="251.45" cy="251.45" r="250.95" stroke="#22BBDD" stroke-opacity="0.4" stroke-dasharray="10 10"/>
<circle cx="251.406" cy="251.495" r="167.908" stroke="#22BBDD" stroke-opacity="0.4" stroke-dasharray="10 10"/>
<circle cx="251.45" cy="251.45" r="78.3511" stroke="#22BBDD" stroke-opacity="0.4" stroke-dasharray="10 10"/>
<path d="M323.208 417.355L419 309.285L373.447 172.322L277.655 280.391L323.208 417.355Z" fill="#0F0F0E"/>
<path d="M327.144 398.217L407.94 307.034L369.51 191.459L288.715 282.643L327.144 398.217Z" fill="#252423"/>
<path d="M327.144 398.217L407.94 307.034L369.51 191.459L288.715 282.643L327.144 398.217Z" fill="#252423"/>
<path d="M327.144 398.217L407.94 307.034L369.51 191.459L288.715 282.643L327.144 398.217Z" fill="#252423"/>
<path d="M182.05 388.273L323.208 417.355L277.655 280.391L136.31 251.31L182.05 388.273Z" fill="#141413"/>
<path d="M189.174 380.206L309.336 404.972L270.531 288.271L150.182 263.693L189.174 380.206Z" fill="#252423"/>
<path d="M277.655 280.391L373.447 172.322L232.102 143.428L136.31 251.31L277.655 280.391Z" fill="#141413"/>
<path d="M276.905 278.14L371.198 171.759L373.447 172.321L277.655 280.391L136.31 251.31L137.809 249.621L276.905 278.14Z" fill="url(#paint0_linear)" fill-opacity="0.22"/>
<path d="M274.468 271.01L357.138 177.762L235.101 152.809L152.619 245.869L274.468 271.01Z" fill="#181817"/>
<g opacity="0.5">
<path opacity="0.5" d="M282.716 284.519L282.341 283.581L284.028 281.705L283.279 279.266L284.028 278.515L284.778 280.954L301.275 262.192L300.525 259.753L301.275 259.003L302.025 261.442L318.521 242.68L317.771 240.241L318.521 239.49L319.271 241.929L335.768 223.167L335.018 220.728L335.768 219.977L336.517 222.417L353.014 203.654L352.264 201.215L353.014 200.465L353.764 202.904L370.26 184.142L369.51 181.703L370.26 181.14L371.01 183.579L372.697 181.703L373.072 182.641L371.385 184.517L379.258 208.157L380.945 206.281L381.32 207.219L379.633 209.095L387.507 232.923L389.194 231.047L389.569 231.985L387.882 233.861L395.755 257.502L397.442 255.625L397.817 256.564L396.13 258.44L404.003 282.268L405.69 280.391L405.878 281.33L404.191 283.206L412.064 306.846L413.751 304.97L414.126 306.095L412.439 307.972L413.189 310.411L412.439 311.161L411.689 308.722L395.192 327.484L395.942 329.923L395.192 330.674L394.443 328.235L377.946 346.997L378.696 349.436L377.946 350.186L377.196 347.747L360.7 366.509L361.45 368.949L360.7 369.699L359.95 367.26L343.453 386.022L344.203 388.461L343.453 389.212L342.704 386.773L326.207 405.535L326.957 407.974L326.207 408.724L325.457 406.285L323.77 408.161L323.395 407.223L325.082 405.347L317.209 381.707L315.522 383.583L315.147 382.645L316.834 380.769L308.961 357.128L307.274 359.005L306.899 358.067L308.586 356.19L300.712 332.55L299.025 334.426L298.65 333.488L300.338 331.612L292.464 307.972L290.777 309.848L290.402 308.91L292.089 307.034L284.216 283.393L282.716 284.519ZM302.4 262.38L310.273 286.02L326.769 267.258L318.896 243.618L302.4 262.38ZM352.264 272.699L344.391 249.059L327.894 267.821L335.768 291.461L352.264 272.699ZM335.955 292.212L344.016 316.039L360.512 297.277L352.639 273.637L335.955 292.212ZM353.014 271.761L369.51 252.999L361.637 229.358L345.141 248.121L353.014 271.761ZM353.201 272.887L361.075 296.527L377.571 277.765L369.698 254.124L353.201 272.887ZM361.45 297.465L369.323 321.105L385.819 302.343L377.946 278.703L361.45 297.465ZM360.887 298.215L344.391 316.978L352.264 340.618L368.761 321.856L360.887 298.215ZM343.641 317.728L327.144 336.49L335.018 360.13L351.514 341.368L343.641 317.728ZM343.266 316.79L335.393 293.15L318.896 311.912L326.769 335.552L343.266 316.79ZM335.018 292.024L327.144 268.384L310.648 287.146L318.521 310.786L335.018 292.024ZM319.646 242.867L327.519 266.695L344.016 247.933L336.142 224.293L319.646 242.867ZM336.892 223.355L344.766 246.995L361.262 228.233L353.389 204.78L336.892 223.355ZM370.635 185.268L354.139 204.03L362.012 227.67L378.508 208.908L370.635 185.268ZM378.883 210.034L362.387 228.796L370.26 252.436L386.757 233.674L378.883 210.034ZM387.132 234.612L370.635 253.374L378.508 277.014L395.005 258.252L387.132 234.612ZM395.38 259.378L378.883 278.14L386.757 301.78L403.253 283.018L395.38 259.378ZM411.502 307.784L403.628 284.144L387.132 302.906L395.005 326.546L411.502 307.784ZM394.255 327.297L386.382 303.656L369.885 322.419L377.759 346.059L394.255 327.297ZM377.009 346.622L369.135 322.981L352.639 341.743L360.512 365.384L377.009 346.622ZM359.762 366.134L351.889 342.494L335.393 361.256L343.078 384.896L359.762 366.134ZM325.832 404.409L342.329 385.647L334.455 362.007L317.959 380.769L325.832 404.409ZM317.584 379.643L334.08 360.881L326.207 337.241L309.711 356.003L317.584 379.643ZM309.336 354.877L325.832 336.115L317.959 312.475L301.462 331.237L309.336 354.877ZM301.275 330.299L317.771 311.536L309.898 287.896L293.401 306.658L301.275 330.299ZM293.027 305.533L309.523 286.771L301.65 263.13L285.153 281.892L293.027 305.533Z" fill="url(#paint1_linear)" fill-opacity="0.22"/>
</g>
<g opacity="0.5">
<path opacity="0.5" d="M274.093 285.832L281.966 309.66L284.403 310.223L284.778 311.161L282.341 310.598L290.215 334.426L292.652 334.989L293.027 335.927L290.59 335.364L298.463 359.192L300.9 359.755L301.275 360.693L299.025 360.505L306.899 384.333L309.336 384.896L309.71 385.834L307.274 385.271L315.147 409.287L317.584 409.85L317.959 410.788L315.522 410.225L316.272 412.664L315.334 412.476L314.584 410.037L289.84 404.972L290.59 407.411L289.652 407.223L288.902 404.784L264.158 399.718L264.907 402.157L263.97 401.97L263.22 399.531L238.476 394.465L239.225 396.904L238.288 396.716L237.538 394.277L212.793 389.212L213.543 391.651L212.606 391.463L211.856 389.024L187.111 383.958L187.861 386.397L186.924 386.21L186.174 383.77L183.737 383.208L183.362 382.27L185.799 382.832L177.926 359.005L175.489 358.442L175.114 357.504L177.551 358.066L169.678 334.239L167.241 333.676L166.866 332.738L169.303 333.3L161.429 309.473L158.992 308.91L158.617 307.972L161.054 308.534L153.181 284.707L150.744 284.144L150.369 283.206L152.806 283.769L144.933 259.941L142.496 259.378L142.121 258.44L144.558 259.003L143.808 256.563L144.745 256.751L145.495 259.19L170.24 264.256L169.49 261.817L170.427 262.004L171.177 264.444L195.922 269.509L195.172 267.07L195.922 266.695L196.672 269.134L221.417 274.2L220.667 271.761L221.604 271.948L222.354 274.387L247.099 279.453L246.349 277.014L247.286 277.202L248.036 279.641L272.781 284.707L272.031 282.268L272.968 282.455L273.718 284.894L276.155 285.457L276.53 286.395L274.093 285.832ZM222.729 275.326L230.602 299.153L255.347 304.219L247.474 280.391L222.729 275.326ZM237.913 323.919L230.04 300.092L205.295 294.838L213.168 318.666L237.913 323.919ZM213.543 319.792L221.417 343.62L246.161 348.685L238.288 324.858L213.543 319.792ZM204.17 294.651L179.425 289.585L187.299 313.413L212.044 318.478L204.17 294.651ZM187.861 314.538L195.735 338.366L220.479 343.432L212.606 319.604L187.861 314.538ZM196.109 339.492L203.983 363.32L228.728 368.386L220.854 344.558L196.109 339.492ZM229.852 368.573L254.41 373.639L246.536 349.811L221.792 344.745L229.852 368.573ZM255.534 373.827L280.279 378.892L272.406 355.064L247.661 349.999L255.534 373.827ZM271.843 354.126L263.97 330.299L239.225 325.233L247.099 349.061L271.843 354.126ZM263.595 329.173L255.722 305.345L230.977 300.279L238.85 324.107L263.595 329.173ZM197.047 270.072L204.92 293.9L229.665 298.966L221.792 275.138L197.047 270.072ZM171.365 264.819L179.238 288.647L203.983 293.712L196.109 269.885L171.365 264.819ZM153.556 283.393L178.301 288.459L170.427 264.631L145.683 259.565L153.556 283.393ZM161.804 308.347L186.549 313.413L178.676 289.585L153.931 284.519L161.804 308.347ZM170.24 333.113L194.985 338.179L187.111 314.351L162.367 309.285L170.24 333.113ZM178.488 358.066L203.233 363.132L195.36 339.304L170.615 334.239L178.488 358.066ZM211.481 388.086L203.608 364.258L178.863 359.192L186.736 383.02L211.481 388.086ZM237.163 393.339L229.29 369.511L204.545 364.446L212.419 388.273L237.163 393.339ZM262.845 398.593L254.972 374.765L230.227 369.699L238.101 393.527L262.845 398.593ZM288.527 403.846L280.654 380.018L255.909 374.952L263.783 398.78L288.527 403.846ZM306.149 385.271L281.404 380.206L289.277 404.034L314.022 409.099L306.149 385.271ZM297.9 360.318L273.156 355.252L281.029 379.08L305.774 384.146L297.9 360.318ZM289.652 335.364L264.907 330.299L272.781 354.126L297.526 359.192L289.652 335.364ZM281.404 310.411L256.659 305.345L264.533 329.173L289.277 334.239L281.404 310.411ZM272.968 285.645L248.223 280.579L256.097 304.407L280.842 309.473L272.968 285.645Z" fill="url(#paint2_linear)" fill-opacity="0.22"/>
</g>
<path d="M357.138 177.763L235.101 152.809L205.67 64.0645L328.269 91.0819L357.138 177.763Z" fill="url(#paint3_radial)"/>
<path d="M199.859 70.6312L205.67 64.0645L328.269 91.0819L322.458 97.8362L199.859 70.6312Z" fill="#1E1D1C"/>
<path d="M351.327 184.33L357.138 177.763L328.269 91.082L322.458 97.8364L351.327 184.33Z" fill="#252423"/>
<path d="M351.327 184.33L229.29 159.376L199.859 70.6313L322.458 97.8364L351.327 184.33Z" fill="#1C1B1A"/>
<path d="M322.458 97.8364L200.796 70.819L200.421 69.8809L323.208 96.8983L352.077 183.579L351.327 184.33L322.458 97.8364Z" fill="url(#paint4_linear)" fill-opacity="0.22"/>
<path d="M280.467 264.256L158.43 239.303L128.811 150.746L251.598 177.763L280.467 264.256Z" fill="url(#paint5_radial)"/>
<path d="M123 157.312L128.811 150.746L251.598 177.763L245.787 184.33L123 157.312Z" fill="#1E1D1C"/>
<path d="M274.468 271.011L280.467 264.256L251.598 177.763L245.787 184.33L274.468 271.011Z" fill="#252423"/>
<path d="M274.468 271.011L152.619 245.869L123 157.312L245.787 184.33L274.468 271.011Z" fill="#252423"/>
<path d="M245.787 184.33L124.125 157.5L123.75 156.374L246.349 183.579L275.218 270.073L274.468 271.011L245.787 184.33Z" fill="url(#paint6_linear)" fill-opacity="0.22"/>
<path d="M3.62469 314.578H7.01532C8.58824 314.578 9.72365 314.807 10.4216 315.266C11.1247 315.724 11.4763 316.448 11.4763 317.438C11.4763 318.104 11.3044 318.659 10.9606 319.102C10.6169 319.544 10.1221 319.823 9.47626 319.938V320.016C10.2783 320.167 10.8669 320.466 11.2419 320.914C11.6221 321.357 11.8122 321.958 11.8122 322.719C11.8122 323.745 11.4528 324.549 10.7341 325.133C10.0205 325.711 9.02574 326 7.74969 326H3.62469V314.578ZM5.49188 319.297H7.28876C8.07001 319.297 8.64032 319.174 8.99969 318.93C9.35907 318.68 9.53876 318.258 9.53876 317.664C9.53876 317.128 9.34344 316.74 8.95282 316.5C8.5674 316.26 7.95282 316.141 7.10907 316.141H5.49188V319.297ZM5.49188 320.812V324.43H7.47626C8.25751 324.43 8.84605 324.281 9.24188 323.984C9.64292 323.682 9.84344 323.208 9.84344 322.562C9.84344 321.969 9.64032 321.529 9.23407 321.242C8.82782 320.956 8.21063 320.812 7.38251 320.812H5.49188ZM16.3878 326H14.5519V313.844H16.3878V326ZM24.9869 326L24.6197 324.797H24.5572C24.1405 325.323 23.7213 325.682 23.2994 325.875C22.8775 326.062 22.3358 326.156 21.6744 326.156C20.8254 326.156 20.1614 325.927 19.6822 325.469C19.2082 325.01 18.9713 324.362 18.9713 323.523C18.9713 322.633 19.302 321.961 19.9634 321.508C20.6249 321.055 21.6327 320.807 22.9869 320.766L24.4791 320.719V320.258C24.4791 319.706 24.3489 319.294 24.0884 319.023C23.8332 318.747 23.4348 318.609 22.8931 318.609C22.4504 318.609 22.0259 318.674 21.6197 318.805C21.2134 318.935 20.8228 319.089 20.4478 319.266L19.8541 317.953C20.3228 317.708 20.8358 317.523 21.3931 317.398C21.9504 317.268 22.4765 317.203 22.9713 317.203C24.0702 317.203 24.8983 317.443 25.4556 317.922C26.0181 318.401 26.2994 319.154 26.2994 320.18V326H24.9869ZM22.2525 324.75C22.9192 324.75 23.453 324.565 23.8541 324.195C24.2603 323.82 24.4634 323.297 24.4634 322.625V321.875L23.3541 321.922C22.4895 321.953 21.8593 322.099 21.4634 322.359C21.0728 322.615 20.8775 323.008 20.8775 323.539C20.8775 323.924 20.9921 324.224 21.2213 324.438C21.4504 324.646 21.7942 324.75 22.2525 324.75ZM32.9063 326.156C31.599 326.156 30.6042 325.776 29.9219 325.016C29.2448 324.25 28.9063 323.154 28.9063 321.727C28.9063 320.273 29.2604 319.156 29.9688 318.375C30.6823 317.594 31.7109 317.203 33.0547 317.203C33.9662 317.203 34.7865 317.372 35.5156 317.711L34.9609 319.188C34.1849 318.885 33.5443 318.734 33.0391 318.734C31.5443 318.734 30.7969 319.727 30.7969 321.711C30.7969 322.68 30.9818 323.409 31.3516 323.898C31.7266 324.383 32.2734 324.625 32.9922 324.625C33.8099 324.625 34.5833 324.422 35.3125 324.016V325.617C34.9844 325.81 34.6328 325.948 34.2578 326.031C33.888 326.115 33.4375 326.156 32.9063 326.156ZM39.6772 321.438L40.7163 320.141L43.3256 317.359H45.4428L41.9663 321.07L45.6616 326H43.5053L40.7319 322.211L39.7241 323.039V326H37.9038V313.844H39.7241V319.773L39.6303 321.438H39.6772ZM52.5316 314.578H55.9222C57.4951 314.578 58.6305 314.807 59.3284 315.266C60.0316 315.724 60.3831 316.448 60.3831 317.438C60.3831 318.104 60.2113 318.659 59.8675 319.102C59.5238 319.544 59.029 319.823 58.3831 319.938V320.016C59.1852 320.167 59.7738 320.466 60.1488 320.914C60.529 321.357 60.7191 321.958 60.7191 322.719C60.7191 323.745 60.3597 324.549 59.6409 325.133C58.9274 325.711 57.9326 326 56.6566 326H52.5316V314.578ZM54.3988 319.297H56.1956C56.9769 319.297 57.5472 319.174 57.9066 318.93C58.2659 318.68 58.4456 318.258 58.4456 317.664C58.4456 317.128 58.2503 316.74 57.8597 316.5C57.4743 316.26 56.8597 316.141 56.0159 316.141H54.3988V319.297ZM54.3988 320.812V324.43H56.3831C57.1644 324.43 57.7529 324.281 58.1488 323.984C58.5498 323.682 58.7503 323.208 58.7503 322.562C58.7503 321.969 58.5472 321.529 58.1409 321.242C57.7347 320.956 57.1175 320.812 56.2894 320.812H54.3988ZM71.1228 321.664C71.1228 323.076 70.7608 324.177 70.0369 324.969C69.3129 325.76 68.3051 326.156 67.0134 326.156C66.2062 326.156 65.4926 325.974 64.8728 325.609C64.253 325.245 63.7765 324.721 63.4431 324.039C63.1098 323.357 62.9431 322.565 62.9431 321.664C62.9431 320.263 63.3025 319.169 64.0213 318.383C64.74 317.596 65.753 317.203 67.0603 317.203C68.3103 317.203 69.2999 317.607 70.0291 318.414C70.7582 319.216 71.1228 320.299 71.1228 321.664ZM64.8338 321.664C64.8338 323.659 65.5707 324.656 67.0447 324.656C68.503 324.656 69.2322 323.659 69.2322 321.664C69.2322 319.69 68.4978 318.703 67.0291 318.703C66.2582 318.703 65.6983 318.958 65.3494 319.469C65.0056 319.979 64.8338 320.711 64.8338 321.664ZM75.7219 321.586L72.8234 317.359H74.9172L76.8859 320.383L78.8703 317.359H80.9484L78.0422 321.586L81.0969 326H79.0188L76.8859 322.766L74.7609 326H72.6828L75.7219 321.586ZM85.0788 324.32C84.8288 325.289 84.3704 326.536 83.7038 328.062H82.3522C82.7116 326.656 82.9798 325.349 83.1569 324.141H84.9616L85.0788 324.32ZM99.8159 326L98.6988 321.969C98.5633 321.542 98.3186 320.549 97.9644 318.992H97.8941C97.592 320.398 97.3524 321.396 97.1753 321.984L96.0269 326H93.9956L91.5738 317.359H93.4488L94.5503 321.617C94.8003 322.669 94.9774 323.57 95.0816 324.32H95.1284C95.1805 323.94 95.2587 323.505 95.3628 323.016C95.4722 322.521 95.5659 322.151 95.6441 321.906L96.9566 317.359H98.9722L100.246 321.906C100.324 322.161 100.42 322.552 100.535 323.078C100.654 323.604 100.725 324.013 100.746 324.305H100.808C100.886 323.664 101.069 322.768 101.355 321.617L102.472 317.359H104.316L101.878 326H99.8159ZM113.97 326H112.126V320.688C112.126 320.021 111.991 319.523 111.72 319.195C111.454 318.867 111.03 318.703 110.446 318.703C109.675 318.703 109.108 318.935 108.743 319.398C108.384 319.857 108.204 320.628 108.204 321.711V326H106.368V313.844H108.204V316.93C108.204 317.424 108.173 317.953 108.11 318.516H108.228C108.478 318.099 108.824 317.776 109.267 317.547C109.714 317.318 110.235 317.203 110.829 317.203C112.923 317.203 113.97 318.258 113.97 320.367V326ZM120.858 326.156C119.514 326.156 118.462 325.766 117.702 324.984C116.946 324.198 116.569 323.117 116.569 321.742C116.569 320.331 116.92 319.221 117.623 318.414C118.327 317.607 119.293 317.203 120.522 317.203C121.663 317.203 122.564 317.549 123.225 318.242C123.886 318.935 124.217 319.888 124.217 321.102V322.094H118.459C118.485 322.932 118.712 323.578 119.139 324.031C119.566 324.479 120.168 324.703 120.944 324.703C121.454 324.703 121.928 324.656 122.366 324.562C122.808 324.464 123.282 324.302 123.788 324.078V325.57C123.34 325.784 122.886 325.935 122.428 326.023C121.97 326.112 121.446 326.156 120.858 326.156ZM120.522 318.594C119.939 318.594 119.47 318.779 119.116 319.148C118.767 319.518 118.558 320.057 118.491 320.766H122.413C122.402 320.052 122.23 319.513 121.897 319.148C121.564 318.779 121.105 318.594 120.522 318.594ZM131.246 317.203C131.616 317.203 131.92 317.229 132.16 317.281L131.98 318.992C131.72 318.93 131.449 318.898 131.168 318.898C130.433 318.898 129.837 319.138 129.379 319.617C128.926 320.096 128.699 320.719 128.699 321.484V326H126.863V317.359H128.301L128.543 318.883H128.637C128.923 318.367 129.295 317.958 129.754 317.656C130.217 317.354 130.715 317.203 131.246 317.203ZM138.103 326.156C136.759 326.156 135.707 325.766 134.947 324.984C134.191 324.198 133.814 323.117 133.814 321.742C133.814 320.331 134.165 319.221 134.868 318.414C135.572 317.607 136.538 317.203 137.767 317.203C138.908 317.203 139.809 317.549 140.47 318.242C141.131 318.935 141.462 319.888 141.462 321.102V322.094H135.704C135.73 322.932 135.957 323.578 136.384 324.031C136.811 324.479 137.413 324.703 138.189 324.703C138.699 324.703 139.173 324.656 139.611 324.562C140.053 324.464 140.527 324.302 141.033 324.078V325.57C140.585 325.784 140.131 325.935 139.673 326.023C139.215 326.112 138.691 326.156 138.103 326.156ZM137.767 318.594C137.184 318.594 136.715 318.779 136.361 319.148C136.012 319.518 135.803 320.057 135.736 320.766H139.658C139.647 320.052 139.475 319.513 139.142 319.148C138.809 318.779 138.35 318.594 137.767 318.594ZM153.238 317.203C154.317 317.203 155.155 317.594 155.754 318.375C156.358 319.156 156.66 320.253 156.66 321.664C156.66 323.081 156.356 324.185 155.746 324.977C155.137 325.763 154.291 326.156 153.207 326.156C152.113 326.156 151.264 325.763 150.66 324.977H150.535L150.199 326H148.824V313.844H150.66V316.734C150.66 316.948 150.65 317.266 150.629 317.688C150.608 318.109 150.593 318.378 150.582 318.492H150.66C151.244 317.633 152.103 317.203 153.238 317.203ZM152.762 318.703C152.022 318.703 151.488 318.922 151.16 319.359C150.837 319.792 150.671 320.518 150.66 321.539V321.664C150.66 322.716 150.827 323.479 151.16 323.953C151.494 324.422 152.038 324.656 152.793 324.656C153.444 324.656 153.936 324.398 154.27 323.883C154.608 323.367 154.778 322.622 154.778 321.648C154.778 319.685 154.106 318.703 152.762 318.703ZM161.189 326H159.353V317.359H161.189V326ZM159.244 315.07C159.244 314.742 159.332 314.49 159.509 314.312C159.692 314.135 159.949 314.047 160.283 314.047C160.606 314.047 160.856 314.135 161.033 314.312C161.215 314.49 161.306 314.742 161.306 315.07C161.306 315.383 161.215 315.63 161.033 315.812C160.856 315.99 160.606 316.078 160.283 316.078C159.949 316.078 159.692 315.99 159.509 315.812C159.332 315.63 159.244 315.383 159.244 315.07ZM166.218 326H164.382V313.844H166.218V326ZM171.247 326H169.411V313.844H171.247V326ZM176.275 326H174.439V317.359H176.275V326ZM174.33 315.07C174.33 314.742 174.419 314.49 174.596 314.312C174.778 314.135 175.036 314.047 175.369 314.047C175.692 314.047 175.942 314.135 176.119 314.312C176.301 314.49 176.393 314.742 176.393 315.07C176.393 315.383 176.301 315.63 176.119 315.812C175.942 315.99 175.692 316.078 175.369 316.078C175.036 316.078 174.778 315.99 174.596 315.812C174.419 315.63 174.33 315.383 174.33 315.07ZM187.132 321.664C187.132 323.076 186.77 324.177 186.046 324.969C185.322 325.76 184.314 326.156 183.023 326.156C182.216 326.156 181.502 325.974 180.882 325.609C180.262 325.245 179.786 324.721 179.453 324.039C179.119 323.357 178.953 322.565 178.953 321.664C178.953 320.263 179.312 319.169 180.031 318.383C180.749 317.596 181.762 317.203 183.07 317.203C184.32 317.203 185.309 317.607 186.038 318.414C186.768 319.216 187.132 320.299 187.132 321.664ZM180.843 321.664C180.843 323.659 181.58 324.656 183.054 324.656C184.512 324.656 185.242 323.659 185.242 321.664C185.242 319.69 184.507 318.703 183.038 318.703C182.268 318.703 181.708 318.958 181.359 319.469C181.015 319.979 180.843 320.711 180.843 321.664ZM197.411 326H195.567V320.688C195.567 320.021 195.432 319.523 195.161 319.195C194.895 318.867 194.471 318.703 193.888 318.703C193.111 318.703 192.544 318.932 192.184 319.391C191.825 319.849 191.645 320.617 191.645 321.695V326H189.809V317.359H191.247L191.505 318.492H191.598C191.859 318.081 192.229 317.763 192.708 317.539C193.187 317.315 193.718 317.203 194.302 317.203C196.374 317.203 197.411 318.258 197.411 320.367V326ZM206.33 323.539C206.33 324.383 206.023 325.031 205.408 325.484C204.794 325.932 203.914 326.156 202.768 326.156C201.617 326.156 200.692 325.982 199.994 325.633V324.047C201.01 324.516 201.955 324.75 202.83 324.75C203.961 324.75 204.526 324.409 204.526 323.727C204.526 323.508 204.463 323.326 204.338 323.18C204.213 323.034 204.007 322.883 203.721 322.727C203.434 322.57 203.036 322.393 202.526 322.195C201.531 321.81 200.856 321.424 200.502 321.039C200.153 320.654 199.979 320.154 199.979 319.539C199.979 318.799 200.276 318.227 200.869 317.82C201.468 317.409 202.281 317.203 203.307 317.203C204.323 317.203 205.283 317.409 206.19 317.82L205.596 319.203C204.664 318.818 203.88 318.625 203.244 318.625C202.276 318.625 201.791 318.901 201.791 319.453C201.791 319.724 201.916 319.953 202.166 320.141C202.421 320.328 202.974 320.586 203.823 320.914C204.536 321.19 205.054 321.443 205.377 321.672C205.7 321.901 205.94 322.167 206.096 322.469C206.252 322.766 206.33 323.122 206.33 323.539ZM221.263 321.664C221.263 323.076 220.901 324.177 220.177 324.969C219.453 325.76 218.445 326.156 217.153 326.156C216.346 326.156 215.633 325.974 215.013 325.609C214.393 325.245 213.916 324.721 213.583 324.039C213.25 323.357 213.083 322.565 213.083 321.664C213.083 320.263 213.443 319.169 214.161 318.383C214.88 317.596 215.893 317.203 217.2 317.203C218.45 317.203 219.44 317.607 220.169 318.414C220.898 319.216 221.263 320.299 221.263 321.664ZM214.974 321.664C214.974 323.659 215.711 324.656 217.185 324.656C218.643 324.656 219.372 323.659 219.372 321.664C219.372 319.69 218.638 318.703 217.169 318.703C216.398 318.703 215.838 318.958 215.489 319.469C215.146 319.979 214.974 320.711 214.974 321.664ZM228.276 318.75H226.167V326H224.323V318.75H222.901V317.891L224.323 317.328V316.766C224.323 315.745 224.562 314.99 225.042 314.5C225.521 314.005 226.253 313.758 227.237 313.758C227.883 313.758 228.518 313.865 229.143 314.078L228.659 315.469C228.206 315.323 227.773 315.25 227.362 315.25C226.945 315.25 226.641 315.38 226.448 315.641C226.26 315.896 226.167 316.281 226.167 316.797V317.359H228.276V318.75ZM14.1847 348.156C13.1066 348.156 12.2654 347.766 11.6613 346.984C11.0571 346.203 10.755 345.107 10.755 343.695C10.755 342.279 11.0597 341.177 11.6691 340.391C12.2837 339.599 13.1326 339.203 14.2159 339.203C15.3514 339.203 16.2159 339.622 16.8097 340.461H16.9034C16.8149 339.841 16.7706 339.352 16.7706 338.992V335.844H18.6144V348H17.1769L16.8566 346.867H16.7706C16.1821 347.727 15.3201 348.156 14.1847 348.156ZM14.6769 346.672C15.4321 346.672 15.9816 346.461 16.3253 346.039C16.6691 345.612 16.8462 344.922 16.8566 343.969V343.711C16.8566 342.622 16.6795 341.849 16.3253 341.391C15.9712 340.932 15.4165 340.703 14.6613 340.703C14.0154 340.703 13.518 340.966 13.1691 341.492C12.8201 342.013 12.6456 342.758 12.6456 343.727C12.6456 344.685 12.8149 345.417 13.1534 345.922C13.492 346.422 13.9998 346.672 14.6769 346.672ZM29.4634 343.664C29.4634 345.076 29.1015 346.177 28.3775 346.969C27.6535 347.76 26.6457 348.156 25.3541 348.156C24.5468 348.156 23.8332 347.974 23.2134 347.609C22.5937 347.245 22.1171 346.721 21.7838 346.039C21.4504 345.357 21.2838 344.565 21.2838 343.664C21.2838 342.263 21.6431 341.169 22.3619 340.383C23.0806 339.596 24.0937 339.203 25.4009 339.203C26.6509 339.203 27.6405 339.607 28.3697 340.414C29.0989 341.216 29.4634 342.299 29.4634 343.664ZM23.1744 343.664C23.1744 345.659 23.9114 346.656 25.3853 346.656C26.8437 346.656 27.5728 345.659 27.5728 343.664C27.5728 341.69 26.8384 340.703 25.3697 340.703C24.5989 340.703 24.039 340.958 23.69 341.469C23.3463 341.979 23.1744 342.711 23.1744 343.664ZM33.9766 348H32.1406V335.844H33.9766V348ZM39.0053 348H37.1694V335.844H39.0053V348ZM47.6044 348L47.2372 346.797H47.1747C46.758 347.323 46.3388 347.682 45.9169 347.875C45.495 348.062 44.9533 348.156 44.2919 348.156C43.4429 348.156 42.7789 347.927 42.2997 347.469C41.8257 347.01 41.5888 346.362 41.5888 345.523C41.5888 344.633 41.9195 343.961 42.5809 343.508C43.2424 343.055 44.2502 342.807 45.6044 342.766L47.0966 342.719V342.258C47.0966 341.706 46.9664 341.294 46.7059 341.023C46.4507 340.747 46.0523 340.609 45.5106 340.609C45.0679 340.609 44.6434 340.674 44.2372 340.805C43.8309 340.935 43.4403 341.089 43.0653 341.266L42.4716 339.953C42.9403 339.708 43.4533 339.523 44.0106 339.398C44.5679 339.268 45.094 339.203 45.5888 339.203C46.6877 339.203 47.5158 339.443 48.0731 339.922C48.6356 340.401 48.9169 341.154 48.9169 342.18V348H47.6044ZM44.87 346.75C45.5367 346.75 46.0705 346.565 46.4716 346.195C46.8778 345.82 47.0809 345.297 47.0809 344.625V343.875L45.9716 343.922C45.107 343.953 44.4768 344.099 44.0809 344.359C43.6903 344.615 43.495 345.008 43.495 345.539C43.495 345.924 43.6096 346.224 43.8388 346.438C44.0679 346.646 44.4117 346.75 44.87 346.75ZM56.4222 339.203C56.792 339.203 57.0967 339.229 57.3363 339.281L57.1566 340.992C56.8961 340.93 56.6253 340.898 56.3441 340.898C55.6097 340.898 55.0133 341.138 54.555 341.617C54.1019 342.096 53.8753 342.719 53.8753 343.484V348H52.0394V339.359H53.4769L53.7191 340.883H53.8128C54.0993 340.367 54.4717 339.958 54.93 339.656C55.3935 339.354 55.8909 339.203 56.4222 339.203ZM65.3103 345.539C65.3103 346.383 65.003 347.031 64.3884 347.484C63.7739 347.932 62.8937 348.156 61.7478 348.156C60.5968 348.156 59.6723 347.982 58.9744 347.633V346.047C59.99 346.516 60.9353 346.75 61.8103 346.75C62.9405 346.75 63.5056 346.409 63.5056 345.727C63.5056 345.508 63.4431 345.326 63.3181 345.18C63.1931 345.034 62.9874 344.883 62.7009 344.727C62.4145 344.57 62.016 344.393 61.5056 344.195C60.5108 343.81 59.8364 343.424 59.4822 343.039C59.1332 342.654 58.9588 342.154 58.9588 341.539C58.9588 340.799 59.2556 340.227 59.8494 339.82C60.4483 339.409 61.2608 339.203 62.2869 339.203C63.3025 339.203 64.2634 339.409 65.1697 339.82L64.5759 341.203C63.6437 340.818 62.8598 340.625 62.2244 340.625C61.2556 340.625 60.7713 340.901 60.7713 341.453C60.7713 341.724 60.8963 341.953 61.1463 342.141C61.4015 342.328 61.9535 342.586 62.8025 342.914C63.516 343.19 64.0343 343.443 64.3572 343.672C64.6801 343.901 64.9197 344.167 65.0759 344.469C65.2322 344.766 65.3103 345.122 65.3103 345.539ZM77.985 348L77.6178 346.797H77.5553C77.1386 347.323 76.7194 347.682 76.2975 347.875C75.8756 348.062 75.334 348.156 74.6725 348.156C73.8235 348.156 73.1595 347.927 72.6803 347.469C72.2064 347.01 71.9694 346.362 71.9694 345.523C71.9694 344.633 72.3001 343.961 72.9616 343.508C73.623 343.055 74.6308 342.807 75.985 342.766L77.4772 342.719V342.258C77.4772 341.706 77.347 341.294 77.0866 341.023C76.8314 340.747 76.4329 340.609 75.8913 340.609C75.4485 340.609 75.0241 340.674 74.6178 340.805C74.2116 340.935 73.8209 341.089 73.4459 341.266L72.8522 339.953C73.3209 339.708 73.834 339.523 74.3913 339.398C74.9485 339.268 75.4746 339.203 75.9694 339.203C77.0683 339.203 77.8965 339.443 78.4538 339.922C79.0163 340.401 79.2975 341.154 79.2975 342.18V348H77.985ZM75.2506 346.75C75.9173 346.75 76.4511 346.565 76.8522 346.195C77.2584 345.82 77.4616 345.297 77.4616 344.625V343.875L76.3522 343.922C75.4876 343.953 74.8574 344.099 74.4616 344.359C74.0709 344.615 73.8756 345.008 73.8756 345.539C73.8756 345.924 73.9902 346.224 74.2194 346.438C74.4485 346.646 74.7923 346.75 75.2506 346.75ZM86.8028 339.203C87.1726 339.203 87.4773 339.229 87.7169 339.281L87.5372 340.992C87.2768 340.93 87.0059 340.898 86.7247 340.898C85.9903 340.898 85.394 341.138 84.9356 341.617C84.4825 342.096 84.2559 342.719 84.2559 343.484V348H82.42V339.359H83.8575L84.0997 340.883H84.1934C84.4799 340.367 84.8523 339.958 85.3106 339.656C85.7742 339.354 86.2716 339.203 86.8028 339.203ZM93.6597 348.156C92.3159 348.156 91.2639 347.766 90.5034 346.984C89.7482 346.198 89.3706 345.117 89.3706 343.742C89.3706 342.331 89.7222 341.221 90.4253 340.414C91.1284 339.607 92.0946 339.203 93.3238 339.203C94.4644 339.203 95.3654 339.549 96.0269 340.242C96.6883 340.935 97.0191 341.888 97.0191 343.102V344.094H91.2613C91.2873 344.932 91.5139 345.578 91.9409 346.031C92.368 346.479 92.9696 346.703 93.7456 346.703C94.256 346.703 94.73 346.656 95.1675 346.562C95.6102 346.464 96.0842 346.302 96.5894 346.078V347.57C96.1415 347.784 95.6883 347.935 95.23 348.023C94.7717 348.112 94.2482 348.156 93.6597 348.156ZM93.3238 340.594C92.7404 340.594 92.2717 340.779 91.9175 341.148C91.5685 341.518 91.3602 342.057 91.2925 342.766H95.2144C95.204 342.052 95.0321 341.513 94.6988 341.148C94.3654 340.779 93.9071 340.594 93.3238 340.594ZM106.217 348H104.381V335.844H106.217V348ZM117.074 343.664C117.074 345.076 116.712 346.177 115.988 346.969C115.264 347.76 114.256 348.156 112.965 348.156C112.157 348.156 111.444 347.974 110.824 347.609C110.204 347.245 109.728 346.721 109.394 346.039C109.061 345.357 108.894 344.565 108.894 343.664C108.894 342.263 109.254 341.169 109.973 340.383C110.691 339.596 111.704 339.203 113.012 339.203C114.262 339.203 115.251 339.607 115.98 340.414C116.709 341.216 117.074 342.299 117.074 343.664ZM110.785 343.664C110.785 345.659 111.522 346.656 112.996 346.656C114.454 346.656 115.183 345.659 115.183 343.664C115.183 341.69 114.449 340.703 112.98 340.703C112.209 340.703 111.65 340.958 111.301 341.469C110.957 341.979 110.785 342.711 110.785 343.664ZM125.556 345.539C125.556 346.383 125.249 347.031 124.634 347.484C124.019 347.932 123.139 348.156 121.993 348.156C120.842 348.156 119.918 347.982 119.22 347.633V346.047C120.236 346.516 121.181 346.75 122.056 346.75C123.186 346.75 123.751 346.409 123.751 345.727C123.751 345.508 123.689 345.326 123.564 345.18C123.439 345.034 123.233 344.883 122.947 344.727C122.66 344.57 122.262 344.393 121.751 344.195C120.756 343.81 120.082 343.424 119.728 343.039C119.379 342.654 119.204 342.154 119.204 341.539C119.204 340.799 119.501 340.227 120.095 339.82C120.694 339.409 121.506 339.203 122.533 339.203C123.548 339.203 124.509 339.409 125.415 339.82L124.822 341.203C123.889 340.818 123.105 340.625 122.47 340.625C121.501 340.625 121.017 340.901 121.017 341.453C121.017 341.724 121.142 341.953 121.392 342.141C121.647 342.328 122.199 342.586 123.048 342.914C123.762 343.19 124.28 343.443 124.603 343.672C124.926 343.901 125.165 344.167 125.322 344.469C125.478 344.766 125.556 345.122 125.556 345.539ZM131.327 346.672C131.775 346.672 132.223 346.602 132.671 346.461V347.844C132.468 347.932 132.204 348.005 131.882 348.062C131.564 348.125 131.233 348.156 130.889 348.156C129.15 348.156 128.28 347.24 128.28 345.406V340.75H127.1V339.938L128.366 339.266L128.991 337.438H130.124V339.359H132.585V340.75H130.124V345.375C130.124 345.818 130.233 346.146 130.452 346.359C130.676 346.568 130.968 346.672 131.327 346.672ZM143.455 348.156C142.111 348.156 141.059 347.766 140.298 346.984C139.543 346.198 139.166 345.117 139.166 343.742C139.166 342.331 139.517 341.221 140.22 340.414C140.923 339.607 141.89 339.203 143.119 339.203C144.259 339.203 145.16 339.549 145.822 340.242C146.483 340.935 146.814 341.888 146.814 343.102V344.094H141.056C141.082 344.932 141.309 345.578 141.736 346.031C142.163 346.479 142.765 346.703 143.541 346.703C144.051 346.703 144.525 346.656 144.963 346.562C145.405 346.464 145.879 346.302 146.384 346.078V347.57C145.936 347.784 145.483 347.935 145.025 348.023C144.567 348.112 144.043 348.156 143.455 348.156ZM143.119 340.594C142.535 340.594 142.067 340.779 141.713 341.148C141.364 341.518 141.155 342.057 141.088 342.766H145.009C144.999 342.052 144.827 341.513 144.494 341.148C144.16 340.779 143.702 340.594 143.119 340.594ZM151.429 348L148.148 339.359H150.085L151.843 344.383C152.145 345.227 152.327 345.909 152.39 346.43H152.452C152.499 346.055 152.681 345.372 152.999 344.383L154.757 339.359H156.71L153.413 348H151.429ZM162.356 348.156C161.012 348.156 159.96 347.766 159.2 346.984C158.444 346.198 158.067 345.117 158.067 343.742C158.067 342.331 158.418 341.221 159.122 340.414C159.825 339.607 160.791 339.203 162.02 339.203C163.161 339.203 164.062 339.549 164.723 340.242C165.385 340.935 165.715 341.888 165.715 343.102V344.094H159.958C159.984 344.932 160.21 345.578 160.637 346.031C161.064 346.479 161.666 346.703 162.442 346.703C162.952 346.703 163.426 346.656 163.864 346.562C164.306 346.464 164.78 346.302 165.286 346.078V347.57C164.838 347.784 164.385 347.935 163.926 348.023C163.468 348.112 162.944 348.156 162.356 348.156ZM162.02 340.594C161.437 340.594 160.968 340.779 160.614 341.148C160.265 341.518 160.056 342.057 159.989 342.766H163.911C163.9 342.052 163.728 341.513 163.395 341.148C163.062 340.779 162.603 340.594 162.02 340.594ZM172.744 339.203C173.114 339.203 173.419 339.229 173.658 339.281L173.478 340.992C173.218 340.93 172.947 340.898 172.666 340.898C171.932 340.898 171.335 341.138 170.877 341.617C170.424 342.096 170.197 342.719 170.197 343.484V348H168.361V339.359H169.799L170.041 340.883H170.135C170.421 340.367 170.794 339.958 171.252 339.656C171.715 339.354 172.213 339.203 172.744 339.203ZM174.515 339.359H176.515L178.273 344.258C178.538 344.956 178.716 345.612 178.804 346.227H178.867C178.913 345.94 178.999 345.594 179.124 345.188C179.249 344.776 179.911 342.833 181.109 339.359H183.093L179.398 349.148C178.726 350.945 177.606 351.844 176.038 351.844C175.632 351.844 175.236 351.799 174.851 351.711V350.258C175.127 350.32 175.442 350.352 175.796 350.352C176.682 350.352 177.304 349.839 177.663 348.812L177.984 348L174.515 339.359ZM188.369 339.359H190.369L192.127 344.258C192.393 344.956 192.57 345.612 192.658 346.227H192.721C192.768 345.94 192.854 345.594 192.979 345.188C193.104 344.776 193.765 342.833 194.963 339.359H196.948L193.252 349.148C192.58 350.945 191.461 351.844 189.893 351.844C189.487 351.844 189.091 351.799 188.705 351.711V350.258C188.981 350.32 189.296 350.352 189.651 350.352C190.536 350.352 191.158 349.839 191.518 348.812L191.838 348L188.369 339.359ZM202.593 348.156C201.25 348.156 200.198 347.766 199.437 346.984C198.682 346.198 198.304 345.117 198.304 343.742C198.304 342.331 198.656 341.221 199.359 340.414C200.062 339.607 201.028 339.203 202.258 339.203C203.398 339.203 204.299 339.549 204.961 340.242C205.622 340.935 205.953 341.888 205.953 343.102V344.094H200.195C200.221 344.932 200.448 345.578 200.875 346.031C201.302 346.479 201.903 346.703 202.679 346.703C203.19 346.703 203.664 346.656 204.101 346.562C204.544 346.464 205.018 346.302 205.523 346.078V347.57C205.075 347.784 204.622 347.935 204.164 348.023C203.705 348.112 203.182 348.156 202.593 348.156ZM202.258 340.594C201.674 340.594 201.205 340.779 200.851 341.148C200.502 341.518 200.294 342.057 200.226 342.766H204.148C204.138 342.052 203.966 341.513 203.633 341.148C203.299 340.779 202.841 340.594 202.258 340.594ZM214.005 348L213.638 346.797H213.575C213.159 347.323 212.739 347.682 212.318 347.875C211.896 348.062 211.354 348.156 210.693 348.156C209.844 348.156 209.179 347.927 208.7 347.469C208.226 347.01 207.989 346.362 207.989 345.523C207.989 344.633 208.32 343.961 208.982 343.508C209.643 343.055 210.651 342.807 212.005 342.766L213.497 342.719V342.258C213.497 341.706 213.367 341.294 213.107 341.023C212.851 340.747 212.453 340.609 211.911 340.609C211.469 340.609 211.044 340.674 210.638 340.805C210.232 340.935 209.841 341.089 209.466 341.266L208.872 339.953C209.341 339.708 209.854 339.523 210.411 339.398C210.969 339.268 211.495 339.203 211.989 339.203C213.088 339.203 213.916 339.443 214.474 339.922C215.036 340.401 215.318 341.154 215.318 342.18V348H214.005ZM211.271 346.75C211.937 346.75 212.471 346.565 212.872 346.195C213.278 345.82 213.482 345.297 213.482 344.625V343.875L212.372 343.922C211.508 343.953 210.877 344.099 210.482 344.359C210.091 344.615 209.896 345.008 209.896 345.539C209.896 345.924 210.01 346.224 210.239 346.438C210.469 346.646 210.812 346.75 211.271 346.75ZM222.823 339.203C223.193 339.203 223.497 339.229 223.737 339.281L223.557 340.992C223.297 340.93 223.026 340.898 222.745 340.898C222.01 340.898 221.414 341.138 220.956 341.617C220.503 342.096 220.276 342.719 220.276 343.484V348H218.44V339.359H219.878L220.12 340.883H220.213C220.5 340.367 220.872 339.958 221.331 339.656C221.794 339.354 222.292 339.203 222.823 339.203ZM225.633 347.023C225.633 346.643 225.732 346.352 225.93 346.148C226.128 345.945 226.414 345.844 226.789 345.844C227.169 345.844 227.458 345.951 227.656 346.164C227.854 346.372 227.953 346.659 227.953 347.023C227.953 347.393 227.852 347.688 227.648 347.906C227.451 348.12 227.164 348.227 226.789 348.227C226.414 348.227 226.128 348.12 225.93 347.906C225.732 347.693 225.633 347.398 225.633 347.023Z" fill="#22BBDD"/>
<defs>
<linearGradient id="paint0_linear" x1="413.87" y1="198.124" x2="75.0919" y2="422.345" gradientUnits="userSpaceOnUse">
<stop stop-color="#24CBE5"/>
<stop offset="0.9375" stop-color="#22BBDD" stop-opacity="0.1"/>
</linearGradient>
<linearGradient id="paint1_linear" x1="436.59" y1="236.375" x2="173.945" y2="282.487" gradientUnits="userSpaceOnUse">
<stop stop-color="#24CBE5"/>
<stop offset="0.9375" stop-color="#22BBDD" stop-opacity="0.1"/>
</linearGradient>
<linearGradient id="paint2_linear" x1="347.932" y1="294.449" x2="24.4227" y2="404.938" gradientUnits="userSpaceOnUse">
<stop stop-color="#24CBE5"/>
<stop offset="0.9375" stop-color="#22BBDD" stop-opacity="0.1"/>
</linearGradient>
<radialGradient id="paint3_radial" cx="0" cy="0" r="1" gradientUnits="userSpaceOnUse" gradientTransform="translate(294.262 38.3401) rotate(161.552) scale(90.5537 90.6157)">
<stop stop-color="#1E394F"/>
<stop offset="1" stop-color="#112D3D"/>
</radialGradient>
<linearGradient id="paint4_linear" x1="377.928" y1="97.6576" x2="109.665" y2="205.435" gradientUnits="userSpaceOnUse">
<stop stop-color="#24CBE5"/>
<stop offset="0.9375" stop-color="#22BBDD" stop-opacity="0.1"/>
</linearGradient>
<radialGradient id="paint5_radial" cx="0" cy="0" r="1" gradientUnits="userSpaceOnUse" gradientTransform="translate(217.505 124.971) rotate(161.552) scale(90.5536 90.6157)">
<stop stop-color="#1E394F"/>
<stop offset="1" stop-color="#112D3D"/>
</radialGradient>
<linearGradient id="paint6_linear" x1="301.037" y1="184.197" x2="32.8923" y2="291.618" gradientUnits="userSpaceOnUse">
<stop stop-color="#24CBE5"/>
<stop offset="0.9375" stop-color="#22BBDD" stop-opacity="0.1"/>
</linearGradient>
</defs>
</svg>
