<svg width="854" height="243" viewBox="0 0 854 243" fill="none" xmlns="http://www.w3.org/2000/svg">
<path d="M813.665 129.232C809.325 143.664 859.564 160.374 830.592 176.65C808.999 188.803 774.603 188.586 750.622 192.601C729.898 196.073 708.304 199.003 688.448 206.598C649.276 221.681 612.818 232.857 569.74 233.617C516.789 234.593 468.611 197.05 420.325 197.592C369.001 198.135 318.979 245.769 262.338 241.538C250.186 240.67 233.367 239.585 223.71 231.012C217.199 225.262 215.572 218.426 207.217 214.411C187.902 205.079 157.737 209.853 137.555 210.07C107.498 210.288 73.2098 213.109 44.1298 204.32C-7.3028 188.694 58.3443 173.069 54.1125 159.831C50.8573 149.632 24.1644 146.811 10.601 140.843C-6.0007 133.573 0.943794 129.775 16.1349 125.652C54.7635 114.909 94.1518 121.311 131.695 103.842C181.934 80.4039 225.337 64.3448 281.761 64.9959C304.656 65.3214 326.901 63.3683 348.602 55.6642C371.714 47.4177 391.679 37.1095 415.226 37.0009C438.012 36.8924 460.256 46.1156 483.477 52.0835C506.372 57.9429 529.81 57.9429 553.247 56.4238C614.011 52.5175 670.869 58.1599 728.595 78.1253C763.643 90.2781 804.225 86.6974 837.754 101.888C881.266 121.528 817.029 118.165 813.665 129.232Z" stroke="url(#paint0_linear)" stroke-opacity="0.3" stroke-miterlimit="10"/>
<path d="M810.736 128.364C803.574 142.47 854.247 160.591 821.695 175.782C780.788 194.988 730.006 188.803 687.58 204.102C649.06 217.991 615.422 230.47 573.104 230.687C522.106 231.012 475.773 195.856 428.898 196.29C376.38 196.724 324.08 242.514 266.462 238.825C253.441 237.957 237.708 236.546 226.857 228.516C219.261 222.874 216.44 216.255 206.891 213C158.497 196.398 101.639 222.223 52.9191 202.692C7.8885 184.679 69.1953 172.527 60.1892 158.421C53.4617 147.787 29.807 147.461 15.3755 140.842C-0.900604 133.355 9.2991 129.666 22.8625 125.977C60.6232 115.669 98.7093 120.66 135.168 103.299C184.864 79.6441 227.508 65.3211 283.281 65.6466C305.85 65.7551 327.986 63.4765 349.362 55.9894C372.365 47.8514 392.548 37.9772 415.985 37.8687C438.663 37.7602 460.799 46.6578 483.803 52.5172C506.264 58.2681 529.05 58.4851 552.054 57.183C612.276 53.8193 667.94 58.0511 725.123 78.2335C759.412 90.2778 798.583 87.0226 831.678 101.454C874.538 119.792 816.27 117.513 810.736 128.364Z" stroke="url(#paint1_linear)" stroke-opacity="0.3" stroke-miterlimit="10"/>
<path d="M807.915 127.605C798.257 141.059 842.746 156.25 818.006 172.635C801.296 183.703 775.145 184.788 755.939 187.826C732.936 191.407 709.281 194.011 687.037 201.39C648.083 214.411 614.88 228.951 572.019 227.974C525.035 226.997 481.849 194.662 438.012 194.988C383.976 195.313 329.396 239.15 270.585 236.004C256.696 235.244 241.397 233.508 229.352 225.912C220.78 220.487 216.44 214.194 206.132 211.589C160.016 199.762 105.545 223.525 61.3826 200.739C23.839 181.316 79.6119 171.008 65.8314 156.902C56.1743 147.027 35.2323 148.329 21.1263 140.842C7.12887 133.464 13.2053 130.643 27.3113 126.411C64.6379 115.343 102.507 119.683 138.749 102.431C157.846 93.3161 175.641 83.2249 195.932 76.7144C227.182 66.6232 256.588 66.2977 289.031 65.8637C334.713 65.2126 374.861 38.3028 416.962 38.1943C460.69 38.0857 503.551 59.7873 551.186 57.4001C610.865 54.4704 665.227 57.4001 721.868 77.7995C755.288 89.8438 793.266 86.9142 825.71 100.478C867.702 118.056 815.619 116.971 807.915 127.605Z" stroke="url(#paint2_linear)" stroke-opacity="0.3" stroke-miterlimit="10"/>
<path d="M805.094 126.845C794.134 139.432 831.461 152.778 812.581 170.357C799.343 182.618 767.55 183.812 751.057 186.199C729.355 189.345 707.437 191.95 686.495 198.352C671.955 202.8 659.042 210.83 644.611 215.387C624.971 221.572 602.944 224.61 582.328 225.044C534.91 226.129 491.724 193.686 447.561 193.794C392.765 194.011 337.643 233.399 278.506 233.182C262.664 233.182 244.761 231.012 230.763 222.874C221.54 217.449 215.898 212.458 204.938 210.287C162.62 202.041 106.088 224.176 68.1103 197.592C43.5876 180.339 87.0991 166.667 71.1485 155.383C60.1892 147.57 -8.06203 138.672 33.8219 126.303C70.2804 115.56 107.064 118.707 142.221 101.454C160.993 92.3397 178.462 82.4655 198.536 76.172C229.353 66.5149 258.541 66.7319 290.442 65.9723C335.69 64.8873 375.946 38.737 417.83 38.5199C460.908 38.4114 503.443 59.4619 550.101 57.5088C609.02 55.0131 662.406 56.7492 718.287 77.2571C750.948 89.193 787.624 86.8058 819.525 99.6097C826.47 102.431 841.227 108.073 836.778 116.645C834.065 122.288 808.891 122.613 805.094 126.845Z" stroke="url(#paint3_linear)" stroke-opacity="0.3" stroke-miterlimit="10"/>
<path d="M802.381 126.194C789.143 137.913 823.865 152.887 805.093 169.055C791.639 180.665 768.526 181.099 751.925 183.486C729.789 186.633 707.111 188.694 685.518 195.096C670.327 199.545 657.306 208.117 642.441 213.109C623.235 219.728 601.099 222.006 580.917 222.006C537.514 221.789 498.126 192.601 457.11 192.601C400.469 192.709 343.068 229.927 282.521 230.253C265.594 230.361 247.473 228.083 232.282 220.162C222.299 215.062 215.572 210.722 204.07 208.985C167.286 203.669 107.281 223.959 77.0079 195.747C60.8402 180.665 93.3925 163.304 76.1398 154.189C63.2274 147.353 -2.63669 139.107 40.1153 126.303C75.7058 115.669 111.513 117.839 145.693 100.803C164.031 91.6888 181.392 82.1401 201.14 76.0637C231.631 66.732 260.603 67.6001 291.961 66.515C336.666 64.9959 377.031 39.4966 418.698 39.3881C461.125 39.2796 503.334 59.7876 549.124 58.1599C607.284 56.2068 659.693 56.7493 714.924 77.2572C746.825 89.0846 782.307 87.24 813.666 99.1758C819.525 101.454 836.127 107.639 832.22 116.103C829.942 121.311 806.179 122.83 802.381 126.194Z" stroke="url(#paint4_linear)" stroke-opacity="0.3" stroke-miterlimit="10"/>
<path d="M796.63 125C782.198 133.355 803.249 151.476 793.483 164.28C783.935 176.867 759.846 176.65 745.957 178.494C725.123 181.207 704.181 183.052 683.782 188.152C647.215 197.266 619.871 218.317 580.157 216.038C543.482 213.868 510.604 190.322 475.122 190.213C413.924 190.105 350.772 224.719 285.993 224.61C255.828 224.502 232.499 208.659 203.528 206.598C175.641 204.645 114.768 220.378 95.2371 193.251C85.7969 180.231 104.894 158.42 85.5799 152.236C71.908 147.787 9.19062 139.54 52.3766 126.194C86.448 115.668 120.302 116.211 152.963 99.3924C170.65 90.2777 187.469 81.3801 206.891 75.7377C236.514 67.1656 265.16 68.7932 295.542 67.2741C339.379 64.9955 379.961 40.9068 421.085 40.7983C463.512 40.6898 506.155 60.3296 551.728 59.0276C606.85 57.5084 656.33 57.5085 708.522 77.0398C739.446 88.5416 773.952 87.2395 804.225 99.0668C809.434 101.128 824.625 107.096 822.997 114.8C821.695 119.792 800.211 122.938 796.63 125Z" stroke="url(#paint5_linear)" stroke-opacity="0.3" stroke-miterlimit="10"/>
<path d="M793.483 124.349C777.967 132.053 795.762 151.585 785.345 163.412C776.664 173.178 756.699 173.829 745.089 175.239C723.93 177.843 702.554 179.254 681.829 184.028C647.54 191.949 619.437 213.868 582.87 212.891C548.039 211.915 516.355 188.694 482.392 188.586C419.675 188.369 354.679 220.921 288.597 221.355C258.215 221.572 233.15 206.598 203.419 205.079C178.137 203.777 119.217 217.774 102.724 191.19C93.6094 176.541 112.815 157.878 89.4861 151.151C75.3802 147.027 14.6159 139.323 57.8019 125.76C91.2222 115.235 124.209 115.126 156.218 98.4159C173.579 89.3012 190.29 80.7291 209.278 75.4123C238.358 67.2742 267.004 69.2274 296.736 67.3827C340.247 64.7785 380.72 41.3409 421.736 41.2324C463.512 41.1239 505.721 60.1127 550.426 59.1361C604.68 57.9426 653.4 57.0745 704.832 76.4974C735.106 87.8906 768.201 87.3481 798.04 98.3074C802.923 100.043 818.874 106.12 817.463 113.715C816.595 119.575 797.498 122.396 793.483 124.349Z" stroke="url(#paint6_linear)" stroke-opacity="0.3" stroke-miterlimit="10"/>
<path d="M786.973 123.156C769.612 129.883 781.656 146.594 772.975 157.661C766.682 165.799 749.863 167.21 740.966 168.404C719.807 171.116 698.431 171.442 677.272 175.348C644.177 181.533 613.252 206.056 579.289 205.405C565.943 205.188 556.611 200.305 544.675 195.314C527.206 188.152 511.147 184.463 493.026 184.354C429.223 184.029 362.383 212.566 295.434 214.411C264.292 215.279 236.188 202.149 205.155 201.39C184.539 200.847 129.851 211.264 117.698 186.85C108.909 168.946 125.728 155.925 97.1903 149.306C80.8056 145.509 25.7923 138.022 70.1719 124.675C102.29 115.018 133.106 112.739 163.271 96.5716C209.062 72.0489 249.535 71.5064 300.208 67.7086C342.96 64.4534 383.325 42.4264 424.015 42.3179C465.79 42.2094 508.217 60.3301 552.705 59.5706C603.595 58.811 650.036 56.9664 698.214 75.8467C726.426 86.9145 755.94 88.4336 784.694 97.0057C789.902 98.5248 807.589 103.733 807.155 111.871C806.721 118.924 791.747 121.311 786.973 123.156Z" stroke="url(#paint7_linear)" stroke-opacity="0.3" stroke-miterlimit="10"/>
<path d="M783.392 122.613C765.922 128.907 774.494 144.423 765.814 155.708C760.28 162.978 743.678 164.063 735.866 165.04C715.358 167.644 694.741 167.427 674.233 170.791C641.03 176.325 609.997 200.305 576.577 200.739C564.098 200.956 555.852 196.724 544.675 192.167C527.857 185.222 512.666 181.858 495.305 181.75C432.262 181.641 365.638 208.768 299.448 211.155C267.873 212.241 238.467 200.088 206.891 199.437C187.686 199.003 136.145 207.575 124.86 184.788C115.745 166.125 130.394 154.406 100.554 148.764C92.9585 147.353 63.336 146.702 58.7786 139.432C52.9192 130.1 68.6528 126.52 76.6824 124.132C107.933 114.909 137.447 111.546 166.635 95.8119C211.557 71.6148 252.139 72.1573 301.727 67.9255C344.045 64.3448 384.518 43.0773 424.883 42.9688C464.814 42.8603 505.721 59.8959 548.039 59.8959C599.58 60.0044 645.696 56.8577 694.741 75.6295C721.543 85.9377 749.104 88.4334 776.556 96.029C782.741 97.7651 802.272 102.431 801.621 111.98C801.187 118.49 787.949 120.986 783.392 122.613Z" stroke="url(#paint8_linear)" stroke-opacity="0.3" stroke-miterlimit="10"/>
<path d="M775.688 121.528C756.807 127.93 763.101 142.47 751.165 152.344C733.37 167.102 688.122 159.072 666.855 161.676C633 165.799 604.571 185.439 571.694 190.322C546.086 194.12 518.091 176.867 493.568 176.65C435.625 175.999 372.799 200.522 311.275 204.211C277.964 206.164 245.628 195.422 212.208 194.662C195.172 194.337 147.863 199.654 137.989 179.58C135.276 174.155 138.748 167.21 136.361 161.785C131.695 151.042 117.047 149.198 106.739 147.57C99.4687 146.377 72.0163 146.16 68.11 138.456C63.3357 129.124 84.4947 124.35 90.6796 122.613C119.977 114.15 146.669 108.833 173.796 94.2929C216.982 71.0723 257.89 73.0255 305.416 68.4682C347.083 64.4534 387.231 44.488 427.27 44.3795C464.814 44.271 503.551 59.896 542.939 60.6556C593.395 61.6322 640.053 56.3153 688.122 75.3041C713.73 85.3953 739.989 88.542 766.356 96.0291C785.67 101.237 801.621 112.739 775.688 121.528Z" stroke="url(#paint9_linear)" stroke-opacity="0.3" stroke-miterlimit="10"/>
<path d="M767.658 120.335C759.52 122.939 751.708 126.519 746.608 133.898C743.136 138.998 744.004 143.881 738.687 148.004C731.417 153.646 715.466 151.802 707.22 151.91C690.618 152.019 674.125 151.259 657.523 152.453C622.367 154.948 595.457 170.574 562.471 179.363C537.622 185.982 509.627 173.612 485.864 173.395C431.719 172.961 373.125 195.856 315.833 198.026C283.932 199.22 251.922 190.322 219.912 188.911C202.877 188.152 160.884 192.818 150.033 175.782C146.887 170.899 150.033 163.521 146.887 158.746C140.81 149.415 121.387 147.787 111.73 146.376C105.654 145.508 80.5885 144.315 78.9609 136.177C77.1163 126.737 100.879 121.745 107.064 120.009C133.432 112.414 156.652 105.686 180.849 92.5566C220.997 70.7466 261.471 73.4593 305.633 69.0105C347.843 64.7787 388.858 45.5729 429.44 45.5729C466.984 45.4644 505.721 60.2214 545.109 61.0894C592.202 62.1745 636.473 57.5087 681.286 74.7614C704.615 83.7675 728.053 87.9993 751.925 94.5098C765.705 98.0905 795.436 111.545 767.658 120.335Z" stroke="url(#paint10_linear)" stroke-opacity="0.3" stroke-miterlimit="10"/>
<path d="M763.643 119.683C756.156 121.853 747.15 125.434 741.725 132.053C737.819 136.828 738.578 142.036 733.044 145.942C715.683 158.312 672.172 147.244 652.315 148.112C616.724 149.523 590.248 163.303 557.371 173.937C532.197 182.075 504.744 172.418 480.222 172.418C429.549 172.31 375.512 192.275 322.235 194.879C289.791 196.507 256.805 187.501 224.144 185.764C207.759 184.896 166.852 189.779 155.242 174.371C151.661 169.597 154.482 162.218 151.01 157.661C144.608 148.98 123.449 147.353 114.009 145.834C108.692 144.966 84.9287 143.338 84.9287 135.091C84.9287 125.434 107.173 121.094 114.226 118.924C139.4 111.545 161.101 104.275 184.322 91.7969C223.71 70.5294 264.4 73.6761 307.478 69.1188C349.362 64.67 390.16 46.2237 430.525 46.1152C468.611 46.1152 508 60.5467 547.93 61.3063C592.744 62.2829 635.171 57.9426 677.814 74.4357C700.818 83.3333 723.93 87.7821 747.584 94.4011C758.109 97.2223 789.468 112.196 763.643 119.683Z" stroke="url(#paint11_linear)" stroke-opacity="0.3" stroke-miterlimit="10"/>
<path d="M755.289 118.164C748.561 120.117 739.772 123.156 734.238 128.256C729.464 132.487 728.379 138.021 722.953 141.602C705.05 153.321 661.972 140.842 642.332 140.408C606.199 139.649 579.723 150.066 547.171 163.52C520.804 174.48 494.653 170.682 467.309 171.008C421.845 171.442 375.295 187.067 328.745 188.694C296.844 189.779 265.051 180.339 233.042 179.037C214.27 178.278 176.943 184.571 162.837 168.403C158.497 163.412 160.776 158.529 154.591 153.538C146.127 146.702 129.851 145.834 119.76 143.881C87.6416 137.587 102.073 125.217 125.619 117.405C149.274 109.592 169.565 101.78 191.592 90.0609C229.352 70.0955 270.26 74.0017 311.384 69.1189C352.617 64.2361 393.09 47.2004 433.021 47.2004C468.937 47.0919 506.047 60.0043 543.373 61.5234C587.102 63.2595 629.311 58.1597 671.087 73.8933C691.812 81.7058 712.211 87.0227 733.478 92.8821C740.097 94.7267 779.269 111.437 755.289 118.164Z" stroke="url(#paint12_linear)" stroke-opacity="0.3" stroke-miterlimit="10"/>
<path d="M750.948 117.405C736.625 122.396 731.091 131.402 719.481 138.998C701.252 150.934 658.283 138.455 638.534 137.37C600.774 135.309 573.864 145.074 540.009 159.831C513.751 171.225 488.251 170.031 460.365 170.465C416.853 171.225 372.908 185.439 328.854 185.873C297.821 186.199 267.33 176.867 236.08 176.216C218.285 175.891 180.307 182.075 166.635 167.101C161.861 161.785 163.271 157.553 156.978 152.561C148.514 145.942 133.323 145.291 123.123 143.013C90.4626 135.743 116.287 122.071 134.842 115.777C156.435 108.616 174.881 100.044 194.955 89.627C230.98 70.9637 270.694 74.2189 309.865 69.8786C351.966 65.2128 393.416 48.0686 434.214 48.0686C468.503 47.9601 503.876 59.8959 539.358 61.8491C582.87 64.2362 625.947 58.1598 667.614 73.8934C688.014 81.5975 708.305 87.0228 729.138 93.0992C735.54 94.7269 772.215 109.918 750.948 117.405Z" stroke="url(#paint13_linear)" stroke-opacity="0.3" stroke-miterlimit="10"/>
<path d="M746.391 116.537C733.804 122.071 726.642 129.992 715.575 136.719C696.477 148.221 655.896 135.96 635.496 134.658C597.084 132.162 569.741 139.649 535.235 155.166C508.108 167.427 482.935 169.055 453.42 169.706C413.381 170.574 373.884 182.184 333.845 182.727C301.944 183.161 270.477 173.829 238.25 173.395C218.719 173.178 184.43 179.146 169.022 163.955C164.682 159.614 164.899 155.383 159.04 151.259C150.467 145.183 136.687 143.881 126.921 141.602C95.4541 134.332 131.153 118.165 143.957 113.716C163.597 106.988 180.307 98.0907 198.753 88.759C234.886 70.3127 276.228 74.3275 315.507 69.4447C355.981 64.3448 396.02 48.5027 435.517 48.5027C470.239 48.3942 506.264 60.2215 542.288 61.9577C583.738 64.0193 624.645 58.9194 664.359 73.4594C683.348 80.4039 702.12 86.1548 721.434 91.7972C726.534 93.4248 765.814 108.073 746.391 116.537Z" stroke="url(#paint14_linear)" stroke-opacity="0.3" stroke-miterlimit="10"/>
<path d="M736.408 114.909C729.138 120.443 718.179 127.062 708.739 132.27C688.773 143.338 652.64 132.379 631.59 130.751C593.07 127.713 562.362 131.511 527.314 147.461C498.342 160.699 472.409 167.427 440.942 168.403C407.196 169.488 372.691 177.192 338.402 176.867C305.742 176.541 273.515 169.271 240.528 169.163C220.563 169.054 189.313 174.588 173.254 159.723C161.318 148.763 151.769 144.098 136.036 138.889C113.249 131.294 148.08 115.126 155.459 112.196C173.254 105.143 188.77 95.9202 205.915 87.5652C240.637 70.638 281.978 74.6528 319.413 69.6614C359.236 64.3445 398.841 49.8045 437.687 49.8045C471.324 49.696 506.264 60.2213 540.986 62.3914C580.049 64.7786 619.437 60.0043 656.98 73.2422C668.699 77.1485 749.971 104.384 736.408 114.909Z" stroke="url(#paint15_linear)" stroke-opacity="0.3" stroke-miterlimit="10"/>
<path d="M725.34 113.064C722.085 117.405 709.824 123.915 702.879 127.387C681.937 137.804 652.423 129.666 630.071 128.038C592.419 125.217 557.371 126.845 521.997 141.059C491.072 153.538 464.38 164.497 431.393 165.69C402.313 166.667 371.931 171.007 342.092 170.573C307.912 170.139 273.949 165.907 239.769 165.582C219.695 165.365 193.762 169.597 177.052 156.793C173.145 153.755 170.975 148.221 166.309 144.966C160.667 140.951 152.854 139.323 147.429 135.417C132.672 125.109 202.334 91.4713 213.293 86.4799C246.93 71.0719 287.838 74.8696 323.754 69.8783C362.817 64.4529 401.771 51.1065 440.074 50.998C472.626 50.8895 506.263 60.4381 539.792 62.7168C576.685 65.2125 614.229 60.8722 649.819 72.808C663.057 77.1483 733.912 101.78 725.34 113.064Z" stroke="url(#paint16_linear)" stroke-opacity="0.3" stroke-miterlimit="10"/>
<path d="M719.372 112.088C709.39 132.162 662.406 129.232 630.179 126.954C592.636 124.458 556.611 125.869 520.912 138.781C489.228 150.174 461.884 162.544 428.464 163.629C399.709 164.606 369.653 167.536 340.139 167.644C306.176 167.753 272.321 164.497 238.467 164.063C219.912 163.846 194.196 167.753 178.896 155.274C175.533 152.562 173.471 146.702 169.782 143.447C165.116 139.432 157.846 137.587 154.157 133.464C144.174 122.179 205.047 91.1462 216.982 85.9378C249.318 71.9404 288.163 74.9786 322.56 70.3128C362.491 64.8874 402.422 51.541 441.485 51.541C474.579 51.4325 508.759 60.8726 542.831 63.0428C577.445 65.2129 612.927 61.4151 646.238 72.5914C661.321 77.5828 725.557 99.6098 719.372 112.088Z" stroke="url(#paint17_linear)" stroke-opacity="0.3" stroke-miterlimit="10"/>
<path d="M706.568 110.135C703.422 127.171 653.834 126.52 631.156 125.652C594.589 124.241 558.13 125.218 522.54 134.983C489.879 143.881 460.256 157.119 426.619 158.204C363.576 160.048 299.34 163.738 234.886 161.676C216.44 161.025 193.002 164.28 181.392 149.089C177.486 143.989 170.107 134.332 168.914 129.341C165.658 115.669 209.712 91.0376 224.252 85.2867C257.781 71.8318 298.797 74.9785 334.279 69.5531C370.955 64.0193 407.63 52.9515 443.655 52.8429C473.494 52.7344 504.202 60.33 534.801 62.9342C569.198 65.8639 605.114 61.9576 638.534 72.2658C656.438 77.7997 709.064 96.246 706.568 110.135Z" stroke="url(#paint18_linear)" stroke-opacity="0.3" stroke-miterlimit="10"/>
<path d="M692.571 108.073C695.175 125.109 642.766 124.566 632.892 124.675C596.867 124.783 560.734 125.76 525.252 132.704C490.53 139.54 457.218 151.91 422.279 152.995C359.561 154.948 295.759 163.846 231.522 159.506C215.789 158.42 193.002 161.242 187.577 145.508C186.275 141.71 185.515 128.364 186.166 124.892C189.313 108.724 215.789 90.7117 232.065 84.8523C262.773 73.893 299.448 75.5207 331.566 70.9633C369.978 65.4295 408.39 54.3617 446.15 54.2532C475.99 54.1447 506.698 61.1977 537.188 63.8018C568.33 66.406 600.882 63.8018 631.264 72.3739C650.579 77.5823 689.75 89.3011 692.571 108.073Z" stroke="url(#paint19_linear)" stroke-opacity="0.3" stroke-miterlimit="10"/>
<path d="M677.814 105.794C684.216 123.047 640.813 122.83 633.326 123.264C592.961 125.868 552.813 126.736 512.774 133.464C479.896 138.998 447.452 147.244 414.466 148.221C353.268 150.066 291.31 163.303 228.918 156.902C225.229 156.468 200.381 155.274 196.692 150.174C193.111 145.074 196.909 144.749 197.343 139.974C197.885 134.657 202.768 124.458 204.938 119.683C212.317 102.756 220.021 90.6034 239.878 84.31C272.755 73.8932 310.407 74.9783 344.262 69.6614C379.093 64.2361 414.141 55.3385 448.538 55.2299C477.292 55.1214 506.806 61.1979 536.212 63.9106C565.075 66.5147 595.24 64.5616 623.452 72.0486C643.417 77.3655 670.001 84.744 677.814 105.794Z" stroke="url(#paint20_linear)" stroke-opacity="0.3" stroke-miterlimit="10"/>
<path d="M662.514 103.299C668.482 116.211 636.581 120.117 630.722 120.985C590.574 126.628 549.667 126.953 509.302 132.27C474.254 136.827 439.531 143.121 404.375 144.097C346.866 145.617 287.729 162.435 230.003 153.972C191.7 148.329 213.944 135.851 224.686 114.692C233.801 96.7881 222.191 91.4712 248.124 84.4182C278.181 76.1717 310.624 75.7376 341.332 71.2888C378.008 65.8634 414.792 56.8573 450.925 56.6403C478.486 56.5318 506.806 61.8487 535.018 64.5614C561.819 67.0571 589.272 65.8635 615.531 72.2654C633.217 76.2802 655.787 88.7585 662.514 103.299Z" stroke="url(#paint21_linear)" stroke-opacity="0.3" stroke-miterlimit="10"/>
<path d="M647.215 100.586C650.144 111.328 633.868 115.126 624.428 117.188C586.885 125.326 546.954 125.977 508.868 129.992C470.564 134.006 432.153 138.889 393.85 139.866C344.045 141.168 285.125 161.35 235.646 149.089C203.636 141.168 241.505 123.915 244.543 109.375C247.582 94.9436 227.399 91.3629 256.913 84.2014C288.814 76.4974 322.56 75.0868 355.004 69.9869C387.773 64.8871 420.76 57.834 453.203 57.7255C479.679 57.617 506.806 62.1743 533.824 64.7785C558.456 67.1657 583.629 66.6232 607.718 72.1571C621.933 75.4123 643.96 88.4332 647.215 100.586Z" stroke="url(#paint22_linear)" stroke-opacity="0.3" stroke-miterlimit="10"/>
<path d="M639.836 99.0669C640.921 109.484 630.939 112.413 618.894 114.909C545.218 130.317 463.186 135.742 388.967 137.696C361.84 138.455 334.93 142.253 307.695 145.725C287.946 148.221 259.3 154.406 240.095 146.376C214.704 135.742 254.635 119.249 254.092 106.879C253.549 94.0756 231.197 91.2544 261.688 84.0929C293.155 76.7143 326.033 74.9782 357.934 70.0954C390.161 65.104 422.604 58.4851 454.505 58.3766C480.439 58.2681 507.023 62.4999 533.39 65.104C556.937 67.3827 581.134 67.0572 604.246 72.2655C616.29 74.9782 638.534 87.1311 639.836 99.0669Z" stroke="url(#paint23_linear)" stroke-opacity="0.3" stroke-miterlimit="10"/>
<path d="M619.762 94.9437C609.997 108.073 622.475 107.205 596.325 110.786C523.842 120.769 449.189 128.69 377.357 130.751C353.051 131.402 328.637 134.983 304.114 137.804C300.316 138.238 266.462 144.749 262.447 137.479C254.092 122.722 290.117 112.088 277.747 100.586C272.321 95.4863 261.579 94.6182 253.984 90.9289C271.019 76.823 310.624 78.3421 331.566 75.4124C373.559 69.6615 415.985 60.3298 457.544 60.2213C500.079 60.0043 550.86 62.717 593.287 72.4827C602.51 74.5443 630.939 80.0782 619.762 94.9437Z" stroke="url(#paint24_linear)" stroke-opacity="0.3" stroke-miterlimit="10"/>
<path d="M613.686 93.8585C601.859 105.794 612.167 107.205 588.295 110.026C517.657 118.49 445.282 126.085 375.295 128.038C352.183 128.689 328.854 131.619 305.525 134.549C301.835 134.983 276.011 140.951 271.887 134.549C264.617 123.481 303.788 109.267 284.583 98.8499C276.662 94.6181 265.702 94.9436 257.998 90.2778C282.304 79.5355 312.469 78.559 338.294 74.9782C378.442 69.4443 418.915 60.9808 458.629 60.7637C499.753 60.5467 548.799 62.9339 589.923 72.4825C598.495 74.5442 627.141 80.1866 613.686 93.8585Z" stroke="url(#paint25_linear)" stroke-opacity="0.3" stroke-miterlimit="10"/>
<path d="M602.184 91.7971C587.21 101.129 593.829 107.097 571.26 109.267C506.155 115.777 439.097 120.118 375.186 122.396C370.521 122.613 295.108 135.092 292.287 128.798C288.597 120.877 325.707 103.407 296.41 96.1374C286.97 93.7503 276.662 92.7737 266.787 90.929C285.885 79.4272 315.616 79.3187 337.534 76.172C378.55 70.4211 420.109 62.066 460.799 61.9575C499.536 61.849 544.892 63.6937 583.521 72.6998C590.465 74.4359 619.003 81.1634 602.184 91.7971Z" stroke="url(#paint26_linear)" stroke-opacity="0.3" stroke-miterlimit="10"/>
<path d="M587.102 89.3015C572.345 94.8354 566.919 106.554 548.256 108.941C494.219 115.56 437.47 115.994 384.301 117.73C364.878 118.381 343.068 123.807 323.211 123.373C331.567 104.927 333.303 98.5246 309.539 93.8588C300.967 92.2312 288.381 93.7503 280.351 90.278C301.835 80.6209 329.071 79.2103 352.074 75.9551C389.184 70.6382 426.728 64.0192 463.62 63.9107C498.777 63.8022 539.358 64.8873 574.298 73.3509C580.917 74.87 605.548 82.357 587.102 89.3015Z" stroke="url(#paint27_linear)" stroke-opacity="0.3" stroke-miterlimit="10"/>
<path d="M578.638 88.1079C563.989 92.2312 552.379 105.578 535.126 108.616C489.336 116.537 439.857 115.343 394.175 116.428C380.069 116.754 356.197 122.505 341.766 119.033C350.23 98.6331 331.566 95.3779 314.639 93.2078C306.61 92.2312 297.712 92.5567 289.465 90.6036C306.935 80.5124 333.085 79.7528 352.725 76.9316C390.16 71.5063 428.03 65.1043 465.248 64.9958C498.017 64.8873 535.452 65.6469 568.004 73.5679C574.84 75.1955 596.867 82.8995 578.638 88.1079Z" stroke="url(#paint28_linear)" stroke-opacity="0.3" stroke-miterlimit="10"/>
<path d="M571.151 87.131C556.069 90.7118 540.986 103.624 524.276 107.53C486.298 116.32 443.98 115.234 405.352 115.669C391.788 115.886 367.808 120.226 357.825 112.196C355.655 110.46 353.919 102.973 350.121 99.9349C342.092 93.533 328.42 93.75 318.871 92.8819C312.578 92.3394 304.114 92.9904 299.123 89.9522C318.112 81.2716 343.068 79.644 363.359 76.7143C397.756 71.7229 432.587 66.2976 466.984 66.1891C497.257 66.0806 532.305 66.2976 562.471 74.0016C568.547 75.4122 588.946 82.8992 571.151 87.131Z" stroke="url(#paint29_linear)" stroke-opacity="0.3" stroke-miterlimit="10"/>
<path d="M564.641 86.3719C548.799 89.9527 532.306 100.044 515.704 105.469C484.888 115.56 447.887 114.801 416.202 114.801C398.733 114.801 382.999 117.405 369.11 107.856C354.245 97.6567 342.2 93.3164 323.212 92.4483C318.22 92.2313 313.012 91.7973 308.563 90.0612C324.08 81.055 349.796 79.9699 366.832 77.3658C400.577 72.3744 434.757 67.3831 468.503 67.2746C496.498 67.1661 528.833 67.1661 556.503 74.2191C562.362 75.7382 581.785 82.4656 564.641 86.3719Z" stroke="url(#paint30_linear)" stroke-opacity="0.3" stroke-miterlimit="10"/>
<path d="M558.781 85.7206C514.51 96.5713 472.735 113.173 424.991 112.847C405.352 112.739 392.114 111.871 374.969 103.407C359.778 95.8118 344.696 92.5566 328.203 92.014C324.947 91.9055 321.475 91.363 318.437 90.0609C332.434 81.8143 355.004 80.5122 370.738 78.0166C403.615 73.0252 437.036 68.4679 469.914 68.3594C496.064 68.2509 525.144 68.0338 551.077 74.5443C557.045 76.1719 574.406 81.9228 558.781 85.7206Z" stroke="url(#paint31_linear)" stroke-opacity="0.3" stroke-miterlimit="10"/>
<path d="M553.464 85.1779C513.208 97.1138 471.216 109.375 430.091 109.267C397.431 109.158 366.94 95.9202 334.605 91.4714C331.783 91.1459 329.83 91.2544 329.071 89.1927C369.436 71.0719 428.355 69.7699 471.216 69.6614C494.979 69.5528 521.78 69.0103 545.218 75.0867C550.643 76.3888 567.679 81.0547 553.464 85.1779Z" stroke="url(#paint32_linear)" stroke-opacity="0.3" stroke-miterlimit="10"/>
<path d="M548.473 84.6356C513.859 91.6886 469.263 103.841 431.393 103.624C402.313 103.516 368.676 91.7972 342.417 90.7121C341.115 90.6036 339.922 90.278 339.488 89.0845C376.38 71.2892 432.696 70.8552 472.301 70.7467C492.809 70.6382 535.886 65.7553 553.139 81.0549C552.488 83.225 550.643 84.2016 548.473 84.6356Z" stroke="url(#paint33_linear)" stroke-opacity="0.3" stroke-miterlimit="10"/>
<path d="M543.482 84.0932C518.091 98.4162 469.697 99.1758 435.625 99.0673C409.041 98.9588 356.198 96.2461 351.857 89.8441C348.928 85.5038 459.931 71.9404 473.169 71.9404C492.592 71.8319 514.619 71.0723 533.825 75.9552C539.684 77.2573 550.209 80.2955 543.482 84.0932Z" stroke="url(#paint34_linear)" stroke-opacity="0.3" stroke-miterlimit="10"/>
<g opacity="0.4">
<path d="M657.54 193.221L655.445 196.642L619.161 93.0363C616.294 84.9818 603.28 78.5823 590.046 78.5823H263.604C250.37 78.5823 237.357 84.9818 234.489 93.0363L198.647 195.207L196 192.559V205.248C196 214.737 205.484 221.909 219.711 221.909H633.719C647.945 221.909 657.43 214.737 657.43 205.358V193.221H657.54Z" fill="#2395AE"/>
<path d="M619.161 80.7889L656.658 187.815C660.849 199.731 650.703 209.772 633.829 209.772H219.822C202.948 209.772 192.802 199.731 196.993 187.815L234.489 80.7889C237.357 72.7344 250.37 66.3349 263.604 66.3349H590.046C603.28 66.3349 616.294 72.7344 619.161 80.7889Z" fill="#A7EAFD"/>
<path d="M615.412 81.6716L651.475 186.601C655.114 197.193 645.96 206.131 630.962 206.131H222.689C207.69 206.131 198.537 197.304 202.176 186.601L238.239 81.6716C240.776 74.3894 252.355 68.6519 264.376 68.6519H589.384C601.295 68.6519 612.875 74.3894 615.412 81.6716Z" fill="url(#paint35_linear)"/>
<path opacity="0.2" d="M522.332 68.6519H264.266C252.355 68.6519 240.665 74.3894 238.129 81.6716L202.066 186.601C198.426 197.193 207.58 206.131 222.579 206.131H230.74C344.994 153.721 447.228 107.049 522.332 68.6519Z" fill="#22BBDD"/>
<path d="M236.254 119.627L229.747 139.708C229.526 140.37 228.534 140.922 227.651 140.922C226.659 140.922 226.107 140.37 226.328 139.708L232.945 119.627C233.166 119.075 234.048 118.524 234.93 118.524C235.813 118.524 236.474 119.075 236.254 119.627Z" fill="#320C54"/>
</g>
<path d="M435.014 128.295L433.505 130.657C432.212 128.295 429.84 126.149 426.606 124.217C415.179 117.562 396.853 117.562 385.426 124.002C382.192 125.719 380.036 127.866 378.527 130.227L376.802 128.081V133.233C376.586 137.526 379.389 142.034 385.21 145.468C396.637 152.123 414.963 152.123 426.39 145.683C431.996 142.463 435.014 138.17 435.014 133.877V128.295Z" fill="#63CCE3"/>
<path d="M426.39 140.102C414.963 146.542 396.422 146.542 385.21 139.887C373.783 133.233 373.999 122.714 385.21 116.059C396.637 109.619 415.179 109.619 426.39 116.274C437.817 122.929 437.817 133.447 426.39 140.102Z" fill="#3FC9E8"/>
<path d="M426.39 140.102C414.963 146.542 396.422 146.542 385.21 139.887C373.783 133.233 373.999 122.714 385.21 116.059C396.637 109.619 415.179 109.619 426.39 116.274C437.817 122.929 437.817 133.447 426.39 140.102Z" fill="url(#paint36_linear)"/>
<path d="M405.908 142.463C399.44 142.463 393.188 140.96 388.229 138.17C383.486 135.379 380.898 131.73 380.898 127.866C380.898 124.002 383.486 120.353 388.229 117.777C397.931 112.195 413.454 112.41 423.156 117.991C427.9 120.782 430.487 124.431 430.487 128.295C430.487 132.159 427.9 135.808 423.156 138.384C418.413 140.96 412.161 142.463 405.908 142.463ZM405.693 114.127C399.44 114.127 393.403 115.415 388.66 118.206C384.132 120.782 381.545 124.217 381.545 127.866C381.545 131.515 383.917 134.95 388.444 137.74C397.931 143.322 413.239 143.322 422.941 137.955C427.468 135.379 430.056 131.944 430.056 128.295C430.056 124.646 427.684 121.211 423.156 118.421C418.197 115.63 411.945 114.127 405.693 114.127Z" fill="#63CCE3"/>
<path d="M423.156 138.17C413.669 143.536 398.146 143.536 388.444 137.955C378.958 132.374 378.958 123.573 388.444 117.991C397.931 112.625 413.454 112.625 423.156 118.206C432.642 123.787 432.642 132.588 423.156 138.17Z" fill="url(#paint37_radial)"/>
<path d="M388.444 119.279C397.931 113.913 413.454 113.913 423.156 119.494C427.684 122.07 430.055 125.505 430.271 128.939C430.487 125.075 428.115 121.211 423.156 118.421C413.67 112.839 398.146 112.839 388.444 118.206C383.485 120.997 380.898 124.861 381.329 128.725C381.545 125.075 383.917 121.855 388.444 119.279Z" fill="#63CCE3"/>
<path d="M426.39 138.814C414.963 145.254 396.422 145.254 385.21 138.599C379.605 135.594 376.802 131.515 376.586 127.436C376.371 131.944 379.173 136.452 384.995 139.887C396.422 146.542 414.748 146.542 426.175 140.102C432.212 136.667 435.014 132.159 434.799 127.651C434.799 131.73 431.78 135.808 426.39 138.814Z" fill="#AFF1FF"/>
<g opacity="0.9">
<path d="M432.036 110.956L430.405 113.508C429.008 110.956 426.445 108.637 422.951 106.55C410.605 99.3599 390.805 99.3599 378.46 106.318C374.965 108.173 372.636 110.492 371.005 113.044L369.142 110.724V116.291C368.909 120.929 371.937 125.8 378.227 129.511C390.572 136.7 410.372 136.7 422.718 129.743C428.775 126.264 432.036 121.625 432.036 116.986V110.956Z" fill="#63CCE3"/>
<path d="M422.718 123.712C410.372 130.67 390.339 130.67 378.226 123.481C365.881 116.291 366.114 104.926 378.226 97.7365C390.572 90.7786 410.605 90.7786 422.718 97.9684C435.064 105.39 435.064 116.755 422.718 123.712Z" fill="#3FC9E8"/>
<path d="M422.718 123.712C410.372 130.67 390.339 130.67 378.226 123.481C365.881 116.291 366.114 104.926 378.226 97.7365C390.572 90.7786 410.605 90.7786 422.718 97.9684C435.064 105.39 435.064 116.755 422.718 123.712Z" fill="url(#paint38_linear)"/>
<path d="M400.589 126.264C393.6 126.264 386.845 124.64 381.487 121.625C376.363 118.61 373.567 114.667 373.567 110.492C373.567 106.318 376.363 102.375 381.487 99.5918C391.97 93.5616 408.741 93.7936 419.224 99.8237C424.348 102.839 427.144 106.782 427.144 110.956C427.144 115.131 424.348 119.074 419.224 121.857C414.099 124.872 407.344 126.264 400.589 126.264ZM400.356 95.8809C393.6 95.8809 387.078 97.2725 381.953 100.288C377.061 103.071 374.266 106.782 374.266 110.724C374.266 114.667 376.829 118.378 381.72 121.393C391.97 127.423 408.509 127.423 418.991 121.625C423.883 118.842 426.678 115.131 426.678 111.188C426.678 107.245 424.116 103.535 419.224 100.519C414.099 97.5044 407.111 95.8809 400.356 95.8809Z" fill="#63CCE3"/>
<path d="M419.224 121.857C408.975 127.655 392.203 127.655 381.721 121.625C371.471 115.595 371.471 106.086 381.721 100.056C391.97 94.2574 408.742 94.2574 419.224 100.288C429.707 106.318 429.474 115.827 419.224 121.857Z" fill="url(#paint39_radial)"/>
<path d="M381.954 101.215C392.203 95.4171 408.975 95.4171 419.457 101.447C424.349 104.23 426.911 107.941 427.144 111.652C427.377 107.477 424.815 103.303 419.457 100.288C408.975 94.2574 392.203 94.2574 381.954 100.056C376.596 103.071 373.801 107.245 374.266 111.42C374.266 107.709 377.062 103.998 381.954 101.215Z" fill="#63CCE3"/>
<path d="M422.718 122.553C410.372 129.511 390.339 129.511 378.227 122.321C372.403 118.842 369.375 114.435 369.142 110.029C368.909 114.899 371.937 119.77 378.227 123.48C390.572 130.67 410.372 130.67 422.718 123.712C429.241 120.001 432.269 115.131 432.036 110.26C431.803 114.899 428.775 119.306 422.718 122.553Z" fill="#AFF1FF"/>
</g>
<path d="M478.35 156.416L476.841 158.777C475.548 156.416 473.176 154.27 469.942 152.338C458.515 145.683 440.189 145.683 428.762 152.123C425.528 153.84 423.372 155.987 421.863 158.348L420.138 156.201V161.353C419.922 165.647 422.725 170.155 428.546 173.589C439.973 180.244 458.3 180.244 469.726 173.804C475.332 170.584 478.35 166.291 478.35 161.997V156.416Z" fill="#63CCE3"/>
<path d="M478.466 156.476C478.508 147.228 465.51 139.674 449.435 139.602C433.36 139.53 420.295 146.968 420.254 156.216C420.212 165.463 433.21 173.018 449.284 173.089C465.359 173.161 478.425 165.723 478.466 156.476Z" fill="#3FC9E8"/>
<path d="M469.942 168.223C458.515 174.663 439.973 174.663 428.762 168.008C417.335 161.354 417.551 150.835 428.762 144.18C440.189 137.74 458.731 137.74 469.942 144.395C481.369 151.264 481.369 161.783 469.942 168.223Z" fill="url(#paint40_linear)"/>
<path d="M449.46 170.584C442.992 170.584 436.74 169.082 431.781 166.291C427.038 163.5 424.45 159.851 424.45 155.987C424.45 152.123 427.038 148.474 431.781 145.898C441.483 140.316 457.006 140.531 466.708 146.112C471.452 148.903 474.039 152.552 474.039 156.416C474.039 160.28 471.452 163.93 466.708 166.506C461.965 169.296 455.713 170.584 449.46 170.584ZM449.245 142.463C442.992 142.463 436.955 143.751 432.212 146.542C427.684 149.118 425.097 152.552 425.097 156.202C425.097 159.851 427.469 163.286 431.996 166.076C441.483 171.658 456.791 171.658 466.493 166.291C471.02 163.715 473.608 160.28 473.608 156.631C473.608 152.982 471.236 149.547 466.708 146.756C461.749 143.966 455.497 142.463 449.245 142.463Z" fill="#63CCE3"/>
<path d="M466.493 166.291C457.006 171.658 441.483 171.658 431.781 166.076C422.294 160.495 422.294 151.694 431.781 146.112C441.267 140.746 456.79 140.746 466.493 146.327C476.195 151.908 476.195 160.924 466.493 166.291Z" fill="url(#paint41_radial)"/>
<path d="M431.996 147.4C441.483 142.034 457.006 142.034 466.708 147.615C471.236 150.191 473.607 153.626 473.823 157.06C474.038 153.196 471.667 149.332 466.708 146.542C457.222 140.96 441.698 140.96 431.996 146.327C427.037 149.118 424.45 152.982 424.881 156.846C425.097 153.411 427.468 149.976 431.996 147.4Z" fill="#63CCE3"/>
<path d="M469.942 167.15C458.515 173.59 439.974 173.59 428.762 166.935C423.372 163.715 420.569 159.636 420.354 155.558C420.138 160.066 422.941 164.574 428.762 168.008C440.189 174.663 458.515 174.663 469.942 168.223C475.979 164.788 478.782 160.28 478.566 155.772C478.135 160.066 475.332 164.144 469.942 167.15Z" fill="#AFF1FF"/>
<g opacity="0.9">
<path d="M420.138 166.506L418.629 168.867C417.335 166.506 414.963 164.359 411.729 162.427C400.302 155.773 381.976 155.773 370.549 162.213C367.315 163.93 365.159 166.077 363.65 168.438L361.925 166.291V171.443C361.71 175.736 364.512 180.244 370.334 183.679C381.761 190.334 400.087 190.334 411.514 183.894C417.119 180.674 420.138 176.38 420.138 172.087V166.506Z" fill="#63CCE3"/>
<path d="M420.125 166.628C420.167 157.381 407.169 149.826 391.095 149.754C375.02 149.682 361.955 157.121 361.913 166.368C361.871 175.615 374.869 183.17 390.944 183.242C407.019 183.314 420.084 175.875 420.125 166.628Z" fill="#3FC9E8"/>
<path d="M411.514 178.312C400.087 184.752 381.545 184.752 370.334 178.098C358.907 171.443 359.123 160.925 370.334 154.27C381.761 147.83 400.303 147.83 411.514 154.485C422.941 161.139 422.941 171.872 411.514 178.312Z" fill="url(#paint42_linear)"/>
<path d="M391.032 180.674C384.564 180.674 378.311 179.171 373.352 176.381C368.609 173.59 366.022 169.941 366.022 166.077C366.022 162.213 368.609 158.563 373.352 155.987C383.055 150.406 398.578 150.621 408.28 156.202C413.023 158.993 415.61 162.642 415.61 166.506C415.61 170.37 413.023 174.019 408.28 176.595C403.537 179.386 397.284 180.674 391.032 180.674ZM390.816 152.553C384.564 152.553 378.527 153.841 373.784 156.631C369.256 159.207 366.669 162.642 366.669 166.291C366.669 169.941 369.04 173.375 373.568 176.166C383.055 181.747 398.362 181.747 408.064 176.381C412.592 173.805 415.179 170.37 415.179 166.721C415.179 163.071 412.808 159.637 408.28 156.846C403.321 154.055 397.069 152.553 390.816 152.553Z" fill="#63CCE3"/>
<path d="M408.28 176.38C398.793 181.747 383.27 181.747 373.568 176.166C364.081 170.584 364.081 161.783 373.568 156.202C383.054 150.835 398.578 150.835 408.28 156.417C417.766 161.998 417.766 171.014 408.28 176.38Z" fill="url(#paint43_radial)"/>
<path d="M373.568 157.49C383.054 152.123 398.578 152.123 408.28 157.705C412.807 160.281 415.179 163.715 415.395 167.15C415.61 163.286 413.239 159.422 408.28 156.631C398.793 151.05 383.27 151.05 373.568 156.417C368.609 159.207 366.022 163.071 366.453 166.935C366.669 163.501 369.04 160.066 373.568 157.49Z" fill="#63CCE3"/>
<path d="M411.514 177.239C400.087 183.679 381.545 183.679 370.334 177.024C364.944 173.804 362.141 169.726 361.925 165.647C361.71 170.155 364.512 174.663 370.334 178.098C381.761 184.752 400.087 184.752 411.514 178.312C417.551 174.878 420.353 170.37 420.138 165.862C419.922 170.155 416.904 174.234 411.514 177.239Z" fill="#AFF1FF"/>
</g>
<path d="M447.735 155.772L446.226 158.134C444.932 155.772 442.561 153.626 439.327 151.694C427.9 145.039 409.574 145.039 398.147 151.479C394.913 153.197 392.757 155.343 391.247 157.704L389.523 155.558V160.71C389.307 165.003 392.11 169.511 397.931 172.946C409.358 179.6 427.684 179.6 439.111 173.16C444.717 169.94 447.735 165.647 447.735 161.354V155.772Z" fill="#63CCE3"/>
<path d="M447.683 155.955C447.724 146.707 434.727 139.153 418.652 139.081C402.577 139.009 389.512 146.447 389.47 155.695C389.429 164.942 402.426 172.497 418.501 172.569C434.576 172.641 447.641 165.202 447.683 155.955Z" fill="#3FC9E8"/>
<path d="M439.111 167.579C427.684 174.019 409.142 174.019 397.931 167.364C386.504 160.71 386.72 150.191 397.931 143.537C409.358 137.097 427.9 137.097 439.111 143.751C450.538 150.621 450.538 161.139 439.111 167.579Z" fill="url(#paint44_linear)"/>
<path d="M418.629 169.94C412.161 169.94 405.908 168.438 400.949 165.647C396.206 162.856 393.619 159.207 393.619 155.343C393.619 151.479 396.206 147.83 400.949 145.254C410.651 139.672 426.175 139.887 435.877 145.468C440.62 148.259 443.207 151.908 443.207 155.772C443.207 159.636 440.62 163.286 435.877 165.862C431.134 168.652 424.881 169.94 418.629 169.94ZM418.413 141.819C412.161 141.819 406.124 143.107 401.381 145.898C396.853 148.474 394.266 151.908 394.266 155.558C394.266 159.207 396.637 162.642 401.165 165.432C410.651 171.014 425.959 171.014 435.661 165.647C440.189 163.071 442.776 159.636 442.776 155.987C442.776 152.338 440.404 148.903 435.877 146.112C430.918 143.322 424.666 141.819 418.413 141.819Z" fill="#63CCE3"/>
<path d="M435.877 165.647C426.39 171.014 410.867 171.014 401.165 165.432C391.679 159.851 391.679 151.05 401.165 145.469C410.652 140.102 426.175 140.102 435.877 145.683C445.363 151.479 445.363 160.28 435.877 165.647Z" fill="url(#paint45_radial)"/>
<path d="M401.165 146.756C410.652 141.39 426.175 141.39 435.877 146.971C440.405 149.547 442.776 152.982 442.992 156.416C443.207 152.552 440.836 148.688 435.877 145.898C426.39 140.317 410.867 140.317 401.165 145.683C396.206 148.474 393.619 152.338 394.05 156.202C394.266 152.767 396.637 149.332 401.165 146.756Z" fill="#63CCE3"/>
<path d="M439.111 166.506C427.684 172.946 409.142 172.946 397.931 166.291C392.541 163.071 389.738 158.992 389.523 154.914C389.307 159.422 392.11 163.93 397.931 167.364C409.358 174.019 427.684 174.019 439.111 167.579C445.148 164.144 447.951 159.636 447.735 155.128C447.519 159.422 444.501 163.5 439.111 166.506Z" fill="#AFF1FF"/>
<path d="M455.281 149.976L453.772 152.337C452.478 149.976 450.106 147.83 446.872 145.898C435.445 139.243 417.119 139.243 405.692 145.683C402.458 147.4 400.302 149.547 398.793 151.908L397.068 149.761V154.913C396.853 159.207 399.656 163.715 405.477 167.149C416.904 173.804 435.23 173.804 446.657 167.364C452.262 164.144 455.281 159.851 455.281 155.557V149.976Z" fill="#63CCE3"/>
<path d="M446.657 161.783C435.23 168.223 416.689 168.223 405.477 161.568C394.266 154.913 394.266 144.395 405.477 137.74C416.689 131.086 435.446 131.3 446.657 137.955C458.084 144.824 458.084 155.343 446.657 161.783Z" fill="#3FC9E8"/>
<path d="M446.657 161.783C435.23 168.223 416.689 168.223 405.477 161.568C394.266 154.913 394.266 144.395 405.477 137.74C416.689 131.086 435.446 131.3 446.657 137.955C458.084 144.824 458.084 155.343 446.657 161.783Z" fill="url(#paint46_linear)"/>
<path d="M426.174 164.144C419.706 164.144 413.454 162.642 408.495 159.851C403.752 157.06 401.165 153.411 401.165 149.547C401.165 145.683 403.752 142.034 408.495 139.458C418.197 133.876 433.721 134.091 443.423 139.672C448.166 142.463 450.753 146.112 450.753 149.976C450.753 153.84 448.166 157.49 443.423 160.066C438.679 162.856 432.427 164.144 426.174 164.144ZM425.959 136.023C419.706 136.023 413.67 137.311 408.926 140.102C404.399 142.678 401.811 146.112 401.811 149.762C401.811 153.411 404.183 156.846 408.711 159.636C418.197 165.217 433.505 165.217 443.207 159.851C447.735 157.275 450.322 153.84 450.322 150.191C450.322 146.542 447.95 143.107 443.423 140.316C438.464 137.526 432.211 136.023 425.959 136.023Z" fill="#63CCE3"/>
<path d="M443.423 159.851C433.936 165.217 418.413 165.217 408.711 159.636C399.224 154.055 399.224 145.254 408.711 139.672C418.197 134.306 433.721 134.306 443.423 139.887C452.909 145.468 452.909 154.484 443.423 159.851Z" fill="url(#paint47_radial)"/>
<path d="M408.71 140.96C418.197 135.594 433.72 135.594 443.422 141.175C447.95 143.751 450.322 147.186 450.537 150.62C450.753 146.756 448.381 142.892 443.422 140.102C433.936 134.52 418.413 134.52 408.71 139.887C403.752 142.678 401.164 146.542 401.596 150.406C401.811 146.971 404.183 143.536 408.71 140.96Z" fill="#63CCE3"/>
<path d="M446.657 160.709C435.23 167.149 416.688 167.149 405.477 160.495C400.087 157.275 397.284 153.196 397.068 149.117C396.853 153.625 399.656 158.133 405.477 161.568C416.904 168.223 435.23 168.223 446.657 161.783C452.694 158.348 455.496 153.84 455.281 149.332C455.065 153.625 452.047 157.704 446.657 160.709Z" fill="#AFF1FF"/>
<g opacity="0.9">
<path d="M452.767 130.207L451.137 132.758C449.739 130.207 447.177 127.887 443.683 125.8C431.337 118.61 411.537 118.61 399.191 125.568C395.697 127.423 393.368 129.743 391.737 132.294L389.873 129.975V135.541C389.641 140.179 392.669 145.05 398.958 148.761C411.304 155.951 431.104 155.951 443.45 148.993C449.506 145.514 452.767 140.875 452.767 136.237V130.207Z" fill="#63CCE3"/>
<path d="M452.857 130.28C452.902 120.289 438.859 112.127 421.491 112.049C404.123 111.972 390.008 120.008 389.963 129.999C389.918 139.99 403.96 148.153 421.328 148.23C438.696 148.308 452.812 140.272 452.857 130.28Z" fill="#3FC9E8"/>
<path d="M443.45 142.962C431.104 149.92 411.071 149.92 398.958 142.731C386.613 135.541 386.845 124.176 398.958 116.986C411.304 110.029 431.337 110.029 443.45 117.218C456.029 124.64 455.796 136.005 443.45 142.962Z" fill="url(#paint48_linear)"/>
<path d="M421.554 145.514C414.566 145.514 407.81 143.89 402.453 140.875C397.328 137.86 394.533 133.917 394.533 129.743C394.533 125.568 397.328 121.625 402.453 118.842C412.935 112.812 429.707 113.044 440.189 119.074C445.314 122.089 448.109 126.032 448.109 130.206C448.109 134.381 445.314 138.324 440.189 141.107C435.064 144.122 428.309 145.514 421.554 145.514ZM421.088 115.131C414.333 115.131 407.81 116.523 402.686 119.538C397.794 122.321 394.998 126.032 394.998 129.975C394.998 133.917 397.561 137.628 402.453 140.643C412.702 146.673 429.241 146.673 439.723 140.875C444.615 138.092 447.41 134.381 447.41 130.438C447.41 126.496 444.848 122.785 439.956 119.77C434.831 116.755 428.076 115.131 421.088 115.131Z" fill="#63CCE3"/>
<path d="M439.956 140.875C429.707 146.673 412.935 146.673 402.453 140.643C392.203 134.613 392.203 125.104 402.453 119.074C412.702 113.276 429.474 113.276 439.956 119.306C450.438 125.336 450.438 135.077 439.956 140.875Z" fill="url(#paint49_radial)"/>
<path d="M402.685 120.465C412.934 114.667 429.706 114.667 440.189 120.697C445.08 123.48 447.643 127.191 447.876 130.902C448.109 126.727 445.546 122.553 440.189 119.538C429.939 113.507 413.167 113.507 402.685 119.306C397.327 122.321 394.532 126.495 394.998 130.67C395.231 126.959 397.793 123.248 402.685 120.465Z" fill="#63CCE3"/>
<path d="M443.683 141.803C431.337 148.761 411.304 148.761 399.191 141.571C393.368 138.092 390.34 133.685 390.107 129.279C389.874 134.149 392.902 139.02 399.191 142.731C411.537 149.92 431.337 149.92 443.683 142.962C450.205 139.252 453.234 134.381 453.001 129.511C452.535 134.149 449.507 138.556 443.683 141.803Z" fill="#AFF1FF"/>
</g>
<path d="M474.664 135.309L472.335 137.396C471.403 134.613 469.54 131.83 466.511 129.047C456.029 119.538 436.462 115.363 422.951 119.77C419.224 120.93 416.429 122.785 414.333 124.872L412.935 122.089L411.77 127.424C410.606 132.062 412.702 137.396 418.06 142.035C428.542 151.544 448.109 155.719 461.62 151.312C468.375 149.225 472.335 145.282 473.267 140.643L474.664 135.309Z" fill="#63CCE3"/>
<path d="M463.017 145.978C449.506 150.384 429.939 146.21 419.457 136.701C408.975 127.192 411.304 116.059 424.815 111.652C438.325 107.246 457.892 111.42 468.374 120.929C478.857 130.207 476.527 141.571 463.017 145.978Z" fill="#3FC9E8"/>
<path d="M463.017 145.978C449.506 150.384 429.939 146.21 419.457 136.701C408.975 127.192 411.304 116.059 424.815 111.652C438.325 107.246 457.892 111.42 468.374 120.929C478.857 130.207 476.527 141.571 463.017 145.978Z" fill="url(#paint50_linear)"/>
<path d="M440.654 143.89C433.899 142.499 427.377 139.484 422.951 135.541C418.525 131.598 416.662 127.192 417.593 123.249C418.525 119.074 422.019 116.059 427.61 114.204C439.024 110.493 455.563 113.972 464.414 122.089C468.84 126.032 470.704 130.439 469.772 134.381C468.84 138.556 465.346 141.571 459.756 143.427C454.398 145.282 447.41 145.282 440.654 143.89ZM446.711 113.972C440.189 112.58 433.433 112.58 427.843 114.435C422.485 116.059 418.991 119.306 418.292 123.249C417.36 127.192 419.224 131.366 423.417 135.077C432.269 142.963 448.574 146.442 459.756 142.731C465.113 141.107 468.607 137.86 469.306 133.918C470.238 129.975 468.374 125.8 464.181 122.089C459.756 118.378 453.466 115.363 446.711 113.972Z" fill="#63CCE3"/>
<path d="M459.756 143.195C448.342 146.906 432.036 143.427 423.184 135.309C414.333 127.192 416.429 117.914 427.61 114.204C439.024 110.493 455.33 113.972 464.182 122.089C473.267 129.975 471.17 139.484 459.756 143.195Z" fill="url(#paint51_radial)"/>
<path d="M427.61 115.595C439.024 111.884 455.33 115.363 464.182 123.481C468.374 127.192 470.238 131.366 469.539 135.077C470.704 131.134 469.073 126.496 464.414 122.321C455.563 114.436 439.257 110.957 427.843 114.436C421.786 116.291 418.525 120.002 417.826 123.945C418.758 120.234 422.019 117.219 427.61 115.595Z" fill="#63CCE3"/>
<path d="M463.25 144.818C449.739 149.225 430.172 145.05 419.69 135.541C414.565 130.903 412.469 126.032 413.168 121.625C411.77 126.264 413.867 131.598 419.457 136.701C429.939 146.21 449.506 150.385 463.017 145.978C470.005 143.659 474.198 139.484 474.897 134.845C473.499 139.02 469.539 142.731 463.25 144.818Z" fill="#AFF1FF"/>
<path d="M489.267 92.4907L486.471 93.8823C486.471 90.8672 485.307 87.6202 483.443 84.1413C476.222 71.849 458.984 62.108 444.775 62.108C440.815 62.108 437.554 62.8038 434.991 64.1954L434.525 61.1803L431.73 66.0508C429.168 69.9936 429.634 75.7918 433.128 82.0539C440.349 94.3461 457.587 104.087 471.796 104.087C479.017 104.087 483.909 101.536 486.238 97.5931L489.267 92.4907Z" fill="#63CCE3"/>
<path d="M489.086 92.5051C494.067 83.8309 485.88 69.8418 470.802 61.2597C455.723 52.6775 439.462 52.7522 434.482 61.4264C429.502 70.1007 437.688 84.0898 452.767 92.6719C467.845 101.254 484.106 101.179 489.086 92.5051Z" fill="#3FC9E8"/>
<path d="M474.824 98.9848C460.615 98.9848 443.377 89.2437 436.156 76.9515C428.935 64.6593 434.759 54.6863 448.968 54.6863C463.177 54.6863 480.415 64.4274 487.636 76.7196C494.624 89.0118 489.034 98.9848 474.824 98.9848Z" fill="url(#paint52_linear)"/>
<path d="M454.326 90.4035C448.269 86.9245 443.144 82.2859 440.116 77.1835C437.088 72.0811 436.622 67.4425 438.719 63.7316C440.815 60.0208 445.241 58.1653 451.064 58.1653C463.177 58.1653 477.853 66.5148 483.676 76.7197C486.704 81.8221 487.17 86.4607 485.074 90.1715C482.977 93.8824 478.551 95.7378 472.728 95.7378C466.672 95.7378 460.149 93.8824 454.326 90.4035ZM469.001 63.9636C463.177 60.7166 456.655 58.6292 450.832 58.6292C445.241 58.6292 441.048 60.4846 438.952 63.9636C437.088 67.4425 437.554 72.0811 440.349 76.9516C446.406 87.1565 460.848 95.274 472.728 95.274C478.319 95.274 482.511 93.4185 484.608 89.9396C486.471 86.4607 486.006 81.8221 483.21 76.9516C480.182 71.8492 475.057 67.2106 469.001 63.9636Z" fill="#63CCE3"/>
<path d="M472.728 95.5059C460.848 95.5059 446.172 87.3884 440.116 76.9516C434.059 66.7467 438.951 58.3973 450.831 58.1653C462.711 58.1653 477.386 66.2829 483.443 76.7197C489.499 87.1565 484.608 95.5059 472.728 95.5059Z" fill="url(#paint53_radial)"/>
<path d="M450.365 59.5569C462.245 59.5569 476.921 67.6744 482.977 78.1112C485.772 82.9817 486.238 87.3883 484.608 90.6353C486.937 87.1564 486.704 82.2859 483.676 76.9515C477.62 66.7467 463.177 58.3972 451.064 58.3972C444.775 58.3972 440.582 60.7165 438.718 64.4274C440.582 61.4123 444.542 59.5569 450.365 59.5569Z" fill="#63CCE3"/>
<path d="M475.29 98.0571C461.081 98.0571 443.843 88.3161 436.622 76.0239C433.128 70.2256 432.662 64.8913 434.758 60.9485C432.196 65.1232 432.429 70.6895 436.156 77.1835C443.377 89.4757 460.615 99.2168 474.824 99.2168C482.278 99.2168 487.403 96.4336 489.5 92.027C486.937 95.7378 482.045 98.0571 475.29 98.0571Z" fill="#AFF1FF"/>
<path d="M420.389 58.0767L420.156 61.0917C417.594 59.7002 414.332 58.7724 410.139 58.7724C395.93 58.5405 378.46 68.2815 371.238 80.5738C369.142 84.0527 368.21 87.0678 367.977 90.0828L365.182 88.9232L367.977 93.7937C370.307 97.9684 375.198 100.52 382.42 100.752C396.629 100.984 414.099 91.2425 421.321 78.9503C425.048 72.9201 425.281 67.3538 423.184 63.1791L420.389 58.0767Z" fill="#63CCE3"/>
<path d="M418.758 73.8478C411.537 85.9081 394.067 95.6491 379.857 95.6491C365.648 95.4172 360.057 85.4442 367.278 73.3839C374.5 61.3237 391.97 51.5826 406.179 51.5826C420.389 51.5826 425.979 61.5556 418.758 73.8478Z" fill="#3FC9E8"/>
<path d="M418.758 73.8478C411.537 85.9081 394.067 95.6491 379.857 95.6491C365.648 95.4172 360.057 85.4442 367.278 73.3839C374.5 61.3237 391.97 51.5826 406.179 51.5826C420.389 51.5826 425.979 61.5556 418.758 73.8478Z" fill="url(#paint54_linear)"/>
<path d="M400.822 86.8358C394.766 90.3147 388.01 92.1702 381.954 92.1702C376.13 92.1702 371.704 90.0828 369.608 86.3719C367.512 82.6611 367.977 78.0225 371.006 72.9201C377.062 62.7152 391.97 54.3657 403.85 54.5977C409.674 54.5977 414.1 56.685 416.196 60.3959C418.293 64.1068 417.827 68.7453 414.799 73.8478C411.77 78.9502 406.646 83.5888 400.822 86.8358ZM385.448 60.3959C379.624 63.6429 374.5 68.2815 371.704 73.152C368.909 78.0225 368.21 82.6611 370.307 86.14C372.17 89.6189 376.363 91.4744 382.187 91.7063C394.067 91.9382 408.509 83.8207 414.566 73.6158C417.361 68.7453 418.06 64.1068 415.963 60.6278C414.1 57.1489 409.907 55.2935 404.083 55.0615C398.027 55.0615 391.272 57.1489 385.448 60.3959Z" fill="#63CCE3"/>
<path d="M414.565 73.6158C408.509 83.8207 393.834 91.9382 381.954 91.9382C370.074 91.7063 365.182 83.3568 371.471 73.152C377.528 62.9471 392.203 54.8296 404.083 54.8296C415.963 55.0615 420.622 63.411 414.565 73.6158Z" fill="url(#paint55_radial)"/>
<path d="M371.937 74.3116C377.994 64.1067 392.669 55.9892 404.549 55.9892C410.139 55.9892 414.332 58.0765 416.196 61.0916C414.332 57.3808 410.139 55.0615 403.85 54.8295C391.97 54.5976 377.295 62.9471 371.238 73.1519C367.977 78.4863 367.744 83.3568 370.074 86.8357C368.676 83.5887 369.142 79.1821 371.937 74.3116Z" fill="#63CCE3"/>
<path d="M418.059 72.6882C410.838 84.7485 393.368 94.4895 379.158 94.4895C372.403 94.4895 367.511 92.1702 365.182 88.2274C367.278 92.6341 372.403 95.4172 379.857 95.4172C394.067 95.6491 411.537 85.9081 418.758 73.6159C422.485 67.3538 422.718 61.5556 420.156 57.3809C422.019 61.5556 421.554 66.8899 418.059 72.6882Z" fill="#AFF1FF"/>
<path d="M489.46 5.65997V8.67505C486.898 7.5154 483.404 6.81962 479.444 7.28347C465.234 8.21119 448.695 19.5757 442.639 32.3318C441.008 35.8107 440.077 39.0577 440.309 42.0728L437.514 41.1451L440.542 45.7837C443.105 49.7265 448.229 52.0457 455.451 51.35C469.66 50.4222 486.199 39.0577 492.255 26.3016C495.283 20.0396 495.283 14.4733 492.721 10.5305L489.46 5.65997Z" fill="#63CCE3"/>
<path d="M488.994 21.4312C482.705 34.1873 466.399 45.3199 452.19 46.4795C437.98 47.4072 431.458 38.1301 437.747 25.374C443.804 12.386 460.343 1.25339 474.552 0.0937472C488.762 -1.0659 495.284 8.67512 488.994 21.4312Z" fill="#3FC9E8"/>
<path d="M488.994 21.4312C482.705 34.1873 466.399 45.3199 452.19 46.4795C437.98 47.4072 431.458 38.1301 437.747 25.374C443.804 12.386 460.343 1.25339 474.552 0.0937472C488.762 -1.0659 495.284 8.67512 488.994 21.4312Z" fill="url(#paint56_linear)"/>
<path d="M472.223 35.8109C466.632 39.7537 459.877 42.3049 453.821 42.7687C447.997 43.2326 443.338 41.6091 441.009 38.1301C438.679 34.6512 438.679 29.7807 441.242 24.6783C446.366 14.0095 460.343 4.50046 472.456 3.57275C478.279 3.10889 482.938 4.73239 485.268 8.21133C487.597 11.6903 487.597 16.5608 485.035 21.6632C482.472 26.9976 477.813 32.1 472.223 35.8109ZM454.752 10.9945C449.162 14.7053 444.503 19.5758 441.941 24.9102C439.378 30.0126 439.378 34.6512 441.475 37.8982C443.804 41.1452 447.997 42.7687 453.821 42.3049C465.701 41.3772 479.444 32.1 484.569 21.4313C487.131 16.3288 487.131 11.6903 485.035 8.44325C482.705 5.19625 478.512 3.57275 472.689 4.03661C466.865 4.50046 460.343 7.05168 454.752 10.9945Z" fill="#63CCE3"/>
<path d="M484.802 21.6631C479.677 32.3318 465.7 41.8409 453.82 42.5367C441.94 43.4644 436.583 35.3469 441.708 24.6781C446.832 14.0094 460.809 4.50033 472.689 3.80455C484.569 3.10876 490.159 10.9943 484.802 21.6631Z" fill="url(#paint57_radial)"/>
<path d="M442.406 25.8379C447.531 15.1691 461.507 5.66006 473.387 4.96428C478.978 4.50042 483.171 6.12392 485.5 8.90707C483.404 5.42813 478.978 3.34077 472.689 3.80463C460.809 4.73235 447.065 14.0095 441.707 24.9102C438.912 30.4765 439.145 35.347 441.707 38.594C439.844 35.347 440.077 30.9403 442.406 25.8379Z" fill="#63CCE3"/>
<path d="M488.296 20.2716C482.006 33.0277 465.7 44.1603 451.491 45.3199C444.736 45.7838 439.611 43.9284 437.049 40.4494C439.611 44.6241 444.736 46.9434 452.19 46.4796C466.399 45.5519 482.938 34.1873 488.994 21.4313C492.256 14.7053 492.023 9.13902 488.994 5.19623C491.324 8.90709 491.324 14.2415 488.296 20.2716Z" fill="#AFF1FF"/>
<defs>
<linearGradient id="paint0_linear" x1="426.91" y1="37" x2="426.91" y2="241.804" gradientUnits="userSpaceOnUse">
<stop stop-color="#22BBDD" stop-opacity="0"/>
<stop offset="0.53125" stop-color="#22BBDD" stop-opacity="0.34"/>
<stop offset="1" stop-color="#22BBDD" stop-opacity="0"/>
</linearGradient>
<linearGradient id="paint1_linear" x1="427.16" y1="37.8677" x2="427.16" y2="239.036" gradientUnits="userSpaceOnUse">
<stop stop-color="#22BBDD" stop-opacity="0"/>
<stop offset="0.53125" stop-color="#22BBDD" stop-opacity="0.34"/>
<stop offset="1" stop-color="#22BBDD" stop-opacity="0"/>
</linearGradient>
<linearGradient id="paint2_linear" x1="427.545" y1="38.1938" x2="427.545" y2="236.165" gradientUnits="userSpaceOnUse">
<stop stop-color="#22BBDD" stop-opacity="0"/>
<stop offset="0.53125" stop-color="#22BBDD" stop-opacity="0.34"/>
<stop offset="1" stop-color="#22BBDD" stop-opacity="0"/>
</linearGradient>
<linearGradient id="paint3_linear" x1="428.981" y1="38.5195" x2="428.981" y2="233.183" gradientUnits="userSpaceOnUse">
<stop stop-color="#22BBDD" stop-opacity="0"/>
<stop offset="0.53125" stop-color="#22BBDD" stop-opacity="0.34"/>
<stop offset="1" stop-color="#22BBDD" stop-opacity="0"/>
</linearGradient>
<linearGradient id="paint4_linear" x1="429.339" y1="39.3877" x2="429.339" y2="230.257" gradientUnits="userSpaceOnUse">
<stop stop-color="#22BBDD" stop-opacity="0"/>
<stop offset="0.53125" stop-color="#22BBDD" stop-opacity="0.34"/>
<stop offset="1" stop-color="#22BBDD" stop-opacity="0"/>
</linearGradient>
<linearGradient id="paint5_linear" x1="430.271" y1="40.7979" x2="430.271" y2="224.61" gradientUnits="userSpaceOnUse">
<stop stop-color="#22BBDD" stop-opacity="0"/>
<stop offset="0.53125" stop-color="#22BBDD" stop-opacity="0.34"/>
<stop offset="1" stop-color="#22BBDD" stop-opacity="0"/>
</linearGradient>
<linearGradient id="paint6_linear" x1="430.048" y1="41.2319" x2="430.048" y2="221.357" gradientUnits="userSpaceOnUse">
<stop stop-color="#22BBDD" stop-opacity="0"/>
<stop offset="0.53125" stop-color="#22BBDD" stop-opacity="0.34"/>
<stop offset="1" stop-color="#22BBDD" stop-opacity="0"/>
</linearGradient>
<linearGradient id="paint7_linear" x1="430.2" y1="42.3174" x2="430.2" y2="214.452" gradientUnits="userSpaceOnUse">
<stop stop-color="#22BBDD" stop-opacity="0"/>
<stop offset="0.53125" stop-color="#22BBDD" stop-opacity="0.34"/>
<stop offset="1" stop-color="#22BBDD" stop-opacity="0"/>
</linearGradient>
<linearGradient id="paint8_linear" x1="429.569" y1="42.9683" x2="429.569" y2="211.224" gradientUnits="userSpaceOnUse">
<stop stop-color="#22BBDD" stop-opacity="0"/>
<stop offset="0.53125" stop-color="#22BBDD" stop-opacity="0.34"/>
<stop offset="1" stop-color="#22BBDD" stop-opacity="0"/>
</linearGradient>
<linearGradient id="paint9_linear" x1="428.32" y1="44.3789" x2="428.32" y2="204.448" gradientUnits="userSpaceOnUse">
<stop stop-color="#22BBDD" stop-opacity="0"/>
<stop offset="0.53125" stop-color="#22BBDD" stop-opacity="0.34"/>
<stop offset="1" stop-color="#22BBDD" stop-opacity="0"/>
</linearGradient>
<linearGradient id="paint10_linear" x1="428.987" y1="45.5723" x2="428.987" y2="198.136" gradientUnits="userSpaceOnUse">
<stop stop-color="#22BBDD" stop-opacity="0"/>
<stop offset="0.53125" stop-color="#22BBDD" stop-opacity="0.34"/>
<stop offset="1" stop-color="#22BBDD" stop-opacity="0"/>
</linearGradient>
<linearGradient id="paint11_linear" x1="429.264" y1="46.1152" x2="429.264" y2="195.075" gradientUnits="userSpaceOnUse">
<stop stop-color="#22BBDD" stop-opacity="0"/>
<stop offset="0.53125" stop-color="#22BBDD" stop-opacity="0.34"/>
<stop offset="1" stop-color="#22BBDD" stop-opacity="0"/>
</linearGradient>
<linearGradient id="paint12_linear" x1="432.063" y1="47.1997" x2="432.063" y2="188.781" gradientUnits="userSpaceOnUse">
<stop stop-color="#22BBDD" stop-opacity="0"/>
<stop offset="0.53125" stop-color="#22BBDD" stop-opacity="0.34"/>
<stop offset="1" stop-color="#22BBDD" stop-opacity="0"/>
</linearGradient>
<linearGradient id="paint13_linear" x1="432.507" y1="48.0679" x2="432.507" y2="185.882" gradientUnits="userSpaceOnUse">
<stop stop-color="#22BBDD" stop-opacity="0"/>
<stop offset="0.53125" stop-color="#22BBDD" stop-opacity="0.34"/>
<stop offset="1" stop-color="#22BBDD" stop-opacity="0"/>
</linearGradient>
<linearGradient id="paint14_linear" x1="433.02" y1="48.502" x2="433.02" y2="182.741" gradientUnits="userSpaceOnUse">
<stop stop-color="#22BBDD" stop-opacity="0"/>
<stop offset="0.53125" stop-color="#22BBDD" stop-opacity="0.34"/>
<stop offset="1" stop-color="#22BBDD" stop-opacity="0"/>
</linearGradient>
<linearGradient id="paint15_linear" x1="433.17" y1="49.8037" x2="433.17" y2="176.877" gradientUnits="userSpaceOnUse">
<stop stop-color="#22BBDD" stop-opacity="0"/>
<stop offset="0.53125" stop-color="#22BBDD" stop-opacity="0.34"/>
<stop offset="1" stop-color="#22BBDD" stop-opacity="0"/>
</linearGradient>
<linearGradient id="paint16_linear" x1="435.722" y1="50.9971" x2="435.722" y2="170.604" gradientUnits="userSpaceOnUse">
<stop stop-color="#22BBDD" stop-opacity="0"/>
<stop offset="0.53125" stop-color="#22BBDD" stop-opacity="0.34"/>
<stop offset="1" stop-color="#22BBDD" stop-opacity="0"/>
</linearGradient>
<linearGradient id="paint17_linear" x1="436.423" y1="51.54" x2="436.423" y2="167.647" gradientUnits="userSpaceOnUse">
<stop stop-color="#22BBDD" stop-opacity="0"/>
<stop offset="0.53125" stop-color="#22BBDD" stop-opacity="0.34"/>
<stop offset="1" stop-color="#22BBDD" stop-opacity="0"/>
</linearGradient>
<linearGradient id="paint18_linear" x1="437.698" y1="52.8418" x2="437.698" y2="162.284" gradientUnits="userSpaceOnUse">
<stop stop-color="#22BBDD" stop-opacity="0"/>
<stop offset="0.53125" stop-color="#22BBDD" stop-opacity="0.34"/>
<stop offset="1" stop-color="#22BBDD" stop-opacity="0"/>
</linearGradient>
<linearGradient id="paint19_linear" x1="439.297" y1="54.252" x2="439.297" y2="160.684" gradientUnits="userSpaceOnUse">
<stop stop-color="#22BBDD" stop-opacity="0"/>
<stop offset="0.53125" stop-color="#22BBDD" stop-opacity="0.34"/>
<stop offset="1" stop-color="#22BBDD" stop-opacity="0"/>
</linearGradient>
<linearGradient id="paint20_linear" x1="436.812" y1="55.2285" x2="436.812" y2="158.637" gradientUnits="userSpaceOnUse">
<stop stop-color="#22BBDD" stop-opacity="0"/>
<stop offset="0.53125" stop-color="#22BBDD" stop-opacity="0.34"/>
<stop offset="1" stop-color="#22BBDD" stop-opacity="0"/>
</linearGradient>
<linearGradient id="paint21_linear" x1="435.849" y1="56.6387" x2="435.849" y2="156.341" gradientUnits="userSpaceOnUse">
<stop stop-color="#22BBDD" stop-opacity="0"/>
<stop offset="0.53125" stop-color="#22BBDD" stop-opacity="0.34"/>
<stop offset="1" stop-color="#22BBDD" stop-opacity="0"/>
</linearGradient>
<linearGradient id="paint22_linear" x1="435.217" y1="57.7236" x2="435.217" y2="153.025" gradientUnits="userSpaceOnUse">
<stop stop-color="#22BBDD" stop-opacity="0"/>
<stop offset="0.53125" stop-color="#22BBDD" stop-opacity="0.34"/>
<stop offset="1" stop-color="#22BBDD" stop-opacity="0"/>
</linearGradient>
<linearGradient id="paint23_linear" x1="435.778" y1="58.3745" x2="435.778" y2="150.358" gradientUnits="userSpaceOnUse">
<stop stop-color="#22BBDD" stop-opacity="0"/>
<stop offset="0.53125" stop-color="#22BBDD" stop-opacity="0.34"/>
<stop offset="1" stop-color="#22BBDD" stop-opacity="0"/>
</linearGradient>
<linearGradient id="paint24_linear" x1="438.155" y1="60.2095" x2="438.155" y2="140.9" gradientUnits="userSpaceOnUse">
<stop stop-color="#22BBDD" stop-opacity="0"/>
<stop offset="0.53125" stop-color="#22BBDD" stop-opacity="0.34"/>
<stop offset="1" stop-color="#22BBDD" stop-opacity="0"/>
</linearGradient>
<linearGradient id="paint25_linear" x1="437.611" y1="60.7505" x2="437.611" y2="137.493" gradientUnits="userSpaceOnUse">
<stop stop-color="#22BBDD" stop-opacity="0"/>
<stop offset="0.53125" stop-color="#22BBDD" stop-opacity="0.34"/>
<stop offset="1" stop-color="#22BBDD" stop-opacity="0"/>
</linearGradient>
<linearGradient id="paint26_linear" x1="437.1" y1="61.9531" x2="437.1" y2="130.57" gradientUnits="userSpaceOnUse">
<stop stop-color="#22BBDD" stop-opacity="0"/>
<stop offset="0.53125" stop-color="#22BBDD" stop-opacity="0.34"/>
<stop offset="1" stop-color="#22BBDD" stop-opacity="0"/>
</linearGradient>
<linearGradient id="paint27_linear" x1="437.09" y1="63.9038" x2="437.09" y2="123.398" gradientUnits="userSpaceOnUse">
<stop stop-color="#22BBDD" stop-opacity="0"/>
<stop offset="0.53125" stop-color="#22BBDD" stop-opacity="0.34"/>
<stop offset="1" stop-color="#22BBDD" stop-opacity="0"/>
</linearGradient>
<linearGradient id="paint28_linear" x1="437.582" y1="64.9868" x2="437.582" y2="120.143" gradientUnits="userSpaceOnUse">
<stop stop-color="#22BBDD" stop-opacity="0"/>
<stop offset="0.53125" stop-color="#22BBDD" stop-opacity="0.34"/>
<stop offset="1" stop-color="#22BBDD" stop-opacity="0"/>
</linearGradient>
<linearGradient id="paint29_linear" x1="438.7" y1="66.1729" x2="438.7" y2="117.033" gradientUnits="userSpaceOnUse">
<stop stop-color="#22BBDD" stop-opacity="0"/>
<stop offset="0.53125" stop-color="#22BBDD" stop-opacity="0.34"/>
<stop offset="1" stop-color="#22BBDD" stop-opacity="0"/>
</linearGradient>
<linearGradient id="paint30_linear" x1="440.058" y1="67.252" x2="440.058" y2="115.125" gradientUnits="userSpaceOnUse">
<stop stop-color="#22BBDD" stop-opacity="0"/>
<stop offset="0.53125" stop-color="#22BBDD" stop-opacity="0.34"/>
<stop offset="1" stop-color="#22BBDD" stop-opacity="0"/>
</linearGradient>
<linearGradient id="paint31_linear" x1="441.787" y1="68.3262" x2="441.787" y2="112.852" gradientUnits="userSpaceOnUse">
<stop stop-color="#22BBDD" stop-opacity="0"/>
<stop offset="0.53125" stop-color="#22BBDD" stop-opacity="0.34"/>
<stop offset="1" stop-color="#22BBDD" stop-opacity="0"/>
</linearGradient>
<linearGradient id="paint32_linear" x1="444.033" y1="69.6006" x2="444.033" y2="109.267" gradientUnits="userSpaceOnUse">
<stop stop-color="#22BBDD" stop-opacity="0"/>
<stop offset="0.53125" stop-color="#22BBDD" stop-opacity="0.34"/>
<stop offset="1" stop-color="#22BBDD" stop-opacity="0"/>
</linearGradient>
<linearGradient id="paint33_linear" x1="446.313" y1="69.9214" x2="446.313" y2="103.627" gradientUnits="userSpaceOnUse">
<stop stop-color="#22BBDD" stop-opacity="0"/>
<stop offset="0.53125" stop-color="#22BBDD" stop-opacity="0.34"/>
<stop offset="1" stop-color="#22BBDD" stop-opacity="0"/>
</linearGradient>
<linearGradient id="paint34_linear" x1="448.727" y1="71.834" x2="448.727" y2="99.0755" gradientUnits="userSpaceOnUse">
<stop stop-color="#22BBDD" stop-opacity="0"/>
<stop offset="0.53125" stop-color="#22BBDD" stop-opacity="0.34"/>
<stop offset="1" stop-color="#22BBDD" stop-opacity="0"/>
</linearGradient>
<linearGradient id="paint35_linear" x1="426.825" y1="68.6519" x2="426.825" y2="206.131" gradientUnits="userSpaceOnUse">
<stop stop-color="#00333F"/>
<stop offset="1" stop-color="#22BBDD"/>
</linearGradient>
<linearGradient id="paint36_linear" x1="405.841" y1="111.256" x2="405.841" y2="144.905" gradientUnits="userSpaceOnUse">
<stop stop-color="#22BBDD"/>
<stop offset="1" stop-color="white" stop-opacity="0.71"/>
</linearGradient>
<radialGradient id="paint37_radial" cx="0" cy="0" r="1" gradientUnits="userSpaceOnUse" gradientTransform="translate(414.949 149.332) rotate(-4.92412) scale(100.436 94.0641)">
<stop stop-color="#F5FDFF"/>
<stop offset="0.2273" stop-color="#AEF0FF"/>
<stop offset="0.6161" stop-color="#22BBDD"/>
<stop offset="1" stop-color="#2395AE"/>
</radialGradient>
<linearGradient id="paint38_linear" x1="400.516" y1="92.5467" x2="400.516" y2="128.902" gradientUnits="userSpaceOnUse">
<stop stop-color="#22BBDD"/>
<stop offset="1" stop-color="white" stop-opacity="0.71"/>
</linearGradient>
<radialGradient id="paint39_radial" cx="0" cy="0" r="1" gradientUnits="userSpaceOnUse" gradientTransform="translate(410.417 133.917) rotate(-4.91602) scale(108.691 101.63)">
<stop stop-color="#F5FDFF"/>
<stop offset="0.2273" stop-color="#AEF0FF"/>
<stop offset="0.6161" stop-color="#22BBDD"/>
<stop offset="1" stop-color="#2395AE"/>
</radialGradient>
<linearGradient id="paint40_linear" x1="449.392" y1="139.377" x2="449.392" y2="173.026" gradientUnits="userSpaceOnUse">
<stop stop-color="#22BBDD"/>
<stop offset="1" stop-color="white" stop-opacity="0.71"/>
</linearGradient>
<radialGradient id="paint41_radial" cx="0" cy="0" r="1" gradientUnits="userSpaceOnUse" gradientTransform="translate(458.397 177.453) rotate(-4.908) scale(100.765 94.0665)">
<stop stop-color="#F5FDFF"/>
<stop offset="0.2273" stop-color="#AEF0FF"/>
<stop offset="0.6161" stop-color="#22BBDD"/>
<stop offset="1" stop-color="#2395AE"/>
</radialGradient>
<linearGradient id="paint42_linear" x1="390.964" y1="149.466" x2="390.964" y2="183.116" gradientUnits="userSpaceOnUse">
<stop stop-color="#22BBDD"/>
<stop offset="1" stop-color="white" stop-opacity="0.71"/>
</linearGradient>
<radialGradient id="paint43_radial" cx="0" cy="0" r="1" gradientUnits="userSpaceOnUse" gradientTransform="translate(400.073 187.542) rotate(-4.92413) scale(100.436 94.0641)">
<stop stop-color="#F5FDFF"/>
<stop offset="0.2273" stop-color="#AEF0FF"/>
<stop offset="0.6161" stop-color="#22BBDD"/>
<stop offset="1" stop-color="#2395AE"/>
</radialGradient>
<linearGradient id="paint44_linear" x1="418.561" y1="138.733" x2="418.561" y2="172.383" gradientUnits="userSpaceOnUse">
<stop stop-color="#22BBDD"/>
<stop offset="1" stop-color="white" stop-opacity="0.71"/>
</linearGradient>
<radialGradient id="paint45_radial" cx="0" cy="0" r="1" gradientUnits="userSpaceOnUse" gradientTransform="translate(427.67 176.809) rotate(-4.92413) scale(100.436 94.0642)">
<stop stop-color="#F5FDFF"/>
<stop offset="0.2273" stop-color="#AEF0FF"/>
<stop offset="0.6161" stop-color="#22BBDD"/>
<stop offset="1" stop-color="#2395AE"/>
</radialGradient>
<linearGradient id="paint46_linear" x1="426.148" y1="132.855" x2="426.148" y2="166.586" gradientUnits="userSpaceOnUse">
<stop stop-color="#22BBDD"/>
<stop offset="1" stop-color="white" stop-opacity="0.71"/>
</linearGradient>
<radialGradient id="paint47_radial" cx="0" cy="0" r="1" gradientUnits="userSpaceOnUse" gradientTransform="translate(435.216 171.013) rotate(-4.92412) scale(100.436 94.0641)">
<stop stop-color="#F5FDFF"/>
<stop offset="0.2273" stop-color="#AEF0FF"/>
<stop offset="0.6161" stop-color="#22BBDD"/>
<stop offset="1" stop-color="#2395AE"/>
</radialGradient>
<linearGradient id="paint48_linear" x1="421.292" y1="111.797" x2="421.292" y2="148.152" gradientUnits="userSpaceOnUse">
<stop stop-color="#22BBDD"/>
<stop offset="1" stop-color="white" stop-opacity="0.71"/>
</linearGradient>
<radialGradient id="paint49_radial" cx="0" cy="0" r="1" gradientUnits="userSpaceOnUse" gradientTransform="translate(431.209 152.935) rotate(-4.90799) scale(108.869 101.631)">
<stop stop-color="#F5FDFF"/>
<stop offset="0.2273" stop-color="#AEF0FF"/>
<stop offset="0.6161" stop-color="#22BBDD"/>
<stop offset="1" stop-color="#2395AE"/>
</radialGradient>
<linearGradient id="paint50_linear" x1="443.916" y1="109.896" x2="443.916" y2="147.734" gradientUnits="userSpaceOnUse">
<stop stop-color="#22BBDD"/>
<stop offset="1" stop-color="white" stop-opacity="0.71"/>
</linearGradient>
<radialGradient id="paint51_radial" cx="0" cy="0" r="1" gradientUnits="userSpaceOnUse" gradientTransform="translate(453.519 152.803) rotate(-5.23862) scale(107.098 106.641)">
<stop stop-color="#F5FDFF"/>
<stop offset="0.2273" stop-color="#AEF0FF"/>
<stop offset="0.6161" stop-color="#22BBDD"/>
<stop offset="1" stop-color="#2395AE"/>
</radialGradient>
<linearGradient id="paint52_linear" x1="461.845" y1="54.6863" x2="461.845" y2="98.9848" gradientUnits="userSpaceOnUse">
<stop stop-color="#22BBDD"/>
<stop offset="1" stop-color="white" stop-opacity="0.71"/>
</linearGradient>
<radialGradient id="paint53_radial" cx="0" cy="0" r="1" gradientUnits="userSpaceOnUse" gradientTransform="translate(470.852 104.999) rotate(-6.56796) scale(99.8875 124.302)">
<stop stop-color="#F5FDFF"/>
<stop offset="0.2273" stop-color="#AEF0FF"/>
<stop offset="0.6161" stop-color="#5CE0FD"/>
<stop offset="1" stop-color="#0E7B94"/>
</radialGradient>
<linearGradient id="paint54_linear" x1="393.018" y1="51.5826" x2="393.018" y2="95.6491" gradientUnits="userSpaceOnUse">
<stop stop-color="#22BBDD"/>
<stop offset="1" stop-color="white" stop-opacity="0.71"/>
</linearGradient>
<radialGradient id="paint55_radial" cx="0" cy="0" r="1" gradientUnits="userSpaceOnUse" gradientTransform="translate(402.034 101.373) rotate(-6.53191) scale(99.8126 123.539)">
<stop stop-color="#F5FDFF"/>
<stop offset="0.2273" stop-color="#AEF0FF"/>
<stop offset="0.6161" stop-color="#22BBDD"/>
<stop offset="1" stop-color="#2395AE"/>
</radialGradient>
<linearGradient id="paint56_linear" x1="463.371" y1="0" x2="463.371" y2="46.5434" gradientUnits="userSpaceOnUse">
<stop stop-color="#22BBDD"/>
<stop offset="1" stop-color="white" stop-opacity="0.71"/>
</linearGradient>
<radialGradient id="paint57_radial" cx="0" cy="0" r="1" gradientUnits="userSpaceOnUse" gradientTransform="translate(472.104 52.4855) rotate(-7.03998) scale(96.9817 129.19)">
<stop stop-color="#F5FDFF"/>
<stop offset="0.2273" stop-color="#AEF0FF"/>
<stop offset="0.6161" stop-color="#22BBDD"/>
<stop offset="1" stop-color="#2395AE"/>
</radialGradient>
</defs>
</svg>
