<svg width="709" height="237" viewBox="0 0 709 237" fill="none" xmlns="http://www.w3.org/2000/svg">
<g opacity="0.4">
<path d="M588.54 207.887L586.445 211.307L550.161 107.702C547.294 99.6471 534.28 93.2476 521.046 93.2476H194.604C181.37 93.2476 168.357 99.6471 165.489 107.702L129.647 209.873L127 207.225V219.913C127 229.402 136.484 236.574 150.711 236.574H564.719C578.945 236.574 588.43 229.402 588.43 220.024V207.887H588.54Z" fill="#2395AE"/>
<path d="M550.161 95.454L587.658 202.48C591.849 214.396 581.703 224.437 564.829 224.437H150.822C133.948 224.437 123.802 214.396 127.993 202.48L165.489 95.454C168.357 87.3995 181.37 81 194.604 81H521.046C534.28 81 547.294 87.3995 550.161 95.454Z" fill="#141413"/>
<path d="M550.161 95.454L587.658 202.48C591.849 214.396 581.703 224.437 564.829 224.437H150.822C133.948 224.437 123.802 214.396 127.993 202.48L165.489 95.454C168.357 87.3995 181.37 81 194.604 81H521.046C534.28 81 547.294 87.3995 550.161 95.454Z" fill="#A7EAFD"/>
<path d="M546.412 96.3365L582.475 201.266C586.114 211.858 576.96 220.796 561.962 220.796H153.689C138.69 220.796 129.537 211.969 133.176 201.266L169.239 96.3365C171.776 89.0544 183.355 83.3169 195.376 83.3169H520.384C532.295 83.3169 543.875 89.0544 546.412 96.3365Z" fill="url(#paint0_linear)"/>
<path opacity="0.2" d="M453.332 83.3169H195.266C183.355 83.3169 171.665 89.0544 169.129 96.3365L133.066 201.266C129.426 211.858 138.58 220.796 153.579 220.796H161.74C275.994 168.386 378.228 121.714 453.332 83.3169Z" fill="#22BBDD"/>
<path d="M167.254 134.292L160.747 154.373C160.526 155.035 159.534 155.587 158.651 155.587C157.659 155.587 157.107 155.035 157.328 154.373L163.945 134.292C164.166 133.741 165.048 133.189 165.93 133.189C166.813 133.189 167.474 133.741 167.254 134.292Z" fill="#320C54"/>
</g>
<path d="M599.177 143.616C599.202 143.519 600.101 143.231 601.801 142.632C603.501 142.032 606.075 141.242 609.426 140.237C616.031 138.202 625.526 135.353 637.157 131.81L637.497 131.69L637.763 131.861C644.945 137.298 653.264 143.54 662.259 150.367L662.525 150.538L662.523 150.95C662.377 163.295 662.25 176.78 662.048 190.967L661.997 191.573L661.439 191.741C647.962 195.641 635.141 199.397 623.438 202.819L623.097 202.939L622.831 202.768C613.861 195.844 605.567 189.505 598.385 184.068L598.119 183.897L598.096 183.582C598.339 171.262 598.5 161.294 598.722 154.334C598.785 150.842 598.941 148.199 598.997 146.356C599.028 144.61 599.153 143.713 599.177 143.616C599.274 143.64 599.246 144.562 599.287 146.43C599.328 148.297 599.366 150.99 599.328 154.385C599.325 161.297 599.261 171.29 599.236 183.562C599.164 183.44 599.116 183.222 599.044 183.1C606.226 188.538 614.544 194.78 623.636 201.631C623.442 201.582 623.249 201.533 622.958 201.459C634.686 197.94 647.604 194.208 660.984 190.284C660.813 190.55 660.642 190.816 660.374 191.058C660.576 176.87 660.8 163.41 660.946 151.065C660.994 151.284 661.163 151.43 661.211 151.649C652.24 144.725 643.946 138.386 636.862 132.973C637.055 133.022 637.249 133.072 637.346 133.096C625.667 136.421 616.1 139.148 609.447 140.964C606.121 141.873 603.571 142.566 601.799 143.044C600.124 143.547 599.25 143.737 599.177 143.616Z" fill="url(#paint1_linear)"/>
<path d="M623.173 202.236C622.955 202.283 622.849 198.232 622.705 191.902C622.682 185.499 622.669 176.622 622.781 166.848C622.763 165.296 622.866 163.671 622.823 162.216C622.968 162.459 623.015 162.677 623.185 162.823C616.269 157.557 610.249 152.828 605.97 149.367C601.691 145.905 599.128 143.809 599.274 143.64C599.42 143.471 602.129 145.398 606.676 148.618C611.126 151.813 617.293 156.373 624.208 161.639L624.546 161.931L624.545 162.344C624.588 163.799 624.484 165.424 624.502 166.976C624.39 176.75 624.21 185.577 623.917 192.003C623.649 198.333 623.367 202.285 623.173 202.236Z" fill="url(#paint2_linear)"/>
<path d="M623.648 162.219C623.553 161.782 631.907 158.953 642.494 155.867C652.984 152.756 661.676 150.632 661.771 151.069C661.866 151.506 653.511 154.334 642.925 157.421C632.435 160.532 623.743 162.656 623.648 162.219Z" fill="url(#paint3_linear)"/>
<g opacity="0.87">
<g opacity="0.87">
<g opacity="0.87">
<path opacity="0.87" fill-rule="evenodd" clip-rule="evenodd" d="M497.616 162.159L522.887 180.862L561.739 169.278L536.371 150.55L497.616 162.159ZM561.739 169.278L561.844 209.855L522.991 221.439L522.991 221.439L497.721 202.736L497.616 162.159L522.886 180.862L522.886 180.862L561.739 169.278Z" fill="#141413"/>
<path opacity="0.87" d="M561.739 169.278L561.844 209.855L522.991 221.439L522.886 180.862L561.739 169.278Z" fill="url(#paint4_linear)" fill-opacity="0.22"/>
<path opacity="0.87" d="M522.991 221.439L497.721 202.736L497.616 162.159L522.886 180.862L522.991 221.439Z" fill="#22BBDD"/>
<path opacity="0.87" d="M522.886 180.862L497.616 162.159L536.371 150.55L561.739 169.278L522.886 180.862Z" fill="url(#paint5_linear)" fill-opacity="0.22"/>
</g>
</g>
<g opacity="0.87">
<path opacity="0.87" d="M561.739 169.278L536.371 150.55L497.616 162.159L497.721 202.736L523.088 221.464L561.844 209.855L561.739 169.278Z" fill="url(#paint6_linear)"/>
</g>
</g>
<path d="M607.799 173.501C607.847 173.72 605.005 174.751 600.415 176.164C595.801 177.674 589.342 179.54 582.131 181.524C575.016 183.533 568.485 185.277 563.751 186.447C559.017 187.617 556.055 188.308 556.008 188.09C555.96 187.871 558.802 186.84 563.391 185.427C568.006 183.917 574.465 182.051 581.676 180.067C588.79 178.058 595.321 176.314 600.056 175.144C604.79 173.975 607.751 173.283 607.799 173.501Z" fill="url(#paint7_linear)"/>
<g opacity="0.87">
<g opacity="0.87">
<g opacity="0.87">
<g opacity="0.87">
<path opacity="0.87" d="M143.739 164.278L143.747 204.831L104.991 216.439L104.886 175.862L143.739 164.278Z" fill="url(#paint8_linear)" fill-opacity="0.22"/>
</g>
<g opacity="0.87">
<path opacity="0.87" d="M104.991 216.439L79.7207 197.736L79.6157 157.159L104.886 175.862L104.991 216.439Z" fill="#22BBDD"/>
</g>
<g opacity="0.87">
<path opacity="0.87" d="M104.886 175.862L79.6158 157.159L118.371 145.55L143.739 164.278L104.886 175.862Z" fill="url(#paint9_linear)" fill-opacity="0.22"/>
</g>
</g>
</g>
<g opacity="0.87">
<path opacity="0.87" d="M143.739 164.278L118.371 145.55L79.6158 157.159L79.7207 197.736L104.991 216.439L143.747 204.831L143.739 164.278Z" fill="url(#paint10_linear)"/>
</g>
</g>
<g opacity="0.87">
<g opacity="0.87">
<g opacity="0.87">
<g opacity="0.87">
<path opacity="0.87" d="M76.7386 92.9271L76.8436 133.504L38.0883 145.113L37.9833 104.536L76.7386 92.9271Z" fill="url(#paint11_linear)" fill-opacity="0.22"/>
</g>
<g opacity="0.87">
<path opacity="0.87" d="M38.0883 145.113L12.6962 126.481L12.6158 85.8076L37.9833 104.536L38.0883 145.113Z" fill="#22BBDD"/>
</g>
<g opacity="0.87">
<path opacity="0.87" d="M37.9834 104.536L12.6159 85.8076L51.4681 74.2238L76.7387 92.9272L37.9834 104.536Z" fill="url(#paint12_linear)" fill-opacity="0.22"/>
</g>
</g>
</g>
<g opacity="0.87">
<path opacity="0.87" d="M76.7387 92.9272L51.4681 74.2238L12.6159 85.8076L12.6962 126.481L38.0883 145.113L76.8436 133.504L76.7387 92.9272Z" fill="url(#paint13_linear)"/>
</g>
</g>
<path d="M167.899 179.198C167.947 179.417 165.445 180.328 161.293 181.646C157.14 182.963 151.458 184.614 145.121 186.408C138.783 188.202 133.029 189.731 128.853 190.733C124.678 191.735 122.056 192.306 122.008 192.088C121.961 191.87 124.463 190.958 128.615 189.64C132.768 188.323 138.45 186.672 144.787 184.878C151.125 183.085 156.879 181.555 161.054 180.553C165.133 179.527 167.755 178.955 167.899 179.198Z" fill="url(#paint14_linear)"/>
<path d="M708.483 151.182C708.531 151.401 705.932 152.288 701.658 153.677C697.384 155.067 691.484 156.766 684.903 158.704C678.347 160.545 672.35 162.219 667.956 163.269C663.562 164.318 660.843 164.865 660.771 164.744C660.723 164.525 663.322 163.638 667.596 162.249C671.87 160.859 677.771 159.16 684.448 157.247C691.004 155.405 697.001 153.732 701.395 152.682C705.717 151.511 708.436 150.964 708.483 151.182Z" fill="url(#paint15_linear)"/>
<path d="M223.778 137.711C223.56 137.758 223.428 134.217 223.402 128.638C223.376 123.06 223.382 115.323 223.464 106.883C223.571 98.346 223.772 90.6583 223.964 85.0322C224.156 79.4061 224.412 75.9631 224.606 76.0124C224.825 75.9648 224.956 79.5063 224.982 85.0848C225.009 90.6633 225.002 98.4002 224.895 106.937C224.788 115.474 224.588 123.162 224.396 128.788C224.228 134.317 223.972 137.76 223.778 137.711Z" fill="url(#paint16_linear)"/>
<path d="M599.92 145.971C599.774 146.141 597.162 144.238 593.1 141.142C589.037 138.046 583.477 133.536 577.409 128.589C571.341 123.641 565.902 119.06 562.011 115.697C558.119 112.334 555.775 110.191 555.921 110.022C556.068 109.852 558.68 111.755 562.742 114.851C566.804 117.948 572.364 122.457 578.432 127.404C584.5 132.352 589.939 136.933 593.831 140.296C597.722 143.659 600.066 145.802 599.92 145.971Z" fill="url(#paint17_linear)"/>
<path d="M102.208 153.057C102.061 153.226 99.4973 151.542 95.3134 148.518C91.2019 145.616 85.5676 141.397 79.4257 136.74C73.2838 132.083 67.6742 127.768 63.7334 124.599C59.7927 121.431 57.424 119.384 57.4733 119.19C57.6195 119.021 60.1837 120.704 64.3675 123.729C68.4791 126.631 74.1134 130.85 80.3522 135.531C86.494 140.188 92.1037 144.503 96.0444 147.672C99.9852 150.841 102.354 152.888 102.208 153.057Z" fill="url(#paint18_linear)"/>
<path d="M517.112 152.891C516.966 153.06 514.402 151.377 510.218 148.353C506.106 145.45 500.472 141.232 494.33 136.575C488.188 131.918 482.579 127.602 478.638 124.434C474.697 121.265 472.329 119.218 472.378 119.024C472.524 118.855 475.088 120.539 479.272 123.563C483.384 126.466 489.018 130.684 495.257 135.366C501.399 140.023 507.008 144.338 510.949 147.507C514.89 150.675 517.258 152.722 517.112 152.891Z" fill="url(#paint19_linear)"/>
<path d="M188.714 20.3525C188.739 20.2556 189.638 19.9681 191.338 19.3686C193.038 18.769 195.612 17.9789 198.963 16.9736C205.568 14.9384 215.063 12.0901 226.694 8.5469L227.034 8.42699L227.301 8.59783C234.482 14.0351 242.801 20.2772 251.796 27.1041L252.062 27.275L252.06 27.6873C251.914 40.0319 251.787 53.5164 251.585 67.7041L251.534 68.3102L250.976 68.4778C237.5 72.3774 224.679 76.1341 212.975 79.5557L212.635 79.6756L212.368 79.5048C203.398 72.5809 195.104 66.2419 187.923 60.8046L187.656 60.6338L187.633 60.3184C187.877 47.9985 188.038 38.0308 188.259 31.0709C188.322 27.5786 188.478 24.9355 188.534 23.0925C188.59 21.2494 188.714 20.3525 188.714 20.3525C188.811 20.3772 188.783 21.2987 188.824 23.1664C188.866 25.0341 188.903 27.7264 188.866 31.1218C188.959 38.0587 188.895 48.051 188.773 60.2987C188.701 60.1771 188.653 59.9586 188.581 59.8371C195.763 65.2743 204.081 71.5165 213.173 78.368C212.98 78.3188 212.786 78.2695 212.495 78.1956C224.224 74.677 237.141 70.945 250.521 67.0207C250.35 67.2868 250.179 67.5529 249.911 67.7944C250.114 53.6068 250.337 40.1468 250.483 27.8023C250.531 28.0207 250.7 28.1669 250.748 28.3854C241.777 21.4616 233.483 15.1225 226.399 9.7099C226.593 9.75918 226.786 9.80846 226.883 9.8331C215.326 13.0855 205.759 15.8123 199.106 17.629C195.78 18.5374 193.23 19.2306 191.458 19.7086C189.685 20.1866 188.714 20.3525 188.714 20.3525Z" fill="url(#paint20_linear)"/>
<path d="M212.71 78.9724C212.492 79.0201 212.387 74.9693 212.242 68.6385C212.219 62.2354 212.206 53.3585 212.318 43.5846C212.3 42.0323 212.403 40.4077 212.36 38.9523C212.505 39.1955 212.553 39.4139 212.722 39.5601C205.806 34.2937 199.786 29.5645 195.507 26.1034C191.228 22.6423 188.665 20.5462 188.811 20.3771C188.958 20.2079 191.666 22.1347 196.213 25.3543C200.663 28.5493 206.83 33.1094 213.745 38.3758L214.084 38.6682L214.082 39.0805C214.125 40.5359 214.021 42.1605 214.039 43.7128C213.927 53.4866 213.747 62.3142 213.454 68.7403C213.211 74.9726 212.929 78.9248 212.71 78.9724Z" fill="url(#paint21_linear)"/>
<path d="M213.185 38.9558C213.09 38.5188 221.444 35.6902 232.031 32.6037C242.521 29.4925 251.213 27.3686 251.308 27.8056C251.403 28.2425 243.049 31.0711 232.462 34.1576C221.899 37.1472 213.305 39.2958 213.185 38.9558Z" fill="url(#paint22_linear)"/>
<path d="M427.739 76.3588C427.764 76.2619 428.662 75.9744 430.362 75.3749C432.063 74.7753 434.637 73.9852 437.988 72.9799C444.593 70.9447 454.087 68.0963 465.719 64.5532L466.059 64.4333L466.325 64.6041C473.507 70.0413 481.825 76.2835 490.82 83.1104L491.087 83.2812L491.085 83.6936C490.939 96.0381 490.812 109.523 490.61 123.71L490.559 124.316L490.001 124.484C476.524 128.384 463.703 132.14 451.999 135.562L451.659 135.682L451.393 135.511C442.423 128.587 434.129 122.248 426.947 116.811L426.681 116.64L426.658 116.325C426.901 104.005 427.062 94.0371 427.284 87.0771C427.347 83.5848 427.503 80.9418 427.558 79.0987C427.614 77.2557 427.642 76.3342 427.739 76.3588C427.836 76.3834 427.808 77.305 427.849 79.1727C427.89 81.0404 427.928 83.7327 427.89 87.1281C427.887 94.0404 427.823 104.033 427.798 116.305C427.726 116.183 427.678 115.965 427.606 115.843C434.788 121.281 443.106 127.523 452.198 134.374C452.004 134.325 451.81 134.276 451.52 134.202C463.248 130.683 476.166 126.951 489.546 123.027C489.375 123.293 489.204 123.559 488.936 123.801C489.138 109.613 489.362 96.1531 489.508 83.8085C489.556 84.027 489.725 84.1732 489.772 84.3917C480.802 77.4678 472.508 71.1288 465.423 65.7162C465.617 65.7655 465.811 65.8147 465.908 65.8394C454.229 69.1641 444.662 71.8908 438.009 73.7076C434.683 74.616 432.133 75.3092 430.361 75.7872C428.71 76.1929 427.739 76.3588 427.739 76.3588Z" fill="url(#paint23_linear)"/>
<path d="M451.735 134.979C451.516 135.026 451.411 130.976 451.267 124.645C451.244 118.242 451.231 109.365 451.342 99.591C451.324 98.0387 451.428 96.4141 451.385 94.9587C451.53 95.2018 451.577 95.4203 451.746 95.5665C444.831 90.3001 438.811 85.5708 434.531 82.1097C430.252 78.6486 427.69 76.5526 427.836 76.3834C427.982 76.2142 430.691 78.1411 435.238 81.3607C439.688 84.5557 445.854 89.1157 452.77 94.3821L453.108 94.6745L453.107 95.0868C453.149 96.5422 453.046 98.1668 453.064 99.7191C452.952 109.493 452.771 118.321 452.479 124.747C452.139 130.954 451.953 134.931 451.735 134.979Z" fill="url(#paint24_linear)"/>
<path d="M452.21 94.9621C452.114 94.5252 460.469 91.6965 471.056 88.61C481.546 85.4989 490.237 83.375 490.333 83.8119C490.428 84.2488 482.073 87.0775 471.486 90.164C460.924 93.1536 452.33 95.3021 452.21 94.9621Z" fill="url(#paint25_linear)"/>
<defs>
<linearGradient id="paint0_linear" x1="357.825" y1="83.3169" x2="357.825" y2="220.796" gradientUnits="userSpaceOnUse">
<stop stop-color="#00333F"/>
<stop offset="1" stop-color="#22BBDD"/>
</linearGradient>
<linearGradient id="paint1_linear" x1="645.578" y1="107.14" x2="621.336" y2="202.491" gradientUnits="userSpaceOnUse">
<stop stop-color="#BFF3FF"/>
<stop offset="1" stop-color="#09667A"/>
</linearGradient>
<linearGradient id="paint2_linear" x1="621.787" y1="130.68" x2="604.783" y2="197.562" gradientUnits="userSpaceOnUse">
<stop stop-color="#BFF3FF"/>
<stop offset="1" stop-color="#09667A"/>
</linearGradient>
<linearGradient id="paint3_linear" x1="646.809" y1="139.816" x2="640.046" y2="166.415" gradientUnits="userSpaceOnUse">
<stop stop-color="#BFF3FF"/>
<stop offset="1" stop-color="#09667A"/>
</linearGradient>
<linearGradient id="paint4_linear" x1="517" y1="172.954" x2="597.139" y2="213.836" gradientUnits="userSpaceOnUse">
<stop stop-color="#24CBE5"/>
<stop offset="0.9375" stop-color="#22BBDD" stop-opacity="0.1"/>
</linearGradient>
<linearGradient id="paint5_linear" x1="490.229" y1="147.008" x2="570.215" y2="226.745" gradientUnits="userSpaceOnUse">
<stop stop-color="#24CBE5"/>
<stop offset="0.9375" stop-color="#22BBDD" stop-opacity="0.1"/>
</linearGradient>
<linearGradient id="paint6_linear" x1="486.21" y1="155.827" x2="609.869" y2="231.822" gradientUnits="userSpaceOnUse">
<stop stop-color="#24CBE5"/>
<stop offset="0.9375" stop-color="#22BBDD" stop-opacity="0.1"/>
</linearGradient>
<linearGradient id="paint7_linear" x1="587.351" y1="158.412" x2="578.356" y2="193.791" gradientUnits="userSpaceOnUse">
<stop stop-color="#BFF3FF"/>
<stop offset="1" stop-color="#09667A"/>
</linearGradient>
<linearGradient id="paint8_linear" x1="99.0162" y1="167.958" x2="179.005" y2="208.715" gradientUnits="userSpaceOnUse">
<stop stop-color="#24CBE5"/>
<stop offset="0.9375" stop-color="#22BBDD" stop-opacity="0.1"/>
</linearGradient>
<linearGradient id="paint9_linear" x1="72.2289" y1="142.008" x2="152.215" y2="221.745" gradientUnits="userSpaceOnUse">
<stop stop-color="#24CBE5"/>
<stop offset="0.9375" stop-color="#22BBDD" stop-opacity="0.1"/>
</linearGradient>
<linearGradient id="paint10_linear" x1="68.2266" y1="150.832" x2="191.762" y2="226.685" gradientUnits="userSpaceOnUse">
<stop stop-color="#24CBE5"/>
<stop offset="0.9375" stop-color="#22BBDD" stop-opacity="0.1"/>
</linearGradient>
<linearGradient id="paint11_linear" x1="32.1133" y1="96.6318" x2="112.102" y2="137.388" gradientUnits="userSpaceOnUse">
<stop stop-color="#24CBE5"/>
<stop offset="0.9375" stop-color="#22BBDD" stop-opacity="0.1"/>
</linearGradient>
<linearGradient id="paint12_linear" x1="5.22899" y1="70.6566" x2="85.2155" y2="150.394" gradientUnits="userSpaceOnUse">
<stop stop-color="#24CBE5"/>
<stop offset="0.9375" stop-color="#22BBDD" stop-opacity="0.1"/>
</linearGradient>
<linearGradient id="paint13_linear" x1="1.2102" y1="79.4764" x2="124.869" y2="155.47" gradientUnits="userSpaceOnUse">
<stop stop-color="#24CBE5"/>
<stop offset="0.9375" stop-color="#22BBDD" stop-opacity="0.1"/>
</linearGradient>
<linearGradient id="paint14_linear" x1="149.775" y1="165.831" x2="141.814" y2="197.146" gradientUnits="userSpaceOnUse">
<stop stop-color="#BFF3FF"/>
<stop offset="1" stop-color="#09667A"/>
</linearGradient>
<linearGradient id="paint15_linear" x1="689.671" y1="137.242" x2="681.348" y2="169.981" gradientUnits="userSpaceOnUse">
<stop stop-color="#BFF3FF"/>
<stop offset="1" stop-color="#09667A"/>
</linearGradient>
<linearGradient id="paint16_linear" x1="236.765" y1="57.1126" x2="216.729" y2="135.921" gradientUnits="userSpaceOnUse">
<stop stop-color="#BFF3FF"/>
<stop offset="1" stop-color="#09667A"/>
</linearGradient>
<linearGradient id="paint17_linear" x1="582.734" y1="108.005" x2="574.706" y2="139.583" gradientUnits="userSpaceOnUse">
<stop stop-color="#BFF3FF"/>
<stop offset="1" stop-color="#09667A"/>
</linearGradient>
<linearGradient id="paint18_linear" x1="84.1923" y1="117.95" x2="76.8962" y2="146.648" gradientUnits="userSpaceOnUse">
<stop stop-color="#BFF3FF"/>
<stop offset="1" stop-color="#09667A"/>
</linearGradient>
<linearGradient id="paint19_linear" x1="499.097" y1="117.784" x2="491.801" y2="146.482" gradientUnits="userSpaceOnUse">
<stop stop-color="#BFF3FF"/>
<stop offset="1" stop-color="#09667A"/>
</linearGradient>
<linearGradient id="paint20_linear" x1="235.115" y1="-16.1231" x2="210.873" y2="79.2277" gradientUnits="userSpaceOnUse">
<stop stop-color="#BFF3FF"/>
<stop offset="1" stop-color="#09667A"/>
</linearGradient>
<linearGradient id="paint21_linear" x1="211.324" y1="7.41727" x2="194.32" y2="74.2988" gradientUnits="userSpaceOnUse">
<stop stop-color="#BFF3FF"/>
<stop offset="1" stop-color="#09667A"/>
</linearGradient>
<linearGradient id="paint22_linear" x1="236.345" y1="16.5567" x2="229.586" y2="43.1413" gradientUnits="userSpaceOnUse">
<stop stop-color="#BFF3FF"/>
<stop offset="1" stop-color="#09667A"/>
</linearGradient>
<linearGradient id="paint23_linear" x1="474.127" y1="39.88" x2="449.885" y2="135.231" gradientUnits="userSpaceOnUse">
<stop stop-color="#BFF3FF"/>
<stop offset="1" stop-color="#09667A"/>
</linearGradient>
<linearGradient id="paint24_linear" x1="450.347" y1="63.4232" x2="433.343" y2="130.305" gradientUnits="userSpaceOnUse">
<stop stop-color="#BFF3FF"/>
<stop offset="1" stop-color="#09667A"/>
</linearGradient>
<linearGradient id="paint25_linear" x1="475.37" y1="72.563" x2="468.611" y2="99.1476" gradientUnits="userSpaceOnUse">
<stop stop-color="#BFF3FF"/>
<stop offset="1" stop-color="#09667A"/>
</linearGradient>
</defs>
</svg>
