<svg width="548" height="323" viewBox="0 0 548 323" fill="none" xmlns="http://www.w3.org/2000/svg">
<path d="M273 0L330.299 22.6675L386.844 47.1558L411.333 103.701L434 161L411.333 218.299L386.844 274.844L330.299 299.333L273 322L215.701 299.333L159.156 274.844L134.668 218.299L112 161L134.668 103.701L159.156 47.1558L215.701 22.6675L273 0Z" fill="white" fill-opacity="0.02"/>
<path d="M258.675 5.66688L268.225 1.88896L268.409 2.3539L273 0.537703L277.591 2.3539L277.775 1.88896L287.325 5.66688L287.141 6.13182L296.691 9.90974L296.875 9.4448L306.425 13.2227L306.241 13.6877L315.79 17.4656L315.974 17.0006L325.524 20.7786L325.34 21.2435L330.108 23.1296L334.813 25.167L335.011 24.7082L344.435 28.7896L344.237 29.2484L353.661 33.3298L353.86 32.871L363.284 36.9524L363.085 37.4112L372.509 41.4926L372.708 41.0337L382.132 45.1151L381.933 45.5739L386.464 47.536L388.426 52.0666L388.885 51.8679L392.966 61.2921L392.507 61.4908L396.589 70.9149L397.048 70.7162L401.129 80.1404L400.67 80.3391L404.752 89.7633L405.21 89.5646L409.292 98.9887L408.833 99.1874L410.868 103.885L410.874 103.9L412.757 108.66L413.221 108.476L416.999 118.026L416.534 118.21L420.312 127.759L420.777 127.575L424.555 137.125L424.09 137.309L427.868 146.859L428.333 146.675L432.111 156.225L431.646 156.409L433.462 161L431.646 165.591L432.111 165.775L428.333 175.325L427.868 175.141L424.09 184.691L424.555 184.875L420.777 194.425L420.312 194.241L416.534 203.79L416.999 203.974L413.221 213.524L412.757 213.34L410.874 218.1L410.868 218.115L408.833 222.813L409.292 223.011L405.21 232.435L404.752 232.237L400.67 241.661L401.129 241.86L397.048 251.284L396.589 251.085L392.507 260.509L392.966 260.708L388.885 270.132L388.426 269.933L386.464 274.464L381.933 276.426L382.132 276.885L372.708 280.966L372.509 280.507L363.085 284.589L363.284 285.048L353.86 289.129L353.661 288.67L344.237 292.752L344.435 293.21L335.011 297.292L334.813 296.833L330.115 298.868L330.1 298.874L325.34 300.757L325.524 301.221L315.974 304.999L315.79 304.534L306.241 308.312L306.425 308.777L296.875 312.555L296.691 312.09L287.141 315.868L287.325 316.333L277.775 320.111L277.591 319.646L273 321.462L268.409 319.646L268.225 320.111L258.675 316.333L258.859 315.868L249.309 312.09L249.125 312.555L239.575 308.777L239.759 308.312L230.21 304.534L230.026 304.999L220.476 301.221L220.66 300.757L215.9 298.874L215.885 298.868L211.187 296.833L210.989 297.292L201.565 293.21L201.763 292.752L192.339 288.67L192.14 289.129L182.716 285.048L182.915 284.589L173.491 280.507L173.292 280.966L163.868 276.885L164.067 276.426L159.536 274.464L157.574 269.933L157.115 270.132L153.034 260.708L153.493 260.509L149.411 251.085L148.952 251.284L144.871 241.86L145.33 241.661L141.248 232.237L140.79 232.435L136.708 223.011L137.167 222.813L135.13 218.108L133.244 213.34L132.779 213.524L129.001 203.974L129.466 203.79L125.688 194.241L125.223 194.425L121.445 184.875L121.91 184.691L118.132 175.141L117.667 175.325L113.889 165.775L114.354 165.591L112.538 161L114.354 156.409L113.889 156.225L117.667 146.675L118.132 146.859L121.91 137.309L121.445 137.125L125.223 127.575L125.688 127.759L129.466 118.21L129.001 118.026L132.779 108.476L133.244 108.66L135.13 103.892L137.167 99.1874L136.708 98.9887L140.79 89.5646L141.248 89.7633L145.33 80.3391L144.871 80.1404L148.952 70.7162L149.411 70.9149L153.493 61.4908L153.034 61.2921L157.115 51.8679L157.574 52.0666L159.536 47.536L164.067 45.5739L163.868 45.1151L173.292 41.0337L173.491 41.4926L182.915 37.4112L182.716 36.9524L192.14 32.871L192.339 33.3298L201.763 29.2484L201.565 28.7896L210.989 24.7082L211.187 25.167L215.892 23.1295L220.66 21.2435L220.476 20.7786L230.026 17.0006L230.21 17.4656L239.759 13.6877L239.575 13.2227L249.125 9.4448L249.309 9.90974L258.859 6.13182L258.675 5.66688Z" stroke="#22BBDD" stroke-opacity="0.4" stroke-dasharray="10 10"/>
<path d="M427 46L470.063 63.0358L512.56 81.4401L530.964 123.937L548 167L530.964 210.063L512.56 252.56L470.063 270.964L427 288L383.937 270.964L341.44 252.56L323.036 210.063L306 167L323.036 123.937L341.44 81.4401L383.937 63.0358L427 46Z" fill="white" fill-opacity="0.02"/>
<path d="M121 46L164.063 63.0358L206.56 81.4401L224.964 123.937L242 167L224.964 210.063L206.56 252.56L164.063 270.964L121 288L77.9366 270.964L35.4401 252.56L17.0358 210.063L0 167L17.0358 123.937L35.4401 81.4401L77.9366 63.0358L121 46Z" fill="white" fill-opacity="0.02"/>
<line x1="273.117" y1="0.880355" x2="160.038" y2="274.615" stroke="#22BBDD" stroke-opacity="0.4" stroke-dasharray="10 10"/>
<path d="M151.815 245L151.196 244.654L178.985 201.6L147 171.815L147.206 171.538L187.239 128L187.514 128.138L370 234.15L369.656 234.772L187.377 128.829L147.963 171.745L179.81 201.462L151.815 245Z" fill="#F0F0F0"/>
<line x1="273.117" y1="0.497558" x2="386.886" y2="274.232" stroke="#22BBDD" stroke-opacity="0.4" stroke-dasharray="10 10"/>
<path d="M414.873 263L369 234.448L370.032 234.172L418.175 187.69L383.787 109.276L384.406 109L419 187.828L418.862 188.034L370.582 234.586L415.217 262.379L414.873 263Z" fill="#F0F0F0"/>
<path d="M244.615 263L244.338 262.931L151 245.348L151.069 244.659L244.2 262.173L309.308 84L310 84.2069L244.615 263Z" fill="#F0F0F0"/>
<path d="M155.874 100.311L155.417 100.827L187.165 128.937L187.622 128.421L155.874 100.311Z" fill="#F0F0F0"/>
<path d="M384.149 110L308.987 84.6337L308.918 84.5648L269.232 43.965L237.414 72.9846L237 72.5021L269.301 43L309.401 84.0134L383.872 109.173L414.448 67.1255L415 67.5391L384.149 110Z" fill="#F0F0F0"/>
<path d="M274.008 42.2727C274.008 44.065 272.577 45.496 270.784 45.496C268.992 45.496 267.561 44.065 267.561 42.2727C267.561 40.4803 268.992 39.0493 270.784 39.0493C272.577 39.0493 274.008 40.4803 274.008 42.2727Z" fill="#252423" stroke="#22BBDD"/>
<path d="M419.356 66.1296C419.356 67.922 417.925 69.3529 416.132 69.3529C414.34 69.3529 412.909 67.922 412.909 66.1296C412.909 64.3372 414.34 62.9062 416.132 62.9062C417.919 62.9062 419.356 64.4001 419.356 66.1296Z" fill="#252423" stroke="#22BBDD"/>
<path d="M151.827 171.142C151.827 172.934 150.396 174.365 148.604 174.365C146.811 174.365 145.38 172.934 145.38 171.142C145.38 169.352 146.807 167.923 148.595 167.918C150.406 167.983 151.827 169.43 151.827 171.142Z" fill="#252423" stroke="#22BBDD"/>
<path d="M158.548 243.565C158.548 245.749 156.804 247.492 154.62 247.492C152.437 247.492 150.693 245.749 150.693 243.565C150.693 241.384 152.432 239.642 154.612 239.637C156.814 239.715 158.548 241.475 158.548 243.565Z" fill="#252423" stroke="#22BBDD"/>
<path d="M313.93 83.1604C313.93 84.9527 312.499 86.3837 310.707 86.3837C308.915 86.3837 307.484 84.9527 307.484 83.1604C307.484 81.368 308.915 79.937 310.707 79.937C312.499 79.937 313.93 81.368 313.93 83.1604Z" fill="#252423" stroke="#22BBDD"/>
<path d="M419.632 261.881C419.632 263.673 418.201 265.104 416.408 265.104C414.616 265.104 413.185 263.673 413.185 261.881C413.185 260.091 414.611 258.662 416.4 258.657C418.21 258.722 419.632 260.169 419.632 261.881Z" fill="#252423" stroke="#22BBDD"/>
<path d="M157.525 99.344C157.525 101.136 156.094 102.567 154.302 102.567C152.509 102.567 151.078 101.136 151.078 99.344C151.078 97.5543 152.505 96.125 154.293 96.1206C156.104 96.1853 157.525 97.632 157.525 99.344Z" fill="#252423" stroke="#22BBDD"/>
<path d="M424.529 193.479C427.679 190.329 427.679 185.221 424.529 182.071C421.379 178.92 416.271 178.92 413.12 182.071C409.97 185.221 409.97 190.329 413.12 193.479C416.271 196.63 421.379 196.63 424.529 193.479Z" fill="#22BBDD"/>
<path opacity="0.3" d="M426.484 187.753C426.484 189.339 426.002 190.787 425.243 191.959C423.864 194.027 421.589 195.337 418.9 195.337C417.176 195.337 415.521 194.717 414.28 193.752C412.487 192.372 411.315 190.166 411.315 187.753C411.315 183.547 414.694 180.168 418.9 180.168C423.037 180.168 426.484 183.547 426.484 187.753Z" fill="white"/>
<path d="M425.174 191.959C423.795 194.027 421.52 195.337 418.831 195.337C417.107 195.337 415.452 194.717 414.211 193.752C414.142 193.269 414.211 192.855 414.28 192.51C414.349 191.614 415.452 190.856 415.452 190.166C415.452 189.546 414.349 188.649 415.038 188.304C415.728 187.96 415.866 186.512 415.314 185.684C414.831 185.133 414.487 184.305 415.383 183.202C415.935 182.513 416.693 182.237 417.452 182.099C418.003 181.823 418.693 181.685 419.727 181.754C420.692 181.823 421.382 182.099 421.933 182.513C422.485 182.926 422.899 183.409 423.105 183.961C423.105 183.961 423.933 185.546 423.312 187.27C422.899 188.373 424.622 188.304 424.691 189.27C424.76 190.235 423.933 190.304 424.071 190.994C424.071 191.338 424.622 191.614 425.174 191.959Z" fill="#22BBDD"/>
<path opacity="0.7" d="M424.529 193.479C427.679 190.329 427.679 185.221 424.529 182.071C421.379 178.92 416.271 178.92 413.12 182.071C409.97 185.221 409.97 190.329 413.12 193.479C416.271 196.63 421.379 196.63 424.529 193.479Z" fill="white" fill-opacity="0.2"/>
<path d="M383.937 107.367L322.446 134.028L322.72 134.66L384.211 108L383.937 107.367Z" fill="#407BFF"/>
<path d="M237.939 72.0841L237.353 72.447L263.662 114.953L264.248 114.59L237.939 72.0841Z" fill="#407BFF"/>
<path d="M246.131 185.168L177.9 199.465L178.042 200.14L246.273 185.843L246.131 185.168Z" fill="#407BFF"/>
<path opacity="0.8" d="M383.936 107.367L285.674 149.97L285.949 150.603L384.211 107.999L383.936 107.367Z" fill="white"/>
<path d="M330.734 174.271L330.15 174.637L369.391 237.273L369.976 236.907L330.734 174.271Z" fill="#407BFF"/>
<path opacity="0.8" d="M309.337 140.119L308.753 140.485L369.391 237.273L369.975 236.906L309.337 140.119Z" fill="white"/>
<path opacity="0.8" d="M237.939 72.0841L237.353 72.447L300.237 174.043L300.823 173.68L237.939 72.0841Z" fill="white"/>
<path opacity="0.8" d="M326.894 168.244L177.9 199.465L178.042 200.14L327.036 168.919L326.894 168.244Z" fill="white"/>
<path d="M244.385 262.702L177.572 199.957L187.018 128.524L187.087 128.455L237.421 71.9845H237.559L328.781 59.2976L384.493 107.563V107.77L370.082 237.466L369.806 237.535L244.385 262.702ZM178.33 199.681L244.592 262.013L369.393 236.846L383.735 107.839L328.574 60.0561L237.766 72.6051L187.708 128.8L178.33 199.681Z" fill="white"/>
<line x1="160.038" y1="47.3854" x2="273.118" y2="321.809" stroke="#22BBDD" stroke-opacity="0.4" stroke-dasharray="10 10"/>
<line x1="386.885" y1="47.7668" x2="273.806" y2="321.501" stroke="#22BBDD" stroke-opacity="0.4" stroke-dasharray="10 10"/>
<path d="M225.867 88.5512C220.482 83.1658 220.482 74.4343 225.867 69.0489C231.253 63.6635 239.984 63.6635 245.369 69.0489C250.755 74.4343 250.755 83.1658 245.369 88.5512C239.984 93.9366 231.253 93.9366 225.867 88.5512Z" fill="#252423"/>
<path d="M221.451 78.8065C221.451 81.9987 222.515 84.9355 224.26 87.319C224.898 88.1703 225.622 88.9364 226.431 89.6174C227.154 90.2559 227.92 90.7666 228.772 91.2348C230.815 92.3414 233.156 92.9799 235.624 92.9799C237.71 92.9799 239.71 92.5117 241.498 91.703C241.668 91.6179 241.838 91.5327 242.009 91.4476C243.03 90.9369 243.967 90.341 244.775 89.6174C246.052 88.5533 247.116 87.2765 247.967 85.8293C249.159 83.7437 249.84 81.3602 249.84 78.8065C249.84 70.9749 243.498 64.633 235.667 64.633C227.793 64.5905 221.451 70.9749 221.451 78.8065Z" fill="url(#paint0_linear)" fill-opacity="0.6"/>
<path d="M244.775 85.2337L243.456 79.7005C243.456 79.7005 242.605 79.0195 242.562 78.5513C242.52 78.0831 243.073 75.1888 243.456 74.976C243.839 74.8058 245.967 75.5719 246.095 76.1678C246.18 76.8062 245.329 79.2323 245.158 79.4026L247.329 85.8296L244.775 85.2337Z" fill="#E4897B"/>
<path d="M243.711 82.0839L244.52 89.3196C245.754 88.2981 246.818 87.0212 247.584 85.6166C247.074 83.8716 246.605 82.2967 246.35 81.6157C246.265 81.3604 246.222 81.2327 246.222 81.2327L245.754 81.2752L243.839 81.5306L243.626 81.5732L243.711 82.0839Z" fill="#22BBDD"/>
<path d="M240.094 86.7234L241.328 91.3202C241.498 91.235 241.668 91.1925 241.796 91.1073C242.775 90.6392 243.669 90.0433 244.478 89.3197C244.392 89.1069 241.839 83.4035 240.902 83.446L240.094 86.7234Z" fill="#22BBDD"/>
<path opacity="0.3" d="M243.711 82.0839L244.52 89.3196C245.754 88.2981 246.818 87.0212 247.584 85.6166C247.074 83.8716 246.605 82.2967 246.35 81.6157C246.265 81.3604 246.222 81.2327 246.222 81.2327L245.754 81.2752L243.839 81.5306L243.626 81.5732L243.711 82.0839Z" fill="black"/>
<path opacity="0.3" d="M240.094 86.7234L241.328 91.3202C241.498 91.235 241.668 91.1925 241.796 91.1073C242.775 90.6392 243.669 90.0433 244.478 89.3197C244.392 89.1069 241.839 83.4035 240.902 83.446L240.094 86.7234Z" fill="black"/>
<path d="M243.115 81.1051L243.541 82.0841L246.563 81.5733L246.52 81.02L243.115 81.1051Z" fill="#22BBDD"/>
<path d="M227.239 74.0396C227.579 75.4016 225.664 79.1046 226.43 85.8721C227.196 92.6396 234.645 92.214 237.965 89.9581C241.285 87.7023 240.731 75.4442 239.582 73.0181C238.475 70.6772 227.239 74.0396 227.239 74.0396Z" fill="#263238"/>
<path d="M225.281 85.0208C225.366 85.2336 225.409 85.4039 225.494 85.6167C225.579 85.8295 225.621 85.9997 225.707 86.17C225.834 86.5531 225.962 86.8936 226.09 87.2766C226.345 88.0002 226.558 88.6386 226.728 89.2771C227.409 89.873 228.175 90.4263 228.984 90.8519C230.942 91.9585 233.24 92.5544 235.624 92.5544C237.667 92.5544 239.582 92.1288 241.327 91.3201C241.497 91.235 241.668 91.1924 241.795 91.1073C241.795 90.9796 241.795 90.8519 241.795 90.6817C241.795 90.554 241.795 90.4263 241.795 90.2986C241.795 89.9155 241.795 89.5325 241.753 89.192C241.753 88.9791 241.753 88.7238 241.71 88.5535C241.71 88.4258 241.71 88.3407 241.71 88.2556C241.71 87.8725 241.668 87.532 241.668 87.1915C241.668 87.1064 241.668 86.9787 241.668 86.8936C241.668 86.5956 241.625 86.3402 241.583 86.0849C241.412 84.51 241.199 83.8716 241.072 83.6588C241.029 83.6162 241.029 83.5737 240.987 83.5311C240.944 83.4885 240.944 83.4885 240.944 83.4885C240.944 83.4885 240.731 83.4885 240.391 83.446C239.454 83.3608 237.582 83.2332 235.837 83.2332C235.794 83.2332 235.751 83.2332 235.751 83.2332C235.539 83.2332 235.283 83.2332 235.07 83.2757C234.177 83.3183 233.283 83.4034 232.432 83.4885C232.091 83.5311 231.793 83.5737 231.453 83.6162C231.112 83.6588 230.729 83.7439 230.389 83.7865C230.346 83.7865 230.303 83.7865 230.261 83.829C228.941 84.0418 227.665 84.3398 226.388 84.7229C226.005 84.808 225.621 84.8931 225.281 85.0208Z" fill="#22BBDD"/>
<path opacity="0.3" d="M225.281 85.02C225.367 85.2328 225.409 85.403 225.494 85.6159C225.579 85.8287 225.622 85.9989 225.707 86.1692C225.835 86.5522 225.962 86.8927 226.09 87.2758C226.345 87.9994 226.558 88.6378 226.729 89.2763C227.41 89.8721 228.176 90.4255 228.984 90.8511C230.942 91.9577 233.241 92.5536 235.624 92.5536C237.667 92.5536 239.583 92.128 241.328 91.3193C241.498 91.2342 241.668 91.1916 241.796 91.1065C241.796 90.9788 241.796 90.8511 241.796 90.7234C241.796 90.5957 241.796 90.468 241.796 90.3403C241.796 89.9573 241.796 89.5742 241.753 89.2337C241.753 89.0209 241.753 88.7655 241.711 88.5953C241.711 88.4676 241.711 88.3824 241.711 88.2973C241.711 87.9143 241.668 87.5737 241.668 87.2332C241.668 87.1481 241.668 87.0204 241.668 86.9353C241.668 86.6374 241.626 86.382 241.583 86.1266C241.413 84.5518 241.2 83.9133 241.072 83.7005C241.03 83.658 241.03 83.6154 240.987 83.5728C240.945 83.5303 240.945 83.5303 240.945 83.5303C240.945 83.5303 240.732 83.5303 240.391 83.4877C239.455 83.4026 237.582 83.2749 235.837 83.2749C235.794 83.2749 235.752 83.2749 235.752 83.2749C235.539 83.2749 235.284 83.2749 235.071 83.3175C234.177 83.36 233.283 83.4452 232.432 83.5303C232.091 83.5728 231.794 83.6154 231.453 83.658C231.112 83.7005 230.729 83.7857 230.389 83.8282C230.346 83.8282 230.304 83.8282 230.261 83.8708C228.942 84.0836 227.665 84.3815 226.388 84.7646C226.005 84.8072 225.622 84.8923 225.281 85.02Z" fill="black"/>
<path d="M233.241 82.8501C230.219 83.1055 229.836 83.9993 230.134 84.4675C230.474 84.9357 234.56 88.9792 235.794 91.6607C235.837 91.7032 240.306 82.2968 233.241 82.8501Z" fill="white"/>
<path d="M234.815 85.9146C231.794 85.5316 230.9 84.2547 230.9 84.2547C232.815 82.467 231.24 79.3174 231.24 79.3174L234.858 79.9984C234.773 80.5943 234.73 81.105 234.73 81.5306C234.688 83.7439 235.709 83.7439 235.709 83.7439C236.305 84.9357 234.815 85.9146 234.815 85.9146Z" fill="#E4897B"/>
<path opacity="0.2" d="M234.858 79.9984C234.773 80.5943 234.731 81.105 234.731 81.5306C232.305 81.5306 231.241 79.3174 231.241 79.3174L234.858 79.9984Z" fill="black"/>
<path d="M232.857 69.8686C236.007 69.6984 237.114 71.3158 237.539 74.5505C238.05 78.594 237.326 81.5308 233.326 80.8498C227.878 79.9986 227.622 70.1666 232.857 69.8686Z" fill="#E4897B"/>
<path d="M229.707 75.3591C229.707 75.3591 231.027 72.6776 230.686 70.7197C230.686 70.7197 236.773 67.8254 237.454 74.1247C237.454 74.1247 237.752 68.4639 232.346 68.6341C226.941 68.8044 227.366 76.7211 230.303 78.9343C230.303 78.9343 228.899 77.019 229.707 75.3591Z" fill="#263238"/>
<path d="M230.261 75.9975C230.219 75.4867 229.623 74.678 228.686 74.8057C227.708 74.976 227.367 76.9764 229.836 77.3595C230.176 77.402 230.346 77.0615 230.261 75.9975Z" fill="#E4897B"/>
<path d="M231.538 70.3792C231.538 70.3792 232.049 74.2525 229.708 77.7852C227.92 80.4666 229.963 82.8076 229.963 82.8076C229.963 82.8076 226.814 80.8071 226.729 77.7852C226.729 77.7852 224.132 70.592 229.538 68.6342C229.538 68.6342 229.58 67.0168 233.07 67.3147C236.603 67.6126 239.412 70.6346 239.966 74.4653C240.519 78.2959 238.519 82.5948 238.519 82.5948C238.519 82.5948 240.604 69.0172 231.538 70.3792Z" fill="#263238"/>
<path d="M231.326 70.4645C231.581 71.3583 231.624 72.2947 231.581 73.2737C231.538 74.2101 231.368 75.1464 231.113 76.0828C230.857 77.0192 230.517 77.913 230.049 78.7217C229.581 79.573 229.027 80.3391 228.261 80.9775C229.027 80.3817 229.623 79.6155 230.134 78.8068C230.645 77.9556 231.028 77.0618 231.283 76.1679C231.581 75.2316 231.751 74.2952 231.836 73.3162C231.922 72.3373 231.922 71.3583 231.666 70.3794L231.326 70.4645Z" fill="#263238"/>
<path d="M224.601 87.0638C225.196 87.8725 225.92 88.6386 226.686 89.277C227.367 89.8729 228.133 90.4262 228.942 90.8519C228.899 90.6816 228.814 90.4688 228.772 90.2985C228.218 88.7663 227.282 87.3617 226.516 86.4253C225.877 85.6166 225.367 85.1059 225.282 85.0208C224.941 85.2761 224.728 86.0423 224.601 87.0638Z" fill="#22BBDD"/>
<path opacity="0.3" d="M224.601 87.0638C225.196 87.8725 225.92 88.6386 226.686 89.277C227.367 89.8729 228.133 90.4262 228.942 90.8519C228.899 90.6816 228.814 90.4688 228.772 90.2985C228.218 88.7663 227.282 87.3617 226.516 86.4253C225.877 85.6166 225.367 85.1059 225.282 85.0208C224.941 85.2761 224.728 86.0423 224.601 87.0638Z" fill="black"/>
<path d="M327.954 73.6393C334.884 73.6393 340.503 68.0209 340.503 61.0903C340.503 54.1597 334.884 48.5413 327.954 48.5413C321.023 48.5413 315.405 54.1597 315.405 61.0903C315.405 68.0209 321.023 73.6393 327.954 73.6393Z" fill="#22BBDD"/>
<path opacity="0.3" d="M339.814 61.0903C339.814 64.1931 338.642 67.0201 336.642 69.1576C334.505 71.5019 331.402 72.9498 327.954 72.9498C324.3 72.9498 320.99 71.295 318.853 68.6749C317.129 66.6064 316.164 63.9862 316.164 61.1593C316.164 54.6089 321.473 49.2997 328.023 49.2997C334.505 49.2308 339.814 54.54 339.814 61.0903Z" fill="white"/>
<path d="M336.642 69.0886C334.505 71.433 331.402 72.8809 327.954 72.8809C324.3 72.8809 320.99 71.2261 318.853 68.606C318.922 68.606 318.991 68.537 319.06 68.537C319.197 68.3302 319.404 68.1233 319.611 67.9165V67.8475L319.818 67.7786C320.163 67.5717 320.576 67.4338 321.128 67.4338C321.266 67.4338 321.404 67.4338 321.542 67.4338L322.3 67.2959C322.3 67.2959 322.3 67.3649 322.3 67.5028C323.266 67.5717 324.645 67.6407 326.299 67.7786C326.644 67.5028 326.92 67.158 327.058 66.7443C327.196 66.3306 327.196 65.8479 327.196 65.3653C326.644 65.3653 326.024 65.1584 325.541 64.9516C324.645 64.4689 323.886 63.6415 323.472 62.6073C323.403 62.4694 323.403 62.3315 323.334 62.1936C323.059 60.9524 322.921 59.2287 323.266 57.7118C323.197 57.7118 323.197 57.7118 323.128 57.7118C323.059 57.7118 322.99 57.6428 322.99 57.5739C322.99 57.5049 323.059 57.4359 323.128 57.4359C323.128 57.4359 323.128 57.4359 323.197 57.4359C323.128 56.4706 323.266 55.4364 323.403 54.7469C322.99 54.0574 322.99 52.6094 323.403 52.0578C323.817 51.4372 323.472 51.782 324.645 51.6441C325.817 51.5751 325.127 50.5409 325.817 50.4719C326.575 50.4719 326.437 50.9546 327.334 51.2993C328.23 51.6441 327.885 50.6098 328.92 50.5409C329.954 50.4719 330.092 51.2304 330.85 51.4372C331.609 51.6441 331.746 51.4372 332.298 51.4372C332.85 51.4372 332.919 53.0231 333.126 53.2989C333.332 53.5747 333.746 53.161 334.229 53.9884C334.298 54.1263 334.298 54.1953 334.298 54.4021C334.298 55.4364 332.988 57.4359 332.988 57.4359C332.919 57.9186 332.85 58.4013 332.712 58.8839C333.125 59.2287 333.194 59.8492 332.919 60.4698C332.643 60.9524 332.229 61.4351 331.746 61.7109C331.471 62.2625 331.264 62.6762 330.988 63.021C330.643 64.8137 330.505 66.9512 331.126 68.3302C333.263 68.4681 335.263 68.7439 336.642 69.0886Z" fill="#22BBDD"/>
<path opacity="0.5" d="M327.954 73.6393C334.884 73.6393 340.503 68.0209 340.503 61.0903C340.503 54.1597 334.884 48.5413 327.954 48.5413C321.023 48.5413 315.405 54.1597 315.405 61.0903C315.405 68.0209 321.023 73.6393 327.954 73.6393Z" fill="white" fill-opacity="0.2"/>
<path d="M251.966 268.704C256.085 264.585 256.085 257.907 251.966 253.788C247.847 249.669 241.169 249.669 237.05 253.788C232.931 257.907 232.931 264.585 237.05 268.704C241.169 272.823 247.847 272.823 251.966 268.704Z" fill="#22BBDD"/>
<path opacity="0.2" d="M254.431 261.253C254.431 264.092 253.214 266.642 251.302 268.497C249.505 270.177 247.129 271.221 244.464 271.221C242.377 271.221 240.465 270.583 238.842 269.482C236.234 267.686 234.554 264.672 234.554 261.311C234.554 255.805 239.016 251.343 244.522 251.343C250.027 251.343 254.431 255.747 254.431 261.253Z" fill="white"/>
<path d="M251.36 268.497C249.564 270.178 247.188 271.221 244.522 271.221C242.436 271.221 240.523 270.583 238.901 269.482C239.596 269.366 240.408 269.308 241.161 269.193C241.74 267.918 241.625 265.831 241.277 264.093C241.045 263.745 240.813 263.339 240.581 262.818C240.118 262.528 239.712 262.122 239.48 261.659C239.248 261.079 239.306 260.5 239.712 260.152C239.48 259.283 239.422 258.471 239.364 257.776H239.306C239.306 257.776 238.495 254.705 241.509 253.545C244.522 252.386 247.536 254.415 247.536 254.415C247.536 254.415 248.173 253.198 248.984 253.545C249.622 253.835 249.274 254.647 249.158 254.936C249.216 254.82 249.448 254.531 249.854 254.357C250.375 254.125 251.129 254.762 249.448 256.443C249.274 256.617 249.1 256.733 248.869 256.849C248.984 257.486 249.042 258.298 248.926 259.109C249.216 260.616 249.158 262.18 248.869 263.455C248.811 263.571 248.811 263.745 248.753 263.861C248.405 264.904 247.652 265.657 246.782 266.121C246.261 266.353 245.739 266.527 245.16 266.527C245.16 266.99 245.16 267.454 245.275 267.86C245.391 268.265 245.623 268.613 245.971 268.845C247.536 268.729 248.926 268.671 249.854 268.555C249.854 268.439 249.854 268.381 249.854 268.381L250.549 268.497C250.781 268.439 251.071 268.439 251.36 268.497Z" fill="#22BBDD"/>
<path opacity="0.5" d="M251.966 268.704C256.085 264.585 256.085 257.907 251.966 253.788C247.847 249.669 241.169 249.669 237.05 253.788C232.931 257.907 232.931 264.585 237.05 268.704C241.169 272.823 247.847 272.823 251.966 268.704Z" fill="white" fill-opacity="0.2"/>
<path d="M177.844 130.938C176.602 125.679 179.859 120.408 185.119 119.166C190.378 117.924 195.649 121.181 196.891 126.441C198.133 131.701 194.876 136.971 189.616 138.213C184.356 139.455 179.086 136.198 177.844 130.938Z" fill="#22BBDD"/>
<path opacity="0.2" d="M178.123 128.668C178.123 131.034 179.037 133.185 180.489 134.798C182.155 136.68 184.629 137.863 187.371 137.863C189.414 137.863 191.296 137.217 192.802 136.088C195.114 134.421 196.62 131.679 196.62 128.614C196.62 123.506 192.479 119.366 187.371 119.366C182.263 119.366 178.123 123.56 178.123 128.668Z" fill="white"/>
<path d="M180.489 134.798C182.156 136.68 184.629 137.863 187.372 137.863C189.415 137.863 191.297 137.218 192.802 136.088L189.146 134.959C189.092 135.013 189.039 135.12 188.931 135.228C188.77 135.174 188.608 135.174 188.447 135.12C188.178 135.067 187.856 135.013 187.587 134.959C187.372 134.583 187.264 134.206 187.21 133.83C187.533 133.83 187.694 133.83 187.694 133.83C187.587 133.454 188.124 132.701 188.124 132.701L188.286 133.722C188.286 133.722 188.662 133.669 188.877 133.507C189.146 133.346 189.415 132.271 189.415 132.271C189.415 132.271 190.06 133.346 190.168 133.561C190.329 133.83 190.652 133.561 190.652 133.561C190.652 133.561 190.92 132.647 190.598 131.679C190.275 130.711 191.243 130.765 191.243 130.765C191.243 130.765 191.243 131.141 191.512 131.787C191.781 132.432 191.781 132.755 191.781 133.131C191.781 133.507 191.727 133.776 192.05 133.776C192.318 133.776 192.372 133.507 192.318 133.131C192.265 132.701 192.695 132.324 192.48 132.002C192.211 131.679 192.426 130.765 192.426 130.765C192.587 131.41 193.286 131.357 193.394 131.84C193.501 132.324 193.071 132.97 193.286 133.185C193.501 133.4 193.878 133.185 193.878 133.185C193.878 133.185 193.555 132.701 193.77 132.378C193.985 132.109 194.308 131.948 194.147 131.357C193.985 130.765 193.717 130.765 193.824 130.12C193.932 129.475 194.2 129.475 193.824 129.26C193.448 128.991 192.91 127.862 192.91 127.324C192.91 126.84 193.125 125.657 192.265 125.227C191.404 124.797 191.189 124.474 191.351 123.399C191.512 122.323 190.652 122.377 189.63 122.592C189.63 122.592 189.092 121.785 188.608 121.893C188.124 122.054 187.748 121.947 187.641 121.678C187.533 121.409 186.189 121.409 185.974 121.678C185.759 121.947 185.06 122.108 184.576 121.947C184.145 121.785 182.963 122.485 183.016 122.968C183.07 123.452 183.07 123.721 182.425 124.044C181.78 124.313 181.672 124.474 181.403 125.549C181.134 126.625 181.564 127.109 181.027 127.539C180.489 127.969 180.543 129.636 180.489 130.174C180.435 130.711 180.489 131.303 180.489 131.303C180.489 131.303 180.489 131.303 180.65 131.357C180.812 131.41 180.919 130.765 180.919 130.335C180.865 129.905 181.833 129.26 181.941 129.206C181.941 129.26 181.726 129.636 181.618 129.905C181.511 130.227 181.457 131.034 181.511 131.572C181.564 132.109 180.919 132.378 180.919 132.378L181.618 132.701C181.618 132.701 182.156 131.572 181.941 130.98C181.78 130.389 182.263 129.905 182.263 129.905V130.98C182.263 130.98 182.425 131.357 182.747 131.894C183.016 132.432 182.532 132.593 182.479 132.862C182.425 133.131 183.07 133.131 183.07 133.131L183.178 132.486L183.393 133.131C183.662 133.292 184.145 133.454 184.737 133.561C184.683 134.045 184.576 134.421 184.468 134.637C184.253 134.637 184.038 134.637 183.823 134.583C183.393 134.583 182.963 134.583 182.479 134.583C181.78 134.744 181.027 134.798 180.489 134.798Z" fill="#22BBDD"/>
<path opacity="0.5" d="M177.844 130.938C176.602 125.679 179.859 120.408 185.119 119.166C190.378 117.924 195.649 121.181 196.891 126.441C198.133 131.701 194.876 136.971 189.616 138.213C184.356 139.455 179.086 136.198 177.844 130.938Z" fill="white" fill-opacity="0.2"/>
<line x1="159.93" y1="47.9121" x2="386.778" y2="274.76" stroke="#22BBDD" stroke-opacity="0.4" stroke-dasharray="10 10"/>
<line x1="386.777" y1="47.9289" x2="160.619" y2="274.777" stroke="#22BBDD" stroke-opacity="0.4" stroke-dasharray="10 10"/>
<path d="M268.922 216.715C270.783 216.853 272.645 216.922 274.438 216.922C290.02 216.715 304.293 210.027 314.429 199.27C322.841 190.376 328.357 178.654 329.46 165.484C329.46 165.14 329.529 164.795 329.529 164.45C330.012 157.417 329.116 150.591 327.116 144.248C321.048 124.804 304.638 109.634 283.884 105.773C282.022 105.428 280.092 105.153 278.23 105.015C273.541 104.601 268.991 104.808 264.578 105.566C251.477 107.704 239.824 114.392 231.343 124.045C223.759 132.733 218.725 143.903 217.691 156.314C217.14 162.933 217.76 169.415 219.415 175.551C225.414 197.616 244.72 214.715 268.922 216.715Z" fill="#141413"/>
<path opacity="0.5" d="M268.922 216.715C270.783 216.853 272.645 216.922 274.438 216.922C290.02 216.715 304.293 210.027 314.429 199.27C322.841 190.376 328.357 178.654 329.46 165.484C329.46 165.14 329.529 164.795 329.529 164.45C330.012 157.417 329.116 150.591 327.116 144.248C321.048 124.804 304.638 109.634 283.884 105.773C282.022 105.428 280.092 105.153 278.23 105.015C273.541 104.601 268.991 104.808 264.578 105.566C251.477 107.704 239.824 114.392 231.343 124.045C223.759 132.733 218.725 143.903 217.691 156.314C217.14 162.933 217.76 169.415 219.415 175.551C225.414 197.616 244.72 214.715 268.922 216.715Z" fill="url(#paint1_linear)"/>
<path opacity="0.2" d="M230.93 174.517C230.723 175.551 229.413 175.965 228.379 176.034C226.793 176.241 225.207 176.448 223.552 176.654C222.794 174.655 220.449 174.655 218.795 175.413C224.793 197.615 244.099 214.715 268.301 216.715C270.163 216.853 272.025 216.922 273.817 216.922C273.817 216.853 273.886 216.853 273.886 216.784C274.714 215.336 273.541 214.026 272.852 212.785C272.714 212.509 271.335 209.061 271.818 209.061C270.37 209.061 268.853 208.923 267.474 208.51C267.336 208.51 267.267 208.441 267.198 208.372C267.06 208.165 267.405 207.889 267.612 207.889C268.301 207.751 268.991 207.682 269.611 207.475C270.232 207.268 270.921 206.855 271.128 206.234C271.404 205.614 271.197 204.855 271.335 204.235C271.542 203.407 272.162 202.787 272.921 202.442C273.61 202.097 274.438 201.959 275.265 201.821C273.541 200.925 274.783 198.994 273.472 197.684C273.059 197.271 272.438 196.788 272.714 196.236C272.99 195.754 273.886 195.754 273.955 195.202C274.024 194.788 273.61 194.513 273.266 194.375C272.852 194.306 272.438 194.306 272.093 194.099C271.611 193.823 271.473 193.134 271.749 192.651C272.025 192.237 272.576 192.099 272.99 191.892C273.404 191.686 273.817 191.134 273.541 190.72C273.472 190.651 273.404 190.513 273.266 190.513C272.576 190.1 271.611 190.445 270.921 190.927C270.232 191.41 269.542 191.961 268.646 191.961C268.439 191.617 268.577 191.203 268.922 190.996C269.06 190.927 269.198 190.927 269.267 190.789C269.473 190.582 269.335 190.238 269.198 190.031C268.577 188.859 268.439 187.48 268.784 186.17C270.508 186.17 272.231 186.239 273.886 186.239C273.955 185.825 273.955 185.618 274.369 185.48C273.197 184.101 271.956 182.86 270.921 181.343C270.783 181.136 270.646 180.998 270.439 180.929C270.232 180.86 269.956 180.929 269.749 180.929C268.991 180.86 268.922 179.826 268.991 179.068C268.853 178.861 268.508 178.93 268.37 179.137C268.232 179.343 268.232 179.619 268.025 179.826C267.75 180.102 267.336 180.102 266.991 179.964C265.819 179.481 265.129 177.964 265.681 176.792C265.75 176.654 265.819 176.516 265.957 176.448C266.233 176.31 266.577 176.516 266.922 176.516C268.232 176.723 268.025 175.275 267.75 174.655C267.336 173.758 266.026 173.138 265.129 172.862C264.026 172.586 256.855 171.207 258.028 168.863C258.165 168.656 258.372 168.518 258.579 168.38C259.269 168.104 260.027 168.173 260.786 167.967C261.475 167.76 262.234 167.001 261.889 166.312C261.751 166.036 261.475 165.829 261.337 165.553C260.923 164.795 261.544 163.898 261.268 163.071C261.13 162.726 260.855 162.451 260.648 162.106C260.441 161.761 260.441 161.278 260.786 161.071C261.13 160.865 261.682 161.209 262.027 161.003C262.44 160.796 262.44 160.106 262.027 159.899C261.682 159.624 261.13 159.761 260.717 159.968C260.51 160.106 260.303 160.244 260.096 160.313C259.682 160.382 259.338 159.968 259.131 159.555C258.786 159.003 258.441 158.382 258.096 157.831C257.683 157.831 257.407 158.176 257.269 158.589C257.131 158.934 257.131 159.348 256.993 159.692C256.235 161.416 253.615 161.209 253.959 163.554C254.649 163.485 255.338 164.243 255.132 164.933C254.856 165.76 253.615 166.243 253.753 167.07C253.822 167.346 254.028 167.622 254.097 167.898C254.235 168.725 252.925 169.07 252.374 169.208C250.512 169.828 250.443 168.656 248.788 168.587C248.03 168.587 247.409 169.07 246.651 169.139C245.961 169.208 245.341 168.932 244.651 169.001C242.789 169.139 243.755 171.621 243.893 172.724C242.927 172.035 241.548 172.862 240.79 173.689C239.549 175.068 239.687 174.793 238.101 174.862C237.687 174.862 237.204 175.068 237.066 175.482C236.791 176.172 237.411 176.861 237.411 177.62C237.411 177.964 237.273 178.309 237.342 178.654C237.411 179.55 238.514 179.964 239.204 180.654C239.756 181.205 240.031 182.101 239.893 182.86C239.411 182.86 238.928 182.86 238.446 182.791C238.17 182.239 237.894 181.688 237.618 181.205C237.342 180.722 237.135 180.24 236.653 179.895C236.377 179.688 236.101 179.619 235.963 179.343C235.619 178.861 235.894 178.171 235.963 177.62C236.17 176.172 235.481 173.758 235.067 172.379C234.722 170.862 233.688 170.311 233.343 168.863C233.274 168.587 232.929 168.518 232.723 168.656C232.516 168.794 232.378 169.001 232.309 169.277C232.171 169.828 232.24 170.449 232.447 171C232.102 170.311 230.378 172.173 230.24 172.517C230.034 173.069 230.447 173.896 230.447 174.517C230.378 176.034 230.034 176.861 228.517 175.758C227.896 175.344 227.207 174.862 226.586 175.206C226.724 175.62 226.448 176.034 226.103 176.241C225.759 176.448 225.276 176.448 224.862 176.31C224.586 176.241 224.311 176.172 224.104 175.965C224.035 175.827 223.966 175.689 223.828 175.62C223.414 175.344 222.932 175.827 222.725 176.31" fill="#22BBDD"/>
<path opacity="0.2" d="M298.639 130.457C298.915 130.94 298.639 131.561 298.295 132.043C297.95 132.526 297.536 133.008 297.674 133.56C298.363 133.629 298.984 133.698 299.674 133.767C299.811 133.767 299.949 133.767 300.018 133.905C300.087 133.974 300.087 134.112 300.087 134.25C300.018 134.663 299.949 135.077 299.949 135.56C299.536 135.904 299.122 134.87 298.57 134.939C298.363 135.008 298.226 135.215 298.088 135.422C296.984 137.146 295.123 135.835 294.089 134.939C292.916 133.905 291.193 133.836 289.676 133.836C289.124 133.836 288.504 133.836 288.09 134.25C287.676 134.663 287.676 135.215 287.469 135.767C287.125 136.663 286.297 137.214 285.814 138.042C284.091 140.938 287.193 143.144 289.745 142.317C291.055 141.903 290.848 141.696 292.227 142.041C292.778 142.179 293.468 142.041 293.882 142.731C294.226 143.42 293.744 144.316 292.916 144.316C292.158 144.316 291.399 144.454 290.71 144.041C290.986 144.937 290.71 145.971 290.641 146.937C289.745 146.73 288.917 147.833 289.262 148.66C289.676 148.66 290.296 148.798 290.227 149.281C290.227 149.419 290.158 149.557 290.089 149.626C289.814 150.039 289.4 150.453 289.124 150.936C288.71 151.625 288.71 153.832 287.676 154.038C287.469 154.107 287.331 154.038 287.125 154.107C286.78 154.245 286.504 154.659 286.642 155.073C286.711 155.486 287.056 155.762 287.469 155.831C287.745 155.9 288.021 155.9 288.228 155.969C289.538 156.452 288.366 157.762 288.71 158.382C288.848 158.727 291.055 160.106 291.331 160.175C290.572 160.727 289.883 161.554 289.814 162.519C289.814 163.623 290.572 164.105 291.606 164.45C292.71 164.795 294.02 164.933 294.778 165.208C295.192 165.346 295.743 165.553 296.088 165.208C296.502 164.864 296.433 164.036 296.916 163.829C297.053 163.761 297.26 163.761 297.467 163.761C298.501 163.692 299.329 162.588 299.122 161.554C299.329 161.209 299.811 161.278 300.225 161.278C300.639 161.278 301.122 161.14 301.19 160.796C301.259 160.313 300.708 160.106 300.225 160.037C299.742 160.037 299.329 160.037 298.846 160.175C298.501 160.244 298.157 160.382 297.812 160.244C297.605 160.106 297.398 159.899 297.26 159.692C296.916 159.141 296.64 158.52 296.709 157.9C296.778 157.279 297.26 156.659 297.881 156.659C298.019 156.659 298.226 156.728 298.363 156.659C298.777 156.59 298.984 156.038 298.984 155.624C298.984 155.211 298.777 154.728 298.915 154.314C299.053 153.901 299.605 153.556 299.88 153.901C300.156 153.349 300.294 152.522 299.742 152.246C299.536 152.177 299.398 152.177 299.191 152.177C298.019 152.039 296.364 150.453 297.674 149.488C298.57 148.867 299.949 150.177 300.708 149.005C301.053 148.453 300.846 147.626 301.259 147.143C301.466 147.005 301.742 147.281 301.811 147.557C301.949 148.385 301.673 149.35 300.984 149.901C301.673 150.315 302.707 149.832 303.19 150.453C303.673 151.074 302.983 152.177 303.604 152.659C303.742 152.797 304.017 152.866 304.224 152.866C305.328 153.004 307.327 152.866 307.396 154.383C307.396 154.59 307.396 154.797 307.396 154.935C307.534 155.486 308.292 155.555 308.844 155.486C309.12 154.935 308.775 154.314 308.499 153.694C308.223 153.142 308.292 152.246 308.844 152.108C309.258 152.039 309.809 152.384 310.154 152.108C310.292 151.97 310.43 151.763 310.568 151.694C310.981 151.487 311.395 152.177 311.878 152.315C312.567 152.522 313.05 151.625 313.05 150.936C313.05 150.246 312.843 149.419 313.326 148.936C313.464 148.798 313.671 148.66 313.808 148.522C314.291 148.04 314.36 147.35 314.429 146.661C314.567 145.558 318.773 148.385 319.049 148.385C321.117 148.729 322.358 146.73 323.737 145.558C324.496 145.006 325.323 144.592 326.151 144.179C320.359 125.493 304.638 110.737 285.539 106.256C284.711 106.049 283.815 105.842 282.919 105.773C283.194 107.083 283.953 109.152 283.125 110.393C282.022 111.979 279.678 110.599 278.781 112.461C278.781 112.944 279.54 112.875 279.885 113.151C280.092 113.289 280.16 113.633 280.229 113.84C280.298 114.116 280.574 114.323 280.781 114.254C281.057 114.668 280.643 115.219 280.229 115.564C279.747 115.978 279.333 116.46 279.195 117.081C278.85 118.322 279.678 119.563 280.16 120.735C280.574 121.701 280.85 122.735 281.057 123.769C281.057 123.286 281.746 123.08 282.229 123.286C282.643 123.493 282.919 123.976 283.263 124.321C283.884 124.872 284.642 124.528 285.263 125.01C286.09 125.631 286.573 126.734 287.607 126.872C288.848 127.079 289.676 125.769 290.227 124.665C291.537 125.355 292.365 127.079 293.882 127.148C294.433 127.217 295.054 126.941 295.536 126.734C296.64 126.32 297.743 125.838 298.846 125.424C299.329 125.217 299.811 125.079 300.294 125.217C300.846 125.424 301.122 125.976 301.328 126.527C301.535 127.079 301.811 127.699 302.018 128.251C302.087 128.458 302.225 128.734 302.156 129.009C302.087 129.285 301.88 129.492 301.604 129.63C300.363 130.457 298.777 130.733 297.329 130.526C297.467 132.526 297.881 134.525 298.501 136.387C297.398 136.111 296.088 136.456 295.054 136.042" fill="#22BBDD"/>
<path opacity="0.2" d="M285.815 175.965C285.401 176.447 284.78 176.861 284.091 176.861C283.677 176.861 283.332 176.723 282.919 176.654C282.505 176.585 282.022 176.654 281.815 176.999C281.54 177.413 281.815 177.964 282.091 178.447C282.298 178.792 282.574 179.205 282.988 179.274C283.263 179.343 283.608 179.274 283.884 179.343C284.505 179.412 284.849 180.033 285.263 180.447C285.677 180.929 286.297 181.343 286.849 180.998C287.194 180.791 287.332 180.378 287.676 180.171C288.504 179.619 289.538 180.791 290.227 180.378C291.124 179.895 290.779 178.447 290.434 177.62C290.09 176.792 289.331 176.172 288.642 175.551C286.918 173.758 287.125 174.379 285.815 175.965Z" fill="#22BBDD"/>
<path opacity="0.2" d="M313.74 199.201C322.565 190.444 327.737 177.757 328.702 165.484C328.702 165.139 328.771 164.795 328.771 164.45C327.047 162.726 323.669 161.554 322.772 164.726C322.427 164.726 322.359 164.519 322.083 164.312C321.669 164.036 321.048 164.45 320.842 164.864C320.083 166.381 319.945 168.311 317.877 167.898C315.326 167.415 317.049 166.312 316.222 164.933C316.084 164.726 315.877 164.588 315.739 164.45C315.119 163.829 315.188 162.864 315.326 162.037C315.808 162.313 316.498 162.037 316.636 161.485C316.705 161.278 316.705 161.071 316.842 160.933C317.118 160.589 317.739 160.933 317.877 161.347C318.015 161.761 317.877 162.244 318.015 162.657C318.084 163.071 318.566 163.485 318.98 163.278C319.118 163.209 319.187 163.002 319.256 162.795C319.463 162.037 319.325 161.209 318.842 160.589C319.256 160.451 319.601 160.037 319.532 159.623C319.532 159.21 319.187 158.796 318.773 158.727C318.153 158.589 317.256 158.934 317.049 158.382C317.118 158.865 316.911 159.417 316.498 159.761C314.843 160.934 311.189 159.899 311.602 163.347C311.671 163.898 311.878 164.45 311.809 165.002C311.809 165.553 311.464 166.174 310.913 166.312C311.878 167.139 311.533 168.932 312.568 169.621C313.05 169.966 313.809 169.897 314.222 169.414C314.291 169.345 314.36 169.277 314.429 169.208C314.636 169.139 314.774 169.345 314.981 169.345C315.326 169.414 315.601 169.07 315.946 169.07C316.429 169.07 316.705 169.621 316.774 170.104C316.842 170.587 316.98 171.207 317.463 171.276C317.601 171.345 317.808 171.276 317.946 171.345C318.29 171.414 318.497 171.759 318.497 172.104C318.497 172.448 318.359 172.793 318.29 173.069C318.084 173.276 317.739 173.138 317.532 172.931C317.325 172.724 317.187 172.448 316.98 172.241C316.842 172.172 313.947 172.379 314.015 172.172C313.602 173.207 313.326 175.413 311.878 174.793C311.326 174.586 310.775 174.241 310.223 174.379C310.499 173.689 310.706 172.931 310.982 172.241C310.775 172.035 310.43 172.31 310.292 172.586C310.223 172.862 310.154 173.207 309.947 173.414C309.81 173.551 309.534 173.551 309.327 173.551C308.637 173.551 307.948 173.551 307.327 173.483C306.569 173.483 305.741 173.483 305.259 174.103C304.707 174.724 305.052 175.758 305.604 176.378C305.741 176.516 305.879 176.723 305.879 176.861C305.879 177.068 305.741 177.206 305.604 177.275C304.914 177.964 304.431 178.93 304.638 179.826C304.776 180.791 305.672 181.619 306.638 181.55C306.983 181.55 307.465 181.412 307.672 181.688C307.81 181.895 307.81 182.17 308.017 182.239C308.293 182.377 308.499 182.032 308.637 181.826C308.982 181.481 309.534 181.343 309.947 181.619C310.154 181.757 310.844 183.825 310.637 184.101C310.223 184.79 308.293 184.515 307.534 184.584C307.258 184.584 306.914 184.653 306.707 184.859C306.431 185.204 306.638 185.756 306.983 186.032C307.327 186.307 307.741 186.583 307.948 186.997C308.017 187.273 308.017 187.548 308.017 187.755C308.017 188.307 307.948 188.859 307.534 189.203C307.327 189.341 307.12 189.479 306.914 189.617C306.5 189.962 306.431 190.651 306.569 191.203C306.707 191.754 306.983 192.237 307.12 192.789C307.327 193.961 306.707 195.271 307.189 196.374C307.396 196.926 308.155 197.339 308.568 196.995C308.982 196.65 308.982 195.892 309.465 195.823C309.947 195.754 310.568 196.995 310.913 197.202C311.257 197.408 311.878 197.064 312.43 197.477C313.119 198.029 313.257 198.787 313.74 199.201Z" fill="#22BBDD"/>
<path opacity="0.2" d="M238.928 124.528C239.41 123.907 239.755 123.149 240.652 123.011C241.893 122.804 242.375 123.493 241.824 124.734C241.755 124.872 241.755 124.941 241.755 125.079C241.824 125.424 242.375 125.217 242.72 125.01C243.479 124.528 244.375 124.528 245.133 124.872C245.34 124.941 245.685 121.494 245.478 121.08C244.858 119.701 241.893 120.322 242.513 118.805C243.616 118.805 244.72 118.943 245.823 119.011C245.892 118.46 245.961 117.977 246.03 117.426C245.961 117.839 248.029 117.77 248.236 117.632C249.133 117.15 248.926 115.564 250.512 115.771C252.58 116.116 252.649 120.115 250.374 119.494C249.822 120.666 249.615 122.114 249.546 123.424C249.133 123.424 248.719 123.424 248.305 123.424C248.098 123.7 248.029 124.114 248.167 124.459C249.201 125.148 250.649 125.217 251.684 124.459C252.373 124.941 253.27 124.459 253.959 123.976C254.924 125.493 257.682 125.286 258.372 123.631C259.061 121.976 257.338 119.839 255.545 120.253C255.545 119.425 255.2 118.598 254.649 117.908C256.855 117.977 258.992 116.46 259.682 114.392C260.027 113.357 260.096 112.047 260.992 111.427C261.406 111.151 261.888 111.013 262.302 110.737C263.198 110.117 263.474 108.945 263.612 107.841C263.681 107.083 263.75 106.393 263.819 105.635C250.718 107.772 239.066 114.461 230.585 124.114C230.516 124.528 230.516 124.872 230.654 125.286C230.93 125.907 231.688 126.182 232.378 126.389C235.067 127.079 236.79 126.941 238.652 124.872C238.79 124.596 238.859 124.596 238.928 124.528Z" fill="#22BBDD"/>
<path d="M400.446 108.597C400.446 112.056 399.276 115.21 397.343 117.753C396.835 118.465 396.224 119.127 395.563 119.686C394.953 120.246 394.342 120.754 393.63 121.161C393.579 121.212 393.579 121.212 393.528 121.212C392.969 121.568 392.46 121.873 391.85 122.128C389.917 123.043 387.73 123.552 385.441 123.552C380.863 123.552 376.743 121.517 373.996 118.262C371.758 115.617 370.385 112.26 370.385 108.547C370.385 100.255 377.099 93.5413 385.39 93.5413C393.681 93.5921 400.446 100.357 400.446 108.597Z" fill="#252423"/>
<path d="M385.39 124.111C393.958 124.111 400.904 117.166 400.904 108.597C400.904 100.029 393.958 93.0835 385.39 93.0835C376.822 93.0835 369.876 100.029 369.876 108.597C369.876 117.166 376.822 124.111 385.39 124.111Z" fill="url(#paint2_linear)" fill-opacity="0.6"/>
<path d="M388.899 108.597C389.255 107.885 389.459 108.191 390.425 108.903C391.392 109.666 391.544 110.327 391.544 111.09C391.544 111.853 391.392 113.43 391.392 113.43L393.884 116.227L392.765 117.906L389.866 114.65C389.866 114.65 388.441 113.582 388.187 112.361C387.984 111.192 388.899 108.597 388.899 108.597Z" fill="#EBB376"/>
<path d="M388.594 107.783L390.628 111.446C390.73 111.598 390.679 111.802 390.578 111.954L389.001 113.786C388.797 114.04 388.441 113.989 388.289 113.735L386.457 110.734L388.594 107.783Z" fill="#263238"/>
<path opacity="0.4" d="M388.441 108.19L390.272 111.548L388.542 113.582L386.711 110.581L388.441 108.19Z" fill="#22BBDD"/>
<path d="M393.579 121.212C393.579 121.314 393.579 121.365 393.629 121.416C393.579 121.365 393.528 121.314 393.528 121.263C392.968 121.619 392.46 121.924 391.849 122.178C392.002 121.161 392.154 120.195 392.256 119.432C392.358 118.72 392.46 118.109 392.561 117.702C392.612 117.295 392.663 117.041 392.714 116.99C392.917 117.041 393.07 117.092 393.222 117.143C393.985 117.55 394.748 118.414 395.511 119.635C394.901 120.246 394.291 120.754 393.579 121.212Z" fill="#22BBDD"/>
<path d="M393.629 121.415C393.578 121.365 393.527 121.314 393.527 121.263C392.968 121.619 392.459 121.924 391.849 122.178C389.916 123.094 387.729 123.603 385.44 123.603C380.862 123.603 376.742 121.568 373.995 118.313C374.25 118.262 374.504 118.211 374.758 118.16C374.758 118.16 374.809 118.16 374.86 118.16C374.911 118.16 374.962 118.16 375.013 118.109C375.674 117.957 376.386 117.855 377.098 117.753C377.403 117.702 377.708 117.651 378.014 117.651C378.42 117.601 378.827 117.55 379.234 117.499C379.285 117.499 379.285 117.499 379.336 117.499C380.252 117.397 381.218 117.295 382.083 117.245C382.388 117.245 382.693 117.194 382.948 117.194C383.354 117.194 383.71 117.143 384.067 117.143C384.423 117.143 384.83 117.092 385.186 117.092C385.338 117.092 385.491 117.092 385.643 117.092C386.101 117.092 386.508 117.041 386.915 117.041C388.237 116.99 389.407 116.99 390.374 117.041C390.577 117.041 390.781 117.041 390.984 117.041C391.34 117.041 391.645 117.041 391.9 117.092C392.408 117.092 392.663 117.092 392.663 117.092C392.714 117.295 392.765 117.55 392.866 117.804C393.121 118.872 393.375 119.991 393.578 121.263C393.629 121.263 393.629 121.365 393.629 121.415Z" fill="#22BBDD"/>
<path opacity="0.2" d="M393.629 121.415C393.578 121.364 393.527 121.313 393.527 121.262C392.968 121.618 392.459 121.924 391.849 122.178C389.916 123.093 387.729 123.602 385.44 123.602C380.862 123.602 376.742 121.568 373.995 118.312C373.893 118.312 373.741 118.363 373.639 118.414C373.741 118.363 373.893 118.363 373.995 118.312C374.249 118.261 374.504 118.21 374.809 118.16C374.809 118.16 374.86 118.16 374.911 118.16C374.962 118.16 375.012 118.16 375.063 118.109C375.725 117.956 376.437 117.854 377.149 117.753C377.454 117.702 377.759 117.651 378.064 117.651C378.471 117.6 378.878 117.549 379.285 117.498C379.336 117.498 379.336 117.498 379.387 117.498C380.302 117.397 381.269 117.295 382.134 117.244C382.439 117.244 382.744 117.193 382.998 117.193C383.405 117.193 383.761 117.142 384.117 117.142C384.473 117.142 384.88 117.091 385.236 117.091C385.389 117.091 385.542 117.091 385.694 117.091C386.152 117.091 386.559 117.041 386.966 117.041C388.288 117.041 389.458 117.041 390.425 117.041C390.628 117.041 390.832 117.041 391.035 117.041C391.391 117.041 391.696 117.041 391.9 117.041C392.408 117.041 392.663 117.091 392.663 117.091C392.714 117.295 392.764 117.549 392.866 117.804C393.12 118.872 393.375 119.991 393.578 121.262C393.629 121.262 393.629 121.364 393.629 121.415Z" fill="black"/>
<path d="M379.234 117.499C380.862 118.974 384.931 118.465 384.931 118.465C384.931 118.465 387.475 117.753 386.915 116.99C385.44 116.736 384.728 116.075 384.423 115.159C384.27 114.65 384.219 114.04 384.27 113.48C384.27 113.175 384.321 112.87 384.372 112.514L379.387 108.801C380.048 111.191 380.862 115.718 379.234 117.499Z" fill="#EBB376"/>
<path opacity="0.2" d="M380.557 111.141C380.76 114.142 383.202 114.956 384.423 115.159C384.27 114.65 384.219 114.04 384.27 113.48L380.557 111.141Z" fill="black"/>
<path d="M389.154 101.629C389.154 101.629 389.866 106.308 387.373 108.089C384.881 109.869 384.881 101.171 384.881 101.171L389.154 101.629Z" fill="#263238"/>
<path d="M380.202 111.802C381.423 113.531 383.355 113.989 385.085 113.43C386.204 113.073 387.17 112.31 387.781 111.242C387.882 111.09 387.933 110.937 387.984 110.785C389.205 107.936 389.612 102.951 386.56 101.069C384.424 99.6959 381.575 100.357 380.253 102.493C379.846 103.104 379.642 103.816 379.541 104.528C379.185 107.885 378.828 109.818 380.202 111.802Z" fill="#EBB376"/>
<path d="M382.694 100.866V102.341C382.185 102.544 381.829 103.053 381.982 103.663C382.287 104.935 381.372 106.766 380.354 107.427C380.354 107.427 380.405 106.868 379.947 106.97C379.49 107.02 379.286 109.869 379.998 111.293C379.998 111.293 378.828 109.92 378.421 106.919C378.065 104.121 378.269 101.883 378.93 100.866H382.694Z" fill="#263238"/>
<path d="M377.658 107.02C377.912 107.834 378.472 108.496 379.184 108.903C380.151 109.411 380.914 108.597 380.863 107.529C380.812 106.563 380.201 105.138 379.133 105.088C378.014 105.037 377.353 106.003 377.658 107.02Z" fill="#EBB376"/>
<path d="M382.694 102.341C382.694 102.341 383.66 103.307 384.627 102.595C384.627 102.595 385.695 103.46 386.56 102.85C386.56 102.85 387.018 103.663 387.831 103.765C388.594 103.867 388.594 103.053 388.594 103.053C388.594 103.053 389.815 103.765 390.273 103.409C390.731 103.053 390.019 101.731 390.019 101.731C390.019 101.731 390.578 101.425 390.222 100.357C389.866 99.289 388.137 99.5434 388.137 99.5434C388.137 99.5434 388.187 98.526 387.018 97.5087C385.797 96.4914 385.085 97.7631 385.085 97.7631C385.085 97.7631 383.915 96.1862 382.491 96.3897C381.066 96.5932 381.219 97.6105 381.219 97.6105C381.219 97.6105 379.54 96.5932 378.828 97.6105C378.065 98.6278 378.828 99.1364 378.828 99.1364C378.828 99.1364 377.15 99.696 377.251 100.815C377.353 101.934 378.167 101.781 378.167 101.781C378.167 101.781 377.709 102.341 378.777 102.799C379.846 103.257 380.863 102.137 380.863 102.137C380.863 102.137 380.456 102.799 381.219 103.206C381.982 103.663 382.694 102.341 382.694 102.341Z" fill="#263238"/>
<path d="M384.932 118.414C384.932 118.414 379.082 114.447 377.251 114.244C375.369 114.04 375.725 116.329 375.725 116.329C375.725 116.329 374.301 116.329 374.861 118.109C375.42 119.89 383.355 120.856 386.254 119.991C389.205 119.127 390.934 117.499 390.425 115.922C389.917 114.396 388.594 115.719 388.594 115.719C388.594 115.719 387.831 114.244 386.661 114.6C385.542 114.905 384.932 118.414 384.932 118.414Z" fill="#22BBDD"/>
<path d="M397.292 117.753C396.783 118.465 396.173 119.127 395.512 119.686C394.901 120.246 394.291 120.754 393.579 121.161C393.579 121.263 393.579 121.314 393.63 121.365C393.579 121.314 393.528 121.263 393.528 121.212C393.121 120.703 392.714 120.042 392.256 119.381C391.748 118.516 391.239 117.651 391.036 116.939C390.985 116.685 390.934 116.482 390.934 116.329L390.476 115.668L390.629 115.464L391.9 113.938L392.206 113.633L392.765 114.345C392.765 114.345 393.477 114.091 395.715 116.024C396.224 116.583 396.834 117.194 397.292 117.753Z" fill="#22BBDD"/>
<path d="M191.739 200.785C191.739 203.95 190.653 206.831 188.763 209.099C188.196 209.76 187.582 210.422 186.921 210.988C186.684 211.177 186.495 211.319 186.259 211.508C185.645 211.98 184.937 212.358 184.228 212.736C182.527 213.539 180.638 214.012 178.606 214.012C176.197 214.012 173.93 213.35 171.993 212.217C171.473 211.933 171.001 211.603 170.576 211.272L170.528 211.225C170.009 210.799 169.489 210.327 169.064 209.855C166.844 207.493 165.521 204.375 165.521 200.879C165.521 193.604 171.426 187.699 178.654 187.699C185.834 187.652 191.739 193.557 191.739 200.785Z" fill="#252423"/>
<path d="M178.606 214.437C186.146 214.437 192.259 208.325 192.259 200.785C192.259 193.245 186.146 187.132 178.606 187.132C171.066 187.132 164.954 193.245 164.954 200.785C164.954 208.325 171.066 214.437 178.606 214.437Z" fill="url(#paint3_linear)" fill-opacity="0.6"/>
<path d="M186.921 210.988C186.685 211.177 186.496 211.319 186.26 211.508C185.646 211.98 184.937 212.358 184.229 212.736C182.528 213.539 180.638 214.012 178.607 214.012C176.198 214.012 173.93 213.35 171.993 212.217C171.474 211.933 171.001 211.603 170.576 211.272L170.529 211.225C170.529 211.177 170.529 211.177 170.529 211.13C170.624 210.705 170.765 210.28 170.86 209.807C171.001 209.193 171.143 208.532 171.238 207.871C171.521 206.123 171.71 204.233 171.616 202.296C171.379 195.305 172.655 192.754 175.489 191.384C175.631 191.337 175.725 191.242 175.867 191.195C176.528 190.912 177.237 190.864 177.851 190.959C180.308 191.289 182.386 193.557 182.386 193.557C182.386 193.557 182.859 194.218 183.52 195.447C184.654 197.667 186.354 201.824 186.78 207.445C186.921 208.532 186.968 209.713 186.921 210.988Z" fill="#263238"/>
<path d="M186.827 207.398C186.307 207.02 185.835 206.737 185.457 206.69C185.457 206.69 182.67 206.406 180.26 206.454C179.977 206.454 179.741 206.454 179.457 206.501C178.229 206.548 177.001 206.69 175.773 206.879C175.395 206.926 175.064 206.973 174.686 207.068C173.505 207.257 172.324 207.54 171.19 207.824C170.623 207.965 170.104 208.154 169.537 208.296C169.348 208.532 169.159 209.099 168.97 209.808C169.442 210.327 169.915 210.752 170.435 211.178L170.482 211.225C170.954 211.603 171.427 211.886 171.899 212.17C173.836 213.303 176.103 213.965 178.513 213.965C180.497 213.965 182.433 213.492 184.134 212.689C184.843 212.359 185.551 211.933 186.165 211.461C186.402 211.272 186.638 211.13 186.827 210.941C187.488 210.374 188.149 209.76 188.669 209.052C188.149 208.438 187.488 207.824 186.827 207.398Z" fill="#22BBDD"/>
<path opacity="0.2" d="M186.827 207.398C186.307 207.02 185.835 206.737 185.457 206.69C185.457 206.69 182.67 206.406 180.26 206.454C179.977 206.454 179.741 206.454 179.457 206.501C178.229 206.548 177.001 206.69 175.773 206.879C175.395 206.926 175.064 206.973 174.686 207.068C173.505 207.257 172.324 207.54 171.19 207.824C170.623 207.965 170.104 208.154 169.537 208.296C169.348 208.532 169.159 209.099 168.97 209.808C169.442 210.327 169.915 210.752 170.435 211.178L170.482 211.225C170.954 211.603 171.427 211.886 171.899 212.17C173.836 213.303 176.103 213.965 178.513 213.965C180.497 213.965 182.433 213.492 184.134 212.689C184.843 212.359 185.551 211.933 186.165 211.461C186.402 211.272 186.638 211.13 186.827 210.941C187.488 210.374 188.149 209.76 188.669 209.052C188.149 208.438 187.488 207.824 186.827 207.398Z" fill="white"/>
<path d="M179.269 209.146C176.198 208.768 175.301 207.445 175.301 207.445C176.529 206.264 176.34 204.517 176.009 203.43C175.82 202.816 175.631 202.438 175.631 202.438L179.316 203.147C179.222 203.761 179.174 204.28 179.174 204.705C179.174 205.178 179.222 205.556 179.269 205.839C179.505 206.926 180.166 206.973 180.166 206.973C180.78 208.154 179.269 209.146 179.269 209.146Z" fill="#EEC1BB"/>
<path opacity="0.2" d="M179.127 204.706C179.127 205.178 179.174 205.556 179.221 205.839C177.757 205.65 176.67 204.469 175.961 203.477C175.773 202.863 175.584 202.485 175.584 202.485L179.268 203.194C179.174 203.761 179.127 204.233 179.127 204.706Z" fill="black"/>
<path d="M178.512 192.943C181.725 193.085 182.67 194.833 182.811 198.139C182.953 202.297 181.914 205.178 177.946 204.139C172.56 202.722 173.222 192.754 178.512 192.943Z" fill="#EEC1BB"/>
<path d="M174.828 198.187C174.828 198.187 176.434 195.588 176.292 193.557C176.292 193.557 182.717 191.195 182.811 197.667C182.811 197.667 183.661 191.951 178.134 191.62C172.655 191.29 172.371 199.32 175.111 201.871C175.111 201.871 173.836 199.793 174.828 198.187Z" fill="#263238"/>
<path d="M175.347 198.895C175.347 198.375 174.827 197.478 173.883 197.572C172.891 197.667 172.324 199.651 174.78 200.265C175.111 200.312 175.347 199.982 175.347 198.895Z" fill="#EEC1BB"/>
<path d="M176.717 190.817C178.465 190.345 183.047 190.25 184.134 195.069L183.473 195.399C183.473 195.399 181.914 194.549 180.024 194.36C180.024 194.36 179.646 193.651 179.127 193.085C179.127 193.085 179.174 193.84 179.127 194.313C179.127 194.313 176.103 194.738 174.781 195.966C172.655 197.903 172.513 199.131 172.513 199.131C172.513 199.131 171.096 192.376 176.717 190.817Z" fill="#263238"/>
<path d="M184.606 195.021C184.559 195.021 184.512 194.974 184.512 194.927C183.945 193.274 183.047 192.14 181.724 191.478C179.362 190.297 176.528 191.242 176.528 191.289C176.481 191.289 176.386 191.289 176.386 191.195C176.386 191.148 176.386 191.053 176.481 191.053C176.528 191.053 179.41 190.061 181.866 191.289C183.236 191.951 184.181 193.179 184.748 194.88C184.748 194.927 184.7 194.974 184.606 195.021C184.653 195.021 184.606 195.021 184.606 195.021Z" fill="#263238"/>
<path d="M383.242 234.985C383.242 237.025 382.769 238.955 381.894 240.667C381.712 240.995 381.53 241.323 381.348 241.651C381.202 241.906 381.02 242.161 380.838 242.379C380.11 243.399 379.199 244.31 378.215 245.075C377.997 245.257 377.742 245.403 377.487 245.585C376.503 246.24 375.447 246.714 374.318 247.078C373.152 247.442 371.878 247.624 370.603 247.624C368.745 247.624 366.96 247.224 365.358 246.495C365.139 246.386 364.957 246.313 364.738 246.204C363.609 245.621 362.553 244.856 361.679 243.946C360.804 243.071 360.04 242.088 359.457 240.995C359.275 240.667 359.129 240.34 358.983 240.048C358.291 238.518 357.927 236.77 357.927 234.985C357.927 227.992 363.609 222.309 370.603 222.309C377.56 222.309 383.242 227.992 383.242 234.985Z" fill="#252423"/>
<path d="M379.787 244.207C384.879 239.114 384.879 230.858 379.787 225.765C374.694 220.673 366.438 220.673 361.346 225.765C356.253 230.858 356.253 239.114 361.346 244.207C366.438 249.299 374.694 249.299 379.787 244.207Z" fill="url(#paint4_linear)" fill-opacity="0.6"/>
<path d="M364.265 234.475C364.082 234.803 363.463 235.422 363.463 235.422L362.371 240.595L361.642 243.982C360.768 243.108 360.003 242.124 359.42 241.032C359.493 240.74 359.602 240.485 359.712 240.194C360.476 237.79 361.387 235.022 361.423 234.767C361.533 234.293 361.096 231.889 361.205 231.452C361.314 231.015 363.5 230.505 363.973 230.505C364.447 230.468 364.41 234.184 364.265 234.475Z" fill="#9F5B53"/>
<path d="M365.94 240.194L365.466 244.929L365.321 246.532C365.102 246.422 364.92 246.35 364.701 246.24C363.572 245.657 362.516 244.893 361.642 243.982C360.767 243.108 360.003 242.124 359.42 241.032C359.238 240.704 359.092 240.376 358.946 240.084L359.675 240.194L362.334 240.631L362.916 240.74L362.224 244.018C362.261 243.945 364.738 240.558 365.94 240.194Z" fill="#22BBDD"/>
<path opacity="0.3" d="M365.94 240.194L365.466 244.929L365.321 246.532C365.102 246.422 364.92 246.35 364.701 246.24C363.572 245.657 362.516 244.893 361.642 243.982C360.767 243.108 360.003 242.124 359.42 241.032C359.238 240.704 359.092 240.376 358.946 240.084L359.675 240.194L362.334 240.631L362.916 240.74L362.224 244.018C362.261 243.945 364.738 240.558 365.94 240.194Z" fill="black"/>
<path d="M381.893 240.667C381.711 240.995 381.529 241.323 381.346 241.651C381.201 241.906 381.019 242.161 380.836 242.379C380.108 243.399 379.197 244.31 378.214 245.075C377.995 245.257 377.74 245.402 377.485 245.584C376.502 246.24 375.446 246.714 374.316 247.078C373.151 247.442 371.876 247.624 370.601 247.624C368.743 247.624 366.959 247.224 365.356 246.495C365.137 246.386 364.955 246.313 364.737 246.204C365.247 242.561 365.902 240.412 365.975 240.194C367.286 239.829 368.634 239.538 369.982 239.392C370.018 239.392 370.018 239.392 370.055 239.392C371.985 239.247 373.952 239.21 375.919 239.283C377.267 239.319 378.615 239.465 379.962 239.684C380.108 239.72 381.019 240.084 381.893 240.667Z" fill="#22BBDD"/>
<path opacity="0.3" d="M381.893 240.667C381.711 240.995 381.529 241.323 381.346 241.651C381.201 241.906 381.019 242.161 380.836 242.379C380.108 243.399 379.197 244.31 378.214 245.075C377.995 245.257 377.74 245.402 377.485 245.584C376.502 246.24 375.446 246.714 374.316 247.078C373.151 247.442 371.876 247.624 370.601 247.624C368.743 247.624 366.959 247.224 365.356 246.495C365.137 246.386 364.955 246.313 364.737 246.204C365.247 242.561 365.902 240.412 365.975 240.194C367.286 239.829 368.634 239.538 369.982 239.392C370.018 239.392 370.018 239.392 370.055 239.392C371.985 239.247 373.952 239.21 375.919 239.283C377.267 239.319 378.615 239.465 379.962 239.684C380.108 239.72 381.019 240.084 381.893 240.667Z" fill="black"/>
<path opacity="0.8" d="M378.179 245.111C377.96 245.293 377.705 245.439 377.45 245.621C376.467 246.277 375.411 246.75 374.281 247.114C373.116 247.479 371.841 247.661 370.566 247.661C368.708 247.661 366.924 247.26 365.321 246.532C365.102 246.422 364.92 246.349 364.702 246.24C364.702 246.131 364.738 246.022 364.738 245.912C364.957 245.585 365.175 245.257 365.467 244.929C366.778 243.253 368.599 241.578 369.546 240.776C369.801 241.104 370.238 241.359 370.967 241.505C372.169 241.724 373.516 241.177 374.646 240.521C375.156 241.031 375.92 241.833 376.649 242.707C377.195 243.363 377.669 244.091 377.997 244.71C378.07 244.82 378.142 244.965 378.179 245.111Z" fill="white"/>
<path d="M375.92 239.247C375.92 239.247 374.427 241.068 371.622 241.213C369.181 241.323 369.983 239.392 369.983 239.392C370.893 239.174 371.367 238.737 371.622 238.227C371.95 237.571 371.84 236.733 371.658 235.932C371.658 235.859 371.622 235.823 371.622 235.75L375.191 232.544C374.827 234.475 374.536 238.008 375.92 239.247Z" fill="#9F5B53"/>
<path opacity="0.2" d="M374.573 235.386C374.39 236.624 372.897 237.826 371.586 238.191C371.914 237.535 371.804 236.697 371.622 235.896L374.573 233.637C374.718 234.22 374.718 234.803 374.573 235.386Z" fill="black"/>
<path d="M372.278 228.429C373.116 229.376 372.351 230.468 369.546 231.707C368.927 230.25 369.364 227.809 370.275 227.409C371.185 227.008 371.513 227.591 372.278 228.429Z" fill="#263238"/>
<path d="M376.212 231.488C375.447 233.965 375.156 235.459 373.553 236.442C371.185 237.936 368.344 236.041 368.344 233.382C368.344 230.978 369.583 227.336 372.278 226.899C374.209 226.608 376.03 227.919 376.321 229.849C376.394 230.396 376.358 230.942 376.212 231.488Z" fill="#9F5B53"/>
<path d="M375.738 229.012C374.463 229.121 374.317 230.432 375.519 233.273C376.976 232.618 378.288 230.541 377.887 229.631C377.486 228.684 376.831 228.902 375.738 229.012Z" fill="#263238"/>
<path d="M376.904 233.783C376.576 234.366 376.066 234.767 375.411 234.949C374.573 235.167 374.172 234.439 374.391 233.637C374.61 232.945 375.302 231.962 376.139 232.071C377.014 232.18 377.305 233.055 376.904 233.783Z" fill="#9F5B53"/>
<path d="M373.262 227.955C373.262 227.955 373.007 230.578 375.374 231.343C377.742 232.108 378.652 230.76 378.652 230.76C378.652 230.76 378.252 230.723 378.033 230.651C378.033 230.651 379.053 229.594 378.652 228.247C378.252 226.899 376.139 225.041 374.172 225.223C374.172 225.223 372.642 224.131 370.712 224.677C368.781 225.223 368.526 227.409 368.526 227.409C368.526 227.409 368.781 226.097 369.655 225.952C369.655 225.952 368.016 228.356 369.291 229.449C369.328 229.449 370.129 226.862 373.262 227.955Z" fill="#263238"/>
<defs>
<linearGradient id="paint0_linear" x1="235.646" y1="64.6328" x2="235.646" y2="92.9799" gradientUnits="userSpaceOnUse">
<stop stop-color="white"/>
<stop offset="1" stop-color="#22BBDD"/>
</linearGradient>
<linearGradient id="paint1_linear" x1="273.576" y1="104.805" x2="273.576" y2="216.922" gradientUnits="userSpaceOnUse">
<stop stop-color="#22BBDD"/>
<stop offset="1" stop-color="#22BBDD" stop-opacity="0"/>
</linearGradient>
<linearGradient id="paint2_linear" x1="385.39" y1="93.0835" x2="385.39" y2="124.111" gradientUnits="userSpaceOnUse">
<stop stop-color="white"/>
<stop offset="1" stop-color="#22BBDD"/>
</linearGradient>
<linearGradient id="paint3_linear" x1="178.606" y1="187.132" x2="178.606" y2="214.437" gradientUnits="userSpaceOnUse">
<stop stop-color="white"/>
<stop offset="1" stop-color="#22BBDD"/>
</linearGradient>
<linearGradient id="paint4_linear" x1="361.346" y1="225.765" x2="379.787" y2="244.207" gradientUnits="userSpaceOnUse">
<stop stop-color="white"/>
<stop offset="1" stop-color="#22BBDD"/>
</linearGradient>
</defs>
</svg>
