<svg width="513" height="306" viewBox="0 0 513 306" fill="none" xmlns="http://www.w3.org/2000/svg">
<path d="M58.132 129.459H87.6927C89.9018 129.459 91.6927 127.668 91.6927 125.459V122.672C91.6927 120.462 93.4836 118.672 95.6927 118.672H105.072C107.282 118.672 109.072 120.462 109.072 122.672V136.846C109.072 139.055 110.863 140.846 113.072 140.846H115.86C118.069 140.846 119.86 139.055 119.86 136.846V133.459C119.86 131.25 121.651 129.459 123.86 129.459H129.449" stroke="#22BBDD"/>
<path d="M37.1565 96.4977H85.8948C88.1039 96.4977 89.8948 94.7069 89.8948 92.4977V77.7244C89.8948 75.5152 91.6857 73.7244 93.8948 73.7244H115.86C118.069 73.7244 119.86 75.5152 119.86 77.7244V85.9054C119.86 88.1146 121.651 89.9054 123.86 89.9054H145.825C148.034 89.9054 149.825 91.6963 149.825 93.9054V98.8949" stroke="#22BBDD"/>
<path d="M49.7418 163.619H85.8949C88.104 163.619 89.8949 165.41 89.8949 167.619V182.393C89.8949 184.602 91.6857 186.393 93.8949 186.393H115.86C118.069 186.393 119.86 184.602 119.86 182.393V174.212C119.86 172.002 121.651 170.212 123.86 170.212H145.825C148.034 170.212 149.825 168.421 149.825 166.212V161.222" stroke="#22BBDD"/>
<path d="M79.7068 220.553V210.769C79.7068 208.56 77.9159 206.769 75.7068 206.769H59.7348C57.5257 206.769 55.7348 204.978 55.7348 202.769V167.619C55.7348 165.41 53.944 163.619 51.7348 163.619H0" stroke="#22BBDD"/>
<path d="M80.3061 96.4978V105.266C80.3061 107.475 78.5153 109.266 76.3061 109.266H61.9563C59.7472 109.266 57.9563 111.057 57.9563 113.266V145.236C57.9563 147.445 56.1655 149.236 53.9563 149.236H5.99304" stroke="#22BBDD"/>
<path d="M142.034 169.612V199.173C142.034 201.382 140.243 203.173 138.034 203.173H122.062C119.853 203.173 118.062 204.964 118.062 207.173V223.145C118.062 225.354 119.853 227.145 122.062 227.145H161.406C163.616 227.145 165.406 228.936 165.406 231.145V242.727" stroke="#22BBDD"/>
<path d="M178.288 273.89V231.125C178.288 228.916 180.079 227.125 182.288 227.125H198.563C200.772 227.125 202.563 225.334 202.563 223.125V197.722C202.563 195.512 200.772 193.722 198.563 193.722H158.619C156.41 193.722 154.619 191.931 154.619 189.722V172.009" stroke="#22BBDD"/>
<path d="M107.275 186.393V215.953C107.275 218.162 105.484 219.953 103.275 219.953H69.9229C67.7138 219.953 65.9229 221.744 65.9229 223.953V239.925C65.9229 242.134 67.7138 243.925 69.9229 243.925H88.8914C91.1005 243.925 92.8914 245.716 92.8914 247.925V272.092" stroke="#22BBDD"/>
<path d="M454.868 129.459H425.307C423.098 129.459 421.307 127.668 421.307 125.459V122.672C421.307 120.462 419.516 118.672 417.307 118.672H407.927C405.718 118.672 403.927 120.462 403.927 122.672V136.846C403.927 139.055 402.137 140.846 399.927 140.846H397.14C394.931 140.846 393.14 139.055 393.14 136.846V133.459C393.14 131.25 391.349 129.459 389.14 129.459H383.551" stroke="#22BBDD"/>
<path d="M475.844 96.4977H427.105C424.896 96.4977 423.105 94.7069 423.105 92.4977V77.7244C423.105 75.5152 421.314 73.7244 419.105 73.7244H397.14C394.931 73.7244 393.14 75.5152 393.14 77.7244V85.9054C393.14 88.1146 391.349 89.9054 389.14 89.9054H367.175C364.966 89.9054 363.175 91.6963 363.175 93.9054V98.8949" stroke="#22BBDD"/>
<path d="M463.258 163.619H427.105C424.896 163.619 423.105 165.41 423.105 167.619V182.393C423.105 184.602 421.314 186.393 419.105 186.393H397.14C394.931 186.393 393.14 184.602 393.14 182.393V174.212C393.14 172.002 391.349 170.212 389.14 170.212H367.175C364.966 170.212 363.175 168.421 363.175 166.212V161.222" stroke="#22BBDD"/>
<path d="M433.293 220.553V210.769C433.293 208.56 435.084 206.769 437.293 206.769H453.265C455.474 206.769 457.265 204.978 457.265 202.769V167.619C457.265 165.41 459.056 163.619 461.265 163.619H513" stroke="#22BBDD"/>
<path d="M432.694 96.4978V105.266C432.694 107.475 434.485 109.266 436.694 109.266H451.044C453.253 109.266 455.044 111.057 455.044 113.266V145.236C455.044 147.445 456.835 149.236 459.044 149.236H507.007" stroke="#22BBDD"/>
<path d="M370.966 169.612V199.173C370.966 201.382 372.757 203.173 374.966 203.173H390.938C393.147 203.173 394.938 204.964 394.938 207.173V223.145C394.938 225.354 393.147 227.145 390.938 227.145H351.594C349.384 227.145 347.594 228.936 347.594 231.145V242.727" stroke="#22BBDD"/>
<path d="M334.712 273.89V231.125C334.712 228.916 332.921 227.125 330.712 227.125H314.437C312.228 227.125 310.437 225.334 310.437 223.125V197.722C310.437 195.512 312.228 193.722 314.437 193.722H354.381C356.59 193.722 358.381 191.931 358.381 189.722V172.009" stroke="#22BBDD"/>
<path d="M405.725 186.393V215.953C405.725 218.162 407.516 219.953 409.725 219.953H443.077C445.286 219.953 447.077 221.744 447.077 223.953V239.925C447.077 242.134 445.286 243.925 443.077 243.925H424.109C421.9 243.925 420.109 245.716 420.109 247.925V272.092" stroke="#22BBDD"/>
<path fill-rule="evenodd" clip-rule="evenodd" d="M374.697 79.6938V92.3307C374.697 93.4221 374.681 94.5097 374.647 95.593C384.539 103.966 390.743 116.003 390.743 129.375C390.743 154.686 368.592 175.193 341.219 175.193C338.703 175.193 336.233 175.017 333.823 174.681C322.242 183.499 308.746 189.941 294.062 193.278L283.904 235.312L289.911 260.16L291.446 266.515H299.949C301.764 266.515 303.283 267.993 303.283 269.841V286.062H324.84C330.211 286.025 334.582 291.789 334.582 298.92V305.091H177.27V298.92C177.27 291.826 181.603 286.062 186.974 286.062H198.336L198.346 286.024H204.902L204.892 286.062H207.744L207.754 286.024H208.569V269.841C208.569 268.03 210.051 266.515 211.903 266.515H221.963L223.2 260.16L228.06 235.306L219.87 193.334C213.988 192.025 207.905 190.074 201.346 187.181C193.712 183.846 186.53 179.598 179.95 174.567C177.295 174.978 174.567 175.193 171.781 175.193C144.444 175.23 122.257 154.686 122.257 129.412C122.257 115.619 128.838 103.253 139.258 94.8542C139.238 94.0279 139.228 93.199 139.228 92.3676V79.6938H374.697ZM347.228 162.497C360.46 148.181 369.696 130.135 373.171 110.122C377.935 115.796 380.52 122.502 380.52 129.412C380.52 137.726 376.779 145.744 370 152.025C363.814 157.744 355.883 161.355 347.228 162.497ZM140.598 109.237C143.969 129.762 153.381 148.144 166.81 162.621C157.752 161.639 149.432 157.972 143 152.025C136.221 145.744 132.48 137.726 132.48 129.412C132.48 122.139 135.343 115.093 140.598 109.237Z" fill="#141413"/>
<path d="M374.697 79.6938H375.197V79.1938H374.697V79.6938ZM374.647 95.593L374.147 95.5775L374.14 95.8187L374.324 95.9747L374.647 95.593ZM333.823 174.681L333.892 174.186L333.686 174.157L333.52 174.283L333.823 174.681ZM294.062 193.278L293.952 192.791L293.649 192.86L293.576 193.161L294.062 193.278ZM283.904 235.312L283.418 235.194L283.39 235.312L283.418 235.429L283.904 235.312ZM289.911 260.16L290.397 260.042L290.397 260.042L289.911 260.16ZM291.446 266.515L290.96 266.632L291.053 267.015H291.446V266.515ZM303.283 286.062H302.783V286.562H303.283V286.062ZM324.84 286.062V286.562L324.844 286.562L324.84 286.062ZM334.582 305.091V305.591H335.082V305.091H334.582ZM177.27 305.091H176.77V305.591H177.27V305.091ZM198.336 286.062V286.562H198.722L198.82 286.188L198.336 286.062ZM198.346 286.024V285.524H197.959L197.862 285.898L198.346 286.024ZM204.902 286.024L205.386 286.151L205.549 285.524H204.902V286.024ZM204.892 286.062L204.409 285.935L204.245 286.562H204.892V286.062ZM207.744 286.062V286.562H208.131L208.228 286.188L207.744 286.062ZM207.754 286.024V285.524H207.368L207.27 285.898L207.754 286.024ZM208.569 286.024V286.524H209.069V286.024H208.569ZM221.963 266.515V267.015H222.375L222.454 266.611L221.963 266.515ZM223.2 260.16L222.71 260.064L222.709 260.064L223.2 260.16ZM228.06 235.306L228.55 235.402L228.569 235.306L228.55 235.21L228.06 235.306ZM219.87 193.334L220.361 193.239L220.298 192.917L219.979 192.846L219.87 193.334ZM201.346 187.181L201.548 186.723L201.546 186.722L201.346 187.181ZM179.95 174.567L180.254 174.17L180.084 174.041L179.873 174.073L179.95 174.567ZM171.781 175.193V174.693H171.78L171.781 175.193ZM139.258 94.8542L139.571 95.2435L139.763 95.0888L139.758 94.8425L139.258 94.8542ZM139.228 79.6938V79.1938H138.728V79.6938H139.228ZM373.171 110.122L373.553 109.801L372.862 108.977L372.678 110.037L373.171 110.122ZM347.228 162.497L346.861 162.157L345.921 163.173L347.293 162.992L347.228 162.497ZM370 152.025L370.339 152.392L370.34 152.392L370 152.025ZM166.81 162.621L166.757 163.118L168.087 163.263L167.177 162.281L166.81 162.621ZM140.598 109.237L141.091 109.156L140.922 108.127L140.226 108.903L140.598 109.237ZM143 152.025L142.66 152.392L142.66 152.392L143 152.025ZM375.197 92.3307V79.6938H374.197V92.3307H375.197ZM375.147 95.6085C375.18 94.52 375.197 93.4273 375.197 92.3307H374.197C374.197 93.417 374.181 94.4993 374.147 95.5775L375.147 95.6085ZM391.243 129.375C391.243 115.842 384.963 103.67 374.97 95.2114L374.324 95.9747C384.114 104.262 390.243 116.163 390.243 129.375H391.243ZM341.219 175.693C368.831 175.693 391.243 154.998 391.243 129.375H390.243C390.243 154.374 368.354 174.693 341.219 174.693V175.693ZM333.754 175.176C336.187 175.516 338.679 175.693 341.219 175.693V174.693C338.726 174.693 336.28 174.519 333.892 174.186L333.754 175.176ZM294.173 193.766C308.928 190.413 322.49 183.939 334.126 175.079L333.52 174.283C321.995 183.059 308.563 189.47 293.952 192.791L294.173 193.766ZM284.39 235.429L294.549 193.396L293.576 193.161L283.418 235.194L284.39 235.429ZM290.397 260.042L284.39 235.194L283.418 235.429L289.425 260.277L290.397 260.042ZM291.932 266.398L290.397 260.042L289.425 260.277L290.96 266.632L291.932 266.398ZM299.949 266.015H291.446V267.015H299.949V266.015ZM303.783 269.841C303.783 267.712 302.035 266.015 299.949 266.015V267.015C301.493 267.015 302.783 268.274 302.783 269.841H303.783ZM303.783 286.062V269.841H302.783V286.062H303.783ZM324.84 285.562H303.283V286.562H324.84V285.562ZM335.082 298.92C335.082 295.256 333.96 291.923 332.124 289.501C330.288 287.078 327.715 285.542 324.837 285.562L324.844 286.562C327.337 286.544 329.635 287.872 331.327 290.105C333.019 292.338 334.082 295.453 334.082 298.92H335.082ZM335.082 305.091V298.92H334.082V305.091H335.082ZM177.27 305.591H334.582V304.591H177.27V305.591ZM176.77 298.92V305.091H177.77V298.92H176.77ZM186.974 285.562C184.097 285.562 181.535 287.107 179.709 289.529C177.882 291.952 176.77 295.275 176.77 298.92H177.77C177.77 295.471 178.824 292.365 180.507 290.131C182.19 287.899 184.48 286.562 186.974 286.562V285.562ZM198.336 285.562H186.974V286.562H198.336V285.562ZM197.862 285.898L197.852 285.935L198.82 286.188L198.83 286.151L197.862 285.898ZM204.902 285.524H198.346V286.524H204.902V285.524ZM205.376 286.188L205.386 286.151L204.418 285.898L204.409 285.935L205.376 286.188ZM207.744 285.562H204.892V286.562H207.744V285.562ZM207.27 285.898L207.261 285.935L208.228 286.188L208.238 286.151L207.27 285.898ZM208.569 285.524H207.754V286.524H208.569V285.524ZM208.069 269.841V286.024H209.069V269.841H208.069ZM211.903 266.015C209.772 266.015 208.069 267.756 208.069 269.841H209.069C209.069 268.304 210.329 267.015 211.903 267.015V266.015ZM221.963 266.015H211.903V267.015H221.963V266.015ZM222.709 260.064L221.472 266.42L222.454 266.611L223.691 260.255L222.709 260.064ZM227.569 235.21L222.71 260.064L223.691 260.256L228.55 235.402L227.569 235.21ZM219.379 193.43L227.569 235.402L228.55 235.21L220.361 193.239L219.379 193.43ZM201.144 187.638C207.732 190.545 213.847 192.506 219.761 193.822L219.979 192.846C214.129 191.544 208.077 189.604 201.548 186.723L201.144 187.638ZM179.646 174.964C186.258 180.019 193.475 184.288 201.146 187.639L201.546 186.722C193.95 183.404 186.802 179.176 180.254 174.17L179.646 174.964ZM171.781 175.693C174.593 175.693 177.347 175.476 180.026 175.061L179.873 174.073C177.244 174.48 174.541 174.693 171.781 174.693V175.693ZM121.757 129.412C121.757 154.998 144.206 175.73 171.781 175.693L171.78 174.693C144.683 174.729 122.757 154.374 122.757 129.412H121.757ZM138.944 94.465C128.418 102.95 121.757 115.453 121.757 129.412H122.757C122.757 115.784 129.258 103.557 139.571 95.2435L138.944 94.465ZM138.728 92.3676C138.728 93.2029 138.738 94.0358 138.758 94.866L139.758 94.8425C139.738 94.0201 139.728 93.1951 139.728 92.3676H138.728ZM138.728 79.6938V92.3676H139.728V79.6938H138.728ZM374.697 79.1938H139.228V80.1938H374.697V79.1938ZM372.678 110.037C369.22 129.951 360.03 147.91 346.861 162.157L347.595 162.836C360.891 148.452 370.171 130.318 373.663 110.208L372.678 110.037ZM381.02 129.412C381.02 122.374 378.386 115.556 373.553 109.801L372.788 110.444C377.484 116.037 380.02 122.631 380.02 129.412H381.02ZM370.34 152.392C377.207 146.028 381.02 137.882 381.02 129.412H380.02C380.02 137.57 376.35 145.459 369.66 151.659L370.34 152.392ZM347.293 162.992C356.045 161.838 364.073 158.186 370.339 152.392L369.661 151.658C363.555 157.303 355.721 160.872 347.162 162.001L347.293 162.992ZM167.177 162.281C153.812 147.873 144.446 129.581 141.091 109.156L140.105 109.318C143.492 129.944 152.95 148.415 166.444 162.961L167.177 162.281ZM142.66 152.392C149.176 158.417 157.598 162.125 166.757 163.118L166.864 162.124C157.906 161.153 149.688 157.528 143.339 151.658L142.66 152.392ZM131.98 129.412C131.98 137.882 135.793 146.028 142.66 152.392L143.34 151.659C136.65 145.459 132.98 137.57 132.98 129.412H131.98ZM140.226 108.903C134.897 114.841 131.98 122.004 131.98 129.412H132.98C132.98 122.275 135.789 115.344 140.97 109.571L140.226 108.903Z" fill="#22BBDD"/>
<path d="M275.121 163.263L262.172 141.936L243.115 157.97L262.722 37.6367L294.728 42.9609L275.121 163.263Z" fill="#141413" stroke="#22BBDD" stroke-miterlimit="10"/>
<path d="M334.369 157.908L315.281 141.905L302.363 163.263L282.481 43.0225L314.487 37.6367L334.369 157.908Z" fill="#141413" stroke="#22BBDD" stroke-miterlimit="10"/>
<path d="M355.348 65.3337C355.348 72.2891 349.27 78.1672 347.255 84.4455C345.148 90.9392 346.583 99.3102 342.674 104.727C338.734 110.205 330.366 111.405 324.961 115.375C319.586 119.314 315.89 126.978 309.446 129.07C303.216 131.101 295.795 127.193 288.893 127.193C281.991 127.193 274.569 131.132 268.339 129.07C261.895 126.947 258.169 119.314 252.825 115.375C247.389 111.405 239.051 110.174 235.112 104.727C231.203 99.3102 232.607 90.9699 230.531 84.4455C228.454 78.198 222.376 72.2891 222.376 65.3337C222.376 58.3784 228.454 52.5003 230.47 46.222C232.577 39.7283 231.141 31.3573 235.051 25.9408C238.99 20.4627 247.358 19.2625 252.764 15.2924C258.139 11.3531 261.834 3.68996 268.278 1.59721C274.539 -0.433985 281.96 3.47453 288.862 3.47453C295.764 3.47453 303.186 -0.464761 309.416 1.59721C315.86 3.72074 319.586 11.3531 324.93 15.2924C330.366 19.2625 338.704 20.4935 342.643 25.9408C346.552 31.3573 345.148 39.6976 347.224 46.222C349.27 52.5003 355.348 58.3784 355.348 65.3337Z" fill="#141413" stroke="#22BBDD" stroke-miterlimit="10"/>
<path d="M305.445 124.794C303.369 124.794 300.926 124.24 298.36 123.686C295.306 123.009 292.191 122.332 288.893 122.332C285.594 122.332 282.449 123.039 279.425 123.686C276.86 124.27 274.417 124.794 272.34 124.794C271.393 124.794 270.569 124.67 269.836 124.455C267.179 123.593 264.797 120.854 262.262 117.961C260.277 115.684 258.2 113.314 255.665 111.437C253.1 109.56 250.198 108.267 247.389 107.067C243.907 105.528 240.609 104.112 238.99 101.866C237.402 99.6806 237.066 96.0798 236.7 92.2944C236.394 89.2169 236.089 86.047 235.112 82.9694C234.165 80.0149 232.577 77.3374 231.05 74.7523C229.095 71.4285 227.232 68.2586 227.232 65.3657C227.232 62.4728 229.095 59.3029 231.05 55.9791C232.577 53.3939 234.134 50.7164 235.112 47.762C236.119 44.6844 236.425 41.5145 236.7 38.4369C237.066 34.6515 237.433 31.0507 238.99 28.8657C240.609 26.619 243.907 25.2033 247.389 23.6646C250.198 22.4335 253.1 21.1717 255.665 19.2944C258.2 17.4171 260.277 15.0781 262.262 12.77C264.797 9.87704 267.179 7.138 269.836 6.27628C270.538 6.03007 271.363 5.93774 272.34 5.93774C274.417 5.93774 276.86 6.46093 279.425 7.04567C282.479 7.72274 285.594 8.3998 288.893 8.3998C292.191 8.3998 295.337 7.69196 298.36 7.04567C300.926 6.46093 303.369 5.93774 305.445 5.93774C306.392 5.93774 307.217 6.06085 307.95 6.27628C310.607 7.138 312.989 9.87704 315.524 12.77C317.509 15.0474 319.586 17.4171 322.12 19.2944C324.686 21.1717 327.587 22.4643 330.397 23.6646C333.878 25.2033 337.177 26.619 338.795 28.8657C340.383 31.0507 340.719 34.6515 341.086 38.4369C341.391 41.5145 341.697 44.6844 342.674 47.762C343.621 50.7164 345.209 53.3939 346.736 55.9791C348.69 59.3029 350.553 62.4728 350.553 65.3657C350.553 68.2894 348.69 71.4285 346.736 74.7523C345.209 77.3374 343.651 80.0149 342.674 82.9694C341.697 86.047 341.361 89.2169 341.086 92.2944C340.719 96.0798 340.353 99.6806 338.795 101.866C337.177 104.112 333.878 105.528 330.397 107.067C327.587 108.298 324.686 109.56 322.12 111.437C319.586 113.314 317.509 115.653 315.524 117.961C312.989 120.854 310.607 123.593 307.95 124.455C307.217 124.701 306.392 124.794 305.445 124.794Z" fill="#141413" stroke="#22BBDD" stroke-miterlimit="10"/>
<path d="M336.837 72.106C340.542 45.4076 322.068 20.7376 295.574 17.004C269.08 13.2704 244.599 31.8871 240.894 58.5855C237.189 85.2839 255.663 109.954 282.157 113.687C308.651 117.421 333.132 98.8044 336.837 72.106Z" fill="#141413" stroke="#22BBDD" stroke-miterlimit="10"/>
<path d="M330.372 69.4878C332.64 46.3837 315.892 25.8015 292.965 23.5161C270.038 21.2308 249.613 38.1077 247.345 61.2118C245.077 84.3158 261.825 104.898 284.752 107.183C307.679 109.469 328.104 92.5919 330.372 69.4878Z" fill="#141413" stroke="#22BBDD" stroke-miterlimit="10"/>
</svg>
