<svg width="445" height="282" viewBox="0 0 445 282" fill="none" xmlns="http://www.w3.org/2000/svg">
<g filter="url(#filter0_d)">
<rect x="15" y="6" width="420" height="252" rx="16" fill="#1D1D1B"/>
</g>
<g filter="url(#filter1_d)">
<path d="M20.88 28.72C20.88 19.8834 28.0435 12.72 36.88 12.72H88.08V251.28H36.88C28.0435 251.28 20.88 244.117 20.88 235.28V28.72Z" fill="white" fill-opacity="0.2"/>
</g>
<g filter="url(#filter2_d)">
<rect x="27.4751" y="48.4159" width="52.396" height="4.15842" rx="2" fill="white" fill-opacity="0.2"/>
</g>
<g filter="url(#filter3_d)">
<rect x="27.4751" y="90" width="52.396" height="4.15842" rx="2" fill="white" fill-opacity="0.2"/>
</g>
<g filter="url(#filter4_d)">
<rect x="27.4751" y="131.584" width="52.396" height="4.15842" rx="2" fill="white" fill-opacity="0.2"/>
</g>
<g filter="url(#filter5_d)">
<rect x="27.4751" y="69.2079" width="52.396" height="4.15841" rx="2" fill="white" fill-opacity="0.2"/>
</g>
<g filter="url(#filter6_d)">
<rect x="27.4751" y="110.792" width="52.396" height="4.15841" rx="2" fill="white" fill-opacity="0.2"/>
</g>
<g filter="url(#filter7_d)">
<rect x="27.4751" y="152.376" width="52.396" height="4.15842" rx="2" fill="white" fill-opacity="0.2"/>
</g>
<rect x="105.654" y="36.0422" width="33.2673" height="9.14851" rx="4.57426" fill="white" fill-opacity="0.3"/>
<rect x="108.98" y="38.5372" width="26.6139" height="4.15842" rx="2.07921" fill="white" fill-opacity="0.2"/>
<rect x="147.238" y="38.5372" width="33.2673" height="4.15842" rx="2.07921" fill="white" fill-opacity="0.2"/>
<rect x="188.822" y="38.5372" width="33.2673" height="4.15842" rx="2.07921" fill="white" fill-opacity="0.2"/>
<ellipse cx="405.891" cy="22.6891" rx="9.98021" ry="9.9802" fill="white" fill-opacity="0.2"/>
<path opacity="0.25" d="M405.475 23.5963C405.072 23.5963 404.678 23.4722 404.343 23.2396C404.008 23.0069 403.747 22.6763 403.593 22.2895C403.438 21.9026 403.398 21.477 403.477 21.0663C403.555 20.6556 403.749 20.2784 404.034 19.9824C404.319 19.6863 404.682 19.4847 405.078 19.403C405.473 19.3213 405.883 19.3632 406.255 19.5235C406.627 19.6837 406.945 19.955 407.169 20.3032C407.393 20.6513 407.513 21.0606 407.513 21.4793C407.512 22.0406 407.297 22.5787 406.915 22.9756C406.533 23.3724 406.015 23.5957 405.475 23.5963Z" fill="#252423"/>
<path opacity="0.5" d="M407.012 22.8535C406.823 23.0862 406.588 23.2732 406.323 23.4015C406.057 23.5297 405.768 23.5962 405.475 23.5962C405.182 23.5962 404.893 23.5297 404.628 23.4015C404.362 23.2732 404.127 23.0862 403.938 22.8535C403.519 23.1235 403.173 23.4999 402.932 23.9474C402.692 24.3948 402.565 24.8985 402.564 25.4109C402.564 25.5713 402.626 25.7251 402.735 25.8386C402.844 25.952 402.992 26.0157 403.146 26.0157H407.804C407.958 26.0157 408.106 25.952 408.215 25.8386C408.325 25.7251 408.386 25.5713 408.386 25.4109C408.385 24.8985 408.258 24.3948 408.018 23.9474C407.777 23.4999 407.431 23.1235 407.012 22.8535Z" fill="#252423"/>
<g filter="url(#filter8_d)">
<rect x="105.654" y="51.0126" width="98.1386" height="83.1683" rx="8" fill="white" fill-opacity="0.2"/>
</g>
<g filter="url(#filter9_d)">
<path d="M150.565 117.884C150.565 116.779 151.46 115.884 152.565 115.884H195.139C196.243 115.884 197.139 116.779 197.139 117.884V125.527C197.139 126.632 196.243 127.527 195.139 127.527H152.565C151.46 127.527 150.565 126.632 150.565 125.527V117.884Z" fill="white" fill-opacity="0.2"/>
</g>
<rect x="154.723" y="120.042" width="38.2574" height="3.32674" rx="1.66337" fill="white" fill-opacity="0.2"/>
<rect x="128.109" y="61.8245" width="20.7921" height="2.49505" rx="1.24752" fill="white" fill-opacity="0.2"/>
<rect x="128.109" y="65.9829" width="20.7921" height="1.66337" rx="0.831684" fill="white" fill-opacity="0.2"/>
<circle cx="118.961" cy="64.3195" r="6.65346" fill="white" fill-opacity="0.2"/>
<path opacity="0.25" d="M118.545 65.2268C118.142 65.2268 117.748 65.1027 117.413 64.87C117.078 64.6374 116.816 64.3068 116.662 63.92C116.508 63.5331 116.468 63.1075 116.546 62.6968C116.625 62.2861 116.819 61.9089 117.104 61.6129C117.389 61.3168 117.752 61.1152 118.147 61.0335C118.542 60.9518 118.952 60.9937 119.324 61.1539C119.697 61.3142 120.015 61.5855 120.239 61.9337C120.463 62.2818 120.582 62.6911 120.582 63.1098C120.582 63.6711 120.367 64.2092 119.985 64.6061C119.603 65.0029 119.085 65.2262 118.545 65.2268Z" fill="#252423"/>
<path opacity="0.5" d="M120.082 64.484C119.893 64.7167 119.658 64.9037 119.392 65.0319C119.127 65.1602 118.837 65.2267 118.545 65.2267C118.252 65.2267 117.963 65.1602 117.697 65.0319C117.432 64.9037 117.196 64.7167 117.008 64.484C116.589 64.754 116.242 65.1304 116.002 65.5779C115.762 66.0253 115.635 66.5289 115.634 67.0414C115.634 67.2018 115.695 67.3556 115.804 67.4691C115.913 67.5825 116.062 67.6462 116.216 67.6462H120.873C121.028 67.6462 121.176 67.5825 121.285 67.4691C121.394 67.3556 121.456 67.2018 121.456 67.0414C121.454 66.5289 121.328 66.0253 121.087 65.5779C120.847 65.1304 120.501 64.754 120.082 64.484Z" fill="#252423"/>
<g filter="url(#filter10_d)">
<rect x="105.654" y="142.498" width="98.1386" height="83.1683" rx="8" fill="white" fill-opacity="0.2"/>
</g>
<g filter="url(#filter11_d)">
<path d="M150.565 209.369C150.565 208.264 151.46 207.369 152.565 207.369H195.139C196.243 207.369 197.139 208.264 197.139 209.369V217.013C197.139 218.117 196.243 219.013 195.139 219.013H152.565C151.46 219.013 150.565 218.117 150.565 217.013V209.369Z" fill="white" fill-opacity="0.2"/>
</g>
<rect x="154.723" y="211.527" width="38.2574" height="3.32674" rx="1.66337" fill="white" fill-opacity="0.2"/>
<rect x="128.109" y="153.31" width="20.7921" height="2.49505" rx="1.24753" fill="white" fill-opacity="0.2"/>
<rect x="128.109" y="157.468" width="20.7921" height="1.66337" rx="0.831685" fill="white" fill-opacity="0.2"/>
<ellipse cx="118.961" cy="155.805" rx="6.65346" ry="6.65346" fill="white" fill-opacity="0.2"/>
<path opacity="0.25" d="M118.545 156.712C118.142 156.712 117.748 156.588 117.413 156.355C117.078 156.123 116.816 155.792 116.662 155.405C116.508 155.018 116.468 154.593 116.546 154.182C116.625 153.771 116.819 153.394 117.104 153.098C117.389 152.802 117.752 152.6 118.147 152.519C118.542 152.437 118.952 152.479 119.324 152.639C119.697 152.799 120.015 153.071 120.239 153.419C120.463 153.767 120.582 154.176 120.582 154.595C120.582 155.156 120.367 155.694 119.985 156.091C119.603 156.488 119.085 156.711 118.545 156.712Z" fill="#252423"/>
<path opacity="0.5" d="M120.082 155.969C119.893 156.202 119.658 156.389 119.392 156.517C119.127 156.645 118.837 156.712 118.545 156.712C118.252 156.712 117.963 156.645 117.697 156.517C117.432 156.389 117.196 156.202 117.008 155.969C116.589 156.239 116.242 156.616 116.002 157.063C115.762 157.51 115.635 158.014 115.634 158.526C115.634 158.687 115.695 158.841 115.804 158.954C115.913 159.068 116.062 159.131 116.216 159.131H120.873C121.028 159.131 121.176 159.068 121.285 158.954C121.394 158.841 121.456 158.687 121.456 158.526C121.454 158.014 121.328 157.51 121.087 157.063C120.847 156.616 120.501 156.239 120.082 155.969Z" fill="#252423"/>
<g filter="url(#filter12_d)">
<rect x="212.109" y="51.0126" width="98.1386" height="83.1683" rx="8" fill="white" fill-opacity="0.2"/>
</g>
<g filter="url(#filter13_d)">
<path d="M257.02 117.884C257.02 116.779 257.915 115.884 259.02 115.884H301.594C302.698 115.884 303.594 116.779 303.594 117.884V125.527C303.594 126.632 302.698 127.527 301.594 127.527H259.02C257.915 127.527 257.02 126.632 257.02 125.527V117.884Z" fill="white" fill-opacity="0.2"/>
</g>
<rect x="261.178" y="120.042" width="38.2574" height="3.32674" rx="1.66337" fill="white" fill-opacity="0.2"/>
<rect x="234.564" y="61.8245" width="20.7921" height="2.49505" rx="1.24752" fill="white" fill-opacity="0.2"/>
<rect x="234.564" y="65.9829" width="20.7921" height="1.66337" rx="0.831684" fill="white" fill-opacity="0.2"/>
<ellipse cx="225.416" cy="64.3195" rx="6.65346" ry="6.65346" fill="white" fill-opacity="0.2"/>
<path opacity="0.25" d="M225 65.2268C224.597 65.2268 224.203 65.1027 223.868 64.87C223.533 64.6374 223.271 64.3068 223.117 63.92C222.963 63.5331 222.923 63.1075 223.001 62.6968C223.08 62.2861 223.274 61.9089 223.559 61.6129C223.844 61.3168 224.207 61.1152 224.602 61.0335C224.998 60.9518 225.407 60.9937 225.78 61.1539C226.152 61.3142 226.47 61.5855 226.694 61.9337C226.918 62.2818 227.037 62.6911 227.037 63.1098C227.037 63.6711 226.822 64.2092 226.44 64.6061C226.058 65.0029 225.54 65.2262 225 65.2268Z" fill="#252423"/>
<path opacity="0.5" d="M226.537 64.484C226.348 64.7167 226.113 64.9037 225.847 65.0319C225.582 65.1602 225.293 65.2267 225 65.2267C224.707 65.2267 224.418 65.1602 224.152 65.0319C223.887 64.9037 223.651 64.7167 223.463 64.484C223.044 64.754 222.698 65.1304 222.457 65.5779C222.217 66.0253 222.09 66.5289 222.089 67.0414C222.089 67.2018 222.15 67.3556 222.259 67.4691C222.369 67.5825 222.517 67.6462 222.671 67.6462H227.328C227.483 67.6462 227.631 67.5825 227.74 67.4691C227.849 67.3556 227.911 67.2018 227.911 67.0414C227.91 66.5289 227.783 66.0253 227.542 65.5779C227.302 65.1304 226.956 64.754 226.537 64.484Z" fill="#252423"/>
<g filter="url(#filter14_d)">
<rect x="212.109" y="142.498" width="98.1386" height="83.1683" rx="8" fill="white" fill-opacity="0.2"/>
</g>
<g filter="url(#filter15_d)">
<path d="M257.02 209.369C257.02 208.264 257.915 207.369 259.02 207.369H301.594C302.698 207.369 303.594 208.264 303.594 209.369V217.013C303.594 218.117 302.698 219.013 301.594 219.013H259.02C257.915 219.013 257.02 218.117 257.02 217.013V209.369Z" fill="white" fill-opacity="0.2"/>
</g>
<rect x="261.178" y="211.527" width="38.2574" height="3.32674" rx="1.66337" fill="white" fill-opacity="0.2"/>
<rect x="234.564" y="153.31" width="20.7921" height="2.49505" rx="1.24753" fill="white" fill-opacity="0.2"/>
<rect x="234.564" y="157.468" width="20.7921" height="1.66337" rx="0.831685" fill="white" fill-opacity="0.2"/>
<ellipse cx="225.416" cy="155.805" rx="6.65346" ry="6.65346" fill="white" fill-opacity="0.2"/>
<path opacity="0.25" d="M225 156.712C224.597 156.712 224.203 156.588 223.868 156.355C223.533 156.123 223.271 155.792 223.117 155.405C222.963 155.018 222.923 154.593 223.001 154.182C223.08 153.771 223.274 153.394 223.559 153.098C223.844 152.802 224.207 152.6 224.602 152.519C224.998 152.437 225.407 152.479 225.78 152.639C226.152 152.799 226.47 153.071 226.694 153.419C226.918 153.767 227.037 154.176 227.037 154.595C227.037 155.156 226.822 155.694 226.44 156.091C226.058 156.488 225.54 156.711 225 156.712Z" fill="#252423"/>
<path opacity="0.5" d="M226.537 155.969C226.348 156.202 226.113 156.389 225.847 156.517C225.582 156.645 225.293 156.712 225 156.712C224.707 156.712 224.418 156.645 224.152 156.517C223.887 156.389 223.651 156.202 223.463 155.969C223.044 156.239 222.698 156.616 222.457 157.063C222.217 157.51 222.09 158.014 222.089 158.526C222.089 158.687 222.15 158.841 222.259 158.954C222.369 159.068 222.517 159.131 222.671 159.131H227.328C227.483 159.131 227.631 159.068 227.74 158.954C227.849 158.841 227.911 158.687 227.911 158.526C227.91 158.014 227.783 157.51 227.542 157.063C227.302 156.616 226.956 156.239 226.537 155.969Z" fill="#252423"/>
<g filter="url(#filter16_d)">
<rect x="318.564" y="51.0126" width="98.1386" height="83.1683" rx="8" fill="white" fill-opacity="0.2"/>
</g>
<g filter="url(#filter17_d)">
<path d="M363.475 117.884C363.475 116.779 364.371 115.884 365.475 115.884H408.05C409.154 115.884 410.05 116.779 410.05 117.884V125.527C410.05 126.632 409.154 127.527 408.05 127.527H365.475C364.371 127.527 363.475 126.632 363.475 125.527V117.884Z" fill="white" fill-opacity="0.2"/>
</g>
<rect x="367.634" y="120.042" width="38.2574" height="3.32674" rx="1.66337" fill="white" fill-opacity="0.2"/>
<rect x="341.02" y="61.8245" width="20.7921" height="2.49505" rx="1.24752" fill="white" fill-opacity="0.2"/>
<rect x="341.02" y="65.9829" width="20.7921" height="1.66337" rx="0.831684" fill="white" fill-opacity="0.2"/>
<ellipse cx="331.871" cy="64.3195" rx="6.65347" ry="6.65346" fill="white" fill-opacity="0.2"/>
<path opacity="0.25" d="M331.455 65.2268C331.052 65.2268 330.659 65.1027 330.323 64.87C329.988 64.6374 329.727 64.3068 329.573 63.92C329.419 63.5331 329.378 63.1075 329.457 62.6968C329.536 62.2861 329.73 61.9089 330.015 61.6129C330.3 61.3168 330.663 61.1152 331.058 61.0335C331.453 60.9518 331.863 60.9937 332.235 61.1539C332.608 61.3142 332.926 61.5855 333.15 61.9337C333.374 62.2818 333.493 62.6911 333.493 63.1098C333.492 63.6711 333.278 64.2092 332.896 64.6061C332.514 65.0029 331.996 65.2262 331.455 65.2268Z" fill="#252423"/>
<path opacity="0.5" d="M332.992 64.484C332.804 64.7167 332.568 64.9037 332.303 65.0319C332.037 65.1602 331.748 65.2267 331.455 65.2267C331.163 65.2267 330.873 65.1602 330.608 65.0319C330.342 64.9037 330.107 64.7167 329.918 64.484C329.499 64.754 329.153 65.1304 328.913 65.5779C328.672 66.0253 328.546 66.5289 328.545 67.0414C328.545 67.2018 328.606 67.3556 328.715 67.4691C328.824 67.5825 328.972 67.6462 329.127 67.6462H333.784C333.939 67.6462 334.087 67.5825 334.196 67.4691C334.305 67.3556 334.366 67.2018 334.366 67.0414C334.365 66.5289 334.238 66.0253 333.998 65.5779C333.758 65.1304 333.412 64.754 332.992 64.484Z" fill="#252423"/>
<defs>
<filter id="filter0_d" x="5" y="0" width="440" height="272" filterUnits="userSpaceOnUse" color-interpolation-filters="sRGB">
<feFlood flood-opacity="0" result="BackgroundImageFix"/>
<feColorMatrix in="SourceAlpha" type="matrix" values="0 0 0 0 0 0 0 0 0 0 0 0 0 0 0 0 0 0 127 0"/>
<feOffset dy="4"/>
<feGaussianBlur stdDeviation="5"/>
<feColorMatrix type="matrix" values="0 0 0 0 0 0 0 0 0 0 0 0 0 0 0 0 0 0 0.25 0"/>
<feBlend mode="normal" in2="BackgroundImageFix" result="effect1_dropShadow"/>
<feBlend mode="normal" in="SourceGraphic" in2="effect1_dropShadow" result="shape"/>
</filter>
<filter id="filter1_d" x="0.880005" y="2.71997" width="107.2" height="278.56" filterUnits="userSpaceOnUse" color-interpolation-filters="sRGB">
<feFlood flood-opacity="0" result="BackgroundImageFix"/>
<feColorMatrix in="SourceAlpha" type="matrix" values="0 0 0 0 0 0 0 0 0 0 0 0 0 0 0 0 0 0 127 0"/>
<feOffset dy="10"/>
<feGaussianBlur stdDeviation="10"/>
<feColorMatrix type="matrix" values="0 0 0 0 0.0784314 0 0 0 0 0.0784314 0 0 0 0 0.0745098 0 0 0 1 0"/>
<feBlend mode="normal" in2="BackgroundImageFix" result="effect1_dropShadow"/>
<feBlend mode="normal" in="SourceGraphic" in2="effect1_dropShadow" result="shape"/>
</filter>
<filter id="filter2_d" x="17.4751" y="41.4159" width="72.396" height="24.1584" filterUnits="userSpaceOnUse" color-interpolation-filters="sRGB">
<feFlood flood-opacity="0" result="BackgroundImageFix"/>
<feColorMatrix in="SourceAlpha" type="matrix" values="0 0 0 0 0 0 0 0 0 0 0 0 0 0 0 0 0 0 127 0"/>
<feOffset dy="3"/>
<feGaussianBlur stdDeviation="5"/>
<feColorMatrix type="matrix" values="0 0 0 0 0.0784314 0 0 0 0 0.0784314 0 0 0 0 0.0745098 0 0 0 0.2 0"/>
<feBlend mode="normal" in2="BackgroundImageFix" result="effect1_dropShadow"/>
<feBlend mode="normal" in="SourceGraphic" in2="effect1_dropShadow" result="shape"/>
</filter>
<filter id="filter3_d" x="17.4751" y="83" width="72.396" height="24.1584" filterUnits="userSpaceOnUse" color-interpolation-filters="sRGB">
<feFlood flood-opacity="0" result="BackgroundImageFix"/>
<feColorMatrix in="SourceAlpha" type="matrix" values="0 0 0 0 0 0 0 0 0 0 0 0 0 0 0 0 0 0 127 0"/>
<feOffset dy="3"/>
<feGaussianBlur stdDeviation="5"/>
<feColorMatrix type="matrix" values="0 0 0 0 0.0784314 0 0 0 0 0.0784314 0 0 0 0 0.0745098 0 0 0 0.2 0"/>
<feBlend mode="normal" in2="BackgroundImageFix" result="effect1_dropShadow"/>
<feBlend mode="normal" in="SourceGraphic" in2="effect1_dropShadow" result="shape"/>
</filter>
<filter id="filter4_d" x="17.4751" y="124.584" width="72.396" height="24.1584" filterUnits="userSpaceOnUse" color-interpolation-filters="sRGB">
<feFlood flood-opacity="0" result="BackgroundImageFix"/>
<feColorMatrix in="SourceAlpha" type="matrix" values="0 0 0 0 0 0 0 0 0 0 0 0 0 0 0 0 0 0 127 0"/>
<feOffset dy="3"/>
<feGaussianBlur stdDeviation="5"/>
<feColorMatrix type="matrix" values="0 0 0 0 0.0784314 0 0 0 0 0.0784314 0 0 0 0 0.0745098 0 0 0 0.2 0"/>
<feBlend mode="normal" in2="BackgroundImageFix" result="effect1_dropShadow"/>
<feBlend mode="normal" in="SourceGraphic" in2="effect1_dropShadow" result="shape"/>
</filter>
<filter id="filter5_d" x="17.4751" y="62.2079" width="72.396" height="24.1584" filterUnits="userSpaceOnUse" color-interpolation-filters="sRGB">
<feFlood flood-opacity="0" result="BackgroundImageFix"/>
<feColorMatrix in="SourceAlpha" type="matrix" values="0 0 0 0 0 0 0 0 0 0 0 0 0 0 0 0 0 0 127 0"/>
<feOffset dy="3"/>
<feGaussianBlur stdDeviation="5"/>
<feColorMatrix type="matrix" values="0 0 0 0 0.0784314 0 0 0 0 0.0784314 0 0 0 0 0.0745098 0 0 0 0.2 0"/>
<feBlend mode="normal" in2="BackgroundImageFix" result="effect1_dropShadow"/>
<feBlend mode="normal" in="SourceGraphic" in2="effect1_dropShadow" result="shape"/>
</filter>
<filter id="filter6_d" x="17.4751" y="103.792" width="72.396" height="24.1584" filterUnits="userSpaceOnUse" color-interpolation-filters="sRGB">
<feFlood flood-opacity="0" result="BackgroundImageFix"/>
<feColorMatrix in="SourceAlpha" type="matrix" values="0 0 0 0 0 0 0 0 0 0 0 0 0 0 0 0 0 0 127 0"/>
<feOffset dy="3"/>
<feGaussianBlur stdDeviation="5"/>
<feColorMatrix type="matrix" values="0 0 0 0 0.0784314 0 0 0 0 0.0784314 0 0 0 0 0.0745098 0 0 0 0.2 0"/>
<feBlend mode="normal" in2="BackgroundImageFix" result="effect1_dropShadow"/>
<feBlend mode="normal" in="SourceGraphic" in2="effect1_dropShadow" result="shape"/>
</filter>
<filter id="filter7_d" x="17.4751" y="145.376" width="72.396" height="24.1584" filterUnits="userSpaceOnUse" color-interpolation-filters="sRGB">
<feFlood flood-opacity="0" result="BackgroundImageFix"/>
<feColorMatrix in="SourceAlpha" type="matrix" values="0 0 0 0 0 0 0 0 0 0 0 0 0 0 0 0 0 0 127 0"/>
<feOffset dy="3"/>
<feGaussianBlur stdDeviation="5"/>
<feColorMatrix type="matrix" values="0 0 0 0 0.0784314 0 0 0 0 0.0784314 0 0 0 0 0.0745098 0 0 0 0.2 0"/>
<feBlend mode="normal" in2="BackgroundImageFix" result="effect1_dropShadow"/>
<feBlend mode="normal" in="SourceGraphic" in2="effect1_dropShadow" result="shape"/>
</filter>
<filter id="filter8_d" x="85.6537" y="41.0126" width="138.139" height="123.168" filterUnits="userSpaceOnUse" color-interpolation-filters="sRGB">
<feFlood flood-opacity="0" result="BackgroundImageFix"/>
<feColorMatrix in="SourceAlpha" type="matrix" values="0 0 0 0 0 0 0 0 0 0 0 0 0 0 0 0 0 0 127 0"/>
<feOffset dy="10"/>
<feGaussianBlur stdDeviation="10"/>
<feColorMatrix type="matrix" values="0 0 0 0 0.0784314 0 0 0 0 0.0784314 0 0 0 0 0.0745098 0 0 0 1 0"/>
<feBlend mode="normal" in2="BackgroundImageFix" result="effect1_dropShadow"/>
<feBlend mode="normal" in="SourceGraphic" in2="effect1_dropShadow" result="shape"/>
</filter>
<filter id="filter9_d" x="140.565" y="108.884" width="66.5743" height="31.6436" filterUnits="userSpaceOnUse" color-interpolation-filters="sRGB">
<feFlood flood-opacity="0" result="BackgroundImageFix"/>
<feColorMatrix in="SourceAlpha" type="matrix" values="0 0 0 0 0 0 0 0 0 0 0 0 0 0 0 0 0 0 127 0"/>
<feOffset dy="3"/>
<feGaussianBlur stdDeviation="5"/>
<feColorMatrix type="matrix" values="0 0 0 0 0.0784314 0 0 0 0 0.0784314 0 0 0 0 0.0745098 0 0 0 0.2 0"/>
<feBlend mode="normal" in2="BackgroundImageFix" result="effect1_dropShadow"/>
<feBlend mode="normal" in="SourceGraphic" in2="effect1_dropShadow" result="shape"/>
</filter>
<filter id="filter10_d" x="85.6537" y="132.498" width="138.139" height="123.168" filterUnits="userSpaceOnUse" color-interpolation-filters="sRGB">
<feFlood flood-opacity="0" result="BackgroundImageFix"/>
<feColorMatrix in="SourceAlpha" type="matrix" values="0 0 0 0 0 0 0 0 0 0 0 0 0 0 0 0 0 0 127 0"/>
<feOffset dy="10"/>
<feGaussianBlur stdDeviation="10"/>
<feColorMatrix type="matrix" values="0 0 0 0 0.0784314 0 0 0 0 0.0784314 0 0 0 0 0.0745098 0 0 0 1 0"/>
<feBlend mode="normal" in2="BackgroundImageFix" result="effect1_dropShadow"/>
<feBlend mode="normal" in="SourceGraphic" in2="effect1_dropShadow" result="shape"/>
</filter>
<filter id="filter11_d" x="140.565" y="200.369" width="66.5743" height="31.6436" filterUnits="userSpaceOnUse" color-interpolation-filters="sRGB">
<feFlood flood-opacity="0" result="BackgroundImageFix"/>
<feColorMatrix in="SourceAlpha" type="matrix" values="0 0 0 0 0 0 0 0 0 0 0 0 0 0 0 0 0 0 127 0"/>
<feOffset dy="3"/>
<feGaussianBlur stdDeviation="5"/>
<feColorMatrix type="matrix" values="0 0 0 0 0.0784314 0 0 0 0 0.0784314 0 0 0 0 0.0745098 0 0 0 0.2 0"/>
<feBlend mode="normal" in2="BackgroundImageFix" result="effect1_dropShadow"/>
<feBlend mode="normal" in="SourceGraphic" in2="effect1_dropShadow" result="shape"/>
</filter>
<filter id="filter12_d" x="192.109" y="41.0126" width="138.139" height="123.168" filterUnits="userSpaceOnUse" color-interpolation-filters="sRGB">
<feFlood flood-opacity="0" result="BackgroundImageFix"/>
<feColorMatrix in="SourceAlpha" type="matrix" values="0 0 0 0 0 0 0 0 0 0 0 0 0 0 0 0 0 0 127 0"/>
<feOffset dy="10"/>
<feGaussianBlur stdDeviation="10"/>
<feColorMatrix type="matrix" values="0 0 0 0 0.0784314 0 0 0 0 0.0784314 0 0 0 0 0.0745098 0 0 0 1 0"/>
<feBlend mode="normal" in2="BackgroundImageFix" result="effect1_dropShadow"/>
<feBlend mode="normal" in="SourceGraphic" in2="effect1_dropShadow" result="shape"/>
</filter>
<filter id="filter13_d" x="247.02" y="108.884" width="66.5742" height="31.6436" filterUnits="userSpaceOnUse" color-interpolation-filters="sRGB">
<feFlood flood-opacity="0" result="BackgroundImageFix"/>
<feColorMatrix in="SourceAlpha" type="matrix" values="0 0 0 0 0 0 0 0 0 0 0 0 0 0 0 0 0 0 127 0"/>
<feOffset dy="3"/>
<feGaussianBlur stdDeviation="5"/>
<feColorMatrix type="matrix" values="0 0 0 0 0.0784314 0 0 0 0 0.0784314 0 0 0 0 0.0745098 0 0 0 0.2 0"/>
<feBlend mode="normal" in2="BackgroundImageFix" result="effect1_dropShadow"/>
<feBlend mode="normal" in="SourceGraphic" in2="effect1_dropShadow" result="shape"/>
</filter>
<filter id="filter14_d" x="192.109" y="132.498" width="138.139" height="123.168" filterUnits="userSpaceOnUse" color-interpolation-filters="sRGB">
<feFlood flood-opacity="0" result="BackgroundImageFix"/>
<feColorMatrix in="SourceAlpha" type="matrix" values="0 0 0 0 0 0 0 0 0 0 0 0 0 0 0 0 0 0 127 0"/>
<feOffset dy="10"/>
<feGaussianBlur stdDeviation="10"/>
<feColorMatrix type="matrix" values="0 0 0 0 0.0784314 0 0 0 0 0.0784314 0 0 0 0 0.0745098 0 0 0 1 0"/>
<feBlend mode="normal" in2="BackgroundImageFix" result="effect1_dropShadow"/>
<feBlend mode="normal" in="SourceGraphic" in2="effect1_dropShadow" result="shape"/>
</filter>
<filter id="filter15_d" x="247.02" y="200.369" width="66.5742" height="31.6436" filterUnits="userSpaceOnUse" color-interpolation-filters="sRGB">
<feFlood flood-opacity="0" result="BackgroundImageFix"/>
<feColorMatrix in="SourceAlpha" type="matrix" values="0 0 0 0 0 0 0 0 0 0 0 0 0 0 0 0 0 0 127 0"/>
<feOffset dy="3"/>
<feGaussianBlur stdDeviation="5"/>
<feColorMatrix type="matrix" values="0 0 0 0 0.0784314 0 0 0 0 0.0784314 0 0 0 0 0.0745098 0 0 0 0.2 0"/>
<feBlend mode="normal" in2="BackgroundImageFix" result="effect1_dropShadow"/>
<feBlend mode="normal" in="SourceGraphic" in2="effect1_dropShadow" result="shape"/>
</filter>
<filter id="filter16_d" x="298.564" y="41.0126" width="138.139" height="123.168" filterUnits="userSpaceOnUse" color-interpolation-filters="sRGB">
<feFlood flood-opacity="0" result="BackgroundImageFix"/>
<feColorMatrix in="SourceAlpha" type="matrix" values="0 0 0 0 0 0 0 0 0 0 0 0 0 0 0 0 0 0 127 0"/>
<feOffset dy="10"/>
<feGaussianBlur stdDeviation="10"/>
<feColorMatrix type="matrix" values="0 0 0 0 0.0784314 0 0 0 0 0.0784314 0 0 0 0 0.0745098 0 0 0 1 0"/>
<feBlend mode="normal" in2="BackgroundImageFix" result="effect1_dropShadow"/>
<feBlend mode="normal" in="SourceGraphic" in2="effect1_dropShadow" result="shape"/>
</filter>
<filter id="filter17_d" x="353.475" y="108.884" width="66.5743" height="31.6436" filterUnits="userSpaceOnUse" color-interpolation-filters="sRGB">
<feFlood flood-opacity="0" result="BackgroundImageFix"/>
<feColorMatrix in="SourceAlpha" type="matrix" values="0 0 0 0 0 0 0 0 0 0 0 0 0 0 0 0 0 0 127 0"/>
<feOffset dy="3"/>
<feGaussianBlur stdDeviation="5"/>
<feColorMatrix type="matrix" values="0 0 0 0 0.0784314 0 0 0 0 0.0784314 0 0 0 0 0.0745098 0 0 0 0.2 0"/>
<feBlend mode="normal" in2="BackgroundImageFix" result="effect1_dropShadow"/>
<feBlend mode="normal" in="SourceGraphic" in2="effect1_dropShadow" result="shape"/>
</filter>
</defs>
</svg>
