<svg width="300" height="35" viewBox="0 0 300 35" fill="none" xmlns="http://www.w3.org/2000/svg">
<path d="M266.308 29.7347C267.907 31.4344 276.756 39.633 290.704 30.1346C300.752 22.2859 300.502 5.33875 299.552 0.189609C299.152 0.939484 287.504 26.5352 266.308 29.7347ZM299.502 0.189609C299.402 0.139617 286.454 -1.61009 273.656 6.58854C265.708 11.6877 264.658 19.1864 265.008 24.1856C283.605 22.136 299.102 0.789509 299.502 0.189609Z" fill="#97C554"/>
<path d="M299.502 0.189609C299.402 0.139617 286.454 -1.61009 273.656 6.58854C265.708 11.6877 264.658 19.1864 265.008 24.1856C283.605 22.136 299.102 0.789509 299.502 0.189609Z" fill="#709B30"/>
<path d="M20.7485 28.7349H6.25091V21.0362H20.7485C24.3479 21.0362 26.1976 22.7859 26.1976 24.9855C26.1976 27.1851 24.3979 28.7349 20.7485 28.7349ZM20.2486 16.8869H6.25091V10.3879H20.2486C24.0479 10.3879 25.5477 11.7377 25.5477 13.5874C25.5977 15.2871 23.848 16.8869 20.2486 16.8869ZM23.948 18.8865C30.0469 18.6866 32.2466 15.6371 32.2466 12.3376C32.2466 8.73821 29.3971 5.73871 22.3482 5.73871H0.00195312V33.3341H23.0481C28.7972 33.3341 33.0964 30.9345 33.0964 25.7854C33.0964 22.136 30.6968 19.0365 23.948 18.8865ZM40.4952 5.73871V33.3341H46.7442V5.73871H40.4952ZM72.09 10.9878H85.8377V5.73871H52.0433V10.9878H65.791V33.3841H72.04L72.09 10.9878ZM91.2367 5.73871V33.3341H97.4857V22.5859H112.183V18.0367H97.4857V10.4879H121.332V5.73871H91.2367ZM126.381 5.73871V33.3341H132.63V5.73871H126.381ZM147.277 12.4876L168.024 33.3841H175.123V5.7887H168.924V25.6854L149.027 5.7887H141.078V33.3841H147.277V12.4876ZM183.571 5.73871V33.3341H214.166V28.6849H189.82V21.0862H204.418V16.7869H189.82V10.4379H214.166V5.68872H183.571V5.73871ZM256.059 5.73871H247.811L237.262 15.4371L226.814 5.73871H218.416L233.113 19.3364L217.866 33.3341H226.114L237.162 23.1358L248.161 33.3341H256.559L241.262 19.2865L256.059 5.73871Z" fill="#CCCCCC"/>
</svg>
