<svg width="513" height="195" viewBox="0 0 513 195" fill="none" xmlns="http://www.w3.org/2000/svg">
<path d="M301.433 105.46L301.433 105.96L300.933 105.96L129.957 105.96L114.465 129.409L114.316 129.633L114.048 129.633L4.03943 129.633L3.53943 129.633L3.53943 129.133L3.53943 128.569L3.53943 128.069L4.03943 128.069L113.63 128.069L129.122 104.621L129.271 104.397L129.539 104.397L300.933 104.397L301.433 104.397L301.433 104.897L301.433 105.46Z" fill="#22BBDD" stroke="#22BBDD"/>
<path d="M114.112 129.633L113.612 129.633L113.612 129.133L113.612 128.123L113.612 127.623L114.112 127.623L300.933 127.623L301.433 127.623L301.433 128.123L301.433 129.133L301.433 129.633L300.933 129.633L114.112 129.633Z" fill="#22BBDD" stroke="#22BBDD"/>
<path d="M301.433 144.837L301.433 145.337L300.933 145.337L99.5144 145.337L69.4771 182.966L69.327 183.155L69.0863 183.155L69.012 183.155L2.01972 183.155L1.51972 183.155L1.51972 182.655L1.51972 182.098L1.51972 181.598L2.01972 181.598L68.6231 181.598L98.6469 144.096L98.7094 144.003L98.8578 143.781L99.125 143.781L300.933 143.78L301.433 143.78L301.433 144.28L301.433 144.837Z" fill="#22BBDD" stroke="#22BBDD"/>
<path d="M27.2657 163.468L27.2657 162.458L83.8169 162.458L83.8169 163.468L27.2657 163.468Z" fill="url(#paint0_linear)"/>
<path d="M45.4429 145.29L45.4429 144.281L98.9646 144.281L98.9646 145.29L45.4429 145.29Z" fill="url(#paint1_linear)"/>
<path d="M187.279 106.387L187.409 106.683L187.192 106.923L186.895 107.252L186.376 107.825L186.066 107.117L155.44 37.2753L23.2264 37.2753L22.7264 37.2753L22.7264 36.7753L22.7264 36.2273L22.7264 35.7273L23.2264 35.7273L155.989 35.7273L156.316 35.7273L156.447 36.0266L187.279 106.387Z" fill="#22BBDD" stroke="#22BBDD"/>
<path d="M196.919 80.4439L169.023 8.96167L168.644 9.17828L196.616 80.6605L196.919 80.4439Z" fill="#22BBDD"/>
<path d="M203.988 80.4439L176.091 8.96167L175.713 9.17828L203.61 80.6605L203.988 80.4439Z" fill="#22BBDD"/>
<path d="M138.348 144.716L138.045 144.281L107.983 184.13L94.9252 184.13L94.9252 184.674L108.134 184.674L108.21 184.565L138.348 144.716Z" fill="url(#paint2_linear)"/>
<path d="M145.417 144.714L145.122 144.281L113.102 188.388L113.324 188.714L145.417 144.714Z" fill="url(#paint3_linear)"/>
<path d="M143.398 64.0662L127.538 36.2273L127.24 36.664L143.1 64.5029L143.398 64.0662Z" fill="url(#paint4_linear)"/>
<path d="M137.339 64.0662L121.485 36.2273L121.181 36.664L137.035 64.5029L137.339 64.0662Z" fill="url(#paint5_linear)"/>
<path d="M162.585 113.985L162.585 112.975L274.677 112.975L274.677 113.985L162.585 113.985Z" fill="url(#paint6_linear)"/>
<path d="M63.6201 51.3751L63.6201 50.3652L129.26 50.3652L129.26 51.3751L63.6201 51.3751Z" fill="url(#paint7_linear)"/>
<mask id="path-15-inside-1" fill="white">
<path d="M163.32 113.618C163.32 112.275 162.275 111.231 160.933 111.231C159.59 111.231 158.545 112.275 158.545 113.618C158.545 114.961 159.59 116.005 160.933 116.005C162.275 116.005 163.32 114.886 163.32 113.618ZM158.918 113.618C158.918 112.499 159.814 111.604 160.933 111.604C162.052 111.604 162.947 112.499 162.947 113.618C162.947 114.737 162.052 115.632 160.933 115.632C159.814 115.632 158.918 114.737 158.918 113.618Z"/>
</mask>
<path d="M163.32 113.618C163.32 112.275 162.275 111.231 160.933 111.231C159.59 111.231 158.545 112.275 158.545 113.618C158.545 114.961 159.59 116.005 160.933 116.005C162.275 116.005 163.32 114.886 163.32 113.618ZM158.918 113.618C158.918 112.499 159.814 111.604 160.933 111.604C162.052 111.604 162.947 112.499 162.947 113.618C162.947 114.737 162.052 115.632 160.933 115.632C159.814 115.632 158.918 114.737 158.918 113.618Z" fill="#252423"/>
<path d="M162.32 113.618C162.32 112.827 161.723 112.231 160.933 112.231L160.933 110.231C162.828 110.231 164.32 111.723 164.32 113.618L162.32 113.618ZM160.933 112.231C160.142 112.231 159.545 112.827 159.545 113.618L157.545 113.618C157.545 111.723 159.037 110.231 160.933 110.231L160.933 112.231ZM159.545 113.618C159.545 114.408 160.142 115.005 160.933 115.005L160.933 117.005C159.037 117.005 157.545 115.513 157.545 113.618L159.545 113.618ZM160.933 115.005C161.703 115.005 162.32 114.354 162.32 113.618L164.32 113.618C164.32 115.418 162.848 117.005 160.933 117.005L160.933 115.005ZM157.918 113.618C157.918 111.947 159.261 110.604 160.933 110.604L160.933 112.604C160.366 112.604 159.918 113.051 159.918 113.618L157.918 113.618ZM160.933 110.604C162.604 110.604 163.947 111.947 163.947 113.618L161.947 113.618C161.947 113.051 161.499 112.604 160.933 112.604L160.933 110.604ZM163.947 113.618C163.947 115.289 162.604 116.632 160.933 116.632L160.933 114.632C161.499 114.632 161.947 114.185 161.947 113.618L163.947 113.618ZM160.933 116.632C159.261 116.632 157.918 115.289 157.918 113.618L159.918 113.618C159.918 114.185 160.366 114.632 160.933 114.632L160.933 116.632Z" fill="#22BBDD" mask="url(#path-15-inside-1)"/>
<path d="M171.387 122C171.387 123.236 170.385 124.238 169.149 124.238C167.913 124.238 166.911 123.236 166.911 122C166.911 120.764 167.913 119.762 169.149 119.762C170.385 119.762 171.387 120.764 171.387 122Z" fill="url(#paint8_linear)"/>
<path d="M67.8778 184.174C68.8377 184.174 69.6158 183.396 69.6158 182.436C69.6158 181.476 68.8377 180.698 67.8778 180.698C66.9179 180.698 66.1398 181.476 66.1398 182.436C66.1398 183.396 66.9179 184.174 67.8778 184.174Z" fill="#252423" stroke="#22BBDD"/>
<path d="M61.8188 51.885C62.7786 51.885 63.5568 51.1068 63.5568 50.1469C63.5568 49.1871 62.7786 48.4089 61.8188 48.4089C60.8589 48.4089 60.0807 49.1871 60.0807 50.1469C60.0807 51.1068 60.8589 51.885 61.8188 51.885Z" fill="#252423" stroke="#22BBDD"/>
<path d="M114.112 191.243C115.509 191.243 116.642 190.111 116.642 188.714C116.642 187.317 115.509 186.184 114.112 186.184C112.715 186.184 111.583 187.317 111.583 188.714C111.583 190.111 112.715 191.243 114.112 191.243Z" fill="#252423" stroke="#22BBDD"/>
<path d="M171.398 8.59424C171.398 7.25143 170.354 6.20703 169.011 6.20703C167.668 6.20703 166.624 7.25144 166.624 8.59424C166.624 9.93705 167.668 10.9815 169.011 10.9815C170.354 10.9815 171.398 9.93705 171.398 8.59424ZM166.922 8.59424C166.922 7.47524 167.818 6.58003 168.937 6.58003C170.056 6.58003 170.951 7.47524 170.951 8.59424C170.951 9.71325 170.056 10.6085 168.937 10.6085C167.818 10.6085 166.922 9.71325 166.922 8.59424Z" fill="#22BBDD"/>
<path d="M176.546 10.3322C177.506 10.3322 178.284 9.55409 178.284 8.59421C178.284 7.63434 177.506 6.8562 176.546 6.8562C175.586 6.8562 174.808 7.63434 174.808 8.59421C174.808 9.55409 175.586 10.3322 176.546 10.3322Z" fill="#252423" stroke="#22BBDD"/>
<path d="M4.77443 182.283C4.77443 180.941 3.73002 179.896 2.38721 179.896C1.04441 179.896 4.56524e-08 180.941 1.04348e-07 182.283C1.63044e-07 183.626 1.04441 184.671 2.38721 184.671C3.65542 184.745 4.77443 183.626 4.77443 182.283ZM0.298403 182.283C0.298403 181.164 1.19361 180.269 2.31261 180.269C3.43162 180.269 4.32683 181.164 4.32683 182.283C4.32683 183.402 3.43162 184.298 2.31261 184.298C1.19361 184.298 0.298403 183.477 0.298403 182.283Z" fill="#22BBDD"/>
<path d="M22.8661 44.8159C27.439 44.8159 31.0943 41.1605 31.0943 36.5876C31.0943 32.0147 27.439 28.3594 22.8661 28.3594C18.2932 28.3594 14.6378 32.0147 14.6378 36.5876C14.6378 41.1577 18.365 44.8159 22.8661 44.8159Z" fill="#252423" stroke="#22BBDD"/>
<path d="M25.8956 169.027C30.4685 169.027 34.1239 165.371 34.1239 160.798C34.1239 156.225 30.4685 152.57 25.8956 152.57C21.3227 152.57 17.6674 156.225 17.6674 160.798C17.6674 165.299 21.3255 169.027 25.8956 169.027Z" fill="#252423" stroke="#22BBDD"/>
<path d="M6.15656 134.692C9.30073 134.692 11.8131 132.18 11.8131 129.035C11.8131 125.891 9.30073 123.379 6.15656 123.379C3.01239 123.379 0.5 125.891 0.5 129.035C0.5 132.13 3.01517 134.692 6.15656 134.692Z" fill="#252423" stroke="#22BBDD"/>
<path d="M163.606 82.0143L163.606 82.0143L163.606 82.0274C163.539 84.5686 165.687 86.7363 168.328 86.7363C170.961 86.7363 173.05 84.6475 173.05 82.0143C173.05 79.381 170.961 77.2922 168.328 77.2922C165.694 77.2922 163.606 79.381 163.606 82.0143Z" fill="#252423" stroke="#22BBDD"/>
<path d="M164.352 122.298L164.352 122.298L164.352 122.311C164.285 124.852 166.433 127.02 169.074 127.02C171.707 127.02 173.796 124.931 173.796 122.298C173.796 119.665 171.707 117.576 169.074 117.576C166.441 117.576 164.352 119.665 164.352 122.298Z" fill="#252423" stroke="#22BBDD"/>
<path d="M94.0882 190.233C96.7215 190.233 98.8102 188.145 98.8102 185.511C98.8102 182.878 96.7215 180.789 94.0882 180.789C91.4549 180.789 89.3662 182.878 89.3662 185.511C89.3662 188.145 91.4549 190.233 94.0882 190.233Z" fill="#252423" stroke="#22BBDD"/>
<path d="M121.354 40.7766C123.987 40.7766 126.076 38.6878 126.076 36.0545C126.076 33.4213 123.987 31.3325 121.354 31.3325C118.721 31.3325 116.632 33.4213 116.632 36.0546C116.632 38.6878 118.721 40.7766 121.354 40.7766Z" fill="#252423" stroke="#22BBDD"/>
<path d="M45.6158 151.859C48.249 151.859 50.3378 149.771 50.3378 147.137C50.3378 144.504 48.249 142.415 45.6158 142.415C42.9825 142.415 40.8937 144.504 40.8937 147.137C40.8937 149.766 43.0524 151.859 45.6158 151.859Z" fill="#252423" stroke="#22BBDD"/>
<path d="M211.567 92.4899L211.567 91.9899L212.067 91.9899L383.043 91.9898L398.535 68.5416L398.684 68.3172L398.953 68.3172L508.961 68.3172L509.461 68.3172L509.461 68.8172L509.461 69.3809L509.461 69.8809L508.961 69.8809L399.37 69.8809L383.878 93.3291L383.73 93.5535L383.461 93.5535L212.067 93.5535L211.567 93.5535L211.567 93.0535L211.567 92.4899Z" fill="#22BBDD" stroke="#22BBDD"/>
<path d="M398.888 68.3173L399.388 68.3173L399.388 68.8173L399.388 69.8271L399.388 70.3271L398.888 70.3271L212.067 70.3272L211.567 70.3272L211.567 69.8272L211.567 68.8173L211.567 68.3173L212.067 68.3173L398.888 68.3173Z" fill="#22BBDD" stroke="#22BBDD"/>
<path d="M211.567 53.1136L211.567 52.6136L212.067 52.6136L413.486 52.6135L443.523 14.9837L443.673 14.7956L443.914 14.7956L443.988 14.7956L510.98 14.7956L511.48 14.7956L511.48 15.2956L511.48 15.8518L511.48 16.3518L510.98 16.3518L444.377 16.3518L414.353 53.8542L414.291 53.9475L414.142 54.1697L413.875 54.1697L212.067 54.1697L211.567 54.1697L211.567 53.6697L211.567 53.1136Z" fill="#22BBDD" stroke="#22BBDD"/>
<path d="M485.734 34.4826L485.734 35.4924L429.183 35.4924L429.183 34.4826L485.734 34.4826Z" fill="url(#paint9_linear)"/>
<path d="M467.557 53.6598L467.557 54.6697L414.035 54.6697L414.035 53.6598L467.557 53.6598Z" fill="url(#paint10_linear)"/>
<path d="M325.721 91.5634L325.591 91.2673L325.808 91.0274L326.105 90.6986L326.624 90.1251L326.934 90.8331L357.561 160.675L489.774 160.675L490.274 160.675L490.274 161.175L490.274 161.723L490.274 162.223L489.774 162.223L357.011 162.223L356.684 162.223L356.553 161.924L325.721 91.5634Z" fill="#22BBDD" stroke="#22BBDD"/>
<path d="M316.081 117.506L343.977 188.989L344.356 188.772L316.384 117.29L316.081 117.506Z" fill="#22BBDD"/>
<path d="M309.012 117.506L336.909 188.989L337.287 188.772L309.39 117.29L309.012 117.506Z" fill="#22BBDD"/>
<path d="M374.652 53.2342L374.955 53.6697L405.018 13.8204L418.075 13.8204L418.075 13.276L404.866 13.276L404.79 13.3848L374.652 53.2342Z" fill="url(#paint11_linear)"/>
<path d="M367.583 53.2362L367.879 53.6697L399.898 9.56174L399.676 9.2366L367.583 53.2362Z" fill="url(#paint12_linear)"/>
<path d="M369.602 133.884L385.462 161.723L385.76 161.286L369.9 133.447L369.602 133.884Z" fill="url(#paint13_linear)"/>
<path d="M375.661 133.884L391.516 161.723L391.819 161.286L375.965 133.447L375.661 133.884Z" fill="url(#paint14_linear)"/>
<path d="M350.415 83.965L350.415 84.9749L238.323 84.9749L238.323 83.965L350.415 83.965Z" fill="url(#paint15_linear)"/>
<path d="M449.38 146.575L449.38 147.585L383.74 147.585L383.74 146.575L449.38 146.575Z" fill="url(#paint16_linear)"/>
<mask id="path-46-inside-2" fill="white">
<path d="M349.68 84.3323C349.68 85.6751 350.725 86.7195 352.068 86.7195C353.41 86.7195 354.455 85.6751 354.455 84.3323C354.455 82.9895 353.41 81.945 352.068 81.945C350.725 81.945 349.68 83.0641 349.68 84.3323ZM354.082 84.3323C354.082 85.4513 353.187 86.3465 352.068 86.3465C350.949 86.3465 350.053 85.4513 350.053 84.3323C350.053 83.2133 350.949 82.318 352.068 82.318C353.187 82.318 354.082 83.2133 354.082 84.3323Z"/>
</mask>
<path d="M349.68 84.3323C349.68 85.6751 350.725 86.7195 352.068 86.7195C353.41 86.7195 354.455 85.6751 354.455 84.3323C354.455 82.9895 353.41 81.945 352.068 81.945C350.725 81.945 349.68 83.0641 349.68 84.3323ZM354.082 84.3323C354.082 85.4513 353.187 86.3465 352.068 86.3465C350.949 86.3465 350.053 85.4513 350.053 84.3323C350.053 83.2133 350.949 82.318 352.068 82.318C353.187 82.318 354.082 83.2133 354.082 84.3323Z" fill="#252423"/>
<path d="M350.68 84.3323C350.68 85.1228 351.277 85.7195 352.068 85.7195L352.068 87.7195C350.173 87.7195 348.68 86.2274 348.68 84.3323L350.68 84.3323ZM352.068 85.7195C352.858 85.7195 353.455 85.1228 353.455 84.3323L355.455 84.3323C355.455 86.2274 353.963 87.7195 352.068 87.7195L352.068 85.7195ZM353.455 84.3323C353.455 83.5417 352.858 82.945 352.068 82.945L352.068 80.945C353.963 80.945 355.455 82.4372 355.455 84.3323L353.455 84.3323ZM352.068 82.945C351.297 82.945 350.68 83.596 350.68 84.3323L348.68 84.3323C348.68 82.5322 350.152 80.945 352.068 80.945L352.068 82.945ZM355.082 84.3323C355.082 86.0036 353.739 87.3465 352.068 87.3465L352.068 85.3465C352.634 85.3465 353.082 84.899 353.082 84.3323L355.082 84.3323ZM352.068 87.3465C350.396 87.3465 349.053 86.0036 349.053 84.3323L351.053 84.3323C351.053 84.899 351.501 85.3465 352.068 85.3465L352.068 87.3465ZM349.053 84.3323C349.053 82.661 350.396 81.318 352.068 81.318L352.068 83.318C351.501 83.318 351.053 83.7655 351.053 84.3323L349.053 84.3323ZM352.068 81.318C353.739 81.318 355.082 82.661 355.082 84.3323L353.082 84.3323C353.082 83.7655 352.634 83.318 352.068 83.318L352.068 81.318Z" fill="#22BBDD" mask="url(#path-46-inside-2)"/>
<path d="M341.614 75.9505C341.614 74.7144 342.616 73.7125 343.852 73.7125C345.088 73.7125 346.09 74.7144 346.09 75.9505C346.09 77.1865 345.088 78.1885 343.852 78.1885C342.616 78.1885 341.614 77.1865 341.614 75.9505Z" fill="url(#paint17_linear)"/>
<path d="M445 11.5C443.067 11.5 441.5 13.067 441.5 15C441.5 16.933 443.067 18.5 445 18.5C446.933 18.5 448.5 16.933 448.5 15C448.5 13.067 446.933 11.5 445 11.5Z" fill="#252423" stroke="#22BBDD"/>
<path d="M451.181 146.065C450.222 146.065 449.443 146.843 449.443 147.803C449.443 148.763 450.222 149.541 451.181 149.541C452.141 149.541 452.919 148.763 452.919 147.803C452.919 146.843 452.141 146.065 451.181 146.065Z" fill="#252423" stroke="#22BBDD"/>
<path d="M398.888 6.70706C397.491 6.70706 396.358 7.83957 396.358 9.23659C396.358 10.6336 397.491 11.7661 398.888 11.7661C400.285 11.7661 401.417 10.6336 401.417 9.23659C401.417 7.83957 400.285 6.70706 398.888 6.70706Z" fill="#252423" stroke="#22BBDD"/>
<path d="M341.602 189.356C341.602 190.699 342.646 191.743 343.989 191.743C345.332 191.743 346.376 190.699 346.376 189.356C346.376 188.013 345.332 186.969 343.989 186.969C342.646 186.969 341.602 188.013 341.602 189.356ZM346.078 189.356C346.078 190.475 345.182 191.37 344.063 191.37C342.944 191.37 342.049 190.475 342.049 189.356C342.049 188.237 342.944 187.342 344.063 187.342C345.182 187.342 346.078 188.237 346.078 189.356Z" fill="#22BBDD"/>
<path d="M336.454 187.618C335.494 187.618 334.716 188.396 334.716 189.356C334.716 190.316 335.494 191.094 336.454 191.094C337.414 191.094 338.192 190.316 338.192 189.356C338.192 188.396 337.414 187.618 336.454 187.618Z" fill="#252423" stroke="#22BBDD"/>
<path d="M508.226 15.6667C508.226 17.0096 509.27 18.054 510.613 18.054C511.956 18.054 513 17.0096 513 15.6667C513 14.3239 511.956 13.2795 510.613 13.2795C509.345 13.2049 508.226 14.3239 508.226 15.6667ZM512.702 15.6667C512.702 16.7857 511.807 17.681 510.688 17.681C509.569 17.681 508.673 16.7857 508.673 15.6667C508.673 14.5477 509.569 13.6525 510.688 13.6525C511.807 13.6525 512.702 14.4731 512.702 15.6667Z" fill="#22BBDD"/>
<path d="M490.134 153.134C485.561 153.134 481.906 156.79 481.906 161.363C481.906 165.935 485.561 169.591 490.134 169.591C494.707 169.591 498.362 165.935 498.362 161.363C498.362 156.792 494.635 153.134 490.134 153.134Z" fill="#252423" stroke="#22BBDD"/>
<path d="M487.105 28.9236C482.532 28.9236 478.876 32.579 478.876 37.1519C478.876 41.7248 482.532 45.3801 487.105 45.3801C491.677 45.3801 495.333 41.7248 495.333 37.1519C495.333 32.6508 491.675 28.9236 487.105 28.9236Z" fill="#252423" stroke="#22BBDD"/>
<path d="M506.844 63.2582C503.699 63.2582 501.187 65.7706 501.187 68.9147C501.187 72.0589 503.699 74.5713 506.844 74.5713C509.988 74.5713 512.5 72.0589 512.5 68.9147C512.5 65.8204 509.985 63.2582 506.844 63.2582Z" fill="#252423" stroke="#22BBDD"/>
<path d="M349.394 115.936L349.394 115.936L349.395 115.923C349.461 113.382 347.313 111.214 344.672 111.214C342.039 111.214 339.95 113.303 339.95 115.936C339.95 118.569 342.039 120.658 344.672 120.658C347.306 120.658 349.394 118.569 349.394 115.936Z" fill="#252423" stroke="#22BBDD"/>
<path d="M348.648 75.652L348.648 75.652L348.648 75.6388C348.715 73.0977 346.567 70.93 343.926 70.93C341.293 70.93 339.204 73.0187 339.204 75.652C339.204 78.2853 341.293 80.374 343.926 80.374C346.559 80.374 348.648 78.2853 348.648 75.652Z" fill="#252423" stroke="#22BBDD"/>
<path d="M418.912 7.71682C416.279 7.71682 414.19 9.80558 414.19 12.4389C414.19 15.0721 416.279 17.1609 418.912 17.1609C421.545 17.1609 423.634 15.0721 423.634 12.4389C423.634 9.80558 421.545 7.71682 418.912 7.71682Z" fill="#252423" stroke="#22BBDD"/>
<path d="M391.646 157.174C389.013 157.174 386.924 159.262 386.924 161.896C386.924 164.529 389.013 166.618 391.646 166.618C394.279 166.618 396.368 164.529 396.368 161.896C396.368 159.262 394.279 157.174 391.646 157.174Z" fill="#252423" stroke="#22BBDD"/>
<path d="M467.384 48.5C464.751 48.5 462.662 50.5888 462.662 53.2221C462.662 55.8553 464.751 57.9441 467.384 57.9441C470.018 57.9441 472.106 55.8553 472.106 53.2221C472.106 50.5934 469.948 48.5 467.384 48.5Z" fill="#252423" stroke="#22BBDD"/>
<circle cx="256.5" cy="97.5" r="97" fill="#141413" stroke="#22BBDD"/>
<ellipse cx="256.5" cy="97.142" rx="85.7389" ry="86.651" fill="white" fill-opacity="0.02"/>
<path d="M341.053 82.6945C341.576 85.8441 341.93 89.0513 342.108 92.3063L341.608 92.3335C341.695 93.9251 341.739 95.5284 341.739 97.142C341.739 98.7556 341.695 100.359 341.608 101.95L342.108 101.978C341.93 105.233 341.576 108.44 341.053 111.589L340.559 111.507C340.03 114.697 339.327 117.827 338.46 120.887L338.941 121.023C338.058 124.145 337.005 127.195 335.794 130.162L335.331 129.973C334.114 132.955 332.736 135.852 331.208 138.655L331.648 138.894C330.099 141.734 328.398 144.477 326.555 147.112L326.145 146.825C324.304 149.457 322.32 151.979 320.206 154.382L320.581 154.712C318.449 157.134 316.185 159.434 313.8 161.601L313.464 161.231C311.092 163.386 308.6 165.408 306 167.286L306.293 167.692C303.683 169.576 300.965 171.316 298.149 172.901L297.904 172.465C295.119 174.032 292.239 175.445 289.274 176.695L289.468 177.155C286.513 178.401 283.474 179.484 280.362 180.393L280.221 179.913C277.168 180.805 274.043 181.53 270.859 182.076L270.943 182.569C267.796 183.108 264.59 183.475 261.336 183.657L261.308 183.158C259.716 183.248 258.113 183.293 256.5 183.293C254.887 183.293 253.284 183.248 251.692 183.158L251.664 183.657C248.41 183.475 245.204 183.108 242.057 182.569L242.141 182.076C238.957 181.53 235.832 180.805 232.779 179.913L232.638 180.393C229.526 179.483 226.487 178.401 223.532 177.155L223.726 176.695C220.761 175.445 217.881 174.032 215.096 172.465L214.851 172.901C212.035 171.316 209.317 169.576 206.707 167.691L207 167.286C204.4 165.408 201.908 163.386 199.536 161.231L199.2 161.601C196.815 159.434 194.551 157.134 192.419 154.712L192.794 154.382C190.68 151.979 188.696 149.457 186.855 146.825L186.445 147.112C184.602 144.477 182.901 141.734 181.352 138.894L181.791 138.655C180.264 135.852 178.886 132.955 177.669 129.973L177.206 130.162C175.995 127.195 174.942 124.145 174.059 121.023L174.54 120.887C173.673 117.827 172.97 114.697 172.441 111.507L171.947 111.589C171.424 108.44 171.07 105.233 170.892 101.978L171.392 101.95C171.305 100.359 171.261 98.7556 171.261 97.142C171.261 95.5283 171.305 93.9251 171.392 92.3335L170.892 92.3063C171.07 89.0513 171.424 85.8441 171.947 82.6945L172.441 82.7765C172.97 79.587 173.673 76.4571 174.54 73.3969L174.059 73.2607C174.942 70.1388 175.995 67.0889 177.206 64.1219L177.669 64.3109C178.886 61.3291 180.264 58.4315 181.792 55.629L181.353 55.3897C182.901 52.5495 184.602 49.8065 186.445 47.1721L186.855 47.4587C188.696 44.8271 190.68 42.3045 192.794 39.9022L192.419 39.5718C194.551 37.1498 196.815 34.8495 199.2 32.6824L199.536 33.0525C201.908 30.8979 204.4 28.8758 207 26.9978L206.707 26.5924C209.317 24.708 212.035 22.9678 214.851 21.3833L215.096 21.819C217.881 20.2522 220.761 18.8385 223.726 17.5893L223.532 17.1285C226.487 15.8833 229.526 14.8004 232.638 13.891L232.779 14.3709C235.832 13.4785 238.957 12.754 242.141 12.208L242.057 11.7152C245.204 11.1756 248.41 10.8093 251.664 10.6265L251.692 11.1257C253.284 11.0363 254.887 10.991 256.5 10.991C258.113 10.991 259.716 11.0363 261.308 11.1257L261.336 10.6265C264.59 10.8093 267.796 11.1756 270.943 11.7152L270.859 12.208C274.043 12.754 277.168 13.4785 280.221 14.3709L280.362 13.891C283.474 14.8004 286.513 15.8833 289.468 17.1285L289.274 17.5893C292.239 18.8385 295.119 20.2522 297.904 21.819L298.149 21.3833C300.965 22.9678 303.683 24.708 306.293 26.5924L306 26.9978C308.6 28.8758 311.092 30.8979 313.464 33.0525L313.8 32.6825C316.185 34.8495 318.449 37.1498 320.581 39.5719L320.206 39.9022C322.32 42.3045 324.304 44.8271 326.145 47.4587L326.555 47.1721C328.398 49.8065 330.099 52.5495 331.648 55.3897L331.208 55.6291C332.736 58.4315 334.114 61.3291 335.331 64.3109L335.794 64.1219C337.005 67.0889 338.058 70.1388 338.941 73.2607L338.46 73.3969C339.327 76.4571 340.03 79.587 340.559 82.7765L341.053 82.6945Z" stroke="#22BBDD" stroke-opacity="0.4" stroke-dasharray="10 10"/>
<g clip-path="url(#clip0)">
<path d="M296.733 72.7162H290.014V64.0638C289.897 55.5291 286.415 47.3894 280.332 41.4294C274.25 35.4693 266.062 32.1751 257.566 32.269C239.67 32.269 225.101 46.5351 225.101 64.0638V72.7162H219.003C217.314 72.7162 215.694 73.3902 214.5 74.5899C213.305 75.7896 212.634 77.4168 212.634 79.1135V141.903C212.634 143.6 213.305 145.227 214.5 146.427C215.694 147.627 217.314 148.301 219.003 148.301H296.733C298.422 148.301 300.042 147.627 301.237 146.427C302.431 145.227 303.102 143.6 303.102 141.903V79.1455C303.106 78.3027 302.945 77.4674 302.626 76.6875C302.308 75.9077 301.84 75.1987 301.248 74.6012C300.656 74.0038 299.953 73.5297 299.178 73.2062C298.403 72.8827 297.572 72.7162 296.733 72.7162ZM264.348 120.072C264.348 121.769 263.677 123.396 262.483 124.596C261.289 125.796 259.669 126.47 257.98 126.47C256.291 126.47 254.671 125.796 253.476 124.596C252.282 123.396 251.611 121.769 251.611 120.072V100.976C251.611 99.2797 252.282 97.6525 253.476 96.4528C254.671 95.2531 256.291 94.5791 257.98 94.5791C259.669 94.5791 261.289 95.2531 262.483 96.4528C263.677 97.6525 264.348 99.2797 264.348 100.976V120.072ZM277.293 72.7162H237.902V64.0638C238.019 58.9366 240.154 54.0649 243.84 50.5157C247.525 46.9664 252.461 45.029 257.566 45.1277C262.669 45.0291 267.603 46.967 271.286 50.5166C274.969 54.0663 277.1 58.938 277.213 64.0638L277.293 72.7162Z" stroke="#22BBDD" stroke-miterlimit="10"/>
</g>
<defs>
<linearGradient id="paint0_linear" x1="-80.7181" y1="162.962" x2="135.523" y2="162.962" gradientUnits="userSpaceOnUse">
<stop stop-color="#22BBDD"/>
<stop offset="0.505208" stop-color="#5ADBF8" stop-opacity="0.42"/>
<stop offset="1" stop-color="#346290"/>
</linearGradient>
<linearGradient id="paint1_linear" x1="-56.7561" y1="144.785" x2="147.9" y2="144.785" gradientUnits="userSpaceOnUse">
<stop stop-color="#22BBDD"/>
<stop offset="0.505208" stop-color="#5ADBF8" stop-opacity="0.42"/>
<stop offset="1" stop-color="#346290"/>
</linearGradient>
<linearGradient id="paint2_linear" x1="12.0091" y1="164.467" x2="178.051" y2="164.467" gradientUnits="userSpaceOnUse">
<stop stop-color="#22BBDD"/>
<stop offset="0.505208" stop-color="#5ADBF8" stop-opacity="0.42"/>
<stop offset="1" stop-color="#346290"/>
</linearGradient>
<linearGradient id="paint3_linear" x1="51.3974" y1="166.485" x2="174.964" y2="166.485" gradientUnits="userSpaceOnUse">
<stop stop-color="#22BBDD"/>
<stop offset="0.505208" stop-color="#5ADBF8" stop-opacity="0.42"/>
<stop offset="1" stop-color="#346290"/>
</linearGradient>
<linearGradient id="paint4_linear" x1="96.3877" y1="50.3576" x2="158.171" y2="50.3576" gradientUnits="userSpaceOnUse">
<stop stop-color="#22BBDD"/>
<stop offset="0.505208" stop-color="#5ADBF8" stop-opacity="0.42"/>
<stop offset="1" stop-color="#346290"/>
</linearGradient>
<linearGradient id="paint5_linear" x1="90.3286" y1="50.3576" x2="152.112" y2="50.3576" gradientUnits="userSpaceOnUse">
<stop stop-color="#22BBDD"/>
<stop offset="0.505208" stop-color="#5ADBF8" stop-opacity="0.42"/>
<stop offset="1" stop-color="#346290"/>
</linearGradient>
<linearGradient id="paint6_linear" x1="-51.4547" y1="113.48" x2="377.166" y2="113.48" gradientUnits="userSpaceOnUse">
<stop stop-color="#22BBDD"/>
<stop offset="0.505208" stop-color="#5ADBF8" stop-opacity="0.42"/>
<stop offset="1" stop-color="#346290"/>
</linearGradient>
<linearGradient id="paint7_linear" x1="-61.7183" y1="50.8699" x2="189.276" y2="50.8699" gradientUnits="userSpaceOnUse">
<stop stop-color="#22BBDD"/>
<stop offset="0.505208" stop-color="#5ADBF8" stop-opacity="0.42"/>
<stop offset="1" stop-color="#346290"/>
</linearGradient>
<linearGradient id="paint8_linear" x1="-290.89" y1="121.966" x2="337.248" y2="121.966" gradientUnits="userSpaceOnUse">
<stop stop-color="#313B7B"/>
<stop offset="0.2667" stop-color="#3EE4D7"/>
<stop offset="0.541" stop-color="#FCFFFA"/>
<stop offset="0.7897" stop-color="#5FE9DD"/>
<stop offset="1" stop-color="#346290"/>
</linearGradient>
<linearGradient id="paint9_linear" x1="593.718" y1="34.9878" x2="377.477" y2="34.9878" gradientUnits="userSpaceOnUse">
<stop stop-color="#22BBDD"/>
<stop offset="0.505208" stop-color="#5ADBF8" stop-opacity="0.42"/>
<stop offset="1" stop-color="#346290"/>
</linearGradient>
<linearGradient id="paint10_linear" x1="569.756" y1="54.165" x2="365.1" y2="54.165" gradientUnits="userSpaceOnUse">
<stop stop-color="#22BBDD"/>
<stop offset="0.505208" stop-color="#5ADBF8" stop-opacity="0.42"/>
<stop offset="1" stop-color="#346290"/>
</linearGradient>
<linearGradient id="paint11_linear" x1="500.991" y1="33.4836" x2="334.949" y2="33.4836" gradientUnits="userSpaceOnUse">
<stop stop-color="#22BBDD"/>
<stop offset="0.505208" stop-color="#5ADBF8" stop-opacity="0.42"/>
<stop offset="1" stop-color="#346290"/>
</linearGradient>
<linearGradient id="paint12_linear" x1="461.603" y1="31.465" x2="338.037" y2="31.465" gradientUnits="userSpaceOnUse">
<stop stop-color="#22BBDD"/>
<stop offset="0.505208" stop-color="#5ADBF8" stop-opacity="0.42"/>
<stop offset="1" stop-color="#346290"/>
</linearGradient>
<linearGradient id="paint13_linear" x1="416.612" y1="147.593" x2="354.829" y2="147.593" gradientUnits="userSpaceOnUse">
<stop stop-color="#22BBDD"/>
<stop offset="0.505208" stop-color="#5ADBF8" stop-opacity="0.42"/>
<stop offset="1" stop-color="#346290"/>
</linearGradient>
<linearGradient id="paint14_linear" x1="422.671" y1="147.593" x2="360.888" y2="147.593" gradientUnits="userSpaceOnUse">
<stop stop-color="#22BBDD"/>
<stop offset="0.505208" stop-color="#5ADBF8" stop-opacity="0.42"/>
<stop offset="1" stop-color="#346290"/>
</linearGradient>
<linearGradient id="paint15_linear" x1="564.455" y1="84.4702" x2="135.835" y2="84.4702" gradientUnits="userSpaceOnUse">
<stop stop-color="#22BBDD"/>
<stop offset="0.505208" stop-color="#5ADBF8" stop-opacity="0.42"/>
<stop offset="1" stop-color="#346290"/>
</linearGradient>
<linearGradient id="paint16_linear" x1="574.718" y1="147.08" x2="323.725" y2="147.08" gradientUnits="userSpaceOnUse">
<stop stop-color="#22BBDD"/>
<stop offset="0.505208" stop-color="#5ADBF8" stop-opacity="0.42"/>
<stop offset="1" stop-color="#346290"/>
</linearGradient>
<linearGradient id="paint17_linear" x1="803.89" y1="75.9841" x2="175.752" y2="75.9841" gradientUnits="userSpaceOnUse">
<stop stop-color="#313B7B"/>
<stop offset="0.2667" stop-color="#3EE4D7"/>
<stop offset="0.541" stop-color="#FCFFFA"/>
<stop offset="0.7897" stop-color="#5FE9DD"/>
<stop offset="1" stop-color="#346290"/>
</linearGradient>
<clipPath id="clip0">
<rect width="92.1237" height="117.663" fill="white" transform="translate(211.806 31.4695)"/>
</clipPath>
</defs>
</svg>
