<svg width="60" height="60" viewBox="0 0 60 60" fill="none" xmlns="http://www.w3.org/2000/svg">
<rect x="6.5" y="19.5" width="48" height="31" stroke="#22BBDD"/>
<path d="M12.1 7.5C13.1239 7.5 13.9 8.27614 13.9 9.3V13.4C13.9 14.4239 13.1239 15.2 12.1 15.2C11.0762 15.2 10.3 14.4239 10.3 13.4V9.3C10.3 8.29011 11.162 7.5 12.1 7.5Z" stroke="#22BBDD"/>
<mask id="path-3-inside-1" fill="white">
<path fill-rule="evenodd" clip-rule="evenodd" d="M45.3 11H15.8V13.4C15.8 15.4 14.1 17.1 12.1 17.1C10.1 17.1 8.40002 15.4 8.40002 13.4V11H3V53H58V11H52.7001V13.4C52.7001 15.4 51 17.1 49 17.1C47 17.1 45.3 15.4 45.3 13.4V11ZM45.3 10H52.7001H58H59V11V53V54H58H3H2V53V11V10H3H8.40002H15.8H45.3Z"/>
</mask>
<path d="M15.8 11V10H14.8V11H15.8ZM45.3 11H46.3V10H45.3V11ZM8.40002 11H9.40002V10H8.40002V11ZM3 11V10H2V11H3ZM3 53H2V54H3V53ZM58 53V54H59V53H58ZM58 11H59V10H58V11ZM52.7001 11V10H51.7001V11H52.7001ZM59 10H60V9H59V10ZM59 54V55H60V54H59ZM2 54H1V55H2V54ZM2 10V9H1V10H2ZM15.8 12H45.3V10H15.8V12ZM16.8 13.4V11H14.8V13.4H16.8ZM12.1 18.1C14.6523 18.1 16.8 15.9523 16.8 13.4H14.8C14.8 14.8477 13.5477 16.1 12.1 16.1V18.1ZM7.40002 13.4C7.40002 15.9523 9.54774 18.1 12.1 18.1V16.1C10.6523 16.1 9.40002 14.8477 9.40002 13.4H7.40002ZM7.40002 11V13.4H9.40002V11H7.40002ZM3 12H8.40002V10H3V12ZM4 53V11H2V53H4ZM58 52H3V54H58V52ZM57 11V53H59V11H57ZM52.7001 12H58V10H52.7001V12ZM51.7001 11V13.4H53.7001V11H51.7001ZM51.7001 13.4C51.7001 14.8477 50.4478 16.1 49 16.1V18.1C51.5523 18.1 53.7001 15.9523 53.7001 13.4H51.7001ZM49 16.1C47.5523 16.1 46.3 14.8477 46.3 13.4H44.3C44.3 15.9523 46.4478 18.1 49 18.1V16.1ZM46.3 13.4V11H44.3V13.4H46.3ZM45.3 11H52.7001V9H45.3V11ZM52.7001 11H58V9H52.7001V11ZM58 11H59V9H58V11ZM58 10V11H60V10H58ZM58 11V53H60V11H58ZM58 53V54H60V53H58ZM59 53H58V55H59V53ZM58 53H3V55H58V53ZM3 53H2V55H3V53ZM3 54V53H1V54H3ZM3 53V11H1V53H3ZM3 11V10H1V11H3ZM2 11H3V9H2V11ZM3 11H8.40002V9H3V11ZM8.40002 11H15.8V9H8.40002V11ZM15.8 11H45.3V9H15.8V11Z" fill="#22BBDD" mask="url(#path-3-inside-1)"/>
<path d="M49 7.5C50.0238 7.5 50.7999 8.27614 50.7999 9.3V13.4C50.7999 14.4239 50.0238 15.2 49 15.2C47.9761 15.2 47.2 14.4239 47.2 13.4V9.3C47.2 8.27614 47.9761 7.5 49 7.5Z" stroke="#22BBDD"/>
</svg>
