<svg width="460" height="424" viewBox="0 0 460 424" fill="none" xmlns="http://www.w3.org/2000/svg">
<g opacity="0.2">
<path d="M286.337 323.529L285.809 323.177L284.755 323.882L285.282 324.234L240.46 350.309C234.483 353.833 224.64 353.833 218.664 350.309L173.314 324.058L173.841 323.705L172.787 323.001L172.26 323.353L126.91 297.277C120.934 293.754 120.934 288.116 126.91 284.592L169.974 259.574L170.502 259.926L171.556 259.221L171.029 258.869L217.961 231.56C223.937 228.036 233.78 228.036 239.757 231.56L285.106 257.812L284.579 258.164L285.634 258.869L286.161 258.517L331.51 284.768C337.487 288.292 337.487 293.93 331.51 297.454L286.337 323.529ZM239.229 349.781L330.28 296.749C335.729 293.578 335.553 288.468 330.28 285.297L238.526 232.265C233.077 229.093 224.289 229.093 219.015 232.265L127.965 285.297C122.516 288.468 122.691 293.578 127.965 296.749L219.718 349.781C224.992 352.776 233.78 352.776 239.229 349.781Z" fill="url(#paint0_linear)"/>
<path d="M155.384 374.976L155.208 374.799L154.154 375.504L154.33 375.68L129.194 390.304C123.218 393.827 113.374 393.827 107.398 390.304L58.533 362.114C52.5567 358.59 52.5567 352.952 58.533 349.429L82.0867 335.686L82.9655 336.215L84.0202 335.51L83.1413 334.981L107.047 321.063C113.023 317.539 122.866 317.539 128.842 321.063L152.748 334.805L152.22 335.158L153.275 335.862L153.802 335.51L177.707 349.252C183.684 352.776 183.684 358.414 177.707 361.938L155.384 374.976ZM128.139 389.599L176.653 361.409C182.102 358.238 181.926 353.128 176.653 349.957L127.788 321.767C122.339 318.596 113.55 318.596 108.101 321.767L59.5876 349.957C54.1387 353.128 54.3144 358.238 59.5876 361.409L108.453 389.599C113.902 392.594 122.69 392.77 128.139 389.599Z" fill="url(#paint1_linear)"/>
<path d="M151.692 205.661L222.529 164.433C222.881 164.609 223.056 164.962 223.408 165.138L152.747 206.365L152.22 206.718L151.165 206.013L151.692 205.661Z" fill="url(#paint2_linear)"/>
<path d="M81.5585 246.536L82.0858 246.183L83.1404 246.888L82.6131 247.241L12.4794 288.116L12.3037 287.94C11.9521 287.763 11.7764 287.587 11.4248 287.587L81.5585 246.536Z" fill="url(#paint3_linear)"/>
<path d="M151.166 247.593L150.638 247.241L149.584 247.945L150.111 248.298L128.139 260.983C122.163 264.507 112.32 264.507 106.343 260.983L82.4382 247.241L82.9655 246.888L81.9109 246.183L81.3835 246.536L57.4783 232.617C51.502 229.093 51.502 223.455 57.4783 219.932L105.992 191.742C111.968 188.218 121.811 188.218 127.788 191.742L151.693 205.661L151.166 206.013L152.22 206.718L152.748 206.365L176.653 220.108C182.629 223.632 182.629 229.27 176.653 232.793L151.166 247.593ZM127.085 260.455L175.598 232.265C181.047 229.093 180.871 223.984 175.598 220.813L126.733 192.623C121.284 189.452 112.495 189.452 107.222 192.623L58.7087 220.813C53.2598 223.984 53.4355 229.093 58.7087 232.265L107.574 260.455C113.023 263.45 121.811 263.45 127.085 260.455Z" fill="url(#paint4_linear)"/>
<path d="M306.021 246.712L305.494 247.064L285.983 258.34L285.456 258.693L284.401 258.164L284.929 257.812L304.44 246.36L304.967 246.183L306.021 246.712Z" fill="url(#paint5_linear)"/>
<path d="M171.379 259.221L170.324 259.926L169.797 259.574L150.11 248.298L149.583 247.945L150.638 247.241L151.165 247.593L170.852 258.869L171.379 259.221Z" fill="url(#paint6_linear)"/>
<path d="M232.723 159.852C235.008 161.085 235.008 163.199 232.723 164.609C230.438 165.842 226.923 165.842 224.638 164.609C222.353 163.376 222.353 161.261 224.638 159.852C226.923 158.442 230.438 158.442 232.723 159.852Z" fill="url(#paint7_linear)"/>
<path d="M234.657 164.609C234.481 164.785 234.129 164.962 233.954 165.138L233.778 165.314C230.965 166.724 226.571 166.724 223.759 165.138C223.407 164.962 223.056 164.609 222.88 164.433C221.122 162.847 221.474 160.557 223.934 159.148C226.747 157.562 231.317 157.562 234.129 159.148C236.414 160.733 236.59 163.024 234.657 164.609ZM224.638 164.433C226.923 165.666 230.438 165.666 232.723 164.433C235.008 163.2 235.008 161.086 232.723 159.676C230.438 158.443 226.923 158.443 224.638 159.676C222.353 161.086 222.353 163.2 224.638 164.433Z" fill="url(#paint8_linear)"/>
<path d="M305.318 205.485L305.846 205.837L304.791 206.542L304.264 206.189L233.603 165.314L233.778 165.138C234.13 164.962 234.306 164.786 234.481 164.609L305.318 205.485Z" fill="url(#paint9_linear)"/>
<path d="M456.837 287.94C459.123 289.173 459.123 291.287 456.837 292.697C454.552 293.93 451.037 293.93 448.752 292.697C446.467 291.463 446.467 289.349 448.752 287.94C451.037 286.706 454.552 286.706 456.837 287.94Z" fill="url(#paint10_linear)"/>
<path d="M457.891 287.235C460.704 288.82 460.704 291.463 457.891 293.225C455.43 294.635 451.388 294.811 448.575 293.754C448.224 293.578 448.048 293.401 447.696 293.401C447.521 293.401 447.521 293.225 447.521 293.225C444.884 291.639 445.06 288.997 447.696 287.411C448.048 287.235 448.4 287.059 448.927 286.882C451.739 285.649 455.43 285.825 457.891 287.235ZM448.751 292.697C451.036 293.93 454.552 293.93 456.837 292.697C459.122 291.463 459.122 289.349 456.837 287.94C454.552 286.706 451.036 286.706 448.751 287.94C446.466 289.173 446.466 291.287 448.751 292.697Z" fill="url(#paint11_linear)"/>
<path d="M447.696 293.225C448.048 293.401 448.223 293.577 448.575 293.577L378.266 334.453L377.738 334.805L376.684 334.1L377.211 333.748L447.345 292.873C447.52 293.225 447.52 293.225 447.696 293.225Z" fill="url(#paint12_linear)"/>
<path d="M377.036 245.126L377.563 245.479L448.927 286.706C448.576 286.882 448.049 287.059 447.697 287.235L376.509 246.007L375.981 245.655L377.036 245.126Z" fill="url(#paint13_linear)"/>
<path d="M377.562 245.479L377.035 245.126L375.98 245.831L376.507 246.184L351.196 260.983C345.22 264.507 335.376 264.507 329.4 260.983L305.495 247.241L306.022 246.888L304.968 246.184L304.44 246.536L280.535 232.793C274.559 229.27 274.559 223.632 280.535 220.108L304.264 206.365L304.792 206.718L305.846 206.013L305.319 205.661L329.048 191.918C335.025 188.394 344.868 188.394 350.844 191.918L399.709 220.108C405.686 223.632 405.686 229.27 399.709 232.793L377.562 245.479ZM350.141 260.278L398.655 232.089C404.104 228.917 403.928 223.808 398.655 220.637L349.79 192.447C344.341 189.275 335.552 189.275 330.103 192.447L281.59 220.637C276.141 223.808 276.316 228.917 281.59 232.089L330.455 260.278C335.904 263.45 344.692 263.45 350.141 260.278Z" fill="url(#paint14_linear)"/>
<path d="M237.296 416.908C239.053 418.494 238.702 420.784 236.241 422.193C233.429 423.779 228.858 423.779 226.046 422.193C223.585 420.784 223.234 418.317 225.343 416.732C225.519 416.556 225.87 416.379 226.046 416.203L226.222 416.027C229.034 414.617 233.429 414.617 236.241 416.203C236.768 416.379 237.12 416.555 237.296 416.908ZM227.101 421.489C229.386 422.722 232.901 422.722 235.186 421.489C237.471 420.255 237.471 418.141 235.186 416.732C232.901 415.498 229.386 415.498 227.101 416.732C224.816 417.965 224.991 420.079 227.101 421.489Z" fill="url(#paint15_linear)"/>
<path d="M226.221 416.027L226.046 416.203C225.694 416.379 225.518 416.556 225.343 416.732L154.33 375.68L154.154 375.504L155.209 374.799L155.385 374.976L226.221 416.027Z" fill="url(#paint16_linear)"/>
<path d="M235.184 416.732C237.469 417.965 237.469 420.079 235.184 421.489C232.899 422.722 229.384 422.722 227.099 421.489C224.814 420.255 224.814 418.141 227.099 416.732C229.384 415.498 232.899 415.498 235.184 416.732Z" fill="url(#paint17_linear)"/>
<path d="M306.376 335.157L305.321 335.862L304.794 335.51L285.283 324.234L284.58 323.881L285.81 323.177L286.338 323.529L305.849 334.805L306.376 335.157Z" fill="url(#paint18_linear)"/>
<path d="M401.997 348.371C407.973 351.895 407.973 357.533 401.997 361.057L353.483 389.247C347.507 392.77 337.663 392.77 331.687 389.247L308.133 375.504L308.661 375.152L307.606 374.447L307.079 374.799L282.998 360.881C277.022 357.357 277.022 351.719 282.998 348.195L304.97 335.334L305.497 335.686L306.552 334.981L306.024 334.629L331.511 319.829C337.488 316.306 347.331 316.306 353.307 319.829L377.388 333.748L376.861 334.1L377.916 334.805L378.443 334.453L401.997 348.371ZM352.428 388.542L400.942 360.352C406.391 357.181 406.215 352.071 400.942 348.9L352.077 320.71C346.628 317.539 337.839 317.539 332.39 320.71L283.877 348.9C278.428 352.071 278.604 357.181 283.877 360.352L332.742 388.542C338.367 391.713 347.155 391.713 352.428 388.542Z" fill="url(#paint19_linear)"/>
<path d="M307.605 374.623L308.66 375.328L308.133 375.68L237.296 416.908C236.944 416.732 236.769 416.379 236.417 416.203L307.078 374.976L307.605 374.623Z" fill="url(#paint20_linear)"/>
<path d="M173.84 323.882L173.313 324.058L153.802 335.51L153.274 335.686L152.044 335.157L152.747 334.805L172.082 323.529L172.609 323.177L173.84 323.882Z" fill="url(#paint21_linear)"/>
<path d="M12.4799 288.116C15.1165 289.702 14.9408 292.344 12.3042 293.93C11.9526 294.106 11.6011 294.282 11.0737 294.459C8.26136 295.516 4.57011 295.339 2.10928 293.93C-0.703094 292.344 -0.703094 289.701 2.10928 287.94C4.57011 286.53 8.61291 286.354 11.4253 287.411C11.7768 287.587 11.9526 287.763 12.3042 287.763C12.3042 287.94 12.3042 288.116 12.4799 288.116ZM2.98815 293.225C5.27321 294.459 8.78868 294.459 11.0737 293.225C13.3588 291.992 13.3588 289.878 11.0737 288.468C8.78868 287.235 5.27321 287.235 2.98815 288.468C0.703095 289.878 0.878868 291.992 2.98815 293.225Z" fill="url(#paint22_linear)"/>
<path d="M11.0738 288.644C13.3588 289.878 13.3588 291.992 11.0738 293.401C8.78874 294.635 5.27326 294.635 2.98821 293.401C0.70315 292.168 0.70315 290.054 2.98821 288.644C5.27326 287.235 8.78874 287.235 11.0738 288.644Z" fill="url(#paint23_linear)"/>
<path d="M83.1404 334.981L84.0193 335.51L82.9646 336.215L82.0858 335.686L10.8975 294.459C11.249 294.282 11.7763 294.106 12.1279 293.93L83.1404 334.981Z" fill="url(#paint24_linear)"/>
</g>
<g opacity="0.8">
<path fill-rule="evenodd" clip-rule="evenodd" d="M340.393 266.07V276.785C340.393 278.759 338.331 281.3 335.811 283.19V283.29L335.019 283.753C334.863 283.857 334.706 283.959 334.548 284.058V284.028L240.751 338.777V338.586C235.03 341.99 225.794 342.206 219.627 339.234L219.634 339.37L122.593 283.29V283.231C119.976 281.498 117.82 278.929 117.82 276.785V266.07C117.82 268.139 120.055 270.874 122.731 272.655L219.063 327.96L219.077 328.241C225.233 331.502 234.857 331.378 240.751 327.871V327.871L334.548 273.31V273.206C337.602 271.292 340.393 268.366 340.393 266.07Z" fill="url(#paint25_linear)"/>
<path d="M335.811 259.565C341.919 263.2 342.11 268.94 335.811 272.576L240.75 327.871C234.642 331.506 224.525 331.506 218.416 327.871L122.783 272.576C116.675 268.94 116.484 263.2 122.783 259.565L217.844 204.27C223.952 200.634 234.069 200.634 240.177 204.27L335.811 259.565Z" fill="url(#paint26_linear)"/>
<path d="M238.269 203.313V214.028C232.924 210.966 224.143 210.966 218.607 214.028V203.313C224.143 200.06 232.924 200.06 238.269 203.313Z" fill="#CCD3E2"/>
<path d="M318.441 249.616V260.33L238.27 214.028V203.313L318.441 249.616Z" fill="#CCD3E2"/>
<path d="M322.451 255.356V266.07C322.451 263.966 321.115 261.861 318.442 260.33V249.616C321.115 251.146 322.451 253.251 322.451 255.356Z" fill="#CCD3E2"/>
<path d="M135.191 266.07V255.356C135.191 253.251 136.528 251.338 139.2 249.616V260.33C136.528 261.861 135.191 263.966 135.191 266.07Z" fill="#CCD3E2"/>
<path d="M326.459 255.356V266.07C326.459 268.749 324.741 271.236 321.305 273.341V262.626C324.741 260.522 326.459 258.034 326.459 255.356Z" fill="#CCD3E2"/>
<path d="M131.183 266.07V255.356C131.183 258.034 132.901 260.713 136.527 262.818V273.532C132.901 271.428 131.183 268.749 131.183 266.07Z" fill="#CCD3E2"/>
<path d="M321.113 247.894C328.176 251.912 328.176 258.417 321.113 262.435L241.514 308.738C234.642 312.756 223.189 312.756 216.317 308.738L136.146 262.435C129.083 258.417 129.083 251.912 136.146 247.894L215.745 201.591C222.617 197.573 234.07 197.573 240.942 201.591L321.113 247.894ZM238.842 307.398L318.441 261.096C323.786 258.034 323.786 252.868 318.441 249.807L238.269 203.504C232.924 200.443 224.144 200.443 218.608 203.504L139.2 249.616C133.855 252.677 133.855 257.843 139.2 260.904L219.372 307.207C224.716 310.46 233.497 310.46 238.842 307.398Z" fill="white"/>
<path d="M218.799 203.313L218.608 214.028L139.2 260.33V249.616L218.799 203.313Z" fill="#CCD3E2"/>
<path d="M321.304 262.626V273.341L241.705 319.644V308.929L321.304 262.626Z" fill="#CCD3E2"/>
<path d="M216.509 308.929V319.644L136.337 273.341V262.626L216.509 308.929Z" fill="#CCD3E2"/>
<path d="M241.705 308.929V319.644C234.833 323.662 223.38 323.662 216.508 319.644V308.929C223.571 312.947 234.833 312.947 241.705 308.929Z" fill="#CCD3E2"/>
<path d="M297.825 262.435V264.54C297.825 266.836 296.298 269.132 293.244 271.045V268.94C296.298 267.218 297.825 264.922 297.825 262.435Z" fill="#CCD3E2"/>
<path d="M159.815 264.54V262.435C159.815 264.731 161.342 267.218 164.397 268.94V271.045C161.342 269.323 159.815 267.027 159.815 264.54Z" fill="#CCD3E2"/>
<path d="M293.244 268.94V271.045L240.178 302.041V299.745L293.244 268.94Z" fill="#CCD3E2"/>
<path d="M217.845 299.745V302.041L164.588 271.045V268.94L217.845 299.745Z" fill="#CCD3E2"/>
<path d="M240.178 299.745V301.85C234.07 305.485 223.953 305.485 217.845 301.85V299.745C223.953 303.38 234.07 303.38 240.178 299.745Z" fill="#CCD3E2"/>
<path d="M293.055 255.93C299.164 259.565 299.355 265.305 293.055 268.94L240.18 299.745C234.072 303.38 223.955 303.38 217.847 299.745L164.59 268.94C158.481 265.305 158.29 259.565 164.59 255.93L217.465 225.125C223.573 221.49 233.69 221.49 239.798 225.125L293.055 255.93Z" fill="white"/>
<path d="M268.049 338.012V341.264L258.695 346.622V343.369L268.049 338.012Z" fill="url(#paint27_linear)"/>
<path d="M258.695 343.369V346.622L242.852 337.438V334.185L258.695 343.369Z" fill="url(#paint28_linear)"/>
<path d="M268.048 338.012L258.695 343.369L242.852 334.185L252.205 328.828L268.048 338.012Z" fill="url(#paint29_linear)"/>
<path d="M287.327 326.723V329.976L277.974 335.333V332.08L287.327 326.723Z" fill="url(#paint30_linear)"/>
<path d="M277.974 332.08V335.333L262.131 326.149V322.896L277.974 332.08Z" fill="url(#paint31_linear)"/>
<path d="M287.328 326.723L277.974 332.08L262.131 322.896L271.484 317.539L287.328 326.723Z" fill="url(#paint32_linear)"/>
<path d="M309.28 313.903V317.156L299.927 322.513V319.261L309.28 313.903Z" fill="url(#paint33_linear)"/>
<path d="M299.926 319.261V322.513L284.083 313.33V310.077L299.926 319.261Z" fill="url(#paint34_linear)"/>
<path d="M309.28 313.904L299.926 319.261L284.083 310.077L293.436 304.72L309.28 313.904Z" fill="url(#paint35_linear)"/>
<path d="M330.276 301.658V304.911L320.923 310.268L321.114 307.016L330.276 301.658Z" fill="url(#paint36_linear)"/>
<path d="M321.114 307.016L320.923 310.268L305.271 301.084V297.832L321.114 307.016Z" fill="url(#paint37_linear)"/>
<path d="M330.276 301.658L321.114 307.016L305.271 297.832L314.433 292.474L330.276 301.658Z" fill="url(#paint38_linear)"/>
<path d="M350.508 289.796V293.048L341.346 298.406V295.153L350.508 289.796Z" fill="url(#paint39_linear)"/>
<path d="M341.346 295.153V298.406L325.503 289.222V286.16L341.346 295.153Z" fill="url(#paint40_linear)"/>
<path d="M350.51 289.796L341.347 295.153L325.504 286.16L334.666 280.612L350.51 289.796Z" fill="url(#paint41_linear)"/>
<path d="M193.221 339.351V342.603L202.574 347.961V344.708L193.221 339.351Z" fill="url(#paint42_linear)"/>
<path d="M202.575 344.708V347.961L218.419 338.777V335.524L202.575 344.708Z" fill="url(#paint43_linear)"/>
<path d="M193.221 339.351L202.574 344.708L218.418 335.524L209.064 330.167L193.221 339.351Z" fill="url(#paint44_linear)"/>
<path d="M173.941 328.062V331.315L183.295 336.672V333.419L173.941 328.062Z" fill="url(#paint45_linear)"/>
<path d="M183.296 333.42V336.672L199.139 327.488V324.236L183.296 333.42Z" fill="url(#paint46_linear)"/>
<path d="M173.941 328.062L183.295 333.42L199.138 324.236L189.785 318.878L173.941 328.062Z" fill="url(#paint47_linear)"/>
<path d="M151.989 315.243V318.496L161.343 323.853V320.6L151.989 315.243Z" fill="url(#paint48_linear)"/>
<path d="M161.342 320.6V323.853L177.185 314.669V311.416L161.342 320.6Z" fill="url(#paint49_linear)"/>
<path d="M151.988 315.243L161.342 320.6L177.185 311.416L167.832 306.059L151.988 315.243Z" fill="url(#paint50_linear)"/>
<path d="M130.992 302.997V306.25L140.155 311.608V308.355L130.992 302.997Z" fill="url(#paint51_linear)"/>
<path d="M140.154 308.355V311.608L155.998 302.424V299.171L140.154 308.355Z" fill="url(#paint52_linear)"/>
<path d="M130.992 302.998L140.155 308.355L155.998 299.171L146.645 293.814L130.992 302.998Z" fill="url(#paint53_linear)"/>
<path d="M110.567 291.135V294.388L119.921 299.745V296.492L110.567 291.135Z" fill="url(#paint54_linear)"/>
<path d="M119.921 296.492V299.745L135.764 290.752V287.5L119.921 296.492Z" fill="url(#paint55_linear)"/>
<path d="M110.567 291.135L119.921 296.492L135.764 287.5L126.411 281.951L110.567 291.135Z" fill="url(#paint56_linear)"/>
</g>
<path opacity="0.8" d="M155.465 260.842L178.371 275.419L161.712 253.554L155.465 260.842Z" fill="#21A6C3"/>
<path opacity="0.8" d="M271.121 207.111C306.229 157.123 311.423 100.053 282.547 79.6405C253.671 59.2285 201.943 83.3897 166.834 133.378C131.726 183.367 126.532 240.437 155.409 260.849C184.285 281.261 236.012 257.308 271.121 207.111Z" fill="#21A6C3"/>
<path fill-rule="evenodd" clip-rule="evenodd" d="M215.854 87.5882L218.978 85.714C219.082 85.714 219.134 85.662 219.186 85.6099C219.238 85.5579 219.29 85.5058 219.394 85.5058C219.706 85.2976 220.071 85.0893 220.435 84.8811C220.8 84.6728 221.164 84.4646 221.476 84.2564C224.184 82.7987 226.891 81.341 229.806 80.0916C230.014 79.9875 230.274 79.8834 230.535 79.7793L230.535 79.7793L230.535 79.7792C230.795 79.6751 231.055 79.571 231.264 79.4669C231.423 79.3874 231.551 79.3382 231.661 79.2962C231.839 79.2283 231.968 79.1791 232.097 79.0504C232.409 78.9463 232.773 78.7901 233.138 78.6339C233.502 78.4778 233.867 78.3216 234.179 78.2175C235.012 77.801 235.845 77.5928 236.678 77.3845C237.128 77.2345 237.573 77.0846 238.015 76.9358L238.015 76.9358C240.641 76.052 243.137 75.2122 245.632 74.6774C246.881 74.261 248.131 74.0527 249.38 73.8445C250.838 73.6362 252.296 73.428 253.545 73.2198C255.836 72.595 258.126 72.3868 260.209 72.3868C261.666 72.3868 263.124 72.3868 264.373 72.595C266.456 72.8033 268.33 73.0115 270.204 73.428C275.618 74.4692 280.408 76.5516 284.781 79.6751L304.62 93.7916C300.65 91.1567 296.099 89.3216 291.236 88.4211C289.778 88.0047 288.113 87.7964 286.447 87.5882H285.405C283.115 87.3799 281.032 87.3799 278.742 87.5882C276.035 87.7964 273.328 88.0047 270.412 88.6294C269.163 88.8376 267.914 89.0458 266.664 89.4623C264.79 89.8788 262.708 90.5035 260.833 91.1282C259.376 91.5447 257.71 92.1694 256.252 92.7941C256.044 92.7941 255.627 93.0024 255.419 93.2106C254.899 93.4188 254.43 93.627 253.962 93.8353L253.962 93.8353C253.493 94.0436 253.024 94.2518 252.504 94.46C252.296 94.5641 252.035 94.6682 251.775 94.7724L251.775 94.7724C251.515 94.8765 251.254 94.9806 251.046 95.0847C248.339 96.3342 245.632 97.5836 243.133 99.2495C243.133 99.2495 242.925 99.2495 242.925 99.4577C242.604 99.6181 242.283 99.8094 241.951 100.008L241.951 100.008C241.419 100.325 240.858 100.659 240.218 100.915C240.114 101.02 239.958 101.124 239.801 101.228C239.645 101.332 239.489 101.436 239.385 101.54C238.448 102.061 237.563 102.633 236.678 103.206L236.678 103.206C235.793 103.779 234.908 104.351 233.971 104.872L233.49 104.589C233.235 104.761 232.979 104.92 232.723 105.08C232.307 105.341 231.89 105.601 231.474 105.913C231.057 106.226 230.641 106.486 230.224 106.746C229.808 107.006 229.391 107.267 228.975 107.579C228.559 107.787 228.35 107.996 228.142 108.204L228.142 108.204L225.018 110.703C224.394 111.223 223.769 111.692 223.144 112.16C222.52 112.629 221.895 113.097 221.27 113.618C220.437 114.243 219.813 114.867 219.188 115.492L219.188 115.492C217.938 116.533 216.481 117.783 215.231 119.032C214.711 119.449 214.242 119.917 213.774 120.386C213.305 120.854 212.837 121.323 212.316 121.739L211.899 122.156L209.817 124.238C207.735 126.32 205.652 128.611 203.778 130.693C203.699 130.773 203.65 130.853 203.608 130.921C203.54 131.03 203.49 131.11 203.362 131.11C203.049 131.422 202.737 131.787 202.425 132.151C202.112 132.516 201.8 132.88 201.488 133.192L201.279 133.401C199.197 135.691 197.323 138.19 195.449 140.689C195.136 141.001 194.876 141.366 194.616 141.73C194.355 142.095 194.095 142.459 193.783 142.771C193.783 142.771 193.783 142.98 193.575 142.98C193.158 143.5 192.794 144.021 192.429 144.541C192.065 145.062 191.7 145.583 191.284 146.103C190.763 146.832 190.243 147.613 189.722 148.394C189.202 149.175 188.681 149.955 188.16 150.684C187.848 151.101 187.588 151.465 187.327 151.83C187.067 152.194 186.807 152.558 186.494 152.975C185.87 154.016 185.245 155.057 184.412 156.099L182.538 159.222C182.121 159.847 181.705 160.471 181.497 161.096C181.08 161.929 180.664 162.762 180.039 163.387C179.188 164.805 178.434 166.224 177.644 167.708C177.275 168.403 176.897 169.112 176.499 169.842C176.391 170.057 176.284 170.259 176.18 170.453C175.881 171.012 175.612 171.515 175.458 172.133C175.25 172.549 175.041 172.966 174.833 173.174C174.625 173.59 174.417 174.007 174.208 174.632C172.751 177.547 171.501 180.462 170.252 183.586C170.252 183.982 170.168 184.294 170.107 184.523C170.072 184.655 170.044 184.759 170.044 184.835C169.94 185.148 169.783 185.46 169.627 185.772C169.471 186.085 169.315 186.397 169.211 186.709C169.107 187.022 169.002 187.282 168.898 187.542C168.794 187.803 168.69 188.063 168.586 188.375C167.79 190.365 166.994 192.545 166.38 194.552L166.503 194.623C166.399 194.831 166.347 195.039 166.295 195.247C166.243 195.456 166.191 195.664 166.086 195.872C165.982 196.288 165.826 196.757 165.67 197.226C165.514 197.694 165.358 198.163 165.254 198.579C165.149 198.787 165.097 198.996 165.045 199.204C164.993 199.412 164.941 199.62 164.837 199.829C164.629 200.453 164.473 201.078 164.316 201.703C164.16 202.327 164.004 202.952 163.796 203.577L162.546 208.575C162.442 209.095 162.338 209.564 162.234 210.032C162.13 210.501 162.026 210.969 161.922 211.49C161.827 212.15 161.69 212.81 161.549 213.49L161.549 213.49C161.379 214.311 161.203 215.16 161.089 216.071C160.985 216.696 160.881 217.373 160.776 218.049C160.672 218.726 160.568 219.403 160.464 220.028C160.464 220.34 160.412 220.704 160.36 221.069C160.308 221.433 160.256 221.798 160.256 222.11V222.318C160.256 222.839 160.204 223.359 160.152 223.88C160.1 224.401 160.048 224.921 160.048 225.442C159.839 228.149 159.839 231.064 159.839 233.563C159.839 234.813 159.839 235.854 160.048 237.103V237.936C160.048 238.353 160.1 238.821 160.152 239.29C160.204 239.758 160.256 240.227 160.256 240.643C160.881 245.433 161.713 249.806 162.963 253.762C163.042 253.921 163.092 254.05 163.134 254.16C163.202 254.338 163.251 254.466 163.379 254.595C164.004 256.261 164.629 257.719 165.254 259.176V259.385C168.377 265.84 172.542 271.046 177.748 275.002L156.508 260.009C152.551 257.094 149.219 253.137 146.512 248.764C145.679 247.515 145.054 246.266 144.43 244.808C144.187 244.444 144.015 244.009 143.832 243.545C143.7 243.213 143.562 242.865 143.389 242.517C143.136 242.013 142.961 241.509 142.769 240.958C142.644 240.599 142.512 240.221 142.347 239.81C140.89 235.645 139.849 231.064 139.224 226.067V225.858C139.016 224.609 139.016 223.568 139.016 222.318V221.694C138.807 218.153 138.807 214.613 139.016 210.657C139.016 210.24 139.068 209.772 139.12 209.303C139.172 208.835 139.224 208.366 139.224 207.95V207.533C139.328 206.909 139.38 206.336 139.432 205.763C139.484 205.191 139.536 204.618 139.64 203.993C139.848 202.744 140.057 201.547 140.265 200.35L140.265 200.349C140.473 199.152 140.681 197.954 140.89 196.705C140.994 196.184 141.098 195.716 141.202 195.247C141.306 194.779 141.41 194.31 141.514 193.79L142.139 191.291C142.347 190.041 142.764 188.792 143.18 187.543C143.389 186.918 143.545 186.293 143.701 185.668C143.857 185.044 144.013 184.419 144.222 183.794C144.265 183.664 144.308 183.543 144.35 183.427C144.472 183.086 144.578 182.79 144.619 182.444L144.43 182.336C144.639 181.92 144.847 181.504 144.847 181.087C145.159 180.15 145.472 179.265 145.784 178.38C146.096 177.495 146.409 176.61 146.721 175.673C146.929 175.048 147.138 174.475 147.346 173.903C147.554 173.33 147.762 172.758 147.97 172.133C147.97 172.044 147.97 171.993 147.986 171.948C148.008 171.887 148.059 171.836 148.179 171.716C148.387 171.3 148.543 170.831 148.699 170.363C148.855 169.894 149.012 169.426 149.22 169.009C150.261 166.302 151.511 163.595 152.76 160.888C152.864 160.784 152.916 160.628 152.968 160.472C153.02 160.315 153.072 160.159 153.176 160.055L154.426 157.556C155.884 154.641 157.341 151.726 159.007 149.018C159.215 148.706 159.424 148.342 159.632 147.977C159.84 147.613 160.048 147.248 160.257 146.936C160.257 146.936 160.257 146.728 160.465 146.728C160.64 146.436 160.814 146.161 160.985 145.893C161.423 145.204 161.831 144.562 162.131 143.812C162.416 143.357 162.7 142.885 162.99 142.407C163.757 141.137 164.555 139.817 165.462 138.607C165.698 138.293 165.903 137.979 166.102 137.677C166.43 137.176 166.739 136.705 167.128 136.316L169.002 133.817C169.627 132.776 170.46 131.735 171.293 130.693C171.71 129.861 172.334 129.236 172.959 128.611L172.959 128.611C173.089 128.437 173.211 128.273 173.327 128.115C173.767 127.517 174.131 127.023 174.625 126.529C174.772 126.339 174.917 126.152 175.061 125.967C176.339 124.318 177.5 122.82 178.998 121.323C179.31 121.01 179.623 120.646 179.935 120.282C180.247 119.917 180.56 119.553 180.872 119.24C180.976 119.136 181.08 118.98 181.184 118.824C181.289 118.668 181.393 118.512 181.497 118.407C181.913 117.991 182.33 117.574 182.746 116.95C184.829 114.451 187.119 112.16 189.41 109.87L190.035 109.245L191.284 107.996C191.416 107.864 191.569 107.732 191.729 107.593C192.075 107.294 192.457 106.965 192.742 106.538C194.616 104.664 196.49 102.998 198.572 101.332C198.885 101.02 199.249 100.707 199.613 100.395C199.978 100.083 200.342 99.7702 200.655 99.4578C201.279 99.0413 201.696 98.6249 202.321 98.0001L205.444 95.5013C205.965 95.0848 206.485 94.7204 207.006 94.356C207.527 93.9916 208.047 93.6271 208.568 93.2107C208.776 92.3777 209.609 91.753 210.442 91.1283C210.442 91.1283 210.65 91.1283 210.65 90.9201L210.806 91.0094C212.42 89.7998 214.039 88.5964 215.854 87.5882ZM306.438 95.0847C305.847 94.6345 305.24 94.2033 304.62 93.7916L306.438 95.0847Z" fill="url(#paint57_linear)"/>
<path d="M294.57 221.902C329.762 171.925 334.968 114.867 306.023 94.4601C277.078 74.0528 225.226 98.2084 190.034 148.185C154.842 198.163 149.636 255.22 178.581 275.627C207.526 296.034 259.377 272.087 294.57 221.902Z" fill="url(#paint58_linear)"/>
<path d="M202.945 273.545C211.067 273.545 220.229 271.254 229.808 266.881C272.289 247.515 310.604 193.581 314.977 146.728C316.643 129.236 313.103 114.867 305.398 106.33C299.568 99.8743 291.655 96.7507 281.659 96.7507C273.538 96.7507 264.376 99.0413 254.797 103.414C212.316 122.78 174 176.714 169.627 223.568C167.962 240.851 171.293 255.22 179.206 263.966C185.037 270.421 192.95 273.545 202.945 273.545Z" fill="#141413"/>
<path d="M202.945 273.545C211.067 273.545 220.229 271.254 229.808 266.881C272.289 247.515 310.604 193.581 314.977 146.728C316.643 129.236 313.103 114.867 305.398 106.33C299.568 99.8743 291.655 96.7507 281.659 96.7507C273.538 96.7507 264.376 99.0413 254.797 103.414C212.316 122.78 174 176.714 169.627 223.568C167.962 240.851 171.293 255.22 179.206 263.966C185.037 270.421 192.95 273.545 202.945 273.545Z" fill="url(#paint59_linear)" fill-opacity="0.22"/>
<path d="M221.686 262.925C231.057 258.552 240.22 252.721 248.757 245.641L256.462 250.014C247.924 257.094 238.97 262.716 229.808 267.089C220.229 271.462 211.066 273.753 202.945 273.753C195.448 273.753 188.993 271.879 183.787 268.131C187.119 269.172 190.867 269.797 194.824 269.797C202.945 269.588 211.899 267.298 221.686 262.925Z" fill="#2395AE" fill-opacity="0.7"/>
<path d="M306.854 142.771C308.52 125.279 304.98 110.911 297.275 102.373C295.818 100.916 294.36 99.4579 292.902 98.4167C297.9 99.8744 302.065 102.582 305.397 106.538C313.31 115.284 316.641 129.652 314.976 146.936C314.559 150.268 314.143 153.808 313.518 157.14L305.397 152.35C306.021 149.227 306.438 145.895 306.854 142.771Z" fill="#2395AE" fill-opacity="0.7"/>
<path d="M305.398 152.35L313.519 156.931C307.063 190.874 284.366 226.899 256.462 249.805L248.757 245.432C276.661 222.318 299.15 186.293 305.398 152.35Z" fill="#2395AE" fill-opacity="0.7"/>
<path d="M256.47 215.388L246.187 209.809L241.454 201.301L251.737 206.88L256.47 215.388Z" fill="#146774"/>
<path d="M259.824 186.172L249.541 180.538L259.824 186.172Z" fill="#197F90"/>
<path d="M259.937 186.229L249.654 180.594L250.161 180.763L260.444 186.398C260.268 186.354 260.097 186.288 259.937 186.201" fill="#1A8394"/>
<path d="M260.443 186.426L250.16 180.792C250.542 180.863 250.934 180.863 251.315 180.792C251.775 180.716 252.221 180.574 252.639 180.369L262.894 186.003C262.473 186.195 262.028 186.328 261.57 186.398C261.198 186.469 260.816 186.469 260.443 186.398" fill="#1A8799"/>
<path d="M262.894 186.06L252.639 180.425C253 180.254 253.349 180.056 253.681 179.834L263.964 185.468C263.623 185.7 263.265 185.907 262.894 186.088" fill="#1A8394"/>
<path d="M264.023 185.412L253.74 179.777C254.087 179.548 254.417 179.294 254.726 179.016L265.009 184.651L264.023 185.44" fill="#197F90"/>
<path d="M265.148 184.623L254.865 178.988C255.203 178.678 255.513 178.34 255.823 178.002L266.106 183.637C265.796 184.003 265.458 184.313 265.148 184.623Z" fill="#187B8B"/>
<path d="M265.966 183.637L255.683 178.002C256.021 177.608 256.359 177.185 256.697 176.706L266.952 182.341C266.646 182.781 266.317 183.204 265.966 183.609" fill="#177787"/>
<path d="M266.952 182.369L256.697 176.734C257.102 176.158 257.469 175.556 257.796 174.931L268.079 180.566C267.743 181.2 267.367 181.812 266.952 182.397" fill="#167382"/>
<path d="M267.965 180.538L257.682 174.903C258.19 173.949 258.633 172.96 259.006 171.945L269.289 177.58C268.915 178.594 268.472 179.583 267.965 180.538Z" fill="#166F7D"/>
<path d="M269.404 177.58L259.121 171.945C260.277 168.687 260.886 165.26 260.924 161.803L271.207 167.437C271.172 170.895 270.563 174.322 269.404 177.58Z" fill="#156B79"/>
<path d="M251.737 206.88L241.454 201.301L241.679 189.722L251.934 195.301L251.737 206.88Z" fill="#146977"/>
<path d="M274.697 151.125L264.414 145.547L274.697 151.125Z" fill="#156B79"/>
<path d="M271.206 167.437L260.923 161.803C260.923 156.873 259.993 153.717 258.105 152.731L268.389 158.366C270.192 159.352 271.206 162.535 271.206 167.437Z" fill="#156B79"/>
<path d="M242.469 200.569L232.214 194.962L232.918 194.483L243.201 200.062L242.469 200.569Z" fill="#1B8C9F"/>
<path d="M243.2 200.062L232.917 194.483L232.945 194.455L243.228 200.062H243.2Z" fill="#1A8394"/>
<path d="M243.227 200.062L232.944 194.427C233.239 194.229 233.522 194.013 233.79 193.779L244.044 199.414C243.786 199.656 243.513 199.881 243.227 200.09" fill="#197F90"/>
<path d="M244.043 199.386L233.788 193.751L234.661 192.85L244.945 198.484C244.635 198.822 244.353 199.104 244.043 199.386Z" fill="#187B8B"/>
<path d="M244.946 198.428L234.663 192.793C235.033 192.37 235.381 191.928 235.705 191.469L245.96 197.104C245.652 197.567 245.313 198.009 244.946 198.428Z" fill="#177787"/>
<path d="M245.962 197.16L235.707 191.525C236.155 190.861 236.569 190.175 236.947 189.469L247.23 195.103C246.853 195.807 246.43 196.485 245.962 197.132" fill="#167382"/>
<path d="M247.228 195.131L236.945 189.497C237.54 188.388 238.057 187.24 238.495 186.06L248.778 191.694C248.34 192.883 247.823 194.041 247.228 195.16" fill="#166F7D"/>
<path d="M248.778 191.666L238.495 186.032C239.617 183.007 240.236 179.819 240.326 176.594L250.609 182.228C250.51 185.452 249.892 188.639 248.778 191.666Z" fill="#156B79"/>
<path d="M250.609 182.228L240.326 176.65L240.383 174.622L250.666 180.2L250.609 182.228Z" fill="#156977"/>
<path d="M238.524 201.076L228.241 195.61H228.523L238.778 201.245" fill="#197F90"/>
<path d="M238.637 201.245L228.522 195.61L229.086 195.835L239.369 201.47L238.637 201.245Z" fill="#1A8394"/>
<path d="M239.228 201.245L228.945 195.61C229.346 195.681 229.756 195.681 230.157 195.61C230.549 195.671 230.948 195.671 231.34 195.61L241.623 201.245C241.248 201.423 240.85 201.546 240.44 201.611C240.041 201.699 239.627 201.699 239.228 201.611" fill="#1A8799"/>
<path d="M241.622 201.048L231.339 195.61C231.633 195.462 231.915 195.293 232.184 195.103L242.467 200.738C242.204 200.929 241.921 201.09 241.622 201.217" fill="#1A8394"/>
<path d="M236.074 209.697L225.791 204.062C224.864 203.526 224.073 202.784 223.48 201.893L233.764 207.527C234.35 208.417 235.143 209.151 236.074 209.668" fill="#156B79"/>
<path d="M253.681 166.93L243.397 161.296C243.736 160.141 243.989 159.465 243.989 159.436L254.272 165.071C254.272 165.071 254.019 165.775 253.681 166.93Z" fill="#156B79"/>
<path d="M254.271 165.071L243.988 159.436C244.129 158.986 244.298 158.535 244.467 158.084L254.75 163.719C254.581 164.169 254.412 164.62 254.271 165.071Z" fill="#156B79"/>
<path d="M254.751 163.719L244.468 158.084C245.133 156.279 245.914 154.52 246.806 152.816L257.089 158.45C256.185 160.149 255.404 161.909 254.751 163.719Z" fill="#166F7D"/>
<path d="M257.09 158.45L246.807 152.816C247.397 151.715 248.056 150.652 248.779 149.632L259.034 155.267C258.326 156.291 257.677 157.353 257.09 158.45Z" fill="#167382"/>
<path d="M259.032 155.267L248.777 149.632C249.313 148.838 249.906 148.085 250.552 147.378L260.807 153.013C260.178 153.734 259.586 154.486 259.032 155.267Z" fill="#177787"/>
<path d="M260.807 153.013L250.552 147.378C251.098 146.743 251.681 146.141 252.298 145.575L262.582 151.21C261.948 151.759 261.355 152.352 260.807 152.985" fill="#187B8B"/>
<path d="M262.583 151.238L252.3 145.604C252.92 145.078 253.568 144.571 254.244 144.082L264.499 149.717C263.823 150.175 263.182 150.684 262.583 151.238Z" fill="#197F90"/>
<path d="M264.496 149.717L254.241 144.082C254.887 143.646 255.565 143.26 256.27 142.927L266.525 148.562C265.832 148.911 265.164 149.307 264.524 149.745" fill="#1A8394"/>
<path d="M266.583 148.477L256.328 142.843C257.085 142.474 257.892 142.218 258.723 142.082C259.393 141.953 260.081 141.953 260.751 142.082L271.006 147.717C270.336 147.587 269.648 147.587 268.978 147.717C268.149 147.861 267.343 148.117 266.583 148.477Z" fill="#1A8799"/>
<path d="M271.006 147.717L260.751 142.082C261.053 142.165 261.345 142.278 261.624 142.42L271.907 148.055C271.619 147.912 271.317 147.799 271.006 147.717Z" fill="#1A8394"/>
<path d="M271.907 148.139L261.624 142.504H261.793L272.076 148.139H271.907Z" fill="#197F90"/>
<path d="M250.639 180.2L240.384 174.565C240.384 170.114 239.257 167.015 237.369 166.113L247.624 171.748C249.512 172.79 250.723 175.861 250.639 180.2Z" fill="#156B79"/>
<path d="M224.549 212.542L214.294 206.936L214.548 206.767L224.831 212.345L224.549 212.542Z" fill="#1B8C9F"/>
<path d="M224.834 212.345L214.551 206.767L214.579 206.738L224.834 212.345Z" fill="#1A8394"/>
<path d="M224.833 212.345L214.438 206.88C214.79 206.658 215.12 206.403 215.424 206.119L225.707 211.753C225.397 212.035 225.059 212.289 224.721 212.542" fill="#197F90"/>
<path d="M225.706 211.556L215.423 205.922C215.7 205.673 215.963 205.41 216.212 205.133L226.495 210.767C226.246 211.044 225.983 211.308 225.706 211.556Z" fill="#187B8B"/>
<path d="M226.608 210.767L216.325 205.133C216.585 204.835 216.829 204.525 217.058 204.203L227.313 209.838C227.094 210.15 226.858 210.451 226.608 210.739" fill="#177787"/>
<path d="M227.312 209.866L217.057 204.231C217.305 203.87 217.53 203.493 217.733 203.104L228.016 208.739C227.79 209.133 227.565 209.5 227.312 209.866Z" fill="#167382"/>
<path d="M228.016 208.739L217.733 203.104C218.031 202.562 218.285 201.996 218.494 201.414L228.777 207.048C228.558 207.627 228.304 208.191 228.016 208.739Z" fill="#166F7D"/>
<path d="M228.778 207.048L218.495 201.414C219.262 199.185 219.643 196.841 219.622 194.483L229.905 200.118C229.907 202.474 229.527 204.815 228.778 207.048Z" fill="#156B79"/>
<path d="M221.422 213.246L211.139 207.612L221.422 213.246Z" fill="#197F90"/>
<path d="M221.476 213.274L211.193 207.64H211.503L221.786 213.274H221.476Z" fill="#1A8394"/>
<path d="M221.789 213.387L211.506 207.753C211.758 207.795 212.015 207.795 212.267 207.753C212.631 207.701 212.983 207.586 213.309 207.415L223.564 213.049C223.245 213.209 222.903 213.313 222.55 213.359C222.299 213.417 222.039 213.417 221.789 213.359" fill="#1A8799"/>
<path d="M223.562 213.106L213.307 207.471C213.646 207.32 213.967 207.131 214.265 206.908L224.548 212.542C224.234 212.756 223.904 212.944 223.562 213.106Z" fill="#1A8394"/>
<path d="M243.791 163.549L233.536 157.915C233.94 157.648 234.364 157.412 234.804 157.21L245.087 162.845C244.641 163.063 244.208 163.307 243.791 163.577" fill="#1A8394"/>
<path d="M245.088 162.817L234.805 157.182C235.49 156.867 236.223 156.667 236.974 156.591C237.635 156.464 238.314 156.464 238.974 156.591L249.229 162.225C248.57 162.083 247.888 162.083 247.229 162.225C246.515 162.322 245.821 162.531 245.172 162.845" fill="#1A8799"/>
<path d="M249.146 162.282L238.891 156.647L239.82 156.985L250.103 162.62C249.801 162.457 249.479 162.334 249.146 162.254" fill="#1A8394"/>
<path d="M250.101 162.648L239.79 157.042H239.987L250.242 162.676H250.073" fill="#197F90"/>
<path d="M243.341 163.86L233.058 158.281L233.537 157.943L243.82 163.55L243.341 163.86Z" fill="#1B8C9F"/>
<path d="M235.736 174.002L225.481 168.367L226.411 166.508L236.694 172.142C236.384 172.762 236.046 173.382 235.736 174.03" fill="#166F7D"/>
<path d="M236.693 172.114L226.41 166.48C227.052 165.296 227.757 164.149 228.523 163.043L238.806 168.677C238.025 169.799 237.31 170.965 236.665 172.171" fill="#167382"/>
<path d="M238.835 168.621L228.523 163.042C229.087 162.254 229.679 161.493 230.27 160.817L240.553 166.451C239.962 167.128 239.37 167.86 238.807 168.649" fill="#177787"/>
<path d="M240.583 166.423L230.3 160.789C230.771 160.247 231.279 159.739 231.821 159.267L242.076 164.902C241.543 165.384 241.045 165.901 240.583 166.451" fill="#187B8B"/>
<path d="M242.076 164.874L231.821 159.239C232.215 158.878 232.629 158.539 233.061 158.225L243.316 163.859L242.076 164.874Z" fill="#197F90"/>
<path d="M230.325 176.96L220.042 171.382L225.508 167.635L235.791 173.241L230.325 176.96Z" fill="#1B8C9F"/>
<path d="M229.903 200.118L219.648 194.511L220.043 171.382L230.326 176.96L229.903 200.118Z" fill="#146977"/>
<path d="M277.008 164.113V164.338C276.921 166.864 276.638 169.379 276.163 171.861C275.769 174.058 275.318 175.918 274.98 177.213C274.642 178.509 274.304 179.383 274.304 179.411C272.599 185.585 268.967 191.054 263.936 195.019C263.093 195.596 262.13 195.971 261.119 196.117C259.604 196.235 258.084 195.973 256.696 195.357L256.442 215.331L251.737 206.879L251.935 195.3C251.737 195.751 251.568 196.23 251.399 196.625C249.703 201.438 246.71 205.689 242.75 208.908C241.712 209.654 240.517 210.155 239.257 210.373C238.166 210.489 237.066 210.284 236.09 209.784C235.114 209.283 234.305 208.509 233.763 207.556C232.369 212.981 229.157 217.764 224.663 221.107L224.41 221.276C223.203 222.18 221.806 222.797 220.325 223.079C216.465 223.783 214.437 219.895 214.437 212.176V210.936L214.859 187.609L220.071 183.862L219.677 207.02C219.677 211.556 220.522 213.697 222.494 213.416C223.221 213.289 223.907 212.99 224.494 212.542L224.776 212.345C228.044 210.091 229.734 206.016 229.847 200.118L230.241 176.96L235.707 173.241V174.002C237.393 170.068 239.991 166.592 243.286 163.86L243.764 163.55C244.771 162.862 245.915 162.401 247.117 162.197C248.035 162.065 248.972 162.178 249.833 162.524C250.694 162.871 251.448 163.438 252.019 164.169C252.697 165.024 253.248 165.973 253.653 166.987C253.991 165.832 254.217 165.184 254.245 165.127C255.936 158.993 259.562 153.569 264.584 149.66C265.884 148.69 267.387 148.026 268.979 147.717C270.162 147.59 271.353 147.855 272.371 148.471C273.389 149.087 274.177 150.019 274.614 151.125C275.48 152.508 276.091 154.035 276.417 155.633V156.168C276.842 158.51 277.041 160.888 277.008 163.268V164.113ZM250.639 180.2C250.639 174.368 248.638 170.875 245.708 171.297C244.975 171.416 244.28 171.705 243.68 172.142L242.976 172.621C239.031 175.439 235.679 183.412 235.566 190.511V192.54C235.566 198.343 237.538 201.837 240.468 201.414C241.2 201.29 241.894 201.001 242.497 200.569L243.229 200.062C247.145 197.385 250.498 189.328 250.639 182.228V180.2ZM271.205 167.438C271.205 161.099 269.571 157.662 266.697 158.056C265.873 158.211 265.093 158.548 264.415 159.042C260.189 161.859 257.287 168.931 257.118 177.073C257.118 183.383 258.668 186.877 261.57 186.454C262.436 186.307 263.256 185.96 263.964 185.44C268.19 182.623 271.064 175.298 271.205 167.438Z" fill="url(#paint60_linear)"/>
<path d="M214.748 187.609L204.465 182.003L209.93 178.284L220.185 183.862L214.748 187.609Z" fill="#1B8C9F"/>
<path fill-rule="evenodd" clip-rule="evenodd" d="M204.069 205.331L204.068 205.33L204.462 182.003L214.745 187.609L214.323 210.935L214.324 210.936V212.176L214.298 212.161C214.357 217.291 215.41 221.028 217.274 222.502L207.478 217.134C205.319 216.014 204.114 212.223 204.043 206.599L204.041 206.598L204.043 206.527C204.041 206.375 204.04 206.222 204.04 206.067L204.053 206.074L204.069 205.331ZM217.274 222.502L217.761 222.769V222.825C217.593 222.734 217.431 222.626 217.274 222.502Z" fill="#146977"/>
<path opacity="0.8" d="M131.177 257.634V0H326.643L326.452 257.634L321.298 260.979L246.471 305.176C233.098 313.785 224.605 313.313 212.303 305.176L136.331 260.979L131.177 257.634Z" fill="url(#paint61_linear)"/>
<defs>
<linearGradient id="paint0_linear" x1="87.3551" y1="378.291" x2="355.982" y2="213.515" gradientUnits="userSpaceOnUse">
<stop stop-color="#8DFFFF"/>
<stop offset="0.4945" stop-color="white"/>
<stop offset="1" stop-color="#98FFFF"/>
</linearGradient>
<linearGradient id="paint1_linear" x1="85.6851" y1="375.57" x2="354.312" y2="210.794" gradientUnits="userSpaceOnUse">
<stop stop-color="#8DFFFF"/>
<stop offset="0.4945" stop-color="white"/>
<stop offset="1" stop-color="#98FFFF"/>
</linearGradient>
<linearGradient id="paint2_linear" x1="28.9804" y1="283.128" x2="297.607" y2="118.352" gradientUnits="userSpaceOnUse">
<stop stop-color="#8DFFFF"/>
<stop offset="0.4945" stop-color="white"/>
<stop offset="1" stop-color="#98FFFF"/>
</linearGradient>
<linearGradient id="paint3_linear" x1="26.8982" y1="279.734" x2="295.525" y2="114.958" gradientUnits="userSpaceOnUse">
<stop stop-color="#8DFFFF"/>
<stop offset="0.4945" stop-color="white"/>
<stop offset="1" stop-color="#98FFFF"/>
</linearGradient>
<linearGradient id="paint4_linear" x1="27.928" y1="281.411" x2="296.554" y2="116.635" gradientUnits="userSpaceOnUse">
<stop stop-color="#8DFFFF"/>
<stop offset="0.4945" stop-color="white"/>
<stop offset="1" stop-color="#98FFFF"/>
</linearGradient>
<linearGradient id="paint5_linear" x1="88.3483" y1="379.912" x2="356.975" y2="215.137" gradientUnits="userSpaceOnUse">
<stop stop-color="#8DFFFF"/>
<stop offset="0.4945" stop-color="white"/>
<stop offset="1" stop-color="#98FFFF"/>
</linearGradient>
<linearGradient id="paint6_linear" x1="51.9119" y1="320.512" x2="320.539" y2="155.736" gradientUnits="userSpaceOnUse">
<stop stop-color="#8DFFFF"/>
<stop offset="0.4945" stop-color="white"/>
<stop offset="1" stop-color="#98FFFF"/>
</linearGradient>
<linearGradient id="paint7_linear" x1="29.9136" y1="284.65" x2="298.54" y2="119.874" gradientUnits="userSpaceOnUse">
<stop stop-color="#8DFFFF"/>
<stop offset="0.4945" stop-color="white"/>
<stop offset="1" stop-color="#98FFFF"/>
</linearGradient>
<linearGradient id="paint8_linear" x1="29.9136" y1="284.651" x2="298.54" y2="119.875" gradientUnits="userSpaceOnUse">
<stop stop-color="#8DFFFF"/>
<stop offset="0.4945" stop-color="white"/>
<stop offset="1" stop-color="#98FFFF"/>
</linearGradient>
<linearGradient id="paint9_linear" x1="51.5757" y1="319.964" x2="320.202" y2="155.189" gradientUnits="userSpaceOnUse">
<stop stop-color="#8DFFFF"/>
<stop offset="0.4945" stop-color="white"/>
<stop offset="1" stop-color="#98FFFF"/>
</linearGradient>
<linearGradient id="paint10_linear" x1="148.435" y1="477.865" x2="417.061" y2="313.089" gradientUnits="userSpaceOnUse">
<stop stop-color="#8DFFFF"/>
<stop offset="0.4945" stop-color="white"/>
<stop offset="1" stop-color="#98FFFF"/>
</linearGradient>
<linearGradient id="paint11_linear" x1="148.435" y1="477.865" x2="417.061" y2="313.089" gradientUnits="userSpaceOnUse">
<stop stop-color="#8DFFFF"/>
<stop offset="0.4945" stop-color="white"/>
<stop offset="1" stop-color="#98FFFF"/>
</linearGradient>
<linearGradient id="paint12_linear" x1="147.976" y1="477.119" x2="416.603" y2="312.343" gradientUnits="userSpaceOnUse">
<stop stop-color="#8DFFFF"/>
<stop offset="0.4945" stop-color="white"/>
<stop offset="1" stop-color="#98FFFF"/>
</linearGradient>
<linearGradient id="paint13_linear" x1="126.666" y1="442.376" x2="395.292" y2="277.601" gradientUnits="userSpaceOnUse">
<stop stop-color="#8DFFFF"/>
<stop offset="0.4945" stop-color="white"/>
<stop offset="1" stop-color="#98FFFF"/>
</linearGradient>
<linearGradient id="paint14_linear" x1="89.0231" y1="381.012" x2="357.65" y2="216.236" gradientUnits="userSpaceOnUse">
<stop stop-color="#8DFFFF"/>
<stop offset="0.4945" stop-color="white"/>
<stop offset="1" stop-color="#98FFFF"/>
</linearGradient>
<linearGradient id="paint15_linear" x1="144.96" y1="472.202" x2="413.587" y2="307.426" gradientUnits="userSpaceOnUse">
<stop stop-color="#8DFFFF"/>
<stop offset="0.4945" stop-color="white"/>
<stop offset="1" stop-color="#98FFFF"/>
</linearGradient>
<linearGradient id="paint16_linear" x1="123.301" y1="436.893" x2="391.928" y2="272.117" gradientUnits="userSpaceOnUse">
<stop stop-color="#8DFFFF"/>
<stop offset="0.4945" stop-color="white"/>
<stop offset="1" stop-color="#98FFFF"/>
</linearGradient>
<linearGradient id="paint17_linear" x1="144.958" y1="472.202" x2="413.585" y2="307.427" gradientUnits="userSpaceOnUse">
<stop stop-color="#8DFFFF"/>
<stop offset="0.4945" stop-color="white"/>
<stop offset="1" stop-color="#98FFFF"/>
</linearGradient>
<linearGradient id="paint18_linear" x1="122.766" y1="436.018" x2="391.393" y2="271.242" gradientUnits="userSpaceOnUse">
<stop stop-color="#8DFFFF"/>
<stop offset="0.4945" stop-color="white"/>
<stop offset="1" stop-color="#98FFFF"/>
</linearGradient>
<linearGradient id="paint19_linear" x1="146.804" y1="475.205" x2="415.43" y2="310.43" gradientUnits="userSpaceOnUse">
<stop stop-color="#8DFFFF"/>
<stop offset="0.4945" stop-color="white"/>
<stop offset="1" stop-color="#98FFFF"/>
</linearGradient>
<linearGradient id="paint20_linear" x1="145.895" y1="473.725" x2="414.521" y2="308.949" gradientUnits="userSpaceOnUse">
<stop stop-color="#8DFFFF"/>
<stop offset="0.4945" stop-color="white"/>
<stop offset="1" stop-color="#98FFFF"/>
</linearGradient>
<linearGradient id="paint21_linear" x1="86.3589" y1="376.669" x2="354.986" y2="211.894" gradientUnits="userSpaceOnUse">
<stop stop-color="#8DFFFF"/>
<stop offset="0.4945" stop-color="white"/>
<stop offset="1" stop-color="#98FFFF"/>
</linearGradient>
<linearGradient id="paint22_linear" x1="26.4409" y1="278.987" x2="295.067" y2="114.211" gradientUnits="userSpaceOnUse">
<stop stop-color="#8DFFFF"/>
<stop offset="0.4945" stop-color="white"/>
<stop offset="1" stop-color="#98FFFF"/>
</linearGradient>
<linearGradient id="paint23_linear" x1="26.441" y1="278.987" x2="295.068" y2="114.212" gradientUnits="userSpaceOnUse">
<stop stop-color="#8DFFFF"/>
<stop offset="0.4945" stop-color="white"/>
<stop offset="1" stop-color="#98FFFF"/>
</linearGradient>
<linearGradient id="paint24_linear" x1="48.2095" y1="314.476" x2="316.836" y2="149.701" gradientUnits="userSpaceOnUse">
<stop stop-color="#8DFFFF"/>
<stop offset="0.4945" stop-color="white"/>
<stop offset="1" stop-color="#98FFFF"/>
</linearGradient>
<linearGradient id="paint25_linear" x1="227.98" y1="239.348" x2="227.98" y2="341.312" gradientUnits="userSpaceOnUse">
<stop stop-color="#BFF3FF"/>
<stop offset="1" stop-color="#09667A"/>
</linearGradient>
<linearGradient id="paint26_linear" x1="117.934" y1="266.025" x2="340.373" y2="266.025" gradientUnits="userSpaceOnUse">
<stop stop-color="#2395AE"/>
<stop offset="1" stop-color="#C7D7FF"/>
</linearGradient>
<linearGradient id="paint27_linear" x1="263.325" y1="334.954" x2="263.325" y2="346.622" gradientUnits="userSpaceOnUse">
<stop stop-color="#BFF3FF"/>
<stop offset="1" stop-color="#09667A"/>
</linearGradient>
<linearGradient id="paint28_linear" x1="250.693" y1="329.768" x2="250.693" y2="346.622" gradientUnits="userSpaceOnUse">
<stop stop-color="#BFF3FF"/>
<stop offset="1" stop-color="#09667A"/>
</linearGradient>
<linearGradient id="paint29_linear" x1="255.322" y1="323.663" x2="255.322" y2="343.369" gradientUnits="userSpaceOnUse">
<stop stop-color="#BFF3FF"/>
<stop offset="1" stop-color="#09667A"/>
</linearGradient>
<linearGradient id="paint30_linear" x1="282.603" y1="323.665" x2="282.603" y2="335.333" gradientUnits="userSpaceOnUse">
<stop stop-color="#BFF3FF"/>
<stop offset="1" stop-color="#09667A"/>
</linearGradient>
<linearGradient id="paint31_linear" x1="269.972" y1="318.479" x2="269.972" y2="335.333" gradientUnits="userSpaceOnUse">
<stop stop-color="#BFF3FF"/>
<stop offset="1" stop-color="#09667A"/>
</linearGradient>
<linearGradient id="paint32_linear" x1="274.602" y1="312.374" x2="274.602" y2="332.08" gradientUnits="userSpaceOnUse">
<stop stop-color="#BFF3FF"/>
<stop offset="1" stop-color="#09667A"/>
</linearGradient>
<linearGradient id="paint33_linear" x1="304.556" y1="310.846" x2="304.556" y2="322.513" gradientUnits="userSpaceOnUse">
<stop stop-color="#BFF3FF"/>
<stop offset="1" stop-color="#09667A"/>
</linearGradient>
<linearGradient id="paint34_linear" x1="291.925" y1="305.66" x2="291.925" y2="322.513" gradientUnits="userSpaceOnUse">
<stop stop-color="#BFF3FF"/>
<stop offset="1" stop-color="#09667A"/>
</linearGradient>
<linearGradient id="paint35_linear" x1="296.554" y1="299.555" x2="296.554" y2="319.261" gradientUnits="userSpaceOnUse">
<stop stop-color="#BFF3FF"/>
<stop offset="1" stop-color="#09667A"/>
</linearGradient>
<linearGradient id="paint36_linear" x1="325.552" y1="298.6" x2="325.552" y2="310.268" gradientUnits="userSpaceOnUse">
<stop stop-color="#BFF3FF"/>
<stop offset="1" stop-color="#09667A"/>
</linearGradient>
<linearGradient id="paint37_linear" x1="313.112" y1="293.415" x2="313.112" y2="310.268" gradientUnits="userSpaceOnUse">
<stop stop-color="#BFF3FF"/>
<stop offset="1" stop-color="#09667A"/>
</linearGradient>
<linearGradient id="paint38_linear" x1="317.647" y1="287.31" x2="317.647" y2="307.016" gradientUnits="userSpaceOnUse">
<stop stop-color="#BFF3FF"/>
<stop offset="1" stop-color="#09667A"/>
</linearGradient>
<linearGradient id="paint39_linear" x1="345.881" y1="286.738" x2="345.881" y2="298.406" gradientUnits="userSpaceOnUse">
<stop stop-color="#BFF3FF"/>
<stop offset="1" stop-color="#09667A"/>
</linearGradient>
<linearGradient id="paint40_linear" x1="333.344" y1="281.811" x2="333.344" y2="298.406" gradientUnits="userSpaceOnUse">
<stop stop-color="#BFF3FF"/>
<stop offset="1" stop-color="#09667A"/>
</linearGradient>
<linearGradient id="paint41_linear" x1="337.88" y1="275.447" x2="337.88" y2="295.153" gradientUnits="userSpaceOnUse">
<stop stop-color="#BFF3FF"/>
<stop offset="1" stop-color="#09667A"/>
</linearGradient>
<linearGradient id="paint42_linear" x1="197.85" y1="336.293" x2="197.85" y2="347.961" gradientUnits="userSpaceOnUse">
<stop stop-color="#BFF3FF"/>
<stop offset="1" stop-color="#09667A"/>
</linearGradient>
<linearGradient id="paint43_linear" x1="210.417" y1="331.107" x2="210.417" y2="347.961" gradientUnits="userSpaceOnUse">
<stop stop-color="#BFF3FF"/>
<stop offset="1" stop-color="#09667A"/>
</linearGradient>
<linearGradient id="paint44_linear" x1="205.692" y1="325.002" x2="205.692" y2="344.708" gradientUnits="userSpaceOnUse">
<stop stop-color="#BFF3FF"/>
<stop offset="1" stop-color="#09667A"/>
</linearGradient>
<linearGradient id="paint45_linear" x1="178.571" y1="325.004" x2="178.571" y2="336.672" gradientUnits="userSpaceOnUse">
<stop stop-color="#BFF3FF"/>
<stop offset="1" stop-color="#09667A"/>
</linearGradient>
<linearGradient id="paint46_linear" x1="191.137" y1="319.819" x2="191.137" y2="336.672" gradientUnits="userSpaceOnUse">
<stop stop-color="#BFF3FF"/>
<stop offset="1" stop-color="#09667A"/>
</linearGradient>
<linearGradient id="paint47_linear" x1="186.412" y1="313.714" x2="186.412" y2="333.42" gradientUnits="userSpaceOnUse">
<stop stop-color="#BFF3FF"/>
<stop offset="1" stop-color="#09667A"/>
</linearGradient>
<linearGradient id="paint48_linear" x1="156.619" y1="312.185" x2="156.619" y2="323.853" gradientUnits="userSpaceOnUse">
<stop stop-color="#BFF3FF"/>
<stop offset="1" stop-color="#09667A"/>
</linearGradient>
<linearGradient id="paint49_linear" x1="169.183" y1="306.999" x2="169.183" y2="323.853" gradientUnits="userSpaceOnUse">
<stop stop-color="#BFF3FF"/>
<stop offset="1" stop-color="#09667A"/>
</linearGradient>
<linearGradient id="paint50_linear" x1="164.459" y1="300.894" x2="164.459" y2="320.6" gradientUnits="userSpaceOnUse">
<stop stop-color="#BFF3FF"/>
<stop offset="1" stop-color="#09667A"/>
</linearGradient>
<linearGradient id="paint51_linear" x1="135.527" y1="299.94" x2="135.527" y2="311.608" gradientUnits="userSpaceOnUse">
<stop stop-color="#BFF3FF"/>
<stop offset="1" stop-color="#09667A"/>
</linearGradient>
<linearGradient id="paint52_linear" x1="147.996" y1="294.754" x2="147.996" y2="311.608" gradientUnits="userSpaceOnUse">
<stop stop-color="#BFF3FF"/>
<stop offset="1" stop-color="#09667A"/>
</linearGradient>
<linearGradient id="paint53_linear" x1="143.369" y1="288.649" x2="143.369" y2="308.355" gradientUnits="userSpaceOnUse">
<stop stop-color="#BFF3FF"/>
<stop offset="1" stop-color="#09667A"/>
</linearGradient>
<linearGradient id="paint54_linear" x1="115.197" y1="288.077" x2="115.197" y2="299.745" gradientUnits="userSpaceOnUse">
<stop stop-color="#BFF3FF"/>
<stop offset="1" stop-color="#09667A"/>
</linearGradient>
<linearGradient id="paint55_linear" x1="127.762" y1="283.151" x2="127.762" y2="299.745" gradientUnits="userSpaceOnUse">
<stop stop-color="#BFF3FF"/>
<stop offset="1" stop-color="#09667A"/>
</linearGradient>
<linearGradient id="paint56_linear" x1="123.038" y1="276.786" x2="123.038" y2="296.492" gradientUnits="userSpaceOnUse">
<stop stop-color="#BFF3FF"/>
<stop offset="1" stop-color="#09667A"/>
</linearGradient>
<linearGradient id="paint57_linear" x1="323.294" y1="259.449" x2="174.906" y2="60.8109" gradientUnits="userSpaceOnUse">
<stop stop-color="#00D1FF"/>
<stop offset="1" stop-color="#E8EEFF"/>
</linearGradient>
<linearGradient id="paint58_linear" x1="241.467" y1="17.7047" x2="241.467" y2="282.907" gradientUnits="userSpaceOnUse">
<stop stop-color="#BFF3FF"/>
<stop offset="1" stop-color="#09667A"/>
</linearGradient>
<linearGradient id="paint59_linear" x1="144.292" y1="139.659" x2="426.837" y2="210.487" gradientUnits="userSpaceOnUse">
<stop stop-color="#24CBE5"/>
<stop offset="0.9375" stop-color="#22BBDD" stop-opacity="0.1"/>
</linearGradient>
<linearGradient id="paint60_linear" x1="245.724" y1="147.686" x2="245.724" y2="223.16" gradientUnits="userSpaceOnUse">
<stop stop-color="#23B3CB"/>
<stop offset="1" stop-color="#C9F7FF"/>
</linearGradient>
<linearGradient id="paint61_linear" x1="218.929" y1="42.2153" x2="218.862" y2="323.406" gradientUnits="userSpaceOnUse">
<stop stop-color="#2AC7EA" stop-opacity="0"/>
<stop offset="1" stop-color="white" stop-opacity="0.78"/>
</linearGradient>
</defs>
</svg>
