<svg width="798" height="70" viewBox="0 0 798 70" fill="none" xmlns="http://www.w3.org/2000/svg">
<path d="M67.4307 32.877C67.4307 33.8431 67.1025 34.5837 66.4463 35.0986C65.79 35.6136 64.8604 35.8711 63.6572 35.8711H62.1123V40H61.415V30.0059H63.8623C66.2412 30.0059 67.4307 30.9629 67.4307 32.877ZM62.1123 35.2695H63.4863C64.612 35.2695 65.4255 35.085 65.9268 34.7158C66.4281 34.3421 66.6787 33.7383 66.6787 32.9043C66.6787 32.1341 66.4417 31.5645 65.9678 31.1953C65.4938 30.8216 64.7601 30.6348 63.7666 30.6348H62.1123V35.2695ZM72.8494 32.4258C73.1638 32.4258 73.5011 32.4577 73.8611 32.5215L73.7312 33.1709C73.4213 33.0934 73.1 33.0547 72.7673 33.0547C72.1339 33.0547 71.6143 33.3236 71.2087 33.8613C70.8032 34.3991 70.6004 35.0781 70.6004 35.8984V40H69.9236V32.5693H70.4978L70.5662 33.9092H70.614C70.9194 33.3623 71.2452 32.9795 71.5916 32.7607C71.9379 32.5374 72.3572 32.4258 72.8494 32.4258ZM78.8696 40.1367C77.7896 40.1367 76.9465 39.804 76.3404 39.1387C75.7388 38.4733 75.438 37.5413 75.438 36.3428C75.438 35.1579 75.7297 34.21 76.313 33.499C76.8963 32.7835 77.6825 32.4258 78.6714 32.4258C79.5464 32.4258 80.2368 32.7311 80.7427 33.3418C81.2486 33.9525 81.5015 34.7819 81.5015 35.8301V36.377H76.1489C76.1581 37.3978 76.395 38.1771 76.8599 38.7148C77.3293 39.2526 77.9992 39.5215 78.8696 39.5215C79.2935 39.5215 79.6649 39.4919 79.9839 39.4326C80.3075 39.3734 80.7154 39.2458 81.2075 39.0498V39.665C80.7883 39.8473 80.4009 39.9704 80.0454 40.0342C79.69 40.1025 79.298 40.1367 78.8696 40.1367ZM78.6714 33.0273C77.9559 33.0273 77.3817 33.2643 76.9487 33.7383C76.5158 34.2077 76.2629 34.8867 76.19 35.7754H80.7837C80.7837 34.9141 80.5969 34.2419 80.2232 33.7588C79.8495 33.2712 79.3322 33.0273 78.6714 33.0273ZM88.6497 38.0654C88.6497 38.7308 88.3968 39.2435 87.8909 39.6035C87.385 39.959 86.6673 40.1367 85.7376 40.1367C84.7441 40.1367 83.9557 39.984 83.3723 39.6787V38.9473C84.1197 39.321 84.9082 39.5078 85.7376 39.5078C86.4713 39.5078 87.0273 39.387 87.4055 39.1455C87.7884 38.8994 87.9798 38.5736 87.9798 38.168C87.9798 37.7943 87.8271 37.4798 87.5218 37.2246C87.221 36.9694 86.7242 36.7188 86.0315 36.4727C85.2887 36.2038 84.7669 35.9736 84.4661 35.7822C84.1653 35.5863 83.9374 35.3675 83.7825 35.126C83.6321 34.8799 83.5569 34.5814 83.5569 34.2305C83.5569 33.6745 83.7893 33.2347 84.2542 32.9111C84.7236 32.5876 85.3776 32.4258 86.2161 32.4258C87.0182 32.4258 87.7792 32.5762 88.4993 32.877L88.2464 33.4922C87.5172 33.1914 86.8404 33.041 86.2161 33.041C85.61 33.041 85.1292 33.1413 84.7737 33.3418C84.4182 33.5423 84.2405 33.8203 84.2405 34.1758C84.2405 34.5632 84.3772 34.873 84.6507 35.1055C84.9287 35.3379 85.4687 35.5977 86.2708 35.8848C86.9407 36.1263 87.4283 36.3451 87.7337 36.541C88.039 36.7324 88.2669 36.9512 88.4173 37.1973C88.5722 37.4434 88.6497 37.7327 88.6497 38.0654ZM95.5655 40L95.3946 38.8242H95.3399C94.9662 39.3027 94.5811 39.6423 94.1846 39.8428C93.7927 40.0387 93.3278 40.1367 92.7901 40.1367C92.0609 40.1367 91.4935 39.9499 91.0879 39.5762C90.6823 39.2025 90.4795 38.6852 90.4795 38.0244C90.4795 37.2998 90.7803 36.737 91.3819 36.3359C91.988 35.9349 92.863 35.723 94.0069 35.7002L95.4219 35.6592V35.167C95.4219 34.4606 95.2784 33.9274 94.9912 33.5674C94.7041 33.2074 94.2416 33.0273 93.6036 33.0273C92.9154 33.0273 92.2022 33.2188 91.4639 33.6016L91.211 33.0137C92.0267 32.6309 92.8334 32.4395 93.6309 32.4395C94.4467 32.4395 95.0551 32.6514 95.4561 33.0752C95.8617 33.499 96.0645 34.1598 96.0645 35.0576V40H95.5655ZM92.8311 39.5215C93.6241 39.5215 94.2484 39.2959 94.7041 38.8447C95.1644 38.389 95.3946 37.7578 95.3946 36.9512V36.2197L94.0957 36.2744C93.0521 36.3245 92.307 36.4886 91.8604 36.7666C91.4183 37.04 91.1973 37.4684 91.1973 38.0518C91.1973 38.5166 91.3386 38.8789 91.6211 39.1387C91.9082 39.3939 92.3116 39.5215 92.8311 39.5215ZM99.6443 40H98.9676V29.3633H99.6443V40ZM105.63 40.1367C104.55 40.1367 103.707 39.804 103.101 39.1387C102.5 38.4733 102.199 37.5413 102.199 36.3428C102.199 35.1579 102.49 34.21 103.074 33.499C103.657 32.7835 104.443 32.4258 105.432 32.4258C106.307 32.4258 106.998 32.7311 107.503 33.3418C108.009 33.9525 108.262 34.7819 108.262 35.8301V36.377H102.91C102.919 37.3978 103.156 38.1771 103.621 38.7148C104.09 39.2526 104.76 39.5215 105.63 39.5215C106.054 39.5215 106.426 39.4919 106.745 39.4326C107.068 39.3734 107.476 39.2458 107.968 39.0498V39.665C107.549 39.8473 107.162 39.9704 106.806 40.0342C106.451 40.1025 106.059 40.1367 105.63 40.1367ZM105.432 33.0273C104.717 33.0273 104.142 33.2643 103.71 33.7383C103.277 34.2077 103.024 34.8867 102.951 35.7754H107.544C107.544 34.9141 107.358 34.2419 106.984 33.7588C106.61 33.2712 106.093 33.0273 105.432 33.0273Z" fill="white"/>
<path d="M167.431 32.877C167.431 33.8431 167.103 34.5837 166.446 35.0986C165.79 35.6136 164.86 35.8711 163.657 35.8711H162.112V40H161.415V30.0059H163.862C166.241 30.0059 167.431 30.9629 167.431 32.877ZM162.112 35.2695H163.486C164.612 35.2695 165.425 35.085 165.927 34.7158C166.428 34.3421 166.679 33.7383 166.679 32.9043C166.679 32.1341 166.442 31.5645 165.968 31.1953C165.494 30.8216 164.76 30.6348 163.767 30.6348H162.112V35.2695ZM170.511 32.5693V37.3818C170.511 38.1292 170.669 38.6738 170.983 39.0156C171.298 39.3529 171.785 39.5215 172.446 39.5215C173.33 39.5215 173.98 39.2982 174.394 38.8516C174.814 38.4049 175.023 37.6781 175.023 36.6709V32.5693H175.693V40H175.119L174.996 38.9746H174.955C174.472 39.7493 173.613 40.1367 172.378 40.1367C170.687 40.1367 169.842 39.2321 169.842 37.4229V32.5693H170.511ZM181.809 32.4258C182.848 32.4258 183.63 32.7539 184.154 33.4102C184.682 34.0618 184.947 35.0166 184.947 36.2744C184.947 37.5094 184.669 38.4619 184.113 39.1318C183.561 39.8018 182.784 40.1367 181.782 40.1367C181.253 40.1367 180.777 40.0273 180.353 39.8086C179.929 39.5898 179.594 39.2799 179.348 38.8789H179.287L179.095 40H178.671V29.3633H179.348V32.0361C179.348 32.4372 179.339 32.8063 179.321 33.1436L179.3 33.7246H179.348C179.631 33.278 179.97 32.9499 180.367 32.7402C180.768 32.5306 181.249 32.4258 181.809 32.4258ZM181.795 33.041C180.92 33.041 180.294 33.2917 179.916 33.793C179.537 34.2943 179.348 35.1214 179.348 36.2744V36.3906C179.348 37.5117 179.544 38.3161 179.936 38.8037C180.333 39.2913 180.948 39.5352 181.782 39.5352C182.593 39.5352 183.204 39.2526 183.614 38.6875C184.024 38.1178 184.229 37.3089 184.229 36.2607C184.229 34.1143 183.418 33.041 181.795 33.041ZM188.178 40H187.501V29.3633H188.178V40ZM191.84 40H191.163V32.5693H191.84V40ZM191.067 30.5049C191.067 30.0674 191.211 29.8486 191.498 29.8486C191.639 29.8486 191.749 29.9056 191.826 30.0195C191.908 30.1335 191.949 30.2952 191.949 30.5049C191.949 30.71 191.908 30.8717 191.826 30.9902C191.749 31.1087 191.639 31.168 191.498 31.168C191.211 31.168 191.067 30.9469 191.067 30.5049ZM197.792 40.1367C196.73 40.1367 195.898 39.8018 195.297 39.1318C194.695 38.4619 194.394 37.5277 194.394 36.3291C194.394 35.0986 194.707 34.1416 195.331 33.458C195.955 32.7699 196.81 32.4258 197.894 32.4258C198.537 32.4258 199.152 32.5374 199.74 32.7607L199.555 33.3623C198.913 33.1481 198.355 33.041 197.881 33.041C196.969 33.041 196.279 33.3236 195.809 33.8887C195.34 34.4492 195.105 35.2581 195.105 36.3154C195.105 37.318 195.34 38.1042 195.809 38.6738C196.279 39.2389 196.935 39.5215 197.778 39.5215C198.453 39.5215 199.079 39.4007 199.658 39.1592V39.7881C199.184 40.0205 198.562 40.1367 197.792 40.1367Z" fill="white"/>
<path d="M253.112 40H252.415V30.0059H257.891V30.6484H253.112V34.8867H257.624V35.5361H253.112V40ZM265.907 36.2744C265.907 37.4867 265.613 38.4346 265.025 39.1182C264.437 39.7972 263.626 40.1367 262.592 40.1367C261.94 40.1367 261.366 39.9795 260.869 39.665C260.372 39.3506 259.992 38.8994 259.727 38.3115C259.463 37.7236 259.331 37.0446 259.331 36.2744C259.331 35.0622 259.625 34.1188 260.213 33.4443C260.801 32.7653 261.607 32.4258 262.633 32.4258C263.653 32.4258 264.453 32.7699 265.032 33.458C265.615 34.1416 265.907 35.0804 265.907 36.2744ZM260.042 36.2744C260.042 37.2952 260.265 38.0928 260.712 38.667C261.163 39.2367 261.799 39.5215 262.619 39.5215C263.439 39.5215 264.073 39.2367 264.519 38.667C264.97 38.0928 265.196 37.2952 265.196 36.2744C265.196 35.249 264.968 34.4538 264.512 33.8887C264.061 33.3236 263.426 33.041 262.605 33.041C261.785 33.041 261.151 33.3236 260.705 33.8887C260.263 34.4492 260.042 35.2445 260.042 36.2744ZM269.042 32.5693V37.3818C269.042 38.1292 269.2 38.6738 269.514 39.0156C269.829 39.3529 270.316 39.5215 270.977 39.5215C271.861 39.5215 272.511 39.2982 272.925 38.8516C273.345 38.4049 273.554 37.6781 273.554 36.6709V32.5693H274.224V40H273.65L273.527 38.9746H273.486C273.003 39.7493 272.144 40.1367 270.909 40.1367C269.218 40.1367 268.373 39.2321 268.373 37.4229V32.5693H269.042ZM282.384 40V35.1807C282.384 34.4333 282.227 33.891 281.912 33.5537C281.598 33.2119 281.11 33.041 280.449 33.041C279.561 33.041 278.909 33.2666 278.494 33.7178C278.084 34.1644 277.879 34.8913 277.879 35.8984V40H277.202V32.5693H277.777L277.907 33.5879H277.948C278.431 32.8132 279.29 32.4258 280.525 32.4258C282.211 32.4258 283.054 33.3304 283.054 35.1396V40H282.384ZM288.671 32.4258C289.209 32.4258 289.674 32.5238 290.065 32.7197C290.457 32.9157 290.808 33.2507 291.118 33.7246H291.159C291.132 33.1504 291.118 32.5876 291.118 32.0361V29.3633H291.788V40H291.344L291.173 38.8652H291.118C290.553 39.7129 289.742 40.1367 288.685 40.1367C287.659 40.1367 286.875 39.8177 286.333 39.1797C285.791 38.5417 285.52 37.612 285.52 36.3906C285.52 35.1055 285.788 34.1234 286.326 33.4443C286.864 32.7653 287.646 32.4258 288.671 32.4258ZM288.671 33.041C287.86 33.041 287.249 33.3258 286.839 33.8955C286.433 34.4652 286.231 35.2923 286.231 36.377C286.231 38.4824 287.049 39.5352 288.685 39.5352C289.523 39.5352 290.138 39.2913 290.53 38.8037C290.922 38.3161 291.118 37.5117 291.118 36.3906V36.2744C291.118 35.126 290.925 34.3011 290.537 33.7998C290.154 33.2939 289.532 33.041 288.671 33.041ZM304.54 40H299.078V30.0059H304.54V30.6484H299.775V34.4287H304.273V35.0713H299.775V39.3574H304.54V40ZM310.088 40.1367C309.026 40.1367 308.195 39.8018 307.593 39.1318C306.992 38.4619 306.691 37.5277 306.691 36.3291C306.691 35.0986 307.003 34.1416 307.627 33.458C308.252 32.7699 309.106 32.4258 310.191 32.4258C310.833 32.4258 311.449 32.5374 312.036 32.7607L311.852 33.3623C311.209 33.1481 310.651 33.041 310.177 33.041C309.266 33.041 308.575 33.3236 308.106 33.8887C307.636 34.4492 307.402 35.2581 307.402 36.3154C307.402 37.318 307.636 38.1042 308.106 38.6738C308.575 39.2389 309.231 39.5215 310.075 39.5215C310.749 39.5215 311.376 39.4007 311.954 39.1592V39.7881C311.48 40.0205 310.858 40.1367 310.088 40.1367ZM320.415 36.2744C320.415 37.4867 320.121 38.4346 319.533 39.1182C318.945 39.7972 318.134 40.1367 317.1 40.1367C316.448 40.1367 315.874 39.9795 315.377 39.665C314.88 39.3506 314.5 38.8994 314.235 38.3115C313.971 37.7236 313.839 37.0446 313.839 36.2744C313.839 35.0622 314.133 34.1188 314.721 33.4443C315.309 32.7653 316.115 32.4258 317.141 32.4258C318.162 32.4258 318.961 32.7699 319.54 33.458C320.123 34.1416 320.415 35.0804 320.415 36.2744ZM314.55 36.2744C314.55 37.2952 314.773 38.0928 315.22 38.667C315.671 39.2367 316.307 39.5215 317.127 39.5215C317.947 39.5215 318.581 39.2367 319.027 38.667C319.479 38.0928 319.704 37.2952 319.704 36.2744C319.704 35.249 319.476 34.4538 319.021 33.8887C318.569 33.3236 317.934 33.041 317.113 33.041C316.293 33.041 315.66 33.3236 315.213 33.8887C314.771 34.4492 314.55 35.2445 314.55 36.2744ZM327.57 38.0654C327.57 38.7308 327.317 39.2435 326.811 39.6035C326.306 39.959 325.588 40.1367 324.658 40.1367C323.665 40.1367 322.876 39.984 322.293 39.6787V38.9473C323.04 39.321 323.829 39.5078 324.658 39.5078C325.392 39.5078 325.948 39.387 326.326 39.1455C326.709 38.8994 326.9 38.5736 326.9 38.168C326.9 37.7943 326.748 37.4798 326.442 37.2246C326.141 36.9694 325.645 36.7188 324.952 36.4727C324.209 36.2038 323.687 35.9736 323.387 35.7822C323.086 35.5863 322.858 35.3675 322.703 35.126C322.553 34.8799 322.477 34.5814 322.477 34.2305C322.477 33.6745 322.71 33.2347 323.175 32.9111C323.644 32.5876 324.298 32.4258 325.137 32.4258C325.939 32.4258 326.7 32.5762 327.42 32.877L327.167 33.4922C326.438 33.1914 325.761 33.041 325.137 33.041C324.53 33.041 324.05 33.1413 323.694 33.3418C323.339 33.5423 323.161 33.8203 323.161 34.1758C323.161 34.5632 323.298 34.873 323.571 35.1055C323.849 35.3379 324.389 35.5977 325.191 35.8848C325.861 36.1263 326.349 36.3451 326.654 36.541C326.959 36.7324 327.187 36.9512 327.338 37.1973C327.493 37.4434 327.57 37.7327 327.57 38.0654ZM328.73 32.5693H329.427L331 36.7393C331.478 38.0199 331.781 38.8835 331.909 39.3301H331.95C332.141 38.7422 332.453 37.8649 332.886 36.6982L334.459 32.5693H335.156L331.827 41.2031C331.558 41.9049 331.332 42.3789 331.15 42.625C330.968 42.8711 330.754 43.0557 330.507 43.1787C330.266 43.3018 329.972 43.3633 329.626 43.3633C329.366 43.3633 329.076 43.3154 328.757 43.2197V42.6318C329.022 42.7048 329.307 42.7412 329.612 42.7412C329.844 42.7412 330.049 42.6865 330.227 42.5771C330.405 42.4678 330.564 42.2969 330.706 42.0645C330.851 41.8366 331.018 41.472 331.205 40.9707C331.396 40.474 331.519 40.1504 331.574 40L328.73 32.5693ZM341.497 38.0654C341.497 38.7308 341.244 39.2435 340.739 39.6035C340.233 39.959 339.515 40.1367 338.585 40.1367C337.592 40.1367 336.803 39.984 336.22 39.6787V38.9473C336.967 39.321 337.756 39.5078 338.585 39.5078C339.319 39.5078 339.875 39.387 340.253 39.1455C340.636 38.8994 340.827 38.5736 340.827 38.168C340.827 37.7943 340.675 37.4798 340.369 37.2246C340.069 36.9694 339.572 36.7188 338.879 36.4727C338.136 36.2038 337.615 35.9736 337.314 35.7822C337.013 35.5863 336.785 35.3675 336.63 35.126C336.48 34.8799 336.405 34.5814 336.405 34.2305C336.405 33.6745 336.637 33.2347 337.102 32.9111C337.571 32.5876 338.225 32.4258 339.064 32.4258C339.866 32.4258 340.627 32.5762 341.347 32.877L341.094 33.4922C340.365 33.1914 339.688 33.041 339.064 33.041C338.458 33.041 337.977 33.1413 337.621 33.3418C337.266 33.5423 337.088 33.8203 337.088 34.1758C337.088 34.5632 337.225 34.873 337.498 35.1055C337.776 35.3379 338.316 35.5977 339.119 35.8848C339.788 36.1263 340.276 36.3451 340.581 36.541C340.887 36.7324 341.115 36.9512 341.265 37.1973C341.42 37.4434 341.497 37.7327 341.497 38.0654ZM345.863 39.5352C346.292 39.5352 346.665 39.4987 346.984 39.4258V39.9727C346.656 40.082 346.278 40.1367 345.85 40.1367C345.193 40.1367 344.708 39.9613 344.394 39.6104C344.084 39.2594 343.929 38.708 343.929 37.9561V33.1572H342.828V32.7607L343.929 32.4531L344.271 30.7715H344.619V32.5693H346.8V33.1572H344.619V37.8604C344.619 38.43 344.72 38.8516 344.92 39.125C345.121 39.3984 345.435 39.5352 345.863 39.5352ZM352.082 40.1367C351.002 40.1367 350.159 39.804 349.553 39.1387C348.951 38.4733 348.65 37.5413 348.65 36.3428C348.65 35.1579 348.942 34.21 349.525 33.499C350.109 32.7835 350.895 32.4258 351.884 32.4258C352.759 32.4258 353.449 32.7311 353.955 33.3418C354.461 33.9525 354.714 34.7819 354.714 35.8301V36.377H349.361C349.37 37.3978 349.607 38.1771 350.072 38.7148C350.542 39.2526 351.211 39.5215 352.082 39.5215C352.506 39.5215 352.877 39.4919 353.196 39.4326C353.52 39.3734 353.928 39.2458 354.42 39.0498V39.665C354.001 39.8473 353.613 39.9704 353.258 40.0342C352.902 40.1025 352.51 40.1367 352.082 40.1367ZM351.884 33.0273C351.168 33.0273 350.594 33.2643 350.161 33.7383C349.728 34.2077 349.475 34.8867 349.402 35.7754H353.996C353.996 34.9141 353.809 34.2419 353.435 33.7588C353.062 33.2712 352.544 33.0273 351.884 33.0273ZM366.538 40V35.126C366.538 34.4014 366.396 33.8727 366.114 33.54C365.831 33.2074 365.398 33.041 364.815 33.041C364.054 33.041 363.491 33.2507 363.127 33.6699C362.762 34.0892 362.58 34.7477 362.58 35.6455V40H361.889V34.9209C361.889 33.6676 361.315 33.041 360.167 33.041C359.387 33.041 358.82 33.2689 358.464 33.7246C358.109 34.1758 357.931 34.9004 357.931 35.8984V40H357.255V32.5693H357.815L357.959 33.5879H358C358.205 33.2188 358.496 32.9339 358.875 32.7334C359.253 32.5283 359.67 32.4258 360.126 32.4258C361.297 32.4258 362.049 32.8656 362.381 33.7451H362.409C362.65 33.3213 362.974 32.9954 363.38 32.7676C363.79 32.5397 364.255 32.4258 364.774 32.4258C365.585 32.4258 366.194 32.6423 366.599 33.0752C367.005 33.5081 367.208 34.1963 367.208 35.1396V40H366.538Z" fill="white"/>
<path d="M421.112 40H420.415V30.0059H425.891V30.6484H421.112V34.8867H425.624V35.5361H421.112V40ZM433.907 36.2744C433.907 37.4867 433.613 38.4346 433.025 39.1182C432.437 39.7972 431.626 40.1367 430.592 40.1367C429.94 40.1367 429.366 39.9795 428.869 39.665C428.372 39.3506 427.992 38.8994 427.727 38.3115C427.463 37.7236 427.331 37.0446 427.331 36.2744C427.331 35.0622 427.625 34.1188 428.213 33.4443C428.801 32.7653 429.607 32.4258 430.633 32.4258C431.653 32.4258 432.453 32.7699 433.032 33.458C433.615 34.1416 433.907 35.0804 433.907 36.2744ZM428.042 36.2744C428.042 37.2952 428.265 38.0928 428.712 38.667C429.163 39.2367 429.799 39.5215 430.619 39.5215C431.439 39.5215 432.073 39.2367 432.519 38.667C432.97 38.0928 433.196 37.2952 433.196 36.2744C433.196 35.249 432.968 34.4538 432.512 33.8887C432.061 33.3236 431.426 33.041 430.605 33.041C429.785 33.041 429.151 33.3236 428.705 33.8887C428.263 34.4492 428.042 35.2445 428.042 36.2744ZM437.042 32.5693V37.3818C437.042 38.1292 437.2 38.6738 437.514 39.0156C437.829 39.3529 438.316 39.5215 438.977 39.5215C439.861 39.5215 440.511 39.2982 440.925 38.8516C441.345 38.4049 441.554 37.6781 441.554 36.6709V32.5693H442.224V40H441.65L441.527 38.9746H441.486C441.003 39.7493 440.144 40.1367 438.909 40.1367C437.218 40.1367 436.373 39.2321 436.373 37.4229V32.5693H437.042ZM450.384 40V35.1807C450.384 34.4333 450.227 33.891 449.912 33.5537C449.598 33.2119 449.11 33.041 448.449 33.041C447.561 33.041 446.909 33.2666 446.494 33.7178C446.084 34.1644 445.879 34.8913 445.879 35.8984V40H445.202V32.5693H445.777L445.907 33.5879H445.948C446.431 32.8132 447.29 32.4258 448.525 32.4258C450.211 32.4258 451.054 33.3304 451.054 35.1396V40H450.384ZM456.671 32.4258C457.209 32.4258 457.674 32.5238 458.065 32.7197C458.457 32.9157 458.808 33.2507 459.118 33.7246H459.159C459.132 33.1504 459.118 32.5876 459.118 32.0361V29.3633H459.788V40H459.344L459.173 38.8652H459.118C458.553 39.7129 457.742 40.1367 456.685 40.1367C455.659 40.1367 454.875 39.8177 454.333 39.1797C453.791 38.5417 453.52 37.612 453.52 36.3906C453.52 35.1055 453.788 34.1234 454.326 33.4443C454.864 32.7653 455.646 32.4258 456.671 32.4258ZM456.671 33.041C455.86 33.041 455.249 33.3258 454.839 33.8955C454.433 34.4652 454.231 35.2923 454.231 36.377C454.231 38.4824 455.049 39.5352 456.685 39.5352C457.523 39.5352 458.138 39.2913 458.53 38.8037C458.922 38.3161 459.118 37.5117 459.118 36.3906V36.2744C459.118 35.126 458.925 34.3011 458.537 33.7998C458.154 33.2939 457.532 33.041 456.671 33.041ZM469.682 40H468.978V30.6621H465.731V30.0059H472.929V30.6621H469.682V40ZM477.664 32.4258C477.979 32.4258 478.316 32.4577 478.676 32.5215L478.546 33.1709C478.236 33.0934 477.915 33.0547 477.582 33.0547C476.949 33.0547 476.429 33.3236 476.024 33.8613C475.618 34.3991 475.415 35.0781 475.415 35.8984V40H474.739V32.5693H475.313L475.381 33.9092H475.429C475.734 33.3623 476.06 32.9795 476.407 32.7607C476.753 32.5374 477.172 32.4258 477.664 32.4258ZM483.685 40.1367C482.605 40.1367 481.761 39.804 481.155 39.1387C480.554 38.4733 480.253 37.5413 480.253 36.3428C480.253 35.1579 480.545 34.21 481.128 33.499C481.711 32.7835 482.497 32.4258 483.486 32.4258C484.361 32.4258 485.052 32.7311 485.558 33.3418C486.064 33.9525 486.316 34.7819 486.316 35.8301V36.377H480.964C480.973 37.3978 481.21 38.1771 481.675 38.7148C482.144 39.2526 482.814 39.5215 483.685 39.5215C484.108 39.5215 484.48 39.4919 484.799 39.4326C485.122 39.3734 485.53 39.2458 486.023 39.0498V39.665C485.603 39.8473 485.216 39.9704 484.86 40.0342C484.505 40.1025 484.113 40.1367 483.685 40.1367ZM483.486 33.0273C482.771 33.0273 482.197 33.2643 481.764 33.7383C481.331 34.2077 481.078 34.8867 481.005 35.7754H485.599C485.599 34.9141 485.412 34.2419 485.038 33.7588C484.664 33.2712 484.147 33.0273 483.486 33.0273ZM493.369 40L493.198 38.8242H493.143C492.77 39.3027 492.385 39.6423 491.988 39.8428C491.596 40.0387 491.131 40.1367 490.594 40.1367C489.864 40.1367 489.297 39.9499 488.891 39.5762C488.486 39.2025 488.283 38.6852 488.283 38.0244C488.283 37.2998 488.584 36.737 489.185 36.3359C489.792 35.9349 490.667 35.723 491.81 35.7002L493.225 35.6592V35.167C493.225 34.4606 493.082 33.9274 492.795 33.5674C492.508 33.2074 492.045 33.0273 491.407 33.0273C490.719 33.0273 490.006 33.2188 489.267 33.6016L489.014 33.0137C489.83 32.6309 490.637 32.4395 491.434 32.4395C492.25 32.4395 492.859 32.6514 493.26 33.0752C493.665 33.499 493.868 34.1598 493.868 35.0576V40H493.369ZM490.635 39.5215C491.428 39.5215 492.052 39.2959 492.508 38.8447C492.968 38.389 493.198 37.7578 493.198 36.9512V36.2197L491.899 36.2744C490.856 36.3245 490.111 36.4886 489.664 36.7666C489.222 37.04 489.001 37.4684 489.001 38.0518C489.001 38.5166 489.142 38.8789 489.425 39.1387C489.712 39.3939 490.115 39.5215 490.635 39.5215ZM501.379 38.0654C501.379 38.7308 501.126 39.2435 500.62 39.6035C500.114 39.959 499.396 40.1367 498.466 40.1367C497.473 40.1367 496.685 39.984 496.101 39.6787V38.9473C496.849 39.321 497.637 39.5078 498.466 39.5078C499.2 39.5078 499.756 39.387 500.134 39.1455C500.517 38.8994 500.709 38.5736 500.709 38.168C500.709 37.7943 500.556 37.4798 500.251 37.2246C499.95 36.9694 499.453 36.7188 498.76 36.4727C498.018 36.2038 497.496 35.9736 497.195 35.7822C496.894 35.5863 496.666 35.3675 496.511 35.126C496.361 34.8799 496.286 34.5814 496.286 34.2305C496.286 33.6745 496.518 33.2347 496.983 32.9111C497.452 32.5876 498.106 32.4258 498.945 32.4258C499.747 32.4258 500.508 32.5762 501.228 32.877L500.975 33.4922C500.246 33.1914 499.569 33.041 498.945 33.041C498.339 33.041 497.858 33.1413 497.503 33.3418C497.147 33.5423 496.969 33.8203 496.969 34.1758C496.969 34.5632 497.106 34.873 497.379 35.1055C497.657 35.3379 498.198 35.5977 499 35.8848C499.67 36.1263 500.157 36.3451 500.463 36.541C500.768 36.7324 500.996 36.9512 501.146 37.1973C501.301 37.4434 501.379 37.7327 501.379 38.0654ZM504.37 32.5693V37.3818C504.37 38.1292 504.528 38.6738 504.842 39.0156C505.157 39.3529 505.644 39.5215 506.305 39.5215C507.189 39.5215 507.839 39.2982 508.253 38.8516C508.673 38.4049 508.882 37.6781 508.882 36.6709V32.5693H509.552V40H508.978L508.855 38.9746H508.814C508.331 39.7493 507.472 40.1367 506.237 40.1367C504.546 40.1367 503.701 39.2321 503.701 37.4229V32.5693H504.37ZM515.456 32.4258C515.771 32.4258 516.108 32.4577 516.468 32.5215L516.338 33.1709C516.028 33.0934 515.707 33.0547 515.374 33.0547C514.741 33.0547 514.221 33.3236 513.816 33.8613C513.41 34.3991 513.207 35.0781 513.207 35.8984V40H512.53V32.5693H513.105L513.173 33.9092H513.221C513.526 33.3623 513.852 32.9795 514.198 32.7607C514.545 32.5374 514.964 32.4258 515.456 32.4258ZM517.231 32.5693H517.929L519.501 36.7393C519.979 38.0199 520.282 38.8835 520.41 39.3301H520.451C520.642 38.7422 520.955 37.8649 521.388 36.6982L522.96 32.5693H523.657L520.328 41.2031C520.059 41.9049 519.834 42.3789 519.651 42.625C519.469 42.8711 519.255 43.0557 519.009 43.1787C518.767 43.3018 518.473 43.3633 518.127 43.3633C517.867 43.3633 517.578 43.3154 517.259 43.2197V42.6318C517.523 42.7048 517.808 42.7412 518.113 42.7412C518.346 42.7412 518.551 42.6865 518.728 42.5771C518.906 42.4678 519.066 42.2969 519.207 42.0645C519.353 41.8366 519.519 41.472 519.706 40.9707C519.897 40.474 520.02 40.1504 520.075 40L517.231 32.5693Z" fill="white"/>
<path d="M744.228 36.4727H740.167L738.772 40H738L742.02 29.9648H742.464L746.401 40H745.615L744.228 36.4727ZM740.42 35.8438H743.995L742.635 32.2412C742.521 31.9587 742.384 31.5667 742.225 31.0654C742.102 31.5029 741.967 31.8994 741.821 32.2549L740.42 35.8438ZM752.244 34.9619H755.928V39.5215C754.962 39.9316 753.875 40.1367 752.668 40.1367C751.091 40.1367 749.881 39.6924 749.038 38.8037C748.199 37.9105 747.78 36.6481 747.78 35.0166C747.78 34.0003 747.987 33.1003 748.402 32.3164C748.821 31.528 749.418 30.9196 750.193 30.4912C750.972 30.0628 751.866 29.8486 752.873 29.8486C753.962 29.8486 754.94 30.0492 755.805 30.4502L755.525 31.0791C754.659 30.6781 753.761 30.4775 752.832 30.4775C751.515 30.4775 750.469 30.8854 749.694 31.7012C748.924 32.5124 748.539 33.6084 748.539 34.9893C748.539 36.4932 748.906 37.6257 749.639 38.3867C750.373 39.1432 751.451 39.5215 752.873 39.5215C753.793 39.5215 754.575 39.3916 755.218 39.1318V35.6182H752.244V34.9619ZM765.665 40H764.961V30.6621H761.714V30.0059H768.912V30.6621H765.665V40ZM773.723 40.1367C772.643 40.1367 771.8 39.804 771.193 39.1387C770.592 38.4733 770.291 37.5413 770.291 36.3428C770.291 35.1579 770.583 34.21 771.166 33.499C771.749 32.7835 772.536 32.4258 773.524 32.4258C774.399 32.4258 775.09 32.7311 775.596 33.3418C776.102 33.9525 776.355 34.7819 776.355 35.8301V36.377H771.002C771.011 37.3978 771.248 38.1771 771.713 38.7148C772.182 39.2526 772.852 39.5215 773.723 39.5215C774.147 39.5215 774.518 39.4919 774.837 39.4326C775.161 39.3734 775.568 39.2458 776.061 39.0498V39.665C775.641 39.8473 775.254 39.9704 774.898 40.0342C774.543 40.1025 774.151 40.1367 773.723 40.1367ZM773.524 33.0273C772.809 33.0273 772.235 33.2643 771.802 33.7383C771.369 34.2077 771.116 34.8867 771.043 35.7754H775.637C775.637 34.9141 775.45 34.2419 775.076 33.7588C774.703 33.2712 774.185 33.0273 773.524 33.0273ZM783.407 40L783.236 38.8242H783.181C782.808 39.3027 782.423 39.6423 782.026 39.8428C781.634 40.0387 781.169 40.1367 780.632 40.1367C779.902 40.1367 779.335 39.9499 778.929 39.5762C778.524 39.2025 778.321 38.6852 778.321 38.0244C778.321 37.2998 778.622 36.737 779.223 36.3359C779.83 35.9349 780.705 35.723 781.848 35.7002L783.263 35.6592V35.167C783.263 34.4606 783.12 33.9274 782.833 33.5674C782.546 33.2074 782.083 33.0273 781.445 33.0273C780.757 33.0273 780.044 33.2188 779.305 33.6016L779.053 33.0137C779.868 32.6309 780.675 32.4395 781.472 32.4395C782.288 32.4395 782.897 32.6514 783.298 33.0752C783.703 33.499 783.906 34.1598 783.906 35.0576V40H783.407ZM780.673 39.5215C781.466 39.5215 782.09 39.2959 782.546 38.8447C783.006 38.389 783.236 37.7578 783.236 36.9512V36.2197L781.937 36.2744C780.894 36.3245 780.149 36.4886 779.702 36.7666C779.26 37.04 779.039 37.4684 779.039 38.0518C779.039 38.5166 779.18 38.8789 779.463 39.1387C779.75 39.3939 780.153 39.5215 780.673 39.5215ZM796.092 40V35.126C796.092 34.4014 795.951 33.8727 795.669 33.54C795.386 33.2074 794.953 33.041 794.37 33.041C793.609 33.041 793.046 33.2507 792.681 33.6699C792.317 34.0892 792.134 34.7477 792.134 35.6455V40H791.444V34.9209C791.444 33.6676 790.87 33.041 789.721 33.041C788.942 33.041 788.375 33.2689 788.019 33.7246C787.664 34.1758 787.486 34.9004 787.486 35.8984V40H786.809V32.5693H787.37L787.513 33.5879H787.554C787.759 33.2188 788.051 32.9339 788.429 32.7334C788.808 32.5283 789.225 32.4258 789.68 32.4258C790.851 32.4258 791.603 32.8656 791.936 33.7451H791.963C792.205 33.3213 792.529 32.9954 792.934 32.7676C793.344 32.5397 793.809 32.4258 794.329 32.4258C795.14 32.4258 795.748 32.6423 796.154 33.0752C796.559 33.5081 796.762 34.1963 796.762 35.1396V40H796.092Z" fill="white"/>
<g filter="url(#filter0_d)">
<line x1="35" y1="35" x2="45" y2="35" stroke="url(#paint0_linear)" stroke-width="10" stroke-linecap="round"/>
</g>
<line x1="135" y1="35" x2="145" y2="35" stroke="url(#paint1_linear)" stroke-width="10" stroke-linecap="round"/>
<g filter="url(#filter1_d)">
<line x1="226" y1="35" x2="236" y2="35" stroke="url(#paint2_linear)" stroke-width="10" stroke-linecap="round" stroke-linejoin="round"/>
</g>
<g filter="url(#filter2_d)">
<line x1="394" y1="35" x2="404" y2="35" stroke="url(#paint3_linear)" stroke-width="10" stroke-linecap="round"/>
</g>
<g filter="url(#filter3_d)">
<line x1="713" y1="35" x2="723" y2="35" stroke="url(#paint4_linear)" stroke-width="10" stroke-linecap="round"/>
</g>
<path d="M580.228 36.4727H576.167L574.772 40H574L578.02 29.9648H578.464L582.401 40H581.615L580.228 36.4727ZM576.42 35.8438H579.995L578.635 32.2412C578.521 31.9587 578.384 31.5667 578.225 31.0654C578.102 31.5029 577.967 31.8994 577.821 32.2549L576.42 35.8438ZM588.244 34.9619H591.928V39.5215C590.962 39.9316 589.875 40.1367 588.668 40.1367C587.091 40.1367 585.881 39.6924 585.038 38.8037C584.199 37.9105 583.78 36.6481 583.78 35.0166C583.78 34.0003 583.987 33.1003 584.402 32.3164C584.821 31.528 585.418 30.9196 586.193 30.4912C586.972 30.0628 587.866 29.8486 588.873 29.8486C589.962 29.8486 590.94 30.0492 591.805 30.4502L591.525 31.0791C590.659 30.6781 589.761 30.4775 588.832 30.4775C587.515 30.4775 586.469 30.8854 585.694 31.7012C584.924 32.5124 584.539 33.6084 584.539 34.9893C584.539 36.4932 584.906 37.6257 585.639 38.3867C586.373 39.1432 587.451 39.5215 588.873 39.5215C589.793 39.5215 590.575 39.3916 591.218 39.1318V35.6182H588.244V34.9619ZM604.577 37.4229C604.577 38.2568 604.27 38.9176 603.655 39.4053C603.044 39.8929 602.23 40.1367 601.214 40.1367C599.993 40.1367 599.056 40.0023 598.405 39.7334V39.0361C599.125 39.3415 600.043 39.4941 601.159 39.4941C601.98 39.4941 602.629 39.3073 603.108 38.9336C603.591 38.5553 603.832 38.0609 603.832 37.4502C603.832 37.0719 603.753 36.7598 603.593 36.5137C603.434 36.263 603.174 36.0352 602.814 35.8301C602.454 35.625 601.925 35.404 601.228 35.167C600.207 34.8161 599.501 34.4378 599.109 34.0322C598.721 33.6221 598.528 33.0775 598.528 32.3984C598.528 31.651 598.819 31.0426 599.403 30.5732C599.991 30.0993 600.745 29.8623 601.665 29.8623C602.604 29.8623 603.486 30.04 604.311 30.3955L604.058 30.9971C603.228 30.6507 602.435 30.4775 601.679 30.4775C600.941 30.4775 600.353 30.6484 599.915 30.9902C599.478 31.332 599.259 31.7969 599.259 32.3848C599.259 32.7539 599.325 33.057 599.457 33.2939C599.594 33.5309 599.815 33.7451 600.12 33.9365C600.426 34.1234 600.95 34.349 601.693 34.6133C602.472 34.8822 603.058 35.1442 603.449 35.3994C603.841 35.6501 604.126 35.9372 604.304 36.2607C604.486 36.5798 604.577 36.9671 604.577 37.4229ZM612.19 40V35.1807C612.19 34.4333 612.033 33.891 611.719 33.5537C611.404 33.2119 610.917 33.041 610.256 33.041C609.367 33.041 608.716 33.2666 608.301 33.7178C607.891 34.1644 607.686 34.8913 607.686 35.8984V40H607.009V29.3633H607.686V32.7471L607.651 33.6973H607.699C607.977 33.2507 608.328 32.9271 608.752 32.7266C609.176 32.526 609.702 32.4258 610.331 32.4258C612.017 32.4258 612.86 33.3304 612.86 35.1396V40H612.19ZM620.268 40L620.097 38.8242H620.043C619.669 39.3027 619.284 39.6423 618.888 39.8428C618.496 40.0387 618.031 40.1367 617.493 40.1367C616.764 40.1367 616.196 39.9499 615.791 39.5762C615.385 39.2025 615.182 38.6852 615.182 38.0244C615.182 37.2998 615.483 36.737 616.085 36.3359C616.691 35.9349 617.566 35.723 618.71 35.7002L620.125 35.6592V35.167C620.125 34.4606 619.981 33.9274 619.694 33.5674C619.407 33.2074 618.944 33.0273 618.306 33.0273C617.618 33.0273 616.905 33.2188 616.167 33.6016L615.914 33.0137C616.73 32.6309 617.536 32.4395 618.334 32.4395C619.15 32.4395 619.758 32.6514 620.159 33.0752C620.565 33.499 620.767 34.1598 620.767 35.0576V40H620.268ZM617.534 39.5215C618.327 39.5215 618.951 39.2959 619.407 38.8447C619.867 38.389 620.097 37.7578 620.097 36.9512V36.2197L618.799 36.2744C617.755 36.3245 617.01 36.4886 616.563 36.7666C616.121 37.04 615.9 37.4684 615.9 38.0518C615.9 38.5166 616.041 38.8789 616.324 39.1387C616.611 39.3939 617.014 39.5215 617.534 39.5215ZM626.596 32.4258C626.911 32.4258 627.248 32.4577 627.608 32.5215L627.478 33.1709C627.168 33.0934 626.847 33.0547 626.514 33.0547C625.881 33.0547 625.361 33.3236 624.956 33.8613C624.55 34.3991 624.347 35.0781 624.347 35.8984V40H623.67V32.5693H624.245L624.313 33.9092H624.361C624.666 33.3623 624.992 32.9795 625.338 32.7607C625.685 32.5374 626.104 32.4258 626.596 32.4258ZM632.617 40.1367C631.536 40.1367 630.693 39.804 630.087 39.1387C629.486 38.4733 629.185 37.5413 629.185 36.3428C629.185 35.1579 629.477 34.21 630.06 33.499C630.643 32.7835 631.429 32.4258 632.418 32.4258C633.293 32.4258 633.984 32.7311 634.49 33.3418C634.995 33.9525 635.248 34.7819 635.248 35.8301V36.377H629.896C629.905 37.3978 630.142 38.1771 630.607 38.7148C631.076 39.2526 631.746 39.5215 632.617 39.5215C633.04 39.5215 633.412 39.4919 633.731 39.4326C634.054 39.3734 634.462 39.2458 634.954 39.0498V39.665C634.535 39.8473 634.148 39.9704 633.792 40.0342C633.437 40.1025 633.045 40.1367 632.617 40.1367ZM632.418 33.0273C631.703 33.0273 631.129 33.2643 630.696 33.7383C630.263 34.2077 630.01 34.8867 629.937 35.7754H634.531C634.531 34.9141 634.344 34.2419 633.97 33.7588C633.596 33.2712 633.079 33.0273 632.418 33.0273ZM642.971 40V35.1807C642.971 34.4333 642.814 33.891 642.499 33.5537C642.185 33.2119 641.697 33.041 641.036 33.041C640.148 33.041 639.496 33.2666 639.081 33.7178C638.671 34.1644 638.466 34.8913 638.466 35.8984V40H637.789V29.3633H638.466V32.7471L638.432 33.6973H638.48C638.758 33.2507 639.108 32.9271 639.532 32.7266C639.956 32.526 640.482 32.4258 641.111 32.4258C642.798 32.4258 643.641 33.3304 643.641 35.1396V40H642.971ZM652.682 36.2744C652.682 37.4867 652.389 38.4346 651.801 39.1182C651.213 39.7972 650.402 40.1367 649.367 40.1367C648.715 40.1367 648.141 39.9795 647.644 39.665C647.148 39.3506 646.767 38.8994 646.503 38.3115C646.238 37.7236 646.106 37.0446 646.106 36.2744C646.106 35.0622 646.4 34.1188 646.988 33.4443C647.576 32.7653 648.383 32.4258 649.408 32.4258C650.429 32.4258 651.229 32.7699 651.807 33.458C652.391 34.1416 652.682 35.0804 652.682 36.2744ZM646.817 36.2744C646.817 37.2952 647.041 38.0928 647.487 38.667C647.938 39.2367 648.574 39.5215 649.394 39.5215C650.215 39.5215 650.848 39.2367 651.295 38.667C651.746 38.0928 651.972 37.2952 651.972 36.2744C651.972 35.249 651.744 34.4538 651.288 33.8887C650.837 33.3236 650.201 33.041 649.381 33.041C648.56 33.041 647.927 33.3236 647.48 33.8887C647.038 34.4492 646.817 35.2445 646.817 36.2744ZM655.907 40H655.23V29.3633H655.907V40ZM661.613 32.4258C662.15 32.4258 662.615 32.5238 663.007 32.7197C663.399 32.9157 663.75 33.2507 664.06 33.7246H664.101C664.074 33.1504 664.06 32.5876 664.06 32.0361V29.3633H664.73V40H664.286L664.115 38.8652H664.06C663.495 39.7129 662.684 40.1367 661.626 40.1367C660.601 40.1367 659.817 39.8177 659.275 39.1797C658.732 38.5417 658.461 37.612 658.461 36.3906C658.461 35.1055 658.73 34.1234 659.268 33.4443C659.806 32.7653 660.587 32.4258 661.613 32.4258ZM661.613 33.041C660.801 33.041 660.191 33.3258 659.781 33.8955C659.375 34.4652 659.172 35.2923 659.172 36.377C659.172 38.4824 659.99 39.5352 661.626 39.5352C662.465 39.5352 663.08 39.2913 663.472 38.8037C663.864 38.3161 664.06 37.5117 664.06 36.3906V36.2744C664.06 35.126 663.866 34.3011 663.479 33.7998C663.096 33.2939 662.474 33.041 661.613 33.041ZM670.723 40.1367C669.643 40.1367 668.8 39.804 668.193 39.1387C667.592 38.4733 667.291 37.5413 667.291 36.3428C667.291 35.1579 667.583 34.21 668.166 33.499C668.749 32.7835 669.536 32.4258 670.525 32.4258C671.4 32.4258 672.09 32.7311 672.596 33.3418C673.102 33.9525 673.355 34.7819 673.355 35.8301V36.377H668.002C668.011 37.3978 668.248 38.1771 668.713 38.7148C669.182 39.2526 669.852 39.5215 670.723 39.5215C671.147 39.5215 671.518 39.4919 671.837 39.4326C672.161 39.3734 672.568 39.2458 673.061 39.0498V39.665C672.641 39.8473 672.254 39.9704 671.899 40.0342C671.543 40.1025 671.151 40.1367 670.723 40.1367ZM670.525 33.0273C669.809 33.0273 669.235 33.2643 668.802 33.7383C668.369 34.2077 668.116 34.8867 668.043 35.7754H672.637C672.637 34.9141 672.45 34.2419 672.076 33.7588C671.703 33.2712 671.185 33.0273 670.525 33.0273ZM678.821 32.4258C679.136 32.4258 679.473 32.4577 679.833 32.5215L679.703 33.1709C679.393 33.0934 679.072 33.0547 678.739 33.0547C678.106 33.0547 677.586 33.3236 677.181 33.8613C676.775 34.3991 676.572 35.0781 676.572 35.8984V40H675.895V32.5693H676.47L676.538 33.9092H676.586C676.891 33.3623 677.217 32.9795 677.563 32.7607C677.91 32.5374 678.329 32.4258 678.821 32.4258ZM686.448 38.0654C686.448 38.7308 686.195 39.2435 685.689 39.6035C685.183 39.959 684.465 40.1367 683.536 40.1367C682.542 40.1367 681.754 39.984 681.171 39.6787V38.9473C681.918 39.321 682.706 39.5078 683.536 39.5078C684.27 39.5078 684.825 39.387 685.204 39.1455C685.587 38.8994 685.778 38.5736 685.778 38.168C685.778 37.7943 685.625 37.4798 685.32 37.2246C685.019 36.9694 684.522 36.7188 683.83 36.4727C683.087 36.2038 682.565 35.9736 682.264 35.7822C681.964 35.5863 681.736 35.3675 681.581 35.126C681.43 34.8799 681.355 34.5814 681.355 34.2305C681.355 33.6745 681.588 33.2347 682.052 32.9111C682.522 32.5876 683.176 32.4258 684.014 32.4258C684.816 32.4258 685.577 32.5762 686.298 32.877L686.045 33.4922C685.315 33.1914 684.639 33.041 684.014 33.041C683.408 33.041 682.927 33.1413 682.572 33.3418C682.216 33.5423 682.039 33.8203 682.039 34.1758C682.039 34.5632 682.175 34.873 682.449 35.1055C682.727 35.3379 683.267 35.5977 684.069 35.8848C684.739 36.1263 685.227 36.3451 685.532 36.541C685.837 36.7324 686.065 36.9512 686.215 37.1973C686.37 37.4434 686.448 37.7327 686.448 38.0654Z" fill="white"/>
<line x1="549" y1="35" x2="559" y2="35" stroke="url(#paint5_linear)" stroke-width="10" stroke-linecap="round"/>
<defs>
<filter id="filter0_d" x="0" y="0" width="80" height="70" filterUnits="userSpaceOnUse" color-interpolation-filters="sRGB">
<feFlood flood-opacity="0" result="BackgroundImageFix"/>
<feColorMatrix in="SourceAlpha" type="matrix" values="0 0 0 0 0 0 0 0 0 0 0 0 0 0 0 0 0 0 127 0"/>
<feOffset/>
<feGaussianBlur stdDeviation="15"/>
<feColorMatrix type="matrix" values="0 0 0 0 0 0 0 0 0 0 0 0 0 0 0 0 0 0 1 0"/>
<feBlend mode="normal" in2="BackgroundImageFix" result="effect1_dropShadow"/>
<feBlend mode="normal" in="SourceGraphic" in2="effect1_dropShadow" result="shape"/>
</filter>
<filter id="filter1_d" x="191" y="0" width="80" height="70" filterUnits="userSpaceOnUse" color-interpolation-filters="sRGB">
<feFlood flood-opacity="0" result="BackgroundImageFix"/>
<feColorMatrix in="SourceAlpha" type="matrix" values="0 0 0 0 0 0 0 0 0 0 0 0 0 0 0 0 0 0 127 0"/>
<feOffset/>
<feGaussianBlur stdDeviation="15"/>
<feColorMatrix type="matrix" values="0 0 0 0 0 0 0 0 0 0 0 0 0 0 0 0 0 0 1 0"/>
<feBlend mode="normal" in2="BackgroundImageFix" result="effect1_dropShadow"/>
<feBlend mode="normal" in="SourceGraphic" in2="effect1_dropShadow" result="shape"/>
</filter>
<filter id="filter2_d" x="359" y="0" width="80" height="70" filterUnits="userSpaceOnUse" color-interpolation-filters="sRGB">
<feFlood flood-opacity="0" result="BackgroundImageFix"/>
<feColorMatrix in="SourceAlpha" type="matrix" values="0 0 0 0 0 0 0 0 0 0 0 0 0 0 0 0 0 0 127 0"/>
<feOffset/>
<feGaussianBlur stdDeviation="15"/>
<feColorMatrix type="matrix" values="0 0 0 0 0 0 0 0 0 0 0 0 0 0 0 0 0 0 1 0"/>
<feBlend mode="normal" in2="BackgroundImageFix" result="effect1_dropShadow"/>
<feBlend mode="normal" in="SourceGraphic" in2="effect1_dropShadow" result="shape"/>
</filter>
<filter id="filter3_d" x="678" y="0" width="80" height="70" filterUnits="userSpaceOnUse" color-interpolation-filters="sRGB">
<feFlood flood-opacity="0" result="BackgroundImageFix"/>
<feColorMatrix in="SourceAlpha" type="matrix" values="0 0 0 0 0 0 0 0 0 0 0 0 0 0 0 0 0 0 127 0"/>
<feOffset/>
<feGaussianBlur stdDeviation="15"/>
<feColorMatrix type="matrix" values="0 0 0 0 0 0 0 0 0 0 0 0 0 0 0 0 0 0 1 0"/>
<feBlend mode="normal" in2="BackgroundImageFix" result="effect1_dropShadow"/>
<feBlend mode="normal" in="SourceGraphic" in2="effect1_dropShadow" result="shape"/>
</filter>
<linearGradient id="paint0_linear" x1="30" y1="40" x2="50" y2="40" gradientUnits="userSpaceOnUse">
<stop stop-color="#65A6F2"/>
<stop offset="1" stop-color="#22BBDD"/>
</linearGradient>
<linearGradient id="paint1_linear" x1="150" y1="40" x2="130" y2="40" gradientUnits="userSpaceOnUse">
<stop stop-color="#E01E73"/>
<stop offset="1" stop-color="#FF7272"/>
</linearGradient>
<linearGradient id="paint2_linear" x1="241" y1="40" x2="221" y2="40" gradientUnits="userSpaceOnUse">
<stop stop-color="#FF9D0A"/>
<stop offset="1" stop-color="#FEFFC7"/>
</linearGradient>
<linearGradient id="paint3_linear" x1="389" y1="40" x2="409" y2="40" gradientUnits="userSpaceOnUse">
<stop stop-color="#B4FABD"/>
<stop offset="1" stop-color="#22DD9A"/>
</linearGradient>
<linearGradient id="paint4_linear" x1="708" y1="40" x2="728" y2="40" gradientUnits="userSpaceOnUse">
<stop stop-color="#FA1DBC"/>
<stop offset="1" stop-color="#A122DD"/>
</linearGradient>
<linearGradient id="paint5_linear" x1="564" y1="40" x2="544" y2="40" gradientUnits="userSpaceOnUse">
<stop stop-color="#C41005"/>
<stop offset="1" stop-color="#DD5E16"/>
</linearGradient>
</defs>
</svg>
