<svg width="379" height="169" viewBox="0 0 379 169" fill="none" xmlns="http://www.w3.org/2000/svg">
<g opacity="0.2">
<g filter="url(#filter0_d)">
<line x1="167.753" y1="32.6493" x2="173.623" y2="32.6493" stroke="url(#paint0_linear)" stroke-width="4" stroke-linecap="round"/>
</g>
<line x1="167.753" y1="53.3766" x2="173.623" y2="53.3766" stroke="url(#paint1_linear)" stroke-width="4" stroke-linecap="round"/>
<g filter="url(#filter1_d)">
<line x1="167.753" y1="74.1039" x2="173.623" y2="74.1039" stroke="url(#paint2_linear)" stroke-width="4" stroke-linecap="round" stroke-linejoin="round"/>
</g>
<g filter="url(#filter2_d)">
<line x1="167.753" y1="95.8181" x2="173.623" y2="95.8181" stroke="url(#paint3_linear)" stroke-width="4" stroke-linecap="round"/>
</g>
<line x1="167.753" y1="116.545" x2="173.623" y2="116.545" stroke="url(#paint4_linear)" stroke-width="4" stroke-linecap="round"/>
<g filter="url(#filter3_d)">
<line x1="167.753" y1="136.286" x2="173.623" y2="136.286" stroke="url(#paint5_linear)" stroke-width="4" stroke-linecap="round"/>
</g>
<path d="M190.361 33.244H190.959C191.518 33.244 191.936 33.1346 192.213 32.9159C192.49 32.6932 192.629 32.371 192.629 31.9491C192.629 31.5233 192.512 31.2089 192.277 31.0057C192.047 30.8026 191.684 30.701 191.188 30.701H190.361V33.244ZM194.463 31.8846C194.463 32.8065 194.174 33.5116 193.596 33.9999C193.021 34.4882 192.203 34.7323 191.141 34.7323H190.361V37.7792H188.545V29.2128H191.281C192.32 29.2128 193.109 29.4374 193.648 29.8866C194.191 30.3319 194.463 30.9979 194.463 31.8846ZM199.596 31.1053C199.838 31.1053 200.039 31.1229 200.199 31.1581L200.064 32.8339C199.92 32.7948 199.744 32.7753 199.537 32.7753C198.967 32.7753 198.521 32.9218 198.201 33.2147C197.885 33.5077 197.727 33.9178 197.727 34.4452V37.7792H195.939V31.2284H197.293L197.557 32.33H197.645C197.848 31.9628 198.121 31.6678 198.465 31.4452C198.812 31.2186 199.189 31.1053 199.596 31.1053ZM204.102 32.3768C203.723 32.3768 203.426 32.4979 203.211 32.7401C202.996 32.9784 202.873 33.3182 202.842 33.7596H205.35C205.342 33.3182 205.227 32.9784 205.004 32.7401C204.781 32.4979 204.48 32.3768 204.102 32.3768ZM204.354 37.8964C203.299 37.8964 202.475 37.6053 201.881 37.0233C201.287 36.4413 200.99 35.6171 200.99 34.5507C200.99 33.453 201.264 32.6053 201.811 32.0077C202.361 31.4061 203.121 31.1053 204.09 31.1053C205.016 31.1053 205.736 31.369 206.252 31.8964C206.768 32.4237 207.025 33.1522 207.025 34.0819V34.9491H202.801C202.82 35.4569 202.971 35.8534 203.252 36.1385C203.533 36.4237 203.928 36.5663 204.436 36.5663C204.83 36.5663 205.203 36.5253 205.555 36.4432C205.906 36.3612 206.273 36.2303 206.656 36.0507V37.4335C206.344 37.5897 206.01 37.705 205.654 37.7792C205.299 37.8573 204.865 37.8964 204.354 37.8964ZM213.049 35.8339C213.049 36.5057 212.814 37.0175 212.346 37.369C211.881 37.7206 211.184 37.8964 210.254 37.8964C209.777 37.8964 209.371 37.8632 209.035 37.7968C208.699 37.7343 208.385 37.6405 208.092 37.5155V36.0389C208.424 36.1952 208.797 36.326 209.211 36.4315C209.629 36.537 209.996 36.5897 210.312 36.5897C210.961 36.5897 211.285 36.4022 211.285 36.0272C211.285 35.8866 211.242 35.7733 211.156 35.6874C211.07 35.5975 210.922 35.4979 210.711 35.3885C210.5 35.2753 210.219 35.1444 209.867 34.996C209.363 34.785 208.992 34.5897 208.754 34.41C208.52 34.2303 208.348 34.0253 208.238 33.7948C208.133 33.5604 208.08 33.2733 208.08 32.9335C208.08 32.3514 208.305 31.9022 208.754 31.5858C209.207 31.2655 209.848 31.1053 210.676 31.1053C211.465 31.1053 212.232 31.2772 212.979 31.621L212.439 32.91C212.111 32.7694 211.805 32.6542 211.52 32.5643C211.234 32.4745 210.943 32.4296 210.646 32.4296C210.119 32.4296 209.855 32.5721 209.855 32.8573C209.855 33.0175 209.939 33.1561 210.107 33.2733C210.279 33.3905 210.652 33.5643 211.227 33.7948C211.738 34.0018 212.113 34.1952 212.352 34.3749C212.59 34.5546 212.766 34.7616 212.879 34.996C212.992 35.2303 213.049 35.5096 213.049 35.8339ZM218.604 37.7792L218.258 36.8885H218.211C217.91 37.2675 217.6 37.5311 217.279 37.6796C216.963 37.8241 216.549 37.8964 216.037 37.8964C215.408 37.8964 214.912 37.7167 214.549 37.3573C214.189 36.9979 214.01 36.4862 214.01 35.8221C214.01 35.1268 214.252 34.6151 214.736 34.287C215.225 33.955 215.959 33.7714 216.939 33.7362L218.076 33.701V33.4139C218.076 32.7499 217.736 32.4178 217.057 32.4178C216.533 32.4178 215.918 32.576 215.211 32.8925L214.619 31.6854C215.373 31.2909 216.209 31.0936 217.127 31.0936C218.006 31.0936 218.68 31.285 219.148 31.6678C219.617 32.0507 219.852 32.6327 219.852 33.4139V37.7792H218.604ZM218.076 34.744L217.385 34.7675C216.865 34.7831 216.479 34.8768 216.225 35.0487C215.971 35.2206 215.844 35.4823 215.844 35.8339C215.844 36.3378 216.133 36.5897 216.711 36.5897C217.125 36.5897 217.455 36.4706 217.701 36.2323C217.951 35.994 218.076 35.6776 218.076 35.2831V34.744ZM223.484 37.7792H221.697V28.662H223.484V37.7792ZM228.078 32.3768C227.699 32.3768 227.402 32.4979 227.188 32.7401C226.973 32.9784 226.85 33.3182 226.818 33.7596H229.326C229.318 33.3182 229.203 32.9784 228.98 32.7401C228.758 32.4979 228.457 32.3768 228.078 32.3768ZM228.33 37.8964C227.275 37.8964 226.451 37.6053 225.857 37.0233C225.264 36.4413 224.967 35.6171 224.967 34.5507C224.967 33.453 225.24 32.6053 225.787 32.0077C226.338 31.4061 227.098 31.1053 228.066 31.1053C228.992 31.1053 229.713 31.369 230.229 31.8964C230.744 32.4237 231.002 33.1522 231.002 34.0819V34.9491H226.777C226.797 35.4569 226.947 35.8534 227.229 36.1385C227.51 36.4237 227.904 36.5663 228.412 36.5663C228.807 36.5663 229.18 36.5253 229.531 36.4432C229.883 36.3612 230.25 36.2303 230.633 36.0507V37.4335C230.32 37.5897 229.986 37.705 229.631 37.7792C229.275 37.8573 228.842 37.8964 228.33 37.8964ZM232.203 36.9413C232.203 36.6132 232.291 36.3651 232.467 36.1971C232.643 36.0292 232.898 35.9452 233.234 35.9452C233.559 35.9452 233.809 36.0311 233.984 36.203C234.164 36.3749 234.254 36.621 234.254 36.9413C234.254 37.2499 234.164 37.494 233.984 37.6737C233.805 37.8495 233.555 37.9374 233.234 37.9374C232.906 37.9374 232.652 37.8514 232.473 37.6796C232.293 37.5038 232.203 37.2577 232.203 36.9413ZM232.203 32.1014C232.203 31.7733 232.291 31.5253 232.467 31.3573C232.643 31.1893 232.898 31.1053 233.234 31.1053C233.559 31.1053 233.809 31.1913 233.984 31.3632C234.164 31.535 234.254 31.7811 234.254 32.1014C234.254 32.4178 234.162 32.6639 233.979 32.8397C233.799 33.0116 233.551 33.0975 233.234 33.0975C232.906 33.0975 232.652 33.0116 232.473 32.8397C232.293 32.6678 232.203 32.4218 232.203 32.1014ZM241.203 32.6288C242.117 32.6288 242.836 32.8495 243.359 33.2909C243.887 33.7323 244.15 34.3397 244.15 35.1132C244.15 35.9921 243.877 36.6757 243.33 37.1639C242.783 37.6522 242.029 37.8964 241.068 37.8964C240.643 37.8964 240.238 37.8553 239.855 37.7733C239.473 37.6874 239.152 37.5663 238.895 37.41V36.8065C239.316 37.0214 239.691 37.1718 240.02 37.2577C240.348 37.3397 240.697 37.3807 241.068 37.3807C241.818 37.3807 242.42 37.1835 242.873 36.7889C243.326 36.3905 243.553 35.8534 243.553 35.1776C243.553 34.5409 243.332 34.0409 242.891 33.6776C242.449 33.3143 241.85 33.1327 241.092 33.1327C240.584 33.1327 240.053 33.2089 239.498 33.3612L239.146 33.1327L239.486 29.2128H243.611V29.7753H240.037L239.773 32.7987C240.383 32.6854 240.859 32.6288 241.203 32.6288ZM249.893 37.7792L246.699 29.869H246.652C246.684 30.3534 246.699 30.8495 246.699 31.3573V37.7792H246.125V29.2128H247.051L250.086 36.7479H250.121L253.156 29.2128H254.059V37.7792H253.455V31.287C253.455 30.8339 253.479 30.3651 253.525 29.8807H253.479L250.273 37.7792H249.893ZM258.928 34.7792V34.2987H261.711V34.7792H258.928ZM272.059 35.5936H270.582V37.7792H270.031V35.5936H265.625V35.201L269.873 29.1659H270.582V35.0897H272.059V35.5936ZM270.031 35.0897V32.6405C270.031 31.4608 270.059 30.4706 270.113 29.6698H270.066C269.988 29.8143 269.748 30.1815 269.346 30.7714L266.322 35.0897H270.031ZM278.252 37.7792H272.891V37.2635L275.17 34.8846C275.811 34.2206 276.26 33.7128 276.518 33.3612C276.775 33.0096 276.965 32.6737 277.086 32.3534C277.207 32.0331 277.268 31.6971 277.268 31.3456C277.268 30.8339 277.1 30.4178 276.764 30.0975C276.428 29.7772 275.992 29.6171 275.457 29.6171C274.742 29.6171 274.059 29.8768 273.406 30.3964L273.09 29.9921C273.805 29.3905 274.598 29.0897 275.469 29.0897C276.215 29.0897 276.801 29.2889 277.227 29.6874C277.656 30.0858 277.871 30.6346 277.871 31.3339C277.871 31.9003 277.727 32.4491 277.438 32.9803C277.152 33.5077 276.629 34.16 275.867 34.9374L273.67 37.1932V37.2167H278.252V37.7792ZM280.033 37.3221C280.033 36.9393 280.189 36.7479 280.502 36.7479C280.822 36.7479 280.982 36.9393 280.982 37.3221C280.982 37.705 280.822 37.8964 280.502 37.8964C280.189 37.8964 280.033 37.705 280.033 37.3221ZM285.939 37.7792H285.365V31.5389C285.365 30.9725 285.389 30.3846 285.436 29.7753C285.377 29.8339 285.316 29.8905 285.254 29.9452C285.191 29.9999 284.588 30.4745 283.443 31.369L283.109 30.953L285.436 29.2128H285.939V37.7792ZM290.035 31.7675C290.035 32.494 290.123 33.0409 290.299 33.4081C290.475 33.7714 290.75 33.953 291.125 33.953C291.879 33.953 292.256 33.2245 292.256 31.7675C292.256 31.0487 292.158 30.5096 291.963 30.1503C291.771 29.787 291.492 29.6053 291.125 29.6053C290.75 29.6053 290.475 29.787 290.299 30.1503C290.123 30.5096 290.035 31.0487 290.035 31.7675ZM292.83 31.7675C292.83 32.6503 292.684 33.3221 292.391 33.7831C292.098 34.2401 291.676 34.4686 291.125 34.4686C290.605 34.4686 290.197 34.2343 289.9 33.7655C289.607 33.2928 289.461 32.6268 289.461 31.7675C289.461 30.8964 289.602 30.2323 289.883 29.7753C290.164 29.3182 290.578 29.0897 291.125 29.0897C291.668 29.0897 292.088 29.326 292.385 29.7987C292.682 30.2675 292.83 30.9237 292.83 31.7675ZM295.027 35.2128C295.027 35.9354 295.115 36.4784 295.291 36.8417C295.467 37.201 295.742 37.3807 296.117 37.3807C296.871 37.3807 297.248 36.6581 297.248 35.2128C297.248 33.7714 296.871 33.0507 296.117 33.0507C295.742 33.0507 295.467 33.2303 295.291 33.5897C295.115 33.9452 295.027 34.4862 295.027 35.2128ZM297.822 35.2128C297.822 36.0956 297.678 36.7675 297.389 37.2284C297.1 37.6854 296.68 37.9139 296.129 37.9139C295.598 37.9139 295.186 37.6776 294.893 37.205C294.6 36.7284 294.453 36.0643 294.453 35.2128C294.453 34.3339 294.596 33.6678 294.881 33.2147C295.17 32.7616 295.586 32.535 296.129 32.535C296.664 32.535 297.08 32.7694 297.377 33.2382C297.674 33.7069 297.822 34.3651 297.822 35.2128ZM296.299 29.2128L291.547 37.7792H290.984L295.736 29.2128H296.299Z" fill="white"/>
<path d="M190.361 53.9713H190.959C191.518 53.9713 191.936 53.8619 192.213 53.6432C192.49 53.4205 192.629 53.0983 192.629 52.6764C192.629 52.2506 192.512 51.9362 192.277 51.733C192.047 51.5299 191.684 51.4283 191.188 51.4283H190.361V53.9713ZM194.463 52.6119C194.463 53.5338 194.174 54.2389 193.596 54.7272C193.021 55.2155 192.203 55.4596 191.141 55.4596H190.361V58.5065H188.545V49.9401H191.281C192.32 49.9401 193.109 50.1647 193.648 50.6139C194.191 51.0592 194.463 51.7252 194.463 52.6119ZM200.58 58.5065L200.34 57.6686H200.246C200.055 57.9733 199.783 58.2096 199.432 58.3776C199.08 58.5416 198.68 58.6237 198.23 58.6237C197.461 58.6237 196.881 58.4186 196.49 58.0084C196.1 57.5944 195.904 57.0006 195.904 56.2272V51.9557H197.691V55.7819C197.691 56.2545 197.775 56.61 197.943 56.8483C198.111 57.0826 198.379 57.1998 198.746 57.1998C199.246 57.1998 199.607 57.0338 199.83 56.7018C200.053 56.3658 200.164 55.8112 200.164 55.0377V51.9557H201.951V58.5065H200.58ZM207.471 51.8326C208.244 51.8326 208.85 52.1354 209.287 52.7408C209.725 53.3424 209.943 54.1686 209.943 55.2194C209.943 56.3014 209.717 57.1393 209.264 57.733C208.814 58.3268 208.201 58.6237 207.424 58.6237C206.654 58.6237 206.051 58.3444 205.613 57.7858H205.49L205.191 58.5065H203.826V49.3893H205.613V51.5104C205.613 51.7799 205.59 52.2115 205.543 52.8053H205.613C206.031 52.1569 206.65 51.8326 207.471 51.8326ZM206.896 53.2623C206.455 53.2623 206.133 53.399 205.93 53.6725C205.727 53.942 205.621 54.3893 205.613 55.0143V55.2076C205.613 55.9108 205.717 56.4147 205.924 56.7194C206.135 57.024 206.467 57.1764 206.92 57.1764C207.287 57.1764 207.578 57.0084 207.793 56.6725C208.012 56.3326 208.121 55.8405 208.121 55.1959C208.121 54.5514 208.012 54.069 207.793 53.7487C207.574 53.4244 207.275 53.2623 206.896 53.2623ZM213.207 58.5065H211.42V49.3893H213.207V58.5065ZM215.012 50.2623C215.012 49.6803 215.336 49.3893 215.984 49.3893C216.633 49.3893 216.957 49.6803 216.957 50.2623C216.957 50.5397 216.875 50.7565 216.711 50.9127C216.551 51.0651 216.309 51.1412 215.984 51.1412C215.336 51.1412 215.012 50.8483 215.012 50.2623ZM216.875 58.5065H215.088V51.9557H216.875V58.5065ZM221.416 58.6237C219.377 58.6237 218.357 57.5045 218.357 55.2662C218.357 54.153 218.635 53.3033 219.189 52.7174C219.744 52.1276 220.539 51.8326 221.574 51.8326C222.332 51.8326 223.012 51.9811 223.613 52.278L223.086 53.6608C222.805 53.5475 222.543 53.4557 222.301 53.3854C222.059 53.3112 221.816 53.274 221.574 53.274C220.645 53.274 220.18 53.9342 220.18 55.2545C220.18 56.5358 220.645 57.1764 221.574 57.1764C221.918 57.1764 222.236 57.1315 222.529 57.0416C222.822 56.9479 223.115 56.8033 223.408 56.608V58.1373C223.119 58.3209 222.826 58.4479 222.529 58.5182C222.236 58.5885 221.865 58.6237 221.416 58.6237ZM224.68 57.6686C224.68 57.3405 224.768 57.0924 224.943 56.9244C225.119 56.7565 225.375 56.6725 225.711 56.6725C226.035 56.6725 226.285 56.7584 226.461 56.9303C226.641 57.1022 226.73 57.3483 226.73 57.6686C226.73 57.9772 226.641 58.2213 226.461 58.401C226.281 58.5768 226.031 58.6647 225.711 58.6647C225.383 58.6647 225.129 58.5787 224.949 58.4069C224.77 58.2311 224.68 57.985 224.68 57.6686ZM224.68 52.8287C224.68 52.5006 224.768 52.2526 224.943 52.0846C225.119 51.9166 225.375 51.8326 225.711 51.8326C226.035 51.8326 226.285 51.9186 226.461 52.0905C226.641 52.2623 226.73 52.5084 226.73 52.8287C226.73 53.1451 226.639 53.3912 226.455 53.567C226.275 53.7389 226.027 53.8248 225.711 53.8248C225.383 53.8248 225.129 53.7389 224.949 53.567C224.77 53.3951 224.68 53.149 224.68 52.8287ZM231.301 54.8561C231.301 53.7428 231.451 52.8073 231.752 52.0494C232.057 51.2877 232.486 50.7233 233.041 50.3561C233.6 49.9889 234.271 49.8053 235.057 49.8053C235.424 49.8053 235.76 49.8502 236.064 49.9401V50.4557C235.779 50.3502 235.436 50.2975 235.033 50.2975C234.068 50.2975 233.316 50.6451 232.777 51.3405C232.242 52.0358 231.941 53.0475 231.875 54.3756H231.951C232.248 53.9928 232.588 53.7037 232.971 53.5084C233.354 53.3131 233.758 53.2155 234.184 53.2155C234.984 53.2155 235.609 53.444 236.059 53.901C236.512 54.358 236.738 54.9889 236.738 55.7936C236.738 56.6686 236.5 57.36 236.023 57.8678C235.551 58.3717 234.912 58.6237 234.107 58.6237C233.24 58.6237 232.555 58.2936 232.051 57.6334C231.551 56.9694 231.301 56.0436 231.301 54.8561ZM234.107 58.108C234.748 58.108 235.246 57.9069 235.602 57.5045C235.957 57.1022 236.135 56.528 236.135 55.7819C236.135 55.1256 235.959 54.6139 235.607 54.2467C235.256 53.8795 234.777 53.6959 234.172 53.6959C233.773 53.6959 233.402 53.7838 233.059 53.9596C232.719 54.1354 232.447 54.3698 232.244 54.6627C232.041 54.9518 231.939 55.2487 231.939 55.5533C231.939 55.9869 232.035 56.4049 232.227 56.8073C232.422 57.2057 232.684 57.5221 233.012 57.7565C233.344 57.9908 233.709 58.108 234.107 58.108ZM238.338 58.0494C238.338 57.6666 238.494 57.4752 238.807 57.4752C239.127 57.4752 239.287 57.6666 239.287 58.0494C239.287 58.4323 239.127 58.6237 238.807 58.6237C238.494 58.6237 238.338 58.4323 238.338 58.0494ZM246.271 58.5065H240.91V57.9908L243.189 55.6119C243.83 54.9479 244.279 54.4401 244.537 54.0885C244.795 53.7369 244.984 53.401 245.105 53.0807C245.227 52.7604 245.287 52.4244 245.287 52.0729C245.287 51.5612 245.119 51.1451 244.783 50.8248C244.447 50.5045 244.012 50.3444 243.477 50.3444C242.762 50.3444 242.078 50.6041 241.426 51.1237L241.109 50.7194C241.824 50.1178 242.617 49.817 243.488 49.817C244.234 49.817 244.82 50.0162 245.246 50.4147C245.676 50.8131 245.891 51.3619 245.891 52.0612C245.891 52.6276 245.746 53.1764 245.457 53.7076C245.172 54.235 244.648 54.8873 243.887 55.6647L241.689 57.9205V57.944H246.271V58.5065ZM250.25 53.3561C251.164 53.3561 251.883 53.5768 252.406 54.0182C252.934 54.4596 253.197 55.067 253.197 55.8405C253.197 56.7194 252.924 57.403 252.377 57.8912C251.83 58.3795 251.076 58.6237 250.115 58.6237C249.689 58.6237 249.285 58.5826 248.902 58.5006C248.52 58.4147 248.199 58.2936 247.941 58.1373V57.5338C248.363 57.7487 248.738 57.899 249.066 57.985C249.395 58.067 249.744 58.108 250.115 58.108C250.865 58.108 251.467 57.9108 251.92 57.5162C252.373 57.1178 252.6 56.5807 252.6 55.9049C252.6 55.2682 252.379 54.7682 251.938 54.4049C251.496 54.0416 250.896 53.86 250.139 53.86C249.631 53.86 249.1 53.9362 248.545 54.0885L248.193 53.86L248.533 49.9401H252.658V50.5026H249.084L248.82 53.526C249.43 53.4127 249.906 53.3561 250.25 53.3561ZM258.939 58.5065L255.746 50.5963H255.699C255.73 51.0807 255.746 51.5768 255.746 52.0846V58.5065H255.172V49.9401H256.098L259.133 57.4752H259.168L262.203 49.9401H263.105V58.5065H262.502V52.0143C262.502 51.5612 262.525 51.0924 262.572 50.608H262.525L259.32 58.5065H258.939ZM267.975 55.5065V55.026H270.758V55.5065H267.975ZM277.566 53.3561C278.48 53.3561 279.199 53.5768 279.723 54.0182C280.25 54.4596 280.514 55.067 280.514 55.8405C280.514 56.7194 280.24 57.403 279.693 57.8912C279.146 58.3795 278.393 58.6237 277.432 58.6237C277.006 58.6237 276.602 58.5826 276.219 58.5006C275.836 58.4147 275.516 58.2936 275.258 58.1373V57.5338C275.68 57.7487 276.055 57.899 276.383 57.985C276.711 58.067 277.061 58.108 277.432 58.108C278.182 58.108 278.783 57.9108 279.236 57.5162C279.689 57.1178 279.916 56.5807 279.916 55.9049C279.916 55.2682 279.695 54.7682 279.254 54.4049C278.812 54.0416 278.213 53.86 277.455 53.86C276.947 53.86 276.416 53.9362 275.861 54.0885L275.51 53.86L275.85 49.9401H279.975V50.5026H276.4L276.137 53.526C276.746 53.4127 277.223 53.3561 277.566 53.3561ZM287.299 58.5065H281.938V57.9908L284.217 55.6119C284.857 54.9479 285.307 54.4401 285.564 54.0885C285.822 53.7369 286.012 53.401 286.133 53.0807C286.254 52.7604 286.314 52.4244 286.314 52.0729C286.314 51.5612 286.146 51.1451 285.811 50.8248C285.475 50.5045 285.039 50.3444 284.504 50.3444C283.789 50.3444 283.105 50.6041 282.453 51.1237L282.137 50.7194C282.852 50.1178 283.645 49.817 284.516 49.817C285.262 49.817 285.848 50.0162 286.273 50.4147C286.703 50.8131 286.918 51.3619 286.918 52.0612C286.918 52.6276 286.773 53.1764 286.484 53.7076C286.199 54.235 285.676 54.8873 284.914 55.6647L282.717 57.9205V57.944H287.299V58.5065ZM289.08 58.0494C289.08 57.6666 289.236 57.4752 289.549 57.4752C289.869 57.4752 290.029 57.6666 290.029 58.0494C290.029 58.4323 289.869 58.6237 289.549 58.6237C289.236 58.6237 289.08 58.4323 289.08 58.0494ZM291.758 54.8561C291.758 53.7428 291.908 52.8073 292.209 52.0494C292.514 51.2877 292.943 50.7233 293.498 50.3561C294.057 49.9889 294.729 49.8053 295.514 49.8053C295.881 49.8053 296.217 49.8502 296.521 49.9401V50.4557C296.236 50.3502 295.893 50.2975 295.49 50.2975C294.525 50.2975 293.773 50.6451 293.234 51.3405C292.699 52.0358 292.398 53.0475 292.332 54.3756H292.408C292.705 53.9928 293.045 53.7037 293.428 53.5084C293.811 53.3131 294.215 53.2155 294.641 53.2155C295.441 53.2155 296.066 53.444 296.516 53.901C296.969 54.358 297.195 54.9889 297.195 55.7936C297.195 56.6686 296.957 57.36 296.48 57.8678C296.008 58.3717 295.369 58.6237 294.564 58.6237C293.697 58.6237 293.012 58.2936 292.508 57.6334C292.008 56.9694 291.758 56.0436 291.758 54.8561ZM294.564 58.108C295.205 58.108 295.703 57.9069 296.059 57.5045C296.414 57.1022 296.592 56.528 296.592 55.7819C296.592 55.1256 296.416 54.6139 296.064 54.2467C295.713 53.8795 295.234 53.6959 294.629 53.6959C294.23 53.6959 293.859 53.7838 293.516 53.9596C293.176 54.1354 292.904 54.3698 292.701 54.6627C292.498 54.9518 292.396 55.2487 292.396 55.5533C292.396 55.9869 292.492 56.4049 292.684 56.8073C292.879 57.2057 293.141 57.5221 293.469 57.7565C293.801 57.9908 294.166 58.108 294.564 58.108ZM299.082 52.4948C299.082 53.2213 299.17 53.7682 299.346 54.1354C299.521 54.4987 299.797 54.6803 300.172 54.6803C300.926 54.6803 301.303 53.9518 301.303 52.4948C301.303 51.776 301.205 51.2369 301.01 50.8776C300.818 50.5143 300.539 50.3326 300.172 50.3326C299.797 50.3326 299.521 50.5143 299.346 50.8776C299.17 51.2369 299.082 51.776 299.082 52.4948ZM301.877 52.4948C301.877 53.3776 301.73 54.0494 301.438 54.5104C301.145 54.9674 300.723 55.1959 300.172 55.1959C299.652 55.1959 299.244 54.9615 298.947 54.4928C298.654 54.0201 298.508 53.3541 298.508 52.4948C298.508 51.6237 298.648 50.9596 298.93 50.5026C299.211 50.0455 299.625 49.817 300.172 49.817C300.715 49.817 301.135 50.0533 301.432 50.526C301.729 50.9948 301.877 51.651 301.877 52.4948ZM304.074 55.9401C304.074 56.6627 304.162 57.2057 304.338 57.569C304.514 57.9283 304.789 58.108 305.164 58.108C305.918 58.108 306.295 57.3854 306.295 55.9401C306.295 54.4987 305.918 53.778 305.164 53.778C304.789 53.778 304.514 53.9576 304.338 54.317C304.162 54.6725 304.074 55.2135 304.074 55.9401ZM306.869 55.9401C306.869 56.8229 306.725 57.4948 306.436 57.9557C306.146 58.4127 305.727 58.6412 305.176 58.6412C304.645 58.6412 304.232 58.4049 303.939 57.9323C303.646 57.4557 303.5 56.7916 303.5 55.9401C303.5 55.0612 303.643 54.3951 303.928 53.942C304.217 53.4889 304.633 53.2623 305.176 53.2623C305.711 53.2623 306.127 53.4967 306.424 53.9655C306.721 54.4342 306.869 55.0924 306.869 55.9401ZM305.346 49.9401L300.594 58.5065H300.031L304.783 49.9401H305.346Z" fill="white"/>
<path d="M190.332 79.2338H188.545V70.6674H193.455V72.1556H190.332V74.3646H193.238V75.847H190.332V79.2338ZM196.414 75.9467C196.414 76.5951 196.52 77.0853 196.73 77.4174C196.945 77.7494 197.293 77.9154 197.773 77.9154C198.25 77.9154 198.592 77.7513 198.799 77.4232C199.01 77.0912 199.115 76.599 199.115 75.9467C199.115 75.2982 199.01 74.8119 198.799 74.4877C198.588 74.1635 198.242 74.0013 197.762 74.0013C197.285 74.0013 196.941 74.1635 196.73 74.4877C196.52 74.808 196.414 75.2943 196.414 75.9467ZM200.943 75.9467C200.943 77.0131 200.662 77.847 200.1 78.4486C199.537 79.0502 198.754 79.351 197.75 79.351C197.121 79.351 196.566 79.2142 196.086 78.9408C195.605 78.6635 195.236 78.267 194.979 77.7513C194.721 77.2357 194.592 76.6342 194.592 75.9467C194.592 74.8763 194.871 74.0443 195.43 73.4506C195.988 72.8568 196.773 72.5599 197.785 72.5599C198.414 72.5599 198.969 72.6967 199.449 72.9701C199.93 73.2435 200.299 73.6361 200.557 74.1478C200.814 74.6595 200.943 75.2592 200.943 75.9467ZM207.061 79.2338L206.82 78.3959H206.727C206.535 78.7006 206.264 78.9369 205.912 79.1049C205.561 79.2689 205.16 79.351 204.711 79.351C203.941 79.351 203.361 79.1459 202.971 78.7357C202.58 78.3217 202.385 77.7279 202.385 76.9545V72.683H204.172V76.5092C204.172 76.9818 204.256 77.3373 204.424 77.5756C204.592 77.8099 204.859 77.9271 205.227 77.9271C205.727 77.9271 206.088 77.7611 206.311 77.4291C206.533 77.0931 206.645 76.5385 206.645 75.765V72.683H208.432V79.2338H207.061ZM216.354 79.2338H214.566V75.4076C214.566 74.9349 214.482 74.5814 214.314 74.347C214.146 74.1088 213.879 73.9896 213.512 73.9896C213.012 73.9896 212.65 74.1576 212.428 74.4935C212.205 74.8256 212.094 75.3783 212.094 76.1517V79.2338H210.307V72.683H211.672L211.912 73.5209H212.012C212.211 73.2045 212.484 72.9662 212.832 72.806C213.184 72.642 213.582 72.5599 214.027 72.5599C214.789 72.5599 215.367 72.767 215.762 73.181C216.156 73.5912 216.354 74.1849 216.354 74.9623V79.2338ZM220.268 79.351C219.498 79.351 218.893 79.0521 218.451 78.4545C218.014 77.8568 217.795 77.0287 217.795 75.9701C217.795 74.8959 218.018 74.0599 218.463 73.4623C218.912 72.8607 219.529 72.5599 220.314 72.5599C221.139 72.5599 221.768 72.8802 222.201 73.5209H222.26C222.17 73.0326 222.125 72.597 222.125 72.2142V70.1166H223.918V79.2338H222.547L222.201 78.3842H222.125C221.719 79.0287 221.1 79.351 220.268 79.351ZM220.895 77.9271C221.352 77.9271 221.686 77.7943 221.896 77.5287C222.111 77.2631 222.229 76.8119 222.248 76.1752V75.9818C222.248 75.2787 222.139 74.7748 221.92 74.4701C221.705 74.1654 221.354 74.0131 220.865 74.0131C220.467 74.0131 220.156 74.183 219.934 74.5228C219.715 74.8588 219.605 75.349 219.605 75.9935C219.605 76.6381 219.717 77.1224 219.939 77.4467C220.162 77.767 220.48 77.9271 220.895 77.9271ZM233.979 79.2338H229.045V70.6674H233.979V72.1556H230.861V74.0365H233.762V75.5248H230.861V77.7338H233.979V79.2338ZM238.291 79.351C236.252 79.351 235.232 78.2318 235.232 75.9935C235.232 74.8802 235.51 74.0306 236.064 73.4447C236.619 72.8549 237.414 72.5599 238.449 72.5599C239.207 72.5599 239.887 72.7084 240.488 73.0052L239.961 74.3881C239.68 74.2748 239.418 74.183 239.176 74.1127C238.934 74.0385 238.691 74.0013 238.449 74.0013C237.52 74.0013 237.055 74.6615 237.055 75.9818C237.055 77.2631 237.52 77.9037 238.449 77.9037C238.793 77.9037 239.111 77.8588 239.404 77.7689C239.697 77.6752 239.99 77.5306 240.283 77.3353V78.8646C239.994 79.0482 239.701 79.1752 239.404 79.2455C239.111 79.3158 238.74 79.351 238.291 79.351ZM243.23 75.9467C243.23 76.5951 243.336 77.0853 243.547 77.4174C243.762 77.7494 244.109 77.9154 244.59 77.9154C245.066 77.9154 245.408 77.7513 245.615 77.4232C245.826 77.0912 245.932 76.599 245.932 75.9467C245.932 75.2982 245.826 74.8119 245.615 74.4877C245.404 74.1635 245.059 74.0013 244.578 74.0013C244.102 74.0013 243.758 74.1635 243.547 74.4877C243.336 74.808 243.23 75.2943 243.23 75.9467ZM247.76 75.9467C247.76 77.0131 247.479 77.847 246.916 78.4486C246.354 79.0502 245.57 79.351 244.566 79.351C243.938 79.351 243.383 79.2142 242.902 78.9408C242.422 78.6635 242.053 78.267 241.795 77.7513C241.537 77.2357 241.408 76.6342 241.408 75.9467C241.408 74.8763 241.688 74.0443 242.246 73.4506C242.805 72.8568 243.59 72.5599 244.602 72.5599C245.23 72.5599 245.785 72.6967 246.266 72.9701C246.746 73.2435 247.115 73.6361 247.373 74.1478C247.631 74.6595 247.76 75.2592 247.76 75.9467ZM253.807 77.2885C253.807 77.9603 253.572 78.472 253.104 78.8236C252.639 79.1752 251.941 79.351 251.012 79.351C250.535 79.351 250.129 79.3177 249.793 79.2513C249.457 79.1888 249.143 79.0951 248.85 78.9701V77.4935C249.182 77.6498 249.555 77.7806 249.969 77.8861C250.387 77.9916 250.754 78.0443 251.07 78.0443C251.719 78.0443 252.043 77.8568 252.043 77.4818C252.043 77.3412 252 77.2279 251.914 77.142C251.828 77.0521 251.68 76.9525 251.469 76.8431C251.258 76.7299 250.977 76.599 250.625 76.4506C250.121 76.2396 249.75 76.0443 249.512 75.8646C249.277 75.6849 249.105 75.4799 248.996 75.2494C248.891 75.015 248.838 74.7279 248.838 74.3881C248.838 73.806 249.062 73.3568 249.512 73.0404C249.965 72.7201 250.605 72.5599 251.434 72.5599C252.223 72.5599 252.99 72.7318 253.736 73.0756L253.197 74.3646C252.869 74.224 252.562 74.1088 252.277 74.0189C251.992 73.9291 251.701 73.8842 251.404 73.8842C250.877 73.8842 250.613 74.0267 250.613 74.3119C250.613 74.472 250.697 74.6107 250.865 74.7279C251.037 74.8451 251.41 75.0189 251.984 75.2494C252.496 75.4564 252.871 75.6498 253.109 75.8295C253.348 76.0092 253.523 76.2162 253.637 76.4506C253.75 76.6849 253.807 76.9642 253.807 77.2885ZM254.264 72.683H256.221L257.457 76.3685C257.562 76.6888 257.635 77.0677 257.674 77.5052H257.709C257.752 77.1029 257.836 76.724 257.961 76.3685L259.174 72.683H261.09L258.318 80.0717C258.064 80.7552 257.701 81.267 257.229 81.6068C256.76 81.9467 256.211 82.1166 255.582 82.1166C255.273 82.1166 254.971 82.0834 254.674 82.017V80.599C254.889 80.6498 255.123 80.6752 255.377 80.6752C255.693 80.6752 255.969 80.5775 256.203 80.3822C256.441 80.1908 256.627 79.8998 256.76 79.5092L256.865 79.1869L254.264 72.683ZM266.604 77.2885C266.604 77.9603 266.369 78.472 265.9 78.8236C265.436 79.1752 264.738 79.351 263.809 79.351C263.332 79.351 262.926 79.3177 262.59 79.2513C262.254 79.1888 261.939 79.0951 261.646 78.9701V77.4935C261.979 77.6498 262.352 77.7806 262.766 77.8861C263.184 77.9916 263.551 78.0443 263.867 78.0443C264.516 78.0443 264.84 77.8568 264.84 77.4818C264.84 77.3412 264.797 77.2279 264.711 77.142C264.625 77.0521 264.477 76.9525 264.266 76.8431C264.055 76.7299 263.773 76.599 263.422 76.4506C262.918 76.2396 262.547 76.0443 262.309 75.8646C262.074 75.6849 261.902 75.4799 261.793 75.2494C261.688 75.015 261.635 74.7279 261.635 74.3881C261.635 73.806 261.859 73.3568 262.309 73.0404C262.762 72.7201 263.402 72.5599 264.23 72.5599C265.02 72.5599 265.787 72.7318 266.533 73.0756L265.994 74.3646C265.666 74.224 265.359 74.1088 265.074 74.0189C264.789 73.9291 264.498 73.8842 264.201 73.8842C263.674 73.8842 263.41 74.0267 263.41 74.3119C263.41 74.472 263.494 74.6107 263.662 74.7279C263.834 74.8451 264.207 75.0189 264.781 75.2494C265.293 75.4564 265.668 75.6498 265.906 75.8295C266.145 76.0092 266.32 76.2162 266.434 76.4506C266.547 76.6849 266.604 76.9642 266.604 77.2885ZM270.758 77.9271C271.07 77.9271 271.445 77.8588 271.883 77.722V79.0521C271.438 79.2513 270.891 79.351 270.242 79.351C269.527 79.351 269.006 79.1713 268.678 78.8119C268.354 78.4486 268.191 77.9056 268.191 77.183V74.0248H267.336V73.2689L268.32 72.6713L268.836 71.2885H269.979V72.683H271.812V74.0248H269.979V77.183C269.979 77.4369 270.049 77.6244 270.189 77.7455C270.334 77.8666 270.523 77.9271 270.758 77.9271ZM275.926 73.8314C275.547 73.8314 275.25 73.9525 275.035 74.1947C274.82 74.433 274.697 74.7728 274.666 75.2142H277.174C277.166 74.7728 277.051 74.433 276.828 74.1947C276.605 73.9525 276.305 73.8314 275.926 73.8314ZM276.178 79.351C275.123 79.351 274.299 79.0599 273.705 78.4779C273.111 77.8959 272.814 77.0717 272.814 76.0052C272.814 74.9076 273.088 74.0599 273.635 73.4623C274.186 72.8607 274.945 72.5599 275.914 72.5599C276.84 72.5599 277.561 72.8236 278.076 73.351C278.592 73.8783 278.85 74.6068 278.85 75.5365V76.4037H274.625C274.645 76.9115 274.795 77.308 275.076 77.5931C275.357 77.8783 275.752 78.0209 276.26 78.0209C276.654 78.0209 277.027 77.9799 277.379 77.8978C277.73 77.8158 278.098 77.6849 278.48 77.5052V78.8881C278.168 79.0443 277.834 79.1595 277.479 79.2338C277.123 79.3119 276.689 79.351 276.178 79.351ZM286.168 79.2338H284.381V75.4076C284.381 74.9349 284.301 74.5814 284.141 74.347C283.984 74.1088 283.736 73.9896 283.396 73.9896C282.939 73.9896 282.607 74.1576 282.4 74.4935C282.193 74.8295 282.09 75.3822 282.09 76.1517V79.2338H280.303V72.683H281.668L281.908 73.5209H282.008C282.184 73.2201 282.438 72.9857 282.77 72.8177C283.102 72.6459 283.482 72.5599 283.912 72.5599C284.893 72.5599 285.557 72.8802 285.904 73.5209H286.062C286.238 73.2162 286.496 72.9799 286.836 72.8119C287.18 72.6439 287.566 72.5599 287.996 72.5599C288.738 72.5599 289.299 72.7513 289.678 73.1342C290.061 73.5131 290.252 74.1224 290.252 74.9623V79.2338H288.459V75.4076C288.459 74.9349 288.379 74.5814 288.219 74.347C288.062 74.1088 287.814 73.9896 287.475 73.9896C287.037 73.9896 286.709 74.1459 286.49 74.4584C286.275 74.7709 286.168 75.267 286.168 75.9467V79.2338ZM291.84 78.3959C291.84 78.0677 291.928 77.8197 292.104 77.6517C292.279 77.4838 292.535 77.3998 292.871 77.3998C293.195 77.3998 293.445 77.4857 293.621 77.6576C293.801 77.8295 293.891 78.0756 293.891 78.3959C293.891 78.7045 293.801 78.9486 293.621 79.1283C293.441 79.3041 293.191 79.392 292.871 79.392C292.543 79.392 292.289 79.306 292.109 79.1342C291.93 78.9584 291.84 78.7123 291.84 78.3959ZM291.84 73.556C291.84 73.2279 291.928 72.9799 292.104 72.8119C292.279 72.6439 292.535 72.5599 292.871 72.5599C293.195 72.5599 293.445 72.6459 293.621 72.8177C293.801 72.9896 293.891 73.2357 293.891 73.556C293.891 73.8724 293.799 74.1185 293.615 74.2943C293.436 74.4662 293.188 74.5521 292.871 74.5521C292.543 74.5521 292.289 74.4662 292.109 74.2943C291.93 74.1224 291.84 73.8763 291.84 73.556ZM303.875 74.9271C303.875 76.431 303.645 77.5443 303.184 78.267C302.727 78.9896 302.033 79.351 301.104 79.351C300.209 79.351 299.529 78.9799 299.064 78.2377C298.6 77.4916 298.367 76.3881 298.367 74.9271C298.367 73.4349 298.592 72.3295 299.041 71.6107C299.494 70.892 300.182 70.5326 301.104 70.5326C302.006 70.5326 302.693 70.9056 303.166 71.6517C303.639 72.3939 303.875 73.4857 303.875 74.9271ZM299 74.9271C299 76.2552 299.174 77.2377 299.521 77.8744C299.869 78.5072 300.396 78.8236 301.104 78.8236C301.842 78.8236 302.379 78.4955 302.715 77.8392C303.055 77.183 303.225 76.2123 303.225 74.9271C303.225 73.6615 303.055 72.7006 302.715 72.0443C302.379 71.3881 301.842 71.0599 301.104 71.0599C300.365 71.0599 299.83 71.3881 299.498 72.0443C299.166 72.7006 299 73.6615 299 74.9271ZM305.498 78.7767C305.498 78.3939 305.654 78.2025 305.967 78.2025C306.287 78.2025 306.447 78.3939 306.447 78.7767C306.447 79.1595 306.287 79.351 305.967 79.351C305.654 79.351 305.498 79.1595 305.498 78.7767ZM308.176 75.5834C308.176 74.4701 308.326 73.5345 308.627 72.7767C308.932 72.015 309.361 71.4506 309.916 71.0834C310.475 70.7162 311.146 70.5326 311.932 70.5326C312.299 70.5326 312.635 70.5775 312.939 70.6674V71.183C312.654 71.0775 312.311 71.0248 311.908 71.0248C310.943 71.0248 310.191 71.3724 309.652 72.0677C309.117 72.7631 308.816 73.7748 308.75 75.1029H308.826C309.123 74.7201 309.463 74.431 309.846 74.2357C310.229 74.0404 310.633 73.9427 311.059 73.9427C311.859 73.9427 312.484 74.1713 312.934 74.6283C313.387 75.0853 313.613 75.7162 313.613 76.5209C313.613 77.3959 313.375 78.0873 312.898 78.5951C312.426 79.099 311.787 79.351 310.982 79.351C310.115 79.351 309.43 79.0209 308.926 78.3607C308.426 77.6967 308.176 76.7709 308.176 75.5834ZM310.982 78.8353C311.623 78.8353 312.121 78.6342 312.477 78.2318C312.832 77.8295 313.01 77.2552 313.01 76.5092C313.01 75.8529 312.834 75.3412 312.482 74.974C312.131 74.6068 311.652 74.4232 311.047 74.4232C310.648 74.4232 310.277 74.5111 309.934 74.6869C309.594 74.8627 309.322 75.097 309.119 75.39C308.916 75.6791 308.814 75.976 308.814 76.2806C308.814 76.7142 308.91 77.1322 309.102 77.5345C309.297 77.933 309.559 78.2494 309.887 78.4838C310.219 78.7181 310.584 78.8353 310.982 78.8353ZM320.287 79.2338H314.926V78.7181L317.205 76.3392C317.846 75.6752 318.295 75.1674 318.553 74.8158C318.811 74.4642 319 74.1283 319.121 73.808C319.242 73.4877 319.303 73.1517 319.303 72.8002C319.303 72.2885 319.135 71.8724 318.799 71.5521C318.463 71.2318 318.027 71.0717 317.492 71.0717C316.777 71.0717 316.094 71.3314 315.441 71.851L315.125 71.4467C315.84 70.8451 316.633 70.5443 317.504 70.5443C318.25 70.5443 318.836 70.7435 319.262 71.142C319.691 71.5404 319.906 72.0892 319.906 72.7885C319.906 73.3549 319.762 73.9037 319.473 74.4349C319.188 74.9623 318.664 75.6146 317.902 76.392L315.705 78.6478V78.6713H320.287V79.2338ZM324.266 74.0834C325.18 74.0834 325.898 74.3041 326.422 74.7455C326.949 75.1869 327.213 75.7943 327.213 76.5677C327.213 77.4467 326.939 78.1302 326.393 78.6185C325.846 79.1068 325.092 79.351 324.131 79.351C323.705 79.351 323.301 79.3099 322.918 79.2279C322.535 79.142 322.215 79.0209 321.957 78.8646V78.2611C322.379 78.476 322.754 78.6263 323.082 78.7123C323.41 78.7943 323.76 78.8353 324.131 78.8353C324.881 78.8353 325.482 78.6381 325.936 78.2435C326.389 77.8451 326.615 77.308 326.615 76.6322C326.615 75.9955 326.395 75.4955 325.953 75.1322C325.512 74.7689 324.912 74.5873 324.154 74.5873C323.646 74.5873 323.115 74.6635 322.561 74.8158L322.209 74.5873L322.549 70.6674H326.674V71.2299H323.1L322.836 74.2533C323.445 74.14 323.922 74.0834 324.266 74.0834ZM332.955 79.2338L329.762 71.3236H329.715C329.746 71.808 329.762 72.3041 329.762 72.8119V79.2338H329.188V70.6674H330.113L333.148 78.2025H333.184L336.219 70.6674H337.121V79.2338H336.518V72.7416C336.518 72.2885 336.541 71.8197 336.588 71.3353H336.541L333.336 79.2338H332.955ZM341.99 76.2338V75.7533H344.773V76.2338H341.99ZM351.582 74.0834C352.496 74.0834 353.215 74.3041 353.738 74.7455C354.266 75.1869 354.529 75.7943 354.529 76.5677C354.529 77.4467 354.256 78.1302 353.709 78.6185C353.162 79.1068 352.408 79.351 351.447 79.351C351.021 79.351 350.617 79.3099 350.234 79.2279C349.852 79.142 349.531 79.0209 349.273 78.8646V78.2611C349.695 78.476 350.07 78.6263 350.398 78.7123C350.727 78.7943 351.076 78.8353 351.447 78.8353C352.197 78.8353 352.799 78.6381 353.252 78.2435C353.705 77.8451 353.932 77.308 353.932 76.6322C353.932 75.9955 353.711 75.4955 353.27 75.1322C352.828 74.7689 352.229 74.5873 351.471 74.5873C350.963 74.5873 350.432 74.6635 349.877 74.8158L349.525 74.5873L349.865 70.6674H353.99V71.2299H350.416L350.152 74.2533C350.762 74.14 351.238 74.0834 351.582 74.0834ZM356.24 78.7767C356.24 78.3939 356.396 78.2025 356.709 78.2025C357.029 78.2025 357.189 78.3939 357.189 78.7767C357.189 79.1595 357.029 79.351 356.709 79.351C356.396 79.351 356.24 79.1595 356.24 78.7767ZM363.887 72.683C363.887 73.2142 363.719 73.6615 363.383 74.0248C363.051 74.3881 362.604 74.6205 362.041 74.722V74.7572C362.729 74.8431 363.252 75.0619 363.611 75.4135C363.971 75.765 364.15 76.2377 364.15 76.8314C364.15 77.6322 363.877 78.2533 363.33 78.6947C362.787 79.1322 362.004 79.351 360.98 79.351C360.109 79.351 359.35 79.1888 358.701 78.8646V78.2845C359.029 78.4564 359.396 78.5912 359.803 78.6888C360.213 78.7865 360.598 78.8353 360.957 78.8353C361.82 78.8353 362.469 78.6615 362.902 78.3138C363.336 77.9623 363.553 77.4681 363.553 76.8314C363.553 76.265 363.33 75.8295 362.885 75.5248C362.443 75.2201 361.793 75.0677 360.934 75.0677H360.008V74.5052H360.945C361.656 74.5052 362.219 74.3373 362.633 74.0013C363.051 73.6615 363.26 73.2025 363.26 72.6244C363.26 72.1478 363.09 71.767 362.75 71.4818C362.414 71.1927 361.973 71.0482 361.426 71.0482C361 71.0482 360.611 71.1088 360.26 71.2299C359.908 71.347 359.514 71.5502 359.076 71.8392L358.789 71.4467C359.121 71.1693 359.521 70.9506 359.99 70.7904C360.459 70.6263 360.934 70.5443 361.414 70.5443C362.203 70.5443 362.812 70.7318 363.242 71.1068C363.672 71.4779 363.887 72.0033 363.887 72.683ZM366.242 73.222C366.242 73.9486 366.33 74.4955 366.506 74.8627C366.682 75.226 366.957 75.4076 367.332 75.4076C368.086 75.4076 368.463 74.6791 368.463 73.222C368.463 72.5033 368.365 71.9642 368.17 71.6049C367.979 71.2416 367.699 71.0599 367.332 71.0599C366.957 71.0599 366.682 71.2416 366.506 71.6049C366.33 71.9642 366.242 72.5033 366.242 73.222ZM369.037 73.222C369.037 74.1049 368.891 74.7767 368.598 75.2377C368.305 75.6947 367.883 75.9232 367.332 75.9232C366.812 75.9232 366.404 75.6888 366.107 75.2201C365.814 74.7474 365.668 74.0814 365.668 73.222C365.668 72.351 365.809 71.6869 366.09 71.2299C366.371 70.7728 366.785 70.5443 367.332 70.5443C367.875 70.5443 368.295 70.7806 368.592 71.2533C368.889 71.722 369.037 72.3783 369.037 73.222ZM371.234 76.6674C371.234 77.39 371.322 77.933 371.498 78.2963C371.674 78.6556 371.949 78.8353 372.324 78.8353C373.078 78.8353 373.455 78.1127 373.455 76.6674C373.455 75.226 373.078 74.5052 372.324 74.5052C371.949 74.5052 371.674 74.6849 371.498 75.0443C371.322 75.3998 371.234 75.9408 371.234 76.6674ZM374.029 76.6674C374.029 77.5502 373.885 78.222 373.596 78.683C373.307 79.14 372.887 79.3685 372.336 79.3685C371.805 79.3685 371.393 79.1322 371.1 78.6595C370.807 78.183 370.66 77.5189 370.66 76.6674C370.66 75.7885 370.803 75.1224 371.088 74.6693C371.377 74.2162 371.793 73.9896 372.336 73.9896C372.871 73.9896 373.287 74.224 373.584 74.6927C373.881 75.1615 374.029 75.8197 374.029 76.6674ZM372.506 70.6674L367.754 79.2338H367.191L371.943 70.6674H372.506Z" fill="white"/>
<path d="M190.332 99.9611H188.545V91.3947H193.455V92.8829H190.332V95.0919H193.238V96.5743H190.332V99.9611ZM196.414 96.674C196.414 97.3224 196.52 97.8126 196.73 98.1447C196.945 98.4767 197.293 98.6427 197.773 98.6427C198.25 98.6427 198.592 98.4786 198.799 98.1505C199.01 97.8185 199.115 97.3263 199.115 96.674C199.115 96.0255 199.01 95.5392 198.799 95.215C198.588 94.8907 198.242 94.7286 197.762 94.7286C197.285 94.7286 196.941 94.8907 196.73 95.215C196.52 95.5353 196.414 96.0216 196.414 96.674ZM200.943 96.674C200.943 97.7404 200.662 98.5743 200.1 99.1759C199.537 99.7775 198.754 100.078 197.75 100.078C197.121 100.078 196.566 99.9415 196.086 99.6681C195.605 99.3907 195.236 98.9943 194.979 98.4786C194.721 97.963 194.592 97.3615 194.592 96.674C194.592 95.6036 194.871 94.7716 195.43 94.1779C195.988 93.5841 196.773 93.2872 197.785 93.2872C198.414 93.2872 198.969 93.424 199.449 93.6974C199.93 93.9708 200.299 94.3634 200.557 94.8751C200.814 95.3868 200.943 95.9865 200.943 96.674ZM207.061 99.9611L206.82 99.1232H206.727C206.535 99.4279 206.264 99.6642 205.912 99.8322C205.561 99.9962 205.16 100.078 204.711 100.078C203.941 100.078 203.361 99.8732 202.971 99.463C202.58 99.049 202.385 98.4552 202.385 97.6818V93.4103H204.172V97.2365C204.172 97.7091 204.256 98.0646 204.424 98.3029C204.592 98.5372 204.859 98.6544 205.227 98.6544C205.727 98.6544 206.088 98.4884 206.311 98.1564C206.533 97.8204 206.645 97.2657 206.645 96.4923V93.4103H208.432V99.9611H207.061ZM216.354 99.9611H214.566V96.1349C214.566 95.6622 214.482 95.3087 214.314 95.0743C214.146 94.8361 213.879 94.7169 213.512 94.7169C213.012 94.7169 212.65 94.8849 212.428 95.2208C212.205 95.5529 212.094 96.1056 212.094 96.879V99.9611H210.307V93.4103H211.672L211.912 94.2482H212.012C212.211 93.9318 212.484 93.6935 212.832 93.5333C213.184 93.3693 213.582 93.2872 214.027 93.2872C214.789 93.2872 215.367 93.4943 215.762 93.9083C216.156 94.3185 216.354 94.9122 216.354 95.6896V99.9611ZM220.268 100.078C219.498 100.078 218.893 99.7794 218.451 99.1818C218.014 98.5841 217.795 97.756 217.795 96.6974C217.795 95.6232 218.018 94.7872 218.463 94.1896C218.912 93.588 219.529 93.2872 220.314 93.2872C221.139 93.2872 221.768 93.6075 222.201 94.2482H222.26C222.17 93.7599 222.125 93.3243 222.125 92.9415V90.8439H223.918V99.9611H222.547L222.201 99.1115H222.125C221.719 99.756 221.1 100.078 220.268 100.078ZM220.895 98.6544C221.352 98.6544 221.686 98.5216 221.896 98.256C222.111 97.9904 222.229 97.5392 222.248 96.9025V96.7091C222.248 96.006 222.139 95.5021 221.92 95.1974C221.705 94.8927 221.354 94.7404 220.865 94.7404C220.467 94.7404 220.156 94.9103 219.934 95.2501C219.715 95.5861 219.605 96.0763 219.605 96.7208C219.605 97.3654 219.717 97.8497 219.939 98.174C220.162 98.4943 220.48 98.6544 220.895 98.6544ZM232.35 99.9611H230.533V92.9064H228.207V91.3947H234.676V92.9064H232.35V99.9611ZM239.51 93.2872C239.752 93.2872 239.953 93.3048 240.113 93.34L239.979 95.0157C239.834 94.9767 239.658 94.9572 239.451 94.9572C238.881 94.9572 238.436 95.1036 238.115 95.3966C237.799 95.6896 237.641 96.0997 237.641 96.6271V99.9611H235.854V93.4103H237.207L237.471 94.5118H237.559C237.762 94.1447 238.035 93.8497 238.379 93.6271C238.727 93.4005 239.104 93.2872 239.51 93.2872ZM244.016 94.5587C243.637 94.5587 243.34 94.6798 243.125 94.922C242.91 95.1603 242.787 95.5001 242.756 95.9415H245.264C245.256 95.5001 245.141 95.1603 244.918 94.922C244.695 94.6798 244.395 94.5587 244.016 94.5587ZM244.268 100.078C243.213 100.078 242.389 99.7872 241.795 99.2052C241.201 98.6232 240.904 97.799 240.904 96.7325C240.904 95.6349 241.178 94.7872 241.725 94.1896C242.275 93.588 243.035 93.2872 244.004 93.2872C244.93 93.2872 245.65 93.5509 246.166 94.0782C246.682 94.6056 246.939 95.3341 246.939 96.2638V97.131H242.715C242.734 97.6388 242.885 98.0353 243.166 98.3204C243.447 98.6056 243.842 98.7482 244.35 98.7482C244.744 98.7482 245.117 98.7072 245.469 98.6251C245.82 98.5431 246.188 98.4122 246.57 98.2325V99.6154C246.258 99.7716 245.924 99.8868 245.568 99.9611C245.213 100.039 244.779 100.078 244.268 100.078ZM252.553 99.9611L252.207 99.0704H252.16C251.859 99.4493 251.549 99.713 251.229 99.8615C250.912 100.006 250.498 100.078 249.986 100.078C249.357 100.078 248.861 99.8986 248.498 99.5392C248.139 99.1798 247.959 98.6681 247.959 98.004C247.959 97.3087 248.201 96.797 248.686 96.4689C249.174 96.1368 249.908 95.9532 250.889 95.9181L252.025 95.8829V95.5958C252.025 94.9318 251.686 94.5997 251.006 94.5997C250.482 94.5997 249.867 94.7579 249.16 95.0743L248.568 93.8673C249.322 93.4728 250.158 93.2755 251.076 93.2755C251.955 93.2755 252.629 93.4669 253.098 93.8497C253.566 94.2325 253.801 94.8146 253.801 95.5958V99.9611H252.553ZM252.025 96.9259L251.334 96.9493C250.814 96.965 250.428 97.0587 250.174 97.2306C249.92 97.4025 249.793 97.6642 249.793 98.0157C249.793 98.5197 250.082 98.7716 250.66 98.7716C251.074 98.7716 251.404 98.6525 251.65 98.4142C251.9 98.1759 252.025 97.8595 252.025 97.465V96.9259ZM260.217 98.0157C260.217 98.6876 259.982 99.1993 259.514 99.5509C259.049 99.9025 258.352 100.078 257.422 100.078C256.945 100.078 256.539 100.045 256.203 99.9786C255.867 99.9161 255.553 99.8224 255.26 99.6974V98.2208C255.592 98.3771 255.965 98.5079 256.379 98.6134C256.797 98.7189 257.164 98.7716 257.48 98.7716C258.129 98.7716 258.453 98.5841 258.453 98.2091C258.453 98.0685 258.41 97.9552 258.324 97.8693C258.238 97.7794 258.09 97.6798 257.879 97.5704C257.668 97.4572 257.387 97.3263 257.035 97.1779C256.531 96.9669 256.16 96.7716 255.922 96.5919C255.688 96.4122 255.516 96.2072 255.406 95.9767C255.301 95.7423 255.248 95.4552 255.248 95.1154C255.248 94.5333 255.473 94.0841 255.922 93.7677C256.375 93.4474 257.016 93.2872 257.844 93.2872C258.633 93.2872 259.4 93.4591 260.146 93.8029L259.607 95.0919C259.279 94.9513 258.973 94.8361 258.688 94.7462C258.402 94.6564 258.111 94.6115 257.814 94.6115C257.287 94.6115 257.023 94.754 257.023 95.0392C257.023 95.1993 257.107 95.338 257.275 95.4552C257.447 95.5724 257.82 95.7462 258.395 95.9767C258.906 96.1837 259.281 96.3771 259.52 96.5568C259.758 96.7365 259.934 96.9435 260.047 97.1779C260.16 97.4122 260.217 97.6915 260.217 98.0157ZM266.252 99.9611L266.012 99.1232H265.918C265.727 99.4279 265.455 99.6642 265.104 99.8322C264.752 99.9962 264.352 100.078 263.902 100.078C263.133 100.078 262.553 99.8732 262.162 99.463C261.771 99.049 261.576 98.4552 261.576 97.6818V93.4103H263.363V97.2365C263.363 97.7091 263.447 98.0646 263.615 98.3029C263.783 98.5372 264.051 98.6544 264.418 98.6544C264.918 98.6544 265.279 98.4884 265.502 98.1564C265.725 97.8204 265.836 97.2657 265.836 96.4923V93.4103H267.623V99.9611H266.252ZM273.154 93.2872C273.396 93.2872 273.598 93.3048 273.758 93.34L273.623 95.0157C273.479 94.9767 273.303 94.9572 273.096 94.9572C272.525 94.9572 272.08 95.1036 271.76 95.3966C271.443 95.6896 271.285 96.0997 271.285 96.6271V99.9611H269.498V93.4103H270.852L271.115 94.5118H271.203C271.406 94.1447 271.68 93.8497 272.023 93.6271C272.371 93.4005 272.748 93.2872 273.154 93.2872ZM274.01 93.4103H275.967L277.203 97.0958C277.309 97.4161 277.381 97.795 277.42 98.2325H277.455C277.498 97.8302 277.582 97.4513 277.707 97.0958L278.92 93.4103H280.836L278.064 100.799C277.811 101.483 277.447 101.994 276.975 102.334C276.506 102.674 275.957 102.844 275.328 102.844C275.02 102.844 274.717 102.811 274.42 102.744V101.326C274.635 101.377 274.869 101.402 275.123 101.402C275.439 101.402 275.715 101.305 275.949 101.109C276.188 100.918 276.373 100.627 276.506 100.236L276.611 99.9142L274.01 93.4103ZM281.527 99.1232C281.527 98.795 281.615 98.547 281.791 98.379C281.967 98.2111 282.223 98.1271 282.559 98.1271C282.883 98.1271 283.133 98.213 283.309 98.3849C283.488 98.5568 283.578 98.8029 283.578 99.1232C283.578 99.4318 283.488 99.6759 283.309 99.8556C283.129 100.031 282.879 100.119 282.559 100.119C282.23 100.119 281.977 100.033 281.797 99.8615C281.617 99.6857 281.527 99.4396 281.527 99.1232ZM281.527 94.2833C281.527 93.9552 281.615 93.7072 281.791 93.5392C281.967 93.3712 282.223 93.2872 282.559 93.2872C282.883 93.2872 283.133 93.3732 283.309 93.545C283.488 93.7169 283.578 93.963 283.578 94.2833C283.578 94.5997 283.486 94.8458 283.303 95.0216C283.123 95.1935 282.875 95.2794 282.559 95.2794C282.23 95.2794 281.977 95.1935 281.797 95.0216C281.617 94.8497 281.527 94.6036 281.527 94.2833ZM293.562 95.6544C293.562 97.1583 293.332 98.2716 292.871 98.9943C292.414 99.7169 291.721 100.078 290.791 100.078C289.896 100.078 289.217 99.7072 288.752 98.965C288.287 98.2189 288.055 97.1154 288.055 95.6544C288.055 94.1622 288.279 93.0568 288.729 92.338C289.182 91.6193 289.869 91.2599 290.791 91.2599C291.693 91.2599 292.381 91.6329 292.854 92.379C293.326 93.1212 293.562 94.213 293.562 95.6544ZM288.688 95.6544C288.688 96.9825 288.861 97.965 289.209 98.6017C289.557 99.2345 290.084 99.5509 290.791 99.5509C291.529 99.5509 292.066 99.2228 292.402 98.5665C292.742 97.9103 292.912 96.9396 292.912 95.6544C292.912 94.3888 292.742 93.4279 292.402 92.7716C292.066 92.1154 291.529 91.7872 290.791 91.7872C290.053 91.7872 289.518 92.1154 289.186 92.7716C288.854 93.4279 288.688 94.3888 288.688 95.6544ZM299.217 99.9611L296.023 92.0509H295.977C296.008 92.5353 296.023 93.0314 296.023 93.5392V99.9611H295.449V91.3947H296.375L299.41 98.9298H299.445L302.48 91.3947H303.383V99.9611H302.779V93.4689C302.779 93.0157 302.803 92.547 302.85 92.0626H302.803L299.598 99.9611H299.217ZM308.252 96.9611V96.4806H311.035V96.9611H308.252ZM320.879 95.6544C320.879 97.1583 320.648 98.2716 320.188 98.9943C319.73 99.7169 319.037 100.078 318.107 100.078C317.213 100.078 316.533 99.7072 316.068 98.965C315.604 98.2189 315.371 97.1154 315.371 95.6544C315.371 94.1622 315.596 93.0568 316.045 92.338C316.498 91.6193 317.186 91.2599 318.107 91.2599C319.01 91.2599 319.697 91.6329 320.17 92.379C320.643 93.1212 320.879 94.213 320.879 95.6544ZM316.004 95.6544C316.004 96.9825 316.178 97.965 316.525 98.6017C316.873 99.2345 317.4 99.5509 318.107 99.5509C318.846 99.5509 319.383 99.2228 319.719 98.5665C320.059 97.9103 320.229 96.9396 320.229 95.6544C320.229 94.3888 320.059 93.4279 319.719 92.7716C319.383 92.1154 318.846 91.7872 318.107 91.7872C317.369 91.7872 316.834 92.1154 316.502 92.7716C316.17 93.4279 316.004 94.3888 316.004 95.6544ZM322.502 99.504C322.502 99.1212 322.658 98.9298 322.971 98.9298C323.291 98.9298 323.451 99.1212 323.451 99.504C323.451 99.8868 323.291 100.078 322.971 100.078C322.658 100.078 322.502 99.8868 322.502 99.504ZM330.594 95.6544C330.594 97.1583 330.363 98.2716 329.902 98.9943C329.445 99.7169 328.752 100.078 327.822 100.078C326.928 100.078 326.248 99.7072 325.783 98.965C325.318 98.2189 325.086 97.1154 325.086 95.6544C325.086 94.1622 325.311 93.0568 325.76 92.338C326.213 91.6193 326.9 91.2599 327.822 91.2599C328.725 91.2599 329.412 91.6329 329.885 92.379C330.357 93.1212 330.594 94.213 330.594 95.6544ZM325.719 95.6544C325.719 96.9825 325.893 97.965 326.24 98.6017C326.588 99.2345 327.115 99.5509 327.822 99.5509C328.561 99.5509 329.098 99.2228 329.434 98.5665C329.773 97.9103 329.943 96.9396 329.943 95.6544C329.943 94.3888 329.773 93.4279 329.434 92.7716C329.098 92.1154 328.561 91.7872 327.822 91.7872C327.084 91.7872 326.549 92.1154 326.217 92.7716C325.885 93.4279 325.719 94.3888 325.719 95.6544ZM332.504 93.9493C332.504 94.6759 332.592 95.2228 332.768 95.59C332.943 95.9532 333.219 96.1349 333.594 96.1349C334.348 96.1349 334.725 95.4064 334.725 93.9493C334.725 93.2306 334.627 92.6915 334.432 92.3322C334.24 91.9689 333.961 91.7872 333.594 91.7872C333.219 91.7872 332.943 91.9689 332.768 92.3322C332.592 92.6915 332.504 93.2306 332.504 93.9493ZM335.299 93.9493C335.299 94.8322 335.152 95.504 334.859 95.965C334.566 96.422 334.145 96.6505 333.594 96.6505C333.074 96.6505 332.666 96.4161 332.369 95.9474C332.076 95.4747 331.93 94.8087 331.93 93.9493C331.93 93.0782 332.07 92.4142 332.352 91.9572C332.633 91.5001 333.047 91.2716 333.594 91.2716C334.137 91.2716 334.557 91.5079 334.854 91.9806C335.15 92.4493 335.299 93.1056 335.299 93.9493ZM337.496 97.3947C337.496 98.1173 337.584 98.6603 337.76 99.0236C337.936 99.3829 338.211 99.5626 338.586 99.5626C339.34 99.5626 339.717 98.84 339.717 97.3947C339.717 95.9532 339.34 95.2325 338.586 95.2325C338.211 95.2325 337.936 95.4122 337.76 95.7716C337.584 96.1271 337.496 96.6681 337.496 97.3947ZM340.291 97.3947C340.291 98.2775 340.146 98.9493 339.857 99.4103C339.568 99.8673 339.148 100.096 338.598 100.096C338.066 100.096 337.654 99.8595 337.361 99.3868C337.068 98.9103 336.922 98.2462 336.922 97.3947C336.922 96.5157 337.064 95.8497 337.35 95.3966C337.639 94.9435 338.055 94.7169 338.598 94.7169C339.133 94.7169 339.549 94.9513 339.846 95.42C340.143 95.8888 340.291 96.547 340.291 97.3947ZM338.768 91.3947L334.016 99.9611H333.453L338.205 91.3947H338.768Z" fill="white"/>
<path d="M193.789 120.688L193.168 118.649H190.045L189.424 120.688H187.467L190.49 112.087H192.711L195.746 120.688H193.789ZM192.734 117.126C192.16 115.278 191.836 114.233 191.762 113.991C191.691 113.749 191.641 113.557 191.609 113.417C191.48 113.917 191.111 115.153 190.502 117.126H192.734ZM200.082 115.878H203.48V120.319C202.93 120.499 202.41 120.624 201.922 120.694C201.438 120.768 200.941 120.806 200.434 120.806C199.141 120.806 198.152 120.427 197.469 119.669C196.789 118.907 196.449 117.815 196.449 116.393C196.449 115.011 196.844 113.932 197.633 113.159C198.426 112.386 199.523 111.999 200.926 111.999C201.805 111.999 202.652 112.175 203.469 112.526L202.865 113.979C202.24 113.667 201.59 113.511 200.914 113.511C200.129 113.511 199.5 113.774 199.027 114.302C198.555 114.829 198.318 115.538 198.318 116.429C198.318 117.358 198.508 118.069 198.887 118.561C199.27 119.05 199.824 119.294 200.551 119.294C200.93 119.294 201.314 119.255 201.705 119.177V117.39H200.082V115.878ZM213.699 118.309C213.699 119.083 213.42 119.692 212.861 120.138C212.307 120.583 211.533 120.806 210.541 120.806C209.627 120.806 208.818 120.634 208.115 120.29V118.602C208.693 118.86 209.182 119.042 209.58 119.147C209.982 119.253 210.35 119.306 210.682 119.306C211.08 119.306 211.385 119.229 211.596 119.077C211.811 118.925 211.918 118.698 211.918 118.397C211.918 118.229 211.871 118.081 211.777 117.952C211.684 117.819 211.545 117.692 211.361 117.571C211.182 117.45 210.812 117.257 210.254 116.991C209.73 116.745 209.338 116.509 209.076 116.282C208.814 116.056 208.605 115.792 208.449 115.491C208.293 115.19 208.215 114.839 208.215 114.436C208.215 113.679 208.471 113.083 208.982 112.649C209.498 112.216 210.209 111.999 211.115 111.999C211.561 111.999 211.984 112.052 212.387 112.157C212.793 112.263 213.217 112.411 213.658 112.602L213.072 114.015C212.615 113.827 212.236 113.696 211.936 113.622C211.639 113.548 211.346 113.511 211.057 113.511C210.713 113.511 210.449 113.591 210.266 113.751C210.082 113.911 209.99 114.12 209.99 114.378C209.99 114.538 210.027 114.679 210.102 114.8C210.176 114.917 210.293 115.032 210.453 115.145C210.617 115.255 211.002 115.454 211.607 115.743C212.408 116.126 212.957 116.511 213.254 116.897C213.551 117.28 213.699 117.751 213.699 118.309ZM221.158 120.688H219.371V116.862C219.371 115.917 219.02 115.444 218.316 115.444C217.816 115.444 217.455 115.614 217.232 115.954C217.01 116.294 216.898 116.845 216.898 117.606V120.688H215.111V111.571H216.898V113.429C216.898 113.573 216.885 113.913 216.857 114.448L216.816 114.975H216.91C217.309 114.335 217.941 114.015 218.809 114.015C219.578 114.015 220.162 114.222 220.561 114.636C220.959 115.05 221.158 115.643 221.158 116.417V120.688ZM227.158 120.688L226.812 119.798H226.766C226.465 120.177 226.154 120.44 225.834 120.589C225.518 120.733 225.104 120.806 224.592 120.806C223.963 120.806 223.467 120.626 223.104 120.266C222.744 119.907 222.564 119.395 222.564 118.731C222.564 118.036 222.807 117.524 223.291 117.196C223.779 116.864 224.514 116.681 225.494 116.645L226.631 116.61V116.323C226.631 115.659 226.291 115.327 225.611 115.327C225.088 115.327 224.473 115.485 223.766 115.802L223.174 114.595C223.928 114.2 224.764 114.003 225.682 114.003C226.561 114.003 227.234 114.194 227.703 114.577C228.172 114.96 228.406 115.542 228.406 116.323V120.688H227.158ZM226.631 117.653L225.939 117.677C225.42 117.692 225.033 117.786 224.779 117.958C224.525 118.13 224.398 118.391 224.398 118.743C224.398 119.247 224.688 119.499 225.266 119.499C225.68 119.499 226.01 119.38 226.256 119.141C226.506 118.903 226.631 118.587 226.631 118.192V117.653ZM233.908 114.015C234.15 114.015 234.352 114.032 234.512 114.067L234.377 115.743C234.232 115.704 234.057 115.684 233.85 115.684C233.279 115.684 232.834 115.831 232.514 116.124C232.197 116.417 232.039 116.827 232.039 117.354V120.688H230.252V114.138H231.605L231.869 115.239H231.957C232.16 114.872 232.434 114.577 232.777 114.354C233.125 114.128 233.502 114.015 233.908 114.015ZM238.414 115.286C238.035 115.286 237.738 115.407 237.523 115.649C237.309 115.888 237.186 116.227 237.154 116.669H239.662C239.654 116.227 239.539 115.888 239.316 115.649C239.094 115.407 238.793 115.286 238.414 115.286ZM238.666 120.806C237.611 120.806 236.787 120.515 236.193 119.932C235.6 119.35 235.303 118.526 235.303 117.46C235.303 116.362 235.576 115.515 236.123 114.917C236.674 114.315 237.434 114.015 238.402 114.015C239.328 114.015 240.049 114.278 240.564 114.806C241.08 115.333 241.338 116.061 241.338 116.991V117.858H237.113C237.133 118.366 237.283 118.763 237.564 119.048C237.846 119.333 238.24 119.475 238.748 119.475C239.143 119.475 239.516 119.434 239.867 119.352C240.219 119.27 240.586 119.14 240.969 118.96V120.343C240.656 120.499 240.322 120.614 239.967 120.688C239.611 120.766 239.178 120.806 238.666 120.806ZM248.838 120.688H247.051V116.862C247.051 115.917 246.699 115.444 245.996 115.444C245.496 115.444 245.135 115.614 244.912 115.954C244.689 116.294 244.578 116.845 244.578 117.606V120.688H242.791V111.571H244.578V113.429C244.578 113.573 244.564 113.913 244.537 114.448L244.496 114.975H244.59C244.988 114.335 245.621 114.015 246.488 114.015C247.258 114.015 247.842 114.222 248.24 114.636C248.639 115.05 248.838 115.643 248.838 116.417V120.688ZM252.102 117.401C252.102 118.05 252.207 118.54 252.418 118.872C252.633 119.204 252.98 119.37 253.461 119.37C253.938 119.37 254.279 119.206 254.486 118.878C254.697 118.546 254.803 118.054 254.803 117.401C254.803 116.753 254.697 116.266 254.486 115.942C254.275 115.618 253.93 115.456 253.449 115.456C252.973 115.456 252.629 115.618 252.418 115.942C252.207 116.263 252.102 116.749 252.102 117.401ZM256.631 117.401C256.631 118.468 256.35 119.302 255.787 119.903C255.225 120.505 254.441 120.806 253.438 120.806C252.809 120.806 252.254 120.669 251.773 120.395C251.293 120.118 250.924 119.722 250.666 119.206C250.408 118.69 250.279 118.089 250.279 117.401C250.279 116.331 250.559 115.499 251.117 114.905C251.676 114.311 252.461 114.015 253.473 114.015C254.102 114.015 254.656 114.151 255.137 114.425C255.617 114.698 255.986 115.091 256.244 115.602C256.502 116.114 256.631 116.714 256.631 117.401ZM259.895 120.688H258.107V111.571H259.895V120.688ZM263.85 120.806C263.08 120.806 262.475 120.507 262.033 119.909C261.596 119.311 261.377 118.483 261.377 117.425C261.377 116.35 261.6 115.515 262.045 114.917C262.494 114.315 263.111 114.015 263.896 114.015C264.721 114.015 265.35 114.335 265.783 114.975H265.842C265.752 114.487 265.707 114.052 265.707 113.669V111.571H267.5V120.688H266.129L265.783 119.839H265.707C265.301 120.483 264.682 120.806 263.85 120.806ZM264.477 119.382C264.934 119.382 265.268 119.249 265.479 118.983C265.693 118.718 265.811 118.266 265.83 117.63V117.436C265.83 116.733 265.721 116.229 265.502 115.925C265.287 115.62 264.936 115.468 264.447 115.468C264.049 115.468 263.738 115.638 263.516 115.977C263.297 116.313 263.188 116.804 263.188 117.448C263.188 118.093 263.299 118.577 263.521 118.901C263.744 119.222 264.062 119.382 264.477 119.382ZM272.082 115.286C271.703 115.286 271.406 115.407 271.191 115.649C270.977 115.888 270.854 116.227 270.822 116.669H273.33C273.322 116.227 273.207 115.888 272.984 115.649C272.762 115.407 272.461 115.286 272.082 115.286ZM272.334 120.806C271.279 120.806 270.455 120.515 269.861 119.932C269.268 119.35 268.971 118.526 268.971 117.46C268.971 116.362 269.244 115.515 269.791 114.917C270.342 114.315 271.102 114.015 272.07 114.015C272.996 114.015 273.717 114.278 274.232 114.806C274.748 115.333 275.006 116.061 275.006 116.991V117.858H270.781C270.801 118.366 270.951 118.763 271.232 119.048C271.514 119.333 271.908 119.475 272.416 119.475C272.811 119.475 273.184 119.434 273.535 119.352C273.887 119.27 274.254 119.14 274.637 118.96V120.343C274.324 120.499 273.99 120.614 273.635 120.688C273.279 120.766 272.846 120.806 272.334 120.806ZM280.115 114.015C280.357 114.015 280.559 114.032 280.719 114.067L280.584 115.743C280.439 115.704 280.264 115.684 280.057 115.684C279.486 115.684 279.041 115.831 278.721 116.124C278.404 116.417 278.246 116.827 278.246 117.354V120.688H276.459V114.138H277.812L278.076 115.239H278.164C278.367 114.872 278.641 114.577 278.984 114.354C279.332 114.128 279.709 114.015 280.115 114.015ZM286.479 118.743C286.479 119.415 286.244 119.927 285.775 120.278C285.311 120.63 284.613 120.806 283.684 120.806C283.207 120.806 282.801 120.772 282.465 120.706C282.129 120.643 281.814 120.55 281.521 120.425V118.948C281.854 119.104 282.227 119.235 282.641 119.341C283.059 119.446 283.426 119.499 283.742 119.499C284.391 119.499 284.715 119.311 284.715 118.936C284.715 118.796 284.672 118.682 284.586 118.597C284.5 118.507 284.352 118.407 284.141 118.298C283.93 118.184 283.648 118.054 283.297 117.905C282.793 117.694 282.422 117.499 282.184 117.319C281.949 117.14 281.777 116.934 281.668 116.704C281.562 116.47 281.51 116.182 281.51 115.843C281.51 115.261 281.734 114.811 282.184 114.495C282.637 114.175 283.277 114.015 284.105 114.015C284.895 114.015 285.662 114.186 286.408 114.53L285.869 115.819C285.541 115.679 285.234 115.563 284.949 115.474C284.664 115.384 284.373 115.339 284.076 115.339C283.549 115.339 283.285 115.481 283.285 115.766C283.285 115.927 283.369 116.065 283.537 116.182C283.709 116.3 284.082 116.474 284.656 116.704C285.168 116.911 285.543 117.104 285.781 117.284C286.02 117.464 286.195 117.671 286.309 117.905C286.422 118.14 286.479 118.419 286.479 118.743ZM287.621 119.85C287.621 119.522 287.709 119.274 287.885 119.106C288.061 118.938 288.316 118.854 288.652 118.854C288.977 118.854 289.227 118.94 289.402 119.112C289.582 119.284 289.672 119.53 289.672 119.85C289.672 120.159 289.582 120.403 289.402 120.583C289.223 120.759 288.973 120.847 288.652 120.847C288.324 120.847 288.07 120.761 287.891 120.589C287.711 120.413 287.621 120.167 287.621 119.85ZM287.621 115.011C287.621 114.682 287.709 114.434 287.885 114.266C288.061 114.099 288.316 114.015 288.652 114.015C288.977 114.015 289.227 114.1 289.402 114.272C289.582 114.444 289.672 114.69 289.672 115.011C289.672 115.327 289.58 115.573 289.396 115.749C289.217 115.921 288.969 116.007 288.652 116.007C288.324 116.007 288.07 115.921 287.891 115.749C287.711 115.577 287.621 115.331 287.621 115.011ZM299.656 116.382C299.656 117.886 299.426 118.999 298.965 119.722C298.508 120.444 297.814 120.806 296.885 120.806C295.99 120.806 295.311 120.434 294.846 119.692C294.381 118.946 294.148 117.843 294.148 116.382C294.148 114.89 294.373 113.784 294.822 113.065C295.275 112.347 295.963 111.987 296.885 111.987C297.787 111.987 298.475 112.36 298.947 113.106C299.42 113.849 299.656 114.94 299.656 116.382ZM294.781 116.382C294.781 117.71 294.955 118.692 295.303 119.329C295.65 119.962 296.178 120.278 296.885 120.278C297.623 120.278 298.16 119.95 298.496 119.294C298.836 118.638 299.006 117.667 299.006 116.382C299.006 115.116 298.836 114.155 298.496 113.499C298.16 112.843 297.623 112.515 296.885 112.515C296.146 112.515 295.611 112.843 295.279 113.499C294.947 114.155 294.781 115.116 294.781 116.382ZM305.311 120.688L302.117 112.778H302.07C302.102 113.263 302.117 113.759 302.117 114.266V120.688H301.543V112.122H302.469L305.504 119.657H305.539L308.574 112.122H309.477V120.688H308.873V114.196C308.873 113.743 308.896 113.274 308.943 112.79H308.896L305.691 120.688H305.311ZM314.346 117.688V117.208H317.129V117.688H314.346ZM326.973 116.382C326.973 117.886 326.742 118.999 326.281 119.722C325.824 120.444 325.131 120.806 324.201 120.806C323.307 120.806 322.627 120.434 322.162 119.692C321.697 118.946 321.465 117.843 321.465 116.382C321.465 114.89 321.689 113.784 322.139 113.065C322.592 112.347 323.279 111.987 324.201 111.987C325.104 111.987 325.791 112.36 326.264 113.106C326.736 113.849 326.973 114.94 326.973 116.382ZM322.098 116.382C322.098 117.71 322.271 118.692 322.619 119.329C322.967 119.962 323.494 120.278 324.201 120.278C324.939 120.278 325.477 119.95 325.812 119.294C326.152 118.638 326.322 117.667 326.322 116.382C326.322 115.116 326.152 114.155 325.812 113.499C325.477 112.843 324.939 112.515 324.201 112.515C323.463 112.515 322.928 112.843 322.596 113.499C322.264 114.155 322.098 115.116 322.098 116.382ZM328.596 120.231C328.596 119.849 328.752 119.657 329.064 119.657C329.385 119.657 329.545 119.849 329.545 120.231C329.545 120.614 329.385 120.806 329.064 120.806C328.752 120.806 328.596 120.614 328.596 120.231ZM336.688 116.382C336.688 117.886 336.457 118.999 335.996 119.722C335.539 120.444 334.846 120.806 333.916 120.806C333.021 120.806 332.342 120.434 331.877 119.692C331.412 118.946 331.18 117.843 331.18 116.382C331.18 114.89 331.404 113.784 331.854 113.065C332.307 112.347 332.994 111.987 333.916 111.987C334.818 111.987 335.506 112.36 335.979 113.106C336.451 113.849 336.688 114.94 336.688 116.382ZM331.812 116.382C331.812 117.71 331.986 118.692 332.334 119.329C332.682 119.962 333.209 120.278 333.916 120.278C334.654 120.278 335.191 119.95 335.527 119.294C335.867 118.638 336.037 117.667 336.037 116.382C336.037 115.116 335.867 114.155 335.527 113.499C335.191 112.843 334.654 112.515 333.916 112.515C333.178 112.515 332.643 112.843 332.311 113.499C331.979 114.155 331.812 115.116 331.812 116.382ZM338.598 114.677C338.598 115.403 338.686 115.95 338.861 116.317C339.037 116.681 339.312 116.862 339.688 116.862C340.441 116.862 340.818 116.134 340.818 114.677C340.818 113.958 340.721 113.419 340.525 113.059C340.334 112.696 340.055 112.515 339.688 112.515C339.312 112.515 339.037 112.696 338.861 113.059C338.686 113.419 338.598 113.958 338.598 114.677ZM341.393 114.677C341.393 115.559 341.246 116.231 340.953 116.692C340.66 117.149 340.238 117.378 339.688 117.378C339.168 117.378 338.76 117.143 338.463 116.675C338.17 116.202 338.023 115.536 338.023 114.677C338.023 113.806 338.164 113.141 338.445 112.684C338.727 112.227 339.141 111.999 339.688 111.999C340.23 111.999 340.65 112.235 340.947 112.708C341.244 113.177 341.393 113.833 341.393 114.677ZM343.59 118.122C343.59 118.845 343.678 119.388 343.854 119.751C344.029 120.11 344.305 120.29 344.68 120.29C345.434 120.29 345.811 119.567 345.811 118.122C345.811 116.681 345.434 115.96 344.68 115.96C344.305 115.96 344.029 116.14 343.854 116.499C343.678 116.854 343.59 117.395 343.59 118.122ZM346.385 118.122C346.385 119.005 346.24 119.677 345.951 120.138C345.662 120.595 345.242 120.823 344.691 120.823C344.16 120.823 343.748 120.587 343.455 120.114C343.162 119.638 343.016 118.974 343.016 118.122C343.016 117.243 343.158 116.577 343.443 116.124C343.732 115.671 344.148 115.444 344.691 115.444C345.227 115.444 345.643 115.679 345.939 116.147C346.236 116.616 346.385 117.274 346.385 118.122ZM344.861 112.122L340.109 120.688H339.547L344.299 112.122H344.861Z" fill="white"/>
<path d="M193.789 141.416L193.168 139.376H190.045L189.424 141.416H187.467L190.49 132.814H192.711L195.746 141.416H193.789ZM192.734 137.853C192.16 136.005 191.836 134.96 191.762 134.718C191.691 134.476 191.641 134.285 191.609 134.144C191.48 134.644 191.111 135.88 190.502 137.853H192.734ZM200.082 136.605H203.48V141.046C202.93 141.226 202.41 141.351 201.922 141.421C201.438 141.496 200.941 141.533 200.434 141.533C199.141 141.533 198.152 141.154 197.469 140.396C196.789 139.634 196.449 138.542 196.449 137.121C196.449 135.738 196.844 134.66 197.633 133.886C198.426 133.113 199.523 132.726 200.926 132.726C201.805 132.726 202.652 132.902 203.469 133.253L202.865 134.707C202.24 134.394 201.59 134.238 200.914 134.238C200.129 134.238 199.5 134.501 199.027 135.029C198.555 135.556 198.318 136.265 198.318 137.156C198.318 138.085 198.508 138.796 198.887 139.289C199.27 139.777 199.824 140.021 200.551 140.021C200.93 140.021 201.314 139.982 201.705 139.904V138.117H200.082V136.605ZM211.947 141.416H210.131V134.361H207.805V132.849H214.273V134.361H211.947V141.416ZM218.164 136.013C217.785 136.013 217.488 136.134 217.273 136.376C217.059 136.615 216.936 136.955 216.904 137.396H219.412C219.404 136.955 219.289 136.615 219.066 136.376C218.844 136.134 218.543 136.013 218.164 136.013ZM218.416 141.533C217.361 141.533 216.537 141.242 215.943 140.66C215.35 140.078 215.053 139.253 215.053 138.187C215.053 137.089 215.326 136.242 215.873 135.644C216.424 135.042 217.184 134.742 218.152 134.742C219.078 134.742 219.799 135.005 220.314 135.533C220.83 136.06 221.088 136.789 221.088 137.718V138.585H216.863C216.883 139.093 217.033 139.49 217.314 139.775C217.596 140.06 217.99 140.203 218.498 140.203C218.893 140.203 219.266 140.162 219.617 140.08C219.969 139.998 220.336 139.867 220.719 139.687V141.07C220.406 141.226 220.072 141.341 219.717 141.416C219.361 141.494 218.928 141.533 218.416 141.533ZM226.701 141.416L226.355 140.525H226.309C226.008 140.904 225.697 141.167 225.377 141.316C225.061 141.46 224.646 141.533 224.135 141.533C223.506 141.533 223.01 141.353 222.646 140.994C222.287 140.634 222.107 140.123 222.107 139.458C222.107 138.763 222.35 138.251 222.834 137.923C223.322 137.591 224.057 137.408 225.037 137.373L226.174 137.337V137.05C226.174 136.386 225.834 136.054 225.154 136.054C224.631 136.054 224.016 136.212 223.309 136.529L222.717 135.322C223.471 134.927 224.307 134.73 225.225 134.73C226.104 134.73 226.777 134.921 227.246 135.304C227.715 135.687 227.949 136.269 227.949 137.05V141.416H226.701ZM226.174 138.38L225.482 138.404C224.963 138.419 224.576 138.513 224.322 138.685C224.068 138.857 223.941 139.119 223.941 139.47C223.941 139.974 224.23 140.226 224.809 140.226C225.223 140.226 225.553 140.107 225.799 139.869C226.049 139.63 226.174 139.314 226.174 138.919V138.38ZM235.66 141.416H233.873V137.589C233.873 137.117 233.793 136.763 233.633 136.529C233.477 136.291 233.229 136.171 232.889 136.171C232.432 136.171 232.1 136.339 231.893 136.675C231.686 137.011 231.582 137.564 231.582 138.333V141.416H229.795V134.865H231.16L231.4 135.703H231.5C231.676 135.402 231.93 135.167 232.262 135C232.594 134.828 232.975 134.742 233.404 134.742C234.385 134.742 235.049 135.062 235.396 135.703H235.555C235.73 135.398 235.988 135.162 236.328 134.994C236.672 134.826 237.059 134.742 237.488 134.742C238.23 134.742 238.791 134.933 239.17 135.316C239.553 135.695 239.744 136.304 239.744 137.144V141.416H237.951V137.589C237.951 137.117 237.871 136.763 237.711 136.529C237.555 136.291 237.307 136.171 236.967 136.171C236.529 136.171 236.201 136.328 235.982 136.64C235.768 136.953 235.66 137.449 235.66 138.128V141.416ZM241.332 140.578C241.332 140.25 241.42 140.001 241.596 139.833C241.771 139.666 242.027 139.582 242.363 139.582C242.688 139.582 242.938 139.667 243.113 139.839C243.293 140.011 243.383 140.257 243.383 140.578C243.383 140.886 243.293 141.13 243.113 141.31C242.934 141.486 242.684 141.574 242.363 141.574C242.035 141.574 241.781 141.488 241.602 141.316C241.422 141.14 241.332 140.894 241.332 140.578ZM241.332 135.738C241.332 135.41 241.42 135.162 241.596 134.994C241.771 134.826 242.027 134.742 242.363 134.742C242.688 134.742 242.938 134.828 243.113 135C243.293 135.171 243.383 135.417 243.383 135.738C243.383 136.054 243.291 136.3 243.107 136.476C242.928 136.648 242.68 136.734 242.363 136.734C242.035 136.734 241.781 136.648 241.602 136.476C241.422 136.304 241.332 136.058 241.332 135.738ZM253.367 137.109C253.367 138.613 253.137 139.726 252.676 140.449C252.219 141.171 251.525 141.533 250.596 141.533C249.701 141.533 249.021 141.162 248.557 140.419C248.092 139.673 247.859 138.57 247.859 137.109C247.859 135.617 248.084 134.511 248.533 133.792C248.986 133.074 249.674 132.714 250.596 132.714C251.498 132.714 252.186 133.087 252.658 133.833C253.131 134.576 253.367 135.667 253.367 137.109ZM248.492 137.109C248.492 138.437 248.666 139.419 249.014 140.056C249.361 140.689 249.889 141.005 250.596 141.005C251.334 141.005 251.871 140.677 252.207 140.021C252.547 139.365 252.717 138.394 252.717 137.109C252.717 135.843 252.547 134.882 252.207 134.226C251.871 133.57 251.334 133.242 250.596 133.242C249.857 133.242 249.322 133.57 248.99 134.226C248.658 134.882 248.492 135.843 248.492 137.109ZM259.021 141.416L255.828 133.505H255.781C255.812 133.99 255.828 134.486 255.828 134.994V141.416H255.254V132.849H256.18L259.215 140.384H259.25L262.285 132.849H263.188V141.416H262.584V134.923C262.584 134.47 262.607 134.001 262.654 133.517H262.607L259.402 141.416H259.021ZM268.057 138.416V137.935H270.84V138.416H268.057ZM280.684 137.109C280.684 138.613 280.453 139.726 279.992 140.449C279.535 141.171 278.842 141.533 277.912 141.533C277.018 141.533 276.338 141.162 275.873 140.419C275.408 139.673 275.176 138.57 275.176 137.109C275.176 135.617 275.4 134.511 275.85 133.792C276.303 133.074 276.99 132.714 277.912 132.714C278.814 132.714 279.502 133.087 279.975 133.833C280.447 134.576 280.684 135.667 280.684 137.109ZM275.809 137.109C275.809 138.437 275.982 139.419 276.33 140.056C276.678 140.689 277.205 141.005 277.912 141.005C278.65 141.005 279.188 140.677 279.523 140.021C279.863 139.365 280.033 138.394 280.033 137.109C280.033 135.843 279.863 134.882 279.523 134.226C279.188 133.57 278.65 133.242 277.912 133.242C277.174 133.242 276.639 133.57 276.307 134.226C275.975 134.882 275.809 135.843 275.809 137.109ZM282.307 140.958C282.307 140.576 282.463 140.384 282.775 140.384C283.096 140.384 283.256 140.576 283.256 140.958C283.256 141.341 283.096 141.533 282.775 141.533C282.463 141.533 282.307 141.341 282.307 140.958ZM290.398 137.109C290.398 138.613 290.168 139.726 289.707 140.449C289.25 141.171 288.557 141.533 287.627 141.533C286.732 141.533 286.053 141.162 285.588 140.419C285.123 139.673 284.891 138.57 284.891 137.109C284.891 135.617 285.115 134.511 285.564 133.792C286.018 133.074 286.705 132.714 287.627 132.714C288.529 132.714 289.217 133.087 289.689 133.833C290.162 134.576 290.398 135.667 290.398 137.109ZM285.523 137.109C285.523 138.437 285.697 139.419 286.045 140.056C286.393 140.689 286.92 141.005 287.627 141.005C288.365 141.005 288.902 140.677 289.238 140.021C289.578 139.365 289.748 138.394 289.748 137.109C289.748 135.843 289.578 134.882 289.238 134.226C288.902 133.57 288.365 133.242 287.627 133.242C286.889 133.242 286.354 133.57 286.021 134.226C285.689 134.882 285.523 135.843 285.523 137.109ZM292.309 135.404C292.309 136.13 292.396 136.677 292.572 137.044C292.748 137.408 293.023 137.589 293.398 137.589C294.152 137.589 294.529 136.861 294.529 135.404C294.529 134.685 294.432 134.146 294.236 133.787C294.045 133.423 293.766 133.242 293.398 133.242C293.023 133.242 292.748 133.423 292.572 133.787C292.396 134.146 292.309 134.685 292.309 135.404ZM295.104 135.404C295.104 136.287 294.957 136.958 294.664 137.419C294.371 137.876 293.949 138.105 293.398 138.105C292.879 138.105 292.471 137.871 292.174 137.402C291.881 136.929 291.734 136.263 291.734 135.404C291.734 134.533 291.875 133.869 292.156 133.412C292.438 132.955 292.852 132.726 293.398 132.726C293.941 132.726 294.361 132.962 294.658 133.435C294.955 133.904 295.104 134.56 295.104 135.404ZM297.301 138.849C297.301 139.572 297.389 140.115 297.564 140.478C297.74 140.837 298.016 141.017 298.391 141.017C299.145 141.017 299.521 140.294 299.521 138.849C299.521 137.408 299.145 136.687 298.391 136.687C298.016 136.687 297.74 136.867 297.564 137.226C297.389 137.582 297.301 138.123 297.301 138.849ZM300.096 138.849C300.096 139.732 299.951 140.404 299.662 140.865C299.373 141.322 298.953 141.55 298.402 141.55C297.871 141.55 297.459 141.314 297.166 140.841C296.873 140.365 296.727 139.701 296.727 138.849C296.727 137.97 296.869 137.304 297.154 136.851C297.443 136.398 297.859 136.171 298.402 136.171C298.938 136.171 299.354 136.406 299.65 136.875C299.947 137.343 300.096 138.001 300.096 138.849ZM298.572 132.849L293.82 141.416H293.258L298.01 132.849H298.572Z" fill="white"/>
<path d="M77.4834 8C94.7231 7.99649 111.472 13.7412 125.08 24.3254C138.688 34.9096 148.379 49.7289 152.619 66.4391C156.859 83.1492 155.406 100.796 148.491 116.588C141.576 132.38 129.592 145.415 114.437 153.632L77.4992 85.5003L77.4834 8Z" fill="url(#paint6_linear)"/>
<path d="M77.4834 8C94.7231 7.99649 111.472 13.7412 125.08 24.3254C138.688 34.9096 148.379 49.7289 152.619 66.4391C156.859 83.1492 155.406 100.796 148.491 116.588C141.576 132.38 129.592 145.415 114.437 153.632L77.4992 85.5003L77.4834 8Z" stroke="white"/>
<path d="M114.37 153.669C104.946 158.766 94.5677 161.853 83.8904 162.737C73.2131 163.62 62.4685 162.28 52.3353 158.801C42.202 155.322 32.9001 149.78 25.0169 142.525C17.1337 135.269 10.8405 126.458 6.5346 116.648C2.2287 106.837 0.00367568 96.2406 4.55024e-06 85.5268C-0.00366658 74.813 2.2141 64.2148 6.51327 54.4014C10.8124 44.588 17.0996 35.7726 24.9778 28.5118C32.8561 21.251 42.1542 15.7025 52.285 12.2167L77.5003 85.5003L114.37 153.669Z" fill="url(#paint7_linear)"/>
<path d="M114.37 153.669C104.946 158.766 94.5677 161.853 83.8904 162.737C73.2131 163.62 62.4685 162.28 52.3353 158.801C42.202 155.322 32.9001 149.78 25.0169 142.525C17.1337 135.269 10.8405 126.458 6.5346 116.648C2.2287 106.837 0.00367568 96.2406 4.55024e-06 85.5268C-0.00366658 74.813 2.2141 64.2148 6.51327 54.4014C10.8124 44.588 17.0996 35.7726 24.9778 28.5118C32.8561 21.251 42.1542 15.7025 52.285 12.2167L77.5003 85.5003L114.37 153.669Z" stroke="white"/>
<path d="M52.3584 12.1916C60.4161 9.42809 68.8743 8.01195 77.3927 8.00012L77.5003 85.5003L52.3584 12.1916Z" fill="url(#paint8_linear)"/>
<path d="M52.3584 12.1916C60.4161 9.42809 68.8743 8.01195 77.3927 8.00012L77.5003 85.5003L52.3584 12.1916Z" stroke="white"/>
<path d="M77.4701 8C77.4442 8.00004 77.4184 8.00006 77.3926 8.00007L77.5002 85.5003L77.4701 8Z" fill="url(#paint9_radial)" stroke="white" stroke-linejoin="round"/>
<path d="M77.4701 8C77.4442 8.00004 77.4184 8.00006 77.3926 8.00007L77.5002 85.5003L77.4701 8Z" fill="url(#paint10_radial)" stroke="white" stroke-linejoin="round"/>
<path d="M77.4701 8C77.4442 8.00004 77.4184 8.00006 77.3926 8.00007L77.5002 85.5003L77.4701 8Z" fill="url(#paint11_radial)" stroke="white" stroke-linejoin="round"/>
<circle cx="77.5005" cy="85.5004" r="45.3804" fill="#1D1D1B"/>
</g>
<defs>
<filter id="filter0_d" x="135.753" y="0.649292" width="69.8701" height="64" filterUnits="userSpaceOnUse" color-interpolation-filters="sRGB">
<feFlood flood-opacity="0" result="BackgroundImageFix"/>
<feColorMatrix in="SourceAlpha" type="matrix" values="0 0 0 0 0 0 0 0 0 0 0 0 0 0 0 0 0 0 127 0"/>
<feOffset/>
<feGaussianBlur stdDeviation="15"/>
<feColorMatrix type="matrix" values="0 0 0 0 0 0 0 0 0 0 0 0 0 0 0 0 0 0 1 0"/>
<feBlend mode="normal" in2="BackgroundImageFix" result="effect1_dropShadow"/>
<feBlend mode="normal" in="SourceGraphic" in2="effect1_dropShadow" result="shape"/>
</filter>
<filter id="filter1_d" x="135.753" y="42.1039" width="69.8701" height="64" filterUnits="userSpaceOnUse" color-interpolation-filters="sRGB">
<feFlood flood-opacity="0" result="BackgroundImageFix"/>
<feColorMatrix in="SourceAlpha" type="matrix" values="0 0 0 0 0 0 0 0 0 0 0 0 0 0 0 0 0 0 127 0"/>
<feOffset/>
<feGaussianBlur stdDeviation="15"/>
<feColorMatrix type="matrix" values="0 0 0 0 0 0 0 0 0 0 0 0 0 0 0 0 0 0 1 0"/>
<feBlend mode="normal" in2="BackgroundImageFix" result="effect1_dropShadow"/>
<feBlend mode="normal" in="SourceGraphic" in2="effect1_dropShadow" result="shape"/>
</filter>
<filter id="filter2_d" x="135.753" y="63.8181" width="69.8701" height="64" filterUnits="userSpaceOnUse" color-interpolation-filters="sRGB">
<feFlood flood-opacity="0" result="BackgroundImageFix"/>
<feColorMatrix in="SourceAlpha" type="matrix" values="0 0 0 0 0 0 0 0 0 0 0 0 0 0 0 0 0 0 127 0"/>
<feOffset/>
<feGaussianBlur stdDeviation="15"/>
<feColorMatrix type="matrix" values="0 0 0 0 0 0 0 0 0 0 0 0 0 0 0 0 0 0 1 0"/>
<feBlend mode="normal" in2="BackgroundImageFix" result="effect1_dropShadow"/>
<feBlend mode="normal" in="SourceGraphic" in2="effect1_dropShadow" result="shape"/>
</filter>
<filter id="filter3_d" x="135.753" y="104.286" width="69.8701" height="64" filterUnits="userSpaceOnUse" color-interpolation-filters="sRGB">
<feFlood flood-opacity="0" result="BackgroundImageFix"/>
<feColorMatrix in="SourceAlpha" type="matrix" values="0 0 0 0 0 0 0 0 0 0 0 0 0 0 0 0 0 0 127 0"/>
<feOffset/>
<feGaussianBlur stdDeviation="15"/>
<feColorMatrix type="matrix" values="0 0 0 0 0 0 0 0 0 0 0 0 0 0 0 0 0 0 1 0"/>
<feBlend mode="normal" in2="BackgroundImageFix" result="effect1_dropShadow"/>
<feBlend mode="normal" in="SourceGraphic" in2="effect1_dropShadow" result="shape"/>
</filter>
<linearGradient id="paint0_linear" x1="165.753" y1="34.6493" x2="175.623" y2="34.6493" gradientUnits="userSpaceOnUse">
<stop stop-color="#65A6F2"/>
<stop offset="1" stop-color="#22BBDD"/>
</linearGradient>
<linearGradient id="paint1_linear" x1="175.623" y1="55.3766" x2="165.753" y2="55.3766" gradientUnits="userSpaceOnUse">
<stop stop-color="#E01E73"/>
<stop offset="1" stop-color="#FF7272"/>
</linearGradient>
<linearGradient id="paint2_linear" x1="175.623" y1="76.1039" x2="165.753" y2="76.1039" gradientUnits="userSpaceOnUse">
<stop stop-color="#FF9D0A"/>
<stop offset="1" stop-color="#FEFFC7"/>
</linearGradient>
<linearGradient id="paint3_linear" x1="165.753" y1="97.8181" x2="175.623" y2="97.8181" gradientUnits="userSpaceOnUse">
<stop stop-color="#B4FABD"/>
<stop offset="1" stop-color="#22DD9A"/>
</linearGradient>
<linearGradient id="paint4_linear" x1="175.623" y1="118.545" x2="165.753" y2="118.545" gradientUnits="userSpaceOnUse">
<stop stop-color="#C41005"/>
<stop offset="1" stop-color="#DD5E16"/>
</linearGradient>
<linearGradient id="paint5_linear" x1="165.753" y1="138.286" x2="175.623" y2="138.286" gradientUnits="userSpaceOnUse">
<stop stop-color="#FA1DBC"/>
<stop offset="1" stop-color="#A122DD"/>
</linearGradient>
<linearGradient id="paint6_linear" x1="77.4834" y1="79.6222" x2="158.812" y2="79.6222" gradientUnits="userSpaceOnUse">
<stop stop-color="#489CFF"/>
<stop offset="1" stop-color="#3AD5F8"/>
</linearGradient>
<linearGradient id="paint7_linear" x1="2.83105e-07" y1="86.3727" x2="119.994" y2="86.3727" gradientUnits="userSpaceOnUse">
<stop stop-color="#E01E73"/>
<stop offset="1" stop-color="#FF7272"/>
</linearGradient>
<linearGradient id="paint8_linear" x1="52.3584" y1="46.115" x2="78.7368" y2="46.115" gradientUnits="userSpaceOnUse">
<stop stop-color="#FEFFC7"/>
<stop offset="1" stop-color="#FF9D0A"/>
</linearGradient>
<radialGradient id="paint9_radial" cx="0" cy="0" r="1" gradientUnits="userSpaceOnUse" gradientTransform="translate(77.5002 54.5002) scale(108.499 108.5)">
<stop stop-color="#24CBE5"/>
<stop offset="1" stop-color="#007F99"/>
</radialGradient>
<radialGradient id="paint10_radial" cx="0" cy="0" r="1" gradientUnits="userSpaceOnUse" gradientTransform="translate(77.5002 54.5002) scale(108.499 108.5)">
<stop stop-color="#64E572"/>
<stop offset="1" stop-color="#189926"/>
</radialGradient>
<radialGradient id="paint11_radial" cx="0" cy="0" r="1" gradientUnits="userSpaceOnUse" gradientTransform="translate(77.5002 54.5002) scale(108.499 108.5)">
<stop stop-color="#FF9655"/>
<stop offset="1" stop-color="#B34A09"/>
</radialGradient>
</defs>
</svg>
