<svg width="379" height="169" viewBox="0 0 379 169" fill="none" xmlns="http://www.w3.org/2000/svg">
<g filter="url(#filter0_d)">
<line x1="167" y1="32" x2="173" y2="32" stroke="url(#paint0_linear)" stroke-width="4" stroke-linecap="round"/>
</g>
<line x1="167" y1="53" x2="173" y2="53" stroke="url(#paint1_linear)" stroke-width="4" stroke-linecap="round"/>
<g filter="url(#filter1_d)">
<line x1="167" y1="74" x2="173" y2="74" stroke="url(#paint2_linear)" stroke-width="4" stroke-linecap="round" stroke-linejoin="round"/>
</g>
<g filter="url(#filter2_d)">
<line x1="167" y1="96" x2="173" y2="96" stroke="url(#paint3_linear)" stroke-width="4" stroke-linecap="round"/>
</g>
<line x1="167" y1="117" x2="173" y2="117" stroke="url(#paint4_linear)" stroke-width="4" stroke-linecap="round"/>
<g filter="url(#filter3_d)">
<line x1="167" y1="137" x2="173" y2="137" stroke="url(#paint5_linear)" stroke-width="4" stroke-linecap="round"/>
</g>
<path d="M192.895 32.4648H193.492C194.051 32.4648 194.469 32.3555 194.746 32.1367C195.023 31.9141 195.162 31.5918 195.162 31.1699C195.162 30.7441 195.045 30.4297 194.811 30.2266C194.58 30.0234 194.217 29.9219 193.721 29.9219H192.895V32.4648ZM196.996 31.1055C196.996 32.0273 196.707 32.7324 196.129 33.2207C195.555 33.709 194.736 33.9531 193.674 33.9531H192.895V37H191.078V28.4336H193.814C194.854 28.4336 195.643 28.6582 196.182 29.1074C196.725 29.5527 196.996 30.2188 196.996 31.1055ZM202.129 30.3262C202.371 30.3262 202.572 30.3438 202.732 30.3789L202.598 32.0547C202.453 32.0156 202.277 31.9961 202.07 31.9961C201.5 31.9961 201.055 32.1426 200.734 32.4355C200.418 32.7285 200.26 33.1387 200.26 33.666V37H198.473V30.4492H199.826L200.09 31.5508H200.178C200.381 31.1836 200.654 30.8887 200.998 30.666C201.346 30.4395 201.723 30.3262 202.129 30.3262ZM206.635 31.5977C206.256 31.5977 205.959 31.7188 205.744 31.9609C205.529 32.1992 205.406 32.5391 205.375 32.9805H207.883C207.875 32.5391 207.76 32.1992 207.537 31.9609C207.314 31.7188 207.014 31.5977 206.635 31.5977ZM206.887 37.1172C205.832 37.1172 205.008 36.8262 204.414 36.2441C203.82 35.6621 203.523 34.8379 203.523 33.7715C203.523 32.6738 203.797 31.8262 204.344 31.2285C204.895 30.627 205.654 30.3262 206.623 30.3262C207.549 30.3262 208.27 30.5898 208.785 31.1172C209.301 31.6445 209.559 32.373 209.559 33.3027V34.1699H205.334C205.354 34.6777 205.504 35.0742 205.785 35.3594C206.066 35.6445 206.461 35.7871 206.969 35.7871C207.363 35.7871 207.736 35.7461 208.088 35.6641C208.439 35.582 208.807 35.4512 209.189 35.2715V36.6543C208.877 36.8105 208.543 36.9258 208.188 37C207.832 37.0781 207.398 37.1172 206.887 37.1172ZM215.582 35.0547C215.582 35.7266 215.348 36.2383 214.879 36.5898C214.414 36.9414 213.717 37.1172 212.787 37.1172C212.311 37.1172 211.904 37.084 211.568 37.0176C211.232 36.9551 210.918 36.8613 210.625 36.7363V35.2598C210.957 35.416 211.33 35.5469 211.744 35.6523C212.162 35.7578 212.529 35.8105 212.846 35.8105C213.494 35.8105 213.818 35.623 213.818 35.248C213.818 35.1074 213.775 34.9941 213.689 34.9082C213.604 34.8184 213.455 34.7188 213.244 34.6094C213.033 34.4961 212.752 34.3652 212.4 34.2168C211.896 34.0059 211.525 33.8105 211.287 33.6309C211.053 33.4512 210.881 33.2461 210.771 33.0156C210.666 32.7812 210.613 32.4941 210.613 32.1543C210.613 31.5723 210.838 31.123 211.287 30.8066C211.74 30.4863 212.381 30.3262 213.209 30.3262C213.998 30.3262 214.766 30.498 215.512 30.8418L214.973 32.1309C214.645 31.9902 214.338 31.875 214.053 31.7852C213.768 31.6953 213.477 31.6504 213.18 31.6504C212.652 31.6504 212.389 31.793 212.389 32.0781C212.389 32.2383 212.473 32.377 212.641 32.4941C212.812 32.6113 213.186 32.7852 213.76 33.0156C214.271 33.2227 214.646 33.416 214.885 33.5957C215.123 33.7754 215.299 33.9824 215.412 34.2168C215.525 34.4512 215.582 34.7305 215.582 35.0547ZM221.137 37L220.791 36.1094H220.744C220.443 36.4883 220.133 36.752 219.812 36.9004C219.496 37.0449 219.082 37.1172 218.57 37.1172C217.941 37.1172 217.445 36.9375 217.082 36.5781C216.723 36.2188 216.543 35.707 216.543 35.043C216.543 34.3477 216.785 33.8359 217.27 33.5078C217.758 33.1758 218.492 32.9922 219.473 32.957L220.609 32.9219V32.6348C220.609 31.9707 220.27 31.6387 219.59 31.6387C219.066 31.6387 218.451 31.7969 217.744 32.1133L217.152 30.9062C217.906 30.5117 218.742 30.3145 219.66 30.3145C220.539 30.3145 221.213 30.5059 221.682 30.8887C222.15 31.2715 222.385 31.8535 222.385 32.6348V37H221.137ZM220.609 33.9648L219.918 33.9883C219.398 34.0039 219.012 34.0977 218.758 34.2695C218.504 34.4414 218.377 34.7031 218.377 35.0547C218.377 35.5586 218.666 35.8105 219.244 35.8105C219.658 35.8105 219.988 35.6914 220.234 35.4531C220.484 35.2148 220.609 34.8984 220.609 34.5039V33.9648ZM226.018 37H224.23V27.8828H226.018V37ZM230.611 31.5977C230.232 31.5977 229.936 31.7188 229.721 31.9609C229.506 32.1992 229.383 32.5391 229.352 32.9805H231.859C231.852 32.5391 231.736 32.1992 231.514 31.9609C231.291 31.7188 230.99 31.5977 230.611 31.5977ZM230.863 37.1172C229.809 37.1172 228.984 36.8262 228.391 36.2441C227.797 35.6621 227.5 34.8379 227.5 33.7715C227.5 32.6738 227.773 31.8262 228.32 31.2285C228.871 30.627 229.631 30.3262 230.6 30.3262C231.525 30.3262 232.246 30.5898 232.762 31.1172C233.277 31.6445 233.535 32.373 233.535 33.3027V34.1699H229.311C229.33 34.6777 229.48 35.0742 229.762 35.3594C230.043 35.6445 230.438 35.7871 230.945 35.7871C231.34 35.7871 231.713 35.7461 232.064 35.6641C232.416 35.582 232.783 35.4512 233.166 35.2715V36.6543C232.854 36.8105 232.52 36.9258 232.164 37C231.809 37.0781 231.375 37.1172 230.863 37.1172ZM234.736 36.1621C234.736 35.834 234.824 35.5859 235 35.418C235.176 35.25 235.432 35.166 235.768 35.166C236.092 35.166 236.342 35.252 236.518 35.4238C236.697 35.5957 236.787 35.8418 236.787 36.1621C236.787 36.4707 236.697 36.7148 236.518 36.8945C236.338 37.0703 236.088 37.1582 235.768 37.1582C235.439 37.1582 235.186 37.0723 235.006 36.9004C234.826 36.7246 234.736 36.4785 234.736 36.1621ZM234.736 31.3223C234.736 30.9941 234.824 30.7461 235 30.5781C235.176 30.4102 235.432 30.3262 235.768 30.3262C236.092 30.3262 236.342 30.4121 236.518 30.584C236.697 30.7559 236.787 31.002 236.787 31.3223C236.787 31.6387 236.695 31.8848 236.512 32.0605C236.332 32.2324 236.084 32.3184 235.768 32.3184C235.439 32.3184 235.186 32.2324 235.006 32.0605C234.826 31.8887 234.736 31.6426 234.736 31.3223ZM243.736 31.8496C244.65 31.8496 245.369 32.0703 245.893 32.5117C246.42 32.9531 246.684 33.5605 246.684 34.334C246.684 35.2129 246.41 35.8965 245.863 36.3848C245.316 36.873 244.562 37.1172 243.602 37.1172C243.176 37.1172 242.771 37.0762 242.389 36.9941C242.006 36.9082 241.686 36.7871 241.428 36.6309V36.0273C241.85 36.2422 242.225 36.3926 242.553 36.4785C242.881 36.5605 243.23 36.6016 243.602 36.6016C244.352 36.6016 244.953 36.4043 245.406 36.0098C245.859 35.6113 246.086 35.0742 246.086 34.3984C246.086 33.7617 245.865 33.2617 245.424 32.8984C244.982 32.5352 244.383 32.3535 243.625 32.3535C243.117 32.3535 242.586 32.4297 242.031 32.582L241.68 32.3535L242.02 28.4336H246.145V28.9961H242.57L242.307 32.0195C242.916 31.9062 243.393 31.8496 243.736 31.8496ZM252.426 37L249.232 29.0898H249.186C249.217 29.5742 249.232 30.0703 249.232 30.5781V37H248.658V28.4336H249.584L252.619 35.9688H252.654L255.689 28.4336H256.592V37H255.988V30.5078C255.988 30.0547 256.012 29.5859 256.059 29.1016H256.012L252.807 37H252.426ZM261.461 34V33.5195H264.244V34H261.461ZM271.902 37H271.328V30.7598C271.328 30.1934 271.352 29.6055 271.398 28.9961C271.34 29.0547 271.279 29.1113 271.217 29.166C271.154 29.2207 270.551 29.6953 269.406 30.5898L269.072 30.1738L271.398 28.4336H271.902V37ZM280.832 32.0664C280.832 33.1914 280.684 34.1328 280.387 34.8906C280.094 35.6484 279.664 36.209 279.098 36.5723C278.535 36.9355 277.854 37.1172 277.053 37.1172C276.646 37.1172 276.271 37.0664 275.928 36.9648V36.4609C276.096 36.5156 276.297 36.5586 276.531 36.5898C276.77 36.6172 276.951 36.6309 277.076 36.6309C278.041 36.6309 278.797 36.2832 279.344 35.5879C279.891 34.8887 280.195 33.8711 280.258 32.5352H280.188C279.902 32.9102 279.562 33.1992 279.168 33.4023C278.773 33.6016 278.361 33.7012 277.932 33.7012C277.139 33.7012 276.52 33.4824 276.074 33.0449C275.633 32.6074 275.412 31.9863 275.412 31.1816C275.412 30.3223 275.654 29.627 276.139 29.0957C276.627 28.5645 277.26 28.2988 278.037 28.2988C278.6 28.2988 279.092 28.4473 279.514 28.7441C279.936 29.0371 280.26 29.4688 280.486 30.0391C280.717 30.6094 280.832 31.2852 280.832 32.0664ZM278.037 28.8145C277.42 28.8145 276.928 29.0234 276.561 29.4414C276.193 29.8555 276.01 30.4238 276.01 31.1465C276.01 31.8262 276.18 32.3418 276.52 32.6934C276.859 33.0449 277.346 33.2207 277.979 33.2207C278.373 33.2207 278.74 33.1328 279.08 32.957C279.424 32.7812 279.695 32.5488 279.895 32.2598C280.098 31.9668 280.199 31.6699 280.199 31.3691C280.199 30.9121 280.107 30.4844 279.924 30.0859C279.744 29.6875 279.49 29.377 279.162 29.1543C278.838 28.9277 278.463 28.8145 278.037 28.8145ZM282.566 36.543C282.566 36.1602 282.723 35.9688 283.035 35.9688C283.355 35.9688 283.516 36.1602 283.516 36.543C283.516 36.9258 283.355 37.1172 283.035 37.1172C282.723 37.1172 282.566 36.9258 282.566 36.543ZM287.623 31.8496C288.537 31.8496 289.256 32.0703 289.779 32.5117C290.307 32.9531 290.57 33.5605 290.57 34.334C290.57 35.2129 290.297 35.8965 289.75 36.3848C289.203 36.873 288.449 37.1172 287.488 37.1172C287.062 37.1172 286.658 37.0762 286.275 36.9941C285.893 36.9082 285.572 36.7871 285.314 36.6309V36.0273C285.736 36.2422 286.111 36.3926 286.439 36.4785C286.768 36.5605 287.117 36.6016 287.488 36.6016C288.238 36.6016 288.84 36.4043 289.293 36.0098C289.746 35.6113 289.973 35.0742 289.973 34.3984C289.973 33.7617 289.752 33.2617 289.311 32.8984C288.869 32.5352 288.27 32.3535 287.512 32.3535C287.004 32.3535 286.473 32.4297 285.918 32.582L285.566 32.3535L285.906 28.4336H290.031V28.9961H286.457L286.193 32.0195C286.803 31.9062 287.279 31.8496 287.623 31.8496ZM292.568 30.9883C292.568 31.7148 292.656 32.2617 292.832 32.6289C293.008 32.9922 293.283 33.1738 293.658 33.1738C294.412 33.1738 294.789 32.4453 294.789 30.9883C294.789 30.2695 294.691 29.7305 294.496 29.3711C294.305 29.0078 294.025 28.8262 293.658 28.8262C293.283 28.8262 293.008 29.0078 292.832 29.3711C292.656 29.7305 292.568 30.2695 292.568 30.9883ZM295.363 30.9883C295.363 31.8711 295.217 32.543 294.924 33.0039C294.631 33.4609 294.209 33.6895 293.658 33.6895C293.139 33.6895 292.73 33.4551 292.434 32.9863C292.141 32.5137 291.994 31.8477 291.994 30.9883C291.994 30.1172 292.135 29.4531 292.416 28.9961C292.697 28.5391 293.111 28.3105 293.658 28.3105C294.201 28.3105 294.621 28.5469 294.918 29.0195C295.215 29.4883 295.363 30.1445 295.363 30.9883ZM297.561 34.4336C297.561 35.1562 297.648 35.6992 297.824 36.0625C298 36.4219 298.275 36.6016 298.65 36.6016C299.404 36.6016 299.781 35.8789 299.781 34.4336C299.781 32.9922 299.404 32.2715 298.65 32.2715C298.275 32.2715 298 32.4512 297.824 32.8105C297.648 33.166 297.561 33.707 297.561 34.4336ZM300.355 34.4336C300.355 35.3164 300.211 35.9883 299.922 36.4492C299.633 36.9062 299.213 37.1348 298.662 37.1348C298.131 37.1348 297.719 36.8984 297.426 36.4258C297.133 35.9492 296.986 35.2852 296.986 34.4336C296.986 33.5547 297.129 32.8887 297.414 32.4355C297.703 31.9824 298.119 31.7559 298.662 31.7559C299.197 31.7559 299.613 31.9902 299.91 32.459C300.207 32.9277 300.355 33.5859 300.355 34.4336ZM298.832 28.4336L294.08 37H293.518L298.27 28.4336H298.832Z" fill="white"/>
<path d="M192.895 53.4648H193.492C194.051 53.4648 194.469 53.3555 194.746 53.1367C195.023 52.9141 195.162 52.5918 195.162 52.1699C195.162 51.7441 195.045 51.4297 194.811 51.2266C194.58 51.0234 194.217 50.9219 193.721 50.9219H192.895V53.4648ZM196.996 52.1055C196.996 53.0273 196.707 53.7324 196.129 54.2207C195.555 54.709 194.736 54.9531 193.674 54.9531H192.895V58H191.078V49.4336H193.814C194.854 49.4336 195.643 49.6582 196.182 50.1074C196.725 50.5527 196.996 51.2188 196.996 52.1055ZM203.113 58L202.873 57.1621H202.779C202.588 57.4668 202.316 57.7031 201.965 57.8711C201.613 58.0352 201.213 58.1172 200.764 58.1172C199.994 58.1172 199.414 57.9121 199.023 57.502C198.633 57.0879 198.438 56.4941 198.438 55.7207V51.4492H200.225V55.2754C200.225 55.748 200.309 56.1035 200.477 56.3418C200.645 56.5762 200.912 56.6934 201.279 56.6934C201.779 56.6934 202.141 56.5273 202.363 56.1953C202.586 55.8594 202.697 55.3047 202.697 54.5312V51.4492H204.484V58H203.113ZM210.004 51.3262C210.777 51.3262 211.383 51.6289 211.82 52.2344C212.258 52.8359 212.477 53.6621 212.477 54.7129C212.477 55.7949 212.25 56.6328 211.797 57.2266C211.348 57.8203 210.734 58.1172 209.957 58.1172C209.188 58.1172 208.584 57.8379 208.146 57.2793H208.023L207.725 58H206.359V48.8828H208.146V51.0039C208.146 51.2734 208.123 51.7051 208.076 52.2988H208.146C208.564 51.6504 209.184 51.3262 210.004 51.3262ZM209.43 52.7559C208.988 52.7559 208.666 52.8926 208.463 53.166C208.26 53.4355 208.154 53.8828 208.146 54.5078V54.7012C208.146 55.4043 208.25 55.9082 208.457 56.2129C208.668 56.5176 209 56.6699 209.453 56.6699C209.82 56.6699 210.111 56.502 210.326 56.166C210.545 55.8262 210.654 55.334 210.654 54.6895C210.654 54.0449 210.545 53.5625 210.326 53.2422C210.107 52.918 209.809 52.7559 209.43 52.7559ZM215.74 58H213.953V48.8828H215.74V58ZM217.545 49.7559C217.545 49.1738 217.869 48.8828 218.518 48.8828C219.166 48.8828 219.49 49.1738 219.49 49.7559C219.49 50.0332 219.408 50.25 219.244 50.4062C219.084 50.5586 218.842 50.6348 218.518 50.6348C217.869 50.6348 217.545 50.3418 217.545 49.7559ZM219.408 58H217.621V51.4492H219.408V58ZM223.949 58.1172C221.91 58.1172 220.891 56.998 220.891 54.7598C220.891 53.6465 221.168 52.7969 221.723 52.2109C222.277 51.6211 223.072 51.3262 224.107 51.3262C224.865 51.3262 225.545 51.4746 226.146 51.7715L225.619 53.1543C225.338 53.041 225.076 52.9492 224.834 52.8789C224.592 52.8047 224.35 52.7676 224.107 52.7676C223.178 52.7676 222.713 53.4277 222.713 54.748C222.713 56.0293 223.178 56.6699 224.107 56.6699C224.451 56.6699 224.77 56.625 225.062 56.5352C225.355 56.4414 225.648 56.2969 225.941 56.1016V57.6309C225.652 57.8145 225.359 57.9414 225.062 58.0117C224.77 58.082 224.398 58.1172 223.949 58.1172ZM227.213 57.1621C227.213 56.834 227.301 56.5859 227.477 56.418C227.652 56.25 227.908 56.166 228.244 56.166C228.568 56.166 228.818 56.252 228.994 56.4238C229.174 56.5957 229.264 56.8418 229.264 57.1621C229.264 57.4707 229.174 57.7148 228.994 57.8945C228.814 58.0703 228.564 58.1582 228.244 58.1582C227.916 58.1582 227.662 58.0723 227.482 57.9004C227.303 57.7246 227.213 57.4785 227.213 57.1621ZM227.213 52.3223C227.213 51.9941 227.301 51.7461 227.477 51.5781C227.652 51.4102 227.908 51.3262 228.244 51.3262C228.568 51.3262 228.818 51.4121 228.994 51.584C229.174 51.7559 229.264 52.002 229.264 52.3223C229.264 52.6387 229.172 52.8848 228.988 53.0605C228.809 53.2324 228.561 53.3184 228.244 53.3184C227.916 53.3184 227.662 53.2324 227.482 53.0605C227.303 52.8887 227.213 52.6426 227.213 52.3223ZM237.062 58H236.488V51.7598C236.488 51.1934 236.512 50.6055 236.559 49.9961C236.5 50.0547 236.439 50.1113 236.377 50.166C236.314 50.2207 235.711 50.6953 234.566 51.5898L234.232 51.1738L236.559 49.4336H237.062V58ZM243.332 49.2871C244.059 49.2871 244.643 49.4727 245.084 49.8438C245.529 50.2148 245.752 50.7168 245.752 51.3496C245.752 51.7871 245.613 52.1738 245.336 52.5098C245.062 52.8457 244.617 53.1562 244 53.4414C244.75 53.75 245.277 54.0879 245.582 54.4551C245.887 54.8223 246.039 55.2676 246.039 55.791C246.039 56.498 245.791 57.0625 245.295 57.4844C244.803 57.9062 244.141 58.1172 243.309 58.1172C242.445 58.1172 241.783 57.9199 241.322 57.5254C240.861 57.1309 240.631 56.5566 240.631 55.8027C240.631 55.291 240.793 54.8418 241.117 54.4551C241.441 54.0684 241.943 53.7383 242.623 53.4648C241.994 53.168 241.551 52.8555 241.293 52.5273C241.035 52.1953 240.906 51.7988 240.906 51.3379C240.906 50.9277 241.01 50.5684 241.217 50.2598C241.424 49.9473 241.713 49.707 242.084 49.5391C242.459 49.3711 242.875 49.2871 243.332 49.2871ZM241.229 55.8906C241.229 56.4297 241.41 56.8477 241.773 57.1445C242.141 57.4414 242.652 57.5898 243.309 57.5898C243.949 57.5898 244.465 57.4336 244.855 57.1211C245.246 56.8047 245.441 56.377 245.441 55.8379C245.441 55.3535 245.287 54.9609 244.979 54.6602C244.674 54.3555 244.084 54.0371 243.209 53.7051C242.49 53.9824 241.98 54.2891 241.68 54.625C241.379 54.9609 241.229 55.3828 241.229 55.8906ZM243.32 49.8145C242.77 49.8145 242.326 49.9512 241.99 50.2246C241.658 50.4941 241.492 50.8652 241.492 51.3379C241.492 51.6113 241.553 51.8535 241.674 52.0645C241.799 52.2715 241.977 52.4609 242.207 52.6328C242.441 52.8008 242.832 52.998 243.379 53.2246C244.016 52.9785 244.473 52.707 244.75 52.4102C245.027 52.1133 245.166 51.7559 245.166 51.3379C245.166 50.8691 245 50.498 244.668 50.2246C244.34 49.9512 243.891 49.8145 243.32 49.8145ZM247.727 57.543C247.727 57.1602 247.883 56.9688 248.195 56.9688C248.516 56.9688 248.676 57.1602 248.676 57.543C248.676 57.9258 248.516 58.1172 248.195 58.1172C247.883 58.1172 247.727 57.9258 247.727 57.543ZM251.594 58L255.121 49.9961H250.275V49.4336H255.818V49.8613L252.279 58H251.594ZM259.639 52.8496C260.553 52.8496 261.271 53.0703 261.795 53.5117C262.322 53.9531 262.586 54.5605 262.586 55.334C262.586 56.2129 262.312 56.8965 261.766 57.3848C261.219 57.873 260.465 58.1172 259.504 58.1172C259.078 58.1172 258.674 58.0762 258.291 57.9941C257.908 57.9082 257.588 57.7871 257.33 57.6309V57.0273C257.752 57.2422 258.127 57.3926 258.455 57.4785C258.783 57.5605 259.133 57.6016 259.504 57.6016C260.254 57.6016 260.855 57.4043 261.309 57.0098C261.762 56.6113 261.988 56.0742 261.988 55.3984C261.988 54.7617 261.768 54.2617 261.326 53.8984C260.885 53.5352 260.285 53.3535 259.527 53.3535C259.02 53.3535 258.488 53.4297 257.934 53.582L257.582 53.3535L257.922 49.4336H262.047V49.9961H258.473L258.209 53.0195C258.818 52.9062 259.295 52.8496 259.639 52.8496ZM268.328 58L265.135 50.0898H265.088C265.119 50.5742 265.135 51.0703 265.135 51.5781V58H264.561V49.4336H265.486L268.521 56.9688H268.557L271.592 49.4336H272.494V58H271.891V51.5078C271.891 51.0547 271.914 50.5859 271.961 50.1016H271.914L268.709 58H268.328ZM277.363 55V54.5195H280.146V55H277.363ZM285.766 58L289.293 49.9961H284.447V49.4336H289.99V49.8613L286.451 58H285.766ZM296.4 51.4492C296.4 51.9805 296.232 52.4277 295.896 52.791C295.564 53.1543 295.117 53.3867 294.555 53.4883V53.5234C295.242 53.6094 295.766 53.8281 296.125 54.1797C296.484 54.5312 296.664 55.0039 296.664 55.5977C296.664 56.3984 296.391 57.0195 295.844 57.4609C295.301 57.8984 294.518 58.1172 293.494 58.1172C292.623 58.1172 291.863 57.9551 291.215 57.6309V57.0508C291.543 57.2227 291.91 57.3574 292.316 57.4551C292.727 57.5527 293.111 57.6016 293.471 57.6016C294.334 57.6016 294.982 57.4277 295.416 57.0801C295.85 56.7285 296.066 56.2344 296.066 55.5977C296.066 55.0312 295.844 54.5957 295.398 54.291C294.957 53.9863 294.307 53.834 293.447 53.834H292.521V53.2715H293.459C294.17 53.2715 294.732 53.1035 295.146 52.7676C295.564 52.4277 295.773 51.9688 295.773 51.3906C295.773 50.9141 295.604 50.5332 295.264 50.248C294.928 49.959 294.486 49.8145 293.939 49.8145C293.514 49.8145 293.125 49.875 292.773 49.9961C292.422 50.1133 292.027 50.3164 291.59 50.6055L291.303 50.2129C291.635 49.9355 292.035 49.7168 292.504 49.5566C292.973 49.3926 293.447 49.3105 293.928 49.3105C294.717 49.3105 295.326 49.498 295.756 49.873C296.186 50.2441 296.4 50.7695 296.4 51.4492ZM298.469 57.543C298.469 57.1602 298.625 56.9688 298.938 56.9688C299.258 56.9688 299.418 57.1602 299.418 57.543C299.418 57.9258 299.258 58.1172 298.938 58.1172C298.625 58.1172 298.469 57.9258 298.469 57.543ZM306.402 58H301.041V57.4844L303.32 55.1055C303.961 54.4414 304.41 53.9336 304.668 53.582C304.926 53.2305 305.115 52.8945 305.236 52.5742C305.357 52.2539 305.418 51.918 305.418 51.5664C305.418 51.0547 305.25 50.6387 304.914 50.3184C304.578 49.998 304.143 49.8379 303.607 49.8379C302.893 49.8379 302.209 50.0977 301.557 50.6172L301.24 50.2129C301.955 49.6113 302.748 49.3105 303.619 49.3105C304.365 49.3105 304.951 49.5098 305.377 49.9082C305.807 50.3066 306.021 50.8555 306.021 51.5547C306.021 52.1211 305.877 52.6699 305.588 53.2012C305.303 53.7285 304.779 54.3809 304.018 55.1582L301.82 57.4141V57.4375H306.402V58ZM308.471 51.9883C308.471 52.7148 308.559 53.2617 308.734 53.6289C308.91 53.9922 309.186 54.1738 309.561 54.1738C310.314 54.1738 310.691 53.4453 310.691 51.9883C310.691 51.2695 310.594 50.7305 310.398 50.3711C310.207 50.0078 309.928 49.8262 309.561 49.8262C309.186 49.8262 308.91 50.0078 308.734 50.3711C308.559 50.7305 308.471 51.2695 308.471 51.9883ZM311.266 51.9883C311.266 52.8711 311.119 53.543 310.826 54.0039C310.533 54.4609 310.111 54.6895 309.561 54.6895C309.041 54.6895 308.633 54.4551 308.336 53.9863C308.043 53.5137 307.896 52.8477 307.896 51.9883C307.896 51.1172 308.037 50.4531 308.318 49.9961C308.6 49.5391 309.014 49.3105 309.561 49.3105C310.104 49.3105 310.523 49.5469 310.82 50.0195C311.117 50.4883 311.266 51.1445 311.266 51.9883ZM313.463 55.4336C313.463 56.1562 313.551 56.6992 313.727 57.0625C313.902 57.4219 314.178 57.6016 314.553 57.6016C315.307 57.6016 315.684 56.8789 315.684 55.4336C315.684 53.9922 315.307 53.2715 314.553 53.2715C314.178 53.2715 313.902 53.4512 313.727 53.8105C313.551 54.166 313.463 54.707 313.463 55.4336ZM316.258 55.4336C316.258 56.3164 316.113 56.9883 315.824 57.4492C315.535 57.9062 315.115 58.1348 314.564 58.1348C314.033 58.1348 313.621 57.8984 313.328 57.4258C313.035 56.9492 312.889 56.2852 312.889 55.4336C312.889 54.5547 313.031 53.8887 313.316 53.4355C313.605 52.9824 314.021 52.7559 314.564 52.7559C315.1 52.7559 315.516 52.9902 315.812 53.459C316.109 53.9277 316.258 54.5859 316.258 55.4336ZM314.734 49.4336L309.982 58H309.42L314.172 49.4336H314.734Z" fill="white"/>
<path d="M192.865 79H191.078V70.4336H195.988V71.9219H192.865V74.1309H195.771V75.6133H192.865V79ZM198.947 75.7129C198.947 76.3613 199.053 76.8516 199.264 77.1836C199.479 77.5156 199.826 77.6816 200.307 77.6816C200.783 77.6816 201.125 77.5176 201.332 77.1895C201.543 76.8574 201.648 76.3652 201.648 75.7129C201.648 75.0645 201.543 74.5781 201.332 74.2539C201.121 73.9297 200.775 73.7676 200.295 73.7676C199.818 73.7676 199.475 73.9297 199.264 74.2539C199.053 74.5742 198.947 75.0605 198.947 75.7129ZM203.477 75.7129C203.477 76.7793 203.195 77.6133 202.633 78.2148C202.07 78.8164 201.287 79.1172 200.283 79.1172C199.654 79.1172 199.1 78.9805 198.619 78.707C198.139 78.4297 197.77 78.0332 197.512 77.5176C197.254 77.002 197.125 76.4004 197.125 75.7129C197.125 74.6426 197.404 73.8105 197.963 73.2168C198.521 72.623 199.307 72.3262 200.318 72.3262C200.947 72.3262 201.502 72.4629 201.982 72.7363C202.463 73.0098 202.832 73.4023 203.09 73.9141C203.348 74.4258 203.477 75.0254 203.477 75.7129ZM209.594 79L209.354 78.1621H209.26C209.068 78.4668 208.797 78.7031 208.445 78.8711C208.094 79.0352 207.693 79.1172 207.244 79.1172C206.475 79.1172 205.895 78.9121 205.504 78.502C205.113 78.0879 204.918 77.4941 204.918 76.7207V72.4492H206.705V76.2754C206.705 76.748 206.789 77.1035 206.957 77.3418C207.125 77.5762 207.393 77.6934 207.76 77.6934C208.26 77.6934 208.621 77.5273 208.844 77.1953C209.066 76.8594 209.178 76.3047 209.178 75.5312V72.4492H210.965V79H209.594ZM218.887 79H217.1V75.1738C217.1 74.7012 217.016 74.3477 216.848 74.1133C216.68 73.875 216.412 73.7559 216.045 73.7559C215.545 73.7559 215.184 73.9238 214.961 74.2598C214.738 74.5918 214.627 75.1445 214.627 75.918V79H212.84V72.4492H214.205L214.445 73.2871H214.545C214.744 72.9707 215.018 72.7324 215.365 72.5723C215.717 72.4082 216.115 72.3262 216.561 72.3262C217.322 72.3262 217.9 72.5332 218.295 72.9473C218.689 73.3574 218.887 73.9512 218.887 74.7285V79ZM222.801 79.1172C222.031 79.1172 221.426 78.8184 220.984 78.2207C220.547 77.623 220.328 76.7949 220.328 75.7363C220.328 74.6621 220.551 73.8262 220.996 73.2285C221.445 72.627 222.062 72.3262 222.848 72.3262C223.672 72.3262 224.301 72.6465 224.734 73.2871H224.793C224.703 72.7988 224.658 72.3633 224.658 71.9805V69.8828H226.451V79H225.08L224.734 78.1504H224.658C224.252 78.7949 223.633 79.1172 222.801 79.1172ZM223.428 77.6934C223.885 77.6934 224.219 77.5605 224.43 77.2949C224.645 77.0293 224.762 76.5781 224.781 75.9414V75.748C224.781 75.0449 224.672 74.541 224.453 74.2363C224.238 73.9316 223.887 73.7793 223.398 73.7793C223 73.7793 222.689 73.9492 222.467 74.2891C222.248 74.625 222.139 75.1152 222.139 75.7598C222.139 76.4043 222.25 76.8887 222.473 77.2129C222.695 77.5332 223.014 77.6934 223.428 77.6934ZM236.512 79H231.578V70.4336H236.512V71.9219H233.395V73.8027H236.295V75.291H233.395V77.5H236.512V79ZM240.824 79.1172C238.785 79.1172 237.766 77.998 237.766 75.7598C237.766 74.6465 238.043 73.7969 238.598 73.2109C239.152 72.6211 239.947 72.3262 240.982 72.3262C241.74 72.3262 242.42 72.4746 243.021 72.7715L242.494 74.1543C242.213 74.041 241.951 73.9492 241.709 73.8789C241.467 73.8047 241.225 73.7676 240.982 73.7676C240.053 73.7676 239.588 74.4277 239.588 75.748C239.588 77.0293 240.053 77.6699 240.982 77.6699C241.326 77.6699 241.645 77.625 241.938 77.5352C242.23 77.4414 242.523 77.2969 242.816 77.1016V78.6309C242.527 78.8145 242.234 78.9414 241.938 79.0117C241.645 79.082 241.273 79.1172 240.824 79.1172ZM245.764 75.7129C245.764 76.3613 245.869 76.8516 246.08 77.1836C246.295 77.5156 246.643 77.6816 247.123 77.6816C247.6 77.6816 247.941 77.5176 248.148 77.1895C248.359 76.8574 248.465 76.3652 248.465 75.7129C248.465 75.0645 248.359 74.5781 248.148 74.2539C247.938 73.9297 247.592 73.7676 247.111 73.7676C246.635 73.7676 246.291 73.9297 246.08 74.2539C245.869 74.5742 245.764 75.0605 245.764 75.7129ZM250.293 75.7129C250.293 76.7793 250.012 77.6133 249.449 78.2148C248.887 78.8164 248.104 79.1172 247.1 79.1172C246.471 79.1172 245.916 78.9805 245.436 78.707C244.955 78.4297 244.586 78.0332 244.328 77.5176C244.07 77.002 243.941 76.4004 243.941 75.7129C243.941 74.6426 244.221 73.8105 244.779 73.2168C245.338 72.623 246.123 72.3262 247.135 72.3262C247.764 72.3262 248.318 72.4629 248.799 72.7363C249.279 73.0098 249.648 73.4023 249.906 73.9141C250.164 74.4258 250.293 75.0254 250.293 75.7129ZM256.34 77.0547C256.34 77.7266 256.105 78.2383 255.637 78.5898C255.172 78.9414 254.475 79.1172 253.545 79.1172C253.068 79.1172 252.662 79.084 252.326 79.0176C251.99 78.9551 251.676 78.8613 251.383 78.7363V77.2598C251.715 77.416 252.088 77.5469 252.502 77.6523C252.92 77.7578 253.287 77.8105 253.604 77.8105C254.252 77.8105 254.576 77.623 254.576 77.248C254.576 77.1074 254.533 76.9941 254.447 76.9082C254.361 76.8184 254.213 76.7188 254.002 76.6094C253.791 76.4961 253.51 76.3652 253.158 76.2168C252.654 76.0059 252.283 75.8105 252.045 75.6309C251.811 75.4512 251.639 75.2461 251.529 75.0156C251.424 74.7812 251.371 74.4941 251.371 74.1543C251.371 73.5723 251.596 73.123 252.045 72.8066C252.498 72.4863 253.139 72.3262 253.967 72.3262C254.756 72.3262 255.523 72.498 256.27 72.8418L255.73 74.1309C255.402 73.9902 255.096 73.875 254.811 73.7852C254.525 73.6953 254.234 73.6504 253.938 73.6504C253.41 73.6504 253.146 73.793 253.146 74.0781C253.146 74.2383 253.23 74.377 253.398 74.4941C253.57 74.6113 253.943 74.7852 254.518 75.0156C255.029 75.2227 255.404 75.416 255.643 75.5957C255.881 75.7754 256.057 75.9824 256.17 76.2168C256.283 76.4512 256.34 76.7305 256.34 77.0547ZM256.797 72.4492H258.754L259.99 76.1348C260.096 76.4551 260.168 76.834 260.207 77.2715H260.242C260.285 76.8691 260.369 76.4902 260.494 76.1348L261.707 72.4492H263.623L260.852 79.8379C260.598 80.5215 260.234 81.0332 259.762 81.373C259.293 81.7129 258.744 81.8828 258.115 81.8828C257.807 81.8828 257.504 81.8496 257.207 81.7832V80.3652C257.422 80.416 257.656 80.4414 257.91 80.4414C258.227 80.4414 258.502 80.3438 258.736 80.1484C258.975 79.957 259.16 79.666 259.293 79.2754L259.398 78.9531L256.797 72.4492ZM269.137 77.0547C269.137 77.7266 268.902 78.2383 268.434 78.5898C267.969 78.9414 267.271 79.1172 266.342 79.1172C265.865 79.1172 265.459 79.084 265.123 79.0176C264.787 78.9551 264.473 78.8613 264.18 78.7363V77.2598C264.512 77.416 264.885 77.5469 265.299 77.6523C265.717 77.7578 266.084 77.8105 266.4 77.8105C267.049 77.8105 267.373 77.623 267.373 77.248C267.373 77.1074 267.33 76.9941 267.244 76.9082C267.158 76.8184 267.01 76.7188 266.799 76.6094C266.588 76.4961 266.307 76.3652 265.955 76.2168C265.451 76.0059 265.08 75.8105 264.842 75.6309C264.607 75.4512 264.436 75.2461 264.326 75.0156C264.221 74.7812 264.168 74.4941 264.168 74.1543C264.168 73.5723 264.393 73.123 264.842 72.8066C265.295 72.4863 265.936 72.3262 266.764 72.3262C267.553 72.3262 268.32 72.498 269.066 72.8418L268.527 74.1309C268.199 73.9902 267.893 73.875 267.607 73.7852C267.322 73.6953 267.031 73.6504 266.734 73.6504C266.207 73.6504 265.943 73.793 265.943 74.0781C265.943 74.2383 266.027 74.377 266.195 74.4941C266.367 74.6113 266.74 74.7852 267.314 75.0156C267.826 75.2227 268.201 75.416 268.439 75.5957C268.678 75.7754 268.854 75.9824 268.967 76.2168C269.08 76.4512 269.137 76.7305 269.137 77.0547ZM273.291 77.6934C273.604 77.6934 273.979 77.625 274.416 77.4883V78.8184C273.971 79.0176 273.424 79.1172 272.775 79.1172C272.061 79.1172 271.539 78.9375 271.211 78.5781C270.887 78.2148 270.725 77.6719 270.725 76.9492V73.791H269.869V73.0352L270.854 72.4375L271.369 71.0547H272.512V72.4492H274.346V73.791H272.512V76.9492C272.512 77.2031 272.582 77.3906 272.723 77.5117C272.867 77.6328 273.057 77.6934 273.291 77.6934ZM278.459 73.5977C278.08 73.5977 277.783 73.7188 277.568 73.9609C277.354 74.1992 277.23 74.5391 277.199 74.9805H279.707C279.699 74.5391 279.584 74.1992 279.361 73.9609C279.139 73.7188 278.838 73.5977 278.459 73.5977ZM278.711 79.1172C277.656 79.1172 276.832 78.8262 276.238 78.2441C275.645 77.6621 275.348 76.8379 275.348 75.7715C275.348 74.6738 275.621 73.8262 276.168 73.2285C276.719 72.627 277.479 72.3262 278.447 72.3262C279.373 72.3262 280.094 72.5898 280.609 73.1172C281.125 73.6445 281.383 74.373 281.383 75.3027V76.1699H277.158C277.178 76.6777 277.328 77.0742 277.609 77.3594C277.891 77.6445 278.285 77.7871 278.793 77.7871C279.188 77.7871 279.561 77.7461 279.912 77.6641C280.264 77.582 280.631 77.4512 281.014 77.2715V78.6543C280.701 78.8105 280.367 78.9258 280.012 79C279.656 79.0781 279.223 79.1172 278.711 79.1172ZM288.701 79H286.914V75.1738C286.914 74.7012 286.834 74.3477 286.674 74.1133C286.518 73.875 286.27 73.7559 285.93 73.7559C285.473 73.7559 285.141 73.9238 284.934 74.2598C284.727 74.5957 284.623 75.1484 284.623 75.918V79H282.836V72.4492H284.201L284.441 73.2871H284.541C284.717 72.9863 284.971 72.752 285.303 72.584C285.635 72.4121 286.016 72.3262 286.445 72.3262C287.426 72.3262 288.09 72.6465 288.438 73.2871H288.596C288.771 72.9824 289.029 72.7461 289.369 72.5781C289.713 72.4102 290.1 72.3262 290.529 72.3262C291.271 72.3262 291.832 72.5176 292.211 72.9004C292.594 73.2793 292.785 73.8887 292.785 74.7285V79H290.992V75.1738C290.992 74.7012 290.912 74.3477 290.752 74.1133C290.596 73.875 290.348 73.7559 290.008 73.7559C289.57 73.7559 289.242 73.9121 289.023 74.2246C288.809 74.5371 288.701 75.0332 288.701 75.7129V79ZM294.373 78.1621C294.373 77.834 294.461 77.5859 294.637 77.418C294.812 77.25 295.068 77.166 295.404 77.166C295.729 77.166 295.979 77.252 296.154 77.4238C296.334 77.5957 296.424 77.8418 296.424 78.1621C296.424 78.4707 296.334 78.7148 296.154 78.8945C295.975 79.0703 295.725 79.1582 295.404 79.1582C295.076 79.1582 294.822 79.0723 294.643 78.9004C294.463 78.7246 294.373 78.4785 294.373 78.1621ZM294.373 73.3223C294.373 72.9941 294.461 72.7461 294.637 72.5781C294.812 72.4102 295.068 72.3262 295.404 72.3262C295.729 72.3262 295.979 72.4121 296.154 72.584C296.334 72.7559 296.424 73.002 296.424 73.3223C296.424 73.6387 296.332 73.8848 296.148 74.0605C295.969 74.2324 295.721 74.3184 295.404 74.3184C295.076 74.3184 294.822 74.2324 294.643 74.0605C294.463 73.8887 294.373 73.6426 294.373 73.3223ZM304.223 79H303.648V72.7598C303.648 72.1934 303.672 71.6055 303.719 70.9961C303.66 71.0547 303.6 71.1113 303.537 71.166C303.475 71.2207 302.871 71.6953 301.727 72.5898L301.393 72.1738L303.719 70.4336H304.223V79ZM308.031 78.543C308.031 78.1602 308.188 77.9688 308.5 77.9688C308.82 77.9688 308.98 78.1602 308.98 78.543C308.98 78.9258 308.82 79.1172 308.5 79.1172C308.188 79.1172 308.031 78.9258 308.031 78.543ZM313.352 70.2871C314.078 70.2871 314.662 70.4727 315.104 70.8438C315.549 71.2148 315.771 71.7168 315.771 72.3496C315.771 72.7871 315.633 73.1738 315.355 73.5098C315.082 73.8457 314.637 74.1562 314.02 74.4414C314.77 74.75 315.297 75.0879 315.602 75.4551C315.906 75.8223 316.059 76.2676 316.059 76.791C316.059 77.498 315.811 78.0625 315.314 78.4844C314.822 78.9062 314.16 79.1172 313.328 79.1172C312.465 79.1172 311.803 78.9199 311.342 78.5254C310.881 78.1309 310.65 77.5566 310.65 76.8027C310.65 76.291 310.812 75.8418 311.137 75.4551C311.461 75.0684 311.963 74.7383 312.643 74.4648C312.014 74.168 311.57 73.8555 311.312 73.5273C311.055 73.1953 310.926 72.7988 310.926 72.3379C310.926 71.9277 311.029 71.5684 311.236 71.2598C311.443 70.9473 311.732 70.707 312.104 70.5391C312.479 70.3711 312.895 70.2871 313.352 70.2871ZM311.248 76.8906C311.248 77.4297 311.43 77.8477 311.793 78.1445C312.16 78.4414 312.672 78.5898 313.328 78.5898C313.969 78.5898 314.484 78.4336 314.875 78.1211C315.266 77.8047 315.461 77.377 315.461 76.8379C315.461 76.3535 315.307 75.9609 314.998 75.6602C314.693 75.3555 314.104 75.0371 313.229 74.7051C312.51 74.9824 312 75.2891 311.699 75.625C311.398 75.9609 311.248 76.3828 311.248 76.8906ZM313.34 70.8145C312.789 70.8145 312.346 70.9512 312.01 71.2246C311.678 71.4941 311.512 71.8652 311.512 72.3379C311.512 72.6113 311.572 72.8535 311.693 73.0645C311.818 73.2715 311.996 73.4609 312.227 73.6328C312.461 73.8008 312.852 73.998 313.398 74.2246C314.035 73.9785 314.492 73.707 314.77 73.4102C315.047 73.1133 315.186 72.7559 315.186 72.3379C315.186 71.8691 315.02 71.498 314.688 71.2246C314.359 70.9512 313.91 70.8145 313.34 70.8145ZM318.754 79L322.281 70.9961H317.436V70.4336H322.979V70.8613L319.439 79H318.754ZM326.799 73.8496C327.713 73.8496 328.432 74.0703 328.955 74.5117C329.482 74.9531 329.746 75.5605 329.746 76.334C329.746 77.2129 329.473 77.8965 328.926 78.3848C328.379 78.873 327.625 79.1172 326.664 79.1172C326.238 79.1172 325.834 79.0762 325.451 78.9941C325.068 78.9082 324.748 78.7871 324.49 78.6309V78.0273C324.912 78.2422 325.287 78.3926 325.615 78.4785C325.943 78.5605 326.293 78.6016 326.664 78.6016C327.414 78.6016 328.016 78.4043 328.469 78.0098C328.922 77.6113 329.148 77.0742 329.148 76.3984C329.148 75.7617 328.928 75.2617 328.486 74.8984C328.045 74.5352 327.445 74.3535 326.688 74.3535C326.18 74.3535 325.648 74.4297 325.094 74.582L324.742 74.3535L325.082 70.4336H329.207V70.9961H325.633L325.369 74.0195C325.979 73.9062 326.455 73.8496 326.799 73.8496ZM335.488 79L332.295 71.0898H332.248C332.279 71.5742 332.295 72.0703 332.295 72.5781V79H331.721V70.4336H332.646L335.682 77.9688H335.717L338.752 70.4336H339.654V79H339.051V72.5078C339.051 72.0547 339.074 71.5859 339.121 71.1016H339.074L335.869 79H335.488ZM344.523 76V75.5195H347.307V76H344.523ZM352.926 79L356.453 70.9961H351.607V70.4336H357.15V70.8613L353.611 79H352.926ZM358.773 78.543C358.773 78.1602 358.93 77.9688 359.242 77.9688C359.562 77.9688 359.723 78.1602 359.723 78.543C359.723 78.9258 359.562 79.1172 359.242 79.1172C358.93 79.1172 358.773 78.9258 358.773 78.543ZM366.42 72.4492C366.42 72.9805 366.252 73.4277 365.916 73.791C365.584 74.1543 365.137 74.3867 364.574 74.4883V74.5234C365.262 74.6094 365.785 74.8281 366.145 75.1797C366.504 75.5312 366.684 76.0039 366.684 76.5977C366.684 77.3984 366.41 78.0195 365.863 78.4609C365.32 78.8984 364.537 79.1172 363.514 79.1172C362.643 79.1172 361.883 78.9551 361.234 78.6309V78.0508C361.562 78.2227 361.93 78.3574 362.336 78.4551C362.746 78.5527 363.131 78.6016 363.49 78.6016C364.354 78.6016 365.002 78.4277 365.436 78.0801C365.869 77.7285 366.086 77.2344 366.086 76.5977C366.086 76.0312 365.863 75.5957 365.418 75.291C364.977 74.9863 364.326 74.834 363.467 74.834H362.541V74.2715H363.479C364.189 74.2715 364.752 74.1035 365.166 73.7676C365.584 73.4277 365.793 72.9688 365.793 72.3906C365.793 71.9141 365.623 71.5332 365.283 71.248C364.947 70.959 364.506 70.8145 363.959 70.8145C363.533 70.8145 363.145 70.875 362.793 70.9961C362.441 71.1133 362.047 71.3164 361.609 71.6055L361.322 71.2129C361.654 70.9355 362.055 70.7168 362.523 70.5566C362.992 70.3926 363.467 70.3105 363.947 70.3105C364.736 70.3105 365.346 70.498 365.775 70.873C366.205 71.2441 366.42 71.7695 366.42 72.4492ZM368.775 72.9883C368.775 73.7148 368.863 74.2617 369.039 74.6289C369.215 74.9922 369.49 75.1738 369.865 75.1738C370.619 75.1738 370.996 74.4453 370.996 72.9883C370.996 72.2695 370.898 71.7305 370.703 71.3711C370.512 71.0078 370.232 70.8262 369.865 70.8262C369.49 70.8262 369.215 71.0078 369.039 71.3711C368.863 71.7305 368.775 72.2695 368.775 72.9883ZM371.57 72.9883C371.57 73.8711 371.424 74.543 371.131 75.0039C370.838 75.4609 370.416 75.6895 369.865 75.6895C369.346 75.6895 368.938 75.4551 368.641 74.9863C368.348 74.5137 368.201 73.8477 368.201 72.9883C368.201 72.1172 368.342 71.4531 368.623 70.9961C368.904 70.5391 369.318 70.3105 369.865 70.3105C370.408 70.3105 370.828 70.5469 371.125 71.0195C371.422 71.4883 371.57 72.1445 371.57 72.9883ZM373.768 76.4336C373.768 77.1562 373.855 77.6992 374.031 78.0625C374.207 78.4219 374.482 78.6016 374.857 78.6016C375.611 78.6016 375.988 77.8789 375.988 76.4336C375.988 74.9922 375.611 74.2715 374.857 74.2715C374.482 74.2715 374.207 74.4512 374.031 74.8105C373.855 75.166 373.768 75.707 373.768 76.4336ZM376.562 76.4336C376.562 77.3164 376.418 77.9883 376.129 78.4492C375.84 78.9062 375.42 79.1348 374.869 79.1348C374.338 79.1348 373.926 78.8984 373.633 78.4258C373.34 77.9492 373.193 77.2852 373.193 76.4336C373.193 75.5547 373.336 74.8887 373.621 74.4355C373.91 73.9824 374.326 73.7559 374.869 73.7559C375.404 73.7559 375.82 73.9902 376.117 74.459C376.414 74.9277 376.562 75.5859 376.562 76.4336ZM375.039 70.4336L370.287 79H369.725L374.477 70.4336H375.039Z" fill="white"/>
<path d="M192.865 100H191.078V91.4336H195.988V92.9219H192.865V95.1309H195.771V96.6133H192.865V100ZM198.947 96.7129C198.947 97.3613 199.053 97.8516 199.264 98.1836C199.479 98.5156 199.826 98.6816 200.307 98.6816C200.783 98.6816 201.125 98.5176 201.332 98.1895C201.543 97.8574 201.648 97.3652 201.648 96.7129C201.648 96.0645 201.543 95.5781 201.332 95.2539C201.121 94.9297 200.775 94.7676 200.295 94.7676C199.818 94.7676 199.475 94.9297 199.264 95.2539C199.053 95.5742 198.947 96.0605 198.947 96.7129ZM203.477 96.7129C203.477 97.7793 203.195 98.6133 202.633 99.2148C202.07 99.8164 201.287 100.117 200.283 100.117C199.654 100.117 199.1 99.9805 198.619 99.707C198.139 99.4297 197.77 99.0332 197.512 98.5176C197.254 98.002 197.125 97.4004 197.125 96.7129C197.125 95.6426 197.404 94.8105 197.963 94.2168C198.521 93.623 199.307 93.3262 200.318 93.3262C200.947 93.3262 201.502 93.4629 201.982 93.7363C202.463 94.0098 202.832 94.4023 203.09 94.9141C203.348 95.4258 203.477 96.0254 203.477 96.7129ZM209.594 100L209.354 99.1621H209.26C209.068 99.4668 208.797 99.7031 208.445 99.8711C208.094 100.035 207.693 100.117 207.244 100.117C206.475 100.117 205.895 99.9121 205.504 99.502C205.113 99.0879 204.918 98.4941 204.918 97.7207V93.4492H206.705V97.2754C206.705 97.748 206.789 98.1035 206.957 98.3418C207.125 98.5762 207.393 98.6934 207.76 98.6934C208.26 98.6934 208.621 98.5273 208.844 98.1953C209.066 97.8594 209.178 97.3047 209.178 96.5312V93.4492H210.965V100H209.594ZM218.887 100H217.1V96.1738C217.1 95.7012 217.016 95.3477 216.848 95.1133C216.68 94.875 216.412 94.7559 216.045 94.7559C215.545 94.7559 215.184 94.9238 214.961 95.2598C214.738 95.5918 214.627 96.1445 214.627 96.918V100H212.84V93.4492H214.205L214.445 94.2871H214.545C214.744 93.9707 215.018 93.7324 215.365 93.5723C215.717 93.4082 216.115 93.3262 216.561 93.3262C217.322 93.3262 217.9 93.5332 218.295 93.9473C218.689 94.3574 218.887 94.9512 218.887 95.7285V100ZM222.801 100.117C222.031 100.117 221.426 99.8184 220.984 99.2207C220.547 98.623 220.328 97.7949 220.328 96.7363C220.328 95.6621 220.551 94.8262 220.996 94.2285C221.445 93.627 222.062 93.3262 222.848 93.3262C223.672 93.3262 224.301 93.6465 224.734 94.2871H224.793C224.703 93.7988 224.658 93.3633 224.658 92.9805V90.8828H226.451V100H225.08L224.734 99.1504H224.658C224.252 99.7949 223.633 100.117 222.801 100.117ZM223.428 98.6934C223.885 98.6934 224.219 98.5605 224.43 98.2949C224.645 98.0293 224.762 97.5781 224.781 96.9414V96.748C224.781 96.0449 224.672 95.541 224.453 95.2363C224.238 94.9316 223.887 94.7793 223.398 94.7793C223 94.7793 222.689 94.9492 222.467 95.2891C222.248 95.625 222.139 96.1152 222.139 96.7598C222.139 97.4043 222.25 97.8887 222.473 98.2129C222.695 98.5332 223.014 98.6934 223.428 98.6934ZM234.883 100H233.066V92.9453H230.74V91.4336H237.209V92.9453H234.883V100ZM242.043 93.3262C242.285 93.3262 242.486 93.3438 242.646 93.3789L242.512 95.0547C242.367 95.0156 242.191 94.9961 241.984 94.9961C241.414 94.9961 240.969 95.1426 240.648 95.4355C240.332 95.7285 240.174 96.1387 240.174 96.666V100H238.387V93.4492H239.74L240.004 94.5508H240.092C240.295 94.1836 240.568 93.8887 240.912 93.666C241.26 93.4395 241.637 93.3262 242.043 93.3262ZM246.549 94.5977C246.17 94.5977 245.873 94.7188 245.658 94.9609C245.443 95.1992 245.32 95.5391 245.289 95.9805H247.797C247.789 95.5391 247.674 95.1992 247.451 94.9609C247.229 94.7188 246.928 94.5977 246.549 94.5977ZM246.801 100.117C245.746 100.117 244.922 99.8262 244.328 99.2441C243.734 98.6621 243.438 97.8379 243.438 96.7715C243.438 95.6738 243.711 94.8262 244.258 94.2285C244.809 93.627 245.568 93.3262 246.537 93.3262C247.463 93.3262 248.184 93.5898 248.699 94.1172C249.215 94.6445 249.473 95.373 249.473 96.3027V97.1699H245.248C245.268 97.6777 245.418 98.0742 245.699 98.3594C245.98 98.6445 246.375 98.7871 246.883 98.7871C247.277 98.7871 247.65 98.7461 248.002 98.6641C248.354 98.582 248.721 98.4512 249.104 98.2715V99.6543C248.791 99.8105 248.457 99.9258 248.102 100C247.746 100.078 247.312 100.117 246.801 100.117ZM255.086 100L254.74 99.1094H254.693C254.393 99.4883 254.082 99.752 253.762 99.9004C253.445 100.045 253.031 100.117 252.52 100.117C251.891 100.117 251.395 99.9375 251.031 99.5781C250.672 99.2188 250.492 98.707 250.492 98.043C250.492 97.3477 250.734 96.8359 251.219 96.5078C251.707 96.1758 252.441 95.9922 253.422 95.957L254.559 95.9219V95.6348C254.559 94.9707 254.219 94.6387 253.539 94.6387C253.016 94.6387 252.4 94.7969 251.693 95.1133L251.102 93.9062C251.855 93.5117 252.691 93.3145 253.609 93.3145C254.488 93.3145 255.162 93.5059 255.631 93.8887C256.1 94.2715 256.334 94.8535 256.334 95.6348V100H255.086ZM254.559 96.9648L253.867 96.9883C253.348 97.0039 252.961 97.0977 252.707 97.2695C252.453 97.4414 252.326 97.7031 252.326 98.0547C252.326 98.5586 252.615 98.8105 253.193 98.8105C253.607 98.8105 253.938 98.6914 254.184 98.4531C254.434 98.2148 254.559 97.8984 254.559 97.5039V96.9648ZM262.75 98.0547C262.75 98.7266 262.516 99.2383 262.047 99.5898C261.582 99.9414 260.885 100.117 259.955 100.117C259.479 100.117 259.072 100.084 258.736 100.018C258.4 99.9551 258.086 99.8613 257.793 99.7363V98.2598C258.125 98.416 258.498 98.5469 258.912 98.6523C259.33 98.7578 259.697 98.8105 260.014 98.8105C260.662 98.8105 260.986 98.623 260.986 98.248C260.986 98.1074 260.943 97.9941 260.857 97.9082C260.771 97.8184 260.623 97.7188 260.412 97.6094C260.201 97.4961 259.92 97.3652 259.568 97.2168C259.064 97.0059 258.693 96.8105 258.455 96.6309C258.221 96.4512 258.049 96.2461 257.939 96.0156C257.834 95.7812 257.781 95.4941 257.781 95.1543C257.781 94.5723 258.006 94.123 258.455 93.8066C258.908 93.4863 259.549 93.3262 260.377 93.3262C261.166 93.3262 261.934 93.498 262.68 93.8418L262.141 95.1309C261.812 94.9902 261.506 94.875 261.221 94.7852C260.936 94.6953 260.645 94.6504 260.348 94.6504C259.82 94.6504 259.557 94.793 259.557 95.0781C259.557 95.2383 259.641 95.377 259.809 95.4941C259.98 95.6113 260.354 95.7852 260.928 96.0156C261.439 96.2227 261.814 96.416 262.053 96.5957C262.291 96.7754 262.467 96.9824 262.58 97.2168C262.693 97.4512 262.75 97.7305 262.75 98.0547ZM268.785 100L268.545 99.1621H268.451C268.26 99.4668 267.988 99.7031 267.637 99.8711C267.285 100.035 266.885 100.117 266.436 100.117C265.666 100.117 265.086 99.9121 264.695 99.502C264.305 99.0879 264.109 98.4941 264.109 97.7207V93.4492H265.896V97.2754C265.896 97.748 265.98 98.1035 266.148 98.3418C266.316 98.5762 266.584 98.6934 266.951 98.6934C267.451 98.6934 267.812 98.5273 268.035 98.1953C268.258 97.8594 268.369 97.3047 268.369 96.5312V93.4492H270.156V100H268.785ZM275.688 93.3262C275.93 93.3262 276.131 93.3438 276.291 93.3789L276.156 95.0547C276.012 95.0156 275.836 94.9961 275.629 94.9961C275.059 94.9961 274.613 95.1426 274.293 95.4355C273.977 95.7285 273.818 96.1387 273.818 96.666V100H272.031V93.4492H273.385L273.648 94.5508H273.736C273.939 94.1836 274.213 93.8887 274.557 93.666C274.904 93.4395 275.281 93.3262 275.688 93.3262ZM276.543 93.4492H278.5L279.736 97.1348C279.842 97.4551 279.914 97.834 279.953 98.2715H279.988C280.031 97.8691 280.115 97.4902 280.24 97.1348L281.453 93.4492H283.369L280.598 100.838C280.344 101.521 279.98 102.033 279.508 102.373C279.039 102.713 278.49 102.883 277.861 102.883C277.553 102.883 277.25 102.85 276.953 102.783V101.365C277.168 101.416 277.402 101.441 277.656 101.441C277.973 101.441 278.248 101.344 278.482 101.148C278.721 100.957 278.906 100.666 279.039 100.275L279.145 99.9531L276.543 93.4492ZM284.061 99.1621C284.061 98.834 284.148 98.5859 284.324 98.418C284.5 98.25 284.756 98.166 285.092 98.166C285.416 98.166 285.666 98.252 285.842 98.4238C286.021 98.5957 286.111 98.8418 286.111 99.1621C286.111 99.4707 286.021 99.7148 285.842 99.8945C285.662 100.07 285.412 100.158 285.092 100.158C284.764 100.158 284.51 100.072 284.33 99.9004C284.15 99.7246 284.061 99.4785 284.061 99.1621ZM284.061 94.3223C284.061 93.9941 284.148 93.7461 284.324 93.5781C284.5 93.4102 284.756 93.3262 285.092 93.3262C285.416 93.3262 285.666 93.4121 285.842 93.584C286.021 93.7559 286.111 94.002 286.111 94.3223C286.111 94.6387 286.02 94.8848 285.836 95.0605C285.656 95.2324 285.408 95.3184 285.092 95.3184C284.764 95.3184 284.51 95.2324 284.33 95.0605C284.15 94.8887 284.061 94.6426 284.061 94.3223ZM296.096 95.6934C296.096 97.1973 295.865 98.3105 295.404 99.0332C294.947 99.7559 294.254 100.117 293.324 100.117C292.43 100.117 291.75 99.7461 291.285 99.0039C290.82 98.2578 290.588 97.1543 290.588 95.6934C290.588 94.2012 290.812 93.0957 291.262 92.377C291.715 91.6582 292.402 91.2988 293.324 91.2988C294.227 91.2988 294.914 91.6719 295.387 92.418C295.859 93.1602 296.096 94.252 296.096 95.6934ZM291.221 95.6934C291.221 97.0215 291.395 98.0039 291.742 98.6406C292.09 99.2734 292.617 99.5898 293.324 99.5898C294.062 99.5898 294.6 99.2617 294.936 98.6055C295.275 97.9492 295.445 96.9785 295.445 95.6934C295.445 94.4277 295.275 93.4668 294.936 92.8105C294.6 92.1543 294.062 91.8262 293.324 91.8262C292.586 91.8262 292.051 92.1543 291.719 92.8105C291.387 93.4668 291.221 94.4277 291.221 95.6934ZM301.75 100L298.557 92.0898H298.51C298.541 92.5742 298.557 93.0703 298.557 93.5781V100H297.982V91.4336H298.908L301.943 98.9688H301.979L305.014 91.4336H305.916V100H305.312V93.5078C305.312 93.0547 305.336 92.5859 305.383 92.1016H305.336L302.131 100H301.75ZM310.785 97V96.5195H313.568V97H310.785ZM323.412 95.6934C323.412 97.1973 323.182 98.3105 322.721 99.0332C322.264 99.7559 321.57 100.117 320.641 100.117C319.746 100.117 319.066 99.7461 318.602 99.0039C318.137 98.2578 317.904 97.1543 317.904 95.6934C317.904 94.2012 318.129 93.0957 318.578 92.377C319.031 91.6582 319.719 91.2988 320.641 91.2988C321.543 91.2988 322.23 91.6719 322.703 92.418C323.176 93.1602 323.412 94.252 323.412 95.6934ZM318.537 95.6934C318.537 97.0215 318.711 98.0039 319.059 98.6406C319.406 99.2734 319.934 99.5898 320.641 99.5898C321.379 99.5898 321.916 99.2617 322.252 98.6055C322.592 97.9492 322.762 96.9785 322.762 95.6934C322.762 94.4277 322.592 93.4668 322.252 92.8105C321.916 92.1543 321.379 91.8262 320.641 91.8262C319.902 91.8262 319.367 92.1543 319.035 92.8105C318.703 93.4668 318.537 94.4277 318.537 95.6934ZM325.035 99.543C325.035 99.1602 325.191 98.9688 325.504 98.9688C325.824 98.9688 325.984 99.1602 325.984 99.543C325.984 99.9258 325.824 100.117 325.504 100.117C325.191 100.117 325.035 99.9258 325.035 99.543ZM333.127 95.6934C333.127 97.1973 332.896 98.3105 332.436 99.0332C331.979 99.7559 331.285 100.117 330.355 100.117C329.461 100.117 328.781 99.7461 328.316 99.0039C327.852 98.2578 327.619 97.1543 327.619 95.6934C327.619 94.2012 327.844 93.0957 328.293 92.377C328.746 91.6582 329.434 91.2988 330.355 91.2988C331.258 91.2988 331.945 91.6719 332.418 92.418C332.891 93.1602 333.127 94.252 333.127 95.6934ZM328.252 95.6934C328.252 97.0215 328.426 98.0039 328.773 98.6406C329.121 99.2734 329.648 99.5898 330.355 99.5898C331.094 99.5898 331.631 99.2617 331.967 98.6055C332.307 97.9492 332.477 96.9785 332.477 95.6934C332.477 94.4277 332.307 93.4668 331.967 92.8105C331.631 92.1543 331.094 91.8262 330.355 91.8262C329.617 91.8262 329.082 92.1543 328.75 92.8105C328.418 93.4668 328.252 94.4277 328.252 95.6934ZM335.037 93.9883C335.037 94.7148 335.125 95.2617 335.301 95.6289C335.477 95.9922 335.752 96.1738 336.127 96.1738C336.881 96.1738 337.258 95.4453 337.258 93.9883C337.258 93.2695 337.16 92.7305 336.965 92.3711C336.773 92.0078 336.494 91.8262 336.127 91.8262C335.752 91.8262 335.477 92.0078 335.301 92.3711C335.125 92.7305 335.037 93.2695 335.037 93.9883ZM337.832 93.9883C337.832 94.8711 337.686 95.543 337.393 96.0039C337.1 96.4609 336.678 96.6895 336.127 96.6895C335.607 96.6895 335.199 96.4551 334.902 95.9863C334.609 95.5137 334.463 94.8477 334.463 93.9883C334.463 93.1172 334.604 92.4531 334.885 91.9961C335.166 91.5391 335.58 91.3105 336.127 91.3105C336.67 91.3105 337.09 91.5469 337.387 92.0195C337.684 92.4883 337.832 93.1445 337.832 93.9883ZM340.029 97.4336C340.029 98.1562 340.117 98.6992 340.293 99.0625C340.469 99.4219 340.744 99.6016 341.119 99.6016C341.873 99.6016 342.25 98.8789 342.25 97.4336C342.25 95.9922 341.873 95.2715 341.119 95.2715C340.744 95.2715 340.469 95.4512 340.293 95.8105C340.117 96.166 340.029 96.707 340.029 97.4336ZM342.824 97.4336C342.824 98.3164 342.68 98.9883 342.391 99.4492C342.102 99.9062 341.682 100.135 341.131 100.135C340.6 100.135 340.188 99.8984 339.895 99.4258C339.602 98.9492 339.455 98.2852 339.455 97.4336C339.455 96.5547 339.598 95.8887 339.883 95.4355C340.172 94.9824 340.588 94.7559 341.131 94.7559C341.666 94.7559 342.082 94.9902 342.379 95.459C342.676 95.9277 342.824 96.5859 342.824 97.4336ZM341.301 91.4336L336.549 100H335.986L340.738 91.4336H341.301Z" fill="white"/>
<path d="M196.322 121L195.701 118.961H192.578L191.957 121H190L193.023 112.398H195.244L198.279 121H196.322ZM195.268 117.438C194.693 115.59 194.369 114.545 194.295 114.303C194.225 114.061 194.174 113.869 194.143 113.729C194.014 114.229 193.645 115.465 193.035 117.438H195.268ZM202.615 116.189H206.014V120.631C205.463 120.811 204.943 120.936 204.455 121.006C203.971 121.08 203.475 121.117 202.967 121.117C201.674 121.117 200.686 120.738 200.002 119.98C199.322 119.219 198.982 118.127 198.982 116.705C198.982 115.322 199.377 114.244 200.166 113.471C200.959 112.697 202.057 112.311 203.459 112.311C204.338 112.311 205.186 112.486 206.002 112.838L205.398 114.291C204.773 113.979 204.123 113.822 203.447 113.822C202.662 113.822 202.033 114.086 201.561 114.613C201.088 115.141 200.852 115.85 200.852 116.74C200.852 117.67 201.041 118.381 201.42 118.873C201.803 119.361 202.357 119.605 203.084 119.605C203.463 119.605 203.848 119.566 204.238 119.488V117.701H202.615V116.189ZM216.232 118.621C216.232 119.395 215.953 120.004 215.395 120.449C214.84 120.895 214.066 121.117 213.074 121.117C212.16 121.117 211.352 120.945 210.648 120.602V118.914C211.227 119.172 211.715 119.354 212.113 119.459C212.516 119.564 212.883 119.617 213.215 119.617C213.613 119.617 213.918 119.541 214.129 119.389C214.344 119.236 214.451 119.01 214.451 118.709C214.451 118.541 214.404 118.393 214.311 118.264C214.217 118.131 214.078 118.004 213.895 117.883C213.715 117.762 213.346 117.568 212.787 117.303C212.264 117.057 211.871 116.82 211.609 116.594C211.348 116.367 211.139 116.104 210.982 115.803C210.826 115.502 210.748 115.15 210.748 114.748C210.748 113.99 211.004 113.395 211.516 112.961C212.031 112.527 212.742 112.311 213.648 112.311C214.094 112.311 214.518 112.363 214.92 112.469C215.326 112.574 215.75 112.723 216.191 112.914L215.605 114.326C215.148 114.139 214.77 114.008 214.469 113.934C214.172 113.859 213.879 113.822 213.59 113.822C213.246 113.822 212.982 113.902 212.799 114.062C212.615 114.223 212.523 114.432 212.523 114.689C212.523 114.85 212.561 114.99 212.635 115.111C212.709 115.229 212.826 115.344 212.986 115.457C213.15 115.566 213.535 115.766 214.141 116.055C214.941 116.438 215.49 116.822 215.787 117.209C216.084 117.592 216.232 118.062 216.232 118.621ZM223.691 121H221.904V117.174C221.904 116.229 221.553 115.756 220.85 115.756C220.35 115.756 219.988 115.926 219.766 116.266C219.543 116.605 219.432 117.156 219.432 117.918V121H217.645V111.883H219.432V113.74C219.432 113.885 219.418 114.225 219.391 114.76L219.35 115.287H219.443C219.842 114.646 220.475 114.326 221.342 114.326C222.111 114.326 222.695 114.533 223.094 114.947C223.492 115.361 223.691 115.955 223.691 116.729V121ZM229.691 121L229.346 120.109H229.299C228.998 120.488 228.688 120.752 228.367 120.9C228.051 121.045 227.637 121.117 227.125 121.117C226.496 121.117 226 120.938 225.637 120.578C225.277 120.219 225.098 119.707 225.098 119.043C225.098 118.348 225.34 117.836 225.824 117.508C226.312 117.176 227.047 116.992 228.027 116.957L229.164 116.922V116.635C229.164 115.971 228.824 115.639 228.145 115.639C227.621 115.639 227.006 115.797 226.299 116.113L225.707 114.906C226.461 114.512 227.297 114.314 228.215 114.314C229.094 114.314 229.768 114.506 230.236 114.889C230.705 115.271 230.939 115.854 230.939 116.635V121H229.691ZM229.164 117.965L228.473 117.988C227.953 118.004 227.566 118.098 227.312 118.27C227.059 118.441 226.932 118.703 226.932 119.055C226.932 119.559 227.221 119.811 227.799 119.811C228.213 119.811 228.543 119.691 228.789 119.453C229.039 119.215 229.164 118.898 229.164 118.504V117.965ZM236.441 114.326C236.684 114.326 236.885 114.344 237.045 114.379L236.91 116.055C236.766 116.016 236.59 115.996 236.383 115.996C235.812 115.996 235.367 116.143 235.047 116.436C234.73 116.729 234.572 117.139 234.572 117.666V121H232.785V114.449H234.139L234.402 115.551H234.49C234.693 115.184 234.967 114.889 235.311 114.666C235.658 114.439 236.035 114.326 236.441 114.326ZM240.947 115.598C240.568 115.598 240.271 115.719 240.057 115.961C239.842 116.199 239.719 116.539 239.688 116.98H242.195C242.188 116.539 242.072 116.199 241.85 115.961C241.627 115.719 241.326 115.598 240.947 115.598ZM241.199 121.117C240.145 121.117 239.32 120.826 238.727 120.244C238.133 119.662 237.836 118.838 237.836 117.771C237.836 116.674 238.109 115.826 238.656 115.229C239.207 114.627 239.967 114.326 240.936 114.326C241.861 114.326 242.582 114.59 243.098 115.117C243.613 115.645 243.871 116.373 243.871 117.303V118.17H239.646C239.666 118.678 239.816 119.074 240.098 119.359C240.379 119.645 240.773 119.787 241.281 119.787C241.676 119.787 242.049 119.746 242.4 119.664C242.752 119.582 243.119 119.451 243.502 119.271V120.654C243.189 120.811 242.855 120.926 242.5 121C242.145 121.078 241.711 121.117 241.199 121.117ZM251.371 121H249.584V117.174C249.584 116.229 249.232 115.756 248.529 115.756C248.029 115.756 247.668 115.926 247.445 116.266C247.223 116.605 247.111 117.156 247.111 117.918V121H245.324V111.883H247.111V113.74C247.111 113.885 247.098 114.225 247.07 114.76L247.029 115.287H247.123C247.521 114.646 248.154 114.326 249.021 114.326C249.791 114.326 250.375 114.533 250.773 114.947C251.172 115.361 251.371 115.955 251.371 116.729V121ZM254.635 117.713C254.635 118.361 254.74 118.852 254.951 119.184C255.166 119.516 255.514 119.682 255.994 119.682C256.471 119.682 256.812 119.518 257.02 119.189C257.23 118.857 257.336 118.365 257.336 117.713C257.336 117.064 257.23 116.578 257.02 116.254C256.809 115.93 256.463 115.768 255.982 115.768C255.506 115.768 255.162 115.93 254.951 116.254C254.74 116.574 254.635 117.061 254.635 117.713ZM259.164 117.713C259.164 118.779 258.883 119.613 258.32 120.215C257.758 120.816 256.975 121.117 255.971 121.117C255.342 121.117 254.787 120.98 254.307 120.707C253.826 120.43 253.457 120.033 253.199 119.518C252.941 119.002 252.812 118.4 252.812 117.713C252.812 116.643 253.092 115.811 253.65 115.217C254.209 114.623 254.994 114.326 256.006 114.326C256.635 114.326 257.189 114.463 257.67 114.736C258.15 115.01 258.52 115.402 258.777 115.914C259.035 116.426 259.164 117.025 259.164 117.713ZM262.428 121H260.641V111.883H262.428V121ZM266.383 121.117C265.613 121.117 265.008 120.818 264.566 120.221C264.129 119.623 263.91 118.795 263.91 117.736C263.91 116.662 264.133 115.826 264.578 115.229C265.027 114.627 265.645 114.326 266.43 114.326C267.254 114.326 267.883 114.646 268.316 115.287H268.375C268.285 114.799 268.24 114.363 268.24 113.98V111.883H270.033V121H268.662L268.316 120.15H268.24C267.834 120.795 267.215 121.117 266.383 121.117ZM267.01 119.693C267.467 119.693 267.801 119.561 268.012 119.295C268.227 119.029 268.344 118.578 268.363 117.941V117.748C268.363 117.045 268.254 116.541 268.035 116.236C267.82 115.932 267.469 115.779 266.98 115.779C266.582 115.779 266.271 115.949 266.049 116.289C265.83 116.625 265.721 117.115 265.721 117.76C265.721 118.404 265.832 118.889 266.055 119.213C266.277 119.533 266.596 119.693 267.01 119.693ZM274.615 115.598C274.236 115.598 273.939 115.719 273.725 115.961C273.51 116.199 273.387 116.539 273.355 116.98H275.863C275.855 116.539 275.74 116.199 275.518 115.961C275.295 115.719 274.994 115.598 274.615 115.598ZM274.867 121.117C273.812 121.117 272.988 120.826 272.395 120.244C271.801 119.662 271.504 118.838 271.504 117.771C271.504 116.674 271.777 115.826 272.324 115.229C272.875 114.627 273.635 114.326 274.604 114.326C275.529 114.326 276.25 114.59 276.766 115.117C277.281 115.645 277.539 116.373 277.539 117.303V118.17H273.314C273.334 118.678 273.484 119.074 273.766 119.359C274.047 119.645 274.441 119.787 274.949 119.787C275.344 119.787 275.717 119.746 276.068 119.664C276.42 119.582 276.787 119.451 277.17 119.271V120.654C276.857 120.811 276.523 120.926 276.168 121C275.812 121.078 275.379 121.117 274.867 121.117ZM282.648 114.326C282.891 114.326 283.092 114.344 283.252 114.379L283.117 116.055C282.973 116.016 282.797 115.996 282.59 115.996C282.02 115.996 281.574 116.143 281.254 116.436C280.938 116.729 280.779 117.139 280.779 117.666V121H278.992V114.449H280.346L280.609 115.551H280.697C280.9 115.184 281.174 114.889 281.518 114.666C281.865 114.439 282.242 114.326 282.648 114.326ZM289.012 119.055C289.012 119.727 288.777 120.238 288.309 120.59C287.844 120.941 287.146 121.117 286.217 121.117C285.74 121.117 285.334 121.084 284.998 121.018C284.662 120.955 284.348 120.861 284.055 120.736V119.26C284.387 119.416 284.76 119.547 285.174 119.652C285.592 119.758 285.959 119.811 286.275 119.811C286.924 119.811 287.248 119.623 287.248 119.248C287.248 119.107 287.205 118.994 287.119 118.908C287.033 118.818 286.885 118.719 286.674 118.609C286.463 118.496 286.182 118.365 285.83 118.217C285.326 118.006 284.955 117.811 284.717 117.631C284.482 117.451 284.311 117.246 284.201 117.016C284.096 116.781 284.043 116.494 284.043 116.154C284.043 115.572 284.268 115.123 284.717 114.807C285.17 114.486 285.811 114.326 286.639 114.326C287.428 114.326 288.195 114.498 288.941 114.842L288.402 116.131C288.074 115.99 287.768 115.875 287.482 115.785C287.197 115.695 286.906 115.65 286.609 115.65C286.082 115.65 285.818 115.793 285.818 116.078C285.818 116.238 285.902 116.377 286.07 116.494C286.242 116.611 286.615 116.785 287.189 117.016C287.701 117.223 288.076 117.416 288.314 117.596C288.553 117.775 288.729 117.982 288.842 118.217C288.955 118.451 289.012 118.73 289.012 119.055ZM290.154 120.162C290.154 119.834 290.242 119.586 290.418 119.418C290.594 119.25 290.85 119.166 291.186 119.166C291.51 119.166 291.76 119.252 291.936 119.424C292.115 119.596 292.205 119.842 292.205 120.162C292.205 120.471 292.115 120.715 291.936 120.895C291.756 121.07 291.506 121.158 291.186 121.158C290.857 121.158 290.604 121.072 290.424 120.9C290.244 120.725 290.154 120.479 290.154 120.162ZM290.154 115.322C290.154 114.994 290.242 114.746 290.418 114.578C290.594 114.41 290.85 114.326 291.186 114.326C291.51 114.326 291.76 114.412 291.936 114.584C292.115 114.756 292.205 115.002 292.205 115.322C292.205 115.639 292.113 115.885 291.93 116.061C291.75 116.232 291.502 116.318 291.186 116.318C290.857 116.318 290.604 116.232 290.424 116.061C290.244 115.889 290.154 115.643 290.154 115.322ZM302.189 116.693C302.189 118.197 301.959 119.311 301.498 120.033C301.041 120.756 300.348 121.117 299.418 121.117C298.523 121.117 297.844 120.746 297.379 120.004C296.914 119.258 296.682 118.154 296.682 116.693C296.682 115.201 296.906 114.096 297.355 113.377C297.809 112.658 298.496 112.299 299.418 112.299C300.32 112.299 301.008 112.672 301.48 113.418C301.953 114.16 302.189 115.252 302.189 116.693ZM297.314 116.693C297.314 118.021 297.488 119.004 297.836 119.641C298.184 120.273 298.711 120.59 299.418 120.59C300.156 120.59 300.693 120.262 301.029 119.605C301.369 118.949 301.539 117.979 301.539 116.693C301.539 115.428 301.369 114.467 301.029 113.811C300.693 113.154 300.156 112.826 299.418 112.826C298.68 112.826 298.145 113.154 297.812 113.811C297.48 114.467 297.314 115.428 297.314 116.693ZM307.844 121L304.65 113.09H304.604C304.635 113.574 304.65 114.07 304.65 114.578V121H304.076V112.434H305.002L308.037 119.969H308.072L311.107 112.434H312.01V121H311.406V114.508C311.406 114.055 311.43 113.586 311.477 113.102H311.43L308.225 121H307.844ZM319.996 118V117.52H322.779V118H319.996ZM332.623 116.693C332.623 118.197 332.393 119.311 331.932 120.033C331.475 120.756 330.781 121.117 329.852 121.117C328.957 121.117 328.277 120.746 327.812 120.004C327.348 119.258 327.115 118.154 327.115 116.693C327.115 115.201 327.34 114.096 327.789 113.377C328.242 112.658 328.93 112.299 329.852 112.299C330.754 112.299 331.441 112.672 331.914 113.418C332.387 114.16 332.623 115.252 332.623 116.693ZM327.748 116.693C327.748 118.021 327.922 119.004 328.27 119.641C328.617 120.273 329.145 120.59 329.852 120.59C330.59 120.59 331.127 120.262 331.463 119.605C331.803 118.949 331.973 117.979 331.973 116.693C331.973 115.428 331.803 114.467 331.463 113.811C331.127 113.154 330.59 112.826 329.852 112.826C329.113 112.826 328.578 113.154 328.246 113.811C327.914 114.467 327.748 115.428 327.748 116.693ZM334.246 120.543C334.246 120.16 334.402 119.969 334.715 119.969C335.035 119.969 335.195 120.16 335.195 120.543C335.195 120.926 335.035 121.117 334.715 121.117C334.402 121.117 334.246 120.926 334.246 120.543ZM342.338 116.693C342.338 118.197 342.107 119.311 341.646 120.033C341.189 120.756 340.496 121.117 339.566 121.117C338.672 121.117 337.992 120.746 337.527 120.004C337.062 119.258 336.83 118.154 336.83 116.693C336.83 115.201 337.055 114.096 337.504 113.377C337.957 112.658 338.645 112.299 339.566 112.299C340.469 112.299 341.156 112.672 341.629 113.418C342.102 114.16 342.338 115.252 342.338 116.693ZM337.463 116.693C337.463 118.021 337.637 119.004 337.984 119.641C338.332 120.273 338.859 120.59 339.566 120.59C340.305 120.59 340.842 120.262 341.178 119.605C341.518 118.949 341.688 117.979 341.688 116.693C341.688 115.428 341.518 114.467 341.178 113.811C340.842 113.154 340.305 112.826 339.566 112.826C338.828 112.826 338.293 113.154 337.961 113.811C337.629 114.467 337.463 115.428 337.463 116.693ZM344.248 114.988C344.248 115.715 344.336 116.262 344.512 116.629C344.688 116.992 344.963 117.174 345.338 117.174C346.092 117.174 346.469 116.445 346.469 114.988C346.469 114.27 346.371 113.73 346.176 113.371C345.984 113.008 345.705 112.826 345.338 112.826C344.963 112.826 344.688 113.008 344.512 113.371C344.336 113.73 344.248 114.27 344.248 114.988ZM347.043 114.988C347.043 115.871 346.896 116.543 346.604 117.004C346.311 117.461 345.889 117.689 345.338 117.689C344.818 117.689 344.41 117.455 344.113 116.986C343.82 116.514 343.674 115.848 343.674 114.988C343.674 114.117 343.814 113.453 344.096 112.996C344.377 112.539 344.791 112.311 345.338 112.311C345.881 112.311 346.301 112.547 346.598 113.02C346.895 113.488 347.043 114.145 347.043 114.988ZM349.24 118.434C349.24 119.156 349.328 119.699 349.504 120.062C349.68 120.422 349.955 120.602 350.33 120.602C351.084 120.602 351.461 119.879 351.461 118.434C351.461 116.992 351.084 116.271 350.33 116.271C349.955 116.271 349.68 116.451 349.504 116.811C349.328 117.166 349.24 117.707 349.24 118.434ZM352.035 118.434C352.035 119.316 351.891 119.988 351.602 120.449C351.312 120.906 350.893 121.135 350.342 121.135C349.811 121.135 349.398 120.898 349.105 120.426C348.812 119.949 348.666 119.285 348.666 118.434C348.666 117.555 348.809 116.889 349.094 116.436C349.383 115.982 349.799 115.756 350.342 115.756C350.877 115.756 351.293 115.99 351.59 116.459C351.887 116.928 352.035 117.586 352.035 118.434ZM350.512 112.434L345.76 121H345.197L349.949 112.434H350.512Z" fill="white"/>
<path d="M196.322 142L195.701 139.961H192.578L191.957 142H190L193.023 133.398H195.244L198.279 142H196.322ZM195.268 138.438C194.693 136.59 194.369 135.545 194.295 135.303C194.225 135.061 194.174 134.869 194.143 134.729C194.014 135.229 193.645 136.465 193.035 138.438H195.268ZM202.615 137.189H206.014V141.631C205.463 141.811 204.943 141.936 204.455 142.006C203.971 142.08 203.475 142.117 202.967 142.117C201.674 142.117 200.686 141.738 200.002 140.98C199.322 140.219 198.982 139.127 198.982 137.705C198.982 136.322 199.377 135.244 200.166 134.471C200.959 133.697 202.057 133.311 203.459 133.311C204.338 133.311 205.186 133.486 206.002 133.838L205.398 135.291C204.773 134.979 204.123 134.822 203.447 134.822C202.662 134.822 202.033 135.086 201.561 135.613C201.088 136.141 200.852 136.85 200.852 137.74C200.852 138.67 201.041 139.381 201.42 139.873C201.803 140.361 202.357 140.605 203.084 140.605C203.463 140.605 203.848 140.566 204.238 140.488V138.701H202.615V137.189ZM214.48 142H212.664V134.945H210.338V133.434H216.807V134.945H214.48V142ZM220.697 136.598C220.318 136.598 220.021 136.719 219.807 136.961C219.592 137.199 219.469 137.539 219.438 137.98H221.945C221.938 137.539 221.822 137.199 221.6 136.961C221.377 136.719 221.076 136.598 220.697 136.598ZM220.949 142.117C219.895 142.117 219.07 141.826 218.477 141.244C217.883 140.662 217.586 139.838 217.586 138.771C217.586 137.674 217.859 136.826 218.406 136.229C218.957 135.627 219.717 135.326 220.686 135.326C221.611 135.326 222.332 135.59 222.848 136.117C223.363 136.645 223.621 137.373 223.621 138.303V139.17H219.396C219.416 139.678 219.566 140.074 219.848 140.359C220.129 140.645 220.523 140.787 221.031 140.787C221.426 140.787 221.799 140.746 222.15 140.664C222.502 140.582 222.869 140.451 223.252 140.271V141.654C222.939 141.811 222.605 141.926 222.25 142C221.895 142.078 221.461 142.117 220.949 142.117ZM229.234 142L228.889 141.109H228.842C228.541 141.488 228.23 141.752 227.91 141.9C227.594 142.045 227.18 142.117 226.668 142.117C226.039 142.117 225.543 141.938 225.18 141.578C224.82 141.219 224.641 140.707 224.641 140.043C224.641 139.348 224.883 138.836 225.367 138.508C225.855 138.176 226.59 137.992 227.57 137.957L228.707 137.922V137.635C228.707 136.971 228.367 136.639 227.688 136.639C227.164 136.639 226.549 136.797 225.842 137.113L225.25 135.906C226.004 135.512 226.84 135.314 227.758 135.314C228.637 135.314 229.311 135.506 229.779 135.889C230.248 136.271 230.482 136.854 230.482 137.635V142H229.234ZM228.707 138.965L228.016 138.988C227.496 139.004 227.109 139.098 226.855 139.27C226.602 139.441 226.475 139.703 226.475 140.055C226.475 140.559 226.764 140.811 227.342 140.811C227.756 140.811 228.086 140.691 228.332 140.453C228.582 140.215 228.707 139.898 228.707 139.504V138.965ZM238.193 142H236.406V138.174C236.406 137.701 236.326 137.348 236.166 137.113C236.01 136.875 235.762 136.756 235.422 136.756C234.965 136.756 234.633 136.924 234.426 137.26C234.219 137.596 234.115 138.148 234.115 138.918V142H232.328V135.449H233.693L233.934 136.287H234.033C234.209 135.986 234.463 135.752 234.795 135.584C235.127 135.412 235.508 135.326 235.938 135.326C236.918 135.326 237.582 135.646 237.93 136.287H238.088C238.264 135.982 238.521 135.746 238.861 135.578C239.205 135.41 239.592 135.326 240.021 135.326C240.764 135.326 241.324 135.518 241.703 135.9C242.086 136.279 242.277 136.889 242.277 137.729V142H240.484V138.174C240.484 137.701 240.404 137.348 240.244 137.113C240.088 136.875 239.84 136.756 239.5 136.756C239.062 136.756 238.734 136.912 238.516 137.225C238.301 137.537 238.193 138.033 238.193 138.713V142ZM243.865 141.162C243.865 140.834 243.953 140.586 244.129 140.418C244.305 140.25 244.561 140.166 244.896 140.166C245.221 140.166 245.471 140.252 245.646 140.424C245.826 140.596 245.916 140.842 245.916 141.162C245.916 141.471 245.826 141.715 245.646 141.895C245.467 142.07 245.217 142.158 244.896 142.158C244.568 142.158 244.314 142.072 244.135 141.9C243.955 141.725 243.865 141.479 243.865 141.162ZM243.865 136.322C243.865 135.994 243.953 135.746 244.129 135.578C244.305 135.41 244.561 135.326 244.896 135.326C245.221 135.326 245.471 135.412 245.646 135.584C245.826 135.756 245.916 136.002 245.916 136.322C245.916 136.639 245.824 136.885 245.641 137.061C245.461 137.232 245.213 137.318 244.896 137.318C244.568 137.318 244.314 137.232 244.135 137.061C243.955 136.889 243.865 136.643 243.865 136.322ZM255.9 137.693C255.9 139.197 255.67 140.311 255.209 141.033C254.752 141.756 254.059 142.117 253.129 142.117C252.234 142.117 251.555 141.746 251.09 141.004C250.625 140.258 250.393 139.154 250.393 137.693C250.393 136.201 250.617 135.096 251.066 134.377C251.52 133.658 252.207 133.299 253.129 133.299C254.031 133.299 254.719 133.672 255.191 134.418C255.664 135.16 255.9 136.252 255.9 137.693ZM251.025 137.693C251.025 139.021 251.199 140.004 251.547 140.641C251.895 141.273 252.422 141.59 253.129 141.59C253.867 141.59 254.404 141.262 254.74 140.605C255.08 139.949 255.25 138.979 255.25 137.693C255.25 136.428 255.08 135.467 254.74 134.811C254.404 134.154 253.867 133.826 253.129 133.826C252.391 133.826 251.855 134.154 251.523 134.811C251.191 135.467 251.025 136.428 251.025 137.693ZM261.555 142L258.361 134.09H258.314C258.346 134.574 258.361 135.07 258.361 135.578V142H257.787V133.434H258.713L261.748 140.969H261.783L264.818 133.434H265.721V142H265.117V135.508C265.117 135.055 265.141 134.586 265.188 134.102H265.141L261.936 142H261.555ZM270.59 139V138.52H273.373V139H270.59ZM283.217 137.693C283.217 139.197 282.986 140.311 282.525 141.033C282.068 141.756 281.375 142.117 280.445 142.117C279.551 142.117 278.871 141.746 278.406 141.004C277.941 140.258 277.709 139.154 277.709 137.693C277.709 136.201 277.934 135.096 278.383 134.377C278.836 133.658 279.523 133.299 280.445 133.299C281.348 133.299 282.035 133.672 282.508 134.418C282.98 135.16 283.217 136.252 283.217 137.693ZM278.342 137.693C278.342 139.021 278.516 140.004 278.863 140.641C279.211 141.273 279.738 141.59 280.445 141.59C281.184 141.59 281.721 141.262 282.057 140.605C282.396 139.949 282.566 138.979 282.566 137.693C282.566 136.428 282.396 135.467 282.057 134.811C281.721 134.154 281.184 133.826 280.445 133.826C279.707 133.826 279.172 134.154 278.84 134.811C278.508 135.467 278.342 136.428 278.342 137.693ZM284.84 141.543C284.84 141.16 284.996 140.969 285.309 140.969C285.629 140.969 285.789 141.16 285.789 141.543C285.789 141.926 285.629 142.117 285.309 142.117C284.996 142.117 284.84 141.926 284.84 141.543ZM292.932 137.693C292.932 139.197 292.701 140.311 292.24 141.033C291.783 141.756 291.09 142.117 290.16 142.117C289.266 142.117 288.586 141.746 288.121 141.004C287.656 140.258 287.424 139.154 287.424 137.693C287.424 136.201 287.648 135.096 288.098 134.377C288.551 133.658 289.238 133.299 290.16 133.299C291.062 133.299 291.75 133.672 292.223 134.418C292.695 135.16 292.932 136.252 292.932 137.693ZM288.057 137.693C288.057 139.021 288.23 140.004 288.578 140.641C288.926 141.273 289.453 141.59 290.16 141.59C290.898 141.59 291.436 141.262 291.771 140.605C292.111 139.949 292.281 138.979 292.281 137.693C292.281 136.428 292.111 135.467 291.771 134.811C291.436 134.154 290.898 133.826 290.16 133.826C289.422 133.826 288.887 134.154 288.555 134.811C288.223 135.467 288.057 136.428 288.057 137.693ZM294.842 135.988C294.842 136.715 294.93 137.262 295.105 137.629C295.281 137.992 295.557 138.174 295.932 138.174C296.686 138.174 297.062 137.445 297.062 135.988C297.062 135.27 296.965 134.73 296.77 134.371C296.578 134.008 296.299 133.826 295.932 133.826C295.557 133.826 295.281 134.008 295.105 134.371C294.93 134.73 294.842 135.27 294.842 135.988ZM297.637 135.988C297.637 136.871 297.49 137.543 297.197 138.004C296.904 138.461 296.482 138.689 295.932 138.689C295.412 138.689 295.004 138.455 294.707 137.986C294.414 137.514 294.268 136.848 294.268 135.988C294.268 135.117 294.408 134.453 294.689 133.996C294.971 133.539 295.385 133.311 295.932 133.311C296.475 133.311 296.895 133.547 297.191 134.02C297.488 134.488 297.637 135.145 297.637 135.988ZM299.834 139.434C299.834 140.156 299.922 140.699 300.098 141.062C300.273 141.422 300.549 141.602 300.924 141.602C301.678 141.602 302.055 140.879 302.055 139.434C302.055 137.992 301.678 137.271 300.924 137.271C300.549 137.271 300.273 137.451 300.098 137.811C299.922 138.166 299.834 138.707 299.834 139.434ZM302.629 139.434C302.629 140.316 302.484 140.988 302.195 141.449C301.906 141.906 301.486 142.135 300.936 142.135C300.404 142.135 299.992 141.898 299.699 141.426C299.406 140.949 299.26 140.285 299.26 139.434C299.26 138.555 299.402 137.889 299.688 137.436C299.977 136.982 300.393 136.756 300.936 136.756C301.471 136.756 301.887 136.99 302.184 137.459C302.48 137.928 302.629 138.586 302.629 139.434ZM301.105 133.434L296.354 142H295.791L300.543 133.434H301.105Z" fill="white"/>
<path d="M77.4844 7C93.4321 6.99675 108.993 11.9135 122.043 21.0794C135.094 30.2453 144.999 43.2142 150.407 58.2168L77.5002 84.5L77.4844 7Z" fill="url(#paint6_linear)"/>
<path d="M77.4844 7C93.4321 6.99675 108.993 11.9135 122.043 21.0794C135.094 30.2453 144.999 43.2142 150.407 58.2168L77.5002 84.5L77.4844 7Z" stroke="white"/>
<path d="M150.433 58.2898C155.489 72.3564 156.368 87.5849 152.966 102.14C149.564 116.695 142.025 129.956 131.258 140.324C120.491 150.692 106.956 157.726 92.2828 160.577C77.6098 163.428 62.4253 161.975 48.5592 156.394C34.6931 150.812 22.737 141.339 14.1316 129.117C5.52629 116.895 0.638925 102.446 0.0584729 87.5096C-0.52198 72.5734 3.22925 57.788 10.8601 44.9352C18.491 32.0823 29.6759 21.7104 43.067 15.0693L77.5 84.5L150.433 58.2898Z" fill="url(#paint7_linear)"/>
<path d="M150.433 58.2898C155.489 72.3564 156.368 87.5849 152.966 102.14C149.564 116.695 142.025 129.956 131.258 140.324C120.491 150.692 106.956 157.726 92.2828 160.577C77.6098 163.428 62.4253 161.975 48.5592 156.394C34.6931 150.812 22.737 141.339 14.1316 129.117C5.52629 116.895 0.638925 102.446 0.0584729 87.5096C-0.52198 72.5734 3.22925 57.788 10.8601 44.9352C18.491 32.0823 29.6759 21.7104 43.067 15.0693L77.5 84.5L150.433 58.2898Z" stroke="white"/>
<path d="M43.1367 15.035C53.7883 9.76576 65.509 7.01663 77.3926 7.00012L77.5003 84.5L43.1367 15.035Z" fill="url(#paint8_linear)"/>
<path d="M43.1367 15.035C53.7883 9.76576 65.509 7.01663 77.3926 7.00012L77.5003 84.5L43.1367 15.035Z" stroke="white"/>
<path d="M77.4701 7C77.4442 7.00004 77.4184 7.00006 77.3926 7.00007L77.5002 84.5L77.4701 7Z" fill="url(#paint9_radial)" stroke="white" stroke-linejoin="round"/>
<path d="M77.4701 7C77.4442 7.00004 77.4184 7.00006 77.3926 7.00007L77.5002 84.5L77.4701 7Z" fill="url(#paint10_radial)" stroke="white" stroke-linejoin="round"/>
<path d="M77.4701 7C77.4442 7.00004 77.4184 7.00006 77.3926 7.00007L77.5002 84.5L77.4701 7Z" fill="url(#paint11_radial)" stroke="white" stroke-linejoin="round"/>
<circle cx="76.2792" cy="84.5" r="46.9882" fill="#1D1D1B"/>
<defs>
<filter id="filter0_d" x="135" y="0" width="70" height="64" filterUnits="userSpaceOnUse" color-interpolation-filters="sRGB">
<feFlood flood-opacity="0" result="BackgroundImageFix"/>
<feColorMatrix in="SourceAlpha" type="matrix" values="0 0 0 0 0 0 0 0 0 0 0 0 0 0 0 0 0 0 127 0"/>
<feOffset/>
<feGaussianBlur stdDeviation="15"/>
<feColorMatrix type="matrix" values="0 0 0 0 0 0 0 0 0 0 0 0 0 0 0 0 0 0 1 0"/>
<feBlend mode="normal" in2="BackgroundImageFix" result="effect1_dropShadow"/>
<feBlend mode="normal" in="SourceGraphic" in2="effect1_dropShadow" result="shape"/>
</filter>
<filter id="filter1_d" x="135" y="42" width="70" height="64" filterUnits="userSpaceOnUse" color-interpolation-filters="sRGB">
<feFlood flood-opacity="0" result="BackgroundImageFix"/>
<feColorMatrix in="SourceAlpha" type="matrix" values="0 0 0 0 0 0 0 0 0 0 0 0 0 0 0 0 0 0 127 0"/>
<feOffset/>
<feGaussianBlur stdDeviation="15"/>
<feColorMatrix type="matrix" values="0 0 0 0 0 0 0 0 0 0 0 0 0 0 0 0 0 0 1 0"/>
<feBlend mode="normal" in2="BackgroundImageFix" result="effect1_dropShadow"/>
<feBlend mode="normal" in="SourceGraphic" in2="effect1_dropShadow" result="shape"/>
</filter>
<filter id="filter2_d" x="135" y="64" width="70" height="64" filterUnits="userSpaceOnUse" color-interpolation-filters="sRGB">
<feFlood flood-opacity="0" result="BackgroundImageFix"/>
<feColorMatrix in="SourceAlpha" type="matrix" values="0 0 0 0 0 0 0 0 0 0 0 0 0 0 0 0 0 0 127 0"/>
<feOffset/>
<feGaussianBlur stdDeviation="15"/>
<feColorMatrix type="matrix" values="0 0 0 0 0 0 0 0 0 0 0 0 0 0 0 0 0 0 1 0"/>
<feBlend mode="normal" in2="BackgroundImageFix" result="effect1_dropShadow"/>
<feBlend mode="normal" in="SourceGraphic" in2="effect1_dropShadow" result="shape"/>
</filter>
<filter id="filter3_d" x="135" y="105" width="70" height="64" filterUnits="userSpaceOnUse" color-interpolation-filters="sRGB">
<feFlood flood-opacity="0" result="BackgroundImageFix"/>
<feColorMatrix in="SourceAlpha" type="matrix" values="0 0 0 0 0 0 0 0 0 0 0 0 0 0 0 0 0 0 127 0"/>
<feOffset/>
<feGaussianBlur stdDeviation="15"/>
<feColorMatrix type="matrix" values="0 0 0 0 0 0 0 0 0 0 0 0 0 0 0 0 0 0 1 0"/>
<feBlend mode="normal" in2="BackgroundImageFix" result="effect1_dropShadow"/>
<feBlend mode="normal" in="SourceGraphic" in2="effect1_dropShadow" result="shape"/>
</filter>
<linearGradient id="paint0_linear" x1="165" y1="34" x2="175" y2="34" gradientUnits="userSpaceOnUse">
<stop stop-color="#65A6F2"/>
<stop offset="1" stop-color="#22BBDD"/>
</linearGradient>
<linearGradient id="paint1_linear" x1="175" y1="55" x2="165" y2="55" gradientUnits="userSpaceOnUse">
<stop stop-color="#E01E73"/>
<stop offset="1" stop-color="#FF7272"/>
</linearGradient>
<linearGradient id="paint2_linear" x1="175" y1="76" x2="165" y2="76" gradientUnits="userSpaceOnUse">
<stop stop-color="#FF9D0A"/>
<stop offset="1" stop-color="#FEFFC7"/>
</linearGradient>
<linearGradient id="paint3_linear" x1="165" y1="98" x2="175" y2="98" gradientUnits="userSpaceOnUse">
<stop stop-color="#B4FABD"/>
<stop offset="1" stop-color="#22DD9A"/>
</linearGradient>
<linearGradient id="paint4_linear" x1="175" y1="119" x2="165" y2="119" gradientUnits="userSpaceOnUse">
<stop stop-color="#C41005"/>
<stop offset="1" stop-color="#DD5E16"/>
</linearGradient>
<linearGradient id="paint5_linear" x1="165" y1="139" x2="175" y2="139" gradientUnits="userSpaceOnUse">
<stop stop-color="#FA1DBC"/>
<stop offset="1" stop-color="#A122DD"/>
</linearGradient>
<linearGradient id="paint6_linear" x1="77.4844" y1="45.1148" x2="153.994" y2="45.1148" gradientUnits="userSpaceOnUse">
<stop stop-color="#489CFF"/>
<stop offset="1" stop-color="#3AD5F8"/>
</linearGradient>
<linearGradient id="paint7_linear" x1="3.83679e-07" y1="87.3303" x2="162.623" y2="87.3303" gradientUnits="userSpaceOnUse">
<stop stop-color="#E01E73"/>
<stop offset="1" stop-color="#FF7272"/>
</linearGradient>
<linearGradient id="paint8_linear" x1="43.1367" y1="45.1148" x2="79.1903" y2="45.1148" gradientUnits="userSpaceOnUse">
<stop stop-color="#FEFFC7"/>
<stop offset="1" stop-color="#FF9D0A"/>
</linearGradient>
<radialGradient id="paint9_radial" cx="0" cy="0" r="1" gradientUnits="userSpaceOnUse" gradientTransform="translate(77.5002 53.5) scale(108.495 108.5)">
<stop stop-color="#24CBE5"/>
<stop offset="1" stop-color="#007F99"/>
</radialGradient>
<radialGradient id="paint10_radial" cx="0" cy="0" r="1" gradientUnits="userSpaceOnUse" gradientTransform="translate(77.5002 53.5) scale(108.495 108.5)">
<stop stop-color="#64E572"/>
<stop offset="1" stop-color="#189926"/>
</radialGradient>
<radialGradient id="paint11_radial" cx="0" cy="0" r="1" gradientUnits="userSpaceOnUse" gradientTransform="translate(77.5002 53.5) scale(108.495 108.5)">
<stop stop-color="#FF9655"/>
<stop offset="1" stop-color="#B34A09"/>
</radialGradient>
</defs>
</svg>
