<svg width="378" height="169" viewBox="0 0 378 169" fill="none" xmlns="http://www.w3.org/2000/svg">
<g filter="url(#filter0_d)">
<line x1="172" y1="32" x2="178" y2="32" stroke="url(#paint0_linear)" stroke-width="4" stroke-linecap="round"/>
</g>
<line x1="172" y1="53" x2="178" y2="53" stroke="url(#paint1_linear)" stroke-width="4" stroke-linecap="round"/>
<g filter="url(#filter1_d)">
<line x1="172" y1="74" x2="178" y2="74" stroke="url(#paint2_linear)" stroke-width="4" stroke-linecap="round" stroke-linejoin="round"/>
</g>
<g filter="url(#filter2_d)">
<line x1="172" y1="96" x2="178" y2="96" stroke="url(#paint3_linear)" stroke-width="4" stroke-linecap="round"/>
</g>
<line x1="172" y1="117" x2="178" y2="117" stroke="url(#paint4_linear)" stroke-width="4" stroke-linecap="round"/>
<g filter="url(#filter3_d)">
<line x1="172" y1="137" x2="178" y2="137" stroke="url(#paint5_linear)" stroke-width="4" stroke-linecap="round"/>
</g>
<path d="M197.895 32.4648H198.492C199.051 32.4648 199.469 32.3555 199.746 32.1367C200.023 31.9141 200.162 31.5918 200.162 31.1699C200.162 30.7441 200.045 30.4297 199.811 30.2266C199.58 30.0234 199.217 29.9219 198.721 29.9219H197.895V32.4648ZM201.996 31.1055C201.996 32.0273 201.707 32.7324 201.129 33.2207C200.555 33.709 199.736 33.9531 198.674 33.9531H197.895V37H196.078V28.4336H198.814C199.854 28.4336 200.643 28.6582 201.182 29.1074C201.725 29.5527 201.996 30.2188 201.996 31.1055ZM207.129 30.3262C207.371 30.3262 207.572 30.3438 207.732 30.3789L207.598 32.0547C207.453 32.0156 207.277 31.9961 207.07 31.9961C206.5 31.9961 206.055 32.1426 205.734 32.4355C205.418 32.7285 205.26 33.1387 205.26 33.666V37H203.473V30.4492H204.826L205.09 31.5508H205.178C205.381 31.1836 205.654 30.8887 205.998 30.666C206.346 30.4395 206.723 30.3262 207.129 30.3262ZM211.635 31.5977C211.256 31.5977 210.959 31.7188 210.744 31.9609C210.529 32.1992 210.406 32.5391 210.375 32.9805H212.883C212.875 32.5391 212.76 32.1992 212.537 31.9609C212.314 31.7188 212.014 31.5977 211.635 31.5977ZM211.887 37.1172C210.832 37.1172 210.008 36.8262 209.414 36.2441C208.82 35.6621 208.523 34.8379 208.523 33.7715C208.523 32.6738 208.797 31.8262 209.344 31.2285C209.895 30.627 210.654 30.3262 211.623 30.3262C212.549 30.3262 213.27 30.5898 213.785 31.1172C214.301 31.6445 214.559 32.373 214.559 33.3027V34.1699H210.334C210.354 34.6777 210.504 35.0742 210.785 35.3594C211.066 35.6445 211.461 35.7871 211.969 35.7871C212.363 35.7871 212.736 35.7461 213.088 35.6641C213.439 35.582 213.807 35.4512 214.189 35.2715V36.6543C213.877 36.8105 213.543 36.9258 213.188 37C212.832 37.0781 212.398 37.1172 211.887 37.1172ZM220.582 35.0547C220.582 35.7266 220.348 36.2383 219.879 36.5898C219.414 36.9414 218.717 37.1172 217.787 37.1172C217.311 37.1172 216.904 37.084 216.568 37.0176C216.232 36.9551 215.918 36.8613 215.625 36.7363V35.2598C215.957 35.416 216.33 35.5469 216.744 35.6523C217.162 35.7578 217.529 35.8105 217.846 35.8105C218.494 35.8105 218.818 35.623 218.818 35.248C218.818 35.1074 218.775 34.9941 218.689 34.9082C218.604 34.8184 218.455 34.7188 218.244 34.6094C218.033 34.4961 217.752 34.3652 217.4 34.2168C216.896 34.0059 216.525 33.8105 216.287 33.6309C216.053 33.4512 215.881 33.2461 215.771 33.0156C215.666 32.7812 215.613 32.4941 215.613 32.1543C215.613 31.5723 215.838 31.123 216.287 30.8066C216.74 30.4863 217.381 30.3262 218.209 30.3262C218.998 30.3262 219.766 30.498 220.512 30.8418L219.973 32.1309C219.645 31.9902 219.338 31.875 219.053 31.7852C218.768 31.6953 218.477 31.6504 218.18 31.6504C217.652 31.6504 217.389 31.793 217.389 32.0781C217.389 32.2383 217.473 32.377 217.641 32.4941C217.812 32.6113 218.186 32.7852 218.76 33.0156C219.271 33.2227 219.646 33.416 219.885 33.5957C220.123 33.7754 220.299 33.9824 220.412 34.2168C220.525 34.4512 220.582 34.7305 220.582 35.0547ZM226.137 37L225.791 36.1094H225.744C225.443 36.4883 225.133 36.752 224.812 36.9004C224.496 37.0449 224.082 37.1172 223.57 37.1172C222.941 37.1172 222.445 36.9375 222.082 36.5781C221.723 36.2188 221.543 35.707 221.543 35.043C221.543 34.3477 221.785 33.8359 222.27 33.5078C222.758 33.1758 223.492 32.9922 224.473 32.957L225.609 32.9219V32.6348C225.609 31.9707 225.27 31.6387 224.59 31.6387C224.066 31.6387 223.451 31.7969 222.744 32.1133L222.152 30.9062C222.906 30.5117 223.742 30.3145 224.66 30.3145C225.539 30.3145 226.213 30.5059 226.682 30.8887C227.15 31.2715 227.385 31.8535 227.385 32.6348V37H226.137ZM225.609 33.9648L224.918 33.9883C224.398 34.0039 224.012 34.0977 223.758 34.2695C223.504 34.4414 223.377 34.7031 223.377 35.0547C223.377 35.5586 223.666 35.8105 224.244 35.8105C224.658 35.8105 224.988 35.6914 225.234 35.4531C225.484 35.2148 225.609 34.8984 225.609 34.5039V33.9648ZM231.018 37H229.23V27.8828H231.018V37ZM235.611 31.5977C235.232 31.5977 234.936 31.7188 234.721 31.9609C234.506 32.1992 234.383 32.5391 234.352 32.9805H236.859C236.852 32.5391 236.736 32.1992 236.514 31.9609C236.291 31.7188 235.99 31.5977 235.611 31.5977ZM235.863 37.1172C234.809 37.1172 233.984 36.8262 233.391 36.2441C232.797 35.6621 232.5 34.8379 232.5 33.7715C232.5 32.6738 232.773 31.8262 233.32 31.2285C233.871 30.627 234.631 30.3262 235.6 30.3262C236.525 30.3262 237.246 30.5898 237.762 31.1172C238.277 31.6445 238.535 32.373 238.535 33.3027V34.1699H234.311C234.33 34.6777 234.48 35.0742 234.762 35.3594C235.043 35.6445 235.438 35.7871 235.945 35.7871C236.34 35.7871 236.713 35.7461 237.064 35.6641C237.416 35.582 237.783 35.4512 238.166 35.2715V36.6543C237.854 36.8105 237.52 36.9258 237.164 37C236.809 37.0781 236.375 37.1172 235.863 37.1172ZM239.736 36.1621C239.736 35.834 239.824 35.5859 240 35.418C240.176 35.25 240.432 35.166 240.768 35.166C241.092 35.166 241.342 35.252 241.518 35.4238C241.697 35.5957 241.787 35.8418 241.787 36.1621C241.787 36.4707 241.697 36.7148 241.518 36.8945C241.338 37.0703 241.088 37.1582 240.768 37.1582C240.439 37.1582 240.186 37.0723 240.006 36.9004C239.826 36.7246 239.736 36.4785 239.736 36.1621ZM239.736 31.3223C239.736 30.9941 239.824 30.7461 240 30.5781C240.176 30.4102 240.432 30.3262 240.768 30.3262C241.092 30.3262 241.342 30.4121 241.518 30.584C241.697 30.7559 241.787 31.002 241.787 31.3223C241.787 31.6387 241.695 31.8848 241.512 32.0605C241.332 32.2324 241.084 32.3184 240.768 32.3184C240.439 32.3184 240.186 32.2324 240.006 32.0605C239.826 31.8887 239.736 31.6426 239.736 31.3223ZM248.736 31.8496C249.65 31.8496 250.369 32.0703 250.893 32.5117C251.42 32.9531 251.684 33.5605 251.684 34.334C251.684 35.2129 251.41 35.8965 250.863 36.3848C250.316 36.873 249.562 37.1172 248.602 37.1172C248.176 37.1172 247.771 37.0762 247.389 36.9941C247.006 36.9082 246.686 36.7871 246.428 36.6309V36.0273C246.85 36.2422 247.225 36.3926 247.553 36.4785C247.881 36.5605 248.23 36.6016 248.602 36.6016C249.352 36.6016 249.953 36.4043 250.406 36.0098C250.859 35.6113 251.086 35.0742 251.086 34.3984C251.086 33.7617 250.865 33.2617 250.424 32.8984C249.982 32.5352 249.383 32.3535 248.625 32.3535C248.117 32.3535 247.586 32.4297 247.031 32.582L246.68 32.3535L247.02 28.4336H251.145V28.9961H247.57L247.307 32.0195C247.916 31.9062 248.393 31.8496 248.736 31.8496ZM257.426 37L254.232 29.0898H254.186C254.217 29.5742 254.232 30.0703 254.232 30.5781V37H253.658V28.4336H254.584L257.619 35.9688H257.654L260.689 28.4336H261.592V37H260.988V30.5078C260.988 30.0547 261.012 29.5859 261.059 29.1016H261.012L257.807 37H257.426ZM266.461 34V33.5195H269.244V34H266.461ZM278.93 37H273.568V36.4844L275.848 34.1055C276.488 33.4414 276.938 32.9336 277.195 32.582C277.453 32.2305 277.643 31.8945 277.764 31.5742C277.885 31.2539 277.945 30.918 277.945 30.5664C277.945 30.0547 277.777 29.6387 277.441 29.3184C277.105 28.998 276.67 28.8379 276.135 28.8379C275.42 28.8379 274.736 29.0977 274.084 29.6172L273.768 29.2129C274.482 28.6113 275.275 28.3105 276.146 28.3105C276.893 28.3105 277.479 28.5098 277.904 28.9082C278.334 29.3066 278.549 29.8555 278.549 30.5547C278.549 31.1211 278.404 31.6699 278.115 32.2012C277.83 32.7285 277.307 33.3809 276.545 34.1582L274.348 36.4141V36.4375H278.93V37ZM280.529 33.3496C280.529 32.2363 280.68 31.3008 280.98 30.543C281.285 29.7812 281.715 29.2168 282.27 28.8496C282.828 28.4824 283.5 28.2988 284.285 28.2988C284.652 28.2988 284.988 28.3438 285.293 28.4336V28.9492C285.008 28.8438 284.664 28.791 284.262 28.791C283.297 28.791 282.545 29.1387 282.006 29.834C281.471 30.5293 281.17 31.541 281.104 32.8691H281.18C281.477 32.4863 281.816 32.1973 282.199 32.002C282.582 31.8066 282.986 31.709 283.412 31.709C284.213 31.709 284.838 31.9375 285.287 32.3945C285.74 32.8516 285.967 33.4824 285.967 34.2871C285.967 35.1621 285.729 35.8535 285.252 36.3613C284.779 36.8652 284.141 37.1172 283.336 37.1172C282.469 37.1172 281.783 36.7871 281.279 36.127C280.779 35.4629 280.529 34.5371 280.529 33.3496ZM283.336 36.6016C283.977 36.6016 284.475 36.4004 284.83 35.998C285.186 35.5957 285.363 35.0215 285.363 34.2754C285.363 33.6191 285.188 33.1074 284.836 32.7402C284.484 32.373 284.006 32.1895 283.4 32.1895C283.002 32.1895 282.631 32.2773 282.287 32.4531C281.947 32.6289 281.676 32.8633 281.473 33.1562C281.27 33.4453 281.168 33.7422 281.168 34.0469C281.168 34.4805 281.264 34.8984 281.455 35.3008C281.65 35.6992 281.912 36.0156 282.24 36.25C282.572 36.4844 282.938 36.6016 283.336 36.6016ZM287.566 36.543C287.566 36.1602 287.723 35.9688 288.035 35.9688C288.355 35.9688 288.516 36.1602 288.516 36.543C288.516 36.9258 288.355 37.1172 288.035 37.1172C287.723 37.1172 287.566 36.9258 287.566 36.543ZM291.434 37L294.961 28.9961H290.115V28.4336H295.658V28.8613L292.119 37H291.434ZM297.568 30.9883C297.568 31.7148 297.656 32.2617 297.832 32.6289C298.008 32.9922 298.283 33.1738 298.658 33.1738C299.412 33.1738 299.789 32.4453 299.789 30.9883C299.789 30.2695 299.691 29.7305 299.496 29.3711C299.305 29.0078 299.025 28.8262 298.658 28.8262C298.283 28.8262 298.008 29.0078 297.832 29.3711C297.656 29.7305 297.568 30.2695 297.568 30.9883ZM300.363 30.9883C300.363 31.8711 300.217 32.543 299.924 33.0039C299.631 33.4609 299.209 33.6895 298.658 33.6895C298.139 33.6895 297.73 33.4551 297.434 32.9863C297.141 32.5137 296.994 31.8477 296.994 30.9883C296.994 30.1172 297.135 29.4531 297.416 28.9961C297.697 28.5391 298.111 28.3105 298.658 28.3105C299.201 28.3105 299.621 28.5469 299.918 29.0195C300.215 29.4883 300.363 30.1445 300.363 30.9883ZM302.561 34.4336C302.561 35.1562 302.648 35.6992 302.824 36.0625C303 36.4219 303.275 36.6016 303.65 36.6016C304.404 36.6016 304.781 35.8789 304.781 34.4336C304.781 32.9922 304.404 32.2715 303.65 32.2715C303.275 32.2715 303 32.4512 302.824 32.8105C302.648 33.166 302.561 33.707 302.561 34.4336ZM305.355 34.4336C305.355 35.3164 305.211 35.9883 304.922 36.4492C304.633 36.9062 304.213 37.1348 303.662 37.1348C303.131 37.1348 302.719 36.8984 302.426 36.4258C302.133 35.9492 301.986 35.2852 301.986 34.4336C301.986 33.5547 302.129 32.8887 302.414 32.4355C302.703 31.9824 303.119 31.7559 303.662 31.7559C304.197 31.7559 304.613 31.9902 304.91 32.459C305.207 32.9277 305.355 33.5859 305.355 34.4336ZM303.832 28.4336L299.08 37H298.518L303.27 28.4336H303.832Z" fill="white"/>
<path d="M197.895 53.4648H198.492C199.051 53.4648 199.469 53.3555 199.746 53.1367C200.023 52.9141 200.162 52.5918 200.162 52.1699C200.162 51.7441 200.045 51.4297 199.811 51.2266C199.58 51.0234 199.217 50.9219 198.721 50.9219H197.895V53.4648ZM201.996 52.1055C201.996 53.0273 201.707 53.7324 201.129 54.2207C200.555 54.709 199.736 54.9531 198.674 54.9531H197.895V58H196.078V49.4336H198.814C199.854 49.4336 200.643 49.6582 201.182 50.1074C201.725 50.5527 201.996 51.2188 201.996 52.1055ZM208.113 58L207.873 57.1621H207.779C207.588 57.4668 207.316 57.7031 206.965 57.8711C206.613 58.0352 206.213 58.1172 205.764 58.1172C204.994 58.1172 204.414 57.9121 204.023 57.502C203.633 57.0879 203.438 56.4941 203.438 55.7207V51.4492H205.225V55.2754C205.225 55.748 205.309 56.1035 205.477 56.3418C205.645 56.5762 205.912 56.6934 206.279 56.6934C206.779 56.6934 207.141 56.5273 207.363 56.1953C207.586 55.8594 207.697 55.3047 207.697 54.5312V51.4492H209.484V58H208.113ZM215.004 51.3262C215.777 51.3262 216.383 51.6289 216.82 52.2344C217.258 52.8359 217.477 53.6621 217.477 54.7129C217.477 55.7949 217.25 56.6328 216.797 57.2266C216.348 57.8203 215.734 58.1172 214.957 58.1172C214.188 58.1172 213.584 57.8379 213.146 57.2793H213.023L212.725 58H211.359V48.8828H213.146V51.0039C213.146 51.2734 213.123 51.7051 213.076 52.2988H213.146C213.564 51.6504 214.184 51.3262 215.004 51.3262ZM214.43 52.7559C213.988 52.7559 213.666 52.8926 213.463 53.166C213.26 53.4355 213.154 53.8828 213.146 54.5078V54.7012C213.146 55.4043 213.25 55.9082 213.457 56.2129C213.668 56.5176 214 56.6699 214.453 56.6699C214.82 56.6699 215.111 56.502 215.326 56.166C215.545 55.8262 215.654 55.334 215.654 54.6895C215.654 54.0449 215.545 53.5625 215.326 53.2422C215.107 52.918 214.809 52.7559 214.43 52.7559ZM220.74 58H218.953V48.8828H220.74V58ZM222.545 49.7559C222.545 49.1738 222.869 48.8828 223.518 48.8828C224.166 48.8828 224.49 49.1738 224.49 49.7559C224.49 50.0332 224.408 50.25 224.244 50.4062C224.084 50.5586 223.842 50.6348 223.518 50.6348C222.869 50.6348 222.545 50.3418 222.545 49.7559ZM224.408 58H222.621V51.4492H224.408V58ZM228.949 58.1172C226.91 58.1172 225.891 56.998 225.891 54.7598C225.891 53.6465 226.168 52.7969 226.723 52.2109C227.277 51.6211 228.072 51.3262 229.107 51.3262C229.865 51.3262 230.545 51.4746 231.146 51.7715L230.619 53.1543C230.338 53.041 230.076 52.9492 229.834 52.8789C229.592 52.8047 229.35 52.7676 229.107 52.7676C228.178 52.7676 227.713 53.4277 227.713 54.748C227.713 56.0293 228.178 56.6699 229.107 56.6699C229.451 56.6699 229.77 56.625 230.062 56.5352C230.355 56.4414 230.648 56.2969 230.941 56.1016V57.6309C230.652 57.8145 230.359 57.9414 230.062 58.0117C229.77 58.082 229.398 58.1172 228.949 58.1172ZM232.213 57.1621C232.213 56.834 232.301 56.5859 232.477 56.418C232.652 56.25 232.908 56.166 233.244 56.166C233.568 56.166 233.818 56.252 233.994 56.4238C234.174 56.5957 234.264 56.8418 234.264 57.1621C234.264 57.4707 234.174 57.7148 233.994 57.8945C233.814 58.0703 233.564 58.1582 233.244 58.1582C232.916 58.1582 232.662 58.0723 232.482 57.9004C232.303 57.7246 232.213 57.4785 232.213 57.1621ZM232.213 52.3223C232.213 51.9941 232.301 51.7461 232.477 51.5781C232.652 51.4102 232.908 51.3262 233.244 51.3262C233.568 51.3262 233.818 51.4121 233.994 51.584C234.174 51.7559 234.264 52.002 234.264 52.3223C234.264 52.6387 234.172 52.8848 233.988 53.0605C233.809 53.2324 233.561 53.3184 233.244 53.3184C232.916 53.3184 232.662 53.2324 232.482 53.0605C232.303 52.8887 232.213 52.6426 232.213 52.3223ZM242.062 58H241.488V51.7598C241.488 51.1934 241.512 50.6055 241.559 49.9961C241.5 50.0547 241.439 50.1113 241.377 50.166C241.314 50.2207 240.711 50.6953 239.566 51.5898L239.232 51.1738L241.559 49.4336H242.062V58ZM250.945 58H245.584V57.4844L247.863 55.1055C248.504 54.4414 248.953 53.9336 249.211 53.582C249.469 53.2305 249.658 52.8945 249.779 52.5742C249.9 52.2539 249.961 51.918 249.961 51.5664C249.961 51.0547 249.793 50.6387 249.457 50.3184C249.121 49.998 248.686 49.8379 248.15 49.8379C247.436 49.8379 246.752 50.0977 246.1 50.6172L245.783 50.2129C246.498 49.6113 247.291 49.3105 248.162 49.3105C248.908 49.3105 249.494 49.5098 249.92 49.9082C250.35 50.3066 250.564 50.8555 250.564 51.5547C250.564 52.1211 250.42 52.6699 250.131 53.2012C249.846 53.7285 249.322 54.3809 248.561 55.1582L246.363 57.4141V57.4375H250.945V58ZM252.727 57.543C252.727 57.1602 252.883 56.9688 253.195 56.9688C253.516 56.9688 253.676 57.1602 253.676 57.543C253.676 57.9258 253.516 58.1172 253.195 58.1172C252.883 58.1172 252.727 57.9258 252.727 57.543ZM257.783 52.8496C258.697 52.8496 259.416 53.0703 259.939 53.5117C260.467 53.9531 260.73 54.5605 260.73 55.334C260.73 56.2129 260.457 56.8965 259.91 57.3848C259.363 57.873 258.609 58.1172 257.648 58.1172C257.223 58.1172 256.818 58.0762 256.436 57.9941C256.053 57.9082 255.732 57.7871 255.475 57.6309V57.0273C255.896 57.2422 256.271 57.3926 256.6 57.4785C256.928 57.5605 257.277 57.6016 257.648 57.6016C258.398 57.6016 259 57.4043 259.453 57.0098C259.906 56.6113 260.133 56.0742 260.133 55.3984C260.133 54.7617 259.912 54.2617 259.471 53.8984C259.029 53.5352 258.43 53.3535 257.672 53.3535C257.164 53.3535 256.633 53.4297 256.078 53.582L255.727 53.3535L256.066 49.4336H260.191V49.9961H256.617L256.354 53.0195C256.963 52.9062 257.439 52.8496 257.783 52.8496ZM266.473 58L263.279 50.0898H263.232C263.264 50.5742 263.279 51.0703 263.279 51.5781V58H262.705V49.4336H263.631L266.666 56.9688H266.701L269.736 49.4336H270.639V58H270.035V51.5078C270.035 51.0547 270.059 50.5859 270.105 50.1016H270.059L266.854 58H266.473ZM275.508 55V54.5195H278.291V55H275.508ZM282.721 54.3496C282.721 53.2363 282.871 52.3008 283.172 51.543C283.477 50.7812 283.906 50.2168 284.461 49.8496C285.02 49.4824 285.691 49.2988 286.477 49.2988C286.844 49.2988 287.18 49.3438 287.484 49.4336V49.9492C287.199 49.8438 286.855 49.791 286.453 49.791C285.488 49.791 284.736 50.1387 284.197 50.834C283.662 51.5293 283.361 52.541 283.295 53.8691H283.371C283.668 53.4863 284.008 53.1973 284.391 53.002C284.773 52.8066 285.178 52.709 285.604 52.709C286.404 52.709 287.029 52.9375 287.479 53.3945C287.932 53.8516 288.158 54.4824 288.158 55.2871C288.158 56.1621 287.92 56.8535 287.443 57.3613C286.971 57.8652 286.332 58.1172 285.527 58.1172C284.66 58.1172 283.975 57.7871 283.471 57.127C282.971 56.4629 282.721 55.5371 282.721 54.3496ZM285.527 57.6016C286.168 57.6016 286.666 57.4004 287.021 56.998C287.377 56.5957 287.555 56.0215 287.555 55.2754C287.555 54.6191 287.379 54.1074 287.027 53.7402C286.676 53.373 286.197 53.1895 285.592 53.1895C285.193 53.1895 284.822 53.2773 284.479 53.4531C284.139 53.6289 283.867 53.8633 283.664 54.1562C283.461 54.4453 283.359 54.7422 283.359 55.0469C283.359 55.4805 283.455 55.8984 283.646 56.3008C283.842 56.6992 284.104 57.0156 284.432 57.25C284.764 57.4844 285.129 57.6016 285.527 57.6016ZM289.576 54.3496C289.576 53.2363 289.727 52.3008 290.027 51.543C290.332 50.7812 290.762 50.2168 291.316 49.8496C291.875 49.4824 292.547 49.2988 293.332 49.2988C293.699 49.2988 294.035 49.3438 294.34 49.4336V49.9492C294.055 49.8438 293.711 49.791 293.309 49.791C292.344 49.791 291.592 50.1387 291.053 50.834C290.518 51.5293 290.217 52.541 290.15 53.8691H290.227C290.523 53.4863 290.863 53.1973 291.246 53.002C291.629 52.8066 292.033 52.709 292.459 52.709C293.26 52.709 293.885 52.9375 294.334 53.3945C294.787 53.8516 295.014 54.4824 295.014 55.2871C295.014 56.1621 294.775 56.8535 294.299 57.3613C293.826 57.8652 293.188 58.1172 292.383 58.1172C291.516 58.1172 290.83 57.7871 290.326 57.127C289.826 56.4629 289.576 55.5371 289.576 54.3496ZM292.383 57.6016C293.023 57.6016 293.521 57.4004 293.877 56.998C294.232 56.5957 294.41 56.0215 294.41 55.2754C294.41 54.6191 294.234 54.1074 293.883 53.7402C293.531 53.373 293.053 53.1895 292.447 53.1895C292.049 53.1895 291.678 53.2773 291.334 53.4531C290.994 53.6289 290.723 53.8633 290.52 54.1562C290.316 54.4453 290.215 54.7422 290.215 55.0469C290.215 55.4805 290.311 55.8984 290.502 56.3008C290.697 56.6992 290.959 57.0156 291.287 57.25C291.619 57.4844 291.984 57.6016 292.383 57.6016ZM296.613 57.543C296.613 57.1602 296.77 56.9688 297.082 56.9688C297.402 56.9688 297.562 57.1602 297.562 57.543C297.562 57.9258 297.402 58.1172 297.082 58.1172C296.77 58.1172 296.613 57.9258 296.613 57.543ZM300.48 58L304.008 49.9961H299.162V49.4336H304.705V49.8613L301.166 58H300.48ZM306.615 51.9883C306.615 52.7148 306.703 53.2617 306.879 53.6289C307.055 53.9922 307.33 54.1738 307.705 54.1738C308.459 54.1738 308.836 53.4453 308.836 51.9883C308.836 51.2695 308.738 50.7305 308.543 50.3711C308.352 50.0078 308.072 49.8262 307.705 49.8262C307.33 49.8262 307.055 50.0078 306.879 50.3711C306.703 50.7305 306.615 51.2695 306.615 51.9883ZM309.41 51.9883C309.41 52.8711 309.264 53.543 308.971 54.0039C308.678 54.4609 308.256 54.6895 307.705 54.6895C307.186 54.6895 306.777 54.4551 306.48 53.9863C306.188 53.5137 306.041 52.8477 306.041 51.9883C306.041 51.1172 306.182 50.4531 306.463 49.9961C306.744 49.5391 307.158 49.3105 307.705 49.3105C308.248 49.3105 308.668 49.5469 308.965 50.0195C309.262 50.4883 309.41 51.1445 309.41 51.9883ZM311.607 55.4336C311.607 56.1562 311.695 56.6992 311.871 57.0625C312.047 57.4219 312.322 57.6016 312.697 57.6016C313.451 57.6016 313.828 56.8789 313.828 55.4336C313.828 53.9922 313.451 53.2715 312.697 53.2715C312.322 53.2715 312.047 53.4512 311.871 53.8105C311.695 54.166 311.607 54.707 311.607 55.4336ZM314.402 55.4336C314.402 56.3164 314.258 56.9883 313.969 57.4492C313.68 57.9062 313.26 58.1348 312.709 58.1348C312.178 58.1348 311.766 57.8984 311.473 57.4258C311.18 56.9492 311.033 56.2852 311.033 55.4336C311.033 54.5547 311.176 53.8887 311.461 53.4355C311.75 52.9824 312.166 52.7559 312.709 52.7559C313.244 52.7559 313.66 52.9902 313.957 53.459C314.254 53.9277 314.402 54.5859 314.402 55.4336ZM312.879 49.4336L308.127 58H307.564L312.316 49.4336H312.879Z" fill="white"/>
<path d="M197.865 79H196.078V70.4336H200.988V71.9219H197.865V74.1309H200.771V75.6133H197.865V79ZM203.947 75.7129C203.947 76.3613 204.053 76.8516 204.264 77.1836C204.479 77.5156 204.826 77.6816 205.307 77.6816C205.783 77.6816 206.125 77.5176 206.332 77.1895C206.543 76.8574 206.648 76.3652 206.648 75.7129C206.648 75.0645 206.543 74.5781 206.332 74.2539C206.121 73.9297 205.775 73.7676 205.295 73.7676C204.818 73.7676 204.475 73.9297 204.264 74.2539C204.053 74.5742 203.947 75.0605 203.947 75.7129ZM208.477 75.7129C208.477 76.7793 208.195 77.6133 207.633 78.2148C207.07 78.8164 206.287 79.1172 205.283 79.1172C204.654 79.1172 204.1 78.9805 203.619 78.707C203.139 78.4297 202.77 78.0332 202.512 77.5176C202.254 77.002 202.125 76.4004 202.125 75.7129C202.125 74.6426 202.404 73.8105 202.963 73.2168C203.521 72.623 204.307 72.3262 205.318 72.3262C205.947 72.3262 206.502 72.4629 206.982 72.7363C207.463 73.0098 207.832 73.4023 208.09 73.9141C208.348 74.4258 208.477 75.0254 208.477 75.7129ZM214.594 79L214.354 78.1621H214.26C214.068 78.4668 213.797 78.7031 213.445 78.8711C213.094 79.0352 212.693 79.1172 212.244 79.1172C211.475 79.1172 210.895 78.9121 210.504 78.502C210.113 78.0879 209.918 77.4941 209.918 76.7207V72.4492H211.705V76.2754C211.705 76.748 211.789 77.1035 211.957 77.3418C212.125 77.5762 212.393 77.6934 212.76 77.6934C213.26 77.6934 213.621 77.5273 213.844 77.1953C214.066 76.8594 214.178 76.3047 214.178 75.5312V72.4492H215.965V79H214.594ZM223.887 79H222.1V75.1738C222.1 74.7012 222.016 74.3477 221.848 74.1133C221.68 73.875 221.412 73.7559 221.045 73.7559C220.545 73.7559 220.184 73.9238 219.961 74.2598C219.738 74.5918 219.627 75.1445 219.627 75.918V79H217.84V72.4492H219.205L219.445 73.2871H219.545C219.744 72.9707 220.018 72.7324 220.365 72.5723C220.717 72.4082 221.115 72.3262 221.561 72.3262C222.322 72.3262 222.9 72.5332 223.295 72.9473C223.689 73.3574 223.887 73.9512 223.887 74.7285V79ZM227.801 79.1172C227.031 79.1172 226.426 78.8184 225.984 78.2207C225.547 77.623 225.328 76.7949 225.328 75.7363C225.328 74.6621 225.551 73.8262 225.996 73.2285C226.445 72.627 227.062 72.3262 227.848 72.3262C228.672 72.3262 229.301 72.6465 229.734 73.2871H229.793C229.703 72.7988 229.658 72.3633 229.658 71.9805V69.8828H231.451V79H230.08L229.734 78.1504H229.658C229.252 78.7949 228.633 79.1172 227.801 79.1172ZM228.428 77.6934C228.885 77.6934 229.219 77.5605 229.43 77.2949C229.645 77.0293 229.762 76.5781 229.781 75.9414V75.748C229.781 75.0449 229.672 74.541 229.453 74.2363C229.238 73.9316 228.887 73.7793 228.398 73.7793C228 73.7793 227.689 73.9492 227.467 74.2891C227.248 74.625 227.139 75.1152 227.139 75.7598C227.139 76.4043 227.25 76.8887 227.473 77.2129C227.695 77.5332 228.014 77.6934 228.428 77.6934ZM241.512 79H236.578V70.4336H241.512V71.9219H238.395V73.8027H241.295V75.291H238.395V77.5H241.512V79ZM245.824 79.1172C243.785 79.1172 242.766 77.998 242.766 75.7598C242.766 74.6465 243.043 73.7969 243.598 73.2109C244.152 72.6211 244.947 72.3262 245.982 72.3262C246.74 72.3262 247.42 72.4746 248.021 72.7715L247.494 74.1543C247.213 74.041 246.951 73.9492 246.709 73.8789C246.467 73.8047 246.225 73.7676 245.982 73.7676C245.053 73.7676 244.588 74.4277 244.588 75.748C244.588 77.0293 245.053 77.6699 245.982 77.6699C246.326 77.6699 246.645 77.625 246.938 77.5352C247.23 77.4414 247.523 77.2969 247.816 77.1016V78.6309C247.527 78.8145 247.234 78.9414 246.938 79.0117C246.645 79.082 246.273 79.1172 245.824 79.1172ZM250.764 75.7129C250.764 76.3613 250.869 76.8516 251.08 77.1836C251.295 77.5156 251.643 77.6816 252.123 77.6816C252.6 77.6816 252.941 77.5176 253.148 77.1895C253.359 76.8574 253.465 76.3652 253.465 75.7129C253.465 75.0645 253.359 74.5781 253.148 74.2539C252.938 73.9297 252.592 73.7676 252.111 73.7676C251.635 73.7676 251.291 73.9297 251.08 74.2539C250.869 74.5742 250.764 75.0605 250.764 75.7129ZM255.293 75.7129C255.293 76.7793 255.012 77.6133 254.449 78.2148C253.887 78.8164 253.104 79.1172 252.1 79.1172C251.471 79.1172 250.916 78.9805 250.436 78.707C249.955 78.4297 249.586 78.0332 249.328 77.5176C249.07 77.002 248.941 76.4004 248.941 75.7129C248.941 74.6426 249.221 73.8105 249.779 73.2168C250.338 72.623 251.123 72.3262 252.135 72.3262C252.764 72.3262 253.318 72.4629 253.799 72.7363C254.279 73.0098 254.648 73.4023 254.906 73.9141C255.164 74.4258 255.293 75.0254 255.293 75.7129ZM261.34 77.0547C261.34 77.7266 261.105 78.2383 260.637 78.5898C260.172 78.9414 259.475 79.1172 258.545 79.1172C258.068 79.1172 257.662 79.084 257.326 79.0176C256.99 78.9551 256.676 78.8613 256.383 78.7363V77.2598C256.715 77.416 257.088 77.5469 257.502 77.6523C257.92 77.7578 258.287 77.8105 258.604 77.8105C259.252 77.8105 259.576 77.623 259.576 77.248C259.576 77.1074 259.533 76.9941 259.447 76.9082C259.361 76.8184 259.213 76.7188 259.002 76.6094C258.791 76.4961 258.51 76.3652 258.158 76.2168C257.654 76.0059 257.283 75.8105 257.045 75.6309C256.811 75.4512 256.639 75.2461 256.529 75.0156C256.424 74.7812 256.371 74.4941 256.371 74.1543C256.371 73.5723 256.596 73.123 257.045 72.8066C257.498 72.4863 258.139 72.3262 258.967 72.3262C259.756 72.3262 260.523 72.498 261.27 72.8418L260.73 74.1309C260.402 73.9902 260.096 73.875 259.811 73.7852C259.525 73.6953 259.234 73.6504 258.938 73.6504C258.41 73.6504 258.146 73.793 258.146 74.0781C258.146 74.2383 258.23 74.377 258.398 74.4941C258.57 74.6113 258.943 74.7852 259.518 75.0156C260.029 75.2227 260.404 75.416 260.643 75.5957C260.881 75.7754 261.057 75.9824 261.17 76.2168C261.283 76.4512 261.34 76.7305 261.34 77.0547ZM261.797 72.4492H263.754L264.99 76.1348C265.096 76.4551 265.168 76.834 265.207 77.2715H265.242C265.285 76.8691 265.369 76.4902 265.494 76.1348L266.707 72.4492H268.623L265.852 79.8379C265.598 80.5215 265.234 81.0332 264.762 81.373C264.293 81.7129 263.744 81.8828 263.115 81.8828C262.807 81.8828 262.504 81.8496 262.207 81.7832V80.3652C262.422 80.416 262.656 80.4414 262.91 80.4414C263.227 80.4414 263.502 80.3438 263.736 80.1484C263.975 79.957 264.16 79.666 264.293 79.2754L264.398 78.9531L261.797 72.4492ZM274.137 77.0547C274.137 77.7266 273.902 78.2383 273.434 78.5898C272.969 78.9414 272.271 79.1172 271.342 79.1172C270.865 79.1172 270.459 79.084 270.123 79.0176C269.787 78.9551 269.473 78.8613 269.18 78.7363V77.2598C269.512 77.416 269.885 77.5469 270.299 77.6523C270.717 77.7578 271.084 77.8105 271.4 77.8105C272.049 77.8105 272.373 77.623 272.373 77.248C272.373 77.1074 272.33 76.9941 272.244 76.9082C272.158 76.8184 272.01 76.7188 271.799 76.6094C271.588 76.4961 271.307 76.3652 270.955 76.2168C270.451 76.0059 270.08 75.8105 269.842 75.6309C269.607 75.4512 269.436 75.2461 269.326 75.0156C269.221 74.7812 269.168 74.4941 269.168 74.1543C269.168 73.5723 269.393 73.123 269.842 72.8066C270.295 72.4863 270.936 72.3262 271.764 72.3262C272.553 72.3262 273.32 72.498 274.066 72.8418L273.527 74.1309C273.199 73.9902 272.893 73.875 272.607 73.7852C272.322 73.6953 272.031 73.6504 271.734 73.6504C271.207 73.6504 270.943 73.793 270.943 74.0781C270.943 74.2383 271.027 74.377 271.195 74.4941C271.367 74.6113 271.74 74.7852 272.314 75.0156C272.826 75.2227 273.201 75.416 273.439 75.5957C273.678 75.7754 273.854 75.9824 273.967 76.2168C274.08 76.4512 274.137 76.7305 274.137 77.0547ZM278.291 77.6934C278.604 77.6934 278.979 77.625 279.416 77.4883V78.8184C278.971 79.0176 278.424 79.1172 277.775 79.1172C277.061 79.1172 276.539 78.9375 276.211 78.5781C275.887 78.2148 275.725 77.6719 275.725 76.9492V73.791H274.869V73.0352L275.854 72.4375L276.369 71.0547H277.512V72.4492H279.346V73.791H277.512V76.9492C277.512 77.2031 277.582 77.3906 277.723 77.5117C277.867 77.6328 278.057 77.6934 278.291 77.6934ZM283.459 73.5977C283.08 73.5977 282.783 73.7188 282.568 73.9609C282.354 74.1992 282.23 74.5391 282.199 74.9805H284.707C284.699 74.5391 284.584 74.1992 284.361 73.9609C284.139 73.7188 283.838 73.5977 283.459 73.5977ZM283.711 79.1172C282.656 79.1172 281.832 78.8262 281.238 78.2441C280.645 77.6621 280.348 76.8379 280.348 75.7715C280.348 74.6738 280.621 73.8262 281.168 73.2285C281.719 72.627 282.479 72.3262 283.447 72.3262C284.373 72.3262 285.094 72.5898 285.609 73.1172C286.125 73.6445 286.383 74.373 286.383 75.3027V76.1699H282.158C282.178 76.6777 282.328 77.0742 282.609 77.3594C282.891 77.6445 283.285 77.7871 283.793 77.7871C284.188 77.7871 284.561 77.7461 284.912 77.6641C285.264 77.582 285.631 77.4512 286.014 77.2715V78.6543C285.701 78.8105 285.367 78.9258 285.012 79C284.656 79.0781 284.223 79.1172 283.711 79.1172ZM293.701 79H291.914V75.1738C291.914 74.7012 291.834 74.3477 291.674 74.1133C291.518 73.875 291.27 73.7559 290.93 73.7559C290.473 73.7559 290.141 73.9238 289.934 74.2598C289.727 74.5957 289.623 75.1484 289.623 75.918V79H287.836V72.4492H289.201L289.441 73.2871H289.541C289.717 72.9863 289.971 72.752 290.303 72.584C290.635 72.4121 291.016 72.3262 291.445 72.3262C292.426 72.3262 293.09 72.6465 293.438 73.2871H293.596C293.771 72.9824 294.029 72.7461 294.369 72.5781C294.713 72.4102 295.1 72.3262 295.529 72.3262C296.271 72.3262 296.832 72.5176 297.211 72.9004C297.594 73.2793 297.785 73.8887 297.785 74.7285V79H295.992V75.1738C295.992 74.7012 295.912 74.3477 295.752 74.1133C295.596 73.875 295.348 73.7559 295.008 73.7559C294.57 73.7559 294.242 73.9121 294.023 74.2246C293.809 74.5371 293.701 75.0332 293.701 75.7129V79ZM299.373 78.1621C299.373 77.834 299.461 77.5859 299.637 77.418C299.812 77.25 300.068 77.166 300.404 77.166C300.729 77.166 300.979 77.252 301.154 77.4238C301.334 77.5957 301.424 77.8418 301.424 78.1621C301.424 78.4707 301.334 78.7148 301.154 78.8945C300.975 79.0703 300.725 79.1582 300.404 79.1582C300.076 79.1582 299.822 79.0723 299.643 78.9004C299.463 78.7246 299.373 78.4785 299.373 78.1621ZM299.373 73.3223C299.373 72.9941 299.461 72.7461 299.637 72.5781C299.812 72.4102 300.068 72.3262 300.404 72.3262C300.729 72.3262 300.979 72.4121 301.154 72.584C301.334 72.7559 301.424 73.002 301.424 73.3223C301.424 73.6387 301.332 73.8848 301.148 74.0605C300.969 74.2324 300.721 74.3184 300.404 74.3184C300.076 74.3184 299.822 74.2324 299.643 74.0605C299.463 73.8887 299.373 73.6426 299.373 73.3223ZM309.223 79H308.648V72.7598C308.648 72.1934 308.672 71.6055 308.719 70.9961C308.66 71.0547 308.6 71.1113 308.537 71.166C308.475 71.2207 307.871 71.6953 306.727 72.5898L306.393 72.1738L308.719 70.4336H309.223V79ZM313.031 78.543C313.031 78.1602 313.188 77.9688 313.5 77.9688C313.82 77.9688 313.98 78.1602 313.98 78.543C313.98 78.9258 313.82 79.1172 313.5 79.1172C313.188 79.1172 313.031 78.9258 313.031 78.543ZM320.965 79H315.604V78.4844L317.883 76.1055C318.523 75.4414 318.973 74.9336 319.23 74.582C319.488 74.2305 319.678 73.8945 319.799 73.5742C319.92 73.2539 319.98 72.918 319.98 72.5664C319.98 72.0547 319.812 71.6387 319.477 71.3184C319.141 70.998 318.705 70.8379 318.17 70.8379C317.455 70.8379 316.771 71.0977 316.119 71.6172L315.803 71.2129C316.518 70.6113 317.311 70.3105 318.182 70.3105C318.928 70.3105 319.514 70.5098 319.939 70.9082C320.369 71.3066 320.584 71.8555 320.584 72.5547C320.584 73.1211 320.439 73.6699 320.15 74.2012C319.865 74.7285 319.342 75.3809 318.58 76.1582L316.383 78.4141V78.4375H320.965V79ZM324.943 73.8496C325.857 73.8496 326.576 74.0703 327.1 74.5117C327.627 74.9531 327.891 75.5605 327.891 76.334C327.891 77.2129 327.617 77.8965 327.07 78.3848C326.523 78.873 325.77 79.1172 324.809 79.1172C324.383 79.1172 323.979 79.0762 323.596 78.9941C323.213 78.9082 322.893 78.7871 322.635 78.6309V78.0273C323.057 78.2422 323.432 78.3926 323.76 78.4785C324.088 78.5605 324.438 78.6016 324.809 78.6016C325.559 78.6016 326.16 78.4043 326.613 78.0098C327.066 77.6113 327.293 77.0742 327.293 76.3984C327.293 75.7617 327.072 75.2617 326.631 74.8984C326.189 74.5352 325.59 74.3535 324.832 74.3535C324.324 74.3535 323.793 74.4297 323.238 74.582L322.887 74.3535L323.227 70.4336H327.352V70.9961H323.777L323.514 74.0195C324.123 73.9062 324.6 73.8496 324.943 73.8496ZM333.633 79L330.439 71.0898H330.393C330.424 71.5742 330.439 72.0703 330.439 72.5781V79H329.865V70.4336H330.791L333.826 77.9688H333.861L336.896 70.4336H337.799V79H337.195V72.5078C337.195 72.0547 337.219 71.5859 337.266 71.1016H337.219L334.014 79H333.633ZM342.668 76V75.5195H345.451V76H342.668ZM349.881 75.3496C349.881 74.2363 350.031 73.3008 350.332 72.543C350.637 71.7812 351.066 71.2168 351.621 70.8496C352.18 70.4824 352.852 70.2988 353.637 70.2988C354.004 70.2988 354.34 70.3438 354.645 70.4336V70.9492C354.359 70.8438 354.016 70.791 353.613 70.791C352.648 70.791 351.896 71.1387 351.357 71.834C350.822 72.5293 350.521 73.541 350.455 74.8691H350.531C350.828 74.4863 351.168 74.1973 351.551 74.002C351.934 73.8066 352.338 73.709 352.764 73.709C353.564 73.709 354.189 73.9375 354.639 74.3945C355.092 74.8516 355.318 75.4824 355.318 76.2871C355.318 77.1621 355.08 77.8535 354.604 78.3613C354.131 78.8652 353.492 79.1172 352.688 79.1172C351.82 79.1172 351.135 78.7871 350.631 78.127C350.131 77.4629 349.881 76.5371 349.881 75.3496ZM352.688 78.6016C353.328 78.6016 353.826 78.4004 354.182 77.998C354.537 77.5957 354.715 77.0215 354.715 76.2754C354.715 75.6191 354.539 75.1074 354.188 74.7402C353.836 74.373 353.357 74.1895 352.752 74.1895C352.354 74.1895 351.982 74.2773 351.639 74.4531C351.299 74.6289 351.027 74.8633 350.824 75.1562C350.621 75.4453 350.52 75.7422 350.52 76.0469C350.52 76.4805 350.615 76.8984 350.807 77.3008C351.002 77.6992 351.264 78.0156 351.592 78.25C351.924 78.4844 352.289 78.6016 352.688 78.6016ZM356.918 78.543C356.918 78.1602 357.074 77.9688 357.387 77.9688C357.707 77.9688 357.867 78.1602 357.867 78.543C357.867 78.9258 357.707 79.1172 357.387 79.1172C357.074 79.1172 356.918 78.9258 356.918 78.543ZM360.785 79L364.312 70.9961H359.467V70.4336H365.01V70.8613L361.471 79H360.785ZM366.92 72.9883C366.92 73.7148 367.008 74.2617 367.184 74.6289C367.359 74.9922 367.635 75.1738 368.01 75.1738C368.764 75.1738 369.141 74.4453 369.141 72.9883C369.141 72.2695 369.043 71.7305 368.848 71.3711C368.656 71.0078 368.377 70.8262 368.01 70.8262C367.635 70.8262 367.359 71.0078 367.184 71.3711C367.008 71.7305 366.92 72.2695 366.92 72.9883ZM369.715 72.9883C369.715 73.8711 369.568 74.543 369.275 75.0039C368.982 75.4609 368.561 75.6895 368.01 75.6895C367.49 75.6895 367.082 75.4551 366.785 74.9863C366.492 74.5137 366.346 73.8477 366.346 72.9883C366.346 72.1172 366.486 71.4531 366.768 70.9961C367.049 70.5391 367.463 70.3105 368.01 70.3105C368.553 70.3105 368.973 70.5469 369.27 71.0195C369.566 71.4883 369.715 72.1445 369.715 72.9883ZM371.912 76.4336C371.912 77.1562 372 77.6992 372.176 78.0625C372.352 78.4219 372.627 78.6016 373.002 78.6016C373.756 78.6016 374.133 77.8789 374.133 76.4336C374.133 74.9922 373.756 74.2715 373.002 74.2715C372.627 74.2715 372.352 74.4512 372.176 74.8105C372 75.166 371.912 75.707 371.912 76.4336ZM374.707 76.4336C374.707 77.3164 374.562 77.9883 374.273 78.4492C373.984 78.9062 373.564 79.1348 373.014 79.1348C372.482 79.1348 372.07 78.8984 371.777 78.4258C371.484 77.9492 371.338 77.2852 371.338 76.4336C371.338 75.5547 371.48 74.8887 371.766 74.4355C372.055 73.9824 372.471 73.7559 373.014 73.7559C373.549 73.7559 373.965 73.9902 374.262 74.459C374.559 74.9277 374.707 75.5859 374.707 76.4336ZM373.184 70.4336L368.432 79H367.869L372.621 70.4336H373.184Z" fill="white"/>
<path d="M197.865 100H196.078V91.4336H200.988V92.9219H197.865V95.1309H200.771V96.6133H197.865V100ZM203.947 96.7129C203.947 97.3613 204.053 97.8516 204.264 98.1836C204.479 98.5156 204.826 98.6816 205.307 98.6816C205.783 98.6816 206.125 98.5176 206.332 98.1895C206.543 97.8574 206.648 97.3652 206.648 96.7129C206.648 96.0645 206.543 95.5781 206.332 95.2539C206.121 94.9297 205.775 94.7676 205.295 94.7676C204.818 94.7676 204.475 94.9297 204.264 95.2539C204.053 95.5742 203.947 96.0605 203.947 96.7129ZM208.477 96.7129C208.477 97.7793 208.195 98.6133 207.633 99.2148C207.07 99.8164 206.287 100.117 205.283 100.117C204.654 100.117 204.1 99.9805 203.619 99.707C203.139 99.4297 202.77 99.0332 202.512 98.5176C202.254 98.002 202.125 97.4004 202.125 96.7129C202.125 95.6426 202.404 94.8105 202.963 94.2168C203.521 93.623 204.307 93.3262 205.318 93.3262C205.947 93.3262 206.502 93.4629 206.982 93.7363C207.463 94.0098 207.832 94.4023 208.09 94.9141C208.348 95.4258 208.477 96.0254 208.477 96.7129ZM214.594 100L214.354 99.1621H214.26C214.068 99.4668 213.797 99.7031 213.445 99.8711C213.094 100.035 212.693 100.117 212.244 100.117C211.475 100.117 210.895 99.9121 210.504 99.502C210.113 99.0879 209.918 98.4941 209.918 97.7207V93.4492H211.705V97.2754C211.705 97.748 211.789 98.1035 211.957 98.3418C212.125 98.5762 212.393 98.6934 212.76 98.6934C213.26 98.6934 213.621 98.5273 213.844 98.1953C214.066 97.8594 214.178 97.3047 214.178 96.5312V93.4492H215.965V100H214.594ZM223.887 100H222.1V96.1738C222.1 95.7012 222.016 95.3477 221.848 95.1133C221.68 94.875 221.412 94.7559 221.045 94.7559C220.545 94.7559 220.184 94.9238 219.961 95.2598C219.738 95.5918 219.627 96.1445 219.627 96.918V100H217.84V93.4492H219.205L219.445 94.2871H219.545C219.744 93.9707 220.018 93.7324 220.365 93.5723C220.717 93.4082 221.115 93.3262 221.561 93.3262C222.322 93.3262 222.9 93.5332 223.295 93.9473C223.689 94.3574 223.887 94.9512 223.887 95.7285V100ZM227.801 100.117C227.031 100.117 226.426 99.8184 225.984 99.2207C225.547 98.623 225.328 97.7949 225.328 96.7363C225.328 95.6621 225.551 94.8262 225.996 94.2285C226.445 93.627 227.062 93.3262 227.848 93.3262C228.672 93.3262 229.301 93.6465 229.734 94.2871H229.793C229.703 93.7988 229.658 93.3633 229.658 92.9805V90.8828H231.451V100H230.08L229.734 99.1504H229.658C229.252 99.7949 228.633 100.117 227.801 100.117ZM228.428 98.6934C228.885 98.6934 229.219 98.5605 229.43 98.2949C229.645 98.0293 229.762 97.5781 229.781 96.9414V96.748C229.781 96.0449 229.672 95.541 229.453 95.2363C229.238 94.9316 228.887 94.7793 228.398 94.7793C228 94.7793 227.689 94.9492 227.467 95.2891C227.248 95.625 227.139 96.1152 227.139 96.7598C227.139 97.4043 227.25 97.8887 227.473 98.2129C227.695 98.5332 228.014 98.6934 228.428 98.6934ZM239.883 100H238.066V92.9453H235.74V91.4336H242.209V92.9453H239.883V100ZM247.043 93.3262C247.285 93.3262 247.486 93.3438 247.646 93.3789L247.512 95.0547C247.367 95.0156 247.191 94.9961 246.984 94.9961C246.414 94.9961 245.969 95.1426 245.648 95.4355C245.332 95.7285 245.174 96.1387 245.174 96.666V100H243.387V93.4492H244.74L245.004 94.5508H245.092C245.295 94.1836 245.568 93.8887 245.912 93.666C246.26 93.4395 246.637 93.3262 247.043 93.3262ZM251.549 94.5977C251.17 94.5977 250.873 94.7188 250.658 94.9609C250.443 95.1992 250.32 95.5391 250.289 95.9805H252.797C252.789 95.5391 252.674 95.1992 252.451 94.9609C252.229 94.7188 251.928 94.5977 251.549 94.5977ZM251.801 100.117C250.746 100.117 249.922 99.8262 249.328 99.2441C248.734 98.6621 248.438 97.8379 248.438 96.7715C248.438 95.6738 248.711 94.8262 249.258 94.2285C249.809 93.627 250.568 93.3262 251.537 93.3262C252.463 93.3262 253.184 93.5898 253.699 94.1172C254.215 94.6445 254.473 95.373 254.473 96.3027V97.1699H250.248C250.268 97.6777 250.418 98.0742 250.699 98.3594C250.98 98.6445 251.375 98.7871 251.883 98.7871C252.277 98.7871 252.65 98.7461 253.002 98.6641C253.354 98.582 253.721 98.4512 254.104 98.2715V99.6543C253.791 99.8105 253.457 99.9258 253.102 100C252.746 100.078 252.312 100.117 251.801 100.117ZM260.086 100L259.74 99.1094H259.693C259.393 99.4883 259.082 99.752 258.762 99.9004C258.445 100.045 258.031 100.117 257.52 100.117C256.891 100.117 256.395 99.9375 256.031 99.5781C255.672 99.2188 255.492 98.707 255.492 98.043C255.492 97.3477 255.734 96.8359 256.219 96.5078C256.707 96.1758 257.441 95.9922 258.422 95.957L259.559 95.9219V95.6348C259.559 94.9707 259.219 94.6387 258.539 94.6387C258.016 94.6387 257.4 94.7969 256.693 95.1133L256.102 93.9062C256.855 93.5117 257.691 93.3145 258.609 93.3145C259.488 93.3145 260.162 93.5059 260.631 93.8887C261.1 94.2715 261.334 94.8535 261.334 95.6348V100H260.086ZM259.559 96.9648L258.867 96.9883C258.348 97.0039 257.961 97.0977 257.707 97.2695C257.453 97.4414 257.326 97.7031 257.326 98.0547C257.326 98.5586 257.615 98.8105 258.193 98.8105C258.607 98.8105 258.938 98.6914 259.184 98.4531C259.434 98.2148 259.559 97.8984 259.559 97.5039V96.9648ZM267.75 98.0547C267.75 98.7266 267.516 99.2383 267.047 99.5898C266.582 99.9414 265.885 100.117 264.955 100.117C264.479 100.117 264.072 100.084 263.736 100.018C263.4 99.9551 263.086 99.8613 262.793 99.7363V98.2598C263.125 98.416 263.498 98.5469 263.912 98.6523C264.33 98.7578 264.697 98.8105 265.014 98.8105C265.662 98.8105 265.986 98.623 265.986 98.248C265.986 98.1074 265.943 97.9941 265.857 97.9082C265.771 97.8184 265.623 97.7188 265.412 97.6094C265.201 97.4961 264.92 97.3652 264.568 97.2168C264.064 97.0059 263.693 96.8105 263.455 96.6309C263.221 96.4512 263.049 96.2461 262.939 96.0156C262.834 95.7812 262.781 95.4941 262.781 95.1543C262.781 94.5723 263.006 94.123 263.455 93.8066C263.908 93.4863 264.549 93.3262 265.377 93.3262C266.166 93.3262 266.934 93.498 267.68 93.8418L267.141 95.1309C266.812 94.9902 266.506 94.875 266.221 94.7852C265.936 94.6953 265.645 94.6504 265.348 94.6504C264.82 94.6504 264.557 94.793 264.557 95.0781C264.557 95.2383 264.641 95.377 264.809 95.4941C264.98 95.6113 265.354 95.7852 265.928 96.0156C266.439 96.2227 266.814 96.416 267.053 96.5957C267.291 96.7754 267.467 96.9824 267.58 97.2168C267.693 97.4512 267.75 97.7305 267.75 98.0547ZM273.785 100L273.545 99.1621H273.451C273.26 99.4668 272.988 99.7031 272.637 99.8711C272.285 100.035 271.885 100.117 271.436 100.117C270.666 100.117 270.086 99.9121 269.695 99.502C269.305 99.0879 269.109 98.4941 269.109 97.7207V93.4492H270.896V97.2754C270.896 97.748 270.98 98.1035 271.148 98.3418C271.316 98.5762 271.584 98.6934 271.951 98.6934C272.451 98.6934 272.812 98.5273 273.035 98.1953C273.258 97.8594 273.369 97.3047 273.369 96.5312V93.4492H275.156V100H273.785ZM280.688 93.3262C280.93 93.3262 281.131 93.3438 281.291 93.3789L281.156 95.0547C281.012 95.0156 280.836 94.9961 280.629 94.9961C280.059 94.9961 279.613 95.1426 279.293 95.4355C278.977 95.7285 278.818 96.1387 278.818 96.666V100H277.031V93.4492H278.385L278.648 94.5508H278.736C278.939 94.1836 279.213 93.8887 279.557 93.666C279.904 93.4395 280.281 93.3262 280.688 93.3262ZM281.543 93.4492H283.5L284.736 97.1348C284.842 97.4551 284.914 97.834 284.953 98.2715H284.988C285.031 97.8691 285.115 97.4902 285.24 97.1348L286.453 93.4492H288.369L285.598 100.838C285.344 101.521 284.98 102.033 284.508 102.373C284.039 102.713 283.49 102.883 282.861 102.883C282.553 102.883 282.25 102.85 281.953 102.783V101.365C282.168 101.416 282.402 101.441 282.656 101.441C282.973 101.441 283.248 101.344 283.482 101.148C283.721 100.957 283.906 100.666 284.039 100.275L284.145 99.9531L281.543 93.4492ZM289.061 99.1621C289.061 98.834 289.148 98.5859 289.324 98.418C289.5 98.25 289.756 98.166 290.092 98.166C290.416 98.166 290.666 98.252 290.842 98.4238C291.021 98.5957 291.111 98.8418 291.111 99.1621C291.111 99.4707 291.021 99.7148 290.842 99.8945C290.662 100.07 290.412 100.158 290.092 100.158C289.764 100.158 289.51 100.072 289.33 99.9004C289.15 99.7246 289.061 99.4785 289.061 99.1621ZM289.061 94.3223C289.061 93.9941 289.148 93.7461 289.324 93.5781C289.5 93.4102 289.756 93.3262 290.092 93.3262C290.416 93.3262 290.666 93.4121 290.842 93.584C291.021 93.7559 291.111 94.002 291.111 94.3223C291.111 94.6387 291.02 94.8848 290.836 95.0605C290.656 95.2324 290.408 95.3184 290.092 95.3184C289.764 95.3184 289.51 95.2324 289.33 95.0605C289.15 94.8887 289.061 94.6426 289.061 94.3223ZM301.096 95.6934C301.096 97.1973 300.865 98.3105 300.404 99.0332C299.947 99.7559 299.254 100.117 298.324 100.117C297.43 100.117 296.75 99.7461 296.285 99.0039C295.82 98.2578 295.588 97.1543 295.588 95.6934C295.588 94.2012 295.812 93.0957 296.262 92.377C296.715 91.6582 297.402 91.2988 298.324 91.2988C299.227 91.2988 299.914 91.6719 300.387 92.418C300.859 93.1602 301.096 94.252 301.096 95.6934ZM296.221 95.6934C296.221 97.0215 296.395 98.0039 296.742 98.6406C297.09 99.2734 297.617 99.5898 298.324 99.5898C299.062 99.5898 299.6 99.2617 299.936 98.6055C300.275 97.9492 300.445 96.9785 300.445 95.6934C300.445 94.4277 300.275 93.4668 299.936 92.8105C299.6 92.1543 299.062 91.8262 298.324 91.8262C297.586 91.8262 297.051 92.1543 296.719 92.8105C296.387 93.4668 296.221 94.4277 296.221 95.6934ZM306.75 100L303.557 92.0898H303.51C303.541 92.5742 303.557 93.0703 303.557 93.5781V100H302.982V91.4336H303.908L306.943 98.9688H306.979L310.014 91.4336H310.916V100H310.312V93.5078C310.312 93.0547 310.336 92.5859 310.383 92.1016H310.336L307.131 100H306.75ZM315.785 97V96.5195H318.568V97H315.785ZM328.412 95.6934C328.412 97.1973 328.182 98.3105 327.721 99.0332C327.264 99.7559 326.57 100.117 325.641 100.117C324.746 100.117 324.066 99.7461 323.602 99.0039C323.137 98.2578 322.904 97.1543 322.904 95.6934C322.904 94.2012 323.129 93.0957 323.578 92.377C324.031 91.6582 324.719 91.2988 325.641 91.2988C326.543 91.2988 327.23 91.6719 327.703 92.418C328.176 93.1602 328.412 94.252 328.412 95.6934ZM323.537 95.6934C323.537 97.0215 323.711 98.0039 324.059 98.6406C324.406 99.2734 324.934 99.5898 325.641 99.5898C326.379 99.5898 326.916 99.2617 327.252 98.6055C327.592 97.9492 327.762 96.9785 327.762 95.6934C327.762 94.4277 327.592 93.4668 327.252 92.8105C326.916 92.1543 326.379 91.8262 325.641 91.8262C324.902 91.8262 324.367 92.1543 324.035 92.8105C323.703 93.4668 323.537 94.4277 323.537 95.6934ZM330.035 99.543C330.035 99.1602 330.191 98.9688 330.504 98.9688C330.824 98.9688 330.984 99.1602 330.984 99.543C330.984 99.9258 330.824 100.117 330.504 100.117C330.191 100.117 330.035 99.9258 330.035 99.543ZM338.127 95.6934C338.127 97.1973 337.896 98.3105 337.436 99.0332C336.979 99.7559 336.285 100.117 335.355 100.117C334.461 100.117 333.781 99.7461 333.316 99.0039C332.852 98.2578 332.619 97.1543 332.619 95.6934C332.619 94.2012 332.844 93.0957 333.293 92.377C333.746 91.6582 334.434 91.2988 335.355 91.2988C336.258 91.2988 336.945 91.6719 337.418 92.418C337.891 93.1602 338.127 94.252 338.127 95.6934ZM333.252 95.6934C333.252 97.0215 333.426 98.0039 333.773 98.6406C334.121 99.2734 334.648 99.5898 335.355 99.5898C336.094 99.5898 336.631 99.2617 336.967 98.6055C337.307 97.9492 337.477 96.9785 337.477 95.6934C337.477 94.4277 337.307 93.4668 336.967 92.8105C336.631 92.1543 336.094 91.8262 335.355 91.8262C334.617 91.8262 334.082 92.1543 333.75 92.8105C333.418 93.4668 333.252 94.4277 333.252 95.6934ZM340.037 93.9883C340.037 94.7148 340.125 95.2617 340.301 95.6289C340.477 95.9922 340.752 96.1738 341.127 96.1738C341.881 96.1738 342.258 95.4453 342.258 93.9883C342.258 93.2695 342.16 92.7305 341.965 92.3711C341.773 92.0078 341.494 91.8262 341.127 91.8262C340.752 91.8262 340.477 92.0078 340.301 92.3711C340.125 92.7305 340.037 93.2695 340.037 93.9883ZM342.832 93.9883C342.832 94.8711 342.686 95.543 342.393 96.0039C342.1 96.4609 341.678 96.6895 341.127 96.6895C340.607 96.6895 340.199 96.4551 339.902 95.9863C339.609 95.5137 339.463 94.8477 339.463 93.9883C339.463 93.1172 339.604 92.4531 339.885 91.9961C340.166 91.5391 340.58 91.3105 341.127 91.3105C341.67 91.3105 342.09 91.5469 342.387 92.0195C342.684 92.4883 342.832 93.1445 342.832 93.9883ZM345.029 97.4336C345.029 98.1562 345.117 98.6992 345.293 99.0625C345.469 99.4219 345.744 99.6016 346.119 99.6016C346.873 99.6016 347.25 98.8789 347.25 97.4336C347.25 95.9922 346.873 95.2715 346.119 95.2715C345.744 95.2715 345.469 95.4512 345.293 95.8105C345.117 96.166 345.029 96.707 345.029 97.4336ZM347.824 97.4336C347.824 98.3164 347.68 98.9883 347.391 99.4492C347.102 99.9062 346.682 100.135 346.131 100.135C345.6 100.135 345.188 99.8984 344.895 99.4258C344.602 98.9492 344.455 98.2852 344.455 97.4336C344.455 96.5547 344.598 95.8887 344.883 95.4355C345.172 94.9824 345.588 94.7559 346.131 94.7559C346.666 94.7559 347.082 94.9902 347.379 95.459C347.676 95.9277 347.824 96.5859 347.824 97.4336ZM346.301 91.4336L341.549 100H340.986L345.738 91.4336H346.301Z" fill="white"/>
<path d="M201.322 121L200.701 118.961H197.578L196.957 121H195L198.023 112.398H200.244L203.279 121H201.322ZM200.268 117.438C199.693 115.59 199.369 114.545 199.295 114.303C199.225 114.061 199.174 113.869 199.143 113.729C199.014 114.229 198.645 115.465 198.035 117.438H200.268ZM207.615 116.189H211.014V120.631C210.463 120.811 209.943 120.936 209.455 121.006C208.971 121.08 208.475 121.117 207.967 121.117C206.674 121.117 205.686 120.738 205.002 119.98C204.322 119.219 203.982 118.127 203.982 116.705C203.982 115.322 204.377 114.244 205.166 113.471C205.959 112.697 207.057 112.311 208.459 112.311C209.338 112.311 210.186 112.486 211.002 112.838L210.398 114.291C209.773 113.979 209.123 113.822 208.447 113.822C207.662 113.822 207.033 114.086 206.561 114.613C206.088 115.141 205.852 115.85 205.852 116.74C205.852 117.67 206.041 118.381 206.42 118.873C206.803 119.361 207.357 119.605 208.084 119.605C208.463 119.605 208.848 119.566 209.238 119.488V117.701H207.615V116.189ZM221.232 118.621C221.232 119.395 220.953 120.004 220.395 120.449C219.84 120.895 219.066 121.117 218.074 121.117C217.16 121.117 216.352 120.945 215.648 120.602V118.914C216.227 119.172 216.715 119.354 217.113 119.459C217.516 119.564 217.883 119.617 218.215 119.617C218.613 119.617 218.918 119.541 219.129 119.389C219.344 119.236 219.451 119.01 219.451 118.709C219.451 118.541 219.404 118.393 219.311 118.264C219.217 118.131 219.078 118.004 218.895 117.883C218.715 117.762 218.346 117.568 217.787 117.303C217.264 117.057 216.871 116.82 216.609 116.594C216.348 116.367 216.139 116.104 215.982 115.803C215.826 115.502 215.748 115.15 215.748 114.748C215.748 113.99 216.004 113.395 216.516 112.961C217.031 112.527 217.742 112.311 218.648 112.311C219.094 112.311 219.518 112.363 219.92 112.469C220.326 112.574 220.75 112.723 221.191 112.914L220.605 114.326C220.148 114.139 219.77 114.008 219.469 113.934C219.172 113.859 218.879 113.822 218.59 113.822C218.246 113.822 217.982 113.902 217.799 114.062C217.615 114.223 217.523 114.432 217.523 114.689C217.523 114.85 217.561 114.99 217.635 115.111C217.709 115.229 217.826 115.344 217.986 115.457C218.15 115.566 218.535 115.766 219.141 116.055C219.941 116.438 220.49 116.822 220.787 117.209C221.084 117.592 221.232 118.062 221.232 118.621ZM228.691 121H226.904V117.174C226.904 116.229 226.553 115.756 225.85 115.756C225.35 115.756 224.988 115.926 224.766 116.266C224.543 116.605 224.432 117.156 224.432 117.918V121H222.645V111.883H224.432V113.74C224.432 113.885 224.418 114.225 224.391 114.76L224.35 115.287H224.443C224.842 114.646 225.475 114.326 226.342 114.326C227.111 114.326 227.695 114.533 228.094 114.947C228.492 115.361 228.691 115.955 228.691 116.729V121ZM234.691 121L234.346 120.109H234.299C233.998 120.488 233.688 120.752 233.367 120.9C233.051 121.045 232.637 121.117 232.125 121.117C231.496 121.117 231 120.938 230.637 120.578C230.277 120.219 230.098 119.707 230.098 119.043C230.098 118.348 230.34 117.836 230.824 117.508C231.312 117.176 232.047 116.992 233.027 116.957L234.164 116.922V116.635C234.164 115.971 233.824 115.639 233.145 115.639C232.621 115.639 232.006 115.797 231.299 116.113L230.707 114.906C231.461 114.512 232.297 114.314 233.215 114.314C234.094 114.314 234.768 114.506 235.236 114.889C235.705 115.271 235.939 115.854 235.939 116.635V121H234.691ZM234.164 117.965L233.473 117.988C232.953 118.004 232.566 118.098 232.312 118.27C232.059 118.441 231.932 118.703 231.932 119.055C231.932 119.559 232.221 119.811 232.799 119.811C233.213 119.811 233.543 119.691 233.789 119.453C234.039 119.215 234.164 118.898 234.164 118.504V117.965ZM241.441 114.326C241.684 114.326 241.885 114.344 242.045 114.379L241.91 116.055C241.766 116.016 241.59 115.996 241.383 115.996C240.812 115.996 240.367 116.143 240.047 116.436C239.73 116.729 239.572 117.139 239.572 117.666V121H237.785V114.449H239.139L239.402 115.551H239.49C239.693 115.184 239.967 114.889 240.311 114.666C240.658 114.439 241.035 114.326 241.441 114.326ZM245.947 115.598C245.568 115.598 245.271 115.719 245.057 115.961C244.842 116.199 244.719 116.539 244.688 116.98H247.195C247.188 116.539 247.072 116.199 246.85 115.961C246.627 115.719 246.326 115.598 245.947 115.598ZM246.199 121.117C245.145 121.117 244.32 120.826 243.727 120.244C243.133 119.662 242.836 118.838 242.836 117.771C242.836 116.674 243.109 115.826 243.656 115.229C244.207 114.627 244.967 114.326 245.936 114.326C246.861 114.326 247.582 114.59 248.098 115.117C248.613 115.645 248.871 116.373 248.871 117.303V118.17H244.646C244.666 118.678 244.816 119.074 245.098 119.359C245.379 119.645 245.773 119.787 246.281 119.787C246.676 119.787 247.049 119.746 247.4 119.664C247.752 119.582 248.119 119.451 248.502 119.271V120.654C248.189 120.811 247.855 120.926 247.5 121C247.145 121.078 246.711 121.117 246.199 121.117ZM256.371 121H254.584V117.174C254.584 116.229 254.232 115.756 253.529 115.756C253.029 115.756 252.668 115.926 252.445 116.266C252.223 116.605 252.111 117.156 252.111 117.918V121H250.324V111.883H252.111V113.74C252.111 113.885 252.098 114.225 252.07 114.76L252.029 115.287H252.123C252.521 114.646 253.154 114.326 254.021 114.326C254.791 114.326 255.375 114.533 255.773 114.947C256.172 115.361 256.371 115.955 256.371 116.729V121ZM259.635 117.713C259.635 118.361 259.74 118.852 259.951 119.184C260.166 119.516 260.514 119.682 260.994 119.682C261.471 119.682 261.812 119.518 262.02 119.189C262.23 118.857 262.336 118.365 262.336 117.713C262.336 117.064 262.23 116.578 262.02 116.254C261.809 115.93 261.463 115.768 260.982 115.768C260.506 115.768 260.162 115.93 259.951 116.254C259.74 116.574 259.635 117.061 259.635 117.713ZM264.164 117.713C264.164 118.779 263.883 119.613 263.32 120.215C262.758 120.816 261.975 121.117 260.971 121.117C260.342 121.117 259.787 120.98 259.307 120.707C258.826 120.43 258.457 120.033 258.199 119.518C257.941 119.002 257.812 118.4 257.812 117.713C257.812 116.643 258.092 115.811 258.65 115.217C259.209 114.623 259.994 114.326 261.006 114.326C261.635 114.326 262.189 114.463 262.67 114.736C263.15 115.01 263.52 115.402 263.777 115.914C264.035 116.426 264.164 117.025 264.164 117.713ZM267.428 121H265.641V111.883H267.428V121ZM271.383 121.117C270.613 121.117 270.008 120.818 269.566 120.221C269.129 119.623 268.91 118.795 268.91 117.736C268.91 116.662 269.133 115.826 269.578 115.229C270.027 114.627 270.645 114.326 271.43 114.326C272.254 114.326 272.883 114.646 273.316 115.287H273.375C273.285 114.799 273.24 114.363 273.24 113.98V111.883H275.033V121H273.662L273.316 120.15H273.24C272.834 120.795 272.215 121.117 271.383 121.117ZM272.01 119.693C272.467 119.693 272.801 119.561 273.012 119.295C273.227 119.029 273.344 118.578 273.363 117.941V117.748C273.363 117.045 273.254 116.541 273.035 116.236C272.82 115.932 272.469 115.779 271.98 115.779C271.582 115.779 271.271 115.949 271.049 116.289C270.83 116.625 270.721 117.115 270.721 117.76C270.721 118.404 270.832 118.889 271.055 119.213C271.277 119.533 271.596 119.693 272.01 119.693ZM279.615 115.598C279.236 115.598 278.939 115.719 278.725 115.961C278.51 116.199 278.387 116.539 278.355 116.98H280.863C280.855 116.539 280.74 116.199 280.518 115.961C280.295 115.719 279.994 115.598 279.615 115.598ZM279.867 121.117C278.812 121.117 277.988 120.826 277.395 120.244C276.801 119.662 276.504 118.838 276.504 117.771C276.504 116.674 276.777 115.826 277.324 115.229C277.875 114.627 278.635 114.326 279.604 114.326C280.529 114.326 281.25 114.59 281.766 115.117C282.281 115.645 282.539 116.373 282.539 117.303V118.17H278.314C278.334 118.678 278.484 119.074 278.766 119.359C279.047 119.645 279.441 119.787 279.949 119.787C280.344 119.787 280.717 119.746 281.068 119.664C281.42 119.582 281.787 119.451 282.17 119.271V120.654C281.857 120.811 281.523 120.926 281.168 121C280.812 121.078 280.379 121.117 279.867 121.117ZM287.648 114.326C287.891 114.326 288.092 114.344 288.252 114.379L288.117 116.055C287.973 116.016 287.797 115.996 287.59 115.996C287.02 115.996 286.574 116.143 286.254 116.436C285.938 116.729 285.779 117.139 285.779 117.666V121H283.992V114.449H285.346L285.609 115.551H285.697C285.9 115.184 286.174 114.889 286.518 114.666C286.865 114.439 287.242 114.326 287.648 114.326ZM294.012 119.055C294.012 119.727 293.777 120.238 293.309 120.59C292.844 120.941 292.146 121.117 291.217 121.117C290.74 121.117 290.334 121.084 289.998 121.018C289.662 120.955 289.348 120.861 289.055 120.736V119.26C289.387 119.416 289.76 119.547 290.174 119.652C290.592 119.758 290.959 119.811 291.275 119.811C291.924 119.811 292.248 119.623 292.248 119.248C292.248 119.107 292.205 118.994 292.119 118.908C292.033 118.818 291.885 118.719 291.674 118.609C291.463 118.496 291.182 118.365 290.83 118.217C290.326 118.006 289.955 117.811 289.717 117.631C289.482 117.451 289.311 117.246 289.201 117.016C289.096 116.781 289.043 116.494 289.043 116.154C289.043 115.572 289.268 115.123 289.717 114.807C290.17 114.486 290.811 114.326 291.639 114.326C292.428 114.326 293.195 114.498 293.941 114.842L293.402 116.131C293.074 115.99 292.768 115.875 292.482 115.785C292.197 115.695 291.906 115.65 291.609 115.65C291.082 115.65 290.818 115.793 290.818 116.078C290.818 116.238 290.902 116.377 291.07 116.494C291.242 116.611 291.615 116.785 292.189 117.016C292.701 117.223 293.076 117.416 293.314 117.596C293.553 117.775 293.729 117.982 293.842 118.217C293.955 118.451 294.012 118.73 294.012 119.055ZM295.154 120.162C295.154 119.834 295.242 119.586 295.418 119.418C295.594 119.25 295.85 119.166 296.186 119.166C296.51 119.166 296.76 119.252 296.936 119.424C297.115 119.596 297.205 119.842 297.205 120.162C297.205 120.471 297.115 120.715 296.936 120.895C296.756 121.07 296.506 121.158 296.186 121.158C295.857 121.158 295.604 121.072 295.424 120.9C295.244 120.725 295.154 120.479 295.154 120.162ZM295.154 115.322C295.154 114.994 295.242 114.746 295.418 114.578C295.594 114.41 295.85 114.326 296.186 114.326C296.51 114.326 296.76 114.412 296.936 114.584C297.115 114.756 297.205 115.002 297.205 115.322C297.205 115.639 297.113 115.885 296.93 116.061C296.75 116.232 296.502 116.318 296.186 116.318C295.857 116.318 295.604 116.232 295.424 116.061C295.244 115.889 295.154 115.643 295.154 115.322ZM307.189 116.693C307.189 118.197 306.959 119.311 306.498 120.033C306.041 120.756 305.348 121.117 304.418 121.117C303.523 121.117 302.844 120.746 302.379 120.004C301.914 119.258 301.682 118.154 301.682 116.693C301.682 115.201 301.906 114.096 302.355 113.377C302.809 112.658 303.496 112.299 304.418 112.299C305.32 112.299 306.008 112.672 306.48 113.418C306.953 114.16 307.189 115.252 307.189 116.693ZM302.314 116.693C302.314 118.021 302.488 119.004 302.836 119.641C303.184 120.273 303.711 120.59 304.418 120.59C305.156 120.59 305.693 120.262 306.029 119.605C306.369 118.949 306.539 117.979 306.539 116.693C306.539 115.428 306.369 114.467 306.029 113.811C305.693 113.154 305.156 112.826 304.418 112.826C303.68 112.826 303.145 113.154 302.812 113.811C302.48 114.467 302.314 115.428 302.314 116.693ZM312.844 121L309.65 113.09H309.604C309.635 113.574 309.65 114.07 309.65 114.578V121H309.076V112.434H310.002L313.037 119.969H313.072L316.107 112.434H317.01V121H316.406V114.508C316.406 114.055 316.43 113.586 316.477 113.102H316.43L313.225 121H312.844ZM324.996 118V117.52H327.779V118H324.996ZM337.623 116.693C337.623 118.197 337.393 119.311 336.932 120.033C336.475 120.756 335.781 121.117 334.852 121.117C333.957 121.117 333.277 120.746 332.812 120.004C332.348 119.258 332.115 118.154 332.115 116.693C332.115 115.201 332.34 114.096 332.789 113.377C333.242 112.658 333.93 112.299 334.852 112.299C335.754 112.299 336.441 112.672 336.914 113.418C337.387 114.16 337.623 115.252 337.623 116.693ZM332.748 116.693C332.748 118.021 332.922 119.004 333.27 119.641C333.617 120.273 334.145 120.59 334.852 120.59C335.59 120.59 336.127 120.262 336.463 119.605C336.803 118.949 336.973 117.979 336.973 116.693C336.973 115.428 336.803 114.467 336.463 113.811C336.127 113.154 335.59 112.826 334.852 112.826C334.113 112.826 333.578 113.154 333.246 113.811C332.914 114.467 332.748 115.428 332.748 116.693ZM339.246 120.543C339.246 120.16 339.402 119.969 339.715 119.969C340.035 119.969 340.195 120.16 340.195 120.543C340.195 120.926 340.035 121.117 339.715 121.117C339.402 121.117 339.246 120.926 339.246 120.543ZM347.338 116.693C347.338 118.197 347.107 119.311 346.646 120.033C346.189 120.756 345.496 121.117 344.566 121.117C343.672 121.117 342.992 120.746 342.527 120.004C342.062 119.258 341.83 118.154 341.83 116.693C341.83 115.201 342.055 114.096 342.504 113.377C342.957 112.658 343.645 112.299 344.566 112.299C345.469 112.299 346.156 112.672 346.629 113.418C347.102 114.16 347.338 115.252 347.338 116.693ZM342.463 116.693C342.463 118.021 342.637 119.004 342.984 119.641C343.332 120.273 343.859 120.59 344.566 120.59C345.305 120.59 345.842 120.262 346.178 119.605C346.518 118.949 346.688 117.979 346.688 116.693C346.688 115.428 346.518 114.467 346.178 113.811C345.842 113.154 345.305 112.826 344.566 112.826C343.828 112.826 343.293 113.154 342.961 113.811C342.629 114.467 342.463 115.428 342.463 116.693ZM349.248 114.988C349.248 115.715 349.336 116.262 349.512 116.629C349.688 116.992 349.963 117.174 350.338 117.174C351.092 117.174 351.469 116.445 351.469 114.988C351.469 114.27 351.371 113.73 351.176 113.371C350.984 113.008 350.705 112.826 350.338 112.826C349.963 112.826 349.688 113.008 349.512 113.371C349.336 113.73 349.248 114.27 349.248 114.988ZM352.043 114.988C352.043 115.871 351.896 116.543 351.604 117.004C351.311 117.461 350.889 117.689 350.338 117.689C349.818 117.689 349.41 117.455 349.113 116.986C348.82 116.514 348.674 115.848 348.674 114.988C348.674 114.117 348.814 113.453 349.096 112.996C349.377 112.539 349.791 112.311 350.338 112.311C350.881 112.311 351.301 112.547 351.598 113.02C351.895 113.488 352.043 114.145 352.043 114.988ZM354.24 118.434C354.24 119.156 354.328 119.699 354.504 120.062C354.68 120.422 354.955 120.602 355.33 120.602C356.084 120.602 356.461 119.879 356.461 118.434C356.461 116.992 356.084 116.271 355.33 116.271C354.955 116.271 354.68 116.451 354.504 116.811C354.328 117.166 354.24 117.707 354.24 118.434ZM357.035 118.434C357.035 119.316 356.891 119.988 356.602 120.449C356.312 120.906 355.893 121.135 355.342 121.135C354.811 121.135 354.398 120.898 354.105 120.426C353.812 119.949 353.666 119.285 353.666 118.434C353.666 117.555 353.809 116.889 354.094 116.436C354.383 115.982 354.799 115.756 355.342 115.756C355.877 115.756 356.293 115.99 356.59 116.459C356.887 116.928 357.035 117.586 357.035 118.434ZM355.512 112.434L350.76 121H350.197L354.949 112.434H355.512Z" fill="white"/>
<path d="M201.322 142L200.701 139.961H197.578L196.957 142H195L198.023 133.398H200.244L203.279 142H201.322ZM200.268 138.438C199.693 136.59 199.369 135.545 199.295 135.303C199.225 135.061 199.174 134.869 199.143 134.729C199.014 135.229 198.645 136.465 198.035 138.438H200.268ZM207.615 137.189H211.014V141.631C210.463 141.811 209.943 141.936 209.455 142.006C208.971 142.08 208.475 142.117 207.967 142.117C206.674 142.117 205.686 141.738 205.002 140.98C204.322 140.219 203.982 139.127 203.982 137.705C203.982 136.322 204.377 135.244 205.166 134.471C205.959 133.697 207.057 133.311 208.459 133.311C209.338 133.311 210.186 133.486 211.002 133.838L210.398 135.291C209.773 134.979 209.123 134.822 208.447 134.822C207.662 134.822 207.033 135.086 206.561 135.613C206.088 136.141 205.852 136.85 205.852 137.74C205.852 138.67 206.041 139.381 206.42 139.873C206.803 140.361 207.357 140.605 208.084 140.605C208.463 140.605 208.848 140.566 209.238 140.488V138.701H207.615V137.189ZM219.48 142H217.664V134.945H215.338V133.434H221.807V134.945H219.48V142ZM225.697 136.598C225.318 136.598 225.021 136.719 224.807 136.961C224.592 137.199 224.469 137.539 224.438 137.98H226.945C226.938 137.539 226.822 137.199 226.6 136.961C226.377 136.719 226.076 136.598 225.697 136.598ZM225.949 142.117C224.895 142.117 224.07 141.826 223.477 141.244C222.883 140.662 222.586 139.838 222.586 138.771C222.586 137.674 222.859 136.826 223.406 136.229C223.957 135.627 224.717 135.326 225.686 135.326C226.611 135.326 227.332 135.59 227.848 136.117C228.363 136.645 228.621 137.373 228.621 138.303V139.17H224.396C224.416 139.678 224.566 140.074 224.848 140.359C225.129 140.645 225.523 140.787 226.031 140.787C226.426 140.787 226.799 140.746 227.15 140.664C227.502 140.582 227.869 140.451 228.252 140.271V141.654C227.939 141.811 227.605 141.926 227.25 142C226.895 142.078 226.461 142.117 225.949 142.117ZM234.234 142L233.889 141.109H233.842C233.541 141.488 233.23 141.752 232.91 141.9C232.594 142.045 232.18 142.117 231.668 142.117C231.039 142.117 230.543 141.938 230.18 141.578C229.82 141.219 229.641 140.707 229.641 140.043C229.641 139.348 229.883 138.836 230.367 138.508C230.855 138.176 231.59 137.992 232.57 137.957L233.707 137.922V137.635C233.707 136.971 233.367 136.639 232.688 136.639C232.164 136.639 231.549 136.797 230.842 137.113L230.25 135.906C231.004 135.512 231.84 135.314 232.758 135.314C233.637 135.314 234.311 135.506 234.779 135.889C235.248 136.271 235.482 136.854 235.482 137.635V142H234.234ZM233.707 138.965L233.016 138.988C232.496 139.004 232.109 139.098 231.855 139.27C231.602 139.441 231.475 139.703 231.475 140.055C231.475 140.559 231.764 140.811 232.342 140.811C232.756 140.811 233.086 140.691 233.332 140.453C233.582 140.215 233.707 139.898 233.707 139.504V138.965ZM243.193 142H241.406V138.174C241.406 137.701 241.326 137.348 241.166 137.113C241.01 136.875 240.762 136.756 240.422 136.756C239.965 136.756 239.633 136.924 239.426 137.26C239.219 137.596 239.115 138.148 239.115 138.918V142H237.328V135.449H238.693L238.934 136.287H239.033C239.209 135.986 239.463 135.752 239.795 135.584C240.127 135.412 240.508 135.326 240.938 135.326C241.918 135.326 242.582 135.646 242.93 136.287H243.088C243.264 135.982 243.521 135.746 243.861 135.578C244.205 135.41 244.592 135.326 245.021 135.326C245.764 135.326 246.324 135.518 246.703 135.9C247.086 136.279 247.277 136.889 247.277 137.729V142H245.484V138.174C245.484 137.701 245.404 137.348 245.244 137.113C245.088 136.875 244.84 136.756 244.5 136.756C244.062 136.756 243.734 136.912 243.516 137.225C243.301 137.537 243.193 138.033 243.193 138.713V142ZM248.865 141.162C248.865 140.834 248.953 140.586 249.129 140.418C249.305 140.25 249.561 140.166 249.896 140.166C250.221 140.166 250.471 140.252 250.646 140.424C250.826 140.596 250.916 140.842 250.916 141.162C250.916 141.471 250.826 141.715 250.646 141.895C250.467 142.07 250.217 142.158 249.896 142.158C249.568 142.158 249.314 142.072 249.135 141.9C248.955 141.725 248.865 141.479 248.865 141.162ZM248.865 136.322C248.865 135.994 248.953 135.746 249.129 135.578C249.305 135.41 249.561 135.326 249.896 135.326C250.221 135.326 250.471 135.412 250.646 135.584C250.826 135.756 250.916 136.002 250.916 136.322C250.916 136.639 250.824 136.885 250.641 137.061C250.461 137.232 250.213 137.318 249.896 137.318C249.568 137.318 249.314 137.232 249.135 137.061C248.955 136.889 248.865 136.643 248.865 136.322ZM260.9 137.693C260.9 139.197 260.67 140.311 260.209 141.033C259.752 141.756 259.059 142.117 258.129 142.117C257.234 142.117 256.555 141.746 256.09 141.004C255.625 140.258 255.393 139.154 255.393 137.693C255.393 136.201 255.617 135.096 256.066 134.377C256.52 133.658 257.207 133.299 258.129 133.299C259.031 133.299 259.719 133.672 260.191 134.418C260.664 135.16 260.9 136.252 260.9 137.693ZM256.025 137.693C256.025 139.021 256.199 140.004 256.547 140.641C256.895 141.273 257.422 141.59 258.129 141.59C258.867 141.59 259.404 141.262 259.74 140.605C260.08 139.949 260.25 138.979 260.25 137.693C260.25 136.428 260.08 135.467 259.74 134.811C259.404 134.154 258.867 133.826 258.129 133.826C257.391 133.826 256.855 134.154 256.523 134.811C256.191 135.467 256.025 136.428 256.025 137.693ZM266.555 142L263.361 134.09H263.314C263.346 134.574 263.361 135.07 263.361 135.578V142H262.787V133.434H263.713L266.748 140.969H266.783L269.818 133.434H270.721V142H270.117V135.508C270.117 135.055 270.141 134.586 270.188 134.102H270.141L266.936 142H266.555ZM275.59 139V138.52H278.373V139H275.59ZM288.217 137.693C288.217 139.197 287.986 140.311 287.525 141.033C287.068 141.756 286.375 142.117 285.445 142.117C284.551 142.117 283.871 141.746 283.406 141.004C282.941 140.258 282.709 139.154 282.709 137.693C282.709 136.201 282.934 135.096 283.383 134.377C283.836 133.658 284.523 133.299 285.445 133.299C286.348 133.299 287.035 133.672 287.508 134.418C287.98 135.16 288.217 136.252 288.217 137.693ZM283.342 137.693C283.342 139.021 283.516 140.004 283.863 140.641C284.211 141.273 284.738 141.59 285.445 141.59C286.184 141.59 286.721 141.262 287.057 140.605C287.396 139.949 287.566 138.979 287.566 137.693C287.566 136.428 287.396 135.467 287.057 134.811C286.721 134.154 286.184 133.826 285.445 133.826C284.707 133.826 284.172 134.154 283.84 134.811C283.508 135.467 283.342 136.428 283.342 137.693ZM289.84 141.543C289.84 141.16 289.996 140.969 290.309 140.969C290.629 140.969 290.789 141.16 290.789 141.543C290.789 141.926 290.629 142.117 290.309 142.117C289.996 142.117 289.84 141.926 289.84 141.543ZM297.932 137.693C297.932 139.197 297.701 140.311 297.24 141.033C296.783 141.756 296.09 142.117 295.16 142.117C294.266 142.117 293.586 141.746 293.121 141.004C292.656 140.258 292.424 139.154 292.424 137.693C292.424 136.201 292.648 135.096 293.098 134.377C293.551 133.658 294.238 133.299 295.16 133.299C296.062 133.299 296.75 133.672 297.223 134.418C297.695 135.16 297.932 136.252 297.932 137.693ZM293.057 137.693C293.057 139.021 293.23 140.004 293.578 140.641C293.926 141.273 294.453 141.59 295.16 141.59C295.898 141.59 296.436 141.262 296.771 140.605C297.111 139.949 297.281 138.979 297.281 137.693C297.281 136.428 297.111 135.467 296.771 134.811C296.436 134.154 295.898 133.826 295.16 133.826C294.422 133.826 293.887 134.154 293.555 134.811C293.223 135.467 293.057 136.428 293.057 137.693ZM299.842 135.988C299.842 136.715 299.93 137.262 300.105 137.629C300.281 137.992 300.557 138.174 300.932 138.174C301.686 138.174 302.062 137.445 302.062 135.988C302.062 135.27 301.965 134.73 301.77 134.371C301.578 134.008 301.299 133.826 300.932 133.826C300.557 133.826 300.281 134.008 300.105 134.371C299.93 134.73 299.842 135.27 299.842 135.988ZM302.637 135.988C302.637 136.871 302.49 137.543 302.197 138.004C301.904 138.461 301.482 138.689 300.932 138.689C300.412 138.689 300.004 138.455 299.707 137.986C299.414 137.514 299.268 136.848 299.268 135.988C299.268 135.117 299.408 134.453 299.689 133.996C299.971 133.539 300.385 133.311 300.932 133.311C301.475 133.311 301.895 133.547 302.191 134.02C302.488 134.488 302.637 135.145 302.637 135.988ZM304.834 139.434C304.834 140.156 304.922 140.699 305.098 141.062C305.273 141.422 305.549 141.602 305.924 141.602C306.678 141.602 307.055 140.879 307.055 139.434C307.055 137.992 306.678 137.271 305.924 137.271C305.549 137.271 305.273 137.451 305.098 137.811C304.922 138.166 304.834 138.707 304.834 139.434ZM307.629 139.434C307.629 140.316 307.484 140.988 307.195 141.449C306.906 141.906 306.486 142.135 305.936 142.135C305.404 142.135 304.992 141.898 304.699 141.426C304.406 140.949 304.26 140.285 304.26 139.434C304.26 138.555 304.402 137.889 304.688 137.436C304.977 136.982 305.393 136.756 305.936 136.756C306.471 136.756 306.887 136.99 307.184 137.459C307.48 137.928 307.629 138.586 307.629 139.434ZM306.105 133.434L301.354 142H300.791L305.543 133.434H306.105Z" fill="white"/>
<path d="M79.9839 7C91.1915 6.99772 102.275 9.35039 112.515 13.9055C122.755 18.4607 131.924 25.1167 139.427 33.4421C146.93 41.7675 152.6 51.5766 156.07 62.2337C159.54 72.8907 160.731 84.1579 159.568 95.305L80.0002 87L79.9839 7Z" fill="url(#paint6_linear)"/>
<path d="M79.9839 7C91.1915 6.99772 102.275 9.35039 112.515 13.9055C122.755 18.4607 131.924 25.1167 139.427 33.4421C146.93 41.7675 152.6 51.5766 156.07 62.2337C159.54 72.8907 160.731 84.1579 159.568 95.305L80.0002 87L79.9839 7Z" stroke="white"/>
<path d="M159.559 95.3844C158.088 109.347 152.968 122.677 144.713 134.034C136.458 145.392 125.36 154.377 112.533 160.086C99.706 165.796 85.6024 168.029 71.639 166.562C57.6757 165.094 44.3444 159.978 32.9846 151.727C21.6249 143.475 12.6368 132.38 6.92334 119.554C1.20991 106.729 -1.02757 92.6263 0.43567 78.6625C1.89891 64.6987 7.01135 51.3659 15.2593 40.0037C23.5073 28.6415 34.6003 19.6501 47.4238 13.9329L80 86.9999L159.559 95.3844Z" fill="url(#paint7_linear)"/>
<path d="M159.559 95.3844C158.088 109.347 152.968 122.677 144.713 134.034C136.458 145.392 125.36 154.377 112.533 160.086C99.706 165.796 85.6024 168.029 71.639 166.562C57.6757 165.094 44.3444 159.978 32.9846 151.727C21.6249 143.475 12.6368 132.38 6.92334 119.554C1.20991 106.729 -1.02757 92.6263 0.43567 78.6625C1.89891 64.6987 7.01135 51.3659 15.2593 40.0037C23.5073 28.6415 34.6003 19.6501 47.4238 13.9329L80 86.9999L159.559 95.3844Z" stroke="white"/>
<path d="M47.4971 13.9003C57.6949 9.36598 68.7286 7.0155 79.8891 7L80.0002 86.9999L47.4971 13.9003Z" fill="url(#paint8_linear)"/>
<path d="M47.4971 13.9003C57.6949 9.36598 68.7286 7.0155 79.8891 7L80.0002 86.9999L47.4971 13.9003Z" stroke="white"/>
<path d="M79.9687 7C79.942 7.00004 79.9153 7.00006 79.8887 7.00007L79.9998 87L79.9687 7Z" fill="url(#paint9_radial)" stroke="white" stroke-linejoin="round"/>
<path d="M79.9687 7C79.942 7.00004 79.9153 7.00006 79.8887 7.00007L79.9998 87L79.9687 7Z" fill="url(#paint10_radial)" stroke="white" stroke-linejoin="round"/>
<path d="M79.9687 7C79.942 7.00004 79.9153 7.00006 79.8887 7.00007L79.9998 87L79.9687 7Z" fill="url(#paint11_radial)" stroke="white" stroke-linejoin="round"/>
<circle cx="80.6014" cy="85.797" r="46.3158" fill="#1D1D1B"/>
<defs>
<filter id="filter0_d" x="140" y="0" width="70" height="64" filterUnits="userSpaceOnUse" color-interpolation-filters="sRGB">
<feFlood flood-opacity="0" result="BackgroundImageFix"/>
<feColorMatrix in="SourceAlpha" type="matrix" values="0 0 0 0 0 0 0 0 0 0 0 0 0 0 0 0 0 0 127 0"/>
<feOffset/>
<feGaussianBlur stdDeviation="15"/>
<feColorMatrix type="matrix" values="0 0 0 0 0 0 0 0 0 0 0 0 0 0 0 0 0 0 1 0"/>
<feBlend mode="normal" in2="BackgroundImageFix" result="effect1_dropShadow"/>
<feBlend mode="normal" in="SourceGraphic" in2="effect1_dropShadow" result="shape"/>
</filter>
<filter id="filter1_d" x="140" y="42" width="70" height="64" filterUnits="userSpaceOnUse" color-interpolation-filters="sRGB">
<feFlood flood-opacity="0" result="BackgroundImageFix"/>
<feColorMatrix in="SourceAlpha" type="matrix" values="0 0 0 0 0 0 0 0 0 0 0 0 0 0 0 0 0 0 127 0"/>
<feOffset/>
<feGaussianBlur stdDeviation="15"/>
<feColorMatrix type="matrix" values="0 0 0 0 0 0 0 0 0 0 0 0 0 0 0 0 0 0 1 0"/>
<feBlend mode="normal" in2="BackgroundImageFix" result="effect1_dropShadow"/>
<feBlend mode="normal" in="SourceGraphic" in2="effect1_dropShadow" result="shape"/>
</filter>
<filter id="filter2_d" x="140" y="64" width="70" height="64" filterUnits="userSpaceOnUse" color-interpolation-filters="sRGB">
<feFlood flood-opacity="0" result="BackgroundImageFix"/>
<feColorMatrix in="SourceAlpha" type="matrix" values="0 0 0 0 0 0 0 0 0 0 0 0 0 0 0 0 0 0 127 0"/>
<feOffset/>
<feGaussianBlur stdDeviation="15"/>
<feColorMatrix type="matrix" values="0 0 0 0 0 0 0 0 0 0 0 0 0 0 0 0 0 0 1 0"/>
<feBlend mode="normal" in2="BackgroundImageFix" result="effect1_dropShadow"/>
<feBlend mode="normal" in="SourceGraphic" in2="effect1_dropShadow" result="shape"/>
</filter>
<filter id="filter3_d" x="140" y="105" width="70" height="64" filterUnits="userSpaceOnUse" color-interpolation-filters="sRGB">
<feFlood flood-opacity="0" result="BackgroundImageFix"/>
<feColorMatrix in="SourceAlpha" type="matrix" values="0 0 0 0 0 0 0 0 0 0 0 0 0 0 0 0 0 0 127 0"/>
<feOffset/>
<feGaussianBlur stdDeviation="15"/>
<feColorMatrix type="matrix" values="0 0 0 0 0 0 0 0 0 0 0 0 0 0 0 0 0 0 1 0"/>
<feBlend mode="normal" in2="BackgroundImageFix" result="effect1_dropShadow"/>
<feBlend mode="normal" in="SourceGraphic" in2="effect1_dropShadow" result="shape"/>
</filter>
<linearGradient id="paint0_linear" x1="170" y1="34" x2="180" y2="34" gradientUnits="userSpaceOnUse">
<stop stop-color="#65A6F2"/>
<stop offset="1" stop-color="#22BBDD"/>
</linearGradient>
<linearGradient id="paint1_linear" x1="180" y1="55" x2="170" y2="55" gradientUnits="userSpaceOnUse">
<stop stop-color="#E01E73"/>
<stop offset="1" stop-color="#FF7272"/>
</linearGradient>
<linearGradient id="paint2_linear" x1="180" y1="76" x2="170" y2="76" gradientUnits="userSpaceOnUse">
<stop stop-color="#FF9D0A"/>
<stop offset="1" stop-color="#FEFFC7"/>
</linearGradient>
<linearGradient id="paint3_linear" x1="170" y1="98" x2="180" y2="98" gradientUnits="userSpaceOnUse">
<stop stop-color="#B4FABD"/>
<stop offset="1" stop-color="#22DD9A"/>
</linearGradient>
<linearGradient id="paint4_linear" x1="180" y1="119" x2="170" y2="119" gradientUnits="userSpaceOnUse">
<stop stop-color="#C41005"/>
<stop offset="1" stop-color="#DD5E16"/>
</linearGradient>
<linearGradient id="paint5_linear" x1="170" y1="139" x2="180" y2="139" gradientUnits="userSpaceOnUse">
<stop stop-color="#FA1DBC"/>
<stop offset="1" stop-color="#A122DD"/>
</linearGradient>
<linearGradient id="paint6_linear" x1="79.9839" y1="50.4287" x2="163.935" y2="50.4287" gradientUnits="userSpaceOnUse">
<stop stop-color="#489CFF"/>
<stop offset="1" stop-color="#3AD5F8"/>
</linearGradient>
<linearGradient id="paint7_linear" x1="3.94965e-07" y1="89.2117" x2="167.407" y2="89.2117" gradientUnits="userSpaceOnUse">
<stop stop-color="#E01E73"/>
<stop offset="1" stop-color="#FF7272"/>
</linearGradient>
<linearGradient id="paint8_linear" x1="47.4971" y1="46.3442" x2="81.5987" y2="46.3442" gradientUnits="userSpaceOnUse">
<stop stop-color="#FEFFC7"/>
<stop offset="1" stop-color="#FF9D0A"/>
</linearGradient>
<radialGradient id="paint9_radial" cx="0" cy="0" r="1" gradientUnits="userSpaceOnUse" gradientTransform="translate(79.9998 54.6992) scale(111.993 112)">
<stop stop-color="#24CBE5"/>
<stop offset="1" stop-color="#007F99"/>
</radialGradient>
<radialGradient id="paint10_radial" cx="0" cy="0" r="1" gradientUnits="userSpaceOnUse" gradientTransform="translate(79.9998 54.6992) scale(111.993 112)">
<stop stop-color="#64E572"/>
<stop offset="1" stop-color="#189926"/>
</radialGradient>
<radialGradient id="paint11_radial" cx="0" cy="0" r="1" gradientUnits="userSpaceOnUse" gradientTransform="translate(79.9998 54.6992) scale(111.993 112)">
<stop stop-color="#FF9655"/>
<stop offset="1" stop-color="#B34A09"/>
</radialGradient>
</defs>
</svg>
