<svg width="381" height="169" viewBox="0 0 381 169" fill="none" xmlns="http://www.w3.org/2000/svg">
<g filter="url(#filter0_d)">
<line x1="172" y1="32" x2="178" y2="32" stroke="url(#paint0_linear)" stroke-width="4" stroke-linecap="round"/>
</g>
<line x1="172" y1="53" x2="178" y2="53" stroke="url(#paint1_linear)" stroke-width="4" stroke-linecap="round"/>
<g filter="url(#filter1_d)">
<line x1="172" y1="74" x2="178" y2="74" stroke="url(#paint2_linear)" stroke-width="4" stroke-linecap="round" stroke-linejoin="round"/>
</g>
<g filter="url(#filter2_d)">
<line x1="172" y1="96" x2="178" y2="96" stroke="url(#paint3_linear)" stroke-width="4" stroke-linecap="round"/>
</g>
<line x1="172" y1="117" x2="178" y2="117" stroke="url(#paint4_linear)" stroke-width="4" stroke-linecap="round"/>
<g filter="url(#filter3_d)">
<line x1="172" y1="137" x2="178" y2="137" stroke="url(#paint5_linear)" stroke-width="4" stroke-linecap="round"/>
</g>
<path d="M197.895 31.4648H198.492C199.051 31.4648 199.469 31.3555 199.746 31.1367C200.023 30.9141 200.162 30.5918 200.162 30.1699C200.162 29.7441 200.045 29.4297 199.811 29.2266C199.58 29.0234 199.217 28.9219 198.721 28.9219H197.895V31.4648ZM201.996 30.1055C201.996 31.0273 201.707 31.7324 201.129 32.2207C200.555 32.709 199.736 32.9531 198.674 32.9531H197.895V36H196.078V27.4336H198.814C199.854 27.4336 200.643 27.6582 201.182 28.1074C201.725 28.5527 201.996 29.2188 201.996 30.1055ZM207.129 29.3262C207.371 29.3262 207.572 29.3438 207.732 29.3789L207.598 31.0547C207.453 31.0156 207.277 30.9961 207.07 30.9961C206.5 30.9961 206.055 31.1426 205.734 31.4355C205.418 31.7285 205.26 32.1387 205.26 32.666V36H203.473V29.4492H204.826L205.09 30.5508H205.178C205.381 30.1836 205.654 29.8887 205.998 29.666C206.346 29.4395 206.723 29.3262 207.129 29.3262ZM211.635 30.5977C211.256 30.5977 210.959 30.7188 210.744 30.9609C210.529 31.1992 210.406 31.5391 210.375 31.9805H212.883C212.875 31.5391 212.76 31.1992 212.537 30.9609C212.314 30.7188 212.014 30.5977 211.635 30.5977ZM211.887 36.1172C210.832 36.1172 210.008 35.8262 209.414 35.2441C208.82 34.6621 208.523 33.8379 208.523 32.7715C208.523 31.6738 208.797 30.8262 209.344 30.2285C209.895 29.627 210.654 29.3262 211.623 29.3262C212.549 29.3262 213.27 29.5898 213.785 30.1172C214.301 30.6445 214.559 31.373 214.559 32.3027V33.1699H210.334C210.354 33.6777 210.504 34.0742 210.785 34.3594C211.066 34.6445 211.461 34.7871 211.969 34.7871C212.363 34.7871 212.736 34.7461 213.088 34.6641C213.439 34.582 213.807 34.4512 214.189 34.2715V35.6543C213.877 35.8105 213.543 35.9258 213.188 36C212.832 36.0781 212.398 36.1172 211.887 36.1172ZM220.582 34.0547C220.582 34.7266 220.348 35.2383 219.879 35.5898C219.414 35.9414 218.717 36.1172 217.787 36.1172C217.311 36.1172 216.904 36.084 216.568 36.0176C216.232 35.9551 215.918 35.8613 215.625 35.7363V34.2598C215.957 34.416 216.33 34.5469 216.744 34.6523C217.162 34.7578 217.529 34.8105 217.846 34.8105C218.494 34.8105 218.818 34.623 218.818 34.248C218.818 34.1074 218.775 33.9941 218.689 33.9082C218.604 33.8184 218.455 33.7188 218.244 33.6094C218.033 33.4961 217.752 33.3652 217.4 33.2168C216.896 33.0059 216.525 32.8105 216.287 32.6309C216.053 32.4512 215.881 32.2461 215.771 32.0156C215.666 31.7812 215.613 31.4941 215.613 31.1543C215.613 30.5723 215.838 30.123 216.287 29.8066C216.74 29.4863 217.381 29.3262 218.209 29.3262C218.998 29.3262 219.766 29.498 220.512 29.8418L219.973 31.1309C219.645 30.9902 219.338 30.875 219.053 30.7852C218.768 30.6953 218.477 30.6504 218.18 30.6504C217.652 30.6504 217.389 30.793 217.389 31.0781C217.389 31.2383 217.473 31.377 217.641 31.4941C217.812 31.6113 218.186 31.7852 218.76 32.0156C219.271 32.2227 219.646 32.416 219.885 32.5957C220.123 32.7754 220.299 32.9824 220.412 33.2168C220.525 33.4512 220.582 33.7305 220.582 34.0547ZM226.137 36L225.791 35.1094H225.744C225.443 35.4883 225.133 35.752 224.812 35.9004C224.496 36.0449 224.082 36.1172 223.57 36.1172C222.941 36.1172 222.445 35.9375 222.082 35.5781C221.723 35.2188 221.543 34.707 221.543 34.043C221.543 33.3477 221.785 32.8359 222.27 32.5078C222.758 32.1758 223.492 31.9922 224.473 31.957L225.609 31.9219V31.6348C225.609 30.9707 225.27 30.6387 224.59 30.6387C224.066 30.6387 223.451 30.7969 222.744 31.1133L222.152 29.9062C222.906 29.5117 223.742 29.3145 224.66 29.3145C225.539 29.3145 226.213 29.5059 226.682 29.8887C227.15 30.2715 227.385 30.8535 227.385 31.6348V36H226.137ZM225.609 32.9648L224.918 32.9883C224.398 33.0039 224.012 33.0977 223.758 33.2695C223.504 33.4414 223.377 33.7031 223.377 34.0547C223.377 34.5586 223.666 34.8105 224.244 34.8105C224.658 34.8105 224.988 34.6914 225.234 34.4531C225.484 34.2148 225.609 33.8984 225.609 33.5039V32.9648ZM231.018 36H229.23V26.8828H231.018V36ZM235.611 30.5977C235.232 30.5977 234.936 30.7188 234.721 30.9609C234.506 31.1992 234.383 31.5391 234.352 31.9805H236.859C236.852 31.5391 236.736 31.1992 236.514 30.9609C236.291 30.7188 235.99 30.5977 235.611 30.5977ZM235.863 36.1172C234.809 36.1172 233.984 35.8262 233.391 35.2441C232.797 34.6621 232.5 33.8379 232.5 32.7715C232.5 31.6738 232.773 30.8262 233.32 30.2285C233.871 29.627 234.631 29.3262 235.6 29.3262C236.525 29.3262 237.246 29.5898 237.762 30.1172C238.277 30.6445 238.535 31.373 238.535 32.3027V33.1699H234.311C234.33 33.6777 234.48 34.0742 234.762 34.3594C235.043 34.6445 235.438 34.7871 235.945 34.7871C236.34 34.7871 236.713 34.7461 237.064 34.6641C237.416 34.582 237.783 34.4512 238.166 34.2715V35.6543C237.854 35.8105 237.52 35.9258 237.164 36C236.809 36.0781 236.375 36.1172 235.863 36.1172ZM239.736 35.1621C239.736 34.834 239.824 34.5859 240 34.418C240.176 34.25 240.432 34.166 240.768 34.166C241.092 34.166 241.342 34.252 241.518 34.4238C241.697 34.5957 241.787 34.8418 241.787 35.1621C241.787 35.4707 241.697 35.7148 241.518 35.8945C241.338 36.0703 241.088 36.1582 240.768 36.1582C240.439 36.1582 240.186 36.0723 240.006 35.9004C239.826 35.7246 239.736 35.4785 239.736 35.1621ZM239.736 30.3223C239.736 29.9941 239.824 29.7461 240 29.5781C240.176 29.4102 240.432 29.3262 240.768 29.3262C241.092 29.3262 241.342 29.4121 241.518 29.584C241.697 29.7559 241.787 30.002 241.787 30.3223C241.787 30.6387 241.695 30.8848 241.512 31.0605C241.332 31.2324 241.084 31.3184 240.768 31.3184C240.439 31.3184 240.186 31.2324 240.006 31.0605C239.826 30.8887 239.736 30.6426 239.736 30.3223ZM248.736 30.8496C249.65 30.8496 250.369 31.0703 250.893 31.5117C251.42 31.9531 251.684 32.5605 251.684 33.334C251.684 34.2129 251.41 34.8965 250.863 35.3848C250.316 35.873 249.562 36.1172 248.602 36.1172C248.176 36.1172 247.771 36.0762 247.389 35.9941C247.006 35.9082 246.686 35.7871 246.428 35.6309V35.0273C246.85 35.2422 247.225 35.3926 247.553 35.4785C247.881 35.5605 248.23 35.6016 248.602 35.6016C249.352 35.6016 249.953 35.4043 250.406 35.0098C250.859 34.6113 251.086 34.0742 251.086 33.3984C251.086 32.7617 250.865 32.2617 250.424 31.8984C249.982 31.5352 249.383 31.3535 248.625 31.3535C248.117 31.3535 247.586 31.4297 247.031 31.582L246.68 31.3535L247.02 27.4336H251.145V27.9961H247.57L247.307 31.0195C247.916 30.9062 248.393 30.8496 248.736 30.8496ZM257.426 36L254.232 28.0898H254.186C254.217 28.5742 254.232 29.0703 254.232 29.5781V36H253.658V27.4336H254.584L257.619 34.9688H257.654L260.689 27.4336H261.592V36H260.988V29.5078C260.988 29.0547 261.012 28.5859 261.059 28.1016H261.012L257.807 36H257.426ZM269.578 33V32.5195H272.361V33H269.578ZM280.02 36H279.445V29.7598C279.445 29.1934 279.469 28.6055 279.516 27.9961C279.457 28.0547 279.396 28.1113 279.334 28.166C279.271 28.2207 278.668 28.6953 277.523 29.5898L277.189 29.1738L279.516 27.4336H280.02V36ZM286.025 30.8496C286.939 30.8496 287.658 31.0703 288.182 31.5117C288.709 31.9531 288.973 32.5605 288.973 33.334C288.973 34.2129 288.699 34.8965 288.152 35.3848C287.605 35.873 286.852 36.1172 285.891 36.1172C285.465 36.1172 285.061 36.0762 284.678 35.9941C284.295 35.9082 283.975 35.7871 283.717 35.6309V35.0273C284.139 35.2422 284.514 35.3926 284.842 35.4785C285.17 35.5605 285.52 35.6016 285.891 35.6016C286.641 35.6016 287.242 35.4043 287.695 35.0098C288.148 34.6113 288.375 34.0742 288.375 33.3984C288.375 32.7617 288.154 32.2617 287.713 31.8984C287.271 31.5352 286.672 31.3535 285.914 31.3535C285.406 31.3535 284.875 31.4297 284.32 31.582L283.969 31.3535L284.309 27.4336H288.434V27.9961H284.859L284.596 31.0195C285.205 30.9062 285.682 30.8496 286.025 30.8496ZM290.684 35.543C290.684 35.1602 290.84 34.9688 291.152 34.9688C291.473 34.9688 291.633 35.1602 291.633 35.543C291.633 35.9258 291.473 36.1172 291.152 36.1172C290.84 36.1172 290.684 35.9258 290.684 35.543ZM296.59 36H296.016V29.7598C296.016 29.1934 296.039 28.6055 296.086 27.9961C296.027 28.0547 295.967 28.1113 295.904 28.166C295.842 28.2207 295.238 28.6953 294.094 29.5898L293.76 29.1738L296.086 27.4336H296.59V36ZM300.686 29.9883C300.686 30.7148 300.773 31.2617 300.949 31.6289C301.125 31.9922 301.4 32.1738 301.775 32.1738C302.529 32.1738 302.906 31.4453 302.906 29.9883C302.906 29.2695 302.809 28.7305 302.613 28.3711C302.422 28.0078 302.143 27.8262 301.775 27.8262C301.4 27.8262 301.125 28.0078 300.949 28.3711C300.773 28.7305 300.686 29.2695 300.686 29.9883ZM303.48 29.9883C303.48 30.8711 303.334 31.543 303.041 32.0039C302.748 32.4609 302.326 32.6895 301.775 32.6895C301.256 32.6895 300.848 32.4551 300.551 31.9863C300.258 31.5137 300.111 30.8477 300.111 29.9883C300.111 29.1172 300.252 28.4531 300.533 27.9961C300.814 27.5391 301.229 27.3105 301.775 27.3105C302.318 27.3105 302.738 27.5469 303.035 28.0195C303.332 28.4883 303.48 29.1445 303.48 29.9883ZM305.678 33.4336C305.678 34.1562 305.766 34.6992 305.941 35.0625C306.117 35.4219 306.393 35.6016 306.768 35.6016C307.521 35.6016 307.898 34.8789 307.898 33.4336C307.898 31.9922 307.521 31.2715 306.768 31.2715C306.393 31.2715 306.117 31.4512 305.941 31.8105C305.766 32.166 305.678 32.707 305.678 33.4336ZM308.473 33.4336C308.473 34.3164 308.328 34.9883 308.039 35.4492C307.75 35.9062 307.33 36.1348 306.779 36.1348C306.248 36.1348 305.836 35.8984 305.543 35.4258C305.25 34.9492 305.104 34.2852 305.104 33.4336C305.104 32.5547 305.246 31.8887 305.531 31.4355C305.82 30.9824 306.236 30.7559 306.779 30.7559C307.314 30.7559 307.73 30.9902 308.027 31.459C308.324 31.9277 308.473 32.5859 308.473 33.4336ZM306.949 27.4336L302.197 36H301.635L306.387 27.4336H306.949Z" fill="white"/>
<path d="M197.895 52.4648H198.492C199.051 52.4648 199.469 52.3555 199.746 52.1367C200.023 51.9141 200.162 51.5918 200.162 51.1699C200.162 50.7441 200.045 50.4297 199.811 50.2266C199.58 50.0234 199.217 49.9219 198.721 49.9219H197.895V52.4648ZM201.996 51.1055C201.996 52.0273 201.707 52.7324 201.129 53.2207C200.555 53.709 199.736 53.9531 198.674 53.9531H197.895V57H196.078V48.4336H198.814C199.854 48.4336 200.643 48.6582 201.182 49.1074C201.725 49.5527 201.996 50.2188 201.996 51.1055ZM208.113 57L207.873 56.1621H207.779C207.588 56.4668 207.316 56.7031 206.965 56.8711C206.613 57.0352 206.213 57.1172 205.764 57.1172C204.994 57.1172 204.414 56.9121 204.023 56.502C203.633 56.0879 203.438 55.4941 203.438 54.7207V50.4492H205.225V54.2754C205.225 54.748 205.309 55.1035 205.477 55.3418C205.645 55.5762 205.912 55.6934 206.279 55.6934C206.779 55.6934 207.141 55.5273 207.363 55.1953C207.586 54.8594 207.697 54.3047 207.697 53.5312V50.4492H209.484V57H208.113ZM215.004 50.3262C215.777 50.3262 216.383 50.6289 216.82 51.2344C217.258 51.8359 217.477 52.6621 217.477 53.7129C217.477 54.7949 217.25 55.6328 216.797 56.2266C216.348 56.8203 215.734 57.1172 214.957 57.1172C214.188 57.1172 213.584 56.8379 213.146 56.2793H213.023L212.725 57H211.359V47.8828H213.146V50.0039C213.146 50.2734 213.123 50.7051 213.076 51.2988H213.146C213.564 50.6504 214.184 50.3262 215.004 50.3262ZM214.43 51.7559C213.988 51.7559 213.666 51.8926 213.463 52.166C213.26 52.4355 213.154 52.8828 213.146 53.5078V53.7012C213.146 54.4043 213.25 54.9082 213.457 55.2129C213.668 55.5176 214 55.6699 214.453 55.6699C214.82 55.6699 215.111 55.502 215.326 55.166C215.545 54.8262 215.654 54.334 215.654 53.6895C215.654 53.0449 215.545 52.5625 215.326 52.2422C215.107 51.918 214.809 51.7559 214.43 51.7559ZM220.74 57H218.953V47.8828H220.74V57ZM222.545 48.7559C222.545 48.1738 222.869 47.8828 223.518 47.8828C224.166 47.8828 224.49 48.1738 224.49 48.7559C224.49 49.0332 224.408 49.25 224.244 49.4062C224.084 49.5586 223.842 49.6348 223.518 49.6348C222.869 49.6348 222.545 49.3418 222.545 48.7559ZM224.408 57H222.621V50.4492H224.408V57ZM228.949 57.1172C226.91 57.1172 225.891 55.998 225.891 53.7598C225.891 52.6465 226.168 51.7969 226.723 51.2109C227.277 50.6211 228.072 50.3262 229.107 50.3262C229.865 50.3262 230.545 50.4746 231.146 50.7715L230.619 52.1543C230.338 52.041 230.076 51.9492 229.834 51.8789C229.592 51.8047 229.35 51.7676 229.107 51.7676C228.178 51.7676 227.713 52.4277 227.713 53.748C227.713 55.0293 228.178 55.6699 229.107 55.6699C229.451 55.6699 229.77 55.625 230.062 55.5352C230.355 55.4414 230.648 55.2969 230.941 55.1016V56.6309C230.652 56.8145 230.359 56.9414 230.062 57.0117C229.77 57.082 229.398 57.1172 228.949 57.1172ZM232.213 56.1621C232.213 55.834 232.301 55.5859 232.477 55.418C232.652 55.25 232.908 55.166 233.244 55.166C233.568 55.166 233.818 55.252 233.994 55.4238C234.174 55.5957 234.264 55.8418 234.264 56.1621C234.264 56.4707 234.174 56.7148 233.994 56.8945C233.814 57.0703 233.564 57.1582 233.244 57.1582C232.916 57.1582 232.662 57.0723 232.482 56.9004C232.303 56.7246 232.213 56.4785 232.213 56.1621ZM232.213 51.3223C232.213 50.9941 232.301 50.7461 232.477 50.5781C232.652 50.4102 232.908 50.3262 233.244 50.3262C233.568 50.3262 233.818 50.4121 233.994 50.584C234.174 50.7559 234.264 51.002 234.264 51.3223C234.264 51.6387 234.172 51.8848 233.988 52.0605C233.809 52.2324 233.561 52.3184 233.244 52.3184C232.916 52.3184 232.662 52.2324 232.482 52.0605C232.303 51.8887 232.213 51.6426 232.213 51.3223ZM244.09 57H238.729V56.4844L241.008 54.1055C241.648 53.4414 242.098 52.9336 242.355 52.582C242.613 52.2305 242.803 51.8945 242.924 51.5742C243.045 51.2539 243.105 50.918 243.105 50.5664C243.105 50.0547 242.938 49.6387 242.602 49.3184C242.266 48.998 241.83 48.8379 241.295 48.8379C240.58 48.8379 239.896 49.0977 239.244 49.6172L238.928 49.2129C239.643 48.6113 240.436 48.3105 241.307 48.3105C242.053 48.3105 242.639 48.5098 243.064 48.9082C243.494 49.3066 243.709 49.8555 243.709 50.5547C243.709 51.1211 243.564 51.6699 243.275 52.2012C242.99 52.7285 242.467 53.3809 241.705 54.1582L239.508 56.4141V56.4375H244.09V57ZM248.068 51.8496C248.982 51.8496 249.701 52.0703 250.225 52.5117C250.752 52.9531 251.016 53.5605 251.016 54.334C251.016 55.2129 250.742 55.8965 250.195 56.3848C249.648 56.873 248.895 57.1172 247.934 57.1172C247.508 57.1172 247.104 57.0762 246.721 56.9941C246.338 56.9082 246.018 56.7871 245.76 56.6309V56.0273C246.182 56.2422 246.557 56.3926 246.885 56.4785C247.213 56.5605 247.562 56.6016 247.934 56.6016C248.684 56.6016 249.285 56.4043 249.738 56.0098C250.191 55.6113 250.418 55.0742 250.418 54.3984C250.418 53.7617 250.197 53.2617 249.756 52.8984C249.314 52.5352 248.715 52.3535 247.957 52.3535C247.449 52.3535 246.918 52.4297 246.363 52.582L246.012 52.3535L246.352 48.4336H250.477V48.9961H246.902L246.639 52.0195C247.248 51.9062 247.725 51.8496 248.068 51.8496ZM256.758 57L253.564 49.0898H253.518C253.549 49.5742 253.564 50.0703 253.564 50.5781V57H252.99V48.4336H253.916L256.951 55.9688H256.986L260.021 48.4336H260.924V57H260.32V50.5078C260.32 50.0547 260.344 49.5859 260.391 49.1016H260.344L257.139 57H256.758ZM268.91 54V53.5195H271.693V54H268.91ZM277.312 57L280.84 48.9961H275.994V48.4336H281.537V48.8613L277.998 57H277.312ZM285.357 51.8496C286.271 51.8496 286.99 52.0703 287.514 52.5117C288.041 52.9531 288.305 53.5605 288.305 54.334C288.305 55.2129 288.031 55.8965 287.484 56.3848C286.938 56.873 286.184 57.1172 285.223 57.1172C284.797 57.1172 284.393 57.0762 284.01 56.9941C283.627 56.9082 283.307 56.7871 283.049 56.6309V56.0273C283.471 56.2422 283.846 56.3926 284.174 56.4785C284.502 56.5605 284.852 56.6016 285.223 56.6016C285.973 56.6016 286.574 56.4043 287.027 56.0098C287.48 55.6113 287.707 55.0742 287.707 54.3984C287.707 53.7617 287.486 53.2617 287.045 52.8984C286.604 52.5352 286.004 52.3535 285.246 52.3535C284.738 52.3535 284.207 52.4297 283.652 52.582L283.301 52.3535L283.641 48.4336H287.766V48.9961H284.191L283.928 52.0195C284.537 51.9062 285.014 51.8496 285.357 51.8496ZM290.016 56.543C290.016 56.1602 290.172 55.9688 290.484 55.9688C290.805 55.9688 290.965 56.1602 290.965 56.543C290.965 56.9258 290.805 57.1172 290.484 57.1172C290.172 57.1172 290.016 56.9258 290.016 56.543ZM295.072 51.8496C295.986 51.8496 296.705 52.0703 297.229 52.5117C297.756 52.9531 298.02 53.5605 298.02 54.334C298.02 55.2129 297.746 55.8965 297.199 56.3848C296.652 56.873 295.898 57.1172 294.938 57.1172C294.512 57.1172 294.107 57.0762 293.725 56.9941C293.342 56.9082 293.021 56.7871 292.764 56.6309V56.0273C293.186 56.2422 293.561 56.3926 293.889 56.4785C294.217 56.5605 294.566 56.6016 294.938 56.6016C295.688 56.6016 296.289 56.4043 296.742 56.0098C297.195 55.6113 297.422 55.0742 297.422 54.3984C297.422 53.7617 297.201 53.2617 296.76 52.8984C296.318 52.5352 295.719 52.3535 294.961 52.3535C294.453 52.3535 293.922 52.4297 293.367 52.582L293.016 52.3535L293.355 48.4336H297.48V48.9961H293.906L293.643 52.0195C294.252 51.9062 294.729 51.8496 295.072 51.8496ZM300.018 50.9883C300.018 51.7148 300.105 52.2617 300.281 52.6289C300.457 52.9922 300.732 53.1738 301.107 53.1738C301.861 53.1738 302.238 52.4453 302.238 50.9883C302.238 50.2695 302.141 49.7305 301.945 49.3711C301.754 49.0078 301.475 48.8262 301.107 48.8262C300.732 48.8262 300.457 49.0078 300.281 49.3711C300.105 49.7305 300.018 50.2695 300.018 50.9883ZM302.812 50.9883C302.812 51.8711 302.666 52.543 302.373 53.0039C302.08 53.4609 301.658 53.6895 301.107 53.6895C300.588 53.6895 300.18 53.4551 299.883 52.9863C299.59 52.5137 299.443 51.8477 299.443 50.9883C299.443 50.1172 299.584 49.4531 299.865 48.9961C300.146 48.5391 300.561 48.3105 301.107 48.3105C301.65 48.3105 302.07 48.5469 302.367 49.0195C302.664 49.4883 302.812 50.1445 302.812 50.9883ZM305.01 54.4336C305.01 55.1562 305.098 55.6992 305.273 56.0625C305.449 56.4219 305.725 56.6016 306.1 56.6016C306.854 56.6016 307.23 55.8789 307.23 54.4336C307.23 52.9922 306.854 52.2715 306.1 52.2715C305.725 52.2715 305.449 52.4512 305.273 52.8105C305.098 53.166 305.01 53.707 305.01 54.4336ZM307.805 54.4336C307.805 55.3164 307.66 55.9883 307.371 56.4492C307.082 56.9062 306.662 57.1348 306.111 57.1348C305.58 57.1348 305.168 56.8984 304.875 56.4258C304.582 55.9492 304.436 55.2852 304.436 54.4336C304.436 53.5547 304.578 52.8887 304.863 52.4355C305.152 51.9824 305.568 51.7559 306.111 51.7559C306.646 51.7559 307.062 51.9902 307.359 52.459C307.656 52.9277 307.805 53.5859 307.805 54.4336ZM306.281 48.4336L301.529 57H300.967L305.719 48.4336H306.281Z" fill="white"/>
<path d="M197.865 78H196.078V69.4336H200.988V70.9219H197.865V73.1309H200.771V74.6133H197.865V78ZM203.947 74.7129C203.947 75.3613 204.053 75.8516 204.264 76.1836C204.479 76.5156 204.826 76.6816 205.307 76.6816C205.783 76.6816 206.125 76.5176 206.332 76.1895C206.543 75.8574 206.648 75.3652 206.648 74.7129C206.648 74.0645 206.543 73.5781 206.332 73.2539C206.121 72.9297 205.775 72.7676 205.295 72.7676C204.818 72.7676 204.475 72.9297 204.264 73.2539C204.053 73.5742 203.947 74.0605 203.947 74.7129ZM208.477 74.7129C208.477 75.7793 208.195 76.6133 207.633 77.2148C207.07 77.8164 206.287 78.1172 205.283 78.1172C204.654 78.1172 204.1 77.9805 203.619 77.707C203.139 77.4297 202.77 77.0332 202.512 76.5176C202.254 76.002 202.125 75.4004 202.125 74.7129C202.125 73.6426 202.404 72.8105 202.963 72.2168C203.521 71.623 204.307 71.3262 205.318 71.3262C205.947 71.3262 206.502 71.4629 206.982 71.7363C207.463 72.0098 207.832 72.4023 208.09 72.9141C208.348 73.4258 208.477 74.0254 208.477 74.7129ZM214.594 78L214.354 77.1621H214.26C214.068 77.4668 213.797 77.7031 213.445 77.8711C213.094 78.0352 212.693 78.1172 212.244 78.1172C211.475 78.1172 210.895 77.9121 210.504 77.502C210.113 77.0879 209.918 76.4941 209.918 75.7207V71.4492H211.705V75.2754C211.705 75.748 211.789 76.1035 211.957 76.3418C212.125 76.5762 212.393 76.6934 212.76 76.6934C213.26 76.6934 213.621 76.5273 213.844 76.1953C214.066 75.8594 214.178 75.3047 214.178 74.5312V71.4492H215.965V78H214.594ZM223.887 78H222.1V74.1738C222.1 73.7012 222.016 73.3477 221.848 73.1133C221.68 72.875 221.412 72.7559 221.045 72.7559C220.545 72.7559 220.184 72.9238 219.961 73.2598C219.738 73.5918 219.627 74.1445 219.627 74.918V78H217.84V71.4492H219.205L219.445 72.2871H219.545C219.744 71.9707 220.018 71.7324 220.365 71.5723C220.717 71.4082 221.115 71.3262 221.561 71.3262C222.322 71.3262 222.9 71.5332 223.295 71.9473C223.689 72.3574 223.887 72.9512 223.887 73.7285V78ZM227.801 78.1172C227.031 78.1172 226.426 77.8184 225.984 77.2207C225.547 76.623 225.328 75.7949 225.328 74.7363C225.328 73.6621 225.551 72.8262 225.996 72.2285C226.445 71.627 227.062 71.3262 227.848 71.3262C228.672 71.3262 229.301 71.6465 229.734 72.2871H229.793C229.703 71.7988 229.658 71.3633 229.658 70.9805V68.8828H231.451V78H230.08L229.734 77.1504H229.658C229.252 77.7949 228.633 78.1172 227.801 78.1172ZM228.428 76.6934C228.885 76.6934 229.219 76.5605 229.43 76.2949C229.645 76.0293 229.762 75.5781 229.781 74.9414V74.748C229.781 74.0449 229.672 73.541 229.453 73.2363C229.238 72.9316 228.887 72.7793 228.398 72.7793C228 72.7793 227.689 72.9492 227.467 73.2891C227.248 73.625 227.139 74.1152 227.139 74.7598C227.139 75.4043 227.25 75.8887 227.473 76.2129C227.695 76.5332 228.014 76.6934 228.428 76.6934ZM241.512 78H236.578V69.4336H241.512V70.9219H238.395V72.8027H241.295V74.291H238.395V76.5H241.512V78ZM245.824 78.1172C243.785 78.1172 242.766 76.998 242.766 74.7598C242.766 73.6465 243.043 72.7969 243.598 72.2109C244.152 71.6211 244.947 71.3262 245.982 71.3262C246.74 71.3262 247.42 71.4746 248.021 71.7715L247.494 73.1543C247.213 73.041 246.951 72.9492 246.709 72.8789C246.467 72.8047 246.225 72.7676 245.982 72.7676C245.053 72.7676 244.588 73.4277 244.588 74.748C244.588 76.0293 245.053 76.6699 245.982 76.6699C246.326 76.6699 246.645 76.625 246.938 76.5352C247.23 76.4414 247.523 76.2969 247.816 76.1016V77.6309C247.527 77.8145 247.234 77.9414 246.938 78.0117C246.645 78.082 246.273 78.1172 245.824 78.1172ZM250.764 74.7129C250.764 75.3613 250.869 75.8516 251.08 76.1836C251.295 76.5156 251.643 76.6816 252.123 76.6816C252.6 76.6816 252.941 76.5176 253.148 76.1895C253.359 75.8574 253.465 75.3652 253.465 74.7129C253.465 74.0645 253.359 73.5781 253.148 73.2539C252.938 72.9297 252.592 72.7676 252.111 72.7676C251.635 72.7676 251.291 72.9297 251.08 73.2539C250.869 73.5742 250.764 74.0605 250.764 74.7129ZM255.293 74.7129C255.293 75.7793 255.012 76.6133 254.449 77.2148C253.887 77.8164 253.104 78.1172 252.1 78.1172C251.471 78.1172 250.916 77.9805 250.436 77.707C249.955 77.4297 249.586 77.0332 249.328 76.5176C249.07 76.002 248.941 75.4004 248.941 74.7129C248.941 73.6426 249.221 72.8105 249.779 72.2168C250.338 71.623 251.123 71.3262 252.135 71.3262C252.764 71.3262 253.318 71.4629 253.799 71.7363C254.279 72.0098 254.648 72.4023 254.906 72.9141C255.164 73.4258 255.293 74.0254 255.293 74.7129ZM261.34 76.0547C261.34 76.7266 261.105 77.2383 260.637 77.5898C260.172 77.9414 259.475 78.1172 258.545 78.1172C258.068 78.1172 257.662 78.084 257.326 78.0176C256.99 77.9551 256.676 77.8613 256.383 77.7363V76.2598C256.715 76.416 257.088 76.5469 257.502 76.6523C257.92 76.7578 258.287 76.8105 258.604 76.8105C259.252 76.8105 259.576 76.623 259.576 76.248C259.576 76.1074 259.533 75.9941 259.447 75.9082C259.361 75.8184 259.213 75.7188 259.002 75.6094C258.791 75.4961 258.51 75.3652 258.158 75.2168C257.654 75.0059 257.283 74.8105 257.045 74.6309C256.811 74.4512 256.639 74.2461 256.529 74.0156C256.424 73.7812 256.371 73.4941 256.371 73.1543C256.371 72.5723 256.596 72.123 257.045 71.8066C257.498 71.4863 258.139 71.3262 258.967 71.3262C259.756 71.3262 260.523 71.498 261.27 71.8418L260.73 73.1309C260.402 72.9902 260.096 72.875 259.811 72.7852C259.525 72.6953 259.234 72.6504 258.938 72.6504C258.41 72.6504 258.146 72.793 258.146 73.0781C258.146 73.2383 258.23 73.377 258.398 73.4941C258.57 73.6113 258.943 73.7852 259.518 74.0156C260.029 74.2227 260.404 74.416 260.643 74.5957C260.881 74.7754 261.057 74.9824 261.17 75.2168C261.283 75.4512 261.34 75.7305 261.34 76.0547ZM261.797 71.4492H263.754L264.99 75.1348C265.096 75.4551 265.168 75.834 265.207 76.2715H265.242C265.285 75.8691 265.369 75.4902 265.494 75.1348L266.707 71.4492H268.623L265.852 78.8379C265.598 79.5215 265.234 80.0332 264.762 80.373C264.293 80.7129 263.744 80.8828 263.115 80.8828C262.807 80.8828 262.504 80.8496 262.207 80.7832V79.3652C262.422 79.416 262.656 79.4414 262.91 79.4414C263.227 79.4414 263.502 79.3438 263.736 79.1484C263.975 78.957 264.16 78.666 264.293 78.2754L264.398 77.9531L261.797 71.4492ZM274.137 76.0547C274.137 76.7266 273.902 77.2383 273.434 77.5898C272.969 77.9414 272.271 78.1172 271.342 78.1172C270.865 78.1172 270.459 78.084 270.123 78.0176C269.787 77.9551 269.473 77.8613 269.18 77.7363V76.2598C269.512 76.416 269.885 76.5469 270.299 76.6523C270.717 76.7578 271.084 76.8105 271.4 76.8105C272.049 76.8105 272.373 76.623 272.373 76.248C272.373 76.1074 272.33 75.9941 272.244 75.9082C272.158 75.8184 272.01 75.7188 271.799 75.6094C271.588 75.4961 271.307 75.3652 270.955 75.2168C270.451 75.0059 270.08 74.8105 269.842 74.6309C269.607 74.4512 269.436 74.2461 269.326 74.0156C269.221 73.7812 269.168 73.4941 269.168 73.1543C269.168 72.5723 269.393 72.123 269.842 71.8066C270.295 71.4863 270.936 71.3262 271.764 71.3262C272.553 71.3262 273.32 71.498 274.066 71.8418L273.527 73.1309C273.199 72.9902 272.893 72.875 272.607 72.7852C272.322 72.6953 272.031 72.6504 271.734 72.6504C271.207 72.6504 270.943 72.793 270.943 73.0781C270.943 73.2383 271.027 73.377 271.195 73.4941C271.367 73.6113 271.74 73.7852 272.314 74.0156C272.826 74.2227 273.201 74.416 273.439 74.5957C273.678 74.7754 273.854 74.9824 273.967 75.2168C274.08 75.4512 274.137 75.7305 274.137 76.0547ZM278.291 76.6934C278.604 76.6934 278.979 76.625 279.416 76.4883V77.8184C278.971 78.0176 278.424 78.1172 277.775 78.1172C277.061 78.1172 276.539 77.9375 276.211 77.5781C275.887 77.2148 275.725 76.6719 275.725 75.9492V72.791H274.869V72.0352L275.854 71.4375L276.369 70.0547H277.512V71.4492H279.346V72.791H277.512V75.9492C277.512 76.2031 277.582 76.3906 277.723 76.5117C277.867 76.6328 278.057 76.6934 278.291 76.6934ZM283.459 72.5977C283.08 72.5977 282.783 72.7188 282.568 72.9609C282.354 73.1992 282.23 73.5391 282.199 73.9805H284.707C284.699 73.5391 284.584 73.1992 284.361 72.9609C284.139 72.7188 283.838 72.5977 283.459 72.5977ZM283.711 78.1172C282.656 78.1172 281.832 77.8262 281.238 77.2441C280.645 76.6621 280.348 75.8379 280.348 74.7715C280.348 73.6738 280.621 72.8262 281.168 72.2285C281.719 71.627 282.479 71.3262 283.447 71.3262C284.373 71.3262 285.094 71.5898 285.609 72.1172C286.125 72.6445 286.383 73.373 286.383 74.3027V75.1699H282.158C282.178 75.6777 282.328 76.0742 282.609 76.3594C282.891 76.6445 283.285 76.7871 283.793 76.7871C284.188 76.7871 284.561 76.7461 284.912 76.6641C285.264 76.582 285.631 76.4512 286.014 76.2715V77.6543C285.701 77.8105 285.367 77.9258 285.012 78C284.656 78.0781 284.223 78.1172 283.711 78.1172ZM293.701 78H291.914V74.1738C291.914 73.7012 291.834 73.3477 291.674 73.1133C291.518 72.875 291.27 72.7559 290.93 72.7559C290.473 72.7559 290.141 72.9238 289.934 73.2598C289.727 73.5957 289.623 74.1484 289.623 74.918V78H287.836V71.4492H289.201L289.441 72.2871H289.541C289.717 71.9863 289.971 71.752 290.303 71.584C290.635 71.4121 291.016 71.3262 291.445 71.3262C292.426 71.3262 293.09 71.6465 293.438 72.2871H293.596C293.771 71.9824 294.029 71.7461 294.369 71.5781C294.713 71.4102 295.1 71.3262 295.529 71.3262C296.271 71.3262 296.832 71.5176 297.211 71.9004C297.594 72.2793 297.785 72.8887 297.785 73.7285V78H295.992V74.1738C295.992 73.7012 295.912 73.3477 295.752 73.1133C295.596 72.875 295.348 72.7559 295.008 72.7559C294.57 72.7559 294.242 72.9121 294.023 73.2246C293.809 73.5371 293.701 74.0332 293.701 74.7129V78ZM299.373 77.1621C299.373 76.834 299.461 76.5859 299.637 76.418C299.812 76.25 300.068 76.166 300.404 76.166C300.729 76.166 300.979 76.252 301.154 76.4238C301.334 76.5957 301.424 76.8418 301.424 77.1621C301.424 77.4707 301.334 77.7148 301.154 77.8945C300.975 78.0703 300.725 78.1582 300.404 78.1582C300.076 78.1582 299.822 78.0723 299.643 77.9004C299.463 77.7246 299.373 77.4785 299.373 77.1621ZM299.373 72.3223C299.373 71.9941 299.461 71.7461 299.637 71.5781C299.812 71.4102 300.068 71.3262 300.404 71.3262C300.729 71.3262 300.979 71.4121 301.154 71.584C301.334 71.7559 301.424 72.002 301.424 72.3223C301.424 72.6387 301.332 72.8848 301.148 73.0605C300.969 73.2324 300.721 73.3184 300.404 73.3184C300.076 73.3184 299.822 73.2324 299.643 73.0605C299.463 72.8887 299.373 72.6426 299.373 72.3223ZM311.25 78H305.889V77.4844L308.168 75.1055C308.809 74.4414 309.258 73.9336 309.516 73.582C309.773 73.2305 309.963 72.8945 310.084 72.5742C310.205 72.2539 310.266 71.918 310.266 71.5664C310.266 71.0547 310.098 70.6387 309.762 70.3184C309.426 69.998 308.99 69.8379 308.455 69.8379C307.74 69.8379 307.057 70.0977 306.404 70.6172L306.088 70.2129C306.803 69.6113 307.596 69.3105 308.467 69.3105C309.213 69.3105 309.799 69.5098 310.225 69.9082C310.654 70.3066 310.869 70.8555 310.869 71.5547C310.869 72.1211 310.725 72.6699 310.436 73.2012C310.15 73.7285 309.627 74.3809 308.865 75.1582L306.668 77.4141V77.4375H311.25V78ZM313.031 77.543C313.031 77.1602 313.188 76.9688 313.5 76.9688C313.82 76.9688 313.98 77.1602 313.98 77.543C313.98 77.9258 313.82 78.1172 313.5 78.1172C313.188 78.1172 313.031 77.9258 313.031 77.543ZM318.088 72.8496C319.002 72.8496 319.721 73.0703 320.244 73.5117C320.771 73.9531 321.035 74.5605 321.035 75.334C321.035 76.2129 320.762 76.8965 320.215 77.3848C319.668 77.873 318.914 78.1172 317.953 78.1172C317.527 78.1172 317.123 78.0762 316.74 77.9941C316.357 77.9082 316.037 77.7871 315.779 77.6309V77.0273C316.201 77.2422 316.576 77.3926 316.904 77.4785C317.232 77.5605 317.582 77.6016 317.953 77.6016C318.703 77.6016 319.305 77.4043 319.758 77.0098C320.211 76.6113 320.438 76.0742 320.438 75.3984C320.438 74.7617 320.217 74.2617 319.775 73.8984C319.334 73.5352 318.734 73.3535 317.977 73.3535C317.469 73.3535 316.938 73.4297 316.383 73.582L316.031 73.3535L316.371 69.4336H320.496V69.9961H316.922L316.658 73.0195C317.268 72.9062 317.744 72.8496 318.088 72.8496ZM326.777 78L323.584 70.0898H323.537C323.568 70.5742 323.584 71.0703 323.584 71.5781V78H323.01V69.4336H323.936L326.971 76.9688H327.006L330.041 69.4336H330.943V78H330.34V71.5078C330.34 71.0547 330.363 70.5859 330.41 70.1016H330.363L327.158 78H326.777ZM338.93 75V74.5195H341.713V75H338.93ZM347.332 78L350.859 69.9961H346.014V69.4336H351.557V69.8613L348.018 78H347.332ZM353.18 77.543C353.18 77.1602 353.336 76.9688 353.648 76.9688C353.969 76.9688 354.129 77.1602 354.129 77.543C354.129 77.9258 353.969 78.1172 353.648 78.1172C353.336 78.1172 353.18 77.9258 353.18 77.543ZM358.236 72.8496C359.15 72.8496 359.869 73.0703 360.393 73.5117C360.92 73.9531 361.184 74.5605 361.184 75.334C361.184 76.2129 360.91 76.8965 360.363 77.3848C359.816 77.873 359.062 78.1172 358.102 78.1172C357.676 78.1172 357.271 78.0762 356.889 77.9941C356.506 77.9082 356.186 77.7871 355.928 77.6309V77.0273C356.35 77.2422 356.725 77.3926 357.053 77.4785C357.381 77.5605 357.73 77.6016 358.102 77.6016C358.852 77.6016 359.453 77.4043 359.906 77.0098C360.359 76.6113 360.586 76.0742 360.586 75.3984C360.586 74.7617 360.365 74.2617 359.924 73.8984C359.482 73.5352 358.883 73.3535 358.125 73.3535C357.617 73.3535 357.086 73.4297 356.531 73.582L356.18 73.3535L356.52 69.4336H360.645V69.9961H357.07L356.807 73.0195C357.416 72.9062 357.893 72.8496 358.236 72.8496ZM363.182 71.9883C363.182 72.7148 363.27 73.2617 363.445 73.6289C363.621 73.9922 363.896 74.1738 364.271 74.1738C365.025 74.1738 365.402 73.4453 365.402 71.9883C365.402 71.2695 365.305 70.7305 365.109 70.3711C364.918 70.0078 364.639 69.8262 364.271 69.8262C363.896 69.8262 363.621 70.0078 363.445 70.3711C363.27 70.7305 363.182 71.2695 363.182 71.9883ZM365.977 71.9883C365.977 72.8711 365.83 73.543 365.537 74.0039C365.244 74.4609 364.822 74.6895 364.271 74.6895C363.752 74.6895 363.344 74.4551 363.047 73.9863C362.754 73.5137 362.607 72.8477 362.607 71.9883C362.607 71.1172 362.748 70.4531 363.029 69.9961C363.311 69.5391 363.725 69.3105 364.271 69.3105C364.814 69.3105 365.234 69.5469 365.531 70.0195C365.828 70.4883 365.977 71.1445 365.977 71.9883ZM368.174 75.4336C368.174 76.1562 368.262 76.6992 368.438 77.0625C368.613 77.4219 368.889 77.6016 369.264 77.6016C370.018 77.6016 370.395 76.8789 370.395 75.4336C370.395 73.9922 370.018 73.2715 369.264 73.2715C368.889 73.2715 368.613 73.4512 368.438 73.8105C368.262 74.166 368.174 74.707 368.174 75.4336ZM370.969 75.4336C370.969 76.3164 370.824 76.9883 370.535 77.4492C370.246 77.9062 369.826 78.1348 369.275 78.1348C368.744 78.1348 368.332 77.8984 368.039 77.4258C367.746 76.9492 367.6 76.2852 367.6 75.4336C367.6 74.5547 367.742 73.8887 368.027 73.4355C368.316 72.9824 368.732 72.7559 369.275 72.7559C369.811 72.7559 370.227 72.9902 370.523 73.459C370.82 73.9277 370.969 74.5859 370.969 75.4336ZM369.445 69.4336L364.693 78H364.131L368.883 69.4336H369.445Z" fill="white"/>
<path d="M197.865 99H196.078V90.4336H200.988V91.9219H197.865V94.1309H200.771V95.6133H197.865V99ZM203.947 95.7129C203.947 96.3613 204.053 96.8516 204.264 97.1836C204.479 97.5156 204.826 97.6816 205.307 97.6816C205.783 97.6816 206.125 97.5176 206.332 97.1895C206.543 96.8574 206.648 96.3652 206.648 95.7129C206.648 95.0645 206.543 94.5781 206.332 94.2539C206.121 93.9297 205.775 93.7676 205.295 93.7676C204.818 93.7676 204.475 93.9297 204.264 94.2539C204.053 94.5742 203.947 95.0605 203.947 95.7129ZM208.477 95.7129C208.477 96.7793 208.195 97.6133 207.633 98.2148C207.07 98.8164 206.287 99.1172 205.283 99.1172C204.654 99.1172 204.1 98.9805 203.619 98.707C203.139 98.4297 202.77 98.0332 202.512 97.5176C202.254 97.002 202.125 96.4004 202.125 95.7129C202.125 94.6426 202.404 93.8105 202.963 93.2168C203.521 92.623 204.307 92.3262 205.318 92.3262C205.947 92.3262 206.502 92.4629 206.982 92.7363C207.463 93.0098 207.832 93.4023 208.09 93.9141C208.348 94.4258 208.477 95.0254 208.477 95.7129ZM214.594 99L214.354 98.1621H214.26C214.068 98.4668 213.797 98.7031 213.445 98.8711C213.094 99.0352 212.693 99.1172 212.244 99.1172C211.475 99.1172 210.895 98.9121 210.504 98.502C210.113 98.0879 209.918 97.4941 209.918 96.7207V92.4492H211.705V96.2754C211.705 96.748 211.789 97.1035 211.957 97.3418C212.125 97.5762 212.393 97.6934 212.76 97.6934C213.26 97.6934 213.621 97.5273 213.844 97.1953C214.066 96.8594 214.178 96.3047 214.178 95.5312V92.4492H215.965V99H214.594ZM223.887 99H222.1V95.1738C222.1 94.7012 222.016 94.3477 221.848 94.1133C221.68 93.875 221.412 93.7559 221.045 93.7559C220.545 93.7559 220.184 93.9238 219.961 94.2598C219.738 94.5918 219.627 95.1445 219.627 95.918V99H217.84V92.4492H219.205L219.445 93.2871H219.545C219.744 92.9707 220.018 92.7324 220.365 92.5723C220.717 92.4082 221.115 92.3262 221.561 92.3262C222.322 92.3262 222.9 92.5332 223.295 92.9473C223.689 93.3574 223.887 93.9512 223.887 94.7285V99ZM227.801 99.1172C227.031 99.1172 226.426 98.8184 225.984 98.2207C225.547 97.623 225.328 96.7949 225.328 95.7363C225.328 94.6621 225.551 93.8262 225.996 93.2285C226.445 92.627 227.062 92.3262 227.848 92.3262C228.672 92.3262 229.301 92.6465 229.734 93.2871H229.793C229.703 92.7988 229.658 92.3633 229.658 91.9805V89.8828H231.451V99H230.08L229.734 98.1504H229.658C229.252 98.7949 228.633 99.1172 227.801 99.1172ZM228.428 97.6934C228.885 97.6934 229.219 97.5605 229.43 97.2949C229.645 97.0293 229.762 96.5781 229.781 95.9414V95.748C229.781 95.0449 229.672 94.541 229.453 94.2363C229.238 93.9316 228.887 93.7793 228.398 93.7793C228 93.7793 227.689 93.9492 227.467 94.2891C227.248 94.625 227.139 95.1152 227.139 95.7598C227.139 96.4043 227.25 96.8887 227.473 97.2129C227.695 97.5332 228.014 97.6934 228.428 97.6934ZM239.883 99H238.066V91.9453H235.74V90.4336H242.209V91.9453H239.883V99ZM247.043 92.3262C247.285 92.3262 247.486 92.3438 247.646 92.3789L247.512 94.0547C247.367 94.0156 247.191 93.9961 246.984 93.9961C246.414 93.9961 245.969 94.1426 245.648 94.4355C245.332 94.7285 245.174 95.1387 245.174 95.666V99H243.387V92.4492H244.74L245.004 93.5508H245.092C245.295 93.1836 245.568 92.8887 245.912 92.666C246.26 92.4395 246.637 92.3262 247.043 92.3262ZM251.549 93.5977C251.17 93.5977 250.873 93.7188 250.658 93.9609C250.443 94.1992 250.32 94.5391 250.289 94.9805H252.797C252.789 94.5391 252.674 94.1992 252.451 93.9609C252.229 93.7188 251.928 93.5977 251.549 93.5977ZM251.801 99.1172C250.746 99.1172 249.922 98.8262 249.328 98.2441C248.734 97.6621 248.438 96.8379 248.438 95.7715C248.438 94.6738 248.711 93.8262 249.258 93.2285C249.809 92.627 250.568 92.3262 251.537 92.3262C252.463 92.3262 253.184 92.5898 253.699 93.1172C254.215 93.6445 254.473 94.373 254.473 95.3027V96.1699H250.248C250.268 96.6777 250.418 97.0742 250.699 97.3594C250.98 97.6445 251.375 97.7871 251.883 97.7871C252.277 97.7871 252.65 97.7461 253.002 97.6641C253.354 97.582 253.721 97.4512 254.104 97.2715V98.6543C253.791 98.8105 253.457 98.9258 253.102 99C252.746 99.0781 252.312 99.1172 251.801 99.1172ZM260.086 99L259.74 98.1094H259.693C259.393 98.4883 259.082 98.752 258.762 98.9004C258.445 99.0449 258.031 99.1172 257.52 99.1172C256.891 99.1172 256.395 98.9375 256.031 98.5781C255.672 98.2188 255.492 97.707 255.492 97.043C255.492 96.3477 255.734 95.8359 256.219 95.5078C256.707 95.1758 257.441 94.9922 258.422 94.957L259.559 94.9219V94.6348C259.559 93.9707 259.219 93.6387 258.539 93.6387C258.016 93.6387 257.4 93.7969 256.693 94.1133L256.102 92.9062C256.855 92.5117 257.691 92.3145 258.609 92.3145C259.488 92.3145 260.162 92.5059 260.631 92.8887C261.1 93.2715 261.334 93.8535 261.334 94.6348V99H260.086ZM259.559 95.9648L258.867 95.9883C258.348 96.0039 257.961 96.0977 257.707 96.2695C257.453 96.4414 257.326 96.7031 257.326 97.0547C257.326 97.5586 257.615 97.8105 258.193 97.8105C258.607 97.8105 258.938 97.6914 259.184 97.4531C259.434 97.2148 259.559 96.8984 259.559 96.5039V95.9648ZM267.75 97.0547C267.75 97.7266 267.516 98.2383 267.047 98.5898C266.582 98.9414 265.885 99.1172 264.955 99.1172C264.479 99.1172 264.072 99.084 263.736 99.0176C263.4 98.9551 263.086 98.8613 262.793 98.7363V97.2598C263.125 97.416 263.498 97.5469 263.912 97.6523C264.33 97.7578 264.697 97.8105 265.014 97.8105C265.662 97.8105 265.986 97.623 265.986 97.248C265.986 97.1074 265.943 96.9941 265.857 96.9082C265.771 96.8184 265.623 96.7188 265.412 96.6094C265.201 96.4961 264.92 96.3652 264.568 96.2168C264.064 96.0059 263.693 95.8105 263.455 95.6309C263.221 95.4512 263.049 95.2461 262.939 95.0156C262.834 94.7812 262.781 94.4941 262.781 94.1543C262.781 93.5723 263.006 93.123 263.455 92.8066C263.908 92.4863 264.549 92.3262 265.377 92.3262C266.166 92.3262 266.934 92.498 267.68 92.8418L267.141 94.1309C266.812 93.9902 266.506 93.875 266.221 93.7852C265.936 93.6953 265.645 93.6504 265.348 93.6504C264.82 93.6504 264.557 93.793 264.557 94.0781C264.557 94.2383 264.641 94.377 264.809 94.4941C264.98 94.6113 265.354 94.7852 265.928 95.0156C266.439 95.2227 266.814 95.416 267.053 95.5957C267.291 95.7754 267.467 95.9824 267.58 96.2168C267.693 96.4512 267.75 96.7305 267.75 97.0547ZM273.785 99L273.545 98.1621H273.451C273.26 98.4668 272.988 98.7031 272.637 98.8711C272.285 99.0352 271.885 99.1172 271.436 99.1172C270.666 99.1172 270.086 98.9121 269.695 98.502C269.305 98.0879 269.109 97.4941 269.109 96.7207V92.4492H270.896V96.2754C270.896 96.748 270.98 97.1035 271.148 97.3418C271.316 97.5762 271.584 97.6934 271.951 97.6934C272.451 97.6934 272.812 97.5273 273.035 97.1953C273.258 96.8594 273.369 96.3047 273.369 95.5312V92.4492H275.156V99H273.785ZM280.688 92.3262C280.93 92.3262 281.131 92.3438 281.291 92.3789L281.156 94.0547C281.012 94.0156 280.836 93.9961 280.629 93.9961C280.059 93.9961 279.613 94.1426 279.293 94.4355C278.977 94.7285 278.818 95.1387 278.818 95.666V99H277.031V92.4492H278.385L278.648 93.5508H278.736C278.939 93.1836 279.213 92.8887 279.557 92.666C279.904 92.4395 280.281 92.3262 280.688 92.3262ZM281.543 92.4492H283.5L284.736 96.1348C284.842 96.4551 284.914 96.834 284.953 97.2715H284.988C285.031 96.8691 285.115 96.4902 285.24 96.1348L286.453 92.4492H288.369L285.598 99.8379C285.344 100.521 284.98 101.033 284.508 101.373C284.039 101.713 283.49 101.883 282.861 101.883C282.553 101.883 282.25 101.85 281.953 101.783V100.365C282.168 100.416 282.402 100.441 282.656 100.441C282.973 100.441 283.248 100.344 283.482 100.148C283.721 99.957 283.906 99.666 284.039 99.2754L284.145 98.9531L281.543 92.4492ZM289.061 98.1621C289.061 97.834 289.148 97.5859 289.324 97.418C289.5 97.25 289.756 97.166 290.092 97.166C290.416 97.166 290.666 97.252 290.842 97.4238C291.021 97.5957 291.111 97.8418 291.111 98.1621C291.111 98.4707 291.021 98.7148 290.842 98.8945C290.662 99.0703 290.412 99.1582 290.092 99.1582C289.764 99.1582 289.51 99.0723 289.33 98.9004C289.15 98.7246 289.061 98.4785 289.061 98.1621ZM289.061 93.3223C289.061 92.9941 289.148 92.7461 289.324 92.5781C289.5 92.4102 289.756 92.3262 290.092 92.3262C290.416 92.3262 290.666 92.4121 290.842 92.584C291.021 92.7559 291.111 93.002 291.111 93.3223C291.111 93.6387 291.02 93.8848 290.836 94.0605C290.656 94.2324 290.408 94.3184 290.092 94.3184C289.764 94.3184 289.51 94.2324 289.33 94.0605C289.15 93.8887 289.061 93.6426 289.061 93.3223ZM301.096 94.6934C301.096 96.1973 300.865 97.3105 300.404 98.0332C299.947 98.7559 299.254 99.1172 298.324 99.1172C297.43 99.1172 296.75 98.7461 296.285 98.0039C295.82 97.2578 295.588 96.1543 295.588 94.6934C295.588 93.2012 295.812 92.0957 296.262 91.377C296.715 90.6582 297.402 90.2988 298.324 90.2988C299.227 90.2988 299.914 90.6719 300.387 91.418C300.859 92.1602 301.096 93.252 301.096 94.6934ZM296.221 94.6934C296.221 96.0215 296.395 97.0039 296.742 97.6406C297.09 98.2734 297.617 98.5898 298.324 98.5898C299.062 98.5898 299.6 98.2617 299.936 97.6055C300.275 96.9492 300.445 95.9785 300.445 94.6934C300.445 93.4277 300.275 92.4668 299.936 91.8105C299.6 91.1543 299.062 90.8262 298.324 90.8262C297.586 90.8262 297.051 91.1543 296.719 91.8105C296.387 92.4668 296.221 93.4277 296.221 94.6934ZM306.75 99L303.557 91.0898H303.51C303.541 91.5742 303.557 92.0703 303.557 92.5781V99H302.982V90.4336H303.908L306.943 97.9688H306.979L310.014 90.4336H310.916V99H310.312V92.5078C310.312 92.0547 310.336 91.5859 310.383 91.1016H310.336L307.131 99H306.75ZM315.785 96V95.5195H318.568V96H315.785ZM328.412 94.6934C328.412 96.1973 328.182 97.3105 327.721 98.0332C327.264 98.7559 326.57 99.1172 325.641 99.1172C324.746 99.1172 324.066 98.7461 323.602 98.0039C323.137 97.2578 322.904 96.1543 322.904 94.6934C322.904 93.2012 323.129 92.0957 323.578 91.377C324.031 90.6582 324.719 90.2988 325.641 90.2988C326.543 90.2988 327.23 90.6719 327.703 91.418C328.176 92.1602 328.412 93.252 328.412 94.6934ZM323.537 94.6934C323.537 96.0215 323.711 97.0039 324.059 97.6406C324.406 98.2734 324.934 98.5898 325.641 98.5898C326.379 98.5898 326.916 98.2617 327.252 97.6055C327.592 96.9492 327.762 95.9785 327.762 94.6934C327.762 93.4277 327.592 92.4668 327.252 91.8105C326.916 91.1543 326.379 90.8262 325.641 90.8262C324.902 90.8262 324.367 91.1543 324.035 91.8105C323.703 92.4668 323.537 93.4277 323.537 94.6934ZM330.035 98.543C330.035 98.1602 330.191 97.9688 330.504 97.9688C330.824 97.9688 330.984 98.1602 330.984 98.543C330.984 98.9258 330.824 99.1172 330.504 99.1172C330.191 99.1172 330.035 98.9258 330.035 98.543ZM338.127 94.6934C338.127 96.1973 337.896 97.3105 337.436 98.0332C336.979 98.7559 336.285 99.1172 335.355 99.1172C334.461 99.1172 333.781 98.7461 333.316 98.0039C332.852 97.2578 332.619 96.1543 332.619 94.6934C332.619 93.2012 332.844 92.0957 333.293 91.377C333.746 90.6582 334.434 90.2988 335.355 90.2988C336.258 90.2988 336.945 90.6719 337.418 91.418C337.891 92.1602 338.127 93.252 338.127 94.6934ZM333.252 94.6934C333.252 96.0215 333.426 97.0039 333.773 97.6406C334.121 98.2734 334.648 98.5898 335.355 98.5898C336.094 98.5898 336.631 98.2617 336.967 97.6055C337.307 96.9492 337.477 95.9785 337.477 94.6934C337.477 93.4277 337.307 92.4668 336.967 91.8105C336.631 91.1543 336.094 90.8262 335.355 90.8262C334.617 90.8262 334.082 91.1543 333.75 91.8105C333.418 92.4668 333.252 93.4277 333.252 94.6934ZM340.037 92.9883C340.037 93.7148 340.125 94.2617 340.301 94.6289C340.477 94.9922 340.752 95.1738 341.127 95.1738C341.881 95.1738 342.258 94.4453 342.258 92.9883C342.258 92.2695 342.16 91.7305 341.965 91.3711C341.773 91.0078 341.494 90.8262 341.127 90.8262C340.752 90.8262 340.477 91.0078 340.301 91.3711C340.125 91.7305 340.037 92.2695 340.037 92.9883ZM342.832 92.9883C342.832 93.8711 342.686 94.543 342.393 95.0039C342.1 95.4609 341.678 95.6895 341.127 95.6895C340.607 95.6895 340.199 95.4551 339.902 94.9863C339.609 94.5137 339.463 93.8477 339.463 92.9883C339.463 92.1172 339.604 91.4531 339.885 90.9961C340.166 90.5391 340.58 90.3105 341.127 90.3105C341.67 90.3105 342.09 90.5469 342.387 91.0195C342.684 91.4883 342.832 92.1445 342.832 92.9883ZM345.029 96.4336C345.029 97.1562 345.117 97.6992 345.293 98.0625C345.469 98.4219 345.744 98.6016 346.119 98.6016C346.873 98.6016 347.25 97.8789 347.25 96.4336C347.25 94.9922 346.873 94.2715 346.119 94.2715C345.744 94.2715 345.469 94.4512 345.293 94.8105C345.117 95.166 345.029 95.707 345.029 96.4336ZM347.824 96.4336C347.824 97.3164 347.68 97.9883 347.391 98.4492C347.102 98.9062 346.682 99.1348 346.131 99.1348C345.6 99.1348 345.188 98.8984 344.895 98.4258C344.602 97.9492 344.455 97.2852 344.455 96.4336C344.455 95.5547 344.598 94.8887 344.883 94.4355C345.172 93.9824 345.588 93.7559 346.131 93.7559C346.666 93.7559 347.082 93.9902 347.379 94.459C347.676 94.9277 347.824 95.5859 347.824 96.4336ZM346.301 90.4336L341.549 99H340.986L345.738 90.4336H346.301Z" fill="white"/>
<path d="M201.322 120L200.701 117.961H197.578L196.957 120H195L198.023 111.398H200.244L203.279 120H201.322ZM200.268 116.438C199.693 114.59 199.369 113.545 199.295 113.303C199.225 113.061 199.174 112.869 199.143 112.729C199.014 113.229 198.645 114.465 198.035 116.438H200.268ZM207.615 115.189H211.014V119.631C210.463 119.811 209.943 119.936 209.455 120.006C208.971 120.08 208.475 120.117 207.967 120.117C206.674 120.117 205.686 119.738 205.002 118.98C204.322 118.219 203.982 117.127 203.982 115.705C203.982 114.322 204.377 113.244 205.166 112.471C205.959 111.697 207.057 111.311 208.459 111.311C209.338 111.311 210.186 111.486 211.002 111.838L210.398 113.291C209.773 112.979 209.123 112.822 208.447 112.822C207.662 112.822 207.033 113.086 206.561 113.613C206.088 114.141 205.852 114.85 205.852 115.74C205.852 116.67 206.041 117.381 206.42 117.873C206.803 118.361 207.357 118.605 208.084 118.605C208.463 118.605 208.848 118.566 209.238 118.488V116.701H207.615V115.189ZM221.232 117.621C221.232 118.395 220.953 119.004 220.395 119.449C219.84 119.895 219.066 120.117 218.074 120.117C217.16 120.117 216.352 119.945 215.648 119.602V117.914C216.227 118.172 216.715 118.354 217.113 118.459C217.516 118.564 217.883 118.617 218.215 118.617C218.613 118.617 218.918 118.541 219.129 118.389C219.344 118.236 219.451 118.01 219.451 117.709C219.451 117.541 219.404 117.393 219.311 117.264C219.217 117.131 219.078 117.004 218.895 116.883C218.715 116.762 218.346 116.568 217.787 116.303C217.264 116.057 216.871 115.82 216.609 115.594C216.348 115.367 216.139 115.104 215.982 114.803C215.826 114.502 215.748 114.15 215.748 113.748C215.748 112.99 216.004 112.395 216.516 111.961C217.031 111.527 217.742 111.311 218.648 111.311C219.094 111.311 219.518 111.363 219.92 111.469C220.326 111.574 220.75 111.723 221.191 111.914L220.605 113.326C220.148 113.139 219.77 113.008 219.469 112.934C219.172 112.859 218.879 112.822 218.59 112.822C218.246 112.822 217.982 112.902 217.799 113.062C217.615 113.223 217.523 113.432 217.523 113.689C217.523 113.85 217.561 113.99 217.635 114.111C217.709 114.229 217.826 114.344 217.986 114.457C218.15 114.566 218.535 114.766 219.141 115.055C219.941 115.438 220.49 115.822 220.787 116.209C221.084 116.592 221.232 117.062 221.232 117.621ZM228.691 120H226.904V116.174C226.904 115.229 226.553 114.756 225.85 114.756C225.35 114.756 224.988 114.926 224.766 115.266C224.543 115.605 224.432 116.156 224.432 116.918V120H222.645V110.883H224.432V112.74C224.432 112.885 224.418 113.225 224.391 113.76L224.35 114.287H224.443C224.842 113.646 225.475 113.326 226.342 113.326C227.111 113.326 227.695 113.533 228.094 113.947C228.492 114.361 228.691 114.955 228.691 115.729V120ZM234.691 120L234.346 119.109H234.299C233.998 119.488 233.688 119.752 233.367 119.9C233.051 120.045 232.637 120.117 232.125 120.117C231.496 120.117 231 119.938 230.637 119.578C230.277 119.219 230.098 118.707 230.098 118.043C230.098 117.348 230.34 116.836 230.824 116.508C231.312 116.176 232.047 115.992 233.027 115.957L234.164 115.922V115.635C234.164 114.971 233.824 114.639 233.145 114.639C232.621 114.639 232.006 114.797 231.299 115.113L230.707 113.906C231.461 113.512 232.297 113.314 233.215 113.314C234.094 113.314 234.768 113.506 235.236 113.889C235.705 114.271 235.939 114.854 235.939 115.635V120H234.691ZM234.164 116.965L233.473 116.988C232.953 117.004 232.566 117.098 232.312 117.27C232.059 117.441 231.932 117.703 231.932 118.055C231.932 118.559 232.221 118.811 232.799 118.811C233.213 118.811 233.543 118.691 233.789 118.453C234.039 118.215 234.164 117.898 234.164 117.504V116.965ZM241.441 113.326C241.684 113.326 241.885 113.344 242.045 113.379L241.91 115.055C241.766 115.016 241.59 114.996 241.383 114.996C240.812 114.996 240.367 115.143 240.047 115.436C239.73 115.729 239.572 116.139 239.572 116.666V120H237.785V113.449H239.139L239.402 114.551H239.49C239.693 114.184 239.967 113.889 240.311 113.666C240.658 113.439 241.035 113.326 241.441 113.326ZM245.947 114.598C245.568 114.598 245.271 114.719 245.057 114.961C244.842 115.199 244.719 115.539 244.688 115.98H247.195C247.188 115.539 247.072 115.199 246.85 114.961C246.627 114.719 246.326 114.598 245.947 114.598ZM246.199 120.117C245.145 120.117 244.32 119.826 243.727 119.244C243.133 118.662 242.836 117.838 242.836 116.771C242.836 115.674 243.109 114.826 243.656 114.229C244.207 113.627 244.967 113.326 245.936 113.326C246.861 113.326 247.582 113.59 248.098 114.117C248.613 114.645 248.871 115.373 248.871 116.303V117.17H244.646C244.666 117.678 244.816 118.074 245.098 118.359C245.379 118.645 245.773 118.787 246.281 118.787C246.676 118.787 247.049 118.746 247.4 118.664C247.752 118.582 248.119 118.451 248.502 118.271V119.654C248.189 119.811 247.855 119.926 247.5 120C247.145 120.078 246.711 120.117 246.199 120.117ZM256.371 120H254.584V116.174C254.584 115.229 254.232 114.756 253.529 114.756C253.029 114.756 252.668 114.926 252.445 115.266C252.223 115.605 252.111 116.156 252.111 116.918V120H250.324V110.883H252.111V112.74C252.111 112.885 252.098 113.225 252.07 113.76L252.029 114.287H252.123C252.521 113.646 253.154 113.326 254.021 113.326C254.791 113.326 255.375 113.533 255.773 113.947C256.172 114.361 256.371 114.955 256.371 115.729V120ZM259.635 116.713C259.635 117.361 259.74 117.852 259.951 118.184C260.166 118.516 260.514 118.682 260.994 118.682C261.471 118.682 261.812 118.518 262.02 118.189C262.23 117.857 262.336 117.365 262.336 116.713C262.336 116.064 262.23 115.578 262.02 115.254C261.809 114.93 261.463 114.768 260.982 114.768C260.506 114.768 260.162 114.93 259.951 115.254C259.74 115.574 259.635 116.061 259.635 116.713ZM264.164 116.713C264.164 117.779 263.883 118.613 263.32 119.215C262.758 119.816 261.975 120.117 260.971 120.117C260.342 120.117 259.787 119.98 259.307 119.707C258.826 119.43 258.457 119.033 258.199 118.518C257.941 118.002 257.812 117.4 257.812 116.713C257.812 115.643 258.092 114.811 258.65 114.217C259.209 113.623 259.994 113.326 261.006 113.326C261.635 113.326 262.189 113.463 262.67 113.736C263.15 114.01 263.52 114.402 263.777 114.914C264.035 115.426 264.164 116.025 264.164 116.713ZM267.428 120H265.641V110.883H267.428V120ZM271.383 120.117C270.613 120.117 270.008 119.818 269.566 119.221C269.129 118.623 268.91 117.795 268.91 116.736C268.91 115.662 269.133 114.826 269.578 114.229C270.027 113.627 270.645 113.326 271.43 113.326C272.254 113.326 272.883 113.646 273.316 114.287H273.375C273.285 113.799 273.24 113.363 273.24 112.98V110.883H275.033V120H273.662L273.316 119.15H273.24C272.834 119.795 272.215 120.117 271.383 120.117ZM272.01 118.693C272.467 118.693 272.801 118.561 273.012 118.295C273.227 118.029 273.344 117.578 273.363 116.941V116.748C273.363 116.045 273.254 115.541 273.035 115.236C272.82 114.932 272.469 114.779 271.98 114.779C271.582 114.779 271.271 114.949 271.049 115.289C270.83 115.625 270.721 116.115 270.721 116.76C270.721 117.404 270.832 117.889 271.055 118.213C271.277 118.533 271.596 118.693 272.01 118.693ZM279.615 114.598C279.236 114.598 278.939 114.719 278.725 114.961C278.51 115.199 278.387 115.539 278.355 115.98H280.863C280.855 115.539 280.74 115.199 280.518 114.961C280.295 114.719 279.994 114.598 279.615 114.598ZM279.867 120.117C278.812 120.117 277.988 119.826 277.395 119.244C276.801 118.662 276.504 117.838 276.504 116.771C276.504 115.674 276.777 114.826 277.324 114.229C277.875 113.627 278.635 113.326 279.604 113.326C280.529 113.326 281.25 113.59 281.766 114.117C282.281 114.645 282.539 115.373 282.539 116.303V117.17H278.314C278.334 117.678 278.484 118.074 278.766 118.359C279.047 118.645 279.441 118.787 279.949 118.787C280.344 118.787 280.717 118.746 281.068 118.664C281.42 118.582 281.787 118.451 282.17 118.271V119.654C281.857 119.811 281.523 119.926 281.168 120C280.812 120.078 280.379 120.117 279.867 120.117ZM287.648 113.326C287.891 113.326 288.092 113.344 288.252 113.379L288.117 115.055C287.973 115.016 287.797 114.996 287.59 114.996C287.02 114.996 286.574 115.143 286.254 115.436C285.938 115.729 285.779 116.139 285.779 116.666V120H283.992V113.449H285.346L285.609 114.551H285.697C285.9 114.184 286.174 113.889 286.518 113.666C286.865 113.439 287.242 113.326 287.648 113.326ZM294.012 118.055C294.012 118.727 293.777 119.238 293.309 119.59C292.844 119.941 292.146 120.117 291.217 120.117C290.74 120.117 290.334 120.084 289.998 120.018C289.662 119.955 289.348 119.861 289.055 119.736V118.26C289.387 118.416 289.76 118.547 290.174 118.652C290.592 118.758 290.959 118.811 291.275 118.811C291.924 118.811 292.248 118.623 292.248 118.248C292.248 118.107 292.205 117.994 292.119 117.908C292.033 117.818 291.885 117.719 291.674 117.609C291.463 117.496 291.182 117.365 290.83 117.217C290.326 117.006 289.955 116.811 289.717 116.631C289.482 116.451 289.311 116.246 289.201 116.016C289.096 115.781 289.043 115.494 289.043 115.154C289.043 114.572 289.268 114.123 289.717 113.807C290.17 113.486 290.811 113.326 291.639 113.326C292.428 113.326 293.195 113.498 293.941 113.842L293.402 115.131C293.074 114.99 292.768 114.875 292.482 114.785C292.197 114.695 291.906 114.65 291.609 114.65C291.082 114.65 290.818 114.793 290.818 115.078C290.818 115.238 290.902 115.377 291.07 115.494C291.242 115.611 291.615 115.785 292.189 116.016C292.701 116.223 293.076 116.416 293.314 116.596C293.553 116.775 293.729 116.982 293.842 117.217C293.955 117.451 294.012 117.73 294.012 118.055ZM295.154 119.162C295.154 118.834 295.242 118.586 295.418 118.418C295.594 118.25 295.85 118.166 296.186 118.166C296.51 118.166 296.76 118.252 296.936 118.424C297.115 118.596 297.205 118.842 297.205 119.162C297.205 119.471 297.115 119.715 296.936 119.895C296.756 120.07 296.506 120.158 296.186 120.158C295.857 120.158 295.604 120.072 295.424 119.9C295.244 119.725 295.154 119.479 295.154 119.162ZM295.154 114.322C295.154 113.994 295.242 113.746 295.418 113.578C295.594 113.41 295.85 113.326 296.186 113.326C296.51 113.326 296.76 113.412 296.936 113.584C297.115 113.756 297.205 114.002 297.205 114.322C297.205 114.639 297.113 114.885 296.93 115.061C296.75 115.232 296.502 115.318 296.186 115.318C295.857 115.318 295.604 115.232 295.424 115.061C295.244 114.889 295.154 114.643 295.154 114.322ZM307.189 115.693C307.189 117.197 306.959 118.311 306.498 119.033C306.041 119.756 305.348 120.117 304.418 120.117C303.523 120.117 302.844 119.746 302.379 119.004C301.914 118.258 301.682 117.154 301.682 115.693C301.682 114.201 301.906 113.096 302.355 112.377C302.809 111.658 303.496 111.299 304.418 111.299C305.32 111.299 306.008 111.672 306.48 112.418C306.953 113.16 307.189 114.252 307.189 115.693ZM302.314 115.693C302.314 117.021 302.488 118.004 302.836 118.641C303.184 119.273 303.711 119.59 304.418 119.59C305.156 119.59 305.693 119.262 306.029 118.605C306.369 117.949 306.539 116.979 306.539 115.693C306.539 114.428 306.369 113.467 306.029 112.811C305.693 112.154 305.156 111.826 304.418 111.826C303.68 111.826 303.145 112.154 302.812 112.811C302.48 113.467 302.314 114.428 302.314 115.693ZM308.812 119.543C308.812 119.16 308.969 118.969 309.281 118.969C309.602 118.969 309.762 119.16 309.762 119.543C309.762 119.926 309.602 120.117 309.281 120.117C308.969 120.117 308.812 119.926 308.812 119.543ZM311.49 116.35C311.49 115.236 311.641 114.301 311.941 113.543C312.246 112.781 312.676 112.217 313.23 111.85C313.789 111.482 314.461 111.299 315.246 111.299C315.613 111.299 315.949 111.344 316.254 111.434V111.949C315.969 111.844 315.625 111.791 315.223 111.791C314.258 111.791 313.506 112.139 312.967 112.834C312.432 113.529 312.131 114.541 312.064 115.869H312.141C312.438 115.486 312.777 115.197 313.16 115.002C313.543 114.807 313.947 114.709 314.373 114.709C315.174 114.709 315.799 114.938 316.248 115.395C316.701 115.852 316.928 116.482 316.928 117.287C316.928 118.162 316.689 118.854 316.213 119.361C315.74 119.865 315.102 120.117 314.297 120.117C313.43 120.117 312.744 119.787 312.24 119.127C311.74 118.463 311.49 117.537 311.49 116.35ZM314.297 119.602C314.938 119.602 315.436 119.4 315.791 118.998C316.146 118.596 316.324 118.021 316.324 117.275C316.324 116.619 316.148 116.107 315.797 115.74C315.445 115.373 314.967 115.189 314.361 115.189C313.963 115.189 313.592 115.277 313.248 115.453C312.908 115.629 312.637 115.863 312.434 116.156C312.23 116.445 312.129 116.742 312.129 117.047C312.129 117.48 312.225 117.898 312.416 118.301C312.611 118.699 312.873 119.016 313.201 119.25C313.533 119.484 313.898 119.602 314.297 119.602ZM323.602 120H318.24V119.484L320.52 117.105C321.16 116.441 321.609 115.934 321.867 115.582C322.125 115.23 322.314 114.895 322.436 114.574C322.557 114.254 322.617 113.918 322.617 113.566C322.617 113.055 322.449 112.639 322.113 112.318C321.777 111.998 321.342 111.838 320.807 111.838C320.092 111.838 319.408 112.098 318.756 112.617L318.439 112.213C319.154 111.611 319.947 111.311 320.818 111.311C321.564 111.311 322.15 111.51 322.576 111.908C323.006 112.307 323.221 112.855 323.221 113.555C323.221 114.121 323.076 114.67 322.787 115.201C322.502 115.729 321.979 116.381 321.217 117.158L319.02 119.414V119.438H323.602V120ZM327.58 114.85C328.494 114.85 329.213 115.07 329.736 115.512C330.264 115.953 330.527 116.561 330.527 117.334C330.527 118.213 330.254 118.896 329.707 119.385C329.16 119.873 328.406 120.117 327.445 120.117C327.02 120.117 326.615 120.076 326.232 119.994C325.85 119.908 325.529 119.787 325.271 119.631V119.027C325.693 119.242 326.068 119.393 326.396 119.479C326.725 119.561 327.074 119.602 327.445 119.602C328.195 119.602 328.797 119.404 329.25 119.01C329.703 118.611 329.93 118.074 329.93 117.398C329.93 116.762 329.709 116.262 329.268 115.898C328.826 115.535 328.227 115.354 327.469 115.354C326.961 115.354 326.43 115.43 325.875 115.582L325.523 115.354L325.863 111.434H329.988V111.996H326.414L326.15 115.02C326.76 114.906 327.236 114.85 327.58 114.85ZM336.27 120L333.076 112.09H333.029C333.061 112.574 333.076 113.07 333.076 113.578V120H332.502V111.434H333.428L336.463 118.969H336.498L339.533 111.434H340.436V120H339.832V113.508C339.832 113.055 339.855 112.586 339.902 112.102H339.855L336.65 120H336.27ZM348.422 117V116.52H351.205V117H348.422ZM358.863 120H358.289V113.76C358.289 113.193 358.312 112.605 358.359 111.996C358.301 112.055 358.24 112.111 358.178 112.166C358.115 112.221 357.512 112.695 356.367 113.59L356.033 113.174L358.359 111.434H358.863V120ZM362.672 119.543C362.672 119.16 362.828 118.969 363.141 118.969C363.461 118.969 363.621 119.16 363.621 119.543C363.621 119.926 363.461 120.117 363.141 120.117C362.828 120.117 362.672 119.926 362.672 119.543ZM370.652 115.066C370.652 116.191 370.504 117.133 370.207 117.891C369.914 118.648 369.484 119.209 368.918 119.572C368.355 119.936 367.674 120.117 366.873 120.117C366.467 120.117 366.092 120.066 365.748 119.965V119.461C365.916 119.516 366.117 119.559 366.352 119.59C366.59 119.617 366.771 119.631 366.896 119.631C367.861 119.631 368.617 119.283 369.164 118.588C369.711 117.889 370.016 116.871 370.078 115.535H370.008C369.723 115.91 369.383 116.199 368.988 116.402C368.594 116.602 368.182 116.701 367.752 116.701C366.959 116.701 366.34 116.482 365.895 116.045C365.453 115.607 365.232 114.986 365.232 114.182C365.232 113.322 365.475 112.627 365.959 112.096C366.447 111.564 367.08 111.299 367.857 111.299C368.42 111.299 368.912 111.447 369.334 111.744C369.756 112.037 370.08 112.469 370.307 113.039C370.537 113.609 370.652 114.285 370.652 115.066ZM367.857 111.814C367.24 111.814 366.748 112.023 366.381 112.441C366.014 112.855 365.83 113.424 365.83 114.146C365.83 114.826 366 115.342 366.34 115.693C366.68 116.045 367.166 116.221 367.799 116.221C368.193 116.221 368.561 116.133 368.9 115.957C369.244 115.781 369.516 115.549 369.715 115.26C369.918 114.967 370.02 114.67 370.02 114.369C370.02 113.912 369.928 113.484 369.744 113.086C369.564 112.688 369.311 112.377 368.982 112.154C368.658 111.928 368.283 111.814 367.857 111.814ZM372.674 113.988C372.674 114.715 372.762 115.262 372.938 115.629C373.113 115.992 373.389 116.174 373.764 116.174C374.518 116.174 374.895 115.445 374.895 113.988C374.895 113.27 374.797 112.73 374.602 112.371C374.41 112.008 374.131 111.826 373.764 111.826C373.389 111.826 373.113 112.008 372.938 112.371C372.762 112.73 372.674 113.27 372.674 113.988ZM375.469 113.988C375.469 114.871 375.322 115.543 375.029 116.004C374.736 116.461 374.314 116.689 373.764 116.689C373.244 116.689 372.836 116.455 372.539 115.986C372.246 115.514 372.1 114.848 372.1 113.988C372.1 113.117 372.24 112.453 372.521 111.996C372.803 111.539 373.217 111.311 373.764 111.311C374.307 111.311 374.727 111.547 375.023 112.02C375.32 112.488 375.469 113.145 375.469 113.988ZM377.666 117.434C377.666 118.156 377.754 118.699 377.93 119.062C378.105 119.422 378.381 119.602 378.756 119.602C379.51 119.602 379.887 118.879 379.887 117.434C379.887 115.992 379.51 115.271 378.756 115.271C378.381 115.271 378.105 115.451 377.93 115.811C377.754 116.166 377.666 116.707 377.666 117.434ZM380.461 117.434C380.461 118.316 380.316 118.988 380.027 119.449C379.738 119.906 379.318 120.135 378.768 120.135C378.236 120.135 377.824 119.898 377.531 119.426C377.238 118.949 377.092 118.285 377.092 117.434C377.092 116.555 377.234 115.889 377.52 115.436C377.809 114.982 378.225 114.756 378.768 114.756C379.303 114.756 379.719 114.99 380.016 115.459C380.312 115.928 380.461 116.586 380.461 117.434ZM378.938 111.434L374.186 120H373.623L378.375 111.434H378.938Z" fill="white"/>
<path d="M201.322 141L200.701 138.961H197.578L196.957 141H195L198.023 132.398H200.244L203.279 141H201.322ZM200.268 137.438C199.693 135.59 199.369 134.545 199.295 134.303C199.225 134.061 199.174 133.869 199.143 133.729C199.014 134.229 198.645 135.465 198.035 137.438H200.268ZM207.615 136.189H211.014V140.631C210.463 140.811 209.943 140.936 209.455 141.006C208.971 141.08 208.475 141.117 207.967 141.117C206.674 141.117 205.686 140.738 205.002 139.98C204.322 139.219 203.982 138.127 203.982 136.705C203.982 135.322 204.377 134.244 205.166 133.471C205.959 132.697 207.057 132.311 208.459 132.311C209.338 132.311 210.186 132.486 211.002 132.838L210.398 134.291C209.773 133.979 209.123 133.822 208.447 133.822C207.662 133.822 207.033 134.086 206.561 134.613C206.088 135.141 205.852 135.85 205.852 136.74C205.852 137.67 206.041 138.381 206.42 138.873C206.803 139.361 207.357 139.605 208.084 139.605C208.463 139.605 208.848 139.566 209.238 139.488V137.701H207.615V136.189ZM219.48 141H217.664V133.945H215.338V132.434H221.807V133.945H219.48V141ZM225.697 135.598C225.318 135.598 225.021 135.719 224.807 135.961C224.592 136.199 224.469 136.539 224.438 136.98H226.945C226.938 136.539 226.822 136.199 226.6 135.961C226.377 135.719 226.076 135.598 225.697 135.598ZM225.949 141.117C224.895 141.117 224.07 140.826 223.477 140.244C222.883 139.662 222.586 138.838 222.586 137.771C222.586 136.674 222.859 135.826 223.406 135.229C223.957 134.627 224.717 134.326 225.686 134.326C226.611 134.326 227.332 134.59 227.848 135.117C228.363 135.645 228.621 136.373 228.621 137.303V138.17H224.396C224.416 138.678 224.566 139.074 224.848 139.359C225.129 139.645 225.523 139.787 226.031 139.787C226.426 139.787 226.799 139.746 227.15 139.664C227.502 139.582 227.869 139.451 228.252 139.271V140.654C227.939 140.811 227.605 140.926 227.25 141C226.895 141.078 226.461 141.117 225.949 141.117ZM234.234 141L233.889 140.109H233.842C233.541 140.488 233.23 140.752 232.91 140.9C232.594 141.045 232.18 141.117 231.668 141.117C231.039 141.117 230.543 140.938 230.18 140.578C229.82 140.219 229.641 139.707 229.641 139.043C229.641 138.348 229.883 137.836 230.367 137.508C230.855 137.176 231.59 136.992 232.57 136.957L233.707 136.922V136.635C233.707 135.971 233.367 135.639 232.688 135.639C232.164 135.639 231.549 135.797 230.842 136.113L230.25 134.906C231.004 134.512 231.84 134.314 232.758 134.314C233.637 134.314 234.311 134.506 234.779 134.889C235.248 135.271 235.482 135.854 235.482 136.635V141H234.234ZM233.707 137.965L233.016 137.988C232.496 138.004 232.109 138.098 231.855 138.27C231.602 138.441 231.475 138.703 231.475 139.055C231.475 139.559 231.764 139.811 232.342 139.811C232.756 139.811 233.086 139.691 233.332 139.453C233.582 139.215 233.707 138.898 233.707 138.504V137.965ZM243.193 141H241.406V137.174C241.406 136.701 241.326 136.348 241.166 136.113C241.01 135.875 240.762 135.756 240.422 135.756C239.965 135.756 239.633 135.924 239.426 136.26C239.219 136.596 239.115 137.148 239.115 137.918V141H237.328V134.449H238.693L238.934 135.287H239.033C239.209 134.986 239.463 134.752 239.795 134.584C240.127 134.412 240.508 134.326 240.938 134.326C241.918 134.326 242.582 134.646 242.93 135.287H243.088C243.264 134.982 243.521 134.746 243.861 134.578C244.205 134.41 244.592 134.326 245.021 134.326C245.764 134.326 246.324 134.518 246.703 134.9C247.086 135.279 247.277 135.889 247.277 136.729V141H245.484V137.174C245.484 136.701 245.404 136.348 245.244 136.113C245.088 135.875 244.84 135.756 244.5 135.756C244.062 135.756 243.734 135.912 243.516 136.225C243.301 136.537 243.193 137.033 243.193 137.713V141ZM248.865 140.162C248.865 139.834 248.953 139.586 249.129 139.418C249.305 139.25 249.561 139.166 249.896 139.166C250.221 139.166 250.471 139.252 250.646 139.424C250.826 139.596 250.916 139.842 250.916 140.162C250.916 140.471 250.826 140.715 250.646 140.895C250.467 141.07 250.217 141.158 249.896 141.158C249.568 141.158 249.314 141.072 249.135 140.9C248.955 140.725 248.865 140.479 248.865 140.162ZM248.865 135.322C248.865 134.994 248.953 134.746 249.129 134.578C249.305 134.41 249.561 134.326 249.896 134.326C250.221 134.326 250.471 134.412 250.646 134.584C250.826 134.756 250.916 135.002 250.916 135.322C250.916 135.639 250.824 135.885 250.641 136.061C250.461 136.232 250.213 136.318 249.896 136.318C249.568 136.318 249.314 136.232 249.135 136.061C248.955 135.889 248.865 135.643 248.865 135.322ZM260.9 136.693C260.9 138.197 260.67 139.311 260.209 140.033C259.752 140.756 259.059 141.117 258.129 141.117C257.234 141.117 256.555 140.746 256.09 140.004C255.625 139.258 255.393 138.154 255.393 136.693C255.393 135.201 255.617 134.096 256.066 133.377C256.52 132.658 257.207 132.299 258.129 132.299C259.031 132.299 259.719 132.672 260.191 133.418C260.664 134.16 260.9 135.252 260.9 136.693ZM256.025 136.693C256.025 138.021 256.199 139.004 256.547 139.641C256.895 140.273 257.422 140.59 258.129 140.59C258.867 140.59 259.404 140.262 259.74 139.605C260.08 138.949 260.25 137.979 260.25 136.693C260.25 135.428 260.08 134.467 259.74 133.811C259.404 133.154 258.867 132.826 258.129 132.826C257.391 132.826 256.855 133.154 256.523 133.811C256.191 134.467 256.025 135.428 256.025 136.693ZM266.555 141L263.361 133.09H263.314C263.346 133.574 263.361 134.07 263.361 134.578V141H262.787V132.434H263.713L266.748 139.969H266.783L269.818 132.434H270.721V141H270.117V134.508C270.117 134.055 270.141 133.586 270.188 133.102H270.141L266.936 141H266.555ZM275.59 138V137.52H278.373V138H275.59ZM288.217 136.693C288.217 138.197 287.986 139.311 287.525 140.033C287.068 140.756 286.375 141.117 285.445 141.117C284.551 141.117 283.871 140.746 283.406 140.004C282.941 139.258 282.709 138.154 282.709 136.693C282.709 135.201 282.934 134.096 283.383 133.377C283.836 132.658 284.523 132.299 285.445 132.299C286.348 132.299 287.035 132.672 287.508 133.418C287.98 134.16 288.217 135.252 288.217 136.693ZM283.342 136.693C283.342 138.021 283.516 139.004 283.863 139.641C284.211 140.273 284.738 140.59 285.445 140.59C286.184 140.59 286.721 140.262 287.057 139.605C287.396 138.949 287.566 137.979 287.566 136.693C287.566 135.428 287.396 134.467 287.057 133.811C286.721 133.154 286.184 132.826 285.445 132.826C284.707 132.826 284.172 133.154 283.84 133.811C283.508 134.467 283.342 135.428 283.342 136.693ZM289.84 140.543C289.84 140.16 289.996 139.969 290.309 139.969C290.629 139.969 290.789 140.16 290.789 140.543C290.789 140.926 290.629 141.117 290.309 141.117C289.996 141.117 289.84 140.926 289.84 140.543ZM297.932 136.693C297.932 138.197 297.701 139.311 297.24 140.033C296.783 140.756 296.09 141.117 295.16 141.117C294.266 141.117 293.586 140.746 293.121 140.004C292.656 139.258 292.424 138.154 292.424 136.693C292.424 135.201 292.648 134.096 293.098 133.377C293.551 132.658 294.238 132.299 295.16 132.299C296.062 132.299 296.75 132.672 297.223 133.418C297.695 134.16 297.932 135.252 297.932 136.693ZM293.057 136.693C293.057 138.021 293.23 139.004 293.578 139.641C293.926 140.273 294.453 140.59 295.16 140.59C295.898 140.59 296.436 140.262 296.771 139.605C297.111 138.949 297.281 137.979 297.281 136.693C297.281 135.428 297.111 134.467 296.771 133.811C296.436 133.154 295.898 132.826 295.16 132.826C294.422 132.826 293.887 133.154 293.555 133.811C293.223 134.467 293.057 135.428 293.057 136.693ZM299.842 134.988C299.842 135.715 299.93 136.262 300.105 136.629C300.281 136.992 300.557 137.174 300.932 137.174C301.686 137.174 302.062 136.445 302.062 134.988C302.062 134.27 301.965 133.73 301.77 133.371C301.578 133.008 301.299 132.826 300.932 132.826C300.557 132.826 300.281 133.008 300.105 133.371C299.93 133.73 299.842 134.27 299.842 134.988ZM302.637 134.988C302.637 135.871 302.49 136.543 302.197 137.004C301.904 137.461 301.482 137.689 300.932 137.689C300.412 137.689 300.004 137.455 299.707 136.986C299.414 136.514 299.268 135.848 299.268 134.988C299.268 134.117 299.408 133.453 299.689 132.996C299.971 132.539 300.385 132.311 300.932 132.311C301.475 132.311 301.895 132.547 302.191 133.02C302.488 133.488 302.637 134.145 302.637 134.988ZM304.834 138.434C304.834 139.156 304.922 139.699 305.098 140.062C305.273 140.422 305.549 140.602 305.924 140.602C306.678 140.602 307.055 139.879 307.055 138.434C307.055 136.992 306.678 136.271 305.924 136.271C305.549 136.271 305.273 136.451 305.098 136.811C304.922 137.166 304.834 137.707 304.834 138.434ZM307.629 138.434C307.629 139.316 307.484 139.988 307.195 140.449C306.906 140.906 306.486 141.135 305.936 141.135C305.404 141.135 304.992 140.898 304.699 140.426C304.406 139.949 304.26 139.285 304.26 138.434C304.26 137.555 304.402 136.889 304.688 136.436C304.977 135.982 305.393 135.756 305.936 135.756C306.471 135.756 306.887 135.99 307.184 136.459C307.48 136.928 307.629 137.586 307.629 138.434ZM306.105 132.434L301.354 141H300.791L305.543 132.434H306.105Z" fill="white"/>
<path d="M79.9839 2C92.6834 1.99742 105.201 5.01822 116.502 10.8126C127.802 16.607 137.561 25.0084 144.971 35.3221L80.0002 82L79.9839 2Z" fill="url(#paint6_linear)"/>
<path d="M79.9839 2C92.6834 1.99742 105.201 5.01822 116.502 10.8126C127.802 16.607 137.561 25.0084 144.971 35.3221L80.0002 82L79.9839 2Z" stroke="white"/>
<path d="M145.017 35.3871C154.293 48.3255 159.498 63.7373 159.965 79.6504C160.433 95.5635 156.142 111.254 147.642 124.715C139.142 138.176 126.819 148.794 112.249 155.212C97.6803 161.629 81.5277 163.554 65.8584 160.74C50.1892 157.926 35.7158 150.501 24.2903 139.415C12.8649 128.328 5.00684 114.085 1.72176 98.508C-1.56332 82.9306 -0.126063 66.7274 5.84962 51.9715C11.8253 37.2155 22.0676 24.5781 35.2661 15.676L80 82L145.017 35.3871Z" fill="url(#paint7_linear)"/>
<path d="M145.017 35.3871C154.293 48.3255 159.498 63.7373 159.965 79.6504C160.433 95.5635 156.142 111.254 147.642 124.715C139.142 138.176 126.819 148.794 112.249 155.212C97.6803 161.629 81.5277 163.554 65.8584 160.74C50.1892 157.926 35.7158 150.501 24.2903 139.415C12.8649 128.328 5.00684 114.085 1.72176 98.508C-1.56332 82.9306 -0.126063 66.7274 5.84962 51.9715C11.8253 37.2155 22.0676 24.5781 35.2661 15.676L80 82L145.017 35.3871Z" stroke="white"/>
<path d="M35.3325 15.6314C45.8457 8.55578 57.8894 4.07894 70.4716 2.56958L80.0001 82.0001L35.3325 15.6314Z" fill="url(#paint8_linear)"/>
<path d="M70.5511 2.56006C70.5246 2.56323 70.4982 2.5664 70.4717 2.56955L80.0001 82.0001L70.5511 2.56006Z" fill="url(#paint9_radial)" stroke="white" stroke-linejoin="round"/>
<path d="M70.5508 2.55991C73.6498 2.19129 76.7678 2.00433 79.8887 2L79.9998 81.9999L70.5508 2.55991Z" fill="url(#paint10_linear)"/>
<path d="M79.9687 2C79.942 2.00004 79.9153 2.00006 79.8887 2.00007L79.9998 82L79.9687 2Z" fill="url(#paint11_radial)" stroke="white" stroke-linejoin="round"/>
<circle cx="79.8441" cy="81.8441" r="46.8441" fill="#1D1D1B"/>
<defs>
<filter id="filter0_d" x="140" y="0" width="70" height="64" filterUnits="userSpaceOnUse" color-interpolation-filters="sRGB">
<feFlood flood-opacity="0" result="BackgroundImageFix"/>
<feColorMatrix in="SourceAlpha" type="matrix" values="0 0 0 0 0 0 0 0 0 0 0 0 0 0 0 0 0 0 127 0"/>
<feOffset/>
<feGaussianBlur stdDeviation="15"/>
<feColorMatrix type="matrix" values="0 0 0 0 0 0 0 0 0 0 0 0 0 0 0 0 0 0 1 0"/>
<feBlend mode="normal" in2="BackgroundImageFix" result="effect1_dropShadow"/>
<feBlend mode="normal" in="SourceGraphic" in2="effect1_dropShadow" result="shape"/>
</filter>
<filter id="filter1_d" x="140" y="42" width="70" height="64" filterUnits="userSpaceOnUse" color-interpolation-filters="sRGB">
<feFlood flood-opacity="0" result="BackgroundImageFix"/>
<feColorMatrix in="SourceAlpha" type="matrix" values="0 0 0 0 0 0 0 0 0 0 0 0 0 0 0 0 0 0 127 0"/>
<feOffset/>
<feGaussianBlur stdDeviation="15"/>
<feColorMatrix type="matrix" values="0 0 0 0 0 0 0 0 0 0 0 0 0 0 0 0 0 0 1 0"/>
<feBlend mode="normal" in2="BackgroundImageFix" result="effect1_dropShadow"/>
<feBlend mode="normal" in="SourceGraphic" in2="effect1_dropShadow" result="shape"/>
</filter>
<filter id="filter2_d" x="140" y="64" width="70" height="64" filterUnits="userSpaceOnUse" color-interpolation-filters="sRGB">
<feFlood flood-opacity="0" result="BackgroundImageFix"/>
<feColorMatrix in="SourceAlpha" type="matrix" values="0 0 0 0 0 0 0 0 0 0 0 0 0 0 0 0 0 0 127 0"/>
<feOffset/>
<feGaussianBlur stdDeviation="15"/>
<feColorMatrix type="matrix" values="0 0 0 0 0 0 0 0 0 0 0 0 0 0 0 0 0 0 1 0"/>
<feBlend mode="normal" in2="BackgroundImageFix" result="effect1_dropShadow"/>
<feBlend mode="normal" in="SourceGraphic" in2="effect1_dropShadow" result="shape"/>
</filter>
<filter id="filter3_d" x="140" y="105" width="70" height="64" filterUnits="userSpaceOnUse" color-interpolation-filters="sRGB">
<feFlood flood-opacity="0" result="BackgroundImageFix"/>
<feColorMatrix in="SourceAlpha" type="matrix" values="0 0 0 0 0 0 0 0 0 0 0 0 0 0 0 0 0 0 127 0"/>
<feOffset/>
<feGaussianBlur stdDeviation="15"/>
<feColorMatrix type="matrix" values="0 0 0 0 0 0 0 0 0 0 0 0 0 0 0 0 0 0 1 0"/>
<feBlend mode="normal" in2="BackgroundImageFix" result="effect1_dropShadow"/>
<feBlend mode="normal" in="SourceGraphic" in2="effect1_dropShadow" result="shape"/>
</filter>
<linearGradient id="paint0_linear" x1="170" y1="34" x2="180" y2="34" gradientUnits="userSpaceOnUse">
<stop stop-color="#65A6F2"/>
<stop offset="1" stop-color="#22BBDD"/>
</linearGradient>
<linearGradient id="paint1_linear" x1="180" y1="55" x2="170" y2="55" gradientUnits="userSpaceOnUse">
<stop stop-color="#E01E73"/>
<stop offset="1" stop-color="#FF7272"/>
</linearGradient>
<linearGradient id="paint2_linear" x1="180" y1="76" x2="170" y2="76" gradientUnits="userSpaceOnUse">
<stop stop-color="#FF9D0A"/>
<stop offset="1" stop-color="#FEFFC7"/>
</linearGradient>
<linearGradient id="paint3_linear" x1="170" y1="98" x2="180" y2="98" gradientUnits="userSpaceOnUse">
<stop stop-color="#B4FABD"/>
<stop offset="1" stop-color="#22DD9A"/>
</linearGradient>
<linearGradient id="paint4_linear" x1="180" y1="119" x2="170" y2="119" gradientUnits="userSpaceOnUse">
<stop stop-color="#C41005"/>
<stop offset="1" stop-color="#DD5E16"/>
</linearGradient>
<linearGradient id="paint5_linear" x1="170" y1="139" x2="180" y2="139" gradientUnits="userSpaceOnUse">
<stop stop-color="#FA1DBC"/>
<stop offset="1" stop-color="#A122DD"/>
</linearGradient>
<linearGradient id="paint6_linear" x1="79.9839" y1="41.3443" x2="148.167" y2="41.3443" gradientUnits="userSpaceOnUse">
<stop stop-color="#489CFF"/>
<stop offset="1" stop-color="#3AD5F8"/>
</linearGradient>
<linearGradient id="paint7_linear" x1="3.96056e-07" y1="87.6387" x2="167.869" y2="87.6387" gradientUnits="userSpaceOnUse">
<stop stop-color="#E01E73"/>
<stop offset="1" stop-color="#FF7272"/>
</linearGradient>
<linearGradient id="paint8_linear" x1="35.3325" y1="41.6338" x2="82.1968" y2="41.6338" gradientUnits="userSpaceOnUse">
<stop stop-color="#FEFFC7"/>
<stop offset="1" stop-color="#FF9D0A"/>
</linearGradient>
<radialGradient id="paint9_radial" cx="0" cy="0" r="1" gradientUnits="userSpaceOnUse" gradientTransform="translate(79.6736 49.6735) scale(112)">
<stop stop-color="#24CBE5"/>
<stop offset="1" stop-color="#007F99"/>
</radialGradient>
<linearGradient id="paint10_linear" x1="70.5508" y1="41.3442" x2="80.4645" y2="41.3442" gradientUnits="userSpaceOnUse">
<stop stop-color="#C31005"/>
<stop offset="1" stop-color="#DD5E16"/>
</linearGradient>
<radialGradient id="paint11_radial" cx="0" cy="0" r="1" gradientUnits="userSpaceOnUse" gradientTransform="translate(79.6733 49.6735) scale(111.99 112)">
<stop stop-color="#FF9655"/>
<stop offset="1" stop-color="#B34A09"/>
</radialGradient>
</defs>
</svg>
