<svg width="382" height="169" viewBox="0 0 382 169" fill="none" xmlns="http://www.w3.org/2000/svg">
<g filter="url(#filter0_d)">
<line x1="172" y1="32" x2="178" y2="32" stroke="url(#paint0_linear)" stroke-width="4" stroke-linecap="round"/>
</g>
<line x1="172" y1="53" x2="178" y2="53" stroke="url(#paint1_linear)" stroke-width="4" stroke-linecap="round"/>
<g filter="url(#filter1_d)">
<line x1="172" y1="74" x2="178" y2="74" stroke="url(#paint2_linear)" stroke-width="4" stroke-linecap="round" stroke-linejoin="round"/>
</g>
<g filter="url(#filter2_d)">
<line x1="172" y1="96" x2="178" y2="96" stroke="url(#paint3_linear)" stroke-width="4" stroke-linecap="round"/>
</g>
<line x1="172" y1="117" x2="178" y2="117" stroke="url(#paint4_linear)" stroke-width="4" stroke-linecap="round"/>
<g filter="url(#filter3_d)">
<line x1="172" y1="137" x2="178" y2="137" stroke="url(#paint5_linear)" stroke-width="4" stroke-linecap="round"/>
</g>
<path d="M197.895 31.4648H198.492C199.051 31.4648 199.469 31.3555 199.746 31.1367C200.023 30.9141 200.162 30.5918 200.162 30.1699C200.162 29.7441 200.045 29.4297 199.811 29.2266C199.58 29.0234 199.217 28.9219 198.721 28.9219H197.895V31.4648ZM201.996 30.1055C201.996 31.0273 201.707 31.7324 201.129 32.2207C200.555 32.709 199.736 32.9531 198.674 32.9531H197.895V36H196.078V27.4336H198.814C199.854 27.4336 200.643 27.6582 201.182 28.1074C201.725 28.5527 201.996 29.2188 201.996 30.1055ZM207.129 29.3262C207.371 29.3262 207.572 29.3438 207.732 29.3789L207.598 31.0547C207.453 31.0156 207.277 30.9961 207.07 30.9961C206.5 30.9961 206.055 31.1426 205.734 31.4355C205.418 31.7285 205.26 32.1387 205.26 32.666V36H203.473V29.4492H204.826L205.09 30.5508H205.178C205.381 30.1836 205.654 29.8887 205.998 29.666C206.346 29.4395 206.723 29.3262 207.129 29.3262ZM211.635 30.5977C211.256 30.5977 210.959 30.7188 210.744 30.9609C210.529 31.1992 210.406 31.5391 210.375 31.9805H212.883C212.875 31.5391 212.76 31.1992 212.537 30.9609C212.314 30.7188 212.014 30.5977 211.635 30.5977ZM211.887 36.1172C210.832 36.1172 210.008 35.8262 209.414 35.2441C208.82 34.6621 208.523 33.8379 208.523 32.7715C208.523 31.6738 208.797 30.8262 209.344 30.2285C209.895 29.627 210.654 29.3262 211.623 29.3262C212.549 29.3262 213.27 29.5898 213.785 30.1172C214.301 30.6445 214.559 31.373 214.559 32.3027V33.1699H210.334C210.354 33.6777 210.504 34.0742 210.785 34.3594C211.066 34.6445 211.461 34.7871 211.969 34.7871C212.363 34.7871 212.736 34.7461 213.088 34.6641C213.439 34.582 213.807 34.4512 214.189 34.2715V35.6543C213.877 35.8105 213.543 35.9258 213.188 36C212.832 36.0781 212.398 36.1172 211.887 36.1172ZM220.582 34.0547C220.582 34.7266 220.348 35.2383 219.879 35.5898C219.414 35.9414 218.717 36.1172 217.787 36.1172C217.311 36.1172 216.904 36.084 216.568 36.0176C216.232 35.9551 215.918 35.8613 215.625 35.7363V34.2598C215.957 34.416 216.33 34.5469 216.744 34.6523C217.162 34.7578 217.529 34.8105 217.846 34.8105C218.494 34.8105 218.818 34.623 218.818 34.248C218.818 34.1074 218.775 33.9941 218.689 33.9082C218.604 33.8184 218.455 33.7188 218.244 33.6094C218.033 33.4961 217.752 33.3652 217.4 33.2168C216.896 33.0059 216.525 32.8105 216.287 32.6309C216.053 32.4512 215.881 32.2461 215.771 32.0156C215.666 31.7812 215.613 31.4941 215.613 31.1543C215.613 30.5723 215.838 30.123 216.287 29.8066C216.74 29.4863 217.381 29.3262 218.209 29.3262C218.998 29.3262 219.766 29.498 220.512 29.8418L219.973 31.1309C219.645 30.9902 219.338 30.875 219.053 30.7852C218.768 30.6953 218.477 30.6504 218.18 30.6504C217.652 30.6504 217.389 30.793 217.389 31.0781C217.389 31.2383 217.473 31.377 217.641 31.4941C217.812 31.6113 218.186 31.7852 218.76 32.0156C219.271 32.2227 219.646 32.416 219.885 32.5957C220.123 32.7754 220.299 32.9824 220.412 33.2168C220.525 33.4512 220.582 33.7305 220.582 34.0547ZM226.137 36L225.791 35.1094H225.744C225.443 35.4883 225.133 35.752 224.812 35.9004C224.496 36.0449 224.082 36.1172 223.57 36.1172C222.941 36.1172 222.445 35.9375 222.082 35.5781C221.723 35.2188 221.543 34.707 221.543 34.043C221.543 33.3477 221.785 32.8359 222.27 32.5078C222.758 32.1758 223.492 31.9922 224.473 31.957L225.609 31.9219V31.6348C225.609 30.9707 225.27 30.6387 224.59 30.6387C224.066 30.6387 223.451 30.7969 222.744 31.1133L222.152 29.9062C222.906 29.5117 223.742 29.3145 224.66 29.3145C225.539 29.3145 226.213 29.5059 226.682 29.8887C227.15 30.2715 227.385 30.8535 227.385 31.6348V36H226.137ZM225.609 32.9648L224.918 32.9883C224.398 33.0039 224.012 33.0977 223.758 33.2695C223.504 33.4414 223.377 33.7031 223.377 34.0547C223.377 34.5586 223.666 34.8105 224.244 34.8105C224.658 34.8105 224.988 34.6914 225.234 34.4531C225.484 34.2148 225.609 33.8984 225.609 33.5039V32.9648ZM231.018 36H229.23V26.8828H231.018V36ZM235.611 30.5977C235.232 30.5977 234.936 30.7188 234.721 30.9609C234.506 31.1992 234.383 31.5391 234.352 31.9805H236.859C236.852 31.5391 236.736 31.1992 236.514 30.9609C236.291 30.7188 235.99 30.5977 235.611 30.5977ZM235.863 36.1172C234.809 36.1172 233.984 35.8262 233.391 35.2441C232.797 34.6621 232.5 33.8379 232.5 32.7715C232.5 31.6738 232.773 30.8262 233.32 30.2285C233.871 29.627 234.631 29.3262 235.6 29.3262C236.525 29.3262 237.246 29.5898 237.762 30.1172C238.277 30.6445 238.535 31.373 238.535 32.3027V33.1699H234.311C234.33 33.6777 234.48 34.0742 234.762 34.3594C235.043 34.6445 235.438 34.7871 235.945 34.7871C236.34 34.7871 236.713 34.7461 237.064 34.6641C237.416 34.582 237.783 34.4512 238.166 34.2715V35.6543C237.854 35.8105 237.52 35.9258 237.164 36C236.809 36.0781 236.375 36.1172 235.863 36.1172ZM239.736 35.1621C239.736 34.834 239.824 34.5859 240 34.418C240.176 34.25 240.432 34.166 240.768 34.166C241.092 34.166 241.342 34.252 241.518 34.4238C241.697 34.5957 241.787 34.8418 241.787 35.1621C241.787 35.4707 241.697 35.7148 241.518 35.8945C241.338 36.0703 241.088 36.1582 240.768 36.1582C240.439 36.1582 240.186 36.0723 240.006 35.9004C239.826 35.7246 239.736 35.4785 239.736 35.1621ZM239.736 30.3223C239.736 29.9941 239.824 29.7461 240 29.5781C240.176 29.4102 240.432 29.3262 240.768 29.3262C241.092 29.3262 241.342 29.4121 241.518 29.584C241.697 29.7559 241.787 30.002 241.787 30.3223C241.787 30.6387 241.695 30.8848 241.512 31.0605C241.332 31.2324 241.084 31.3184 240.768 31.3184C240.439 31.3184 240.186 31.2324 240.006 31.0605C239.826 30.8887 239.736 30.6426 239.736 30.3223ZM248.736 30.8496C249.65 30.8496 250.369 31.0703 250.893 31.5117C251.42 31.9531 251.684 32.5605 251.684 33.334C251.684 34.2129 251.41 34.8965 250.863 35.3848C250.316 35.873 249.562 36.1172 248.602 36.1172C248.176 36.1172 247.771 36.0762 247.389 35.9941C247.006 35.9082 246.686 35.7871 246.428 35.6309V35.0273C246.85 35.2422 247.225 35.3926 247.553 35.4785C247.881 35.5605 248.23 35.6016 248.602 35.6016C249.352 35.6016 249.953 35.4043 250.406 35.0098C250.859 34.6113 251.086 34.0742 251.086 33.3984C251.086 32.7617 250.865 32.2617 250.424 31.8984C249.982 31.5352 249.383 31.3535 248.625 31.3535C248.117 31.3535 247.586 31.4297 247.031 31.582L246.68 31.3535L247.02 27.4336H251.145V27.9961H247.57L247.307 31.0195C247.916 30.9062 248.393 30.8496 248.736 30.8496ZM257.426 36L254.232 28.0898H254.186C254.217 28.5742 254.232 29.0703 254.232 29.5781V36H253.658V27.4336H254.584L257.619 34.9688H257.654L260.689 27.4336H261.592V36H260.988V29.5078C260.988 29.0547 261.012 28.5859 261.059 28.1016H261.012L257.807 36H257.426ZM269.578 33V32.5195H272.361V33H269.578ZM280.02 36H279.445V29.7598C279.445 29.1934 279.469 28.6055 279.516 27.9961C279.457 28.0547 279.396 28.1113 279.334 28.166C279.271 28.2207 278.668 28.6953 277.523 29.5898L277.189 29.1738L279.516 27.4336H280.02V36ZM288.902 36H283.541V35.4844L285.82 33.1055C286.461 32.4414 286.91 31.9336 287.168 31.582C287.426 31.2305 287.615 30.8945 287.736 30.5742C287.857 30.2539 287.918 29.918 287.918 29.5664C287.918 29.0547 287.75 28.6387 287.414 28.3184C287.078 27.998 286.643 27.8379 286.107 27.8379C285.393 27.8379 284.709 28.0977 284.057 28.6172L283.74 28.2129C284.455 27.6113 285.248 27.3105 286.119 27.3105C286.865 27.3105 287.451 27.5098 287.877 27.9082C288.307 28.3066 288.521 28.8555 288.521 29.5547C288.521 30.1211 288.377 30.6699 288.088 31.2012C287.803 31.7285 287.279 32.3809 286.518 33.1582L284.32 35.4141V35.4375H288.902V36ZM290.684 35.543C290.684 35.1602 290.84 34.9688 291.152 34.9688C291.473 34.9688 291.633 35.1602 291.633 35.543C291.633 35.9258 291.473 36.1172 291.152 36.1172C290.84 36.1172 290.684 35.9258 290.684 35.543ZM298.664 31.0664C298.664 32.1914 298.516 33.1328 298.219 33.8906C297.926 34.6484 297.496 35.209 296.93 35.5723C296.367 35.9355 295.686 36.1172 294.885 36.1172C294.479 36.1172 294.104 36.0664 293.76 35.9648V35.4609C293.928 35.5156 294.129 35.5586 294.363 35.5898C294.602 35.6172 294.783 35.6309 294.908 35.6309C295.873 35.6309 296.629 35.2832 297.176 34.5879C297.723 33.8887 298.027 32.8711 298.09 31.5352H298.02C297.734 31.9102 297.395 32.1992 297 32.4023C296.605 32.6016 296.193 32.7012 295.764 32.7012C294.971 32.7012 294.352 32.4824 293.906 32.0449C293.465 31.6074 293.244 30.9863 293.244 30.1816C293.244 29.3223 293.486 28.627 293.971 28.0957C294.459 27.5645 295.092 27.2988 295.869 27.2988C296.432 27.2988 296.924 27.4473 297.346 27.7441C297.768 28.0371 298.092 28.4688 298.318 29.0391C298.549 29.6094 298.664 30.2852 298.664 31.0664ZM295.869 27.8145C295.252 27.8145 294.76 28.0234 294.393 28.4414C294.025 28.8555 293.842 29.4238 293.842 30.1465C293.842 30.8262 294.012 31.3418 294.352 31.6934C294.691 32.0449 295.178 32.2207 295.811 32.2207C296.205 32.2207 296.572 32.1328 296.912 31.957C297.256 31.7812 297.527 31.5488 297.727 31.2598C297.93 30.9668 298.031 30.6699 298.031 30.3691C298.031 29.9121 297.939 29.4844 297.756 29.0859C297.576 28.6875 297.322 28.377 296.994 28.1543C296.67 27.9277 296.295 27.8145 295.869 27.8145ZM300.686 29.9883C300.686 30.7148 300.773 31.2617 300.949 31.6289C301.125 31.9922 301.4 32.1738 301.775 32.1738C302.529 32.1738 302.906 31.4453 302.906 29.9883C302.906 29.2695 302.809 28.7305 302.613 28.3711C302.422 28.0078 302.143 27.8262 301.775 27.8262C301.4 27.8262 301.125 28.0078 300.949 28.3711C300.773 28.7305 300.686 29.2695 300.686 29.9883ZM303.48 29.9883C303.48 30.8711 303.334 31.543 303.041 32.0039C302.748 32.4609 302.326 32.6895 301.775 32.6895C301.256 32.6895 300.848 32.4551 300.551 31.9863C300.258 31.5137 300.111 30.8477 300.111 29.9883C300.111 29.1172 300.252 28.4531 300.533 27.9961C300.814 27.5391 301.229 27.3105 301.775 27.3105C302.318 27.3105 302.738 27.5469 303.035 28.0195C303.332 28.4883 303.48 29.1445 303.48 29.9883ZM305.678 33.4336C305.678 34.1562 305.766 34.6992 305.941 35.0625C306.117 35.4219 306.393 35.6016 306.768 35.6016C307.521 35.6016 307.898 34.8789 307.898 33.4336C307.898 31.9922 307.521 31.2715 306.768 31.2715C306.393 31.2715 306.117 31.4512 305.941 31.8105C305.766 32.166 305.678 32.707 305.678 33.4336ZM308.473 33.4336C308.473 34.3164 308.328 34.9883 308.039 35.4492C307.75 35.9062 307.33 36.1348 306.779 36.1348C306.248 36.1348 305.836 35.8984 305.543 35.4258C305.25 34.9492 305.104 34.2852 305.104 33.4336C305.104 32.5547 305.246 31.8887 305.531 31.4355C305.82 30.9824 306.236 30.7559 306.779 30.7559C307.314 30.7559 307.73 30.9902 308.027 31.459C308.324 31.9277 308.473 32.5859 308.473 33.4336ZM306.949 27.4336L302.197 36H301.635L306.387 27.4336H306.949Z" fill="white"/>
<path d="M197.895 52.4648H198.492C199.051 52.4648 199.469 52.3555 199.746 52.1367C200.023 51.9141 200.162 51.5918 200.162 51.1699C200.162 50.7441 200.045 50.4297 199.811 50.2266C199.58 50.0234 199.217 49.9219 198.721 49.9219H197.895V52.4648ZM201.996 51.1055C201.996 52.0273 201.707 52.7324 201.129 53.2207C200.555 53.709 199.736 53.9531 198.674 53.9531H197.895V57H196.078V48.4336H198.814C199.854 48.4336 200.643 48.6582 201.182 49.1074C201.725 49.5527 201.996 50.2188 201.996 51.1055ZM208.113 57L207.873 56.1621H207.779C207.588 56.4668 207.316 56.7031 206.965 56.8711C206.613 57.0352 206.213 57.1172 205.764 57.1172C204.994 57.1172 204.414 56.9121 204.023 56.502C203.633 56.0879 203.438 55.4941 203.438 54.7207V50.4492H205.225V54.2754C205.225 54.748 205.309 55.1035 205.477 55.3418C205.645 55.5762 205.912 55.6934 206.279 55.6934C206.779 55.6934 207.141 55.5273 207.363 55.1953C207.586 54.8594 207.697 54.3047 207.697 53.5312V50.4492H209.484V57H208.113ZM215.004 50.3262C215.777 50.3262 216.383 50.6289 216.82 51.2344C217.258 51.8359 217.477 52.6621 217.477 53.7129C217.477 54.7949 217.25 55.6328 216.797 56.2266C216.348 56.8203 215.734 57.1172 214.957 57.1172C214.188 57.1172 213.584 56.8379 213.146 56.2793H213.023L212.725 57H211.359V47.8828H213.146V50.0039C213.146 50.2734 213.123 50.7051 213.076 51.2988H213.146C213.564 50.6504 214.184 50.3262 215.004 50.3262ZM214.43 51.7559C213.988 51.7559 213.666 51.8926 213.463 52.166C213.26 52.4355 213.154 52.8828 213.146 53.5078V53.7012C213.146 54.4043 213.25 54.9082 213.457 55.2129C213.668 55.5176 214 55.6699 214.453 55.6699C214.82 55.6699 215.111 55.502 215.326 55.166C215.545 54.8262 215.654 54.334 215.654 53.6895C215.654 53.0449 215.545 52.5625 215.326 52.2422C215.107 51.918 214.809 51.7559 214.43 51.7559ZM220.74 57H218.953V47.8828H220.74V57ZM222.545 48.7559C222.545 48.1738 222.869 47.8828 223.518 47.8828C224.166 47.8828 224.49 48.1738 224.49 48.7559C224.49 49.0332 224.408 49.25 224.244 49.4062C224.084 49.5586 223.842 49.6348 223.518 49.6348C222.869 49.6348 222.545 49.3418 222.545 48.7559ZM224.408 57H222.621V50.4492H224.408V57ZM228.949 57.1172C226.91 57.1172 225.891 55.998 225.891 53.7598C225.891 52.6465 226.168 51.7969 226.723 51.2109C227.277 50.6211 228.072 50.3262 229.107 50.3262C229.865 50.3262 230.545 50.4746 231.146 50.7715L230.619 52.1543C230.338 52.041 230.076 51.9492 229.834 51.8789C229.592 51.8047 229.35 51.7676 229.107 51.7676C228.178 51.7676 227.713 52.4277 227.713 53.748C227.713 55.0293 228.178 55.6699 229.107 55.6699C229.451 55.6699 229.77 55.625 230.062 55.5352C230.355 55.4414 230.648 55.2969 230.941 55.1016V56.6309C230.652 56.8145 230.359 56.9414 230.062 57.0117C229.77 57.082 229.398 57.1172 228.949 57.1172ZM232.213 56.1621C232.213 55.834 232.301 55.5859 232.477 55.418C232.652 55.25 232.908 55.166 233.244 55.166C233.568 55.166 233.818 55.252 233.994 55.4238C234.174 55.5957 234.264 55.8418 234.264 56.1621C234.264 56.4707 234.174 56.7148 233.994 56.8945C233.814 57.0703 233.564 57.1582 233.244 57.1582C232.916 57.1582 232.662 57.0723 232.482 56.9004C232.303 56.7246 232.213 56.4785 232.213 56.1621ZM232.213 51.3223C232.213 50.9941 232.301 50.7461 232.477 50.5781C232.652 50.4102 232.908 50.3262 233.244 50.3262C233.568 50.3262 233.818 50.4121 233.994 50.584C234.174 50.7559 234.264 51.002 234.264 51.3223C234.264 51.6387 234.172 51.8848 233.988 52.0605C233.809 52.2324 233.561 52.3184 233.244 52.3184C232.916 52.3184 232.662 52.2324 232.482 52.0605C232.303 51.8887 232.213 51.6426 232.213 51.3223ZM244.09 57H238.729V56.4844L241.008 54.1055C241.648 53.4414 242.098 52.9336 242.355 52.582C242.613 52.2305 242.803 51.8945 242.924 51.5742C243.045 51.2539 243.105 50.918 243.105 50.5664C243.105 50.0547 242.938 49.6387 242.602 49.3184C242.266 48.998 241.83 48.8379 241.295 48.8379C240.58 48.8379 239.896 49.0977 239.244 49.6172L238.928 49.2129C239.643 48.6113 240.436 48.3105 241.307 48.3105C242.053 48.3105 242.639 48.5098 243.064 48.9082C243.494 49.3066 243.709 49.8555 243.709 50.5547C243.709 51.1211 243.564 51.6699 243.275 52.2012C242.99 52.7285 242.467 53.3809 241.705 54.1582L239.508 56.4141V56.4375H244.09V57ZM248.068 51.8496C248.982 51.8496 249.701 52.0703 250.225 52.5117C250.752 52.9531 251.016 53.5605 251.016 54.334C251.016 55.2129 250.742 55.8965 250.195 56.3848C249.648 56.873 248.895 57.1172 247.934 57.1172C247.508 57.1172 247.104 57.0762 246.721 56.9941C246.338 56.9082 246.018 56.7871 245.76 56.6309V56.0273C246.182 56.2422 246.557 56.3926 246.885 56.4785C247.213 56.5605 247.562 56.6016 247.934 56.6016C248.684 56.6016 249.285 56.4043 249.738 56.0098C250.191 55.6113 250.418 55.0742 250.418 54.3984C250.418 53.7617 250.197 53.2617 249.756 52.8984C249.314 52.5352 248.715 52.3535 247.957 52.3535C247.449 52.3535 246.918 52.4297 246.363 52.582L246.012 52.3535L246.352 48.4336H250.477V48.9961H246.902L246.639 52.0195C247.248 51.9062 247.725 51.8496 248.068 51.8496ZM256.758 57L253.564 49.0898H253.518C253.549 49.5742 253.564 50.0703 253.564 50.5781V57H252.99V48.4336H253.916L256.951 55.9688H256.986L260.021 48.4336H260.924V57H260.32V50.5078C260.32 50.0547 260.344 49.5859 260.391 49.1016H260.344L257.139 57H256.758ZM268.91 54V53.5195H271.693V54H268.91ZM276.123 53.3496C276.123 52.2363 276.273 51.3008 276.574 50.543C276.879 49.7812 277.309 49.2168 277.863 48.8496C278.422 48.4824 279.094 48.2988 279.879 48.2988C280.246 48.2988 280.582 48.3438 280.887 48.4336V48.9492C280.602 48.8438 280.258 48.791 279.855 48.791C278.891 48.791 278.139 49.1387 277.6 49.834C277.064 50.5293 276.764 51.541 276.697 52.8691H276.773C277.07 52.4863 277.41 52.1973 277.793 52.002C278.176 51.8066 278.58 51.709 279.006 51.709C279.807 51.709 280.432 51.9375 280.881 52.3945C281.334 52.8516 281.561 53.4824 281.561 54.2871C281.561 55.1621 281.322 55.8535 280.846 56.3613C280.373 56.8652 279.734 57.1172 278.93 57.1172C278.062 57.1172 277.377 56.7871 276.873 56.127C276.373 55.4629 276.123 54.5371 276.123 53.3496ZM278.93 56.6016C279.57 56.6016 280.068 56.4004 280.424 55.998C280.779 55.5957 280.957 55.0215 280.957 54.2754C280.957 53.6191 280.781 53.1074 280.43 52.7402C280.078 52.373 279.6 52.1895 278.994 52.1895C278.596 52.1895 278.225 52.2773 277.881 52.4531C277.541 52.6289 277.27 52.8633 277.066 53.1562C276.863 53.4453 276.762 53.7422 276.762 54.0469C276.762 54.4805 276.857 54.8984 277.049 55.3008C277.244 55.6992 277.506 56.0156 277.834 56.25C278.166 56.4844 278.531 56.6016 278.93 56.6016ZM288.896 54.8145H287.42V57H286.869V54.8145H282.463V54.4219L286.711 48.3867H287.42V54.3105H288.896V54.8145ZM286.869 54.3105V51.8613C286.869 50.6816 286.896 49.6914 286.951 48.8906H286.904C286.826 49.0352 286.586 49.4023 286.184 49.9922L283.16 54.3105H286.869ZM290.016 56.543C290.016 56.1602 290.172 55.9688 290.484 55.9688C290.805 55.9688 290.965 56.1602 290.965 56.543C290.965 56.9258 290.805 57.1172 290.484 57.1172C290.172 57.1172 290.016 56.9258 290.016 56.543ZM297.662 50.4492C297.662 50.9805 297.494 51.4277 297.158 51.791C296.826 52.1543 296.379 52.3867 295.816 52.4883V52.5234C296.504 52.6094 297.027 52.8281 297.387 53.1797C297.746 53.5312 297.926 54.0039 297.926 54.5977C297.926 55.3984 297.652 56.0195 297.105 56.4609C296.562 56.8984 295.779 57.1172 294.756 57.1172C293.885 57.1172 293.125 56.9551 292.477 56.6309V56.0508C292.805 56.2227 293.172 56.3574 293.578 56.4551C293.988 56.5527 294.373 56.6016 294.732 56.6016C295.596 56.6016 296.244 56.4277 296.678 56.0801C297.111 55.7285 297.328 55.2344 297.328 54.5977C297.328 54.0312 297.105 53.5957 296.66 53.291C296.219 52.9863 295.568 52.834 294.709 52.834H293.783V52.2715H294.721C295.432 52.2715 295.994 52.1035 296.408 51.7676C296.826 51.4277 297.035 50.9688 297.035 50.3906C297.035 49.9141 296.865 49.5332 296.525 49.248C296.189 48.959 295.748 48.8145 295.201 48.8145C294.775 48.8145 294.387 48.875 294.035 48.9961C293.684 49.1133 293.289 49.3164 292.852 49.6055L292.564 49.2129C292.896 48.9355 293.297 48.7168 293.766 48.5566C294.234 48.3926 294.709 48.3105 295.189 48.3105C295.979 48.3105 296.588 48.498 297.018 48.873C297.447 49.2441 297.662 49.7695 297.662 50.4492ZM300.018 50.9883C300.018 51.7148 300.105 52.2617 300.281 52.6289C300.457 52.9922 300.732 53.1738 301.107 53.1738C301.861 53.1738 302.238 52.4453 302.238 50.9883C302.238 50.2695 302.141 49.7305 301.945 49.3711C301.754 49.0078 301.475 48.8262 301.107 48.8262C300.732 48.8262 300.457 49.0078 300.281 49.3711C300.105 49.7305 300.018 50.2695 300.018 50.9883ZM302.812 50.9883C302.812 51.8711 302.666 52.543 302.373 53.0039C302.08 53.4609 301.658 53.6895 301.107 53.6895C300.588 53.6895 300.18 53.4551 299.883 52.9863C299.59 52.5137 299.443 51.8477 299.443 50.9883C299.443 50.1172 299.584 49.4531 299.865 48.9961C300.146 48.5391 300.561 48.3105 301.107 48.3105C301.65 48.3105 302.07 48.5469 302.367 49.0195C302.664 49.4883 302.812 50.1445 302.812 50.9883ZM305.01 54.4336C305.01 55.1562 305.098 55.6992 305.273 56.0625C305.449 56.4219 305.725 56.6016 306.1 56.6016C306.854 56.6016 307.23 55.8789 307.23 54.4336C307.23 52.9922 306.854 52.2715 306.1 52.2715C305.725 52.2715 305.449 52.4512 305.273 52.8105C305.098 53.166 305.01 53.707 305.01 54.4336ZM307.805 54.4336C307.805 55.3164 307.66 55.9883 307.371 56.4492C307.082 56.9062 306.662 57.1348 306.111 57.1348C305.58 57.1348 305.168 56.8984 304.875 56.4258C304.582 55.9492 304.436 55.2852 304.436 54.4336C304.436 53.5547 304.578 52.8887 304.863 52.4355C305.152 51.9824 305.568 51.7559 306.111 51.7559C306.646 51.7559 307.062 51.9902 307.359 52.459C307.656 52.9277 307.805 53.5859 307.805 54.4336ZM306.281 48.4336L301.529 57H300.967L305.719 48.4336H306.281Z" fill="white"/>
<path d="M197.865 78H196.078V69.4336H200.988V70.9219H197.865V73.1309H200.771V74.6133H197.865V78ZM203.947 74.7129C203.947 75.3613 204.053 75.8516 204.264 76.1836C204.479 76.5156 204.826 76.6816 205.307 76.6816C205.783 76.6816 206.125 76.5176 206.332 76.1895C206.543 75.8574 206.648 75.3652 206.648 74.7129C206.648 74.0645 206.543 73.5781 206.332 73.2539C206.121 72.9297 205.775 72.7676 205.295 72.7676C204.818 72.7676 204.475 72.9297 204.264 73.2539C204.053 73.5742 203.947 74.0605 203.947 74.7129ZM208.477 74.7129C208.477 75.7793 208.195 76.6133 207.633 77.2148C207.07 77.8164 206.287 78.1172 205.283 78.1172C204.654 78.1172 204.1 77.9805 203.619 77.707C203.139 77.4297 202.77 77.0332 202.512 76.5176C202.254 76.002 202.125 75.4004 202.125 74.7129C202.125 73.6426 202.404 72.8105 202.963 72.2168C203.521 71.623 204.307 71.3262 205.318 71.3262C205.947 71.3262 206.502 71.4629 206.982 71.7363C207.463 72.0098 207.832 72.4023 208.09 72.9141C208.348 73.4258 208.477 74.0254 208.477 74.7129ZM214.594 78L214.354 77.1621H214.26C214.068 77.4668 213.797 77.7031 213.445 77.8711C213.094 78.0352 212.693 78.1172 212.244 78.1172C211.475 78.1172 210.895 77.9121 210.504 77.502C210.113 77.0879 209.918 76.4941 209.918 75.7207V71.4492H211.705V75.2754C211.705 75.748 211.789 76.1035 211.957 76.3418C212.125 76.5762 212.393 76.6934 212.76 76.6934C213.26 76.6934 213.621 76.5273 213.844 76.1953C214.066 75.8594 214.178 75.3047 214.178 74.5312V71.4492H215.965V78H214.594ZM223.887 78H222.1V74.1738C222.1 73.7012 222.016 73.3477 221.848 73.1133C221.68 72.875 221.412 72.7559 221.045 72.7559C220.545 72.7559 220.184 72.9238 219.961 73.2598C219.738 73.5918 219.627 74.1445 219.627 74.918V78H217.84V71.4492H219.205L219.445 72.2871H219.545C219.744 71.9707 220.018 71.7324 220.365 71.5723C220.717 71.4082 221.115 71.3262 221.561 71.3262C222.322 71.3262 222.9 71.5332 223.295 71.9473C223.689 72.3574 223.887 72.9512 223.887 73.7285V78ZM227.801 78.1172C227.031 78.1172 226.426 77.8184 225.984 77.2207C225.547 76.623 225.328 75.7949 225.328 74.7363C225.328 73.6621 225.551 72.8262 225.996 72.2285C226.445 71.627 227.062 71.3262 227.848 71.3262C228.672 71.3262 229.301 71.6465 229.734 72.2871H229.793C229.703 71.7988 229.658 71.3633 229.658 70.9805V68.8828H231.451V78H230.08L229.734 77.1504H229.658C229.252 77.7949 228.633 78.1172 227.801 78.1172ZM228.428 76.6934C228.885 76.6934 229.219 76.5605 229.43 76.2949C229.645 76.0293 229.762 75.5781 229.781 74.9414V74.748C229.781 74.0449 229.672 73.541 229.453 73.2363C229.238 72.9316 228.887 72.7793 228.398 72.7793C228 72.7793 227.689 72.9492 227.467 73.2891C227.248 73.625 227.139 74.1152 227.139 74.7598C227.139 75.4043 227.25 75.8887 227.473 76.2129C227.695 76.5332 228.014 76.6934 228.428 76.6934ZM241.512 78H236.578V69.4336H241.512V70.9219H238.395V72.8027H241.295V74.291H238.395V76.5H241.512V78ZM245.824 78.1172C243.785 78.1172 242.766 76.998 242.766 74.7598C242.766 73.6465 243.043 72.7969 243.598 72.2109C244.152 71.6211 244.947 71.3262 245.982 71.3262C246.74 71.3262 247.42 71.4746 248.021 71.7715L247.494 73.1543C247.213 73.041 246.951 72.9492 246.709 72.8789C246.467 72.8047 246.225 72.7676 245.982 72.7676C245.053 72.7676 244.588 73.4277 244.588 74.748C244.588 76.0293 245.053 76.6699 245.982 76.6699C246.326 76.6699 246.645 76.625 246.938 76.5352C247.23 76.4414 247.523 76.2969 247.816 76.1016V77.6309C247.527 77.8145 247.234 77.9414 246.938 78.0117C246.645 78.082 246.273 78.1172 245.824 78.1172ZM250.764 74.7129C250.764 75.3613 250.869 75.8516 251.08 76.1836C251.295 76.5156 251.643 76.6816 252.123 76.6816C252.6 76.6816 252.941 76.5176 253.148 76.1895C253.359 75.8574 253.465 75.3652 253.465 74.7129C253.465 74.0645 253.359 73.5781 253.148 73.2539C252.938 72.9297 252.592 72.7676 252.111 72.7676C251.635 72.7676 251.291 72.9297 251.08 73.2539C250.869 73.5742 250.764 74.0605 250.764 74.7129ZM255.293 74.7129C255.293 75.7793 255.012 76.6133 254.449 77.2148C253.887 77.8164 253.104 78.1172 252.1 78.1172C251.471 78.1172 250.916 77.9805 250.436 77.707C249.955 77.4297 249.586 77.0332 249.328 76.5176C249.07 76.002 248.941 75.4004 248.941 74.7129C248.941 73.6426 249.221 72.8105 249.779 72.2168C250.338 71.623 251.123 71.3262 252.135 71.3262C252.764 71.3262 253.318 71.4629 253.799 71.7363C254.279 72.0098 254.648 72.4023 254.906 72.9141C255.164 73.4258 255.293 74.0254 255.293 74.7129ZM261.34 76.0547C261.34 76.7266 261.105 77.2383 260.637 77.5898C260.172 77.9414 259.475 78.1172 258.545 78.1172C258.068 78.1172 257.662 78.084 257.326 78.0176C256.99 77.9551 256.676 77.8613 256.383 77.7363V76.2598C256.715 76.416 257.088 76.5469 257.502 76.6523C257.92 76.7578 258.287 76.8105 258.604 76.8105C259.252 76.8105 259.576 76.623 259.576 76.248C259.576 76.1074 259.533 75.9941 259.447 75.9082C259.361 75.8184 259.213 75.7188 259.002 75.6094C258.791 75.4961 258.51 75.3652 258.158 75.2168C257.654 75.0059 257.283 74.8105 257.045 74.6309C256.811 74.4512 256.639 74.2461 256.529 74.0156C256.424 73.7812 256.371 73.4941 256.371 73.1543C256.371 72.5723 256.596 72.123 257.045 71.8066C257.498 71.4863 258.139 71.3262 258.967 71.3262C259.756 71.3262 260.523 71.498 261.27 71.8418L260.73 73.1309C260.402 72.9902 260.096 72.875 259.811 72.7852C259.525 72.6953 259.234 72.6504 258.938 72.6504C258.41 72.6504 258.146 72.793 258.146 73.0781C258.146 73.2383 258.23 73.377 258.398 73.4941C258.57 73.6113 258.943 73.7852 259.518 74.0156C260.029 74.2227 260.404 74.416 260.643 74.5957C260.881 74.7754 261.057 74.9824 261.17 75.2168C261.283 75.4512 261.34 75.7305 261.34 76.0547ZM261.797 71.4492H263.754L264.99 75.1348C265.096 75.4551 265.168 75.834 265.207 76.2715H265.242C265.285 75.8691 265.369 75.4902 265.494 75.1348L266.707 71.4492H268.623L265.852 78.8379C265.598 79.5215 265.234 80.0332 264.762 80.373C264.293 80.7129 263.744 80.8828 263.115 80.8828C262.807 80.8828 262.504 80.8496 262.207 80.7832V79.3652C262.422 79.416 262.656 79.4414 262.91 79.4414C263.227 79.4414 263.502 79.3438 263.736 79.1484C263.975 78.957 264.16 78.666 264.293 78.2754L264.398 77.9531L261.797 71.4492ZM274.137 76.0547C274.137 76.7266 273.902 77.2383 273.434 77.5898C272.969 77.9414 272.271 78.1172 271.342 78.1172C270.865 78.1172 270.459 78.084 270.123 78.0176C269.787 77.9551 269.473 77.8613 269.18 77.7363V76.2598C269.512 76.416 269.885 76.5469 270.299 76.6523C270.717 76.7578 271.084 76.8105 271.4 76.8105C272.049 76.8105 272.373 76.623 272.373 76.248C272.373 76.1074 272.33 75.9941 272.244 75.9082C272.158 75.8184 272.01 75.7188 271.799 75.6094C271.588 75.4961 271.307 75.3652 270.955 75.2168C270.451 75.0059 270.08 74.8105 269.842 74.6309C269.607 74.4512 269.436 74.2461 269.326 74.0156C269.221 73.7812 269.168 73.4941 269.168 73.1543C269.168 72.5723 269.393 72.123 269.842 71.8066C270.295 71.4863 270.936 71.3262 271.764 71.3262C272.553 71.3262 273.32 71.498 274.066 71.8418L273.527 73.1309C273.199 72.9902 272.893 72.875 272.607 72.7852C272.322 72.6953 272.031 72.6504 271.734 72.6504C271.207 72.6504 270.943 72.793 270.943 73.0781C270.943 73.2383 271.027 73.377 271.195 73.4941C271.367 73.6113 271.74 73.7852 272.314 74.0156C272.826 74.2227 273.201 74.416 273.439 74.5957C273.678 74.7754 273.854 74.9824 273.967 75.2168C274.08 75.4512 274.137 75.7305 274.137 76.0547ZM278.291 76.6934C278.604 76.6934 278.979 76.625 279.416 76.4883V77.8184C278.971 78.0176 278.424 78.1172 277.775 78.1172C277.061 78.1172 276.539 77.9375 276.211 77.5781C275.887 77.2148 275.725 76.6719 275.725 75.9492V72.791H274.869V72.0352L275.854 71.4375L276.369 70.0547H277.512V71.4492H279.346V72.791H277.512V75.9492C277.512 76.2031 277.582 76.3906 277.723 76.5117C277.867 76.6328 278.057 76.6934 278.291 76.6934ZM283.459 72.5977C283.08 72.5977 282.783 72.7188 282.568 72.9609C282.354 73.1992 282.23 73.5391 282.199 73.9805H284.707C284.699 73.5391 284.584 73.1992 284.361 72.9609C284.139 72.7188 283.838 72.5977 283.459 72.5977ZM283.711 78.1172C282.656 78.1172 281.832 77.8262 281.238 77.2441C280.645 76.6621 280.348 75.8379 280.348 74.7715C280.348 73.6738 280.621 72.8262 281.168 72.2285C281.719 71.627 282.479 71.3262 283.447 71.3262C284.373 71.3262 285.094 71.5898 285.609 72.1172C286.125 72.6445 286.383 73.373 286.383 74.3027V75.1699H282.158C282.178 75.6777 282.328 76.0742 282.609 76.3594C282.891 76.6445 283.285 76.7871 283.793 76.7871C284.188 76.7871 284.561 76.7461 284.912 76.6641C285.264 76.582 285.631 76.4512 286.014 76.2715V77.6543C285.701 77.8105 285.367 77.9258 285.012 78C284.656 78.0781 284.223 78.1172 283.711 78.1172ZM293.701 78H291.914V74.1738C291.914 73.7012 291.834 73.3477 291.674 73.1133C291.518 72.875 291.27 72.7559 290.93 72.7559C290.473 72.7559 290.141 72.9238 289.934 73.2598C289.727 73.5957 289.623 74.1484 289.623 74.918V78H287.836V71.4492H289.201L289.441 72.2871H289.541C289.717 71.9863 289.971 71.752 290.303 71.584C290.635 71.4121 291.016 71.3262 291.445 71.3262C292.426 71.3262 293.09 71.6465 293.438 72.2871H293.596C293.771 71.9824 294.029 71.7461 294.369 71.5781C294.713 71.4102 295.1 71.3262 295.529 71.3262C296.271 71.3262 296.832 71.5176 297.211 71.9004C297.594 72.2793 297.785 72.8887 297.785 73.7285V78H295.992V74.1738C295.992 73.7012 295.912 73.3477 295.752 73.1133C295.596 72.875 295.348 72.7559 295.008 72.7559C294.57 72.7559 294.242 72.9121 294.023 73.2246C293.809 73.5371 293.701 74.0332 293.701 74.7129V78ZM299.373 77.1621C299.373 76.834 299.461 76.5859 299.637 76.418C299.812 76.25 300.068 76.166 300.404 76.166C300.729 76.166 300.979 76.252 301.154 76.4238C301.334 76.5957 301.424 76.8418 301.424 77.1621C301.424 77.4707 301.334 77.7148 301.154 77.8945C300.975 78.0703 300.725 78.1582 300.404 78.1582C300.076 78.1582 299.822 78.0723 299.643 77.9004C299.463 77.7246 299.373 77.4785 299.373 77.1621ZM299.373 72.3223C299.373 71.9941 299.461 71.7461 299.637 71.5781C299.812 71.4102 300.068 71.3262 300.404 71.3262C300.729 71.3262 300.979 71.4121 301.154 71.584C301.334 71.7559 301.424 72.002 301.424 72.3223C301.424 72.6387 301.332 72.8848 301.148 73.0605C300.969 73.2324 300.721 73.3184 300.404 73.3184C300.076 73.3184 299.822 73.2324 299.643 73.0605C299.463 72.8887 299.373 72.6426 299.373 72.3223ZM308.373 72.8496C309.287 72.8496 310.006 73.0703 310.529 73.5117C311.057 73.9531 311.32 74.5605 311.32 75.334C311.32 76.2129 311.047 76.8965 310.5 77.3848C309.953 77.873 309.199 78.1172 308.238 78.1172C307.812 78.1172 307.408 78.0762 307.025 77.9941C306.643 77.9082 306.322 77.7871 306.064 77.6309V77.0273C306.486 77.2422 306.861 77.3926 307.189 77.4785C307.518 77.5605 307.867 77.6016 308.238 77.6016C308.988 77.6016 309.59 77.4043 310.043 77.0098C310.496 76.6113 310.723 76.0742 310.723 75.3984C310.723 74.7617 310.502 74.2617 310.061 73.8984C309.619 73.5352 309.02 73.3535 308.262 73.3535C307.754 73.3535 307.223 73.4297 306.668 73.582L306.316 73.3535L306.656 69.4336H310.781V69.9961H307.207L306.943 73.0195C307.553 72.9062 308.029 72.8496 308.373 72.8496ZM317.062 78L313.869 70.0898H313.822C313.854 70.5742 313.869 71.0703 313.869 71.5781V78H313.295V69.4336H314.221L317.256 76.9688H317.291L320.326 69.4336H321.229V78H320.625V71.5078C320.625 71.0547 320.648 70.5859 320.695 70.1016H320.648L317.443 78H317.062ZM329.215 75V74.5195H331.998V75H329.215ZM339.656 78H339.082V71.7598C339.082 71.1934 339.105 70.6055 339.152 69.9961C339.094 70.0547 339.033 70.1113 338.971 70.166C338.908 70.2207 338.305 70.6953 337.16 71.5898L336.826 71.1738L339.152 69.4336H339.656V78ZM348.539 78H343.178V77.4844L345.457 75.1055C346.098 74.4414 346.547 73.9336 346.805 73.582C347.062 73.2305 347.252 72.8945 347.373 72.5742C347.494 72.2539 347.555 71.918 347.555 71.5664C347.555 71.0547 347.387 70.6387 347.051 70.3184C346.715 69.998 346.279 69.8379 345.744 69.8379C345.029 69.8379 344.346 70.0977 343.693 70.6172L343.377 70.2129C344.092 69.6113 344.885 69.3105 345.756 69.3105C346.502 69.3105 347.088 69.5098 347.514 69.9082C347.943 70.3066 348.158 70.8555 348.158 71.5547C348.158 72.1211 348.014 72.6699 347.725 73.2012C347.439 73.7285 346.916 74.3809 346.154 75.1582L343.957 77.4141V77.4375H348.539V78ZM350.32 77.543C350.32 77.1602 350.477 76.9688 350.789 76.9688C351.109 76.9688 351.27 77.1602 351.27 77.543C351.27 77.9258 351.109 78.1172 350.789 78.1172C350.477 78.1172 350.32 77.9258 350.32 77.543ZM358.301 73.0664C358.301 74.1914 358.152 75.1328 357.855 75.8906C357.562 76.6484 357.133 77.209 356.566 77.5723C356.004 77.9355 355.322 78.1172 354.521 78.1172C354.115 78.1172 353.74 78.0664 353.396 77.9648V77.4609C353.564 77.5156 353.766 77.5586 354 77.5898C354.238 77.6172 354.42 77.6309 354.545 77.6309C355.51 77.6309 356.266 77.2832 356.812 76.5879C357.359 75.8887 357.664 74.8711 357.727 73.5352H357.656C357.371 73.9102 357.031 74.1992 356.637 74.4023C356.242 74.6016 355.83 74.7012 355.4 74.7012C354.607 74.7012 353.988 74.4824 353.543 74.0449C353.102 73.6074 352.881 72.9863 352.881 72.1816C352.881 71.3223 353.123 70.627 353.607 70.0957C354.096 69.5645 354.729 69.2988 355.506 69.2988C356.068 69.2988 356.561 69.4473 356.982 69.7441C357.404 70.0371 357.729 70.4688 357.955 71.0391C358.186 71.6094 358.301 72.2852 358.301 73.0664ZM355.506 69.8145C354.889 69.8145 354.396 70.0234 354.029 70.4414C353.662 70.8555 353.479 71.4238 353.479 72.1465C353.479 72.8262 353.648 73.3418 353.988 73.6934C354.328 74.0449 354.814 74.2207 355.447 74.2207C355.842 74.2207 356.209 74.1328 356.549 73.957C356.893 73.7812 357.164 73.5488 357.363 73.2598C357.566 72.9668 357.668 72.6699 357.668 72.3691C357.668 71.9121 357.576 71.4844 357.393 71.0859C357.213 70.6875 356.959 70.377 356.631 70.1543C356.307 69.9277 355.932 69.8145 355.506 69.8145ZM360.322 71.9883C360.322 72.7148 360.41 73.2617 360.586 73.6289C360.762 73.9922 361.037 74.1738 361.412 74.1738C362.166 74.1738 362.543 73.4453 362.543 71.9883C362.543 71.2695 362.445 70.7305 362.25 70.3711C362.059 70.0078 361.779 69.8262 361.412 69.8262C361.037 69.8262 360.762 70.0078 360.586 70.3711C360.41 70.7305 360.322 71.2695 360.322 71.9883ZM363.117 71.9883C363.117 72.8711 362.971 73.543 362.678 74.0039C362.385 74.4609 361.963 74.6895 361.412 74.6895C360.893 74.6895 360.484 74.4551 360.188 73.9863C359.895 73.5137 359.748 72.8477 359.748 71.9883C359.748 71.1172 359.889 70.4531 360.17 69.9961C360.451 69.5391 360.865 69.3105 361.412 69.3105C361.955 69.3105 362.375 69.5469 362.672 70.0195C362.969 70.4883 363.117 71.1445 363.117 71.9883ZM365.314 75.4336C365.314 76.1562 365.402 76.6992 365.578 77.0625C365.754 77.4219 366.029 77.6016 366.404 77.6016C367.158 77.6016 367.535 76.8789 367.535 75.4336C367.535 73.9922 367.158 73.2715 366.404 73.2715C366.029 73.2715 365.754 73.4512 365.578 73.8105C365.402 74.166 365.314 74.707 365.314 75.4336ZM368.109 75.4336C368.109 76.3164 367.965 76.9883 367.676 77.4492C367.387 77.9062 366.967 78.1348 366.416 78.1348C365.885 78.1348 365.473 77.8984 365.18 77.4258C364.887 76.9492 364.74 76.2852 364.74 75.4336C364.74 74.5547 364.883 73.8887 365.168 73.4355C365.457 72.9824 365.873 72.7559 366.416 72.7559C366.951 72.7559 367.367 72.9902 367.664 73.459C367.961 73.9277 368.109 74.5859 368.109 75.4336ZM366.586 69.4336L361.834 78H361.271L366.023 69.4336H366.586Z" fill="white"/>
<path d="M197.865 99H196.078V90.4336H200.988V91.9219H197.865V94.1309H200.771V95.6133H197.865V99ZM203.947 95.7129C203.947 96.3613 204.053 96.8516 204.264 97.1836C204.479 97.5156 204.826 97.6816 205.307 97.6816C205.783 97.6816 206.125 97.5176 206.332 97.1895C206.543 96.8574 206.648 96.3652 206.648 95.7129C206.648 95.0645 206.543 94.5781 206.332 94.2539C206.121 93.9297 205.775 93.7676 205.295 93.7676C204.818 93.7676 204.475 93.9297 204.264 94.2539C204.053 94.5742 203.947 95.0605 203.947 95.7129ZM208.477 95.7129C208.477 96.7793 208.195 97.6133 207.633 98.2148C207.07 98.8164 206.287 99.1172 205.283 99.1172C204.654 99.1172 204.1 98.9805 203.619 98.707C203.139 98.4297 202.77 98.0332 202.512 97.5176C202.254 97.002 202.125 96.4004 202.125 95.7129C202.125 94.6426 202.404 93.8105 202.963 93.2168C203.521 92.623 204.307 92.3262 205.318 92.3262C205.947 92.3262 206.502 92.4629 206.982 92.7363C207.463 93.0098 207.832 93.4023 208.09 93.9141C208.348 94.4258 208.477 95.0254 208.477 95.7129ZM214.594 99L214.354 98.1621H214.26C214.068 98.4668 213.797 98.7031 213.445 98.8711C213.094 99.0352 212.693 99.1172 212.244 99.1172C211.475 99.1172 210.895 98.9121 210.504 98.502C210.113 98.0879 209.918 97.4941 209.918 96.7207V92.4492H211.705V96.2754C211.705 96.748 211.789 97.1035 211.957 97.3418C212.125 97.5762 212.393 97.6934 212.76 97.6934C213.26 97.6934 213.621 97.5273 213.844 97.1953C214.066 96.8594 214.178 96.3047 214.178 95.5312V92.4492H215.965V99H214.594ZM223.887 99H222.1V95.1738C222.1 94.7012 222.016 94.3477 221.848 94.1133C221.68 93.875 221.412 93.7559 221.045 93.7559C220.545 93.7559 220.184 93.9238 219.961 94.2598C219.738 94.5918 219.627 95.1445 219.627 95.918V99H217.84V92.4492H219.205L219.445 93.2871H219.545C219.744 92.9707 220.018 92.7324 220.365 92.5723C220.717 92.4082 221.115 92.3262 221.561 92.3262C222.322 92.3262 222.9 92.5332 223.295 92.9473C223.689 93.3574 223.887 93.9512 223.887 94.7285V99ZM227.801 99.1172C227.031 99.1172 226.426 98.8184 225.984 98.2207C225.547 97.623 225.328 96.7949 225.328 95.7363C225.328 94.6621 225.551 93.8262 225.996 93.2285C226.445 92.627 227.062 92.3262 227.848 92.3262C228.672 92.3262 229.301 92.6465 229.734 93.2871H229.793C229.703 92.7988 229.658 92.3633 229.658 91.9805V89.8828H231.451V99H230.08L229.734 98.1504H229.658C229.252 98.7949 228.633 99.1172 227.801 99.1172ZM228.428 97.6934C228.885 97.6934 229.219 97.5605 229.43 97.2949C229.645 97.0293 229.762 96.5781 229.781 95.9414V95.748C229.781 95.0449 229.672 94.541 229.453 94.2363C229.238 93.9316 228.887 93.7793 228.398 93.7793C228 93.7793 227.689 93.9492 227.467 94.2891C227.248 94.625 227.139 95.1152 227.139 95.7598C227.139 96.4043 227.25 96.8887 227.473 97.2129C227.695 97.5332 228.014 97.6934 228.428 97.6934ZM239.883 99H238.066V91.9453H235.74V90.4336H242.209V91.9453H239.883V99ZM247.043 92.3262C247.285 92.3262 247.486 92.3438 247.646 92.3789L247.512 94.0547C247.367 94.0156 247.191 93.9961 246.984 93.9961C246.414 93.9961 245.969 94.1426 245.648 94.4355C245.332 94.7285 245.174 95.1387 245.174 95.666V99H243.387V92.4492H244.74L245.004 93.5508H245.092C245.295 93.1836 245.568 92.8887 245.912 92.666C246.26 92.4395 246.637 92.3262 247.043 92.3262ZM251.549 93.5977C251.17 93.5977 250.873 93.7188 250.658 93.9609C250.443 94.1992 250.32 94.5391 250.289 94.9805H252.797C252.789 94.5391 252.674 94.1992 252.451 93.9609C252.229 93.7188 251.928 93.5977 251.549 93.5977ZM251.801 99.1172C250.746 99.1172 249.922 98.8262 249.328 98.2441C248.734 97.6621 248.438 96.8379 248.438 95.7715C248.438 94.6738 248.711 93.8262 249.258 93.2285C249.809 92.627 250.568 92.3262 251.537 92.3262C252.463 92.3262 253.184 92.5898 253.699 93.1172C254.215 93.6445 254.473 94.373 254.473 95.3027V96.1699H250.248C250.268 96.6777 250.418 97.0742 250.699 97.3594C250.98 97.6445 251.375 97.7871 251.883 97.7871C252.277 97.7871 252.65 97.7461 253.002 97.6641C253.354 97.582 253.721 97.4512 254.104 97.2715V98.6543C253.791 98.8105 253.457 98.9258 253.102 99C252.746 99.0781 252.312 99.1172 251.801 99.1172ZM260.086 99L259.74 98.1094H259.693C259.393 98.4883 259.082 98.752 258.762 98.9004C258.445 99.0449 258.031 99.1172 257.52 99.1172C256.891 99.1172 256.395 98.9375 256.031 98.5781C255.672 98.2188 255.492 97.707 255.492 97.043C255.492 96.3477 255.734 95.8359 256.219 95.5078C256.707 95.1758 257.441 94.9922 258.422 94.957L259.559 94.9219V94.6348C259.559 93.9707 259.219 93.6387 258.539 93.6387C258.016 93.6387 257.4 93.7969 256.693 94.1133L256.102 92.9062C256.855 92.5117 257.691 92.3145 258.609 92.3145C259.488 92.3145 260.162 92.5059 260.631 92.8887C261.1 93.2715 261.334 93.8535 261.334 94.6348V99H260.086ZM259.559 95.9648L258.867 95.9883C258.348 96.0039 257.961 96.0977 257.707 96.2695C257.453 96.4414 257.326 96.7031 257.326 97.0547C257.326 97.5586 257.615 97.8105 258.193 97.8105C258.607 97.8105 258.938 97.6914 259.184 97.4531C259.434 97.2148 259.559 96.8984 259.559 96.5039V95.9648ZM267.75 97.0547C267.75 97.7266 267.516 98.2383 267.047 98.5898C266.582 98.9414 265.885 99.1172 264.955 99.1172C264.479 99.1172 264.072 99.084 263.736 99.0176C263.4 98.9551 263.086 98.8613 262.793 98.7363V97.2598C263.125 97.416 263.498 97.5469 263.912 97.6523C264.33 97.7578 264.697 97.8105 265.014 97.8105C265.662 97.8105 265.986 97.623 265.986 97.248C265.986 97.1074 265.943 96.9941 265.857 96.9082C265.771 96.8184 265.623 96.7188 265.412 96.6094C265.201 96.4961 264.92 96.3652 264.568 96.2168C264.064 96.0059 263.693 95.8105 263.455 95.6309C263.221 95.4512 263.049 95.2461 262.939 95.0156C262.834 94.7812 262.781 94.4941 262.781 94.1543C262.781 93.5723 263.006 93.123 263.455 92.8066C263.908 92.4863 264.549 92.3262 265.377 92.3262C266.166 92.3262 266.934 92.498 267.68 92.8418L267.141 94.1309C266.812 93.9902 266.506 93.875 266.221 93.7852C265.936 93.6953 265.645 93.6504 265.348 93.6504C264.82 93.6504 264.557 93.793 264.557 94.0781C264.557 94.2383 264.641 94.377 264.809 94.4941C264.98 94.6113 265.354 94.7852 265.928 95.0156C266.439 95.2227 266.814 95.416 267.053 95.5957C267.291 95.7754 267.467 95.9824 267.58 96.2168C267.693 96.4512 267.75 96.7305 267.75 97.0547ZM273.785 99L273.545 98.1621H273.451C273.26 98.4668 272.988 98.7031 272.637 98.8711C272.285 99.0352 271.885 99.1172 271.436 99.1172C270.666 99.1172 270.086 98.9121 269.695 98.502C269.305 98.0879 269.109 97.4941 269.109 96.7207V92.4492H270.896V96.2754C270.896 96.748 270.98 97.1035 271.148 97.3418C271.316 97.5762 271.584 97.6934 271.951 97.6934C272.451 97.6934 272.812 97.5273 273.035 97.1953C273.258 96.8594 273.369 96.3047 273.369 95.5312V92.4492H275.156V99H273.785ZM280.688 92.3262C280.93 92.3262 281.131 92.3438 281.291 92.3789L281.156 94.0547C281.012 94.0156 280.836 93.9961 280.629 93.9961C280.059 93.9961 279.613 94.1426 279.293 94.4355C278.977 94.7285 278.818 95.1387 278.818 95.666V99H277.031V92.4492H278.385L278.648 93.5508H278.736C278.939 93.1836 279.213 92.8887 279.557 92.666C279.904 92.4395 280.281 92.3262 280.688 92.3262ZM281.543 92.4492H283.5L284.736 96.1348C284.842 96.4551 284.914 96.834 284.953 97.2715H284.988C285.031 96.8691 285.115 96.4902 285.24 96.1348L286.453 92.4492H288.369L285.598 99.8379C285.344 100.521 284.98 101.033 284.508 101.373C284.039 101.713 283.49 101.883 282.861 101.883C282.553 101.883 282.25 101.85 281.953 101.783V100.365C282.168 100.416 282.402 100.441 282.656 100.441C282.973 100.441 283.248 100.344 283.482 100.148C283.721 99.957 283.906 99.666 284.039 99.2754L284.145 98.9531L281.543 92.4492ZM289.061 98.1621C289.061 97.834 289.148 97.5859 289.324 97.418C289.5 97.25 289.756 97.166 290.092 97.166C290.416 97.166 290.666 97.252 290.842 97.4238C291.021 97.5957 291.111 97.8418 291.111 98.1621C291.111 98.4707 291.021 98.7148 290.842 98.8945C290.662 99.0703 290.412 99.1582 290.092 99.1582C289.764 99.1582 289.51 99.0723 289.33 98.9004C289.15 98.7246 289.061 98.4785 289.061 98.1621ZM289.061 93.3223C289.061 92.9941 289.148 92.7461 289.324 92.5781C289.5 92.4102 289.756 92.3262 290.092 92.3262C290.416 92.3262 290.666 92.4121 290.842 92.584C291.021 92.7559 291.111 93.002 291.111 93.3223C291.111 93.6387 291.02 93.8848 290.836 94.0605C290.656 94.2324 290.408 94.3184 290.092 94.3184C289.764 94.3184 289.51 94.2324 289.33 94.0605C289.15 93.8887 289.061 93.6426 289.061 93.3223ZM301.096 94.6934C301.096 96.1973 300.865 97.3105 300.404 98.0332C299.947 98.7559 299.254 99.1172 298.324 99.1172C297.43 99.1172 296.75 98.7461 296.285 98.0039C295.82 97.2578 295.588 96.1543 295.588 94.6934C295.588 93.2012 295.812 92.0957 296.262 91.377C296.715 90.6582 297.402 90.2988 298.324 90.2988C299.227 90.2988 299.914 90.6719 300.387 91.418C300.859 92.1602 301.096 93.252 301.096 94.6934ZM296.221 94.6934C296.221 96.0215 296.395 97.0039 296.742 97.6406C297.09 98.2734 297.617 98.5898 298.324 98.5898C299.062 98.5898 299.6 98.2617 299.936 97.6055C300.275 96.9492 300.445 95.9785 300.445 94.6934C300.445 93.4277 300.275 92.4668 299.936 91.8105C299.6 91.1543 299.062 90.8262 298.324 90.8262C297.586 90.8262 297.051 91.1543 296.719 91.8105C296.387 92.4668 296.221 93.4277 296.221 94.6934ZM306.75 99L303.557 91.0898H303.51C303.541 91.5742 303.557 92.0703 303.557 92.5781V99H302.982V90.4336H303.908L306.943 97.9688H306.979L310.014 90.4336H310.916V99H310.312V92.5078C310.312 92.0547 310.336 91.5859 310.383 91.1016H310.336L307.131 99H306.75ZM315.785 96V95.5195H318.568V96H315.785ZM328.412 94.6934C328.412 96.1973 328.182 97.3105 327.721 98.0332C327.264 98.7559 326.57 99.1172 325.641 99.1172C324.746 99.1172 324.066 98.7461 323.602 98.0039C323.137 97.2578 322.904 96.1543 322.904 94.6934C322.904 93.2012 323.129 92.0957 323.578 91.377C324.031 90.6582 324.719 90.2988 325.641 90.2988C326.543 90.2988 327.23 90.6719 327.703 91.418C328.176 92.1602 328.412 93.252 328.412 94.6934ZM323.537 94.6934C323.537 96.0215 323.711 97.0039 324.059 97.6406C324.406 98.2734 324.934 98.5898 325.641 98.5898C326.379 98.5898 326.916 98.2617 327.252 97.6055C327.592 96.9492 327.762 95.9785 327.762 94.6934C327.762 93.4277 327.592 92.4668 327.252 91.8105C326.916 91.1543 326.379 90.8262 325.641 90.8262C324.902 90.8262 324.367 91.1543 324.035 91.8105C323.703 92.4668 323.537 93.4277 323.537 94.6934ZM330.035 98.543C330.035 98.1602 330.191 97.9688 330.504 97.9688C330.824 97.9688 330.984 98.1602 330.984 98.543C330.984 98.9258 330.824 99.1172 330.504 99.1172C330.191 99.1172 330.035 98.9258 330.035 98.543ZM338.127 94.6934C338.127 96.1973 337.896 97.3105 337.436 98.0332C336.979 98.7559 336.285 99.1172 335.355 99.1172C334.461 99.1172 333.781 98.7461 333.316 98.0039C332.852 97.2578 332.619 96.1543 332.619 94.6934C332.619 93.2012 332.844 92.0957 333.293 91.377C333.746 90.6582 334.434 90.2988 335.355 90.2988C336.258 90.2988 336.945 90.6719 337.418 91.418C337.891 92.1602 338.127 93.252 338.127 94.6934ZM333.252 94.6934C333.252 96.0215 333.426 97.0039 333.773 97.6406C334.121 98.2734 334.648 98.5898 335.355 98.5898C336.094 98.5898 336.631 98.2617 336.967 97.6055C337.307 96.9492 337.477 95.9785 337.477 94.6934C337.477 93.4277 337.307 92.4668 336.967 91.8105C336.631 91.1543 336.094 90.8262 335.355 90.8262C334.617 90.8262 334.082 91.1543 333.75 91.8105C333.418 92.4668 333.252 93.4277 333.252 94.6934ZM340.037 92.9883C340.037 93.7148 340.125 94.2617 340.301 94.6289C340.477 94.9922 340.752 95.1738 341.127 95.1738C341.881 95.1738 342.258 94.4453 342.258 92.9883C342.258 92.2695 342.16 91.7305 341.965 91.3711C341.773 91.0078 341.494 90.8262 341.127 90.8262C340.752 90.8262 340.477 91.0078 340.301 91.3711C340.125 91.7305 340.037 92.2695 340.037 92.9883ZM342.832 92.9883C342.832 93.8711 342.686 94.543 342.393 95.0039C342.1 95.4609 341.678 95.6895 341.127 95.6895C340.607 95.6895 340.199 95.4551 339.902 94.9863C339.609 94.5137 339.463 93.8477 339.463 92.9883C339.463 92.1172 339.604 91.4531 339.885 90.9961C340.166 90.5391 340.58 90.3105 341.127 90.3105C341.67 90.3105 342.09 90.5469 342.387 91.0195C342.684 91.4883 342.832 92.1445 342.832 92.9883ZM345.029 96.4336C345.029 97.1562 345.117 97.6992 345.293 98.0625C345.469 98.4219 345.744 98.6016 346.119 98.6016C346.873 98.6016 347.25 97.8789 347.25 96.4336C347.25 94.9922 346.873 94.2715 346.119 94.2715C345.744 94.2715 345.469 94.4512 345.293 94.8105C345.117 95.166 345.029 95.707 345.029 96.4336ZM347.824 96.4336C347.824 97.3164 347.68 97.9883 347.391 98.4492C347.102 98.9062 346.682 99.1348 346.131 99.1348C345.6 99.1348 345.188 98.8984 344.895 98.4258C344.602 97.9492 344.455 97.2852 344.455 96.4336C344.455 95.5547 344.598 94.8887 344.883 94.4355C345.172 93.9824 345.588 93.7559 346.131 93.7559C346.666 93.7559 347.082 93.9902 347.379 94.459C347.676 94.9277 347.824 95.5859 347.824 96.4336ZM346.301 90.4336L341.549 99H340.986L345.738 90.4336H346.301Z" fill="white"/>
<path d="M201.322 120L200.701 117.961H197.578L196.957 120H195L198.023 111.398H200.244L203.279 120H201.322ZM200.268 116.438C199.693 114.59 199.369 113.545 199.295 113.303C199.225 113.061 199.174 112.869 199.143 112.729C199.014 113.229 198.645 114.465 198.035 116.438H200.268ZM207.615 115.189H211.014V119.631C210.463 119.811 209.943 119.936 209.455 120.006C208.971 120.08 208.475 120.117 207.967 120.117C206.674 120.117 205.686 119.738 205.002 118.98C204.322 118.219 203.982 117.127 203.982 115.705C203.982 114.322 204.377 113.244 205.166 112.471C205.959 111.697 207.057 111.311 208.459 111.311C209.338 111.311 210.186 111.486 211.002 111.838L210.398 113.291C209.773 112.979 209.123 112.822 208.447 112.822C207.662 112.822 207.033 113.086 206.561 113.613C206.088 114.141 205.852 114.85 205.852 115.74C205.852 116.67 206.041 117.381 206.42 117.873C206.803 118.361 207.357 118.605 208.084 118.605C208.463 118.605 208.848 118.566 209.238 118.488V116.701H207.615V115.189ZM221.232 117.621C221.232 118.395 220.953 119.004 220.395 119.449C219.84 119.895 219.066 120.117 218.074 120.117C217.16 120.117 216.352 119.945 215.648 119.602V117.914C216.227 118.172 216.715 118.354 217.113 118.459C217.516 118.564 217.883 118.617 218.215 118.617C218.613 118.617 218.918 118.541 219.129 118.389C219.344 118.236 219.451 118.01 219.451 117.709C219.451 117.541 219.404 117.393 219.311 117.264C219.217 117.131 219.078 117.004 218.895 116.883C218.715 116.762 218.346 116.568 217.787 116.303C217.264 116.057 216.871 115.82 216.609 115.594C216.348 115.367 216.139 115.104 215.982 114.803C215.826 114.502 215.748 114.15 215.748 113.748C215.748 112.99 216.004 112.395 216.516 111.961C217.031 111.527 217.742 111.311 218.648 111.311C219.094 111.311 219.518 111.363 219.92 111.469C220.326 111.574 220.75 111.723 221.191 111.914L220.605 113.326C220.148 113.139 219.77 113.008 219.469 112.934C219.172 112.859 218.879 112.822 218.59 112.822C218.246 112.822 217.982 112.902 217.799 113.062C217.615 113.223 217.523 113.432 217.523 113.689C217.523 113.85 217.561 113.99 217.635 114.111C217.709 114.229 217.826 114.344 217.986 114.457C218.15 114.566 218.535 114.766 219.141 115.055C219.941 115.438 220.49 115.822 220.787 116.209C221.084 116.592 221.232 117.062 221.232 117.621ZM228.691 120H226.904V116.174C226.904 115.229 226.553 114.756 225.85 114.756C225.35 114.756 224.988 114.926 224.766 115.266C224.543 115.605 224.432 116.156 224.432 116.918V120H222.645V110.883H224.432V112.74C224.432 112.885 224.418 113.225 224.391 113.76L224.35 114.287H224.443C224.842 113.646 225.475 113.326 226.342 113.326C227.111 113.326 227.695 113.533 228.094 113.947C228.492 114.361 228.691 114.955 228.691 115.729V120ZM234.691 120L234.346 119.109H234.299C233.998 119.488 233.688 119.752 233.367 119.9C233.051 120.045 232.637 120.117 232.125 120.117C231.496 120.117 231 119.938 230.637 119.578C230.277 119.219 230.098 118.707 230.098 118.043C230.098 117.348 230.34 116.836 230.824 116.508C231.312 116.176 232.047 115.992 233.027 115.957L234.164 115.922V115.635C234.164 114.971 233.824 114.639 233.145 114.639C232.621 114.639 232.006 114.797 231.299 115.113L230.707 113.906C231.461 113.512 232.297 113.314 233.215 113.314C234.094 113.314 234.768 113.506 235.236 113.889C235.705 114.271 235.939 114.854 235.939 115.635V120H234.691ZM234.164 116.965L233.473 116.988C232.953 117.004 232.566 117.098 232.312 117.27C232.059 117.441 231.932 117.703 231.932 118.055C231.932 118.559 232.221 118.811 232.799 118.811C233.213 118.811 233.543 118.691 233.789 118.453C234.039 118.215 234.164 117.898 234.164 117.504V116.965ZM241.441 113.326C241.684 113.326 241.885 113.344 242.045 113.379L241.91 115.055C241.766 115.016 241.59 114.996 241.383 114.996C240.812 114.996 240.367 115.143 240.047 115.436C239.73 115.729 239.572 116.139 239.572 116.666V120H237.785V113.449H239.139L239.402 114.551H239.49C239.693 114.184 239.967 113.889 240.311 113.666C240.658 113.439 241.035 113.326 241.441 113.326ZM245.947 114.598C245.568 114.598 245.271 114.719 245.057 114.961C244.842 115.199 244.719 115.539 244.688 115.98H247.195C247.188 115.539 247.072 115.199 246.85 114.961C246.627 114.719 246.326 114.598 245.947 114.598ZM246.199 120.117C245.145 120.117 244.32 119.826 243.727 119.244C243.133 118.662 242.836 117.838 242.836 116.771C242.836 115.674 243.109 114.826 243.656 114.229C244.207 113.627 244.967 113.326 245.936 113.326C246.861 113.326 247.582 113.59 248.098 114.117C248.613 114.645 248.871 115.373 248.871 116.303V117.17H244.646C244.666 117.678 244.816 118.074 245.098 118.359C245.379 118.645 245.773 118.787 246.281 118.787C246.676 118.787 247.049 118.746 247.4 118.664C247.752 118.582 248.119 118.451 248.502 118.271V119.654C248.189 119.811 247.855 119.926 247.5 120C247.145 120.078 246.711 120.117 246.199 120.117ZM256.371 120H254.584V116.174C254.584 115.229 254.232 114.756 253.529 114.756C253.029 114.756 252.668 114.926 252.445 115.266C252.223 115.605 252.111 116.156 252.111 116.918V120H250.324V110.883H252.111V112.74C252.111 112.885 252.098 113.225 252.07 113.76L252.029 114.287H252.123C252.521 113.646 253.154 113.326 254.021 113.326C254.791 113.326 255.375 113.533 255.773 113.947C256.172 114.361 256.371 114.955 256.371 115.729V120ZM259.635 116.713C259.635 117.361 259.74 117.852 259.951 118.184C260.166 118.516 260.514 118.682 260.994 118.682C261.471 118.682 261.812 118.518 262.02 118.189C262.23 117.857 262.336 117.365 262.336 116.713C262.336 116.064 262.23 115.578 262.02 115.254C261.809 114.93 261.463 114.768 260.982 114.768C260.506 114.768 260.162 114.93 259.951 115.254C259.74 115.574 259.635 116.061 259.635 116.713ZM264.164 116.713C264.164 117.779 263.883 118.613 263.32 119.215C262.758 119.816 261.975 120.117 260.971 120.117C260.342 120.117 259.787 119.98 259.307 119.707C258.826 119.43 258.457 119.033 258.199 118.518C257.941 118.002 257.812 117.4 257.812 116.713C257.812 115.643 258.092 114.811 258.65 114.217C259.209 113.623 259.994 113.326 261.006 113.326C261.635 113.326 262.189 113.463 262.67 113.736C263.15 114.01 263.52 114.402 263.777 114.914C264.035 115.426 264.164 116.025 264.164 116.713ZM267.428 120H265.641V110.883H267.428V120ZM271.383 120.117C270.613 120.117 270.008 119.818 269.566 119.221C269.129 118.623 268.91 117.795 268.91 116.736C268.91 115.662 269.133 114.826 269.578 114.229C270.027 113.627 270.645 113.326 271.43 113.326C272.254 113.326 272.883 113.646 273.316 114.287H273.375C273.285 113.799 273.24 113.363 273.24 112.98V110.883H275.033V120H273.662L273.316 119.15H273.24C272.834 119.795 272.215 120.117 271.383 120.117ZM272.01 118.693C272.467 118.693 272.801 118.561 273.012 118.295C273.227 118.029 273.344 117.578 273.363 116.941V116.748C273.363 116.045 273.254 115.541 273.035 115.236C272.82 114.932 272.469 114.779 271.98 114.779C271.582 114.779 271.271 114.949 271.049 115.289C270.83 115.625 270.721 116.115 270.721 116.76C270.721 117.404 270.832 117.889 271.055 118.213C271.277 118.533 271.596 118.693 272.01 118.693ZM279.615 114.598C279.236 114.598 278.939 114.719 278.725 114.961C278.51 115.199 278.387 115.539 278.355 115.98H280.863C280.855 115.539 280.74 115.199 280.518 114.961C280.295 114.719 279.994 114.598 279.615 114.598ZM279.867 120.117C278.812 120.117 277.988 119.826 277.395 119.244C276.801 118.662 276.504 117.838 276.504 116.771C276.504 115.674 276.777 114.826 277.324 114.229C277.875 113.627 278.635 113.326 279.604 113.326C280.529 113.326 281.25 113.59 281.766 114.117C282.281 114.645 282.539 115.373 282.539 116.303V117.17H278.314C278.334 117.678 278.484 118.074 278.766 118.359C279.047 118.645 279.441 118.787 279.949 118.787C280.344 118.787 280.717 118.746 281.068 118.664C281.42 118.582 281.787 118.451 282.17 118.271V119.654C281.857 119.811 281.523 119.926 281.168 120C280.812 120.078 280.379 120.117 279.867 120.117ZM287.648 113.326C287.891 113.326 288.092 113.344 288.252 113.379L288.117 115.055C287.973 115.016 287.797 114.996 287.59 114.996C287.02 114.996 286.574 115.143 286.254 115.436C285.938 115.729 285.779 116.139 285.779 116.666V120H283.992V113.449H285.346L285.609 114.551H285.697C285.9 114.184 286.174 113.889 286.518 113.666C286.865 113.439 287.242 113.326 287.648 113.326ZM294.012 118.055C294.012 118.727 293.777 119.238 293.309 119.59C292.844 119.941 292.146 120.117 291.217 120.117C290.74 120.117 290.334 120.084 289.998 120.018C289.662 119.955 289.348 119.861 289.055 119.736V118.26C289.387 118.416 289.76 118.547 290.174 118.652C290.592 118.758 290.959 118.811 291.275 118.811C291.924 118.811 292.248 118.623 292.248 118.248C292.248 118.107 292.205 117.994 292.119 117.908C292.033 117.818 291.885 117.719 291.674 117.609C291.463 117.496 291.182 117.365 290.83 117.217C290.326 117.006 289.955 116.811 289.717 116.631C289.482 116.451 289.311 116.246 289.201 116.016C289.096 115.781 289.043 115.494 289.043 115.154C289.043 114.572 289.268 114.123 289.717 113.807C290.17 113.486 290.811 113.326 291.639 113.326C292.428 113.326 293.195 113.498 293.941 113.842L293.402 115.131C293.074 114.99 292.768 114.875 292.482 114.785C292.197 114.695 291.906 114.65 291.609 114.65C291.082 114.65 290.818 114.793 290.818 115.078C290.818 115.238 290.902 115.377 291.07 115.494C291.242 115.611 291.615 115.785 292.189 116.016C292.701 116.223 293.076 116.416 293.314 116.596C293.553 116.775 293.729 116.982 293.842 117.217C293.955 117.451 294.012 117.73 294.012 118.055ZM295.154 119.162C295.154 118.834 295.242 118.586 295.418 118.418C295.594 118.25 295.85 118.166 296.186 118.166C296.51 118.166 296.76 118.252 296.936 118.424C297.115 118.596 297.205 118.842 297.205 119.162C297.205 119.471 297.115 119.715 296.936 119.895C296.756 120.07 296.506 120.158 296.186 120.158C295.857 120.158 295.604 120.072 295.424 119.9C295.244 119.725 295.154 119.479 295.154 119.162ZM295.154 114.322C295.154 113.994 295.242 113.746 295.418 113.578C295.594 113.41 295.85 113.326 296.186 113.326C296.51 113.326 296.76 113.412 296.936 113.584C297.115 113.756 297.205 114.002 297.205 114.322C297.205 114.639 297.113 114.885 296.93 115.061C296.75 115.232 296.502 115.318 296.186 115.318C295.857 115.318 295.604 115.232 295.424 115.061C295.244 114.889 295.154 114.643 295.154 114.322ZM306.744 113.449C306.744 113.98 306.576 114.428 306.24 114.791C305.908 115.154 305.461 115.387 304.898 115.488V115.523C305.586 115.609 306.109 115.828 306.469 116.18C306.828 116.531 307.008 117.004 307.008 117.598C307.008 118.398 306.734 119.02 306.188 119.461C305.645 119.898 304.861 120.117 303.838 120.117C302.967 120.117 302.207 119.955 301.559 119.631V119.051C301.887 119.223 302.254 119.357 302.66 119.455C303.07 119.553 303.455 119.602 303.814 119.602C304.678 119.602 305.326 119.428 305.76 119.08C306.193 118.729 306.41 118.234 306.41 117.598C306.41 117.031 306.188 116.596 305.742 116.291C305.301 115.986 304.65 115.834 303.791 115.834H302.865V115.271H303.803C304.514 115.271 305.076 115.104 305.49 114.768C305.908 114.428 306.117 113.969 306.117 113.391C306.117 112.914 305.947 112.533 305.607 112.248C305.271 111.959 304.83 111.814 304.283 111.814C303.857 111.814 303.469 111.875 303.117 111.996C302.766 112.113 302.371 112.316 301.934 112.605L301.646 112.213C301.979 111.936 302.379 111.717 302.848 111.557C303.316 111.393 303.791 111.311 304.271 111.311C305.061 111.311 305.67 111.498 306.1 111.873C306.529 112.244 306.744 112.77 306.744 113.449ZM308.812 119.543C308.812 119.16 308.969 118.969 309.281 118.969C309.602 118.969 309.762 119.16 309.762 119.543C309.762 119.926 309.602 120.117 309.281 120.117C308.969 120.117 308.812 119.926 308.812 119.543ZM314.133 111.287C314.859 111.287 315.443 111.473 315.885 111.844C316.33 112.215 316.553 112.717 316.553 113.35C316.553 113.787 316.414 114.174 316.137 114.51C315.863 114.846 315.418 115.156 314.801 115.441C315.551 115.75 316.078 116.088 316.383 116.455C316.688 116.822 316.84 117.268 316.84 117.791C316.84 118.498 316.592 119.062 316.096 119.484C315.604 119.906 314.941 120.117 314.109 120.117C313.246 120.117 312.584 119.92 312.123 119.525C311.662 119.131 311.432 118.557 311.432 117.803C311.432 117.291 311.594 116.842 311.918 116.455C312.242 116.068 312.744 115.738 313.424 115.465C312.795 115.168 312.352 114.855 312.094 114.527C311.836 114.195 311.707 113.799 311.707 113.338C311.707 112.928 311.811 112.568 312.018 112.26C312.225 111.947 312.514 111.707 312.885 111.539C313.26 111.371 313.676 111.287 314.133 111.287ZM312.029 117.891C312.029 118.43 312.211 118.848 312.574 119.145C312.941 119.441 313.453 119.59 314.109 119.59C314.75 119.59 315.266 119.434 315.656 119.121C316.047 118.805 316.242 118.377 316.242 117.838C316.242 117.354 316.088 116.961 315.779 116.66C315.475 116.355 314.885 116.037 314.01 115.705C313.291 115.982 312.781 116.289 312.48 116.625C312.18 116.961 312.029 117.383 312.029 117.891ZM314.121 111.814C313.57 111.814 313.127 111.951 312.791 112.225C312.459 112.494 312.293 112.865 312.293 113.338C312.293 113.611 312.354 113.854 312.475 114.064C312.6 114.271 312.777 114.461 313.008 114.633C313.242 114.801 313.633 114.998 314.18 115.225C314.816 114.979 315.273 114.707 315.551 114.41C315.828 114.113 315.967 113.756 315.967 113.338C315.967 112.869 315.801 112.498 315.469 112.225C315.141 111.951 314.691 111.814 314.121 111.814ZM320.988 111.287C321.715 111.287 322.299 111.473 322.74 111.844C323.186 112.215 323.408 112.717 323.408 113.35C323.408 113.787 323.27 114.174 322.992 114.51C322.719 114.846 322.273 115.156 321.656 115.441C322.406 115.75 322.934 116.088 323.238 116.455C323.543 116.822 323.695 117.268 323.695 117.791C323.695 118.498 323.447 119.062 322.951 119.484C322.459 119.906 321.797 120.117 320.965 120.117C320.102 120.117 319.439 119.92 318.979 119.525C318.518 119.131 318.287 118.557 318.287 117.803C318.287 117.291 318.449 116.842 318.773 116.455C319.098 116.068 319.6 115.738 320.279 115.465C319.65 115.168 319.207 114.855 318.949 114.527C318.691 114.195 318.562 113.799 318.562 113.338C318.562 112.928 318.666 112.568 318.873 112.26C319.08 111.947 319.369 111.707 319.74 111.539C320.115 111.371 320.531 111.287 320.988 111.287ZM318.885 117.891C318.885 118.43 319.066 118.848 319.43 119.145C319.797 119.441 320.309 119.59 320.965 119.59C321.605 119.59 322.121 119.434 322.512 119.121C322.902 118.805 323.098 118.377 323.098 117.838C323.098 117.354 322.943 116.961 322.635 116.66C322.33 116.355 321.74 116.037 320.865 115.705C320.146 115.982 319.637 116.289 319.336 116.625C319.035 116.961 318.885 117.383 318.885 117.891ZM320.977 111.814C320.426 111.814 319.982 111.951 319.646 112.225C319.314 112.494 319.148 112.865 319.148 113.338C319.148 113.611 319.209 113.854 319.33 114.064C319.455 114.271 319.633 114.461 319.863 114.633C320.098 114.801 320.488 114.998 321.035 115.225C321.672 114.979 322.129 114.707 322.406 114.41C322.684 114.113 322.822 113.756 322.822 113.338C322.822 112.869 322.656 112.498 322.324 112.225C321.996 111.951 321.547 111.814 320.977 111.814ZM329.414 120L326.221 112.09H326.174C326.205 112.574 326.221 113.07 326.221 113.578V120H325.646V111.434H326.572L329.607 118.969H329.643L332.678 111.434H333.58V120H332.977V113.508C332.977 113.055 333 112.586 333.047 112.102H333L329.795 120H329.414ZM341.566 117V116.52H344.35V117H341.566ZM352.008 120H351.434V113.76C351.434 113.193 351.457 112.605 351.504 111.996C351.445 112.055 351.385 112.111 351.322 112.166C351.26 112.221 350.656 112.695 349.512 113.59L349.178 113.174L351.504 111.434H352.008V120ZM361.049 115.693C361.049 117.197 360.818 118.311 360.357 119.033C359.9 119.756 359.207 120.117 358.277 120.117C357.383 120.117 356.703 119.746 356.238 119.004C355.773 118.258 355.541 117.154 355.541 115.693C355.541 114.201 355.766 113.096 356.215 112.377C356.668 111.658 357.355 111.299 358.277 111.299C359.18 111.299 359.867 111.672 360.34 112.418C360.812 113.16 361.049 114.252 361.049 115.693ZM356.174 115.693C356.174 117.021 356.348 118.004 356.695 118.641C357.043 119.273 357.57 119.59 358.277 119.59C359.016 119.59 359.553 119.262 359.889 118.605C360.229 117.949 360.398 116.979 360.398 115.693C360.398 114.428 360.229 113.467 359.889 112.811C359.553 112.154 359.016 111.826 358.277 111.826C357.539 111.826 357.004 112.154 356.672 112.811C356.34 113.467 356.174 114.428 356.174 115.693ZM362.672 119.543C362.672 119.16 362.828 118.969 363.141 118.969C363.461 118.969 363.621 119.16 363.621 119.543C363.621 119.926 363.461 120.117 363.141 120.117C362.828 120.117 362.672 119.926 362.672 119.543ZM370.764 115.693C370.764 117.197 370.533 118.311 370.072 119.033C369.615 119.756 368.922 120.117 367.992 120.117C367.098 120.117 366.418 119.746 365.953 119.004C365.488 118.258 365.256 117.154 365.256 115.693C365.256 114.201 365.48 113.096 365.93 112.377C366.383 111.658 367.07 111.299 367.992 111.299C368.895 111.299 369.582 111.672 370.055 112.418C370.527 113.16 370.764 114.252 370.764 115.693ZM365.889 115.693C365.889 117.021 366.062 118.004 366.41 118.641C366.758 119.273 367.285 119.59 367.992 119.59C368.73 119.59 369.268 119.262 369.604 118.605C369.943 117.949 370.113 116.979 370.113 115.693C370.113 114.428 369.943 113.467 369.604 112.811C369.268 112.154 368.73 111.826 367.992 111.826C367.254 111.826 366.719 112.154 366.387 112.811C366.055 113.467 365.889 114.428 365.889 115.693ZM372.674 113.988C372.674 114.715 372.762 115.262 372.938 115.629C373.113 115.992 373.389 116.174 373.764 116.174C374.518 116.174 374.895 115.445 374.895 113.988C374.895 113.27 374.797 112.73 374.602 112.371C374.41 112.008 374.131 111.826 373.764 111.826C373.389 111.826 373.113 112.008 372.938 112.371C372.762 112.73 372.674 113.27 372.674 113.988ZM375.469 113.988C375.469 114.871 375.322 115.543 375.029 116.004C374.736 116.461 374.314 116.689 373.764 116.689C373.244 116.689 372.836 116.455 372.539 115.986C372.246 115.514 372.1 114.848 372.1 113.988C372.1 113.117 372.24 112.453 372.521 111.996C372.803 111.539 373.217 111.311 373.764 111.311C374.307 111.311 374.727 111.547 375.023 112.02C375.32 112.488 375.469 113.145 375.469 113.988ZM377.666 117.434C377.666 118.156 377.754 118.699 377.93 119.062C378.105 119.422 378.381 119.602 378.756 119.602C379.51 119.602 379.887 118.879 379.887 117.434C379.887 115.992 379.51 115.271 378.756 115.271C378.381 115.271 378.105 115.451 377.93 115.811C377.754 116.166 377.666 116.707 377.666 117.434ZM380.461 117.434C380.461 118.316 380.316 118.988 380.027 119.449C379.738 119.906 379.318 120.135 378.768 120.135C378.236 120.135 377.824 119.898 377.531 119.426C377.238 118.949 377.092 118.285 377.092 117.434C377.092 116.555 377.234 115.889 377.52 115.436C377.809 114.982 378.225 114.756 378.768 114.756C379.303 114.756 379.719 114.99 380.016 115.459C380.312 115.928 380.461 116.586 380.461 117.434ZM378.938 111.434L374.186 120H373.623L378.375 111.434H378.938Z" fill="white"/>
<path d="M201.322 141L200.701 138.961H197.578L196.957 141H195L198.023 132.398H200.244L203.279 141H201.322ZM200.268 137.438C199.693 135.59 199.369 134.545 199.295 134.303C199.225 134.061 199.174 133.869 199.143 133.729C199.014 134.229 198.645 135.465 198.035 137.438H200.268ZM207.615 136.189H211.014V140.631C210.463 140.811 209.943 140.936 209.455 141.006C208.971 141.08 208.475 141.117 207.967 141.117C206.674 141.117 205.686 140.738 205.002 139.98C204.322 139.219 203.982 138.127 203.982 136.705C203.982 135.322 204.377 134.244 205.166 133.471C205.959 132.697 207.057 132.311 208.459 132.311C209.338 132.311 210.186 132.486 211.002 132.838L210.398 134.291C209.773 133.979 209.123 133.822 208.447 133.822C207.662 133.822 207.033 134.086 206.561 134.613C206.088 135.141 205.852 135.85 205.852 136.74C205.852 137.67 206.041 138.381 206.42 138.873C206.803 139.361 207.357 139.605 208.084 139.605C208.463 139.605 208.848 139.566 209.238 139.488V137.701H207.615V136.189ZM219.48 141H217.664V133.945H215.338V132.434H221.807V133.945H219.48V141ZM225.697 135.598C225.318 135.598 225.021 135.719 224.807 135.961C224.592 136.199 224.469 136.539 224.438 136.98H226.945C226.938 136.539 226.822 136.199 226.6 135.961C226.377 135.719 226.076 135.598 225.697 135.598ZM225.949 141.117C224.895 141.117 224.07 140.826 223.477 140.244C222.883 139.662 222.586 138.838 222.586 137.771C222.586 136.674 222.859 135.826 223.406 135.229C223.957 134.627 224.717 134.326 225.686 134.326C226.611 134.326 227.332 134.59 227.848 135.117C228.363 135.645 228.621 136.373 228.621 137.303V138.17H224.396C224.416 138.678 224.566 139.074 224.848 139.359C225.129 139.645 225.523 139.787 226.031 139.787C226.426 139.787 226.799 139.746 227.15 139.664C227.502 139.582 227.869 139.451 228.252 139.271V140.654C227.939 140.811 227.605 140.926 227.25 141C226.895 141.078 226.461 141.117 225.949 141.117ZM234.234 141L233.889 140.109H233.842C233.541 140.488 233.23 140.752 232.91 140.9C232.594 141.045 232.18 141.117 231.668 141.117C231.039 141.117 230.543 140.938 230.18 140.578C229.82 140.219 229.641 139.707 229.641 139.043C229.641 138.348 229.883 137.836 230.367 137.508C230.855 137.176 231.59 136.992 232.57 136.957L233.707 136.922V136.635C233.707 135.971 233.367 135.639 232.688 135.639C232.164 135.639 231.549 135.797 230.842 136.113L230.25 134.906C231.004 134.512 231.84 134.314 232.758 134.314C233.637 134.314 234.311 134.506 234.779 134.889C235.248 135.271 235.482 135.854 235.482 136.635V141H234.234ZM233.707 137.965L233.016 137.988C232.496 138.004 232.109 138.098 231.855 138.27C231.602 138.441 231.475 138.703 231.475 139.055C231.475 139.559 231.764 139.811 232.342 139.811C232.756 139.811 233.086 139.691 233.332 139.453C233.582 139.215 233.707 138.898 233.707 138.504V137.965ZM243.193 141H241.406V137.174C241.406 136.701 241.326 136.348 241.166 136.113C241.01 135.875 240.762 135.756 240.422 135.756C239.965 135.756 239.633 135.924 239.426 136.26C239.219 136.596 239.115 137.148 239.115 137.918V141H237.328V134.449H238.693L238.934 135.287H239.033C239.209 134.986 239.463 134.752 239.795 134.584C240.127 134.412 240.508 134.326 240.938 134.326C241.918 134.326 242.582 134.646 242.93 135.287H243.088C243.264 134.982 243.521 134.746 243.861 134.578C244.205 134.41 244.592 134.326 245.021 134.326C245.764 134.326 246.324 134.518 246.703 134.9C247.086 135.279 247.277 135.889 247.277 136.729V141H245.484V137.174C245.484 136.701 245.404 136.348 245.244 136.113C245.088 135.875 244.84 135.756 244.5 135.756C244.062 135.756 243.734 135.912 243.516 136.225C243.301 136.537 243.193 137.033 243.193 137.713V141ZM248.865 140.162C248.865 139.834 248.953 139.586 249.129 139.418C249.305 139.25 249.561 139.166 249.896 139.166C250.221 139.166 250.471 139.252 250.646 139.424C250.826 139.596 250.916 139.842 250.916 140.162C250.916 140.471 250.826 140.715 250.646 140.895C250.467 141.07 250.217 141.158 249.896 141.158C249.568 141.158 249.314 141.072 249.135 140.9C248.955 140.725 248.865 140.479 248.865 140.162ZM248.865 135.322C248.865 134.994 248.953 134.746 249.129 134.578C249.305 134.41 249.561 134.326 249.896 134.326C250.221 134.326 250.471 134.412 250.646 134.584C250.826 134.756 250.916 135.002 250.916 135.322C250.916 135.639 250.824 135.885 250.641 136.061C250.461 136.232 250.213 136.318 249.896 136.318C249.568 136.318 249.314 136.232 249.135 136.061C248.955 135.889 248.865 135.643 248.865 135.322ZM260.9 136.693C260.9 138.197 260.67 139.311 260.209 140.033C259.752 140.756 259.059 141.117 258.129 141.117C257.234 141.117 256.555 140.746 256.09 140.004C255.625 139.258 255.393 138.154 255.393 136.693C255.393 135.201 255.617 134.096 256.066 133.377C256.52 132.658 257.207 132.299 258.129 132.299C259.031 132.299 259.719 132.672 260.191 133.418C260.664 134.16 260.9 135.252 260.9 136.693ZM256.025 136.693C256.025 138.021 256.199 139.004 256.547 139.641C256.895 140.273 257.422 140.59 258.129 140.59C258.867 140.59 259.404 140.262 259.74 139.605C260.08 138.949 260.25 137.979 260.25 136.693C260.25 135.428 260.08 134.467 259.74 133.811C259.404 133.154 258.867 132.826 258.129 132.826C257.391 132.826 256.855 133.154 256.523 133.811C256.191 134.467 256.025 135.428 256.025 136.693ZM266.555 141L263.361 133.09H263.314C263.346 133.574 263.361 134.07 263.361 134.578V141H262.787V132.434H263.713L266.748 139.969H266.783L269.818 132.434H270.721V141H270.117V134.508C270.117 134.055 270.141 133.586 270.188 133.102H270.141L266.936 141H266.555ZM275.59 138V137.52H278.373V138H275.59ZM288.217 136.693C288.217 138.197 287.986 139.311 287.525 140.033C287.068 140.756 286.375 141.117 285.445 141.117C284.551 141.117 283.871 140.746 283.406 140.004C282.941 139.258 282.709 138.154 282.709 136.693C282.709 135.201 282.934 134.096 283.383 133.377C283.836 132.658 284.523 132.299 285.445 132.299C286.348 132.299 287.035 132.672 287.508 133.418C287.98 134.16 288.217 135.252 288.217 136.693ZM283.342 136.693C283.342 138.021 283.516 139.004 283.863 139.641C284.211 140.273 284.738 140.59 285.445 140.59C286.184 140.59 286.721 140.262 287.057 139.605C287.396 138.949 287.566 137.979 287.566 136.693C287.566 135.428 287.396 134.467 287.057 133.811C286.721 133.154 286.184 132.826 285.445 132.826C284.707 132.826 284.172 133.154 283.84 133.811C283.508 134.467 283.342 135.428 283.342 136.693ZM289.84 140.543C289.84 140.16 289.996 139.969 290.309 139.969C290.629 139.969 290.789 140.16 290.789 140.543C290.789 140.926 290.629 141.117 290.309 141.117C289.996 141.117 289.84 140.926 289.84 140.543ZM297.932 136.693C297.932 138.197 297.701 139.311 297.24 140.033C296.783 140.756 296.09 141.117 295.16 141.117C294.266 141.117 293.586 140.746 293.121 140.004C292.656 139.258 292.424 138.154 292.424 136.693C292.424 135.201 292.648 134.096 293.098 133.377C293.551 132.658 294.238 132.299 295.16 132.299C296.062 132.299 296.75 132.672 297.223 133.418C297.695 134.16 297.932 135.252 297.932 136.693ZM293.057 136.693C293.057 138.021 293.23 139.004 293.578 139.641C293.926 140.273 294.453 140.59 295.16 140.59C295.898 140.59 296.436 140.262 296.771 139.605C297.111 138.949 297.281 137.979 297.281 136.693C297.281 135.428 297.111 134.467 296.771 133.811C296.436 133.154 295.898 132.826 295.16 132.826C294.422 132.826 293.887 133.154 293.555 133.811C293.223 134.467 293.057 135.428 293.057 136.693ZM299.842 134.988C299.842 135.715 299.93 136.262 300.105 136.629C300.281 136.992 300.557 137.174 300.932 137.174C301.686 137.174 302.062 136.445 302.062 134.988C302.062 134.27 301.965 133.73 301.77 133.371C301.578 133.008 301.299 132.826 300.932 132.826C300.557 132.826 300.281 133.008 300.105 133.371C299.93 133.73 299.842 134.27 299.842 134.988ZM302.637 134.988C302.637 135.871 302.49 136.543 302.197 137.004C301.904 137.461 301.482 137.689 300.932 137.689C300.412 137.689 300.004 137.455 299.707 136.986C299.414 136.514 299.268 135.848 299.268 134.988C299.268 134.117 299.408 133.453 299.689 132.996C299.971 132.539 300.385 132.311 300.932 132.311C301.475 132.311 301.895 132.547 302.191 133.02C302.488 133.488 302.637 134.145 302.637 134.988ZM304.834 138.434C304.834 139.156 304.922 139.699 305.098 140.062C305.273 140.422 305.549 140.602 305.924 140.602C306.678 140.602 307.055 139.879 307.055 138.434C307.055 136.992 306.678 136.271 305.924 136.271C305.549 136.271 305.273 136.451 305.098 136.811C304.922 137.166 304.834 137.707 304.834 138.434ZM307.629 138.434C307.629 139.316 307.484 139.988 307.195 140.449C306.906 140.906 306.486 141.135 305.936 141.135C305.404 141.135 304.992 140.898 304.699 140.426C304.406 139.949 304.26 139.285 304.26 138.434C304.26 137.555 304.402 136.889 304.688 136.436C304.977 135.982 305.393 135.756 305.936 135.756C306.471 135.756 306.887 135.99 307.184 136.459C307.48 136.928 307.629 137.586 307.629 138.434ZM306.105 132.434L301.354 141H300.791L305.543 132.434H306.105Z" fill="white"/>
<path d="M79.9839 2C90.7805 1.9978 101.466 4.18104 111.396 8.41821C121.327 12.6554 130.297 18.8588 137.766 26.6548L80.0002 82L79.9839 2Z" fill="url(#paint6_linear)"/>
<path d="M137.821 26.7126C147.175 36.4955 153.894 48.4918 157.35 61.5786C160.805 74.6655 160.883 88.415 157.577 101.54C154.271 114.666 147.689 126.738 138.446 136.626C129.204 146.515 117.604 153.897 104.732 158.081C91.8596 162.266 78.1361 163.116 64.8458 160.552C51.5556 157.988 39.1332 152.094 28.7413 143.421C18.3494 134.749 10.3278 123.581 5.42738 110.964C0.526907 98.3471 -1.09222 84.693 0.721546 71.2798L80 82.0001L137.821 26.7126Z" fill="url(#paint7_linear)"/>
<path d="M0.732422 71.2005C2.1899 60.5027 5.79772 50.2106 11.3385 40.9441C16.8794 31.6777 24.2385 23.6287 32.9727 17.282L80.0001 82L0.732422 71.2005Z" fill="url(#paint8_linear)"/>
<path d="M33.0374 17.2349C33.0158 17.2505 32.9942 17.2662 32.9727 17.2819L80 81.9999L33.0374 17.2349Z" fill="url(#paint9_radial)" stroke="white" stroke-linejoin="round"/>
<path d="M33.0371 17.2349C46.6628 7.35454 63.0577 2.02338 79.8886 2L79.9997 81.9999L33.0371 17.2349Z" fill="url(#paint10_linear)"/>
<path d="M79.9687 2C79.942 2.00004 79.9153 2.00006 79.8887 2.00007L79.9998 82L79.9687 2Z" fill="url(#paint11_radial)" stroke="white" stroke-linejoin="round"/>
<circle cx="79.3158" cy="82.3158" r="46.3158" fill="#1D1D1B"/>
<defs>
<filter id="filter0_d" x="140" y="0" width="70" height="64" filterUnits="userSpaceOnUse" color-interpolation-filters="sRGB">
<feFlood flood-opacity="0" result="BackgroundImageFix"/>
<feColorMatrix in="SourceAlpha" type="matrix" values="0 0 0 0 0 0 0 0 0 0 0 0 0 0 0 0 0 0 127 0"/>
<feOffset/>
<feGaussianBlur stdDeviation="15"/>
<feColorMatrix type="matrix" values="0 0 0 0 0 0 0 0 0 0 0 0 0 0 0 0 0 0 1 0"/>
<feBlend mode="normal" in2="BackgroundImageFix" result="effect1_dropShadow"/>
<feBlend mode="normal" in="SourceGraphic" in2="effect1_dropShadow" result="shape"/>
</filter>
<filter id="filter1_d" x="140" y="42" width="70" height="64" filterUnits="userSpaceOnUse" color-interpolation-filters="sRGB">
<feFlood flood-opacity="0" result="BackgroundImageFix"/>
<feColorMatrix in="SourceAlpha" type="matrix" values="0 0 0 0 0 0 0 0 0 0 0 0 0 0 0 0 0 0 127 0"/>
<feOffset/>
<feGaussianBlur stdDeviation="15"/>
<feColorMatrix type="matrix" values="0 0 0 0 0 0 0 0 0 0 0 0 0 0 0 0 0 0 1 0"/>
<feBlend mode="normal" in2="BackgroundImageFix" result="effect1_dropShadow"/>
<feBlend mode="normal" in="SourceGraphic" in2="effect1_dropShadow" result="shape"/>
</filter>
<filter id="filter2_d" x="140" y="64" width="70" height="64" filterUnits="userSpaceOnUse" color-interpolation-filters="sRGB">
<feFlood flood-opacity="0" result="BackgroundImageFix"/>
<feColorMatrix in="SourceAlpha" type="matrix" values="0 0 0 0 0 0 0 0 0 0 0 0 0 0 0 0 0 0 127 0"/>
<feOffset/>
<feGaussianBlur stdDeviation="15"/>
<feColorMatrix type="matrix" values="0 0 0 0 0 0 0 0 0 0 0 0 0 0 0 0 0 0 1 0"/>
<feBlend mode="normal" in2="BackgroundImageFix" result="effect1_dropShadow"/>
<feBlend mode="normal" in="SourceGraphic" in2="effect1_dropShadow" result="shape"/>
</filter>
<filter id="filter3_d" x="140" y="105" width="70" height="64" filterUnits="userSpaceOnUse" color-interpolation-filters="sRGB">
<feFlood flood-opacity="0" result="BackgroundImageFix"/>
<feColorMatrix in="SourceAlpha" type="matrix" values="0 0 0 0 0 0 0 0 0 0 0 0 0 0 0 0 0 0 127 0"/>
<feOffset/>
<feGaussianBlur stdDeviation="15"/>
<feColorMatrix type="matrix" values="0 0 0 0 0 0 0 0 0 0 0 0 0 0 0 0 0 0 1 0"/>
<feBlend mode="normal" in2="BackgroundImageFix" result="effect1_dropShadow"/>
<feBlend mode="normal" in="SourceGraphic" in2="effect1_dropShadow" result="shape"/>
</filter>
<linearGradient id="paint0_linear" x1="170" y1="34" x2="180" y2="34" gradientUnits="userSpaceOnUse">
<stop stop-color="#65A6F2"/>
<stop offset="1" stop-color="#22BBDD"/>
</linearGradient>
<linearGradient id="paint1_linear" x1="180" y1="55" x2="170" y2="55" gradientUnits="userSpaceOnUse">
<stop stop-color="#E01E73"/>
<stop offset="1" stop-color="#FF7272"/>
</linearGradient>
<linearGradient id="paint2_linear" x1="180" y1="76" x2="170" y2="76" gradientUnits="userSpaceOnUse">
<stop stop-color="#FF9D0A"/>
<stop offset="1" stop-color="#FEFFC7"/>
</linearGradient>
<linearGradient id="paint3_linear" x1="170" y1="98" x2="180" y2="98" gradientUnits="userSpaceOnUse">
<stop stop-color="#B4FABD"/>
<stop offset="1" stop-color="#22DD9A"/>
</linearGradient>
<linearGradient id="paint4_linear" x1="180" y1="119" x2="170" y2="119" gradientUnits="userSpaceOnUse">
<stop stop-color="#C41005"/>
<stop offset="1" stop-color="#DD5E16"/>
</linearGradient>
<linearGradient id="paint5_linear" x1="170" y1="139" x2="180" y2="139" gradientUnits="userSpaceOnUse">
<stop stop-color="#FA1DBC"/>
<stop offset="1" stop-color="#A122DD"/>
</linearGradient>
<linearGradient id="paint6_linear" x1="79.9839" y1="41.3443" x2="140.608" y2="41.3443" gradientUnits="userSpaceOnUse">
<stop stop-color="#65A6F2"/>
<stop offset="1" stop-color="#22BBDD"/>
</linearGradient>
<linearGradient id="paint7_linear" x1="3.96056e-07" y1="93.2474" x2="167.869" y2="93.2474" gradientUnits="userSpaceOnUse">
<stop stop-color="#FF7272"/>
<stop offset="1" stop-color="#E01E73"/>
</linearGradient>
<linearGradient id="paint8_linear" x1="0.732422" y1="49.1105" x2="83.8985" y2="49.1105" gradientUnits="userSpaceOnUse">
<stop stop-color="#FEFFC7"/>
<stop offset="1" stop-color="#FF9D0A"/>
</linearGradient>
<radialGradient id="paint9_radial" cx="0" cy="0" r="1" gradientUnits="userSpaceOnUse" gradientTransform="translate(80 49.9999) scale(112)">
<stop stop-color="#24CBE5"/>
<stop offset="1" stop-color="#007F99"/>
</radialGradient>
<linearGradient id="paint10_linear" x1="33.0371" y1="41.3442" x2="82.3094" y2="41.3442" gradientUnits="userSpaceOnUse">
<stop stop-color="#C31005"/>
<stop offset="1" stop-color="#DD5E16"/>
</linearGradient>
<radialGradient id="paint11_radial" cx="0" cy="0" r="1" gradientUnits="userSpaceOnUse" gradientTransform="translate(79.9998 50) scale(111.995 112)">
<stop stop-color="#FF9655"/>
<stop offset="1" stop-color="#B34A09"/>
</radialGradient>
</defs>
</svg>
