<svg width="384" height="169" viewBox="0 0 384 169" fill="none" xmlns="http://www.w3.org/2000/svg">
<g filter="url(#filter0_d)">
<line x1="172" y1="32" x2="178" y2="32" stroke="url(#paint0_linear)" stroke-width="4" stroke-linecap="round"/>
</g>
<line x1="172" y1="53" x2="178" y2="53" stroke="url(#paint1_linear)" stroke-width="4" stroke-linecap="round"/>
<g filter="url(#filter1_d)">
<line x1="172" y1="74" x2="178" y2="74" stroke="url(#paint2_linear)" stroke-width="4" stroke-linecap="round" stroke-linejoin="round"/>
</g>
<g filter="url(#filter2_d)">
<line x1="172" y1="96" x2="178" y2="96" stroke="url(#paint3_linear)" stroke-width="4" stroke-linecap="round"/>
</g>
<line x1="172" y1="117" x2="178" y2="117" stroke="url(#paint4_linear)" stroke-width="4" stroke-linecap="round"/>
<g filter="url(#filter3_d)">
<line x1="172" y1="137" x2="178" y2="137" stroke="url(#paint5_linear)" stroke-width="4" stroke-linecap="round"/>
</g>
<path d="M197.895 31.4648H198.492C199.051 31.4648 199.469 31.3555 199.746 31.1367C200.023 30.9141 200.162 30.5918 200.162 30.1699C200.162 29.7441 200.045 29.4297 199.811 29.2266C199.58 29.0234 199.217 28.9219 198.721 28.9219H197.895V31.4648ZM201.996 30.1055C201.996 31.0273 201.707 31.7324 201.129 32.2207C200.555 32.709 199.736 32.9531 198.674 32.9531H197.895V36H196.078V27.4336H198.814C199.854 27.4336 200.643 27.6582 201.182 28.1074C201.725 28.5527 201.996 29.2188 201.996 30.1055ZM207.129 29.3262C207.371 29.3262 207.572 29.3438 207.732 29.3789L207.598 31.0547C207.453 31.0156 207.277 30.9961 207.07 30.9961C206.5 30.9961 206.055 31.1426 205.734 31.4355C205.418 31.7285 205.26 32.1387 205.26 32.666V36H203.473V29.4492H204.826L205.09 30.5508H205.178C205.381 30.1836 205.654 29.8887 205.998 29.666C206.346 29.4395 206.723 29.3262 207.129 29.3262ZM211.635 30.5977C211.256 30.5977 210.959 30.7188 210.744 30.9609C210.529 31.1992 210.406 31.5391 210.375 31.9805H212.883C212.875 31.5391 212.76 31.1992 212.537 30.9609C212.314 30.7188 212.014 30.5977 211.635 30.5977ZM211.887 36.1172C210.832 36.1172 210.008 35.8262 209.414 35.2441C208.82 34.6621 208.523 33.8379 208.523 32.7715C208.523 31.6738 208.797 30.8262 209.344 30.2285C209.895 29.627 210.654 29.3262 211.623 29.3262C212.549 29.3262 213.27 29.5898 213.785 30.1172C214.301 30.6445 214.559 31.373 214.559 32.3027V33.1699H210.334C210.354 33.6777 210.504 34.0742 210.785 34.3594C211.066 34.6445 211.461 34.7871 211.969 34.7871C212.363 34.7871 212.736 34.7461 213.088 34.6641C213.439 34.582 213.807 34.4512 214.189 34.2715V35.6543C213.877 35.8105 213.543 35.9258 213.188 36C212.832 36.0781 212.398 36.1172 211.887 36.1172ZM220.582 34.0547C220.582 34.7266 220.348 35.2383 219.879 35.5898C219.414 35.9414 218.717 36.1172 217.787 36.1172C217.311 36.1172 216.904 36.084 216.568 36.0176C216.232 35.9551 215.918 35.8613 215.625 35.7363V34.2598C215.957 34.416 216.33 34.5469 216.744 34.6523C217.162 34.7578 217.529 34.8105 217.846 34.8105C218.494 34.8105 218.818 34.623 218.818 34.248C218.818 34.1074 218.775 33.9941 218.689 33.9082C218.604 33.8184 218.455 33.7188 218.244 33.6094C218.033 33.4961 217.752 33.3652 217.4 33.2168C216.896 33.0059 216.525 32.8105 216.287 32.6309C216.053 32.4512 215.881 32.2461 215.771 32.0156C215.666 31.7812 215.613 31.4941 215.613 31.1543C215.613 30.5723 215.838 30.123 216.287 29.8066C216.74 29.4863 217.381 29.3262 218.209 29.3262C218.998 29.3262 219.766 29.498 220.512 29.8418L219.973 31.1309C219.645 30.9902 219.338 30.875 219.053 30.7852C218.768 30.6953 218.477 30.6504 218.18 30.6504C217.652 30.6504 217.389 30.793 217.389 31.0781C217.389 31.2383 217.473 31.377 217.641 31.4941C217.812 31.6113 218.186 31.7852 218.76 32.0156C219.271 32.2227 219.646 32.416 219.885 32.5957C220.123 32.7754 220.299 32.9824 220.412 33.2168C220.525 33.4512 220.582 33.7305 220.582 34.0547ZM226.137 36L225.791 35.1094H225.744C225.443 35.4883 225.133 35.752 224.812 35.9004C224.496 36.0449 224.082 36.1172 223.57 36.1172C222.941 36.1172 222.445 35.9375 222.082 35.5781C221.723 35.2188 221.543 34.707 221.543 34.043C221.543 33.3477 221.785 32.8359 222.27 32.5078C222.758 32.1758 223.492 31.9922 224.473 31.957L225.609 31.9219V31.6348C225.609 30.9707 225.27 30.6387 224.59 30.6387C224.066 30.6387 223.451 30.7969 222.744 31.1133L222.152 29.9062C222.906 29.5117 223.742 29.3145 224.66 29.3145C225.539 29.3145 226.213 29.5059 226.682 29.8887C227.15 30.2715 227.385 30.8535 227.385 31.6348V36H226.137ZM225.609 32.9648L224.918 32.9883C224.398 33.0039 224.012 33.0977 223.758 33.2695C223.504 33.4414 223.377 33.7031 223.377 34.0547C223.377 34.5586 223.666 34.8105 224.244 34.8105C224.658 34.8105 224.988 34.6914 225.234 34.4531C225.484 34.2148 225.609 33.8984 225.609 33.5039V32.9648ZM231.018 36H229.23V26.8828H231.018V36ZM235.611 30.5977C235.232 30.5977 234.936 30.7188 234.721 30.9609C234.506 31.1992 234.383 31.5391 234.352 31.9805H236.859C236.852 31.5391 236.736 31.1992 236.514 30.9609C236.291 30.7188 235.99 30.5977 235.611 30.5977ZM235.863 36.1172C234.809 36.1172 233.984 35.8262 233.391 35.2441C232.797 34.6621 232.5 33.8379 232.5 32.7715C232.5 31.6738 232.773 30.8262 233.32 30.2285C233.871 29.627 234.631 29.3262 235.6 29.3262C236.525 29.3262 237.246 29.5898 237.762 30.1172C238.277 30.6445 238.535 31.373 238.535 32.3027V33.1699H234.311C234.33 33.6777 234.48 34.0742 234.762 34.3594C235.043 34.6445 235.438 34.7871 235.945 34.7871C236.34 34.7871 236.713 34.7461 237.064 34.6641C237.416 34.582 237.783 34.4512 238.166 34.2715V35.6543C237.854 35.8105 237.52 35.9258 237.164 36C236.809 36.0781 236.375 36.1172 235.863 36.1172ZM239.736 35.1621C239.736 34.834 239.824 34.5859 240 34.418C240.176 34.25 240.432 34.166 240.768 34.166C241.092 34.166 241.342 34.252 241.518 34.4238C241.697 34.5957 241.787 34.8418 241.787 35.1621C241.787 35.4707 241.697 35.7148 241.518 35.8945C241.338 36.0703 241.088 36.1582 240.768 36.1582C240.439 36.1582 240.186 36.0723 240.006 35.9004C239.826 35.7246 239.736 35.4785 239.736 35.1621ZM239.736 30.3223C239.736 29.9941 239.824 29.7461 240 29.5781C240.176 29.4102 240.432 29.3262 240.768 29.3262C241.092 29.3262 241.342 29.4121 241.518 29.584C241.697 29.7559 241.787 30.002 241.787 30.3223C241.787 30.6387 241.695 30.8848 241.512 31.0605C241.332 31.2324 241.084 31.3184 240.768 31.3184C240.439 31.3184 240.186 31.2324 240.006 31.0605C239.826 30.8887 239.736 30.6426 239.736 30.3223ZM248.736 30.8496C249.65 30.8496 250.369 31.0703 250.893 31.5117C251.42 31.9531 251.684 32.5605 251.684 33.334C251.684 34.2129 251.41 34.8965 250.863 35.3848C250.316 35.873 249.562 36.1172 248.602 36.1172C248.176 36.1172 247.771 36.0762 247.389 35.9941C247.006 35.9082 246.686 35.7871 246.428 35.6309V35.0273C246.85 35.2422 247.225 35.3926 247.553 35.4785C247.881 35.5605 248.23 35.6016 248.602 35.6016C249.352 35.6016 249.953 35.4043 250.406 35.0098C250.859 34.6113 251.086 34.0742 251.086 33.3984C251.086 32.7617 250.865 32.2617 250.424 31.8984C249.982 31.5352 249.383 31.3535 248.625 31.3535C248.117 31.3535 247.586 31.4297 247.031 31.582L246.68 31.3535L247.02 27.4336H251.145V27.9961H247.57L247.307 31.0195C247.916 30.9062 248.393 30.8496 248.736 30.8496ZM257.426 36L254.232 28.0898H254.186C254.217 28.5742 254.232 29.0703 254.232 29.5781V36H253.658V27.4336H254.584L257.619 34.9688H257.654L260.689 27.4336H261.592V36H260.988V29.5078C260.988 29.0547 261.012 28.5859 261.059 28.1016H261.012L257.807 36H257.426ZM266.461 33V32.5195H269.244V33H266.461ZM276.902 36H276.328V29.7598C276.328 29.1934 276.352 28.6055 276.398 27.9961C276.34 28.0547 276.279 28.1113 276.217 28.166C276.154 28.2207 275.551 28.6953 274.406 29.5898L274.072 29.1738L276.398 27.4336H276.902V36ZM285.943 31.6934C285.943 33.1973 285.713 34.3105 285.252 35.0332C284.795 35.7559 284.102 36.1172 283.172 36.1172C282.277 36.1172 281.598 35.7461 281.133 35.0039C280.668 34.2578 280.436 33.1543 280.436 31.6934C280.436 30.2012 280.66 29.0957 281.109 28.377C281.562 27.6582 282.25 27.2988 283.172 27.2988C284.074 27.2988 284.762 27.6719 285.234 28.418C285.707 29.1602 285.943 30.252 285.943 31.6934ZM281.068 31.6934C281.068 33.0215 281.242 34.0039 281.59 34.6406C281.938 35.2734 282.465 35.5898 283.172 35.5898C283.91 35.5898 284.447 35.2617 284.783 34.6055C285.123 33.9492 285.293 32.9785 285.293 31.6934C285.293 30.4277 285.123 29.4668 284.783 28.8105C284.447 28.1543 283.91 27.8262 283.172 27.8262C282.434 27.8262 281.898 28.1543 281.566 28.8105C281.234 29.4668 281.068 30.4277 281.068 31.6934ZM287.566 35.543C287.566 35.1602 287.723 34.9688 288.035 34.9688C288.355 34.9688 288.516 35.1602 288.516 35.543C288.516 35.9258 288.355 36.1172 288.035 36.1172C287.723 36.1172 287.566 35.9258 287.566 35.543ZM295.5 36H290.139V35.4844L292.418 33.1055C293.059 32.4414 293.508 31.9336 293.766 31.582C294.023 31.2305 294.213 30.8945 294.334 30.5742C294.455 30.2539 294.516 29.918 294.516 29.5664C294.516 29.0547 294.348 28.6387 294.012 28.3184C293.676 27.998 293.24 27.8379 292.705 27.8379C291.99 27.8379 291.307 28.0977 290.654 28.6172L290.338 28.2129C291.053 27.6113 291.846 27.3105 292.717 27.3105C293.463 27.3105 294.049 27.5098 294.475 27.9082C294.904 28.3066 295.119 28.8555 295.119 29.5547C295.119 30.1211 294.975 30.6699 294.686 31.2012C294.4 31.7285 293.877 32.3809 293.115 33.1582L290.918 35.4141V35.4375H295.5V36ZM297.568 29.9883C297.568 30.7148 297.656 31.2617 297.832 31.6289C298.008 31.9922 298.283 32.1738 298.658 32.1738C299.412 32.1738 299.789 31.4453 299.789 29.9883C299.789 29.2695 299.691 28.7305 299.496 28.3711C299.305 28.0078 299.025 27.8262 298.658 27.8262C298.283 27.8262 298.008 28.0078 297.832 28.3711C297.656 28.7305 297.568 29.2695 297.568 29.9883ZM300.363 29.9883C300.363 30.8711 300.217 31.543 299.924 32.0039C299.631 32.4609 299.209 32.6895 298.658 32.6895C298.139 32.6895 297.73 32.4551 297.434 31.9863C297.141 31.5137 296.994 30.8477 296.994 29.9883C296.994 29.1172 297.135 28.4531 297.416 27.9961C297.697 27.5391 298.111 27.3105 298.658 27.3105C299.201 27.3105 299.621 27.5469 299.918 28.0195C300.215 28.4883 300.363 29.1445 300.363 29.9883ZM302.561 33.4336C302.561 34.1562 302.648 34.6992 302.824 35.0625C303 35.4219 303.275 35.6016 303.65 35.6016C304.404 35.6016 304.781 34.8789 304.781 33.4336C304.781 31.9922 304.404 31.2715 303.65 31.2715C303.275 31.2715 303 31.4512 302.824 31.8105C302.648 32.166 302.561 32.707 302.561 33.4336ZM305.355 33.4336C305.355 34.3164 305.211 34.9883 304.922 35.4492C304.633 35.9062 304.213 36.1348 303.662 36.1348C303.131 36.1348 302.719 35.8984 302.426 35.4258C302.133 34.9492 301.986 34.2852 301.986 33.4336C301.986 32.5547 302.129 31.8887 302.414 31.4355C302.703 30.9824 303.119 30.7559 303.662 30.7559C304.197 30.7559 304.613 30.9902 304.91 31.459C305.207 31.9277 305.355 32.5859 305.355 33.4336ZM303.832 27.4336L299.08 36H298.518L303.27 27.4336H303.832Z" fill="white"/>
<path d="M197.895 52.4648H198.492C199.051 52.4648 199.469 52.3555 199.746 52.1367C200.023 51.9141 200.162 51.5918 200.162 51.1699C200.162 50.7441 200.045 50.4297 199.811 50.2266C199.58 50.0234 199.217 49.9219 198.721 49.9219H197.895V52.4648ZM201.996 51.1055C201.996 52.0273 201.707 52.7324 201.129 53.2207C200.555 53.709 199.736 53.9531 198.674 53.9531H197.895V57H196.078V48.4336H198.814C199.854 48.4336 200.643 48.6582 201.182 49.1074C201.725 49.5527 201.996 50.2188 201.996 51.1055ZM208.113 57L207.873 56.1621H207.779C207.588 56.4668 207.316 56.7031 206.965 56.8711C206.613 57.0352 206.213 57.1172 205.764 57.1172C204.994 57.1172 204.414 56.9121 204.023 56.502C203.633 56.0879 203.438 55.4941 203.438 54.7207V50.4492H205.225V54.2754C205.225 54.748 205.309 55.1035 205.477 55.3418C205.645 55.5762 205.912 55.6934 206.279 55.6934C206.779 55.6934 207.141 55.5273 207.363 55.1953C207.586 54.8594 207.697 54.3047 207.697 53.5312V50.4492H209.484V57H208.113ZM215.004 50.3262C215.777 50.3262 216.383 50.6289 216.82 51.2344C217.258 51.8359 217.477 52.6621 217.477 53.7129C217.477 54.7949 217.25 55.6328 216.797 56.2266C216.348 56.8203 215.734 57.1172 214.957 57.1172C214.188 57.1172 213.584 56.8379 213.146 56.2793H213.023L212.725 57H211.359V47.8828H213.146V50.0039C213.146 50.2734 213.123 50.7051 213.076 51.2988H213.146C213.564 50.6504 214.184 50.3262 215.004 50.3262ZM214.43 51.7559C213.988 51.7559 213.666 51.8926 213.463 52.166C213.26 52.4355 213.154 52.8828 213.146 53.5078V53.7012C213.146 54.4043 213.25 54.9082 213.457 55.2129C213.668 55.5176 214 55.6699 214.453 55.6699C214.82 55.6699 215.111 55.502 215.326 55.166C215.545 54.8262 215.654 54.334 215.654 53.6895C215.654 53.0449 215.545 52.5625 215.326 52.2422C215.107 51.918 214.809 51.7559 214.43 51.7559ZM220.74 57H218.953V47.8828H220.74V57ZM222.545 48.7559C222.545 48.1738 222.869 47.8828 223.518 47.8828C224.166 47.8828 224.49 48.1738 224.49 48.7559C224.49 49.0332 224.408 49.25 224.244 49.4062C224.084 49.5586 223.842 49.6348 223.518 49.6348C222.869 49.6348 222.545 49.3418 222.545 48.7559ZM224.408 57H222.621V50.4492H224.408V57ZM228.949 57.1172C226.91 57.1172 225.891 55.998 225.891 53.7598C225.891 52.6465 226.168 51.7969 226.723 51.2109C227.277 50.6211 228.072 50.3262 229.107 50.3262C229.865 50.3262 230.545 50.4746 231.146 50.7715L230.619 52.1543C230.338 52.041 230.076 51.9492 229.834 51.8789C229.592 51.8047 229.35 51.7676 229.107 51.7676C228.178 51.7676 227.713 52.4277 227.713 53.748C227.713 55.0293 228.178 55.6699 229.107 55.6699C229.451 55.6699 229.77 55.625 230.062 55.5352C230.355 55.4414 230.648 55.2969 230.941 55.1016V56.6309C230.652 56.8145 230.359 56.9414 230.062 57.0117C229.77 57.082 229.398 57.1172 228.949 57.1172ZM232.213 56.1621C232.213 55.834 232.301 55.5859 232.477 55.418C232.652 55.25 232.908 55.166 233.244 55.166C233.568 55.166 233.818 55.252 233.994 55.4238C234.174 55.5957 234.264 55.8418 234.264 56.1621C234.264 56.4707 234.174 56.7148 233.994 56.8945C233.814 57.0703 233.564 57.1582 233.244 57.1582C232.916 57.1582 232.662 57.0723 232.482 56.9004C232.303 56.7246 232.213 56.4785 232.213 56.1621ZM232.213 51.3223C232.213 50.9941 232.301 50.7461 232.477 50.5781C232.652 50.4102 232.908 50.3262 233.244 50.3262C233.568 50.3262 233.818 50.4121 233.994 50.584C234.174 50.7559 234.264 51.002 234.264 51.3223C234.264 51.6387 234.172 51.8848 233.988 52.0605C233.809 52.2324 233.561 52.3184 233.244 52.3184C232.916 52.3184 232.662 52.2324 232.482 52.0605C232.303 51.8887 232.213 51.6426 232.213 51.3223ZM244.09 57H238.729V56.4844L241.008 54.1055C241.648 53.4414 242.098 52.9336 242.355 52.582C242.613 52.2305 242.803 51.8945 242.924 51.5742C243.045 51.2539 243.105 50.918 243.105 50.5664C243.105 50.0547 242.938 49.6387 242.602 49.3184C242.266 48.998 241.83 48.8379 241.295 48.8379C240.58 48.8379 239.896 49.0977 239.244 49.6172L238.928 49.2129C239.643 48.6113 240.436 48.3105 241.307 48.3105C242.053 48.3105 242.639 48.5098 243.064 48.9082C243.494 49.3066 243.709 49.8555 243.709 50.5547C243.709 51.1211 243.564 51.6699 243.275 52.2012C242.99 52.7285 242.467 53.3809 241.705 54.1582L239.508 56.4141V56.4375H244.09V57ZM248.068 51.8496C248.982 51.8496 249.701 52.0703 250.225 52.5117C250.752 52.9531 251.016 53.5605 251.016 54.334C251.016 55.2129 250.742 55.8965 250.195 56.3848C249.648 56.873 248.895 57.1172 247.934 57.1172C247.508 57.1172 247.104 57.0762 246.721 56.9941C246.338 56.9082 246.018 56.7871 245.76 56.6309V56.0273C246.182 56.2422 246.557 56.3926 246.885 56.4785C247.213 56.5605 247.562 56.6016 247.934 56.6016C248.684 56.6016 249.285 56.4043 249.738 56.0098C250.191 55.6113 250.418 55.0742 250.418 54.3984C250.418 53.7617 250.197 53.2617 249.756 52.8984C249.314 52.5352 248.715 52.3535 247.957 52.3535C247.449 52.3535 246.918 52.4297 246.363 52.582L246.012 52.3535L246.352 48.4336H250.477V48.9961H246.902L246.639 52.0195C247.248 51.9062 247.725 51.8496 248.068 51.8496ZM256.758 57L253.564 49.0898H253.518C253.549 49.5742 253.564 50.0703 253.564 50.5781V57H252.99V48.4336H253.916L256.951 55.9688H256.986L260.021 48.4336H260.924V57H260.32V50.5078C260.32 50.0547 260.344 49.5859 260.391 49.1016H260.344L257.139 57H256.758ZM265.793 54V53.5195H268.576V54H265.793ZM275.385 51.8496C276.299 51.8496 277.018 52.0703 277.541 52.5117C278.068 52.9531 278.332 53.5605 278.332 54.334C278.332 55.2129 278.059 55.8965 277.512 56.3848C276.965 56.873 276.211 57.1172 275.25 57.1172C274.824 57.1172 274.42 57.0762 274.037 56.9941C273.654 56.9082 273.334 56.7871 273.076 56.6309V56.0273C273.498 56.2422 273.873 56.3926 274.201 56.4785C274.529 56.5605 274.879 56.6016 275.25 56.6016C276 56.6016 276.602 56.4043 277.055 56.0098C277.508 55.6113 277.734 55.0742 277.734 54.3984C277.734 53.7617 277.514 53.2617 277.072 52.8984C276.631 52.5352 276.031 52.3535 275.273 52.3535C274.766 52.3535 274.234 52.4297 273.68 52.582L273.328 52.3535L273.668 48.4336H277.793V48.9961H274.219L273.955 52.0195C274.564 51.9062 275.041 51.8496 275.385 51.8496ZM285.275 52.6934C285.275 54.1973 285.045 55.3105 284.584 56.0332C284.127 56.7559 283.434 57.1172 282.504 57.1172C281.609 57.1172 280.93 56.7461 280.465 56.0039C280 55.2578 279.768 54.1543 279.768 52.6934C279.768 51.2012 279.992 50.0957 280.441 49.377C280.895 48.6582 281.582 48.2988 282.504 48.2988C283.406 48.2988 284.094 48.6719 284.566 49.418C285.039 50.1602 285.275 51.252 285.275 52.6934ZM280.4 52.6934C280.4 54.0215 280.574 55.0039 280.922 55.6406C281.27 56.2734 281.797 56.5898 282.504 56.5898C283.242 56.5898 283.779 56.2617 284.115 55.6055C284.455 54.9492 284.625 53.9785 284.625 52.6934C284.625 51.4277 284.455 50.4668 284.115 49.8105C283.779 49.1543 283.242 48.8262 282.504 48.8262C281.766 48.8262 281.23 49.1543 280.898 49.8105C280.566 50.4668 280.4 51.4277 280.4 52.6934ZM286.898 56.543C286.898 56.1602 287.055 55.9688 287.367 55.9688C287.688 55.9688 287.848 56.1602 287.848 56.543C287.848 56.9258 287.688 57.1172 287.367 57.1172C287.055 57.1172 286.898 56.9258 286.898 56.543ZM292.219 48.2871C292.945 48.2871 293.529 48.4727 293.971 48.8438C294.416 49.2148 294.639 49.7168 294.639 50.3496C294.639 50.7871 294.5 51.1738 294.223 51.5098C293.949 51.8457 293.504 52.1562 292.887 52.4414C293.637 52.75 294.164 53.0879 294.469 53.4551C294.773 53.8223 294.926 54.2676 294.926 54.791C294.926 55.498 294.678 56.0625 294.182 56.4844C293.689 56.9062 293.027 57.1172 292.195 57.1172C291.332 57.1172 290.67 56.9199 290.209 56.5254C289.748 56.1309 289.518 55.5566 289.518 54.8027C289.518 54.291 289.68 53.8418 290.004 53.4551C290.328 53.0684 290.83 52.7383 291.51 52.4648C290.881 52.168 290.438 51.8555 290.18 51.5273C289.922 51.1953 289.793 50.7988 289.793 50.3379C289.793 49.9277 289.896 49.5684 290.104 49.2598C290.311 48.9473 290.6 48.707 290.971 48.5391C291.346 48.3711 291.762 48.2871 292.219 48.2871ZM290.115 54.8906C290.115 55.4297 290.297 55.8477 290.66 56.1445C291.027 56.4414 291.539 56.5898 292.195 56.5898C292.836 56.5898 293.352 56.4336 293.742 56.1211C294.133 55.8047 294.328 55.377 294.328 54.8379C294.328 54.3535 294.174 53.9609 293.865 53.6602C293.561 53.3555 292.971 53.0371 292.096 52.7051C291.377 52.9824 290.867 53.2891 290.566 53.625C290.266 53.9609 290.115 54.3828 290.115 54.8906ZM292.207 48.8145C291.656 48.8145 291.213 48.9512 290.877 49.2246C290.545 49.4941 290.379 49.8652 290.379 50.3379C290.379 50.6113 290.439 50.8535 290.561 51.0645C290.686 51.2715 290.863 51.4609 291.094 51.6328C291.328 51.8008 291.719 51.998 292.266 52.2246C292.902 51.9785 293.359 51.707 293.637 51.4102C293.914 51.1133 294.053 50.7559 294.053 50.3379C294.053 49.8691 293.887 49.498 293.555 49.2246C293.227 48.9512 292.777 48.8145 292.207 48.8145ZM296.9 50.9883C296.9 51.7148 296.988 52.2617 297.164 52.6289C297.34 52.9922 297.615 53.1738 297.99 53.1738C298.744 53.1738 299.121 52.4453 299.121 50.9883C299.121 50.2695 299.023 49.7305 298.828 49.3711C298.637 49.0078 298.357 48.8262 297.99 48.8262C297.615 48.8262 297.34 49.0078 297.164 49.3711C296.988 49.7305 296.9 50.2695 296.9 50.9883ZM299.695 50.9883C299.695 51.8711 299.549 52.543 299.256 53.0039C298.963 53.4609 298.541 53.6895 297.99 53.6895C297.471 53.6895 297.062 53.4551 296.766 52.9863C296.473 52.5137 296.326 51.8477 296.326 50.9883C296.326 50.1172 296.467 49.4531 296.748 48.9961C297.029 48.5391 297.443 48.3105 297.99 48.3105C298.533 48.3105 298.953 48.5469 299.25 49.0195C299.547 49.4883 299.695 50.1445 299.695 50.9883ZM301.893 54.4336C301.893 55.1562 301.98 55.6992 302.156 56.0625C302.332 56.4219 302.607 56.6016 302.982 56.6016C303.736 56.6016 304.113 55.8789 304.113 54.4336C304.113 52.9922 303.736 52.2715 302.982 52.2715C302.607 52.2715 302.332 52.4512 302.156 52.8105C301.98 53.166 301.893 53.707 301.893 54.4336ZM304.688 54.4336C304.688 55.3164 304.543 55.9883 304.254 56.4492C303.965 56.9062 303.545 57.1348 302.994 57.1348C302.463 57.1348 302.051 56.8984 301.758 56.4258C301.465 55.9492 301.318 55.2852 301.318 54.4336C301.318 53.5547 301.461 52.8887 301.746 52.4355C302.035 51.9824 302.451 51.7559 302.994 51.7559C303.529 51.7559 303.945 51.9902 304.242 52.459C304.539 52.9277 304.688 53.5859 304.688 54.4336ZM303.164 48.4336L298.412 57H297.85L302.602 48.4336H303.164Z" fill="white"/>
<path d="M197.865 78H196.078V69.4336H200.988V70.9219H197.865V73.1309H200.771V74.6133H197.865V78ZM203.947 74.7129C203.947 75.3613 204.053 75.8516 204.264 76.1836C204.479 76.5156 204.826 76.6816 205.307 76.6816C205.783 76.6816 206.125 76.5176 206.332 76.1895C206.543 75.8574 206.648 75.3652 206.648 74.7129C206.648 74.0645 206.543 73.5781 206.332 73.2539C206.121 72.9297 205.775 72.7676 205.295 72.7676C204.818 72.7676 204.475 72.9297 204.264 73.2539C204.053 73.5742 203.947 74.0605 203.947 74.7129ZM208.477 74.7129C208.477 75.7793 208.195 76.6133 207.633 77.2148C207.07 77.8164 206.287 78.1172 205.283 78.1172C204.654 78.1172 204.1 77.9805 203.619 77.707C203.139 77.4297 202.77 77.0332 202.512 76.5176C202.254 76.002 202.125 75.4004 202.125 74.7129C202.125 73.6426 202.404 72.8105 202.963 72.2168C203.521 71.623 204.307 71.3262 205.318 71.3262C205.947 71.3262 206.502 71.4629 206.982 71.7363C207.463 72.0098 207.832 72.4023 208.09 72.9141C208.348 73.4258 208.477 74.0254 208.477 74.7129ZM214.594 78L214.354 77.1621H214.26C214.068 77.4668 213.797 77.7031 213.445 77.8711C213.094 78.0352 212.693 78.1172 212.244 78.1172C211.475 78.1172 210.895 77.9121 210.504 77.502C210.113 77.0879 209.918 76.4941 209.918 75.7207V71.4492H211.705V75.2754C211.705 75.748 211.789 76.1035 211.957 76.3418C212.125 76.5762 212.393 76.6934 212.76 76.6934C213.26 76.6934 213.621 76.5273 213.844 76.1953C214.066 75.8594 214.178 75.3047 214.178 74.5312V71.4492H215.965V78H214.594ZM223.887 78H222.1V74.1738C222.1 73.7012 222.016 73.3477 221.848 73.1133C221.68 72.875 221.412 72.7559 221.045 72.7559C220.545 72.7559 220.184 72.9238 219.961 73.2598C219.738 73.5918 219.627 74.1445 219.627 74.918V78H217.84V71.4492H219.205L219.445 72.2871H219.545C219.744 71.9707 220.018 71.7324 220.365 71.5723C220.717 71.4082 221.115 71.3262 221.561 71.3262C222.322 71.3262 222.9 71.5332 223.295 71.9473C223.689 72.3574 223.887 72.9512 223.887 73.7285V78ZM227.801 78.1172C227.031 78.1172 226.426 77.8184 225.984 77.2207C225.547 76.623 225.328 75.7949 225.328 74.7363C225.328 73.6621 225.551 72.8262 225.996 72.2285C226.445 71.627 227.062 71.3262 227.848 71.3262C228.672 71.3262 229.301 71.6465 229.734 72.2871H229.793C229.703 71.7988 229.658 71.3633 229.658 70.9805V68.8828H231.451V78H230.08L229.734 77.1504H229.658C229.252 77.7949 228.633 78.1172 227.801 78.1172ZM228.428 76.6934C228.885 76.6934 229.219 76.5605 229.43 76.2949C229.645 76.0293 229.762 75.5781 229.781 74.9414V74.748C229.781 74.0449 229.672 73.541 229.453 73.2363C229.238 72.9316 228.887 72.7793 228.398 72.7793C228 72.7793 227.689 72.9492 227.467 73.2891C227.248 73.625 227.139 74.1152 227.139 74.7598C227.139 75.4043 227.25 75.8887 227.473 76.2129C227.695 76.5332 228.014 76.6934 228.428 76.6934ZM241.512 78H236.578V69.4336H241.512V70.9219H238.395V72.8027H241.295V74.291H238.395V76.5H241.512V78ZM245.824 78.1172C243.785 78.1172 242.766 76.998 242.766 74.7598C242.766 73.6465 243.043 72.7969 243.598 72.2109C244.152 71.6211 244.947 71.3262 245.982 71.3262C246.74 71.3262 247.42 71.4746 248.021 71.7715L247.494 73.1543C247.213 73.041 246.951 72.9492 246.709 72.8789C246.467 72.8047 246.225 72.7676 245.982 72.7676C245.053 72.7676 244.588 73.4277 244.588 74.748C244.588 76.0293 245.053 76.6699 245.982 76.6699C246.326 76.6699 246.645 76.625 246.938 76.5352C247.23 76.4414 247.523 76.2969 247.816 76.1016V77.6309C247.527 77.8145 247.234 77.9414 246.938 78.0117C246.645 78.082 246.273 78.1172 245.824 78.1172ZM250.764 74.7129C250.764 75.3613 250.869 75.8516 251.08 76.1836C251.295 76.5156 251.643 76.6816 252.123 76.6816C252.6 76.6816 252.941 76.5176 253.148 76.1895C253.359 75.8574 253.465 75.3652 253.465 74.7129C253.465 74.0645 253.359 73.5781 253.148 73.2539C252.938 72.9297 252.592 72.7676 252.111 72.7676C251.635 72.7676 251.291 72.9297 251.08 73.2539C250.869 73.5742 250.764 74.0605 250.764 74.7129ZM255.293 74.7129C255.293 75.7793 255.012 76.6133 254.449 77.2148C253.887 77.8164 253.104 78.1172 252.1 78.1172C251.471 78.1172 250.916 77.9805 250.436 77.707C249.955 77.4297 249.586 77.0332 249.328 76.5176C249.07 76.002 248.941 75.4004 248.941 74.7129C248.941 73.6426 249.221 72.8105 249.779 72.2168C250.338 71.623 251.123 71.3262 252.135 71.3262C252.764 71.3262 253.318 71.4629 253.799 71.7363C254.279 72.0098 254.648 72.4023 254.906 72.9141C255.164 73.4258 255.293 74.0254 255.293 74.7129ZM261.34 76.0547C261.34 76.7266 261.105 77.2383 260.637 77.5898C260.172 77.9414 259.475 78.1172 258.545 78.1172C258.068 78.1172 257.662 78.084 257.326 78.0176C256.99 77.9551 256.676 77.8613 256.383 77.7363V76.2598C256.715 76.416 257.088 76.5469 257.502 76.6523C257.92 76.7578 258.287 76.8105 258.604 76.8105C259.252 76.8105 259.576 76.623 259.576 76.248C259.576 76.1074 259.533 75.9941 259.447 75.9082C259.361 75.8184 259.213 75.7188 259.002 75.6094C258.791 75.4961 258.51 75.3652 258.158 75.2168C257.654 75.0059 257.283 74.8105 257.045 74.6309C256.811 74.4512 256.639 74.2461 256.529 74.0156C256.424 73.7812 256.371 73.4941 256.371 73.1543C256.371 72.5723 256.596 72.123 257.045 71.8066C257.498 71.4863 258.139 71.3262 258.967 71.3262C259.756 71.3262 260.523 71.498 261.27 71.8418L260.73 73.1309C260.402 72.9902 260.096 72.875 259.811 72.7852C259.525 72.6953 259.234 72.6504 258.938 72.6504C258.41 72.6504 258.146 72.793 258.146 73.0781C258.146 73.2383 258.23 73.377 258.398 73.4941C258.57 73.6113 258.943 73.7852 259.518 74.0156C260.029 74.2227 260.404 74.416 260.643 74.5957C260.881 74.7754 261.057 74.9824 261.17 75.2168C261.283 75.4512 261.34 75.7305 261.34 76.0547ZM261.797 71.4492H263.754L264.99 75.1348C265.096 75.4551 265.168 75.834 265.207 76.2715H265.242C265.285 75.8691 265.369 75.4902 265.494 75.1348L266.707 71.4492H268.623L265.852 78.8379C265.598 79.5215 265.234 80.0332 264.762 80.373C264.293 80.7129 263.744 80.8828 263.115 80.8828C262.807 80.8828 262.504 80.8496 262.207 80.7832V79.3652C262.422 79.416 262.656 79.4414 262.91 79.4414C263.227 79.4414 263.502 79.3438 263.736 79.1484C263.975 78.957 264.16 78.666 264.293 78.2754L264.398 77.9531L261.797 71.4492ZM274.137 76.0547C274.137 76.7266 273.902 77.2383 273.434 77.5898C272.969 77.9414 272.271 78.1172 271.342 78.1172C270.865 78.1172 270.459 78.084 270.123 78.0176C269.787 77.9551 269.473 77.8613 269.18 77.7363V76.2598C269.512 76.416 269.885 76.5469 270.299 76.6523C270.717 76.7578 271.084 76.8105 271.4 76.8105C272.049 76.8105 272.373 76.623 272.373 76.248C272.373 76.1074 272.33 75.9941 272.244 75.9082C272.158 75.8184 272.01 75.7188 271.799 75.6094C271.588 75.4961 271.307 75.3652 270.955 75.2168C270.451 75.0059 270.08 74.8105 269.842 74.6309C269.607 74.4512 269.436 74.2461 269.326 74.0156C269.221 73.7812 269.168 73.4941 269.168 73.1543C269.168 72.5723 269.393 72.123 269.842 71.8066C270.295 71.4863 270.936 71.3262 271.764 71.3262C272.553 71.3262 273.32 71.498 274.066 71.8418L273.527 73.1309C273.199 72.9902 272.893 72.875 272.607 72.7852C272.322 72.6953 272.031 72.6504 271.734 72.6504C271.207 72.6504 270.943 72.793 270.943 73.0781C270.943 73.2383 271.027 73.377 271.195 73.4941C271.367 73.6113 271.74 73.7852 272.314 74.0156C272.826 74.2227 273.201 74.416 273.439 74.5957C273.678 74.7754 273.854 74.9824 273.967 75.2168C274.08 75.4512 274.137 75.7305 274.137 76.0547ZM278.291 76.6934C278.604 76.6934 278.979 76.625 279.416 76.4883V77.8184C278.971 78.0176 278.424 78.1172 277.775 78.1172C277.061 78.1172 276.539 77.9375 276.211 77.5781C275.887 77.2148 275.725 76.6719 275.725 75.9492V72.791H274.869V72.0352L275.854 71.4375L276.369 70.0547H277.512V71.4492H279.346V72.791H277.512V75.9492C277.512 76.2031 277.582 76.3906 277.723 76.5117C277.867 76.6328 278.057 76.6934 278.291 76.6934ZM283.459 72.5977C283.08 72.5977 282.783 72.7188 282.568 72.9609C282.354 73.1992 282.23 73.5391 282.199 73.9805H284.707C284.699 73.5391 284.584 73.1992 284.361 72.9609C284.139 72.7188 283.838 72.5977 283.459 72.5977ZM283.711 78.1172C282.656 78.1172 281.832 77.8262 281.238 77.2441C280.645 76.6621 280.348 75.8379 280.348 74.7715C280.348 73.6738 280.621 72.8262 281.168 72.2285C281.719 71.627 282.479 71.3262 283.447 71.3262C284.373 71.3262 285.094 71.5898 285.609 72.1172C286.125 72.6445 286.383 73.373 286.383 74.3027V75.1699H282.158C282.178 75.6777 282.328 76.0742 282.609 76.3594C282.891 76.6445 283.285 76.7871 283.793 76.7871C284.188 76.7871 284.561 76.7461 284.912 76.6641C285.264 76.582 285.631 76.4512 286.014 76.2715V77.6543C285.701 77.8105 285.367 77.9258 285.012 78C284.656 78.0781 284.223 78.1172 283.711 78.1172ZM293.701 78H291.914V74.1738C291.914 73.7012 291.834 73.3477 291.674 73.1133C291.518 72.875 291.27 72.7559 290.93 72.7559C290.473 72.7559 290.141 72.9238 289.934 73.2598C289.727 73.5957 289.623 74.1484 289.623 74.918V78H287.836V71.4492H289.201L289.441 72.2871H289.541C289.717 71.9863 289.971 71.752 290.303 71.584C290.635 71.4121 291.016 71.3262 291.445 71.3262C292.426 71.3262 293.09 71.6465 293.438 72.2871H293.596C293.771 71.9824 294.029 71.7461 294.369 71.5781C294.713 71.4102 295.1 71.3262 295.529 71.3262C296.271 71.3262 296.832 71.5176 297.211 71.9004C297.594 72.2793 297.785 72.8887 297.785 73.7285V78H295.992V74.1738C295.992 73.7012 295.912 73.3477 295.752 73.1133C295.596 72.875 295.348 72.7559 295.008 72.7559C294.57 72.7559 294.242 72.9121 294.023 73.2246C293.809 73.5371 293.701 74.0332 293.701 74.7129V78ZM299.373 77.1621C299.373 76.834 299.461 76.5859 299.637 76.418C299.812 76.25 300.068 76.166 300.404 76.166C300.729 76.166 300.979 76.252 301.154 76.4238C301.334 76.5957 301.424 76.8418 301.424 77.1621C301.424 77.4707 301.334 77.7148 301.154 77.8945C300.975 78.0703 300.725 78.1582 300.404 78.1582C300.076 78.1582 299.822 78.0723 299.643 77.9004C299.463 77.7246 299.373 77.4785 299.373 77.1621ZM299.373 72.3223C299.373 71.9941 299.461 71.7461 299.637 71.5781C299.812 71.4102 300.068 71.3262 300.404 71.3262C300.729 71.3262 300.979 71.4121 301.154 71.584C301.334 71.7559 301.424 72.002 301.424 72.3223C301.424 72.6387 301.332 72.8848 301.148 73.0605C300.969 73.2324 300.721 73.3184 300.404 73.3184C300.076 73.3184 299.822 73.2324 299.643 73.0605C299.463 72.8887 299.373 72.6426 299.373 72.3223ZM309.223 78H308.648V71.7598C308.648 71.1934 308.672 70.6055 308.719 69.9961C308.66 70.0547 308.6 70.1113 308.537 70.166C308.475 70.2207 307.871 70.6953 306.727 71.5898L306.393 71.1738L308.719 69.4336H309.223V78ZM318.264 73.6934C318.264 75.1973 318.033 76.3105 317.572 77.0332C317.115 77.7559 316.422 78.1172 315.492 78.1172C314.598 78.1172 313.918 77.7461 313.453 77.0039C312.988 76.2578 312.756 75.1543 312.756 73.6934C312.756 72.2012 312.98 71.0957 313.43 70.377C313.883 69.6582 314.57 69.2988 315.492 69.2988C316.395 69.2988 317.082 69.6719 317.555 70.418C318.027 71.1602 318.264 72.252 318.264 73.6934ZM313.389 73.6934C313.389 75.0215 313.562 76.0039 313.91 76.6406C314.258 77.2734 314.785 77.5898 315.492 77.5898C316.23 77.5898 316.768 77.2617 317.104 76.6055C317.443 75.9492 317.613 74.9785 317.613 73.6934C317.613 72.4277 317.443 71.4668 317.104 70.8105C316.768 70.1543 316.23 69.8262 315.492 69.8262C314.754 69.8262 314.219 70.1543 313.887 70.8105C313.555 71.4668 313.389 72.4277 313.389 73.6934ZM323.918 78L320.725 70.0898H320.678C320.709 70.5742 320.725 71.0703 320.725 71.5781V78H320.15V69.4336H321.076L324.111 76.9688H324.146L327.182 69.4336H328.084V78H327.48V71.5078C327.48 71.0547 327.504 70.5859 327.551 70.1016H327.504L324.299 78H323.918ZM332.953 75V74.5195H335.736V75H332.953ZM345.422 78H340.061V77.4844L342.34 75.1055C342.98 74.4414 343.43 73.9336 343.688 73.582C343.945 73.2305 344.135 72.8945 344.256 72.5742C344.377 72.2539 344.438 71.918 344.438 71.5664C344.438 71.0547 344.27 70.6387 343.934 70.3184C343.598 69.998 343.162 69.8379 342.627 69.8379C341.912 69.8379 341.229 70.0977 340.576 70.6172L340.26 70.2129C340.975 69.6113 341.768 69.3105 342.639 69.3105C343.385 69.3105 343.971 69.5098 344.396 69.9082C344.826 70.3066 345.041 70.8555 345.041 71.5547C345.041 72.1211 344.896 72.6699 344.607 73.2012C344.322 73.7285 343.799 74.3809 343.037 75.1582L340.84 77.4141V77.4375H345.422V78ZM352.436 73.6934C352.436 75.1973 352.205 76.3105 351.744 77.0332C351.287 77.7559 350.594 78.1172 349.664 78.1172C348.77 78.1172 348.09 77.7461 347.625 77.0039C347.16 76.2578 346.928 75.1543 346.928 73.6934C346.928 72.2012 347.152 71.0957 347.602 70.377C348.055 69.6582 348.742 69.2988 349.664 69.2988C350.566 69.2988 351.254 69.6719 351.727 70.418C352.199 71.1602 352.436 72.252 352.436 73.6934ZM347.561 73.6934C347.561 75.0215 347.734 76.0039 348.082 76.6406C348.43 77.2734 348.957 77.5898 349.664 77.5898C350.402 77.5898 350.939 77.2617 351.275 76.6055C351.615 75.9492 351.785 74.9785 351.785 73.6934C351.785 72.4277 351.615 71.4668 351.275 70.8105C350.939 70.1543 350.402 69.8262 349.664 69.8262C348.926 69.8262 348.391 70.1543 348.059 70.8105C347.727 71.4668 347.561 72.4277 347.561 73.6934ZM354.059 77.543C354.059 77.1602 354.215 76.9688 354.527 76.9688C354.848 76.9688 355.008 77.1602 355.008 77.543C355.008 77.9258 354.848 78.1172 354.527 78.1172C354.215 78.1172 354.059 77.9258 354.059 77.543ZM361.705 71.4492C361.705 71.9805 361.537 72.4277 361.201 72.791C360.869 73.1543 360.422 73.3867 359.859 73.4883V73.5234C360.547 73.6094 361.07 73.8281 361.43 74.1797C361.789 74.5312 361.969 75.0039 361.969 75.5977C361.969 76.3984 361.695 77.0195 361.148 77.4609C360.605 77.8984 359.822 78.1172 358.799 78.1172C357.928 78.1172 357.168 77.9551 356.52 77.6309V77.0508C356.848 77.2227 357.215 77.3574 357.621 77.4551C358.031 77.5527 358.416 77.6016 358.775 77.6016C359.639 77.6016 360.287 77.4277 360.721 77.0801C361.154 76.7285 361.371 76.2344 361.371 75.5977C361.371 75.0312 361.148 74.5957 360.703 74.291C360.262 73.9863 359.611 73.834 358.752 73.834H357.826V73.2715H358.764C359.475 73.2715 360.037 73.1035 360.451 72.7676C360.869 72.4277 361.078 71.9688 361.078 71.3906C361.078 70.9141 360.908 70.5332 360.568 70.248C360.232 69.959 359.791 69.8145 359.244 69.8145C358.818 69.8145 358.43 69.875 358.078 69.9961C357.727 70.1133 357.332 70.3164 356.895 70.6055L356.607 70.2129C356.939 69.9355 357.34 69.7168 357.809 69.5566C358.277 69.3926 358.752 69.3105 359.232 69.3105C360.021 69.3105 360.631 69.498 361.061 69.873C361.49 70.2441 361.705 70.7695 361.705 71.4492ZM364.061 71.9883C364.061 72.7148 364.148 73.2617 364.324 73.6289C364.5 73.9922 364.775 74.1738 365.15 74.1738C365.904 74.1738 366.281 73.4453 366.281 71.9883C366.281 71.2695 366.184 70.7305 365.988 70.3711C365.797 70.0078 365.518 69.8262 365.15 69.8262C364.775 69.8262 364.5 70.0078 364.324 70.3711C364.148 70.7305 364.061 71.2695 364.061 71.9883ZM366.855 71.9883C366.855 72.8711 366.709 73.543 366.416 74.0039C366.123 74.4609 365.701 74.6895 365.15 74.6895C364.631 74.6895 364.223 74.4551 363.926 73.9863C363.633 73.5137 363.486 72.8477 363.486 71.9883C363.486 71.1172 363.627 70.4531 363.908 69.9961C364.189 69.5391 364.604 69.3105 365.15 69.3105C365.693 69.3105 366.113 69.5469 366.41 70.0195C366.707 70.4883 366.855 71.1445 366.855 71.9883ZM369.053 75.4336C369.053 76.1562 369.141 76.6992 369.316 77.0625C369.492 77.4219 369.768 77.6016 370.143 77.6016C370.896 77.6016 371.273 76.8789 371.273 75.4336C371.273 73.9922 370.896 73.2715 370.143 73.2715C369.768 73.2715 369.492 73.4512 369.316 73.8105C369.141 74.166 369.053 74.707 369.053 75.4336ZM371.848 75.4336C371.848 76.3164 371.703 76.9883 371.414 77.4492C371.125 77.9062 370.705 78.1348 370.154 78.1348C369.623 78.1348 369.211 77.8984 368.918 77.4258C368.625 76.9492 368.479 76.2852 368.479 75.4336C368.479 74.5547 368.621 73.8887 368.906 73.4355C369.195 72.9824 369.611 72.7559 370.154 72.7559C370.689 72.7559 371.105 72.9902 371.402 73.459C371.699 73.9277 371.848 74.5859 371.848 75.4336ZM370.324 69.4336L365.572 78H365.01L369.762 69.4336H370.324Z" fill="white"/>
<path d="M197.865 99H196.078V90.4336H200.988V91.9219H197.865V94.1309H200.771V95.6133H197.865V99ZM203.947 95.7129C203.947 96.3613 204.053 96.8516 204.264 97.1836C204.479 97.5156 204.826 97.6816 205.307 97.6816C205.783 97.6816 206.125 97.5176 206.332 97.1895C206.543 96.8574 206.648 96.3652 206.648 95.7129C206.648 95.0645 206.543 94.5781 206.332 94.2539C206.121 93.9297 205.775 93.7676 205.295 93.7676C204.818 93.7676 204.475 93.9297 204.264 94.2539C204.053 94.5742 203.947 95.0605 203.947 95.7129ZM208.477 95.7129C208.477 96.7793 208.195 97.6133 207.633 98.2148C207.07 98.8164 206.287 99.1172 205.283 99.1172C204.654 99.1172 204.1 98.9805 203.619 98.707C203.139 98.4297 202.77 98.0332 202.512 97.5176C202.254 97.002 202.125 96.4004 202.125 95.7129C202.125 94.6426 202.404 93.8105 202.963 93.2168C203.521 92.623 204.307 92.3262 205.318 92.3262C205.947 92.3262 206.502 92.4629 206.982 92.7363C207.463 93.0098 207.832 93.4023 208.09 93.9141C208.348 94.4258 208.477 95.0254 208.477 95.7129ZM214.594 99L214.354 98.1621H214.26C214.068 98.4668 213.797 98.7031 213.445 98.8711C213.094 99.0352 212.693 99.1172 212.244 99.1172C211.475 99.1172 210.895 98.9121 210.504 98.502C210.113 98.0879 209.918 97.4941 209.918 96.7207V92.4492H211.705V96.2754C211.705 96.748 211.789 97.1035 211.957 97.3418C212.125 97.5762 212.393 97.6934 212.76 97.6934C213.26 97.6934 213.621 97.5273 213.844 97.1953C214.066 96.8594 214.178 96.3047 214.178 95.5312V92.4492H215.965V99H214.594ZM223.887 99H222.1V95.1738C222.1 94.7012 222.016 94.3477 221.848 94.1133C221.68 93.875 221.412 93.7559 221.045 93.7559C220.545 93.7559 220.184 93.9238 219.961 94.2598C219.738 94.5918 219.627 95.1445 219.627 95.918V99H217.84V92.4492H219.205L219.445 93.2871H219.545C219.744 92.9707 220.018 92.7324 220.365 92.5723C220.717 92.4082 221.115 92.3262 221.561 92.3262C222.322 92.3262 222.9 92.5332 223.295 92.9473C223.689 93.3574 223.887 93.9512 223.887 94.7285V99ZM227.801 99.1172C227.031 99.1172 226.426 98.8184 225.984 98.2207C225.547 97.623 225.328 96.7949 225.328 95.7363C225.328 94.6621 225.551 93.8262 225.996 93.2285C226.445 92.627 227.062 92.3262 227.848 92.3262C228.672 92.3262 229.301 92.6465 229.734 93.2871H229.793C229.703 92.7988 229.658 92.3633 229.658 91.9805V89.8828H231.451V99H230.08L229.734 98.1504H229.658C229.252 98.7949 228.633 99.1172 227.801 99.1172ZM228.428 97.6934C228.885 97.6934 229.219 97.5605 229.43 97.2949C229.645 97.0293 229.762 96.5781 229.781 95.9414V95.748C229.781 95.0449 229.672 94.541 229.453 94.2363C229.238 93.9316 228.887 93.7793 228.398 93.7793C228 93.7793 227.689 93.9492 227.467 94.2891C227.248 94.625 227.139 95.1152 227.139 95.7598C227.139 96.4043 227.25 96.8887 227.473 97.2129C227.695 97.5332 228.014 97.6934 228.428 97.6934ZM239.883 99H238.066V91.9453H235.74V90.4336H242.209V91.9453H239.883V99ZM247.043 92.3262C247.285 92.3262 247.486 92.3438 247.646 92.3789L247.512 94.0547C247.367 94.0156 247.191 93.9961 246.984 93.9961C246.414 93.9961 245.969 94.1426 245.648 94.4355C245.332 94.7285 245.174 95.1387 245.174 95.666V99H243.387V92.4492H244.74L245.004 93.5508H245.092C245.295 93.1836 245.568 92.8887 245.912 92.666C246.26 92.4395 246.637 92.3262 247.043 92.3262ZM251.549 93.5977C251.17 93.5977 250.873 93.7188 250.658 93.9609C250.443 94.1992 250.32 94.5391 250.289 94.9805H252.797C252.789 94.5391 252.674 94.1992 252.451 93.9609C252.229 93.7188 251.928 93.5977 251.549 93.5977ZM251.801 99.1172C250.746 99.1172 249.922 98.8262 249.328 98.2441C248.734 97.6621 248.438 96.8379 248.438 95.7715C248.438 94.6738 248.711 93.8262 249.258 93.2285C249.809 92.627 250.568 92.3262 251.537 92.3262C252.463 92.3262 253.184 92.5898 253.699 93.1172C254.215 93.6445 254.473 94.373 254.473 95.3027V96.1699H250.248C250.268 96.6777 250.418 97.0742 250.699 97.3594C250.98 97.6445 251.375 97.7871 251.883 97.7871C252.277 97.7871 252.65 97.7461 253.002 97.6641C253.354 97.582 253.721 97.4512 254.104 97.2715V98.6543C253.791 98.8105 253.457 98.9258 253.102 99C252.746 99.0781 252.312 99.1172 251.801 99.1172ZM260.086 99L259.74 98.1094H259.693C259.393 98.4883 259.082 98.752 258.762 98.9004C258.445 99.0449 258.031 99.1172 257.52 99.1172C256.891 99.1172 256.395 98.9375 256.031 98.5781C255.672 98.2188 255.492 97.707 255.492 97.043C255.492 96.3477 255.734 95.8359 256.219 95.5078C256.707 95.1758 257.441 94.9922 258.422 94.957L259.559 94.9219V94.6348C259.559 93.9707 259.219 93.6387 258.539 93.6387C258.016 93.6387 257.4 93.7969 256.693 94.1133L256.102 92.9062C256.855 92.5117 257.691 92.3145 258.609 92.3145C259.488 92.3145 260.162 92.5059 260.631 92.8887C261.1 93.2715 261.334 93.8535 261.334 94.6348V99H260.086ZM259.559 95.9648L258.867 95.9883C258.348 96.0039 257.961 96.0977 257.707 96.2695C257.453 96.4414 257.326 96.7031 257.326 97.0547C257.326 97.5586 257.615 97.8105 258.193 97.8105C258.607 97.8105 258.938 97.6914 259.184 97.4531C259.434 97.2148 259.559 96.8984 259.559 96.5039V95.9648ZM267.75 97.0547C267.75 97.7266 267.516 98.2383 267.047 98.5898C266.582 98.9414 265.885 99.1172 264.955 99.1172C264.479 99.1172 264.072 99.084 263.736 99.0176C263.4 98.9551 263.086 98.8613 262.793 98.7363V97.2598C263.125 97.416 263.498 97.5469 263.912 97.6523C264.33 97.7578 264.697 97.8105 265.014 97.8105C265.662 97.8105 265.986 97.623 265.986 97.248C265.986 97.1074 265.943 96.9941 265.857 96.9082C265.771 96.8184 265.623 96.7188 265.412 96.6094C265.201 96.4961 264.92 96.3652 264.568 96.2168C264.064 96.0059 263.693 95.8105 263.455 95.6309C263.221 95.4512 263.049 95.2461 262.939 95.0156C262.834 94.7812 262.781 94.4941 262.781 94.1543C262.781 93.5723 263.006 93.123 263.455 92.8066C263.908 92.4863 264.549 92.3262 265.377 92.3262C266.166 92.3262 266.934 92.498 267.68 92.8418L267.141 94.1309C266.812 93.9902 266.506 93.875 266.221 93.7852C265.936 93.6953 265.645 93.6504 265.348 93.6504C264.82 93.6504 264.557 93.793 264.557 94.0781C264.557 94.2383 264.641 94.377 264.809 94.4941C264.98 94.6113 265.354 94.7852 265.928 95.0156C266.439 95.2227 266.814 95.416 267.053 95.5957C267.291 95.7754 267.467 95.9824 267.58 96.2168C267.693 96.4512 267.75 96.7305 267.75 97.0547ZM273.785 99L273.545 98.1621H273.451C273.26 98.4668 272.988 98.7031 272.637 98.8711C272.285 99.0352 271.885 99.1172 271.436 99.1172C270.666 99.1172 270.086 98.9121 269.695 98.502C269.305 98.0879 269.109 97.4941 269.109 96.7207V92.4492H270.896V96.2754C270.896 96.748 270.98 97.1035 271.148 97.3418C271.316 97.5762 271.584 97.6934 271.951 97.6934C272.451 97.6934 272.812 97.5273 273.035 97.1953C273.258 96.8594 273.369 96.3047 273.369 95.5312V92.4492H275.156V99H273.785ZM280.688 92.3262C280.93 92.3262 281.131 92.3438 281.291 92.3789L281.156 94.0547C281.012 94.0156 280.836 93.9961 280.629 93.9961C280.059 93.9961 279.613 94.1426 279.293 94.4355C278.977 94.7285 278.818 95.1387 278.818 95.666V99H277.031V92.4492H278.385L278.648 93.5508H278.736C278.939 93.1836 279.213 92.8887 279.557 92.666C279.904 92.4395 280.281 92.3262 280.688 92.3262ZM281.543 92.4492H283.5L284.736 96.1348C284.842 96.4551 284.914 96.834 284.953 97.2715H284.988C285.031 96.8691 285.115 96.4902 285.24 96.1348L286.453 92.4492H288.369L285.598 99.8379C285.344 100.521 284.98 101.033 284.508 101.373C284.039 101.713 283.49 101.883 282.861 101.883C282.553 101.883 282.25 101.85 281.953 101.783V100.365C282.168 100.416 282.402 100.441 282.656 100.441C282.973 100.441 283.248 100.344 283.482 100.148C283.721 99.957 283.906 99.666 284.039 99.2754L284.145 98.9531L281.543 92.4492ZM289.061 98.1621C289.061 97.834 289.148 97.5859 289.324 97.418C289.5 97.25 289.756 97.166 290.092 97.166C290.416 97.166 290.666 97.252 290.842 97.4238C291.021 97.5957 291.111 97.8418 291.111 98.1621C291.111 98.4707 291.021 98.7148 290.842 98.8945C290.662 99.0703 290.412 99.1582 290.092 99.1582C289.764 99.1582 289.51 99.0723 289.33 98.9004C289.15 98.7246 289.061 98.4785 289.061 98.1621ZM289.061 93.3223C289.061 92.9941 289.148 92.7461 289.324 92.5781C289.5 92.4102 289.756 92.3262 290.092 92.3262C290.416 92.3262 290.666 92.4121 290.842 92.584C291.021 92.7559 291.111 93.002 291.111 93.3223C291.111 93.6387 291.02 93.8848 290.836 94.0605C290.656 94.2324 290.408 94.3184 290.092 94.3184C289.764 94.3184 289.51 94.2324 289.33 94.0605C289.15 93.8887 289.061 93.6426 289.061 93.3223ZM300.938 99H295.576V98.4844L297.855 96.1055C298.496 95.4414 298.945 94.9336 299.203 94.582C299.461 94.2305 299.65 93.8945 299.771 93.5742C299.893 93.2539 299.953 92.918 299.953 92.5664C299.953 92.0547 299.785 91.6387 299.449 91.3184C299.113 90.998 298.678 90.8379 298.143 90.8379C297.428 90.8379 296.744 91.0977 296.092 91.6172L295.775 91.2129C296.49 90.6113 297.283 90.3105 298.154 90.3105C298.9 90.3105 299.486 90.5098 299.912 90.9082C300.342 91.3066 300.557 91.8555 300.557 92.5547C300.557 93.1211 300.412 93.6699 300.123 94.2012C299.838 94.7285 299.314 95.3809 298.553 96.1582L296.355 98.4141V98.4375H300.938V99ZM302.719 98.543C302.719 98.1602 302.875 97.9688 303.188 97.9688C303.508 97.9688 303.668 98.1602 303.668 98.543C303.668 98.9258 303.508 99.1172 303.188 99.1172C302.875 99.1172 302.719 98.9258 302.719 98.543ZM307.775 93.8496C308.689 93.8496 309.408 94.0703 309.932 94.5117C310.459 94.9531 310.723 95.5605 310.723 96.334C310.723 97.2129 310.449 97.8965 309.902 98.3848C309.355 98.873 308.602 99.1172 307.641 99.1172C307.215 99.1172 306.811 99.0762 306.428 98.9941C306.045 98.9082 305.725 98.7871 305.467 98.6309V98.0273C305.889 98.2422 306.264 98.3926 306.592 98.4785C306.92 98.5605 307.27 98.6016 307.641 98.6016C308.391 98.6016 308.992 98.4043 309.445 98.0098C309.898 97.6113 310.125 97.0742 310.125 96.3984C310.125 95.7617 309.904 95.2617 309.463 94.8984C309.021 94.5352 308.422 94.3535 307.664 94.3535C307.156 94.3535 306.625 94.4297 306.07 94.582L305.719 94.3535L306.059 90.4336H310.184V90.9961H306.609L306.346 94.0195C306.955 93.9062 307.432 93.8496 307.775 93.8496ZM316.465 99L313.271 91.0898H313.225C313.256 91.5742 313.271 92.0703 313.271 92.5781V99H312.697V90.4336H313.623L316.658 97.9688H316.693L319.729 90.4336H320.631V99H320.027V92.5078C320.027 92.0547 320.051 91.5859 320.098 91.1016H320.051L316.846 99H316.465ZM325.5 96V95.5195H328.283V96H325.5ZM335.092 93.8496C336.006 93.8496 336.725 94.0703 337.248 94.5117C337.775 94.9531 338.039 95.5605 338.039 96.334C338.039 97.2129 337.766 97.8965 337.219 98.3848C336.672 98.873 335.918 99.1172 334.957 99.1172C334.531 99.1172 334.127 99.0762 333.744 98.9941C333.361 98.9082 333.041 98.7871 332.783 98.6309V98.0273C333.205 98.2422 333.58 98.3926 333.908 98.4785C334.236 98.5605 334.586 98.6016 334.957 98.6016C335.707 98.6016 336.309 98.4043 336.762 98.0098C337.215 97.6113 337.441 97.0742 337.441 96.3984C337.441 95.7617 337.221 95.2617 336.779 94.8984C336.338 94.5352 335.738 94.3535 334.98 94.3535C334.473 94.3535 333.941 94.4297 333.387 94.582L333.035 94.3535L333.375 90.4336H337.5V90.9961H333.926L333.662 94.0195C334.271 93.9062 334.748 93.8496 335.092 93.8496ZM339.75 98.543C339.75 98.1602 339.906 97.9688 340.219 97.9688C340.539 97.9688 340.699 98.1602 340.699 98.543C340.699 98.9258 340.539 99.1172 340.219 99.1172C339.906 99.1172 339.75 98.9258 339.75 98.543ZM345.656 99H345.082V92.7598C345.082 92.1934 345.105 91.6055 345.152 90.9961C345.094 91.0547 345.033 91.1113 344.971 91.166C344.908 91.2207 344.305 91.6953 343.16 92.5898L342.826 92.1738L345.152 90.4336H345.656V99ZM349.752 92.9883C349.752 93.7148 349.84 94.2617 350.016 94.6289C350.191 94.9922 350.467 95.1738 350.842 95.1738C351.596 95.1738 351.973 94.4453 351.973 92.9883C351.973 92.2695 351.875 91.7305 351.68 91.3711C351.488 91.0078 351.209 90.8262 350.842 90.8262C350.467 90.8262 350.191 91.0078 350.016 91.3711C349.84 91.7305 349.752 92.2695 349.752 92.9883ZM352.547 92.9883C352.547 93.8711 352.4 94.543 352.107 95.0039C351.814 95.4609 351.393 95.6895 350.842 95.6895C350.322 95.6895 349.914 95.4551 349.617 94.9863C349.324 94.5137 349.178 93.8477 349.178 92.9883C349.178 92.1172 349.318 91.4531 349.6 90.9961C349.881 90.5391 350.295 90.3105 350.842 90.3105C351.385 90.3105 351.805 90.5469 352.102 91.0195C352.398 91.4883 352.547 92.1445 352.547 92.9883ZM354.744 96.4336C354.744 97.1562 354.832 97.6992 355.008 98.0625C355.184 98.4219 355.459 98.6016 355.834 98.6016C356.588 98.6016 356.965 97.8789 356.965 96.4336C356.965 94.9922 356.588 94.2715 355.834 94.2715C355.459 94.2715 355.184 94.4512 355.008 94.8105C354.832 95.166 354.744 95.707 354.744 96.4336ZM357.539 96.4336C357.539 97.3164 357.395 97.9883 357.105 98.4492C356.816 98.9062 356.396 99.1348 355.846 99.1348C355.314 99.1348 354.902 98.8984 354.609 98.4258C354.316 97.9492 354.17 97.2852 354.17 96.4336C354.17 95.5547 354.312 94.8887 354.598 94.4355C354.887 93.9824 355.303 93.7559 355.846 93.7559C356.381 93.7559 356.797 93.9902 357.094 94.459C357.391 94.9277 357.539 95.5859 357.539 96.4336ZM356.016 90.4336L351.264 99H350.701L355.453 90.4336H356.016Z" fill="white"/>
<path d="M201.322 120L200.701 117.961H197.578L196.957 120H195L198.023 111.398H200.244L203.279 120H201.322ZM200.268 116.438C199.693 114.59 199.369 113.545 199.295 113.303C199.225 113.061 199.174 112.869 199.143 112.729C199.014 113.229 198.645 114.465 198.035 116.438H200.268ZM207.615 115.189H211.014V119.631C210.463 119.811 209.943 119.936 209.455 120.006C208.971 120.08 208.475 120.117 207.967 120.117C206.674 120.117 205.686 119.738 205.002 118.98C204.322 118.219 203.982 117.127 203.982 115.705C203.982 114.322 204.377 113.244 205.166 112.471C205.959 111.697 207.057 111.311 208.459 111.311C209.338 111.311 210.186 111.486 211.002 111.838L210.398 113.291C209.773 112.979 209.123 112.822 208.447 112.822C207.662 112.822 207.033 113.086 206.561 113.613C206.088 114.141 205.852 114.85 205.852 115.74C205.852 116.67 206.041 117.381 206.42 117.873C206.803 118.361 207.357 118.605 208.084 118.605C208.463 118.605 208.848 118.566 209.238 118.488V116.701H207.615V115.189ZM221.232 117.621C221.232 118.395 220.953 119.004 220.395 119.449C219.84 119.895 219.066 120.117 218.074 120.117C217.16 120.117 216.352 119.945 215.648 119.602V117.914C216.227 118.172 216.715 118.354 217.113 118.459C217.516 118.564 217.883 118.617 218.215 118.617C218.613 118.617 218.918 118.541 219.129 118.389C219.344 118.236 219.451 118.01 219.451 117.709C219.451 117.541 219.404 117.393 219.311 117.264C219.217 117.131 219.078 117.004 218.895 116.883C218.715 116.762 218.346 116.568 217.787 116.303C217.264 116.057 216.871 115.82 216.609 115.594C216.348 115.367 216.139 115.104 215.982 114.803C215.826 114.502 215.748 114.15 215.748 113.748C215.748 112.99 216.004 112.395 216.516 111.961C217.031 111.527 217.742 111.311 218.648 111.311C219.094 111.311 219.518 111.363 219.92 111.469C220.326 111.574 220.75 111.723 221.191 111.914L220.605 113.326C220.148 113.139 219.77 113.008 219.469 112.934C219.172 112.859 218.879 112.822 218.59 112.822C218.246 112.822 217.982 112.902 217.799 113.062C217.615 113.223 217.523 113.432 217.523 113.689C217.523 113.85 217.561 113.99 217.635 114.111C217.709 114.229 217.826 114.344 217.986 114.457C218.15 114.566 218.535 114.766 219.141 115.055C219.941 115.438 220.49 115.822 220.787 116.209C221.084 116.592 221.232 117.062 221.232 117.621ZM228.691 120H226.904V116.174C226.904 115.229 226.553 114.756 225.85 114.756C225.35 114.756 224.988 114.926 224.766 115.266C224.543 115.605 224.432 116.156 224.432 116.918V120H222.645V110.883H224.432V112.74C224.432 112.885 224.418 113.225 224.391 113.76L224.35 114.287H224.443C224.842 113.646 225.475 113.326 226.342 113.326C227.111 113.326 227.695 113.533 228.094 113.947C228.492 114.361 228.691 114.955 228.691 115.729V120ZM234.691 120L234.346 119.109H234.299C233.998 119.488 233.688 119.752 233.367 119.9C233.051 120.045 232.637 120.117 232.125 120.117C231.496 120.117 231 119.938 230.637 119.578C230.277 119.219 230.098 118.707 230.098 118.043C230.098 117.348 230.34 116.836 230.824 116.508C231.312 116.176 232.047 115.992 233.027 115.957L234.164 115.922V115.635C234.164 114.971 233.824 114.639 233.145 114.639C232.621 114.639 232.006 114.797 231.299 115.113L230.707 113.906C231.461 113.512 232.297 113.314 233.215 113.314C234.094 113.314 234.768 113.506 235.236 113.889C235.705 114.271 235.939 114.854 235.939 115.635V120H234.691ZM234.164 116.965L233.473 116.988C232.953 117.004 232.566 117.098 232.312 117.27C232.059 117.441 231.932 117.703 231.932 118.055C231.932 118.559 232.221 118.811 232.799 118.811C233.213 118.811 233.543 118.691 233.789 118.453C234.039 118.215 234.164 117.898 234.164 117.504V116.965ZM241.441 113.326C241.684 113.326 241.885 113.344 242.045 113.379L241.91 115.055C241.766 115.016 241.59 114.996 241.383 114.996C240.812 114.996 240.367 115.143 240.047 115.436C239.73 115.729 239.572 116.139 239.572 116.666V120H237.785V113.449H239.139L239.402 114.551H239.49C239.693 114.184 239.967 113.889 240.311 113.666C240.658 113.439 241.035 113.326 241.441 113.326ZM245.947 114.598C245.568 114.598 245.271 114.719 245.057 114.961C244.842 115.199 244.719 115.539 244.688 115.98H247.195C247.188 115.539 247.072 115.199 246.85 114.961C246.627 114.719 246.326 114.598 245.947 114.598ZM246.199 120.117C245.145 120.117 244.32 119.826 243.727 119.244C243.133 118.662 242.836 117.838 242.836 116.771C242.836 115.674 243.109 114.826 243.656 114.229C244.207 113.627 244.967 113.326 245.936 113.326C246.861 113.326 247.582 113.59 248.098 114.117C248.613 114.645 248.871 115.373 248.871 116.303V117.17H244.646C244.666 117.678 244.816 118.074 245.098 118.359C245.379 118.645 245.773 118.787 246.281 118.787C246.676 118.787 247.049 118.746 247.4 118.664C247.752 118.582 248.119 118.451 248.502 118.271V119.654C248.189 119.811 247.855 119.926 247.5 120C247.145 120.078 246.711 120.117 246.199 120.117ZM256.371 120H254.584V116.174C254.584 115.229 254.232 114.756 253.529 114.756C253.029 114.756 252.668 114.926 252.445 115.266C252.223 115.605 252.111 116.156 252.111 116.918V120H250.324V110.883H252.111V112.74C252.111 112.885 252.098 113.225 252.07 113.76L252.029 114.287H252.123C252.521 113.646 253.154 113.326 254.021 113.326C254.791 113.326 255.375 113.533 255.773 113.947C256.172 114.361 256.371 114.955 256.371 115.729V120ZM259.635 116.713C259.635 117.361 259.74 117.852 259.951 118.184C260.166 118.516 260.514 118.682 260.994 118.682C261.471 118.682 261.812 118.518 262.02 118.189C262.23 117.857 262.336 117.365 262.336 116.713C262.336 116.064 262.23 115.578 262.02 115.254C261.809 114.93 261.463 114.768 260.982 114.768C260.506 114.768 260.162 114.93 259.951 115.254C259.74 115.574 259.635 116.061 259.635 116.713ZM264.164 116.713C264.164 117.779 263.883 118.613 263.32 119.215C262.758 119.816 261.975 120.117 260.971 120.117C260.342 120.117 259.787 119.98 259.307 119.707C258.826 119.43 258.457 119.033 258.199 118.518C257.941 118.002 257.812 117.4 257.812 116.713C257.812 115.643 258.092 114.811 258.65 114.217C259.209 113.623 259.994 113.326 261.006 113.326C261.635 113.326 262.189 113.463 262.67 113.736C263.15 114.01 263.52 114.402 263.777 114.914C264.035 115.426 264.164 116.025 264.164 116.713ZM267.428 120H265.641V110.883H267.428V120ZM271.383 120.117C270.613 120.117 270.008 119.818 269.566 119.221C269.129 118.623 268.91 117.795 268.91 116.736C268.91 115.662 269.133 114.826 269.578 114.229C270.027 113.627 270.645 113.326 271.43 113.326C272.254 113.326 272.883 113.646 273.316 114.287H273.375C273.285 113.799 273.24 113.363 273.24 112.98V110.883H275.033V120H273.662L273.316 119.15H273.24C272.834 119.795 272.215 120.117 271.383 120.117ZM272.01 118.693C272.467 118.693 272.801 118.561 273.012 118.295C273.227 118.029 273.344 117.578 273.363 116.941V116.748C273.363 116.045 273.254 115.541 273.035 115.236C272.82 114.932 272.469 114.779 271.98 114.779C271.582 114.779 271.271 114.949 271.049 115.289C270.83 115.625 270.721 116.115 270.721 116.76C270.721 117.404 270.832 117.889 271.055 118.213C271.277 118.533 271.596 118.693 272.01 118.693ZM279.615 114.598C279.236 114.598 278.939 114.719 278.725 114.961C278.51 115.199 278.387 115.539 278.355 115.98H280.863C280.855 115.539 280.74 115.199 280.518 114.961C280.295 114.719 279.994 114.598 279.615 114.598ZM279.867 120.117C278.812 120.117 277.988 119.826 277.395 119.244C276.801 118.662 276.504 117.838 276.504 116.771C276.504 115.674 276.777 114.826 277.324 114.229C277.875 113.627 278.635 113.326 279.604 113.326C280.529 113.326 281.25 113.59 281.766 114.117C282.281 114.645 282.539 115.373 282.539 116.303V117.17H278.314C278.334 117.678 278.484 118.074 278.766 118.359C279.047 118.645 279.441 118.787 279.949 118.787C280.344 118.787 280.717 118.746 281.068 118.664C281.42 118.582 281.787 118.451 282.17 118.271V119.654C281.857 119.811 281.523 119.926 281.168 120C280.812 120.078 280.379 120.117 279.867 120.117ZM287.648 113.326C287.891 113.326 288.092 113.344 288.252 113.379L288.117 115.055C287.973 115.016 287.797 114.996 287.59 114.996C287.02 114.996 286.574 115.143 286.254 115.436C285.938 115.729 285.779 116.139 285.779 116.666V120H283.992V113.449H285.346L285.609 114.551H285.697C285.9 114.184 286.174 113.889 286.518 113.666C286.865 113.439 287.242 113.326 287.648 113.326ZM294.012 118.055C294.012 118.727 293.777 119.238 293.309 119.59C292.844 119.941 292.146 120.117 291.217 120.117C290.74 120.117 290.334 120.084 289.998 120.018C289.662 119.955 289.348 119.861 289.055 119.736V118.26C289.387 118.416 289.76 118.547 290.174 118.652C290.592 118.758 290.959 118.811 291.275 118.811C291.924 118.811 292.248 118.623 292.248 118.248C292.248 118.107 292.205 117.994 292.119 117.908C292.033 117.818 291.885 117.719 291.674 117.609C291.463 117.496 291.182 117.365 290.83 117.217C290.326 117.006 289.955 116.811 289.717 116.631C289.482 116.451 289.311 116.246 289.201 116.016C289.096 115.781 289.043 115.494 289.043 115.154C289.043 114.572 289.268 114.123 289.717 113.807C290.17 113.486 290.811 113.326 291.639 113.326C292.428 113.326 293.195 113.498 293.941 113.842L293.402 115.131C293.074 114.99 292.768 114.875 292.482 114.785C292.197 114.695 291.906 114.65 291.609 114.65C291.082 114.65 290.818 114.793 290.818 115.078C290.818 115.238 290.902 115.377 291.07 115.494C291.242 115.611 291.615 115.785 292.189 116.016C292.701 116.223 293.076 116.416 293.314 116.596C293.553 116.775 293.729 116.982 293.842 117.217C293.955 117.451 294.012 117.73 294.012 118.055ZM295.154 119.162C295.154 118.834 295.242 118.586 295.418 118.418C295.594 118.25 295.85 118.166 296.186 118.166C296.51 118.166 296.76 118.252 296.936 118.424C297.115 118.596 297.205 118.842 297.205 119.162C297.205 119.471 297.115 119.715 296.936 119.895C296.756 120.07 296.506 120.158 296.186 120.158C295.857 120.158 295.604 120.072 295.424 119.9C295.244 119.725 295.154 119.479 295.154 119.162ZM295.154 114.322C295.154 113.994 295.242 113.746 295.418 113.578C295.594 113.41 295.85 113.326 296.186 113.326C296.51 113.326 296.76 113.412 296.936 113.584C297.115 113.756 297.205 114.002 297.205 114.322C297.205 114.639 297.113 114.885 296.93 115.061C296.75 115.232 296.502 115.318 296.186 115.318C295.857 115.318 295.604 115.232 295.424 115.061C295.244 114.889 295.154 114.643 295.154 114.322ZM304.154 114.85C305.068 114.85 305.787 115.07 306.311 115.512C306.838 115.953 307.102 116.561 307.102 117.334C307.102 118.213 306.828 118.896 306.281 119.385C305.734 119.873 304.98 120.117 304.02 120.117C303.594 120.117 303.189 120.076 302.807 119.994C302.424 119.908 302.104 119.787 301.846 119.631V119.027C302.268 119.242 302.643 119.393 302.971 119.479C303.299 119.561 303.648 119.602 304.02 119.602C304.77 119.602 305.371 119.404 305.824 119.01C306.277 118.611 306.504 118.074 306.504 117.398C306.504 116.762 306.283 116.262 305.842 115.898C305.4 115.535 304.801 115.354 304.043 115.354C303.535 115.354 303.004 115.43 302.449 115.582L302.098 115.354L302.438 111.434H306.562V111.996H302.988L302.725 115.02C303.334 114.906 303.811 114.85 304.154 114.85ZM308.812 119.543C308.812 119.16 308.969 118.969 309.281 118.969C309.602 118.969 309.762 119.16 309.762 119.543C309.762 119.926 309.602 120.117 309.281 120.117C308.969 120.117 308.812 119.926 308.812 119.543ZM313.869 114.85C314.783 114.85 315.502 115.07 316.025 115.512C316.553 115.953 316.816 116.561 316.816 117.334C316.816 118.213 316.543 118.896 315.996 119.385C315.449 119.873 314.695 120.117 313.734 120.117C313.309 120.117 312.904 120.076 312.521 119.994C312.139 119.908 311.818 119.787 311.561 119.631V119.027C311.982 119.242 312.357 119.393 312.686 119.479C313.014 119.561 313.363 119.602 313.734 119.602C314.484 119.602 315.086 119.404 315.539 119.01C315.992 118.611 316.219 118.074 316.219 117.398C316.219 116.762 315.998 116.262 315.557 115.898C315.115 115.535 314.516 115.354 313.758 115.354C313.25 115.354 312.719 115.43 312.164 115.582L311.812 115.354L312.152 111.434H316.277V111.996H312.703L312.439 115.02C313.049 114.906 313.525 114.85 313.869 114.85ZM322.559 120L319.365 112.09H319.318C319.35 112.574 319.365 113.07 319.365 113.578V120H318.791V111.434H319.717L322.752 118.969H322.787L325.822 111.434H326.725V120H326.121V113.508C326.121 113.055 326.145 112.586 326.191 112.102H326.145L322.939 120H322.559ZM331.594 117V116.52H334.377V117H331.594ZM342.035 120H341.461V113.76C341.461 113.193 341.484 112.605 341.531 111.996C341.473 112.055 341.412 112.111 341.35 112.166C341.287 112.221 340.684 112.695 339.539 113.59L339.205 113.174L341.531 111.434H342.035V120ZM348.891 120H348.316V113.76C348.316 113.193 348.34 112.605 348.387 111.996C348.328 112.055 348.268 112.111 348.205 112.166C348.143 112.221 347.539 112.695 346.395 113.59L346.061 113.174L348.387 111.434H348.891V120ZM352.699 119.543C352.699 119.16 352.855 118.969 353.168 118.969C353.488 118.969 353.648 119.16 353.648 119.543C353.648 119.926 353.488 120.117 353.168 120.117C352.855 120.117 352.699 119.926 352.699 119.543ZM360.633 120H355.271V119.484L357.551 117.105C358.191 116.441 358.641 115.934 358.898 115.582C359.156 115.23 359.346 114.895 359.467 114.574C359.588 114.254 359.648 113.918 359.648 113.566C359.648 113.055 359.48 112.639 359.145 112.318C358.809 111.998 358.373 111.838 357.838 111.838C357.123 111.838 356.439 112.098 355.787 112.617L355.471 112.213C356.186 111.611 356.979 111.311 357.85 111.311C358.596 111.311 359.182 111.51 359.607 111.908C360.037 112.307 360.252 112.855 360.252 113.555C360.252 114.121 360.107 114.67 359.818 115.201C359.533 115.729 359.01 116.381 358.248 117.158L356.051 119.414V119.438H360.633V120ZM362.701 113.988C362.701 114.715 362.789 115.262 362.965 115.629C363.141 115.992 363.416 116.174 363.791 116.174C364.545 116.174 364.922 115.445 364.922 113.988C364.922 113.27 364.824 112.73 364.629 112.371C364.438 112.008 364.158 111.826 363.791 111.826C363.416 111.826 363.141 112.008 362.965 112.371C362.789 112.73 362.701 113.27 362.701 113.988ZM365.496 113.988C365.496 114.871 365.35 115.543 365.057 116.004C364.764 116.461 364.342 116.689 363.791 116.689C363.271 116.689 362.863 116.455 362.566 115.986C362.273 115.514 362.127 114.848 362.127 113.988C362.127 113.117 362.268 112.453 362.549 111.996C362.83 111.539 363.244 111.311 363.791 111.311C364.334 111.311 364.754 111.547 365.051 112.02C365.348 112.488 365.496 113.145 365.496 113.988ZM367.693 117.434C367.693 118.156 367.781 118.699 367.957 119.062C368.133 119.422 368.408 119.602 368.783 119.602C369.537 119.602 369.914 118.879 369.914 117.434C369.914 115.992 369.537 115.271 368.783 115.271C368.408 115.271 368.133 115.451 367.957 115.811C367.781 116.166 367.693 116.707 367.693 117.434ZM370.488 117.434C370.488 118.316 370.344 118.988 370.055 119.449C369.766 119.906 369.346 120.135 368.795 120.135C368.264 120.135 367.852 119.898 367.559 119.426C367.266 118.949 367.119 118.285 367.119 117.434C367.119 116.555 367.262 115.889 367.547 115.436C367.836 114.982 368.252 114.756 368.795 114.756C369.33 114.756 369.746 114.99 370.043 115.459C370.34 115.928 370.488 116.586 370.488 117.434ZM368.965 111.434L364.213 120H363.65L368.402 111.434H368.965Z" fill="white"/>
<path d="M201.322 141L200.701 138.961H197.578L196.957 141H195L198.023 132.398H200.244L203.279 141H201.322ZM200.268 137.438C199.693 135.59 199.369 134.545 199.295 134.303C199.225 134.061 199.174 133.869 199.143 133.729C199.014 134.229 198.645 135.465 198.035 137.438H200.268ZM207.615 136.189H211.014V140.631C210.463 140.811 209.943 140.936 209.455 141.006C208.971 141.08 208.475 141.117 207.967 141.117C206.674 141.117 205.686 140.738 205.002 139.98C204.322 139.219 203.982 138.127 203.982 136.705C203.982 135.322 204.377 134.244 205.166 133.471C205.959 132.697 207.057 132.311 208.459 132.311C209.338 132.311 210.186 132.486 211.002 132.838L210.398 134.291C209.773 133.979 209.123 133.822 208.447 133.822C207.662 133.822 207.033 134.086 206.561 134.613C206.088 135.141 205.852 135.85 205.852 136.74C205.852 137.67 206.041 138.381 206.42 138.873C206.803 139.361 207.357 139.605 208.084 139.605C208.463 139.605 208.848 139.566 209.238 139.488V137.701H207.615V136.189ZM219.48 141H217.664V133.945H215.338V132.434H221.807V133.945H219.48V141ZM225.697 135.598C225.318 135.598 225.021 135.719 224.807 135.961C224.592 136.199 224.469 136.539 224.438 136.98H226.945C226.938 136.539 226.822 136.199 226.6 135.961C226.377 135.719 226.076 135.598 225.697 135.598ZM225.949 141.117C224.895 141.117 224.07 140.826 223.477 140.244C222.883 139.662 222.586 138.838 222.586 137.771C222.586 136.674 222.859 135.826 223.406 135.229C223.957 134.627 224.717 134.326 225.686 134.326C226.611 134.326 227.332 134.59 227.848 135.117C228.363 135.645 228.621 136.373 228.621 137.303V138.17H224.396C224.416 138.678 224.566 139.074 224.848 139.359C225.129 139.645 225.523 139.787 226.031 139.787C226.426 139.787 226.799 139.746 227.15 139.664C227.502 139.582 227.869 139.451 228.252 139.271V140.654C227.939 140.811 227.605 140.926 227.25 141C226.895 141.078 226.461 141.117 225.949 141.117ZM234.234 141L233.889 140.109H233.842C233.541 140.488 233.23 140.752 232.91 140.9C232.594 141.045 232.18 141.117 231.668 141.117C231.039 141.117 230.543 140.938 230.18 140.578C229.82 140.219 229.641 139.707 229.641 139.043C229.641 138.348 229.883 137.836 230.367 137.508C230.855 137.176 231.59 136.992 232.57 136.957L233.707 136.922V136.635C233.707 135.971 233.367 135.639 232.688 135.639C232.164 135.639 231.549 135.797 230.842 136.113L230.25 134.906C231.004 134.512 231.84 134.314 232.758 134.314C233.637 134.314 234.311 134.506 234.779 134.889C235.248 135.271 235.482 135.854 235.482 136.635V141H234.234ZM233.707 137.965L233.016 137.988C232.496 138.004 232.109 138.098 231.855 138.27C231.602 138.441 231.475 138.703 231.475 139.055C231.475 139.559 231.764 139.811 232.342 139.811C232.756 139.811 233.086 139.691 233.332 139.453C233.582 139.215 233.707 138.898 233.707 138.504V137.965ZM243.193 141H241.406V137.174C241.406 136.701 241.326 136.348 241.166 136.113C241.01 135.875 240.762 135.756 240.422 135.756C239.965 135.756 239.633 135.924 239.426 136.26C239.219 136.596 239.115 137.148 239.115 137.918V141H237.328V134.449H238.693L238.934 135.287H239.033C239.209 134.986 239.463 134.752 239.795 134.584C240.127 134.412 240.508 134.326 240.938 134.326C241.918 134.326 242.582 134.646 242.93 135.287H243.088C243.264 134.982 243.521 134.746 243.861 134.578C244.205 134.41 244.592 134.326 245.021 134.326C245.764 134.326 246.324 134.518 246.703 134.9C247.086 135.279 247.277 135.889 247.277 136.729V141H245.484V137.174C245.484 136.701 245.404 136.348 245.244 136.113C245.088 135.875 244.84 135.756 244.5 135.756C244.062 135.756 243.734 135.912 243.516 136.225C243.301 136.537 243.193 137.033 243.193 137.713V141ZM248.865 140.162C248.865 139.834 248.953 139.586 249.129 139.418C249.305 139.25 249.561 139.166 249.896 139.166C250.221 139.166 250.471 139.252 250.646 139.424C250.826 139.596 250.916 139.842 250.916 140.162C250.916 140.471 250.826 140.715 250.646 140.895C250.467 141.07 250.217 141.158 249.896 141.158C249.568 141.158 249.314 141.072 249.135 140.9C248.955 140.725 248.865 140.479 248.865 140.162ZM248.865 135.322C248.865 134.994 248.953 134.746 249.129 134.578C249.305 134.41 249.561 134.326 249.896 134.326C250.221 134.326 250.471 134.412 250.646 134.584C250.826 134.756 250.916 135.002 250.916 135.322C250.916 135.639 250.824 135.885 250.641 136.061C250.461 136.232 250.213 136.318 249.896 136.318C249.568 136.318 249.314 136.232 249.135 136.061C248.955 135.889 248.865 135.643 248.865 135.322ZM258.715 141H258.141V134.76C258.141 134.193 258.164 133.605 258.211 132.996C258.152 133.055 258.092 133.111 258.029 133.166C257.967 133.221 257.363 133.695 256.219 134.59L255.885 134.174L258.211 132.434H258.715V141ZM262.523 140.543C262.523 140.16 262.68 139.969 262.992 139.969C263.312 139.969 263.473 140.16 263.473 140.543C263.473 140.926 263.312 141.117 262.992 141.117C262.68 141.117 262.523 140.926 262.523 140.543ZM270.457 141H265.096V140.484L267.375 138.105C268.016 137.441 268.465 136.934 268.723 136.582C268.98 136.23 269.17 135.895 269.291 135.574C269.412 135.254 269.473 134.918 269.473 134.566C269.473 134.055 269.305 133.639 268.969 133.318C268.633 132.998 268.197 132.838 267.662 132.838C266.947 132.838 266.264 133.098 265.611 133.617L265.295 133.213C266.01 132.611 266.803 132.311 267.674 132.311C268.42 132.311 269.006 132.51 269.432 132.908C269.861 133.307 270.076 133.855 270.076 134.555C270.076 135.121 269.932 135.67 269.643 136.201C269.357 136.729 268.834 137.381 268.072 138.158L265.875 140.414V140.438H270.457V141ZM274.436 135.85C275.35 135.85 276.068 136.07 276.592 136.512C277.119 136.953 277.383 137.561 277.383 138.334C277.383 139.213 277.109 139.896 276.562 140.385C276.016 140.873 275.262 141.117 274.301 141.117C273.875 141.117 273.471 141.076 273.088 140.994C272.705 140.908 272.385 140.787 272.127 140.631V140.027C272.549 140.242 272.924 140.393 273.252 140.479C273.58 140.561 273.93 140.602 274.301 140.602C275.051 140.602 275.652 140.404 276.105 140.01C276.559 139.611 276.785 139.074 276.785 138.398C276.785 137.762 276.564 137.262 276.123 136.898C275.682 136.535 275.082 136.354 274.324 136.354C273.816 136.354 273.285 136.43 272.73 136.582L272.379 136.354L272.719 132.434H276.844V132.996H273.27L273.006 136.02C273.615 135.906 274.092 135.85 274.436 135.85ZM283.125 141L279.932 133.09H279.885C279.916 133.574 279.932 134.07 279.932 134.578V141H279.357V132.434H280.283L283.318 139.969H283.354L286.389 132.434H287.291V141H286.688V134.508C286.688 134.055 286.711 133.586 286.758 133.102H286.711L283.506 141H283.125ZM292.16 138V137.52H294.943V138H292.16ZM304.629 141H299.268V140.484L301.547 138.105C302.188 137.441 302.637 136.934 302.895 136.582C303.152 136.23 303.342 135.895 303.463 135.574C303.584 135.254 303.645 134.918 303.645 134.566C303.645 134.055 303.477 133.639 303.141 133.318C302.805 132.998 302.369 132.838 301.834 132.838C301.119 132.838 300.436 133.098 299.783 133.617L299.467 133.213C300.182 132.611 300.975 132.311 301.846 132.311C302.592 132.311 303.178 132.51 303.604 132.908C304.033 133.307 304.248 133.855 304.248 134.555C304.248 135.121 304.104 135.67 303.814 136.201C303.529 136.729 303.006 137.381 302.244 138.158L300.047 140.414V140.438H304.629V141ZM306.41 140.543C306.41 140.16 306.566 139.969 306.879 139.969C307.199 139.969 307.359 140.16 307.359 140.543C307.359 140.926 307.199 141.117 306.879 141.117C306.566 141.117 306.41 140.926 306.41 140.543ZM311.467 135.85C312.381 135.85 313.1 136.07 313.623 136.512C314.15 136.953 314.414 137.561 314.414 138.334C314.414 139.213 314.141 139.896 313.594 140.385C313.047 140.873 312.293 141.117 311.332 141.117C310.906 141.117 310.502 141.076 310.119 140.994C309.736 140.908 309.416 140.787 309.158 140.631V140.027C309.58 140.242 309.955 140.393 310.283 140.479C310.611 140.561 310.961 140.602 311.332 140.602C312.082 140.602 312.684 140.404 313.137 140.01C313.59 139.611 313.816 139.074 313.816 138.398C313.816 137.762 313.596 137.262 313.154 136.898C312.713 136.535 312.113 136.354 311.355 136.354C310.848 136.354 310.316 136.43 309.762 136.582L309.41 136.354L309.75 132.434H313.875V132.996H310.301L310.037 136.02C310.646 135.906 311.123 135.85 311.467 135.85ZM316.412 134.988C316.412 135.715 316.5 136.262 316.676 136.629C316.852 136.992 317.127 137.174 317.502 137.174C318.256 137.174 318.633 136.445 318.633 134.988C318.633 134.27 318.535 133.73 318.34 133.371C318.148 133.008 317.869 132.826 317.502 132.826C317.127 132.826 316.852 133.008 316.676 133.371C316.5 133.73 316.412 134.27 316.412 134.988ZM319.207 134.988C319.207 135.871 319.061 136.543 318.768 137.004C318.475 137.461 318.053 137.689 317.502 137.689C316.982 137.689 316.574 137.455 316.277 136.986C315.984 136.514 315.838 135.848 315.838 134.988C315.838 134.117 315.979 133.453 316.26 132.996C316.541 132.539 316.955 132.311 317.502 132.311C318.045 132.311 318.465 132.547 318.762 133.02C319.059 133.488 319.207 134.145 319.207 134.988ZM321.404 138.434C321.404 139.156 321.492 139.699 321.668 140.062C321.844 140.422 322.119 140.602 322.494 140.602C323.248 140.602 323.625 139.879 323.625 138.434C323.625 136.992 323.248 136.271 322.494 136.271C322.119 136.271 321.844 136.451 321.668 136.811C321.492 137.166 321.404 137.707 321.404 138.434ZM324.199 138.434C324.199 139.316 324.055 139.988 323.766 140.449C323.477 140.906 323.057 141.135 322.506 141.135C321.975 141.135 321.562 140.898 321.27 140.426C320.977 139.949 320.83 139.285 320.83 138.434C320.83 137.555 320.973 136.889 321.258 136.436C321.547 135.982 321.963 135.756 322.506 135.756C323.041 135.756 323.457 135.99 323.754 136.459C324.051 136.928 324.199 137.586 324.199 138.434ZM322.676 132.434L317.924 141H317.361L322.113 132.434H322.676Z" fill="white"/>
<path d="M79.9839 2C97.1156 1.99651 113.796 7.49269 127.57 17.6796L80.0002 82L79.9839 2Z" fill="url(#paint6_linear)"/>
<path d="M79.9839 2C97.1156 1.99651 113.796 7.49269 127.57 17.6796L80.0002 82L79.9839 2Z" stroke="white"/>
<path d="M127.634 17.7273C136.203 24.0777 143.415 32.0774 148.847 41.2558C154.279 50.4343 157.821 60.6062 159.264 71.1734C160.707 81.7406 160.023 92.4898 157.252 102.789C154.48 113.088 149.677 122.728 143.126 131.144C136.574 139.56 128.406 146.581 119.101 151.793C109.796 157.006 99.5434 160.306 88.9449 161.498C78.3465 162.691 67.6166 161.752 57.3862 158.737C47.1559 155.723 37.6316 150.693 29.3735 143.943L80 82.0001L127.634 17.7273Z" fill="url(#paint7_linear)"/>
<path d="M127.634 17.7273C136.203 24.0777 143.415 32.0774 148.847 41.2558C154.279 50.4343 157.821 60.6062 159.264 71.1734C160.707 81.7406 160.023 92.4898 157.252 102.789C154.48 113.088 149.677 122.728 143.126 131.144C136.574 139.56 128.406 146.581 119.101 151.793C109.796 157.006 99.5434 160.306 88.9449 161.498C78.3465 162.691 67.6166 161.752 57.3862 158.737C47.1559 155.723 37.6316 150.693 29.3735 143.943L80 82.0001L127.634 17.7273Z" stroke="white"/>
<path d="M29.3116 143.892C16.0576 133.038 6.6381 118.215 2.43961 101.606C-1.75887 84.9962 -0.514602 67.4778 5.98929 51.6287L80 81.9999L29.3116 143.892Z" fill="url(#paint8_linear)"/>
<path d="M29.3116 143.892C16.0576 133.038 6.6381 118.215 2.43961 101.606C-1.75887 84.9962 -0.514602 67.4778 5.98929 51.6287L80 81.9999L29.3116 143.892Z" stroke="white"/>
<path d="M6.01953 51.5547C9.25354 43.6963 13.719 36.4033 19.2479 29.95L79.9998 82L6.01953 51.5547Z" fill="url(#paint9_linear)"/>
<path d="M19.3003 29.8893C31.603 15.5588 48.5793 6.04316 67.2239 3.02686L80.0001 82.0001L19.3003 29.8893Z" fill="url(#paint10_linear)"/>
<path d="M67.3027 3.01397C71.4648 2.3449 75.6733 2.00586 79.8888 2L79.9999 81.9999L67.3027 3.01397Z" fill="url(#paint11_linear)"/>
<circle cx="79.5039" cy="82.5039" r="48.5039" fill="#1D1D1B"/>
<defs>
<filter id="filter0_d" x="140" y="0" width="70" height="64" filterUnits="userSpaceOnUse" color-interpolation-filters="sRGB">
<feFlood flood-opacity="0" result="BackgroundImageFix"/>
<feColorMatrix in="SourceAlpha" type="matrix" values="0 0 0 0 0 0 0 0 0 0 0 0 0 0 0 0 0 0 127 0"/>
<feOffset/>
<feGaussianBlur stdDeviation="15"/>
<feColorMatrix type="matrix" values="0 0 0 0 0 0 0 0 0 0 0 0 0 0 0 0 0 0 1 0"/>
<feBlend mode="normal" in2="BackgroundImageFix" result="effect1_dropShadow"/>
<feBlend mode="normal" in="SourceGraphic" in2="effect1_dropShadow" result="shape"/>
</filter>
<filter id="filter1_d" x="140" y="42" width="70" height="64" filterUnits="userSpaceOnUse" color-interpolation-filters="sRGB">
<feFlood flood-opacity="0" result="BackgroundImageFix"/>
<feColorMatrix in="SourceAlpha" type="matrix" values="0 0 0 0 0 0 0 0 0 0 0 0 0 0 0 0 0 0 127 0"/>
<feOffset/>
<feGaussianBlur stdDeviation="15"/>
<feColorMatrix type="matrix" values="0 0 0 0 0 0 0 0 0 0 0 0 0 0 0 0 0 0 1 0"/>
<feBlend mode="normal" in2="BackgroundImageFix" result="effect1_dropShadow"/>
<feBlend mode="normal" in="SourceGraphic" in2="effect1_dropShadow" result="shape"/>
</filter>
<filter id="filter2_d" x="140" y="64" width="70" height="64" filterUnits="userSpaceOnUse" color-interpolation-filters="sRGB">
<feFlood flood-opacity="0" result="BackgroundImageFix"/>
<feColorMatrix in="SourceAlpha" type="matrix" values="0 0 0 0 0 0 0 0 0 0 0 0 0 0 0 0 0 0 127 0"/>
<feOffset/>
<feGaussianBlur stdDeviation="15"/>
<feColorMatrix type="matrix" values="0 0 0 0 0 0 0 0 0 0 0 0 0 0 0 0 0 0 1 0"/>
<feBlend mode="normal" in2="BackgroundImageFix" result="effect1_dropShadow"/>
<feBlend mode="normal" in="SourceGraphic" in2="effect1_dropShadow" result="shape"/>
</filter>
<filter id="filter3_d" x="140" y="105" width="70" height="64" filterUnits="userSpaceOnUse" color-interpolation-filters="sRGB">
<feFlood flood-opacity="0" result="BackgroundImageFix"/>
<feColorMatrix in="SourceAlpha" type="matrix" values="0 0 0 0 0 0 0 0 0 0 0 0 0 0 0 0 0 0 127 0"/>
<feOffset/>
<feGaussianBlur stdDeviation="15"/>
<feColorMatrix type="matrix" values="0 0 0 0 0 0 0 0 0 0 0 0 0 0 0 0 0 0 1 0"/>
<feBlend mode="normal" in2="BackgroundImageFix" result="effect1_dropShadow"/>
<feBlend mode="normal" in="SourceGraphic" in2="effect1_dropShadow" result="shape"/>
</filter>
<linearGradient id="paint0_linear" x1="170" y1="34" x2="180" y2="34" gradientUnits="userSpaceOnUse">
<stop stop-color="#65A6F2"/>
<stop offset="1" stop-color="#22BBDD"/>
</linearGradient>
<linearGradient id="paint1_linear" x1="180" y1="55" x2="170" y2="55" gradientUnits="userSpaceOnUse">
<stop stop-color="#E01E73"/>
<stop offset="1" stop-color="#FF7272"/>
</linearGradient>
<linearGradient id="paint2_linear" x1="180" y1="76" x2="170" y2="76" gradientUnits="userSpaceOnUse">
<stop stop-color="#FF9D0A"/>
<stop offset="1" stop-color="#FEFFC7"/>
</linearGradient>
<linearGradient id="paint3_linear" x1="170" y1="98" x2="180" y2="98" gradientUnits="userSpaceOnUse">
<stop stop-color="#B4FABD"/>
<stop offset="1" stop-color="#22DD9A"/>
</linearGradient>
<linearGradient id="paint4_linear" x1="180" y1="119" x2="170" y2="119" gradientUnits="userSpaceOnUse">
<stop stop-color="#C41005"/>
<stop offset="1" stop-color="#DD5E16"/>
</linearGradient>
<linearGradient id="paint5_linear" x1="170" y1="139" x2="180" y2="139" gradientUnits="userSpaceOnUse">
<stop stop-color="#FA1DBC"/>
<stop offset="1" stop-color="#A122DD"/>
</linearGradient>
<linearGradient id="paint6_linear" x1="79.9839" y1="41.3443" x2="129.91" y2="41.3443" gradientUnits="userSpaceOnUse">
<stop stop-color="#489CFF"/>
<stop offset="1" stop-color="#3AD5F8"/>
</linearGradient>
<linearGradient id="paint7_linear" x1="29.3735" y1="88.6811" x2="166.424" y2="88.6811" gradientUnits="userSpaceOnUse">
<stop stop-color="#E01E73"/>
<stop offset="1" stop-color="#FF7272"/>
</linearGradient>
<linearGradient id="paint8_linear" x1="1.98028e-07" y1="97.0043" x2="83.9344" y2="97.0043" gradientUnits="userSpaceOnUse">
<stop stop-color="#FEFFC7"/>
<stop offset="1" stop-color="#FF9D0A"/>
</linearGradient>
<linearGradient id="paint9_linear" x1="6.01953" y1="55.5483" x2="83.6382" y2="55.5483" gradientUnits="userSpaceOnUse">
<stop stop-color="#B4FABD"/>
<stop offset="1" stop-color="#22DD9A"/>
</linearGradient>
<linearGradient id="paint10_linear" x1="19.3003" y1="41.8661" x2="82.9854" y2="41.8661" gradientUnits="userSpaceOnUse">
<stop stop-color="#C31005"/>
<stop offset="1" stop-color="#DD5E16"/>
</linearGradient>
<linearGradient id="paint11_linear" x1="73.6513" y1="2" x2="73.6513" y2="81.9999" gradientUnits="userSpaceOnUse">
<stop stop-color="#FA1DBC"/>
<stop offset="1" stop-color="#A122DD"/>
</linearGradient>
</defs>
</svg>
