<svg width="385" height="169" viewBox="0 0 385 169" fill="none" xmlns="http://www.w3.org/2000/svg">
<g filter="url(#filter0_d)">
<line x1="172" y1="32" x2="178" y2="32" stroke="url(#paint0_linear)" stroke-width="4" stroke-linecap="round"/>
</g>
<line x1="172" y1="53" x2="178" y2="53" stroke="url(#paint1_linear)" stroke-width="4" stroke-linecap="round"/>
<g filter="url(#filter1_d)">
<line x1="172" y1="74" x2="178" y2="74" stroke="url(#paint2_linear)" stroke-width="4" stroke-linecap="round" stroke-linejoin="round"/>
</g>
<g filter="url(#filter2_d)">
<line x1="172" y1="96" x2="178" y2="96" stroke="url(#paint3_linear)" stroke-width="4" stroke-linecap="round"/>
</g>
<line x1="172" y1="117" x2="178" y2="117" stroke="url(#paint4_linear)" stroke-width="4" stroke-linecap="round"/>
<g filter="url(#filter3_d)">
<line x1="172" y1="137" x2="178" y2="137" stroke="url(#paint5_linear)" stroke-width="4" stroke-linecap="round"/>
</g>
<path d="M197.895 31.4648H198.492C199.051 31.4648 199.469 31.3555 199.746 31.1367C200.023 30.9141 200.162 30.5918 200.162 30.1699C200.162 29.7441 200.045 29.4297 199.811 29.2266C199.58 29.0234 199.217 28.9219 198.721 28.9219H197.895V31.4648ZM201.996 30.1055C201.996 31.0273 201.707 31.7324 201.129 32.2207C200.555 32.709 199.736 32.9531 198.674 32.9531H197.895V36H196.078V27.4336H198.814C199.854 27.4336 200.643 27.6582 201.182 28.1074C201.725 28.5527 201.996 29.2188 201.996 30.1055ZM207.129 29.3262C207.371 29.3262 207.572 29.3438 207.732 29.3789L207.598 31.0547C207.453 31.0156 207.277 30.9961 207.07 30.9961C206.5 30.9961 206.055 31.1426 205.734 31.4355C205.418 31.7285 205.26 32.1387 205.26 32.666V36H203.473V29.4492H204.826L205.09 30.5508H205.178C205.381 30.1836 205.654 29.8887 205.998 29.666C206.346 29.4395 206.723 29.3262 207.129 29.3262ZM211.635 30.5977C211.256 30.5977 210.959 30.7188 210.744 30.9609C210.529 31.1992 210.406 31.5391 210.375 31.9805H212.883C212.875 31.5391 212.76 31.1992 212.537 30.9609C212.314 30.7188 212.014 30.5977 211.635 30.5977ZM211.887 36.1172C210.832 36.1172 210.008 35.8262 209.414 35.2441C208.82 34.6621 208.523 33.8379 208.523 32.7715C208.523 31.6738 208.797 30.8262 209.344 30.2285C209.895 29.627 210.654 29.3262 211.623 29.3262C212.549 29.3262 213.27 29.5898 213.785 30.1172C214.301 30.6445 214.559 31.373 214.559 32.3027V33.1699H210.334C210.354 33.6777 210.504 34.0742 210.785 34.3594C211.066 34.6445 211.461 34.7871 211.969 34.7871C212.363 34.7871 212.736 34.7461 213.088 34.6641C213.439 34.582 213.807 34.4512 214.189 34.2715V35.6543C213.877 35.8105 213.543 35.9258 213.188 36C212.832 36.0781 212.398 36.1172 211.887 36.1172ZM220.582 34.0547C220.582 34.7266 220.348 35.2383 219.879 35.5898C219.414 35.9414 218.717 36.1172 217.787 36.1172C217.311 36.1172 216.904 36.084 216.568 36.0176C216.232 35.9551 215.918 35.8613 215.625 35.7363V34.2598C215.957 34.416 216.33 34.5469 216.744 34.6523C217.162 34.7578 217.529 34.8105 217.846 34.8105C218.494 34.8105 218.818 34.623 218.818 34.248C218.818 34.1074 218.775 33.9941 218.689 33.9082C218.604 33.8184 218.455 33.7188 218.244 33.6094C218.033 33.4961 217.752 33.3652 217.4 33.2168C216.896 33.0059 216.525 32.8105 216.287 32.6309C216.053 32.4512 215.881 32.2461 215.771 32.0156C215.666 31.7812 215.613 31.4941 215.613 31.1543C215.613 30.5723 215.838 30.123 216.287 29.8066C216.74 29.4863 217.381 29.3262 218.209 29.3262C218.998 29.3262 219.766 29.498 220.512 29.8418L219.973 31.1309C219.645 30.9902 219.338 30.875 219.053 30.7852C218.768 30.6953 218.477 30.6504 218.18 30.6504C217.652 30.6504 217.389 30.793 217.389 31.0781C217.389 31.2383 217.473 31.377 217.641 31.4941C217.812 31.6113 218.186 31.7852 218.76 32.0156C219.271 32.2227 219.646 32.416 219.885 32.5957C220.123 32.7754 220.299 32.9824 220.412 33.2168C220.525 33.4512 220.582 33.7305 220.582 34.0547ZM226.137 36L225.791 35.1094H225.744C225.443 35.4883 225.133 35.752 224.812 35.9004C224.496 36.0449 224.082 36.1172 223.57 36.1172C222.941 36.1172 222.445 35.9375 222.082 35.5781C221.723 35.2188 221.543 34.707 221.543 34.043C221.543 33.3477 221.785 32.8359 222.27 32.5078C222.758 32.1758 223.492 31.9922 224.473 31.957L225.609 31.9219V31.6348C225.609 30.9707 225.27 30.6387 224.59 30.6387C224.066 30.6387 223.451 30.7969 222.744 31.1133L222.152 29.9062C222.906 29.5117 223.742 29.3145 224.66 29.3145C225.539 29.3145 226.213 29.5059 226.682 29.8887C227.15 30.2715 227.385 30.8535 227.385 31.6348V36H226.137ZM225.609 32.9648L224.918 32.9883C224.398 33.0039 224.012 33.0977 223.758 33.2695C223.504 33.4414 223.377 33.7031 223.377 34.0547C223.377 34.5586 223.666 34.8105 224.244 34.8105C224.658 34.8105 224.988 34.6914 225.234 34.4531C225.484 34.2148 225.609 33.8984 225.609 33.5039V32.9648ZM231.018 36H229.23V26.8828H231.018V36ZM235.611 30.5977C235.232 30.5977 234.936 30.7188 234.721 30.9609C234.506 31.1992 234.383 31.5391 234.352 31.9805H236.859C236.852 31.5391 236.736 31.1992 236.514 30.9609C236.291 30.7188 235.99 30.5977 235.611 30.5977ZM235.863 36.1172C234.809 36.1172 233.984 35.8262 233.391 35.2441C232.797 34.6621 232.5 33.8379 232.5 32.7715C232.5 31.6738 232.773 30.8262 233.32 30.2285C233.871 29.627 234.631 29.3262 235.6 29.3262C236.525 29.3262 237.246 29.5898 237.762 30.1172C238.277 30.6445 238.535 31.373 238.535 32.3027V33.1699H234.311C234.33 33.6777 234.48 34.0742 234.762 34.3594C235.043 34.6445 235.438 34.7871 235.945 34.7871C236.34 34.7871 236.713 34.7461 237.064 34.6641C237.416 34.582 237.783 34.4512 238.166 34.2715V35.6543C237.854 35.8105 237.52 35.9258 237.164 36C236.809 36.0781 236.375 36.1172 235.863 36.1172ZM239.736 35.1621C239.736 34.834 239.824 34.5859 240 34.418C240.176 34.25 240.432 34.166 240.768 34.166C241.092 34.166 241.342 34.252 241.518 34.4238C241.697 34.5957 241.787 34.8418 241.787 35.1621C241.787 35.4707 241.697 35.7148 241.518 35.8945C241.338 36.0703 241.088 36.1582 240.768 36.1582C240.439 36.1582 240.186 36.0723 240.006 35.9004C239.826 35.7246 239.736 35.4785 239.736 35.1621ZM239.736 30.3223C239.736 29.9941 239.824 29.7461 240 29.5781C240.176 29.4102 240.432 29.3262 240.768 29.3262C241.092 29.3262 241.342 29.4121 241.518 29.584C241.697 29.7559 241.787 30.002 241.787 30.3223C241.787 30.6387 241.695 30.8848 241.512 31.0605C241.332 31.2324 241.084 31.3184 240.768 31.3184C240.439 31.3184 240.186 31.2324 240.006 31.0605C239.826 30.8887 239.736 30.6426 239.736 30.3223ZM248.736 30.8496C249.65 30.8496 250.369 31.0703 250.893 31.5117C251.42 31.9531 251.684 32.5605 251.684 33.334C251.684 34.2129 251.41 34.8965 250.863 35.3848C250.316 35.873 249.562 36.1172 248.602 36.1172C248.176 36.1172 247.771 36.0762 247.389 35.9941C247.006 35.9082 246.686 35.7871 246.428 35.6309V35.0273C246.85 35.2422 247.225 35.3926 247.553 35.4785C247.881 35.5605 248.23 35.6016 248.602 35.6016C249.352 35.6016 249.953 35.4043 250.406 35.0098C250.859 34.6113 251.086 34.0742 251.086 33.3984C251.086 32.7617 250.865 32.2617 250.424 31.8984C249.982 31.5352 249.383 31.3535 248.625 31.3535C248.117 31.3535 247.586 31.4297 247.031 31.582L246.68 31.3535L247.02 27.4336H251.145V27.9961H247.57L247.307 31.0195C247.916 30.9062 248.393 30.8496 248.736 30.8496ZM257.426 36L254.232 28.0898H254.186C254.217 28.5742 254.232 29.0703 254.232 29.5781V36H253.658V27.4336H254.584L257.619 34.9688H257.654L260.689 27.4336H261.592V36H260.988V29.5078C260.988 29.0547 261.012 28.5859 261.059 28.1016H261.012L257.807 36H257.426ZM266.461 33V32.5195H269.244V33H266.461ZM276.316 27.2871C277.043 27.2871 277.627 27.4727 278.068 27.8438C278.514 28.2148 278.736 28.7168 278.736 29.3496C278.736 29.7871 278.598 30.1738 278.32 30.5098C278.047 30.8457 277.602 31.1562 276.984 31.4414C277.734 31.75 278.262 32.0879 278.566 32.4551C278.871 32.8223 279.023 33.2676 279.023 33.791C279.023 34.498 278.775 35.0625 278.279 35.4844C277.787 35.9062 277.125 36.1172 276.293 36.1172C275.43 36.1172 274.768 35.9199 274.307 35.5254C273.846 35.1309 273.615 34.5566 273.615 33.8027C273.615 33.291 273.777 32.8418 274.102 32.4551C274.426 32.0684 274.928 31.7383 275.607 31.4648C274.979 31.168 274.535 30.8555 274.277 30.5273C274.02 30.1953 273.891 29.7988 273.891 29.3379C273.891 28.9277 273.994 28.5684 274.201 28.2598C274.408 27.9473 274.697 27.707 275.068 27.5391C275.443 27.3711 275.859 27.2871 276.316 27.2871ZM274.213 33.8906C274.213 34.4297 274.395 34.8477 274.758 35.1445C275.125 35.4414 275.637 35.5898 276.293 35.5898C276.934 35.5898 277.449 35.4336 277.84 35.1211C278.23 34.8047 278.426 34.377 278.426 33.8379C278.426 33.3535 278.271 32.9609 277.963 32.6602C277.658 32.3555 277.068 32.0371 276.193 31.7051C275.475 31.9824 274.965 32.2891 274.664 32.625C274.363 32.9609 274.213 33.3828 274.213 33.8906ZM276.305 27.8145C275.754 27.8145 275.311 27.9512 274.975 28.2246C274.643 28.4941 274.477 28.8652 274.477 29.3379C274.477 29.6113 274.537 29.8535 274.658 30.0645C274.783 30.2715 274.961 30.4609 275.191 30.6328C275.426 30.8008 275.816 30.998 276.363 31.2246C277 30.9785 277.457 30.707 277.734 30.4102C278.012 30.1133 278.15 29.7559 278.15 29.3379C278.15 28.8691 277.984 28.498 277.652 28.2246C277.324 27.9512 276.875 27.8145 276.305 27.8145ZM280.711 35.543C280.711 35.1602 280.867 34.9688 281.18 34.9688C281.5 34.9688 281.66 35.1602 281.66 35.543C281.66 35.9258 281.5 36.1172 281.18 36.1172C280.867 36.1172 280.711 35.9258 280.711 35.543ZM288.803 31.6934C288.803 33.1973 288.572 34.3105 288.111 35.0332C287.654 35.7559 286.961 36.1172 286.031 36.1172C285.137 36.1172 284.457 35.7461 283.992 35.0039C283.527 34.2578 283.295 33.1543 283.295 31.6934C283.295 30.2012 283.52 29.0957 283.969 28.377C284.422 27.6582 285.109 27.2988 286.031 27.2988C286.934 27.2988 287.621 27.6719 288.094 28.418C288.566 29.1602 288.803 30.252 288.803 31.6934ZM283.928 31.6934C283.928 33.0215 284.102 34.0039 284.449 34.6406C284.797 35.2734 285.324 35.5898 286.031 35.5898C286.77 35.5898 287.307 35.2617 287.643 34.6055C287.982 33.9492 288.152 32.9785 288.152 31.6934C288.152 30.4277 287.982 29.4668 287.643 28.8105C287.307 28.1543 286.77 27.8262 286.031 27.8262C285.293 27.8262 284.758 28.1543 284.426 28.8105C284.094 29.4668 283.928 30.4277 283.928 31.6934ZM290.713 29.9883C290.713 30.7148 290.801 31.2617 290.977 31.6289C291.152 31.9922 291.428 32.1738 291.803 32.1738C292.557 32.1738 292.934 31.4453 292.934 29.9883C292.934 29.2695 292.836 28.7305 292.641 28.3711C292.449 28.0078 292.17 27.8262 291.803 27.8262C291.428 27.8262 291.152 28.0078 290.977 28.3711C290.801 28.7305 290.713 29.2695 290.713 29.9883ZM293.508 29.9883C293.508 30.8711 293.361 31.543 293.068 32.0039C292.775 32.4609 292.354 32.6895 291.803 32.6895C291.283 32.6895 290.875 32.4551 290.578 31.9863C290.285 31.5137 290.139 30.8477 290.139 29.9883C290.139 29.1172 290.279 28.4531 290.561 27.9961C290.842 27.5391 291.256 27.3105 291.803 27.3105C292.346 27.3105 292.766 27.5469 293.062 28.0195C293.359 28.4883 293.508 29.1445 293.508 29.9883ZM295.705 33.4336C295.705 34.1562 295.793 34.6992 295.969 35.0625C296.145 35.4219 296.42 35.6016 296.795 35.6016C297.549 35.6016 297.926 34.8789 297.926 33.4336C297.926 31.9922 297.549 31.2715 296.795 31.2715C296.42 31.2715 296.145 31.4512 295.969 31.8105C295.793 32.166 295.705 32.707 295.705 33.4336ZM298.5 33.4336C298.5 34.3164 298.355 34.9883 298.066 35.4492C297.777 35.9062 297.357 36.1348 296.807 36.1348C296.275 36.1348 295.863 35.8984 295.57 35.4258C295.277 34.9492 295.131 34.2852 295.131 33.4336C295.131 32.5547 295.273 31.8887 295.559 31.4355C295.848 30.9824 296.264 30.7559 296.807 30.7559C297.342 30.7559 297.758 30.9902 298.055 31.459C298.352 31.9277 298.5 32.5859 298.5 33.4336ZM296.977 27.4336L292.225 36H291.662L296.414 27.4336H296.977Z" fill="white"/>
<path d="M197.895 52.4648H198.492C199.051 52.4648 199.469 52.3555 199.746 52.1367C200.023 51.9141 200.162 51.5918 200.162 51.1699C200.162 50.7441 200.045 50.4297 199.811 50.2266C199.58 50.0234 199.217 49.9219 198.721 49.9219H197.895V52.4648ZM201.996 51.1055C201.996 52.0273 201.707 52.7324 201.129 53.2207C200.555 53.709 199.736 53.9531 198.674 53.9531H197.895V57H196.078V48.4336H198.814C199.854 48.4336 200.643 48.6582 201.182 49.1074C201.725 49.5527 201.996 50.2188 201.996 51.1055ZM208.113 57L207.873 56.1621H207.779C207.588 56.4668 207.316 56.7031 206.965 56.8711C206.613 57.0352 206.213 57.1172 205.764 57.1172C204.994 57.1172 204.414 56.9121 204.023 56.502C203.633 56.0879 203.438 55.4941 203.438 54.7207V50.4492H205.225V54.2754C205.225 54.748 205.309 55.1035 205.477 55.3418C205.645 55.5762 205.912 55.6934 206.279 55.6934C206.779 55.6934 207.141 55.5273 207.363 55.1953C207.586 54.8594 207.697 54.3047 207.697 53.5312V50.4492H209.484V57H208.113ZM215.004 50.3262C215.777 50.3262 216.383 50.6289 216.82 51.2344C217.258 51.8359 217.477 52.6621 217.477 53.7129C217.477 54.7949 217.25 55.6328 216.797 56.2266C216.348 56.8203 215.734 57.1172 214.957 57.1172C214.188 57.1172 213.584 56.8379 213.146 56.2793H213.023L212.725 57H211.359V47.8828H213.146V50.0039C213.146 50.2734 213.123 50.7051 213.076 51.2988H213.146C213.564 50.6504 214.184 50.3262 215.004 50.3262ZM214.43 51.7559C213.988 51.7559 213.666 51.8926 213.463 52.166C213.26 52.4355 213.154 52.8828 213.146 53.5078V53.7012C213.146 54.4043 213.25 54.9082 213.457 55.2129C213.668 55.5176 214 55.6699 214.453 55.6699C214.82 55.6699 215.111 55.502 215.326 55.166C215.545 54.8262 215.654 54.334 215.654 53.6895C215.654 53.0449 215.545 52.5625 215.326 52.2422C215.107 51.918 214.809 51.7559 214.43 51.7559ZM220.74 57H218.953V47.8828H220.74V57ZM222.545 48.7559C222.545 48.1738 222.869 47.8828 223.518 47.8828C224.166 47.8828 224.49 48.1738 224.49 48.7559C224.49 49.0332 224.408 49.25 224.244 49.4062C224.084 49.5586 223.842 49.6348 223.518 49.6348C222.869 49.6348 222.545 49.3418 222.545 48.7559ZM224.408 57H222.621V50.4492H224.408V57ZM228.949 57.1172C226.91 57.1172 225.891 55.998 225.891 53.7598C225.891 52.6465 226.168 51.7969 226.723 51.2109C227.277 50.6211 228.072 50.3262 229.107 50.3262C229.865 50.3262 230.545 50.4746 231.146 50.7715L230.619 52.1543C230.338 52.041 230.076 51.9492 229.834 51.8789C229.592 51.8047 229.35 51.7676 229.107 51.7676C228.178 51.7676 227.713 52.4277 227.713 53.748C227.713 55.0293 228.178 55.6699 229.107 55.6699C229.451 55.6699 229.77 55.625 230.062 55.5352C230.355 55.4414 230.648 55.2969 230.941 55.1016V56.6309C230.652 56.8145 230.359 56.9414 230.062 57.0117C229.77 57.082 229.398 57.1172 228.949 57.1172ZM232.213 56.1621C232.213 55.834 232.301 55.5859 232.477 55.418C232.652 55.25 232.908 55.166 233.244 55.166C233.568 55.166 233.818 55.252 233.994 55.4238C234.174 55.5957 234.264 55.8418 234.264 56.1621C234.264 56.4707 234.174 56.7148 233.994 56.8945C233.814 57.0703 233.564 57.1582 233.244 57.1582C232.916 57.1582 232.662 57.0723 232.482 56.9004C232.303 56.7246 232.213 56.4785 232.213 56.1621ZM232.213 51.3223C232.213 50.9941 232.301 50.7461 232.477 50.5781C232.652 50.4102 232.908 50.3262 233.244 50.3262C233.568 50.3262 233.818 50.4121 233.994 50.584C234.174 50.7559 234.264 51.002 234.264 51.3223C234.264 51.6387 234.172 51.8848 233.988 52.0605C233.809 52.2324 233.561 52.3184 233.244 52.3184C232.916 52.3184 232.662 52.2324 232.482 52.0605C232.303 51.8887 232.213 51.6426 232.213 51.3223ZM244.09 57H238.729V56.4844L241.008 54.1055C241.648 53.4414 242.098 52.9336 242.355 52.582C242.613 52.2305 242.803 51.8945 242.924 51.5742C243.045 51.2539 243.105 50.918 243.105 50.5664C243.105 50.0547 242.938 49.6387 242.602 49.3184C242.266 48.998 241.83 48.8379 241.295 48.8379C240.58 48.8379 239.896 49.0977 239.244 49.6172L238.928 49.2129C239.643 48.6113 240.436 48.3105 241.307 48.3105C242.053 48.3105 242.639 48.5098 243.064 48.9082C243.494 49.3066 243.709 49.8555 243.709 50.5547C243.709 51.1211 243.564 51.6699 243.275 52.2012C242.99 52.7285 242.467 53.3809 241.705 54.1582L239.508 56.4141V56.4375H244.09V57ZM248.068 51.8496C248.982 51.8496 249.701 52.0703 250.225 52.5117C250.752 52.9531 251.016 53.5605 251.016 54.334C251.016 55.2129 250.742 55.8965 250.195 56.3848C249.648 56.873 248.895 57.1172 247.934 57.1172C247.508 57.1172 247.104 57.0762 246.721 56.9941C246.338 56.9082 246.018 56.7871 245.76 56.6309V56.0273C246.182 56.2422 246.557 56.3926 246.885 56.4785C247.213 56.5605 247.562 56.6016 247.934 56.6016C248.684 56.6016 249.285 56.4043 249.738 56.0098C250.191 55.6113 250.418 55.0742 250.418 54.3984C250.418 53.7617 250.197 53.2617 249.756 52.8984C249.314 52.5352 248.715 52.3535 247.957 52.3535C247.449 52.3535 246.918 52.4297 246.363 52.582L246.012 52.3535L246.352 48.4336H250.477V48.9961H246.902L246.639 52.0195C247.248 51.9062 247.725 51.8496 248.068 51.8496ZM256.758 57L253.564 49.0898H253.518C253.549 49.5742 253.564 50.0703 253.564 50.5781V57H252.99V48.4336H253.916L256.951 55.9688H256.986L260.021 48.4336H260.924V57H260.32V50.5078C260.32 50.0547 260.344 49.5859 260.391 49.1016H260.344L257.139 57H256.758ZM265.793 54V53.5195H268.576V54H265.793ZM277.975 50.4492C277.975 50.9805 277.807 51.4277 277.471 51.791C277.139 52.1543 276.691 52.3867 276.129 52.4883V52.5234C276.816 52.6094 277.34 52.8281 277.699 53.1797C278.059 53.5312 278.238 54.0039 278.238 54.5977C278.238 55.3984 277.965 56.0195 277.418 56.4609C276.875 56.8984 276.092 57.1172 275.068 57.1172C274.197 57.1172 273.438 56.9551 272.789 56.6309V56.0508C273.117 56.2227 273.484 56.3574 273.891 56.4551C274.301 56.5527 274.686 56.6016 275.045 56.6016C275.908 56.6016 276.557 56.4277 276.99 56.0801C277.424 55.7285 277.641 55.2344 277.641 54.5977C277.641 54.0312 277.418 53.5957 276.973 53.291C276.531 52.9863 275.881 52.834 275.021 52.834H274.096V52.2715H275.033C275.744 52.2715 276.307 52.1035 276.721 51.7676C277.139 51.4277 277.348 50.9688 277.348 50.3906C277.348 49.9141 277.178 49.5332 276.838 49.248C276.502 48.959 276.061 48.8145 275.514 48.8145C275.088 48.8145 274.699 48.875 274.348 48.9961C273.996 49.1133 273.602 49.3164 273.164 49.6055L272.877 49.2129C273.209 48.9355 273.609 48.7168 274.078 48.5566C274.547 48.3926 275.021 48.3105 275.502 48.3105C276.291 48.3105 276.9 48.498 277.33 48.873C277.76 49.2441 277.975 49.7695 277.975 50.4492ZM285.164 52.0664C285.164 53.1914 285.016 54.1328 284.719 54.8906C284.426 55.6484 283.996 56.209 283.43 56.5723C282.867 56.9355 282.186 57.1172 281.385 57.1172C280.979 57.1172 280.604 57.0664 280.26 56.9648V56.4609C280.428 56.5156 280.629 56.5586 280.863 56.5898C281.102 56.6172 281.283 56.6309 281.408 56.6309C282.373 56.6309 283.129 56.2832 283.676 55.5879C284.223 54.8887 284.527 53.8711 284.59 52.5352H284.52C284.234 52.9102 283.895 53.1992 283.5 53.4023C283.105 53.6016 282.693 53.7012 282.264 53.7012C281.471 53.7012 280.852 53.4824 280.406 53.0449C279.965 52.6074 279.744 51.9863 279.744 51.1816C279.744 50.3223 279.986 49.627 280.471 49.0957C280.959 48.5645 281.592 48.2988 282.369 48.2988C282.932 48.2988 283.424 48.4473 283.846 48.7441C284.268 49.0371 284.592 49.4688 284.818 50.0391C285.049 50.6094 285.164 51.2852 285.164 52.0664ZM282.369 48.8145C281.752 48.8145 281.26 49.0234 280.893 49.4414C280.525 49.8555 280.342 50.4238 280.342 51.1465C280.342 51.8262 280.512 52.3418 280.852 52.6934C281.191 53.0449 281.678 53.2207 282.311 53.2207C282.705 53.2207 283.072 53.1328 283.412 52.957C283.756 52.7812 284.027 52.5488 284.227 52.2598C284.43 51.9668 284.531 51.6699 284.531 51.3691C284.531 50.9121 284.439 50.4844 284.256 50.0859C284.076 49.6875 283.822 49.377 283.494 49.1543C283.17 48.9277 282.795 48.8145 282.369 48.8145ZM286.898 56.543C286.898 56.1602 287.055 55.9688 287.367 55.9688C287.688 55.9688 287.848 56.1602 287.848 56.543C287.848 56.9258 287.688 57.1172 287.367 57.1172C287.055 57.1172 286.898 56.9258 286.898 56.543ZM292.219 48.2871C292.945 48.2871 293.529 48.4727 293.971 48.8438C294.416 49.2148 294.639 49.7168 294.639 50.3496C294.639 50.7871 294.5 51.1738 294.223 51.5098C293.949 51.8457 293.504 52.1562 292.887 52.4414C293.637 52.75 294.164 53.0879 294.469 53.4551C294.773 53.8223 294.926 54.2676 294.926 54.791C294.926 55.498 294.678 56.0625 294.182 56.4844C293.689 56.9062 293.027 57.1172 292.195 57.1172C291.332 57.1172 290.67 56.9199 290.209 56.5254C289.748 56.1309 289.518 55.5566 289.518 54.8027C289.518 54.291 289.68 53.8418 290.004 53.4551C290.328 53.0684 290.83 52.7383 291.51 52.4648C290.881 52.168 290.438 51.8555 290.18 51.5273C289.922 51.1953 289.793 50.7988 289.793 50.3379C289.793 49.9277 289.896 49.5684 290.104 49.2598C290.311 48.9473 290.6 48.707 290.971 48.5391C291.346 48.3711 291.762 48.2871 292.219 48.2871ZM290.115 54.8906C290.115 55.4297 290.297 55.8477 290.66 56.1445C291.027 56.4414 291.539 56.5898 292.195 56.5898C292.836 56.5898 293.352 56.4336 293.742 56.1211C294.133 55.8047 294.328 55.377 294.328 54.8379C294.328 54.3535 294.174 53.9609 293.865 53.6602C293.561 53.3555 292.971 53.0371 292.096 52.7051C291.377 52.9824 290.867 53.2891 290.566 53.625C290.266 53.9609 290.115 54.3828 290.115 54.8906ZM292.207 48.8145C291.656 48.8145 291.213 48.9512 290.877 49.2246C290.545 49.4941 290.379 49.8652 290.379 50.3379C290.379 50.6113 290.439 50.8535 290.561 51.0645C290.686 51.2715 290.863 51.4609 291.094 51.6328C291.328 51.8008 291.719 51.998 292.266 52.2246C292.902 51.9785 293.359 51.707 293.637 51.4102C293.914 51.1133 294.053 50.7559 294.053 50.3379C294.053 49.8691 293.887 49.498 293.555 49.2246C293.227 48.9512 292.777 48.8145 292.207 48.8145ZM296.9 50.9883C296.9 51.7148 296.988 52.2617 297.164 52.6289C297.34 52.9922 297.615 53.1738 297.99 53.1738C298.744 53.1738 299.121 52.4453 299.121 50.9883C299.121 50.2695 299.023 49.7305 298.828 49.3711C298.637 49.0078 298.357 48.8262 297.99 48.8262C297.615 48.8262 297.34 49.0078 297.164 49.3711C296.988 49.7305 296.9 50.2695 296.9 50.9883ZM299.695 50.9883C299.695 51.8711 299.549 52.543 299.256 53.0039C298.963 53.4609 298.541 53.6895 297.99 53.6895C297.471 53.6895 297.062 53.4551 296.766 52.9863C296.473 52.5137 296.326 51.8477 296.326 50.9883C296.326 50.1172 296.467 49.4531 296.748 48.9961C297.029 48.5391 297.443 48.3105 297.99 48.3105C298.533 48.3105 298.953 48.5469 299.25 49.0195C299.547 49.4883 299.695 50.1445 299.695 50.9883ZM301.893 54.4336C301.893 55.1562 301.98 55.6992 302.156 56.0625C302.332 56.4219 302.607 56.6016 302.982 56.6016C303.736 56.6016 304.113 55.8789 304.113 54.4336C304.113 52.9922 303.736 52.2715 302.982 52.2715C302.607 52.2715 302.332 52.4512 302.156 52.8105C301.98 53.166 301.893 53.707 301.893 54.4336ZM304.688 54.4336C304.688 55.3164 304.543 55.9883 304.254 56.4492C303.965 56.9062 303.545 57.1348 302.994 57.1348C302.463 57.1348 302.051 56.8984 301.758 56.4258C301.465 55.9492 301.318 55.2852 301.318 54.4336C301.318 53.5547 301.461 52.8887 301.746 52.4355C302.035 51.9824 302.451 51.7559 302.994 51.7559C303.529 51.7559 303.945 51.9902 304.242 52.459C304.539 52.9277 304.688 53.5859 304.688 54.4336ZM303.164 48.4336L298.412 57H297.85L302.602 48.4336H303.164Z" fill="white"/>
<path d="M197.865 78H196.078V69.4336H200.988V70.9219H197.865V73.1309H200.771V74.6133H197.865V78ZM203.947 74.7129C203.947 75.3613 204.053 75.8516 204.264 76.1836C204.479 76.5156 204.826 76.6816 205.307 76.6816C205.783 76.6816 206.125 76.5176 206.332 76.1895C206.543 75.8574 206.648 75.3652 206.648 74.7129C206.648 74.0645 206.543 73.5781 206.332 73.2539C206.121 72.9297 205.775 72.7676 205.295 72.7676C204.818 72.7676 204.475 72.9297 204.264 73.2539C204.053 73.5742 203.947 74.0605 203.947 74.7129ZM208.477 74.7129C208.477 75.7793 208.195 76.6133 207.633 77.2148C207.07 77.8164 206.287 78.1172 205.283 78.1172C204.654 78.1172 204.1 77.9805 203.619 77.707C203.139 77.4297 202.77 77.0332 202.512 76.5176C202.254 76.002 202.125 75.4004 202.125 74.7129C202.125 73.6426 202.404 72.8105 202.963 72.2168C203.521 71.623 204.307 71.3262 205.318 71.3262C205.947 71.3262 206.502 71.4629 206.982 71.7363C207.463 72.0098 207.832 72.4023 208.09 72.9141C208.348 73.4258 208.477 74.0254 208.477 74.7129ZM214.594 78L214.354 77.1621H214.26C214.068 77.4668 213.797 77.7031 213.445 77.8711C213.094 78.0352 212.693 78.1172 212.244 78.1172C211.475 78.1172 210.895 77.9121 210.504 77.502C210.113 77.0879 209.918 76.4941 209.918 75.7207V71.4492H211.705V75.2754C211.705 75.748 211.789 76.1035 211.957 76.3418C212.125 76.5762 212.393 76.6934 212.76 76.6934C213.26 76.6934 213.621 76.5273 213.844 76.1953C214.066 75.8594 214.178 75.3047 214.178 74.5312V71.4492H215.965V78H214.594ZM223.887 78H222.1V74.1738C222.1 73.7012 222.016 73.3477 221.848 73.1133C221.68 72.875 221.412 72.7559 221.045 72.7559C220.545 72.7559 220.184 72.9238 219.961 73.2598C219.738 73.5918 219.627 74.1445 219.627 74.918V78H217.84V71.4492H219.205L219.445 72.2871H219.545C219.744 71.9707 220.018 71.7324 220.365 71.5723C220.717 71.4082 221.115 71.3262 221.561 71.3262C222.322 71.3262 222.9 71.5332 223.295 71.9473C223.689 72.3574 223.887 72.9512 223.887 73.7285V78ZM227.801 78.1172C227.031 78.1172 226.426 77.8184 225.984 77.2207C225.547 76.623 225.328 75.7949 225.328 74.7363C225.328 73.6621 225.551 72.8262 225.996 72.2285C226.445 71.627 227.062 71.3262 227.848 71.3262C228.672 71.3262 229.301 71.6465 229.734 72.2871H229.793C229.703 71.7988 229.658 71.3633 229.658 70.9805V68.8828H231.451V78H230.08L229.734 77.1504H229.658C229.252 77.7949 228.633 78.1172 227.801 78.1172ZM228.428 76.6934C228.885 76.6934 229.219 76.5605 229.43 76.2949C229.645 76.0293 229.762 75.5781 229.781 74.9414V74.748C229.781 74.0449 229.672 73.541 229.453 73.2363C229.238 72.9316 228.887 72.7793 228.398 72.7793C228 72.7793 227.689 72.9492 227.467 73.2891C227.248 73.625 227.139 74.1152 227.139 74.7598C227.139 75.4043 227.25 75.8887 227.473 76.2129C227.695 76.5332 228.014 76.6934 228.428 76.6934ZM241.512 78H236.578V69.4336H241.512V70.9219H238.395V72.8027H241.295V74.291H238.395V76.5H241.512V78ZM245.824 78.1172C243.785 78.1172 242.766 76.998 242.766 74.7598C242.766 73.6465 243.043 72.7969 243.598 72.2109C244.152 71.6211 244.947 71.3262 245.982 71.3262C246.74 71.3262 247.42 71.4746 248.021 71.7715L247.494 73.1543C247.213 73.041 246.951 72.9492 246.709 72.8789C246.467 72.8047 246.225 72.7676 245.982 72.7676C245.053 72.7676 244.588 73.4277 244.588 74.748C244.588 76.0293 245.053 76.6699 245.982 76.6699C246.326 76.6699 246.645 76.625 246.938 76.5352C247.23 76.4414 247.523 76.2969 247.816 76.1016V77.6309C247.527 77.8145 247.234 77.9414 246.938 78.0117C246.645 78.082 246.273 78.1172 245.824 78.1172ZM250.764 74.7129C250.764 75.3613 250.869 75.8516 251.08 76.1836C251.295 76.5156 251.643 76.6816 252.123 76.6816C252.6 76.6816 252.941 76.5176 253.148 76.1895C253.359 75.8574 253.465 75.3652 253.465 74.7129C253.465 74.0645 253.359 73.5781 253.148 73.2539C252.938 72.9297 252.592 72.7676 252.111 72.7676C251.635 72.7676 251.291 72.9297 251.08 73.2539C250.869 73.5742 250.764 74.0605 250.764 74.7129ZM255.293 74.7129C255.293 75.7793 255.012 76.6133 254.449 77.2148C253.887 77.8164 253.104 78.1172 252.1 78.1172C251.471 78.1172 250.916 77.9805 250.436 77.707C249.955 77.4297 249.586 77.0332 249.328 76.5176C249.07 76.002 248.941 75.4004 248.941 74.7129C248.941 73.6426 249.221 72.8105 249.779 72.2168C250.338 71.623 251.123 71.3262 252.135 71.3262C252.764 71.3262 253.318 71.4629 253.799 71.7363C254.279 72.0098 254.648 72.4023 254.906 72.9141C255.164 73.4258 255.293 74.0254 255.293 74.7129ZM261.34 76.0547C261.34 76.7266 261.105 77.2383 260.637 77.5898C260.172 77.9414 259.475 78.1172 258.545 78.1172C258.068 78.1172 257.662 78.084 257.326 78.0176C256.99 77.9551 256.676 77.8613 256.383 77.7363V76.2598C256.715 76.416 257.088 76.5469 257.502 76.6523C257.92 76.7578 258.287 76.8105 258.604 76.8105C259.252 76.8105 259.576 76.623 259.576 76.248C259.576 76.1074 259.533 75.9941 259.447 75.9082C259.361 75.8184 259.213 75.7188 259.002 75.6094C258.791 75.4961 258.51 75.3652 258.158 75.2168C257.654 75.0059 257.283 74.8105 257.045 74.6309C256.811 74.4512 256.639 74.2461 256.529 74.0156C256.424 73.7812 256.371 73.4941 256.371 73.1543C256.371 72.5723 256.596 72.123 257.045 71.8066C257.498 71.4863 258.139 71.3262 258.967 71.3262C259.756 71.3262 260.523 71.498 261.27 71.8418L260.73 73.1309C260.402 72.9902 260.096 72.875 259.811 72.7852C259.525 72.6953 259.234 72.6504 258.938 72.6504C258.41 72.6504 258.146 72.793 258.146 73.0781C258.146 73.2383 258.23 73.377 258.398 73.4941C258.57 73.6113 258.943 73.7852 259.518 74.0156C260.029 74.2227 260.404 74.416 260.643 74.5957C260.881 74.7754 261.057 74.9824 261.17 75.2168C261.283 75.4512 261.34 75.7305 261.34 76.0547ZM261.797 71.4492H263.754L264.99 75.1348C265.096 75.4551 265.168 75.834 265.207 76.2715H265.242C265.285 75.8691 265.369 75.4902 265.494 75.1348L266.707 71.4492H268.623L265.852 78.8379C265.598 79.5215 265.234 80.0332 264.762 80.373C264.293 80.7129 263.744 80.8828 263.115 80.8828C262.807 80.8828 262.504 80.8496 262.207 80.7832V79.3652C262.422 79.416 262.656 79.4414 262.91 79.4414C263.227 79.4414 263.502 79.3438 263.736 79.1484C263.975 78.957 264.16 78.666 264.293 78.2754L264.398 77.9531L261.797 71.4492ZM274.137 76.0547C274.137 76.7266 273.902 77.2383 273.434 77.5898C272.969 77.9414 272.271 78.1172 271.342 78.1172C270.865 78.1172 270.459 78.084 270.123 78.0176C269.787 77.9551 269.473 77.8613 269.18 77.7363V76.2598C269.512 76.416 269.885 76.5469 270.299 76.6523C270.717 76.7578 271.084 76.8105 271.4 76.8105C272.049 76.8105 272.373 76.623 272.373 76.248C272.373 76.1074 272.33 75.9941 272.244 75.9082C272.158 75.8184 272.01 75.7188 271.799 75.6094C271.588 75.4961 271.307 75.3652 270.955 75.2168C270.451 75.0059 270.08 74.8105 269.842 74.6309C269.607 74.4512 269.436 74.2461 269.326 74.0156C269.221 73.7812 269.168 73.4941 269.168 73.1543C269.168 72.5723 269.393 72.123 269.842 71.8066C270.295 71.4863 270.936 71.3262 271.764 71.3262C272.553 71.3262 273.32 71.498 274.066 71.8418L273.527 73.1309C273.199 72.9902 272.893 72.875 272.607 72.7852C272.322 72.6953 272.031 72.6504 271.734 72.6504C271.207 72.6504 270.943 72.793 270.943 73.0781C270.943 73.2383 271.027 73.377 271.195 73.4941C271.367 73.6113 271.74 73.7852 272.314 74.0156C272.826 74.2227 273.201 74.416 273.439 74.5957C273.678 74.7754 273.854 74.9824 273.967 75.2168C274.08 75.4512 274.137 75.7305 274.137 76.0547ZM278.291 76.6934C278.604 76.6934 278.979 76.625 279.416 76.4883V77.8184C278.971 78.0176 278.424 78.1172 277.775 78.1172C277.061 78.1172 276.539 77.9375 276.211 77.5781C275.887 77.2148 275.725 76.6719 275.725 75.9492V72.791H274.869V72.0352L275.854 71.4375L276.369 70.0547H277.512V71.4492H279.346V72.791H277.512V75.9492C277.512 76.2031 277.582 76.3906 277.723 76.5117C277.867 76.6328 278.057 76.6934 278.291 76.6934ZM283.459 72.5977C283.08 72.5977 282.783 72.7188 282.568 72.9609C282.354 73.1992 282.23 73.5391 282.199 73.9805H284.707C284.699 73.5391 284.584 73.1992 284.361 72.9609C284.139 72.7188 283.838 72.5977 283.459 72.5977ZM283.711 78.1172C282.656 78.1172 281.832 77.8262 281.238 77.2441C280.645 76.6621 280.348 75.8379 280.348 74.7715C280.348 73.6738 280.621 72.8262 281.168 72.2285C281.719 71.627 282.479 71.3262 283.447 71.3262C284.373 71.3262 285.094 71.5898 285.609 72.1172C286.125 72.6445 286.383 73.373 286.383 74.3027V75.1699H282.158C282.178 75.6777 282.328 76.0742 282.609 76.3594C282.891 76.6445 283.285 76.7871 283.793 76.7871C284.188 76.7871 284.561 76.7461 284.912 76.6641C285.264 76.582 285.631 76.4512 286.014 76.2715V77.6543C285.701 77.8105 285.367 77.9258 285.012 78C284.656 78.0781 284.223 78.1172 283.711 78.1172ZM293.701 78H291.914V74.1738C291.914 73.7012 291.834 73.3477 291.674 73.1133C291.518 72.875 291.27 72.7559 290.93 72.7559C290.473 72.7559 290.141 72.9238 289.934 73.2598C289.727 73.5957 289.623 74.1484 289.623 74.918V78H287.836V71.4492H289.201L289.441 72.2871H289.541C289.717 71.9863 289.971 71.752 290.303 71.584C290.635 71.4121 291.016 71.3262 291.445 71.3262C292.426 71.3262 293.09 71.6465 293.438 72.2871H293.596C293.771 71.9824 294.029 71.7461 294.369 71.5781C294.713 71.4102 295.1 71.3262 295.529 71.3262C296.271 71.3262 296.832 71.5176 297.211 71.9004C297.594 72.2793 297.785 72.8887 297.785 73.7285V78H295.992V74.1738C295.992 73.7012 295.912 73.3477 295.752 73.1133C295.596 72.875 295.348 72.7559 295.008 72.7559C294.57 72.7559 294.242 72.9121 294.023 73.2246C293.809 73.5371 293.701 74.0332 293.701 74.7129V78ZM299.373 77.1621C299.373 76.834 299.461 76.5859 299.637 76.418C299.812 76.25 300.068 76.166 300.404 76.166C300.729 76.166 300.979 76.252 301.154 76.4238C301.334 76.5957 301.424 76.8418 301.424 77.1621C301.424 77.4707 301.334 77.7148 301.154 77.8945C300.975 78.0703 300.725 78.1582 300.404 78.1582C300.076 78.1582 299.822 78.0723 299.643 77.9004C299.463 77.7246 299.373 77.4785 299.373 77.1621ZM299.373 72.3223C299.373 71.9941 299.461 71.7461 299.637 71.5781C299.812 71.4102 300.068 71.3262 300.404 71.3262C300.729 71.3262 300.979 71.4121 301.154 71.584C301.334 71.7559 301.424 72.002 301.424 72.3223C301.424 72.6387 301.332 72.8848 301.148 73.0605C300.969 73.2324 300.721 73.3184 300.404 73.3184C300.076 73.3184 299.822 73.2324 299.643 73.0605C299.463 72.8887 299.373 72.6426 299.373 72.3223ZM309.223 78H308.648V71.7598C308.648 71.1934 308.672 70.6055 308.719 69.9961C308.66 70.0547 308.6 70.1113 308.537 70.166C308.475 70.2207 307.871 70.6953 306.727 71.5898L306.393 71.1738L308.719 69.4336H309.223V78ZM315.229 72.8496C316.143 72.8496 316.861 73.0703 317.385 73.5117C317.912 73.9531 318.176 74.5605 318.176 75.334C318.176 76.2129 317.902 76.8965 317.355 77.3848C316.809 77.873 316.055 78.1172 315.094 78.1172C314.668 78.1172 314.264 78.0762 313.881 77.9941C313.498 77.9082 313.178 77.7871 312.92 77.6309V77.0273C313.342 77.2422 313.717 77.3926 314.045 77.4785C314.373 77.5605 314.723 77.6016 315.094 77.6016C315.844 77.6016 316.445 77.4043 316.898 77.0098C317.352 76.6113 317.578 76.0742 317.578 75.3984C317.578 74.7617 317.357 74.2617 316.916 73.8984C316.475 73.5352 315.875 73.3535 315.117 73.3535C314.609 73.3535 314.078 73.4297 313.523 73.582L313.172 73.3535L313.512 69.4336H317.637V69.9961H314.062L313.799 73.0195C314.408 72.9062 314.885 72.8496 315.229 72.8496ZM323.918 78L320.725 70.0898H320.678C320.709 70.5742 320.725 71.0703 320.725 71.5781V78H320.15V69.4336H321.076L324.111 76.9688H324.146L327.182 69.4336H328.084V78H327.48V71.5078C327.48 71.0547 327.504 70.5859 327.551 70.1016H327.504L324.299 78H323.918ZM332.953 75V74.5195H335.736V75H332.953ZM345.422 78H340.061V77.4844L342.34 75.1055C342.98 74.4414 343.43 73.9336 343.688 73.582C343.945 73.2305 344.135 72.8945 344.256 72.5742C344.377 72.2539 344.438 71.918 344.438 71.5664C344.438 71.0547 344.27 70.6387 343.934 70.3184C343.598 69.998 343.162 69.8379 342.627 69.8379C341.912 69.8379 341.229 70.0977 340.576 70.6172L340.26 70.2129C340.975 69.6113 341.768 69.3105 342.639 69.3105C343.385 69.3105 343.971 69.5098 344.396 69.9082C344.826 70.3066 345.041 70.8555 345.041 71.5547C345.041 72.1211 344.896 72.6699 344.607 73.2012C344.322 73.7285 343.799 74.3809 343.037 75.1582L340.84 77.4141V77.4375H345.422V78ZM351.99 71.4492C351.99 71.9805 351.822 72.4277 351.486 72.791C351.154 73.1543 350.707 73.3867 350.145 73.4883V73.5234C350.832 73.6094 351.355 73.8281 351.715 74.1797C352.074 74.5312 352.254 75.0039 352.254 75.5977C352.254 76.3984 351.98 77.0195 351.434 77.4609C350.891 77.8984 350.107 78.1172 349.084 78.1172C348.213 78.1172 347.453 77.9551 346.805 77.6309V77.0508C347.133 77.2227 347.5 77.3574 347.906 77.4551C348.316 77.5527 348.701 77.6016 349.061 77.6016C349.924 77.6016 350.572 77.4277 351.006 77.0801C351.439 76.7285 351.656 76.2344 351.656 75.5977C351.656 75.0312 351.434 74.5957 350.988 74.291C350.547 73.9863 349.896 73.834 349.037 73.834H348.111V73.2715H349.049C349.76 73.2715 350.322 73.1035 350.736 72.7676C351.154 72.4277 351.363 71.9688 351.363 71.3906C351.363 70.9141 351.193 70.5332 350.854 70.248C350.518 69.959 350.076 69.8145 349.529 69.8145C349.104 69.8145 348.715 69.875 348.363 69.9961C348.012 70.1133 347.617 70.3164 347.18 70.6055L346.893 70.2129C347.225 69.9355 347.625 69.7168 348.094 69.5566C348.562 69.3926 349.037 69.3105 349.518 69.3105C350.307 69.3105 350.916 69.498 351.346 69.873C351.775 70.2441 351.99 70.7695 351.99 71.4492ZM354.059 77.543C354.059 77.1602 354.215 76.9688 354.527 76.9688C354.848 76.9688 355.008 77.1602 355.008 77.543C355.008 77.9258 354.848 78.1172 354.527 78.1172C354.215 78.1172 354.059 77.9258 354.059 77.543ZM362.039 73.0664C362.039 74.1914 361.891 75.1328 361.594 75.8906C361.301 76.6484 360.871 77.209 360.305 77.5723C359.742 77.9355 359.061 78.1172 358.26 78.1172C357.854 78.1172 357.479 78.0664 357.135 77.9648V77.4609C357.303 77.5156 357.504 77.5586 357.738 77.5898C357.977 77.6172 358.158 77.6309 358.283 77.6309C359.248 77.6309 360.004 77.2832 360.551 76.5879C361.098 75.8887 361.402 74.8711 361.465 73.5352H361.395C361.109 73.9102 360.77 74.1992 360.375 74.4023C359.98 74.6016 359.568 74.7012 359.139 74.7012C358.346 74.7012 357.727 74.4824 357.281 74.0449C356.84 73.6074 356.619 72.9863 356.619 72.1816C356.619 71.3223 356.861 70.627 357.346 70.0957C357.834 69.5645 358.467 69.2988 359.244 69.2988C359.807 69.2988 360.299 69.4473 360.721 69.7441C361.143 70.0371 361.467 70.4688 361.693 71.0391C361.924 71.6094 362.039 72.2852 362.039 73.0664ZM359.244 69.8145C358.627 69.8145 358.135 70.0234 357.768 70.4414C357.4 70.8555 357.217 71.4238 357.217 72.1465C357.217 72.8262 357.387 73.3418 357.727 73.6934C358.066 74.0449 358.553 74.2207 359.186 74.2207C359.58 74.2207 359.947 74.1328 360.287 73.957C360.631 73.7812 360.902 73.5488 361.102 73.2598C361.305 72.9668 361.406 72.6699 361.406 72.3691C361.406 71.9121 361.314 71.4844 361.131 71.0859C360.951 70.6875 360.697 70.377 360.369 70.1543C360.045 69.9277 359.67 69.8145 359.244 69.8145ZM364.061 71.9883C364.061 72.7148 364.148 73.2617 364.324 73.6289C364.5 73.9922 364.775 74.1738 365.15 74.1738C365.904 74.1738 366.281 73.4453 366.281 71.9883C366.281 71.2695 366.184 70.7305 365.988 70.3711C365.797 70.0078 365.518 69.8262 365.15 69.8262C364.775 69.8262 364.5 70.0078 364.324 70.3711C364.148 70.7305 364.061 71.2695 364.061 71.9883ZM366.855 71.9883C366.855 72.8711 366.709 73.543 366.416 74.0039C366.123 74.4609 365.701 74.6895 365.15 74.6895C364.631 74.6895 364.223 74.4551 363.926 73.9863C363.633 73.5137 363.486 72.8477 363.486 71.9883C363.486 71.1172 363.627 70.4531 363.908 69.9961C364.189 69.5391 364.604 69.3105 365.15 69.3105C365.693 69.3105 366.113 69.5469 366.41 70.0195C366.707 70.4883 366.855 71.1445 366.855 71.9883ZM369.053 75.4336C369.053 76.1562 369.141 76.6992 369.316 77.0625C369.492 77.4219 369.768 77.6016 370.143 77.6016C370.896 77.6016 371.273 76.8789 371.273 75.4336C371.273 73.9922 370.896 73.2715 370.143 73.2715C369.768 73.2715 369.492 73.4512 369.316 73.8105C369.141 74.166 369.053 74.707 369.053 75.4336ZM371.848 75.4336C371.848 76.3164 371.703 76.9883 371.414 77.4492C371.125 77.9062 370.705 78.1348 370.154 78.1348C369.623 78.1348 369.211 77.8984 368.918 77.4258C368.625 76.9492 368.479 76.2852 368.479 75.4336C368.479 74.5547 368.621 73.8887 368.906 73.4355C369.195 72.9824 369.611 72.7559 370.154 72.7559C370.689 72.7559 371.105 72.9902 371.402 73.459C371.699 73.9277 371.848 74.5859 371.848 75.4336ZM370.324 69.4336L365.572 78H365.01L369.762 69.4336H370.324Z" fill="white"/>
<path d="M197.865 99H196.078V90.4336H200.988V91.9219H197.865V94.1309H200.771V95.6133H197.865V99ZM203.947 95.7129C203.947 96.3613 204.053 96.8516 204.264 97.1836C204.479 97.5156 204.826 97.6816 205.307 97.6816C205.783 97.6816 206.125 97.5176 206.332 97.1895C206.543 96.8574 206.648 96.3652 206.648 95.7129C206.648 95.0645 206.543 94.5781 206.332 94.2539C206.121 93.9297 205.775 93.7676 205.295 93.7676C204.818 93.7676 204.475 93.9297 204.264 94.2539C204.053 94.5742 203.947 95.0605 203.947 95.7129ZM208.477 95.7129C208.477 96.7793 208.195 97.6133 207.633 98.2148C207.07 98.8164 206.287 99.1172 205.283 99.1172C204.654 99.1172 204.1 98.9805 203.619 98.707C203.139 98.4297 202.77 98.0332 202.512 97.5176C202.254 97.002 202.125 96.4004 202.125 95.7129C202.125 94.6426 202.404 93.8105 202.963 93.2168C203.521 92.623 204.307 92.3262 205.318 92.3262C205.947 92.3262 206.502 92.4629 206.982 92.7363C207.463 93.0098 207.832 93.4023 208.09 93.9141C208.348 94.4258 208.477 95.0254 208.477 95.7129ZM214.594 99L214.354 98.1621H214.26C214.068 98.4668 213.797 98.7031 213.445 98.8711C213.094 99.0352 212.693 99.1172 212.244 99.1172C211.475 99.1172 210.895 98.9121 210.504 98.502C210.113 98.0879 209.918 97.4941 209.918 96.7207V92.4492H211.705V96.2754C211.705 96.748 211.789 97.1035 211.957 97.3418C212.125 97.5762 212.393 97.6934 212.76 97.6934C213.26 97.6934 213.621 97.5273 213.844 97.1953C214.066 96.8594 214.178 96.3047 214.178 95.5312V92.4492H215.965V99H214.594ZM223.887 99H222.1V95.1738C222.1 94.7012 222.016 94.3477 221.848 94.1133C221.68 93.875 221.412 93.7559 221.045 93.7559C220.545 93.7559 220.184 93.9238 219.961 94.2598C219.738 94.5918 219.627 95.1445 219.627 95.918V99H217.84V92.4492H219.205L219.445 93.2871H219.545C219.744 92.9707 220.018 92.7324 220.365 92.5723C220.717 92.4082 221.115 92.3262 221.561 92.3262C222.322 92.3262 222.9 92.5332 223.295 92.9473C223.689 93.3574 223.887 93.9512 223.887 94.7285V99ZM227.801 99.1172C227.031 99.1172 226.426 98.8184 225.984 98.2207C225.547 97.623 225.328 96.7949 225.328 95.7363C225.328 94.6621 225.551 93.8262 225.996 93.2285C226.445 92.627 227.062 92.3262 227.848 92.3262C228.672 92.3262 229.301 92.6465 229.734 93.2871H229.793C229.703 92.7988 229.658 92.3633 229.658 91.9805V89.8828H231.451V99H230.08L229.734 98.1504H229.658C229.252 98.7949 228.633 99.1172 227.801 99.1172ZM228.428 97.6934C228.885 97.6934 229.219 97.5605 229.43 97.2949C229.645 97.0293 229.762 96.5781 229.781 95.9414V95.748C229.781 95.0449 229.672 94.541 229.453 94.2363C229.238 93.9316 228.887 93.7793 228.398 93.7793C228 93.7793 227.689 93.9492 227.467 94.2891C227.248 94.625 227.139 95.1152 227.139 95.7598C227.139 96.4043 227.25 96.8887 227.473 97.2129C227.695 97.5332 228.014 97.6934 228.428 97.6934ZM239.883 99H238.066V91.9453H235.74V90.4336H242.209V91.9453H239.883V99ZM247.043 92.3262C247.285 92.3262 247.486 92.3438 247.646 92.3789L247.512 94.0547C247.367 94.0156 247.191 93.9961 246.984 93.9961C246.414 93.9961 245.969 94.1426 245.648 94.4355C245.332 94.7285 245.174 95.1387 245.174 95.666V99H243.387V92.4492H244.74L245.004 93.5508H245.092C245.295 93.1836 245.568 92.8887 245.912 92.666C246.26 92.4395 246.637 92.3262 247.043 92.3262ZM251.549 93.5977C251.17 93.5977 250.873 93.7188 250.658 93.9609C250.443 94.1992 250.32 94.5391 250.289 94.9805H252.797C252.789 94.5391 252.674 94.1992 252.451 93.9609C252.229 93.7188 251.928 93.5977 251.549 93.5977ZM251.801 99.1172C250.746 99.1172 249.922 98.8262 249.328 98.2441C248.734 97.6621 248.438 96.8379 248.438 95.7715C248.438 94.6738 248.711 93.8262 249.258 93.2285C249.809 92.627 250.568 92.3262 251.537 92.3262C252.463 92.3262 253.184 92.5898 253.699 93.1172C254.215 93.6445 254.473 94.373 254.473 95.3027V96.1699H250.248C250.268 96.6777 250.418 97.0742 250.699 97.3594C250.98 97.6445 251.375 97.7871 251.883 97.7871C252.277 97.7871 252.65 97.7461 253.002 97.6641C253.354 97.582 253.721 97.4512 254.104 97.2715V98.6543C253.791 98.8105 253.457 98.9258 253.102 99C252.746 99.0781 252.312 99.1172 251.801 99.1172ZM260.086 99L259.74 98.1094H259.693C259.393 98.4883 259.082 98.752 258.762 98.9004C258.445 99.0449 258.031 99.1172 257.52 99.1172C256.891 99.1172 256.395 98.9375 256.031 98.5781C255.672 98.2188 255.492 97.707 255.492 97.043C255.492 96.3477 255.734 95.8359 256.219 95.5078C256.707 95.1758 257.441 94.9922 258.422 94.957L259.559 94.9219V94.6348C259.559 93.9707 259.219 93.6387 258.539 93.6387C258.016 93.6387 257.4 93.7969 256.693 94.1133L256.102 92.9062C256.855 92.5117 257.691 92.3145 258.609 92.3145C259.488 92.3145 260.162 92.5059 260.631 92.8887C261.1 93.2715 261.334 93.8535 261.334 94.6348V99H260.086ZM259.559 95.9648L258.867 95.9883C258.348 96.0039 257.961 96.0977 257.707 96.2695C257.453 96.4414 257.326 96.7031 257.326 97.0547C257.326 97.5586 257.615 97.8105 258.193 97.8105C258.607 97.8105 258.938 97.6914 259.184 97.4531C259.434 97.2148 259.559 96.8984 259.559 96.5039V95.9648ZM267.75 97.0547C267.75 97.7266 267.516 98.2383 267.047 98.5898C266.582 98.9414 265.885 99.1172 264.955 99.1172C264.479 99.1172 264.072 99.084 263.736 99.0176C263.4 98.9551 263.086 98.8613 262.793 98.7363V97.2598C263.125 97.416 263.498 97.5469 263.912 97.6523C264.33 97.7578 264.697 97.8105 265.014 97.8105C265.662 97.8105 265.986 97.623 265.986 97.248C265.986 97.1074 265.943 96.9941 265.857 96.9082C265.771 96.8184 265.623 96.7188 265.412 96.6094C265.201 96.4961 264.92 96.3652 264.568 96.2168C264.064 96.0059 263.693 95.8105 263.455 95.6309C263.221 95.4512 263.049 95.2461 262.939 95.0156C262.834 94.7812 262.781 94.4941 262.781 94.1543C262.781 93.5723 263.006 93.123 263.455 92.8066C263.908 92.4863 264.549 92.3262 265.377 92.3262C266.166 92.3262 266.934 92.498 267.68 92.8418L267.141 94.1309C266.812 93.9902 266.506 93.875 266.221 93.7852C265.936 93.6953 265.645 93.6504 265.348 93.6504C264.82 93.6504 264.557 93.793 264.557 94.0781C264.557 94.2383 264.641 94.377 264.809 94.4941C264.98 94.6113 265.354 94.7852 265.928 95.0156C266.439 95.2227 266.814 95.416 267.053 95.5957C267.291 95.7754 267.467 95.9824 267.58 96.2168C267.693 96.4512 267.75 96.7305 267.75 97.0547ZM273.785 99L273.545 98.1621H273.451C273.26 98.4668 272.988 98.7031 272.637 98.8711C272.285 99.0352 271.885 99.1172 271.436 99.1172C270.666 99.1172 270.086 98.9121 269.695 98.502C269.305 98.0879 269.109 97.4941 269.109 96.7207V92.4492H270.896V96.2754C270.896 96.748 270.98 97.1035 271.148 97.3418C271.316 97.5762 271.584 97.6934 271.951 97.6934C272.451 97.6934 272.812 97.5273 273.035 97.1953C273.258 96.8594 273.369 96.3047 273.369 95.5312V92.4492H275.156V99H273.785ZM280.688 92.3262C280.93 92.3262 281.131 92.3438 281.291 92.3789L281.156 94.0547C281.012 94.0156 280.836 93.9961 280.629 93.9961C280.059 93.9961 279.613 94.1426 279.293 94.4355C278.977 94.7285 278.818 95.1387 278.818 95.666V99H277.031V92.4492H278.385L278.648 93.5508H278.736C278.939 93.1836 279.213 92.8887 279.557 92.666C279.904 92.4395 280.281 92.3262 280.688 92.3262ZM281.543 92.4492H283.5L284.736 96.1348C284.842 96.4551 284.914 96.834 284.953 97.2715H284.988C285.031 96.8691 285.115 96.4902 285.24 96.1348L286.453 92.4492H288.369L285.598 99.8379C285.344 100.521 284.98 101.033 284.508 101.373C284.039 101.713 283.49 101.883 282.861 101.883C282.553 101.883 282.25 101.85 281.953 101.783V100.365C282.168 100.416 282.402 100.441 282.656 100.441C282.973 100.441 283.248 100.344 283.482 100.148C283.721 99.957 283.906 99.666 284.039 99.2754L284.145 98.9531L281.543 92.4492ZM289.061 98.1621C289.061 97.834 289.148 97.5859 289.324 97.418C289.5 97.25 289.756 97.166 290.092 97.166C290.416 97.166 290.666 97.252 290.842 97.4238C291.021 97.5957 291.111 97.8418 291.111 98.1621C291.111 98.4707 291.021 98.7148 290.842 98.8945C290.662 99.0703 290.412 99.1582 290.092 99.1582C289.764 99.1582 289.51 99.0723 289.33 98.9004C289.15 98.7246 289.061 98.4785 289.061 98.1621ZM289.061 93.3223C289.061 92.9941 289.148 92.7461 289.324 92.5781C289.5 92.4102 289.756 92.3262 290.092 92.3262C290.416 92.3262 290.666 92.4121 290.842 92.584C291.021 92.7559 291.111 93.002 291.111 93.3223C291.111 93.6387 291.02 93.8848 290.836 94.0605C290.656 94.2324 290.408 94.3184 290.092 94.3184C289.764 94.3184 289.51 94.2324 289.33 94.0605C289.15 93.8887 289.061 93.6426 289.061 93.3223ZM298.061 93.8496C298.975 93.8496 299.693 94.0703 300.217 94.5117C300.744 94.9531 301.008 95.5605 301.008 96.334C301.008 97.2129 300.734 97.8965 300.188 98.3848C299.641 98.873 298.887 99.1172 297.926 99.1172C297.5 99.1172 297.096 99.0762 296.713 98.9941C296.33 98.9082 296.01 98.7871 295.752 98.6309V98.0273C296.174 98.2422 296.549 98.3926 296.877 98.4785C297.205 98.5605 297.555 98.6016 297.926 98.6016C298.676 98.6016 299.277 98.4043 299.73 98.0098C300.184 97.6113 300.41 97.0742 300.41 96.3984C300.41 95.7617 300.189 95.2617 299.748 94.8984C299.307 94.5352 298.707 94.3535 297.949 94.3535C297.441 94.3535 296.91 94.4297 296.355 94.582L296.004 94.3535L296.344 90.4336H300.469V90.9961H296.895L296.631 94.0195C297.24 93.9062 297.717 93.8496 298.061 93.8496ZM306.75 99L303.557 91.0898H303.51C303.541 91.5742 303.557 92.0703 303.557 92.5781V99H302.982V90.4336H303.908L306.943 97.9688H306.979L310.014 90.4336H310.916V99H310.312V92.5078C310.312 92.0547 310.336 91.5859 310.383 91.1016H310.336L307.131 99H306.75ZM315.785 96V95.5195H318.568V96H315.785ZM325.641 90.2871C326.367 90.2871 326.951 90.4727 327.393 90.8438C327.838 91.2148 328.061 91.7168 328.061 92.3496C328.061 92.7871 327.922 93.1738 327.645 93.5098C327.371 93.8457 326.926 94.1562 326.309 94.4414C327.059 94.75 327.586 95.0879 327.891 95.4551C328.195 95.8223 328.348 96.2676 328.348 96.791C328.348 97.498 328.1 98.0625 327.604 98.4844C327.111 98.9062 326.449 99.1172 325.617 99.1172C324.754 99.1172 324.092 98.9199 323.631 98.5254C323.17 98.1309 322.939 97.5566 322.939 96.8027C322.939 96.291 323.102 95.8418 323.426 95.4551C323.75 95.0684 324.252 94.7383 324.932 94.4648C324.303 94.168 323.859 93.8555 323.602 93.5273C323.344 93.1953 323.215 92.7988 323.215 92.3379C323.215 91.9277 323.318 91.5684 323.525 91.2598C323.732 90.9473 324.021 90.707 324.393 90.5391C324.768 90.3711 325.184 90.2871 325.641 90.2871ZM323.537 96.8906C323.537 97.4297 323.719 97.8477 324.082 98.1445C324.449 98.4414 324.961 98.5898 325.617 98.5898C326.258 98.5898 326.773 98.4336 327.164 98.1211C327.555 97.8047 327.75 97.377 327.75 96.8379C327.75 96.3535 327.596 95.9609 327.287 95.6602C326.982 95.3555 326.393 95.0371 325.518 94.7051C324.799 94.9824 324.289 95.2891 323.988 95.625C323.688 95.9609 323.537 96.3828 323.537 96.8906ZM325.629 90.8145C325.078 90.8145 324.635 90.9512 324.299 91.2246C323.967 91.4941 323.801 91.8652 323.801 92.3379C323.801 92.6113 323.861 92.8535 323.982 93.0645C324.107 93.2715 324.285 93.4609 324.516 93.6328C324.75 93.8008 325.141 93.998 325.688 94.2246C326.324 93.9785 326.781 93.707 327.059 93.4102C327.336 93.1133 327.475 92.7559 327.475 92.3379C327.475 91.8691 327.309 91.498 326.977 91.2246C326.648 90.9512 326.199 90.8145 325.629 90.8145ZM330.035 98.543C330.035 98.1602 330.191 97.9688 330.504 97.9688C330.824 97.9688 330.984 98.1602 330.984 98.543C330.984 98.9258 330.824 99.1172 330.504 99.1172C330.191 99.1172 330.035 98.9258 330.035 98.543ZM338.127 94.6934C338.127 96.1973 337.896 97.3105 337.436 98.0332C336.979 98.7559 336.285 99.1172 335.355 99.1172C334.461 99.1172 333.781 98.7461 333.316 98.0039C332.852 97.2578 332.619 96.1543 332.619 94.6934C332.619 93.2012 332.844 92.0957 333.293 91.377C333.746 90.6582 334.434 90.2988 335.355 90.2988C336.258 90.2988 336.945 90.6719 337.418 91.418C337.891 92.1602 338.127 93.252 338.127 94.6934ZM333.252 94.6934C333.252 96.0215 333.426 97.0039 333.773 97.6406C334.121 98.2734 334.648 98.5898 335.355 98.5898C336.094 98.5898 336.631 98.2617 336.967 97.6055C337.307 96.9492 337.477 95.9785 337.477 94.6934C337.477 93.4277 337.307 92.4668 336.967 91.8105C336.631 91.1543 336.094 90.8262 335.355 90.8262C334.617 90.8262 334.082 91.1543 333.75 91.8105C333.418 92.4668 333.252 93.4277 333.252 94.6934ZM340.037 92.9883C340.037 93.7148 340.125 94.2617 340.301 94.6289C340.477 94.9922 340.752 95.1738 341.127 95.1738C341.881 95.1738 342.258 94.4453 342.258 92.9883C342.258 92.2695 342.16 91.7305 341.965 91.3711C341.773 91.0078 341.494 90.8262 341.127 90.8262C340.752 90.8262 340.477 91.0078 340.301 91.3711C340.125 91.7305 340.037 92.2695 340.037 92.9883ZM342.832 92.9883C342.832 93.8711 342.686 94.543 342.393 95.0039C342.1 95.4609 341.678 95.6895 341.127 95.6895C340.607 95.6895 340.199 95.4551 339.902 94.9863C339.609 94.5137 339.463 93.8477 339.463 92.9883C339.463 92.1172 339.604 91.4531 339.885 90.9961C340.166 90.5391 340.58 90.3105 341.127 90.3105C341.67 90.3105 342.09 90.5469 342.387 91.0195C342.684 91.4883 342.832 92.1445 342.832 92.9883ZM345.029 96.4336C345.029 97.1562 345.117 97.6992 345.293 98.0625C345.469 98.4219 345.744 98.6016 346.119 98.6016C346.873 98.6016 347.25 97.8789 347.25 96.4336C347.25 94.9922 346.873 94.2715 346.119 94.2715C345.744 94.2715 345.469 94.4512 345.293 94.8105C345.117 95.166 345.029 95.707 345.029 96.4336ZM347.824 96.4336C347.824 97.3164 347.68 97.9883 347.391 98.4492C347.102 98.9062 346.682 99.1348 346.131 99.1348C345.6 99.1348 345.188 98.8984 344.895 98.4258C344.602 97.9492 344.455 97.2852 344.455 96.4336C344.455 95.5547 344.598 94.8887 344.883 94.4355C345.172 93.9824 345.588 93.7559 346.131 93.7559C346.666 93.7559 347.082 93.9902 347.379 94.459C347.676 94.9277 347.824 95.5859 347.824 96.4336ZM346.301 90.4336L341.549 99H340.986L345.738 90.4336H346.301Z" fill="white"/>
<path d="M201.322 120L200.701 117.961H197.578L196.957 120H195L198.023 111.398H200.244L203.279 120H201.322ZM200.268 116.438C199.693 114.59 199.369 113.545 199.295 113.303C199.225 113.061 199.174 112.869 199.143 112.729C199.014 113.229 198.645 114.465 198.035 116.438H200.268ZM207.615 115.189H211.014V119.631C210.463 119.811 209.943 119.936 209.455 120.006C208.971 120.08 208.475 120.117 207.967 120.117C206.674 120.117 205.686 119.738 205.002 118.98C204.322 118.219 203.982 117.127 203.982 115.705C203.982 114.322 204.377 113.244 205.166 112.471C205.959 111.697 207.057 111.311 208.459 111.311C209.338 111.311 210.186 111.486 211.002 111.838L210.398 113.291C209.773 112.979 209.123 112.822 208.447 112.822C207.662 112.822 207.033 113.086 206.561 113.613C206.088 114.141 205.852 114.85 205.852 115.74C205.852 116.67 206.041 117.381 206.42 117.873C206.803 118.361 207.357 118.605 208.084 118.605C208.463 118.605 208.848 118.566 209.238 118.488V116.701H207.615V115.189ZM221.232 117.621C221.232 118.395 220.953 119.004 220.395 119.449C219.84 119.895 219.066 120.117 218.074 120.117C217.16 120.117 216.352 119.945 215.648 119.602V117.914C216.227 118.172 216.715 118.354 217.113 118.459C217.516 118.564 217.883 118.617 218.215 118.617C218.613 118.617 218.918 118.541 219.129 118.389C219.344 118.236 219.451 118.01 219.451 117.709C219.451 117.541 219.404 117.393 219.311 117.264C219.217 117.131 219.078 117.004 218.895 116.883C218.715 116.762 218.346 116.568 217.787 116.303C217.264 116.057 216.871 115.82 216.609 115.594C216.348 115.367 216.139 115.104 215.982 114.803C215.826 114.502 215.748 114.15 215.748 113.748C215.748 112.99 216.004 112.395 216.516 111.961C217.031 111.527 217.742 111.311 218.648 111.311C219.094 111.311 219.518 111.363 219.92 111.469C220.326 111.574 220.75 111.723 221.191 111.914L220.605 113.326C220.148 113.139 219.77 113.008 219.469 112.934C219.172 112.859 218.879 112.822 218.59 112.822C218.246 112.822 217.982 112.902 217.799 113.062C217.615 113.223 217.523 113.432 217.523 113.689C217.523 113.85 217.561 113.99 217.635 114.111C217.709 114.229 217.826 114.344 217.986 114.457C218.15 114.566 218.535 114.766 219.141 115.055C219.941 115.438 220.49 115.822 220.787 116.209C221.084 116.592 221.232 117.062 221.232 117.621ZM228.691 120H226.904V116.174C226.904 115.229 226.553 114.756 225.85 114.756C225.35 114.756 224.988 114.926 224.766 115.266C224.543 115.605 224.432 116.156 224.432 116.918V120H222.645V110.883H224.432V112.74C224.432 112.885 224.418 113.225 224.391 113.76L224.35 114.287H224.443C224.842 113.646 225.475 113.326 226.342 113.326C227.111 113.326 227.695 113.533 228.094 113.947C228.492 114.361 228.691 114.955 228.691 115.729V120ZM234.691 120L234.346 119.109H234.299C233.998 119.488 233.688 119.752 233.367 119.9C233.051 120.045 232.637 120.117 232.125 120.117C231.496 120.117 231 119.938 230.637 119.578C230.277 119.219 230.098 118.707 230.098 118.043C230.098 117.348 230.34 116.836 230.824 116.508C231.312 116.176 232.047 115.992 233.027 115.957L234.164 115.922V115.635C234.164 114.971 233.824 114.639 233.145 114.639C232.621 114.639 232.006 114.797 231.299 115.113L230.707 113.906C231.461 113.512 232.297 113.314 233.215 113.314C234.094 113.314 234.768 113.506 235.236 113.889C235.705 114.271 235.939 114.854 235.939 115.635V120H234.691ZM234.164 116.965L233.473 116.988C232.953 117.004 232.566 117.098 232.312 117.27C232.059 117.441 231.932 117.703 231.932 118.055C231.932 118.559 232.221 118.811 232.799 118.811C233.213 118.811 233.543 118.691 233.789 118.453C234.039 118.215 234.164 117.898 234.164 117.504V116.965ZM241.441 113.326C241.684 113.326 241.885 113.344 242.045 113.379L241.91 115.055C241.766 115.016 241.59 114.996 241.383 114.996C240.812 114.996 240.367 115.143 240.047 115.436C239.73 115.729 239.572 116.139 239.572 116.666V120H237.785V113.449H239.139L239.402 114.551H239.49C239.693 114.184 239.967 113.889 240.311 113.666C240.658 113.439 241.035 113.326 241.441 113.326ZM245.947 114.598C245.568 114.598 245.271 114.719 245.057 114.961C244.842 115.199 244.719 115.539 244.688 115.98H247.195C247.188 115.539 247.072 115.199 246.85 114.961C246.627 114.719 246.326 114.598 245.947 114.598ZM246.199 120.117C245.145 120.117 244.32 119.826 243.727 119.244C243.133 118.662 242.836 117.838 242.836 116.771C242.836 115.674 243.109 114.826 243.656 114.229C244.207 113.627 244.967 113.326 245.936 113.326C246.861 113.326 247.582 113.59 248.098 114.117C248.613 114.645 248.871 115.373 248.871 116.303V117.17H244.646C244.666 117.678 244.816 118.074 245.098 118.359C245.379 118.645 245.773 118.787 246.281 118.787C246.676 118.787 247.049 118.746 247.4 118.664C247.752 118.582 248.119 118.451 248.502 118.271V119.654C248.189 119.811 247.855 119.926 247.5 120C247.145 120.078 246.711 120.117 246.199 120.117ZM256.371 120H254.584V116.174C254.584 115.229 254.232 114.756 253.529 114.756C253.029 114.756 252.668 114.926 252.445 115.266C252.223 115.605 252.111 116.156 252.111 116.918V120H250.324V110.883H252.111V112.74C252.111 112.885 252.098 113.225 252.07 113.76L252.029 114.287H252.123C252.521 113.646 253.154 113.326 254.021 113.326C254.791 113.326 255.375 113.533 255.773 113.947C256.172 114.361 256.371 114.955 256.371 115.729V120ZM259.635 116.713C259.635 117.361 259.74 117.852 259.951 118.184C260.166 118.516 260.514 118.682 260.994 118.682C261.471 118.682 261.812 118.518 262.02 118.189C262.23 117.857 262.336 117.365 262.336 116.713C262.336 116.064 262.23 115.578 262.02 115.254C261.809 114.93 261.463 114.768 260.982 114.768C260.506 114.768 260.162 114.93 259.951 115.254C259.74 115.574 259.635 116.061 259.635 116.713ZM264.164 116.713C264.164 117.779 263.883 118.613 263.32 119.215C262.758 119.816 261.975 120.117 260.971 120.117C260.342 120.117 259.787 119.98 259.307 119.707C258.826 119.43 258.457 119.033 258.199 118.518C257.941 118.002 257.812 117.4 257.812 116.713C257.812 115.643 258.092 114.811 258.65 114.217C259.209 113.623 259.994 113.326 261.006 113.326C261.635 113.326 262.189 113.463 262.67 113.736C263.15 114.01 263.52 114.402 263.777 114.914C264.035 115.426 264.164 116.025 264.164 116.713ZM267.428 120H265.641V110.883H267.428V120ZM271.383 120.117C270.613 120.117 270.008 119.818 269.566 119.221C269.129 118.623 268.91 117.795 268.91 116.736C268.91 115.662 269.133 114.826 269.578 114.229C270.027 113.627 270.645 113.326 271.43 113.326C272.254 113.326 272.883 113.646 273.316 114.287H273.375C273.285 113.799 273.24 113.363 273.24 112.98V110.883H275.033V120H273.662L273.316 119.15H273.24C272.834 119.795 272.215 120.117 271.383 120.117ZM272.01 118.693C272.467 118.693 272.801 118.561 273.012 118.295C273.227 118.029 273.344 117.578 273.363 116.941V116.748C273.363 116.045 273.254 115.541 273.035 115.236C272.82 114.932 272.469 114.779 271.98 114.779C271.582 114.779 271.271 114.949 271.049 115.289C270.83 115.625 270.721 116.115 270.721 116.76C270.721 117.404 270.832 117.889 271.055 118.213C271.277 118.533 271.596 118.693 272.01 118.693ZM279.615 114.598C279.236 114.598 278.939 114.719 278.725 114.961C278.51 115.199 278.387 115.539 278.355 115.98H280.863C280.855 115.539 280.74 115.199 280.518 114.961C280.295 114.719 279.994 114.598 279.615 114.598ZM279.867 120.117C278.812 120.117 277.988 119.826 277.395 119.244C276.801 118.662 276.504 117.838 276.504 116.771C276.504 115.674 276.777 114.826 277.324 114.229C277.875 113.627 278.635 113.326 279.604 113.326C280.529 113.326 281.25 113.59 281.766 114.117C282.281 114.645 282.539 115.373 282.539 116.303V117.17H278.314C278.334 117.678 278.484 118.074 278.766 118.359C279.047 118.645 279.441 118.787 279.949 118.787C280.344 118.787 280.717 118.746 281.068 118.664C281.42 118.582 281.787 118.451 282.17 118.271V119.654C281.857 119.811 281.523 119.926 281.168 120C280.812 120.078 280.379 120.117 279.867 120.117ZM287.648 113.326C287.891 113.326 288.092 113.344 288.252 113.379L288.117 115.055C287.973 115.016 287.797 114.996 287.59 114.996C287.02 114.996 286.574 115.143 286.254 115.436C285.938 115.729 285.779 116.139 285.779 116.666V120H283.992V113.449H285.346L285.609 114.551H285.697C285.9 114.184 286.174 113.889 286.518 113.666C286.865 113.439 287.242 113.326 287.648 113.326ZM294.012 118.055C294.012 118.727 293.777 119.238 293.309 119.59C292.844 119.941 292.146 120.117 291.217 120.117C290.74 120.117 290.334 120.084 289.998 120.018C289.662 119.955 289.348 119.861 289.055 119.736V118.26C289.387 118.416 289.76 118.547 290.174 118.652C290.592 118.758 290.959 118.811 291.275 118.811C291.924 118.811 292.248 118.623 292.248 118.248C292.248 118.107 292.205 117.994 292.119 117.908C292.033 117.818 291.885 117.719 291.674 117.609C291.463 117.496 291.182 117.365 290.83 117.217C290.326 117.006 289.955 116.811 289.717 116.631C289.482 116.451 289.311 116.246 289.201 116.016C289.096 115.781 289.043 115.494 289.043 115.154C289.043 114.572 289.268 114.123 289.717 113.807C290.17 113.486 290.811 113.326 291.639 113.326C292.428 113.326 293.195 113.498 293.941 113.842L293.402 115.131C293.074 114.99 292.768 114.875 292.482 114.785C292.197 114.695 291.906 114.65 291.609 114.65C291.082 114.65 290.818 114.793 290.818 115.078C290.818 115.238 290.902 115.377 291.07 115.494C291.242 115.611 291.615 115.785 292.189 116.016C292.701 116.223 293.076 116.416 293.314 116.596C293.553 116.775 293.729 116.982 293.842 117.217C293.955 117.451 294.012 117.73 294.012 118.055ZM295.154 119.162C295.154 118.834 295.242 118.586 295.418 118.418C295.594 118.25 295.85 118.166 296.186 118.166C296.51 118.166 296.76 118.252 296.936 118.424C297.115 118.596 297.205 118.842 297.205 119.162C297.205 119.471 297.115 119.715 296.936 119.895C296.756 120.07 296.506 120.158 296.186 120.158C295.857 120.158 295.604 120.072 295.424 119.9C295.244 119.725 295.154 119.479 295.154 119.162ZM295.154 114.322C295.154 113.994 295.242 113.746 295.418 113.578C295.594 113.41 295.85 113.326 296.186 113.326C296.51 113.326 296.76 113.412 296.936 113.584C297.115 113.756 297.205 114.002 297.205 114.322C297.205 114.639 297.113 114.885 296.93 115.061C296.75 115.232 296.502 115.318 296.186 115.318C295.857 115.318 295.604 115.232 295.424 115.061C295.244 114.889 295.154 114.643 295.154 114.322ZM305.004 120H304.43V113.76C304.43 113.193 304.453 112.605 304.5 111.996C304.441 112.055 304.381 112.111 304.318 112.166C304.256 112.221 303.652 112.695 302.508 113.59L302.174 113.174L304.5 111.434H305.004V120ZM314.045 115.693C314.045 117.197 313.814 118.311 313.354 119.033C312.896 119.756 312.203 120.117 311.273 120.117C310.379 120.117 309.699 119.746 309.234 119.004C308.77 118.258 308.537 117.154 308.537 115.693C308.537 114.201 308.762 113.096 309.211 112.377C309.664 111.658 310.352 111.299 311.273 111.299C312.176 111.299 312.863 111.672 313.336 112.418C313.809 113.16 314.045 114.252 314.045 115.693ZM309.17 115.693C309.17 117.021 309.344 118.004 309.691 118.641C310.039 119.273 310.566 119.59 311.273 119.59C312.012 119.59 312.549 119.262 312.885 118.605C313.225 117.949 313.395 116.979 313.395 115.693C313.395 114.428 313.225 113.467 312.885 112.811C312.549 112.154 312.012 111.826 311.273 111.826C310.535 111.826 310 112.154 309.668 112.811C309.336 113.467 309.17 114.428 309.17 115.693ZM315.668 119.543C315.668 119.16 315.824 118.969 316.137 118.969C316.457 118.969 316.617 119.16 316.617 119.543C316.617 119.926 316.457 120.117 316.137 120.117C315.824 120.117 315.668 119.926 315.668 119.543ZM323.314 113.449C323.314 113.98 323.146 114.428 322.811 114.791C322.479 115.154 322.031 115.387 321.469 115.488V115.523C322.156 115.609 322.68 115.828 323.039 116.18C323.398 116.531 323.578 117.004 323.578 117.598C323.578 118.398 323.305 119.02 322.758 119.461C322.215 119.898 321.432 120.117 320.408 120.117C319.537 120.117 318.777 119.955 318.129 119.631V119.051C318.457 119.223 318.824 119.357 319.23 119.455C319.641 119.553 320.025 119.602 320.385 119.602C321.248 119.602 321.896 119.428 322.33 119.08C322.764 118.729 322.98 118.234 322.98 117.598C322.98 117.031 322.758 116.596 322.312 116.291C321.871 115.986 321.221 115.834 320.361 115.834H319.436V115.271H320.373C321.084 115.271 321.646 115.104 322.061 114.768C322.479 114.428 322.688 113.969 322.688 113.391C322.688 112.914 322.518 112.533 322.178 112.248C321.842 111.959 321.4 111.814 320.854 111.814C320.428 111.814 320.039 111.875 319.688 111.996C319.336 112.113 318.941 112.316 318.504 112.605L318.217 112.213C318.549 111.936 318.949 111.717 319.418 111.557C319.887 111.393 320.361 111.311 320.842 111.311C321.631 111.311 322.24 111.498 322.67 111.873C323.1 112.244 323.314 112.77 323.314 113.449ZM327.844 111.287C328.57 111.287 329.154 111.473 329.596 111.844C330.041 112.215 330.264 112.717 330.264 113.35C330.264 113.787 330.125 114.174 329.848 114.51C329.574 114.846 329.129 115.156 328.512 115.441C329.262 115.75 329.789 116.088 330.094 116.455C330.398 116.822 330.551 117.268 330.551 117.791C330.551 118.498 330.303 119.062 329.807 119.484C329.314 119.906 328.652 120.117 327.82 120.117C326.957 120.117 326.295 119.92 325.834 119.525C325.373 119.131 325.143 118.557 325.143 117.803C325.143 117.291 325.305 116.842 325.629 116.455C325.953 116.068 326.455 115.738 327.135 115.465C326.506 115.168 326.062 114.855 325.805 114.527C325.547 114.195 325.418 113.799 325.418 113.338C325.418 112.928 325.521 112.568 325.729 112.26C325.936 111.947 326.225 111.707 326.596 111.539C326.971 111.371 327.387 111.287 327.844 111.287ZM325.74 117.891C325.74 118.43 325.922 118.848 326.285 119.145C326.652 119.441 327.164 119.59 327.82 119.59C328.461 119.59 328.977 119.434 329.367 119.121C329.758 118.805 329.953 118.377 329.953 117.838C329.953 117.354 329.799 116.961 329.49 116.66C329.186 116.355 328.596 116.037 327.721 115.705C327.002 115.982 326.492 116.289 326.191 116.625C325.891 116.961 325.74 117.383 325.74 117.891ZM327.832 111.814C327.281 111.814 326.838 111.951 326.502 112.225C326.17 112.494 326.004 112.865 326.004 113.338C326.004 113.611 326.064 113.854 326.186 114.064C326.311 114.271 326.488 114.461 326.719 114.633C326.953 114.801 327.344 114.998 327.891 115.225C328.527 114.979 328.984 114.707 329.262 114.41C329.539 114.113 329.678 113.756 329.678 113.338C329.678 112.869 329.512 112.498 329.18 112.225C328.852 111.951 328.402 111.814 327.832 111.814ZM336.27 120L333.076 112.09H333.029C333.061 112.574 333.076 113.07 333.076 113.578V120H332.502V111.434H333.428L336.463 118.969H336.498L339.533 111.434H340.436V120H339.832V113.508C339.832 113.055 339.855 112.586 339.902 112.102H339.855L336.65 120H336.27ZM345.305 117V116.52H348.088V117H345.305ZM355.746 120H355.172V113.76C355.172 113.193 355.195 112.605 355.242 111.996C355.184 112.055 355.123 112.111 355.061 112.166C354.998 112.221 354.395 112.695 353.25 113.59L352.916 113.174L355.242 111.434H355.746V120ZM359.373 116.35C359.373 115.236 359.523 114.301 359.824 113.543C360.129 112.781 360.559 112.217 361.113 111.85C361.672 111.482 362.344 111.299 363.129 111.299C363.496 111.299 363.832 111.344 364.137 111.434V111.949C363.852 111.844 363.508 111.791 363.105 111.791C362.141 111.791 361.389 112.139 360.85 112.834C360.314 113.529 360.014 114.541 359.947 115.869H360.023C360.32 115.486 360.66 115.197 361.043 115.002C361.426 114.807 361.83 114.709 362.256 114.709C363.057 114.709 363.682 114.938 364.131 115.395C364.584 115.852 364.811 116.482 364.811 117.287C364.811 118.162 364.572 118.854 364.096 119.361C363.623 119.865 362.984 120.117 362.18 120.117C361.312 120.117 360.627 119.787 360.123 119.127C359.623 118.463 359.373 117.537 359.373 116.35ZM362.18 119.602C362.82 119.602 363.318 119.4 363.674 118.998C364.029 118.596 364.207 118.021 364.207 117.275C364.207 116.619 364.031 116.107 363.68 115.74C363.328 115.373 362.85 115.189 362.244 115.189C361.846 115.189 361.475 115.277 361.131 115.453C360.791 115.629 360.52 115.863 360.316 116.156C360.113 116.445 360.012 116.742 360.012 117.047C360.012 117.48 360.107 117.898 360.299 118.301C360.494 118.699 360.756 119.016 361.084 119.25C361.416 119.484 361.781 119.602 362.18 119.602ZM366.41 119.543C366.41 119.16 366.566 118.969 366.879 118.969C367.199 118.969 367.359 119.16 367.359 119.543C367.359 119.926 367.199 120.117 366.879 120.117C366.566 120.117 366.41 119.926 366.41 119.543ZM371.467 114.85C372.381 114.85 373.1 115.07 373.623 115.512C374.15 115.953 374.414 116.561 374.414 117.334C374.414 118.213 374.141 118.896 373.594 119.385C373.047 119.873 372.293 120.117 371.332 120.117C370.906 120.117 370.502 120.076 370.119 119.994C369.736 119.908 369.416 119.787 369.158 119.631V119.027C369.58 119.242 369.955 119.393 370.283 119.479C370.611 119.561 370.961 119.602 371.332 119.602C372.082 119.602 372.684 119.404 373.137 119.01C373.59 118.611 373.816 118.074 373.816 117.398C373.816 116.762 373.596 116.262 373.154 115.898C372.713 115.535 372.113 115.354 371.355 115.354C370.848 115.354 370.316 115.43 369.762 115.582L369.41 115.354L369.75 111.434H373.875V111.996H370.301L370.037 115.02C370.646 114.906 371.123 114.85 371.467 114.85ZM376.412 113.988C376.412 114.715 376.5 115.262 376.676 115.629C376.852 115.992 377.127 116.174 377.502 116.174C378.256 116.174 378.633 115.445 378.633 113.988C378.633 113.27 378.535 112.73 378.34 112.371C378.148 112.008 377.869 111.826 377.502 111.826C377.127 111.826 376.852 112.008 376.676 112.371C376.5 112.73 376.412 113.27 376.412 113.988ZM379.207 113.988C379.207 114.871 379.061 115.543 378.768 116.004C378.475 116.461 378.053 116.689 377.502 116.689C376.982 116.689 376.574 116.455 376.277 115.986C375.984 115.514 375.838 114.848 375.838 113.988C375.838 113.117 375.979 112.453 376.26 111.996C376.541 111.539 376.955 111.311 377.502 111.311C378.045 111.311 378.465 111.547 378.762 112.02C379.059 112.488 379.207 113.145 379.207 113.988ZM381.404 117.434C381.404 118.156 381.492 118.699 381.668 119.062C381.844 119.422 382.119 119.602 382.494 119.602C383.248 119.602 383.625 118.879 383.625 117.434C383.625 115.992 383.248 115.271 382.494 115.271C382.119 115.271 381.844 115.451 381.668 115.811C381.492 116.166 381.404 116.707 381.404 117.434ZM384.199 117.434C384.199 118.316 384.055 118.988 383.766 119.449C383.477 119.906 383.057 120.135 382.506 120.135C381.975 120.135 381.562 119.898 381.27 119.426C380.977 118.949 380.83 118.285 380.83 117.434C380.83 116.555 380.973 115.889 381.258 115.436C381.547 114.982 381.963 114.756 382.506 114.756C383.041 114.756 383.457 114.99 383.754 115.459C384.051 115.928 384.199 116.586 384.199 117.434ZM382.676 111.434L377.924 120H377.361L382.113 111.434H382.676Z" fill="white"/>
<path d="M201.322 141L200.701 138.961H197.578L196.957 141H195L198.023 132.398H200.244L203.279 141H201.322ZM200.268 137.438C199.693 135.59 199.369 134.545 199.295 134.303C199.225 134.061 199.174 133.869 199.143 133.729C199.014 134.229 198.645 135.465 198.035 137.438H200.268ZM207.615 136.189H211.014V140.631C210.463 140.811 209.943 140.936 209.455 141.006C208.971 141.08 208.475 141.117 207.967 141.117C206.674 141.117 205.686 140.738 205.002 139.98C204.322 139.219 203.982 138.127 203.982 136.705C203.982 135.322 204.377 134.244 205.166 133.471C205.959 132.697 207.057 132.311 208.459 132.311C209.338 132.311 210.186 132.486 211.002 132.838L210.398 134.291C209.773 133.979 209.123 133.822 208.447 133.822C207.662 133.822 207.033 134.086 206.561 134.613C206.088 135.141 205.852 135.85 205.852 136.74C205.852 137.67 206.041 138.381 206.42 138.873C206.803 139.361 207.357 139.605 208.084 139.605C208.463 139.605 208.848 139.566 209.238 139.488V137.701H207.615V136.189ZM219.48 141H217.664V133.945H215.338V132.434H221.807V133.945H219.48V141ZM225.697 135.598C225.318 135.598 225.021 135.719 224.807 135.961C224.592 136.199 224.469 136.539 224.438 136.98H226.945C226.938 136.539 226.822 136.199 226.6 135.961C226.377 135.719 226.076 135.598 225.697 135.598ZM225.949 141.117C224.895 141.117 224.07 140.826 223.477 140.244C222.883 139.662 222.586 138.838 222.586 137.771C222.586 136.674 222.859 135.826 223.406 135.229C223.957 134.627 224.717 134.326 225.686 134.326C226.611 134.326 227.332 134.59 227.848 135.117C228.363 135.645 228.621 136.373 228.621 137.303V138.17H224.396C224.416 138.678 224.566 139.074 224.848 139.359C225.129 139.645 225.523 139.787 226.031 139.787C226.426 139.787 226.799 139.746 227.15 139.664C227.502 139.582 227.869 139.451 228.252 139.271V140.654C227.939 140.811 227.605 140.926 227.25 141C226.895 141.078 226.461 141.117 225.949 141.117ZM234.234 141L233.889 140.109H233.842C233.541 140.488 233.23 140.752 232.91 140.9C232.594 141.045 232.18 141.117 231.668 141.117C231.039 141.117 230.543 140.938 230.18 140.578C229.82 140.219 229.641 139.707 229.641 139.043C229.641 138.348 229.883 137.836 230.367 137.508C230.855 137.176 231.59 136.992 232.57 136.957L233.707 136.922V136.635C233.707 135.971 233.367 135.639 232.688 135.639C232.164 135.639 231.549 135.797 230.842 136.113L230.25 134.906C231.004 134.512 231.84 134.314 232.758 134.314C233.637 134.314 234.311 134.506 234.779 134.889C235.248 135.271 235.482 135.854 235.482 136.635V141H234.234ZM233.707 137.965L233.016 137.988C232.496 138.004 232.109 138.098 231.855 138.27C231.602 138.441 231.475 138.703 231.475 139.055C231.475 139.559 231.764 139.811 232.342 139.811C232.756 139.811 233.086 139.691 233.332 139.453C233.582 139.215 233.707 138.898 233.707 138.504V137.965ZM243.193 141H241.406V137.174C241.406 136.701 241.326 136.348 241.166 136.113C241.01 135.875 240.762 135.756 240.422 135.756C239.965 135.756 239.633 135.924 239.426 136.26C239.219 136.596 239.115 137.148 239.115 137.918V141H237.328V134.449H238.693L238.934 135.287H239.033C239.209 134.986 239.463 134.752 239.795 134.584C240.127 134.412 240.508 134.326 240.938 134.326C241.918 134.326 242.582 134.646 242.93 135.287H243.088C243.264 134.982 243.521 134.746 243.861 134.578C244.205 134.41 244.592 134.326 245.021 134.326C245.764 134.326 246.324 134.518 246.703 134.9C247.086 135.279 247.277 135.889 247.277 136.729V141H245.484V137.174C245.484 136.701 245.404 136.348 245.244 136.113C245.088 135.875 244.84 135.756 244.5 135.756C244.062 135.756 243.734 135.912 243.516 136.225C243.301 136.537 243.193 137.033 243.193 137.713V141ZM248.865 140.162C248.865 139.834 248.953 139.586 249.129 139.418C249.305 139.25 249.561 139.166 249.896 139.166C250.221 139.166 250.471 139.252 250.646 139.424C250.826 139.596 250.916 139.842 250.916 140.162C250.916 140.471 250.826 140.715 250.646 140.895C250.467 141.07 250.217 141.158 249.896 141.158C249.568 141.158 249.314 141.072 249.135 140.9C248.955 140.725 248.865 140.479 248.865 140.162ZM248.865 135.322C248.865 134.994 248.953 134.746 249.129 134.578C249.305 134.41 249.561 134.326 249.896 134.326C250.221 134.326 250.471 134.412 250.646 134.584C250.826 134.756 250.916 135.002 250.916 135.322C250.916 135.639 250.824 135.885 250.641 136.061C250.461 136.232 250.213 136.318 249.896 136.318C249.568 136.318 249.314 136.232 249.135 136.061C248.955 135.889 248.865 135.643 248.865 135.322ZM260.742 141H255.381V140.484L257.66 138.105C258.301 137.441 258.75 136.934 259.008 136.582C259.266 136.23 259.455 135.895 259.576 135.574C259.697 135.254 259.758 134.918 259.758 134.566C259.758 134.055 259.59 133.639 259.254 133.318C258.918 132.998 258.482 132.838 257.947 132.838C257.232 132.838 256.549 133.098 255.896 133.617L255.58 133.213C256.295 132.611 257.088 132.311 257.959 132.311C258.705 132.311 259.291 132.51 259.717 132.908C260.146 133.307 260.361 133.855 260.361 134.555C260.361 135.121 260.217 135.67 259.928 136.201C259.643 136.729 259.119 137.381 258.357 138.158L256.16 140.414V140.438H260.742V141ZM262.523 140.543C262.523 140.16 262.68 139.969 262.992 139.969C263.312 139.969 263.473 140.16 263.473 140.543C263.473 140.926 263.312 141.117 262.992 141.117C262.68 141.117 262.523 140.926 262.523 140.543ZM267.58 135.85C268.494 135.85 269.213 136.07 269.736 136.512C270.264 136.953 270.527 137.561 270.527 138.334C270.527 139.213 270.254 139.896 269.707 140.385C269.16 140.873 268.406 141.117 267.445 141.117C267.02 141.117 266.615 141.076 266.232 140.994C265.85 140.908 265.529 140.787 265.271 140.631V140.027C265.693 140.242 266.068 140.393 266.396 140.479C266.725 140.561 267.074 140.602 267.445 140.602C268.195 140.602 268.797 140.404 269.25 140.01C269.703 139.611 269.93 139.074 269.93 138.398C269.93 137.762 269.709 137.262 269.268 136.898C268.826 136.535 268.227 136.354 267.469 136.354C266.961 136.354 266.43 136.43 265.875 136.582L265.523 136.354L265.863 132.434H269.988V132.996H266.414L266.15 136.02C266.76 135.906 267.236 135.85 267.58 135.85ZM276.27 141L273.076 133.09H273.029C273.061 133.574 273.076 134.07 273.076 134.578V141H272.502V132.434H273.428L276.463 139.969H276.498L279.533 132.434H280.436V141H279.832V134.508C279.832 134.055 279.855 133.586 279.902 133.102H279.855L276.65 141H276.27ZM285.305 138V137.52H288.088V138H285.305ZM298.436 138.814H296.959V141H296.408V138.814H292.002V138.422L296.25 132.387H296.959V138.311H298.436V138.814ZM296.408 138.311V135.861C296.408 134.682 296.436 133.691 296.49 132.891H296.443C296.365 133.035 296.125 133.402 295.723 133.992L292.699 138.311H296.408ZM299.555 140.543C299.555 140.16 299.711 139.969 300.023 139.969C300.344 139.969 300.504 140.16 300.504 140.543C300.504 140.926 300.344 141.117 300.023 141.117C299.711 141.117 299.555 140.926 299.555 140.543ZM307.646 136.693C307.646 138.197 307.416 139.311 306.955 140.033C306.498 140.756 305.805 141.117 304.875 141.117C303.98 141.117 303.301 140.746 302.836 140.004C302.371 139.258 302.139 138.154 302.139 136.693C302.139 135.201 302.363 134.096 302.812 133.377C303.266 132.658 303.953 132.299 304.875 132.299C305.777 132.299 306.465 132.672 306.938 133.418C307.41 134.16 307.646 135.252 307.646 136.693ZM302.771 136.693C302.771 138.021 302.945 139.004 303.293 139.641C303.641 140.273 304.168 140.59 304.875 140.59C305.613 140.59 306.15 140.262 306.486 139.605C306.826 138.949 306.996 137.979 306.996 136.693C306.996 135.428 306.826 134.467 306.486 133.811C306.15 133.154 305.613 132.826 304.875 132.826C304.137 132.826 303.602 133.154 303.27 133.811C302.938 134.467 302.771 135.428 302.771 136.693ZM309.557 134.988C309.557 135.715 309.645 136.262 309.82 136.629C309.996 136.992 310.271 137.174 310.646 137.174C311.4 137.174 311.777 136.445 311.777 134.988C311.777 134.27 311.68 133.73 311.484 133.371C311.293 133.008 311.014 132.826 310.646 132.826C310.271 132.826 309.996 133.008 309.82 133.371C309.645 133.73 309.557 134.27 309.557 134.988ZM312.352 134.988C312.352 135.871 312.205 136.543 311.912 137.004C311.619 137.461 311.197 137.689 310.646 137.689C310.127 137.689 309.719 137.455 309.422 136.986C309.129 136.514 308.982 135.848 308.982 134.988C308.982 134.117 309.123 133.453 309.404 132.996C309.686 132.539 310.1 132.311 310.646 132.311C311.189 132.311 311.609 132.547 311.906 133.02C312.203 133.488 312.352 134.145 312.352 134.988ZM314.549 138.434C314.549 139.156 314.637 139.699 314.812 140.062C314.988 140.422 315.264 140.602 315.639 140.602C316.393 140.602 316.77 139.879 316.77 138.434C316.77 136.992 316.393 136.271 315.639 136.271C315.264 136.271 314.988 136.451 314.812 136.811C314.637 137.166 314.549 137.707 314.549 138.434ZM317.344 138.434C317.344 139.316 317.199 139.988 316.91 140.449C316.621 140.906 316.201 141.135 315.65 141.135C315.119 141.135 314.707 140.898 314.414 140.426C314.121 139.949 313.975 139.285 313.975 138.434C313.975 137.555 314.117 136.889 314.402 136.436C314.691 135.982 315.107 135.756 315.65 135.756C316.186 135.756 316.602 135.99 316.898 136.459C317.195 136.928 317.344 137.586 317.344 138.434ZM315.82 132.434L311.068 141H310.506L315.258 132.434H315.82Z" fill="white"/>
<path d="M79.9839 2C93.36 1.99728 106.523 5.34855 118.27 11.7473L80.0002 82L79.9839 2Z" fill="url(#paint6_linear)"/>
<path d="M118.34 11.7856C133.07 19.8289 144.898 32.3011 152.148 47.4371C159.399 62.5731 161.706 79.6061 158.743 96.1256C155.78 112.645 147.696 127.814 135.636 139.486C123.576 151.158 108.151 158.741 91.5433 161.163L80 82L118.34 11.7856Z" fill="url(#paint7_linear)"/>
<path d="M91.464 161.174C71.4625 164.07 51.1061 159.289 34.4856 147.791C17.8651 136.293 6.21235 118.93 1.86914 99.1922L79.9999 82L91.464 161.174Z" fill="url(#paint8_linear)"/>
<path d="M1.85202 99.1141C-1.00369 86.0741 -0.550942 72.5268 3.16901 59.7065L80 82L1.85202 99.1141Z" fill="url(#paint9_linear)"/>
<path d="M3.19141 59.6296C7.07954 46.2797 14.3801 34.1736 24.3731 24.5052C34.3661 14.8368 46.7065 7.93993 60.1776 4.49463L80 81.9999L3.19141 59.6296Z" fill="url(#paint10_linear)"/>
<path d="M60.2549 4.47485C66.6718 2.8405 73.2669 2.0092 79.8887 2L79.9998 81.9999L60.2549 4.47485Z" fill="url(#paint11_linear)"/>
<circle cx="79.8441" cy="78.8441" r="46.8441" fill="#1D1D1B"/>
<defs>
<filter id="filter0_d" x="140" y="0" width="70" height="64" filterUnits="userSpaceOnUse" color-interpolation-filters="sRGB">
<feFlood flood-opacity="0" result="BackgroundImageFix"/>
<feColorMatrix in="SourceAlpha" type="matrix" values="0 0 0 0 0 0 0 0 0 0 0 0 0 0 0 0 0 0 127 0"/>
<feOffset/>
<feGaussianBlur stdDeviation="15"/>
<feColorMatrix type="matrix" values="0 0 0 0 0 0 0 0 0 0 0 0 0 0 0 0 0 0 1 0"/>
<feBlend mode="normal" in2="BackgroundImageFix" result="effect1_dropShadow"/>
<feBlend mode="normal" in="SourceGraphic" in2="effect1_dropShadow" result="shape"/>
</filter>
<filter id="filter1_d" x="140" y="42" width="70" height="64" filterUnits="userSpaceOnUse" color-interpolation-filters="sRGB">
<feFlood flood-opacity="0" result="BackgroundImageFix"/>
<feColorMatrix in="SourceAlpha" type="matrix" values="0 0 0 0 0 0 0 0 0 0 0 0 0 0 0 0 0 0 127 0"/>
<feOffset/>
<feGaussianBlur stdDeviation="15"/>
<feColorMatrix type="matrix" values="0 0 0 0 0 0 0 0 0 0 0 0 0 0 0 0 0 0 1 0"/>
<feBlend mode="normal" in2="BackgroundImageFix" result="effect1_dropShadow"/>
<feBlend mode="normal" in="SourceGraphic" in2="effect1_dropShadow" result="shape"/>
</filter>
<filter id="filter2_d" x="140" y="64" width="70" height="64" filterUnits="userSpaceOnUse" color-interpolation-filters="sRGB">
<feFlood flood-opacity="0" result="BackgroundImageFix"/>
<feColorMatrix in="SourceAlpha" type="matrix" values="0 0 0 0 0 0 0 0 0 0 0 0 0 0 0 0 0 0 127 0"/>
<feOffset/>
<feGaussianBlur stdDeviation="15"/>
<feColorMatrix type="matrix" values="0 0 0 0 0 0 0 0 0 0 0 0 0 0 0 0 0 0 1 0"/>
<feBlend mode="normal" in2="BackgroundImageFix" result="effect1_dropShadow"/>
<feBlend mode="normal" in="SourceGraphic" in2="effect1_dropShadow" result="shape"/>
</filter>
<filter id="filter3_d" x="140" y="105" width="70" height="64" filterUnits="userSpaceOnUse" color-interpolation-filters="sRGB">
<feFlood flood-opacity="0" result="BackgroundImageFix"/>
<feColorMatrix in="SourceAlpha" type="matrix" values="0 0 0 0 0 0 0 0 0 0 0 0 0 0 0 0 0 0 127 0"/>
<feOffset/>
<feGaussianBlur stdDeviation="15"/>
<feColorMatrix type="matrix" values="0 0 0 0 0 0 0 0 0 0 0 0 0 0 0 0 0 0 1 0"/>
<feBlend mode="normal" in2="BackgroundImageFix" result="effect1_dropShadow"/>
<feBlend mode="normal" in="SourceGraphic" in2="effect1_dropShadow" result="shape"/>
</filter>
<linearGradient id="paint0_linear" x1="170" y1="34" x2="180" y2="34" gradientUnits="userSpaceOnUse">
<stop stop-color="#65A6F2"/>
<stop offset="1" stop-color="#22BBDD"/>
</linearGradient>
<linearGradient id="paint1_linear" x1="180" y1="55" x2="170" y2="55" gradientUnits="userSpaceOnUse">
<stop stop-color="#E01E73"/>
<stop offset="1" stop-color="#FF7272"/>
</linearGradient>
<linearGradient id="paint2_linear" x1="180" y1="76" x2="170" y2="76" gradientUnits="userSpaceOnUse">
<stop stop-color="#FF9D0A"/>
<stop offset="1" stop-color="#FEFFC7"/>
</linearGradient>
<linearGradient id="paint3_linear" x1="170" y1="98" x2="180" y2="98" gradientUnits="userSpaceOnUse">
<stop stop-color="#B4FABD"/>
<stop offset="1" stop-color="#22DD9A"/>
</linearGradient>
<linearGradient id="paint4_linear" x1="180" y1="119" x2="170" y2="119" gradientUnits="userSpaceOnUse">
<stop stop-color="#C41005"/>
<stop offset="1" stop-color="#DD5E16"/>
</linearGradient>
<linearGradient id="paint5_linear" x1="170" y1="139" x2="180" y2="139" gradientUnits="userSpaceOnUse">
<stop stop-color="#FA1DBC"/>
<stop offset="1" stop-color="#A122DD"/>
</linearGradient>
<linearGradient id="paint6_linear" x1="79.9839" y1="41.3442" x2="120.153" y2="41.3442" gradientUnits="userSpaceOnUse">
<stop stop-color="#65A6F2"/>
<stop offset="1" stop-color="#22BBDD"/>
</linearGradient>
<linearGradient id="paint7_linear" x1="80" y1="85.2498" x2="163.934" y2="85.2498" gradientUnits="userSpaceOnUse">
<stop stop-color="#FF7272"/>
<stop offset="1" stop-color="#E01E73"/>
</linearGradient>
<linearGradient id="paint8_linear" x1="1.86914" y1="121.344" x2="95.8703" y2="121.344" gradientUnits="userSpaceOnUse">
<stop stop-color="#FEFFC7"/>
<stop offset="1" stop-color="#FF9D0A"/>
</linearGradient>
<linearGradient id="paint9_linear" x1="1.98028e-07" y1="79.0873" x2="83.9344" y2="79.0873" gradientUnits="userSpaceOnUse">
<stop stop-color="#B4FABD"/>
<stop offset="1" stop-color="#22DD9A"/>
</linearGradient>
<linearGradient id="paint10_linear" x1="3.19141" y1="42.612" x2="83.7775" y2="42.612" gradientUnits="userSpaceOnUse">
<stop stop-color="#C31005"/>
<stop offset="1" stop-color="#DD5E16"/>
</linearGradient>
<linearGradient id="paint11_linear" x1="70.1274" y1="2" x2="70.1274" y2="81.9999" gradientUnits="userSpaceOnUse">
<stop stop-color="#FA1DBC"/>
<stop offset="1" stop-color="#A122DD"/>
</linearGradient>
</defs>
</svg>
