<svg width="385" height="169" viewBox="0 0 385 169" fill="none" xmlns="http://www.w3.org/2000/svg">
<g filter="url(#filter0_d)">
<line x1="172" y1="32" x2="178" y2="32" stroke="url(#paint0_linear)" stroke-width="4" stroke-linecap="round"/>
</g>
<line x1="172" y1="53" x2="178" y2="53" stroke="url(#paint1_linear)" stroke-width="4" stroke-linecap="round"/>
<g filter="url(#filter1_d)">
<line x1="172" y1="74" x2="178" y2="74" stroke="url(#paint2_linear)" stroke-width="4" stroke-linecap="round" stroke-linejoin="round"/>
</g>
<g filter="url(#filter2_d)">
<line x1="172" y1="96" x2="178" y2="96" stroke="url(#paint3_linear)" stroke-width="4" stroke-linecap="round"/>
</g>
<line x1="172" y1="117" x2="178" y2="117" stroke="url(#paint4_linear)" stroke-width="4" stroke-linecap="round"/>
<g filter="url(#filter3_d)">
<line x1="172" y1="137" x2="178" y2="137" stroke="url(#paint5_linear)" stroke-width="4" stroke-linecap="round"/>
</g>
<path d="M197.895 31.4648H198.492C199.051 31.4648 199.469 31.3555 199.746 31.1367C200.023 30.9141 200.162 30.5918 200.162 30.1699C200.162 29.7441 200.045 29.4297 199.811 29.2266C199.58 29.0234 199.217 28.9219 198.721 28.9219H197.895V31.4648ZM201.996 30.1055C201.996 31.0273 201.707 31.7324 201.129 32.2207C200.555 32.709 199.736 32.9531 198.674 32.9531H197.895V36H196.078V27.4336H198.814C199.854 27.4336 200.643 27.6582 201.182 28.1074C201.725 28.5527 201.996 29.2188 201.996 30.1055ZM207.129 29.3262C207.371 29.3262 207.572 29.3438 207.732 29.3789L207.598 31.0547C207.453 31.0156 207.277 30.9961 207.07 30.9961C206.5 30.9961 206.055 31.1426 205.734 31.4355C205.418 31.7285 205.26 32.1387 205.26 32.666V36H203.473V29.4492H204.826L205.09 30.5508H205.178C205.381 30.1836 205.654 29.8887 205.998 29.666C206.346 29.4395 206.723 29.3262 207.129 29.3262ZM211.635 30.5977C211.256 30.5977 210.959 30.7188 210.744 30.9609C210.529 31.1992 210.406 31.5391 210.375 31.9805H212.883C212.875 31.5391 212.76 31.1992 212.537 30.9609C212.314 30.7188 212.014 30.5977 211.635 30.5977ZM211.887 36.1172C210.832 36.1172 210.008 35.8262 209.414 35.2441C208.82 34.6621 208.523 33.8379 208.523 32.7715C208.523 31.6738 208.797 30.8262 209.344 30.2285C209.895 29.627 210.654 29.3262 211.623 29.3262C212.549 29.3262 213.27 29.5898 213.785 30.1172C214.301 30.6445 214.559 31.373 214.559 32.3027V33.1699H210.334C210.354 33.6777 210.504 34.0742 210.785 34.3594C211.066 34.6445 211.461 34.7871 211.969 34.7871C212.363 34.7871 212.736 34.7461 213.088 34.6641C213.439 34.582 213.807 34.4512 214.189 34.2715V35.6543C213.877 35.8105 213.543 35.9258 213.188 36C212.832 36.0781 212.398 36.1172 211.887 36.1172ZM220.582 34.0547C220.582 34.7266 220.348 35.2383 219.879 35.5898C219.414 35.9414 218.717 36.1172 217.787 36.1172C217.311 36.1172 216.904 36.084 216.568 36.0176C216.232 35.9551 215.918 35.8613 215.625 35.7363V34.2598C215.957 34.416 216.33 34.5469 216.744 34.6523C217.162 34.7578 217.529 34.8105 217.846 34.8105C218.494 34.8105 218.818 34.623 218.818 34.248C218.818 34.1074 218.775 33.9941 218.689 33.9082C218.604 33.8184 218.455 33.7188 218.244 33.6094C218.033 33.4961 217.752 33.3652 217.4 33.2168C216.896 33.0059 216.525 32.8105 216.287 32.6309C216.053 32.4512 215.881 32.2461 215.771 32.0156C215.666 31.7812 215.613 31.4941 215.613 31.1543C215.613 30.5723 215.838 30.123 216.287 29.8066C216.74 29.4863 217.381 29.3262 218.209 29.3262C218.998 29.3262 219.766 29.498 220.512 29.8418L219.973 31.1309C219.645 30.9902 219.338 30.875 219.053 30.7852C218.768 30.6953 218.477 30.6504 218.18 30.6504C217.652 30.6504 217.389 30.793 217.389 31.0781C217.389 31.2383 217.473 31.377 217.641 31.4941C217.812 31.6113 218.186 31.7852 218.76 32.0156C219.271 32.2227 219.646 32.416 219.885 32.5957C220.123 32.7754 220.299 32.9824 220.412 33.2168C220.525 33.4512 220.582 33.7305 220.582 34.0547ZM226.137 36L225.791 35.1094H225.744C225.443 35.4883 225.133 35.752 224.812 35.9004C224.496 36.0449 224.082 36.1172 223.57 36.1172C222.941 36.1172 222.445 35.9375 222.082 35.5781C221.723 35.2188 221.543 34.707 221.543 34.043C221.543 33.3477 221.785 32.8359 222.27 32.5078C222.758 32.1758 223.492 31.9922 224.473 31.957L225.609 31.9219V31.6348C225.609 30.9707 225.27 30.6387 224.59 30.6387C224.066 30.6387 223.451 30.7969 222.744 31.1133L222.152 29.9062C222.906 29.5117 223.742 29.3145 224.66 29.3145C225.539 29.3145 226.213 29.5059 226.682 29.8887C227.15 30.2715 227.385 30.8535 227.385 31.6348V36H226.137ZM225.609 32.9648L224.918 32.9883C224.398 33.0039 224.012 33.0977 223.758 33.2695C223.504 33.4414 223.377 33.7031 223.377 34.0547C223.377 34.5586 223.666 34.8105 224.244 34.8105C224.658 34.8105 224.988 34.6914 225.234 34.4531C225.484 34.2148 225.609 33.8984 225.609 33.5039V32.9648ZM231.018 36H229.23V26.8828H231.018V36ZM235.611 30.5977C235.232 30.5977 234.936 30.7188 234.721 30.9609C234.506 31.1992 234.383 31.5391 234.352 31.9805H236.859C236.852 31.5391 236.736 31.1992 236.514 30.9609C236.291 30.7188 235.99 30.5977 235.611 30.5977ZM235.863 36.1172C234.809 36.1172 233.984 35.8262 233.391 35.2441C232.797 34.6621 232.5 33.8379 232.5 32.7715C232.5 31.6738 232.773 30.8262 233.32 30.2285C233.871 29.627 234.631 29.3262 235.6 29.3262C236.525 29.3262 237.246 29.5898 237.762 30.1172C238.277 30.6445 238.535 31.373 238.535 32.3027V33.1699H234.311C234.33 33.6777 234.48 34.0742 234.762 34.3594C235.043 34.6445 235.438 34.7871 235.945 34.7871C236.34 34.7871 236.713 34.7461 237.064 34.6641C237.416 34.582 237.783 34.4512 238.166 34.2715V35.6543C237.854 35.8105 237.52 35.9258 237.164 36C236.809 36.0781 236.375 36.1172 235.863 36.1172ZM239.736 35.1621C239.736 34.834 239.824 34.5859 240 34.418C240.176 34.25 240.432 34.166 240.768 34.166C241.092 34.166 241.342 34.252 241.518 34.4238C241.697 34.5957 241.787 34.8418 241.787 35.1621C241.787 35.4707 241.697 35.7148 241.518 35.8945C241.338 36.0703 241.088 36.1582 240.768 36.1582C240.439 36.1582 240.186 36.0723 240.006 35.9004C239.826 35.7246 239.736 35.4785 239.736 35.1621ZM239.736 30.3223C239.736 29.9941 239.824 29.7461 240 29.5781C240.176 29.4102 240.432 29.3262 240.768 29.3262C241.092 29.3262 241.342 29.4121 241.518 29.584C241.697 29.7559 241.787 30.002 241.787 30.3223C241.787 30.6387 241.695 30.8848 241.512 31.0605C241.332 31.2324 241.084 31.3184 240.768 31.3184C240.439 31.3184 240.186 31.2324 240.006 31.0605C239.826 30.8887 239.736 30.6426 239.736 30.3223ZM248.736 30.8496C249.65 30.8496 250.369 31.0703 250.893 31.5117C251.42 31.9531 251.684 32.5605 251.684 33.334C251.684 34.2129 251.41 34.8965 250.863 35.3848C250.316 35.873 249.562 36.1172 248.602 36.1172C248.176 36.1172 247.771 36.0762 247.389 35.9941C247.006 35.9082 246.686 35.7871 246.428 35.6309V35.0273C246.85 35.2422 247.225 35.3926 247.553 35.4785C247.881 35.5605 248.23 35.6016 248.602 35.6016C249.352 35.6016 249.953 35.4043 250.406 35.0098C250.859 34.6113 251.086 34.0742 251.086 33.3984C251.086 32.7617 250.865 32.2617 250.424 31.8984C249.982 31.5352 249.383 31.3535 248.625 31.3535C248.117 31.3535 247.586 31.4297 247.031 31.582L246.68 31.3535L247.02 27.4336H251.145V27.9961H247.57L247.307 31.0195C247.916 30.9062 248.393 30.8496 248.736 30.8496ZM257.426 36L254.232 28.0898H254.186C254.217 28.5742 254.232 29.0703 254.232 29.5781V36H253.658V27.4336H254.584L257.619 34.9688H257.654L260.689 27.4336H261.592V36H260.988V29.5078C260.988 29.0547 261.012 28.5859 261.059 28.1016H261.012L257.807 36H257.426ZM266.461 33V32.5195H269.244V33H266.461ZM273.674 32.3496C273.674 31.2363 273.824 30.3008 274.125 29.543C274.43 28.7812 274.859 28.2168 275.414 27.8496C275.973 27.4824 276.645 27.2988 277.43 27.2988C277.797 27.2988 278.133 27.3438 278.438 27.4336V27.9492C278.152 27.8438 277.809 27.791 277.406 27.791C276.441 27.791 275.689 28.1387 275.15 28.834C274.615 29.5293 274.314 30.541 274.248 31.8691H274.324C274.621 31.4863 274.961 31.1973 275.344 31.002C275.727 30.8066 276.131 30.709 276.557 30.709C277.357 30.709 277.982 30.9375 278.432 31.3945C278.885 31.8516 279.111 32.4824 279.111 33.2871C279.111 34.1621 278.873 34.8535 278.396 35.3613C277.924 35.8652 277.285 36.1172 276.48 36.1172C275.613 36.1172 274.928 35.7871 274.424 35.127C273.924 34.4629 273.674 33.5371 273.674 32.3496ZM276.48 35.6016C277.121 35.6016 277.619 35.4004 277.975 34.998C278.33 34.5957 278.508 34.0215 278.508 33.2754C278.508 32.6191 278.332 32.1074 277.98 31.7402C277.629 31.373 277.15 31.1895 276.545 31.1895C276.146 31.1895 275.775 31.2773 275.432 31.4531C275.092 31.6289 274.82 31.8633 274.617 32.1562C274.414 32.4453 274.312 32.7422 274.312 33.0469C274.312 33.4805 274.408 33.8984 274.6 34.3008C274.795 34.6992 275.057 35.0156 275.385 35.25C275.717 35.4844 276.082 35.6016 276.48 35.6016ZM280.711 35.543C280.711 35.1602 280.867 34.9688 281.18 34.9688C281.5 34.9688 281.66 35.1602 281.66 35.543C281.66 35.9258 281.5 36.1172 281.18 36.1172C280.867 36.1172 280.711 35.9258 280.711 35.543ZM288.357 29.4492C288.357 29.9805 288.189 30.4277 287.854 30.791C287.521 31.1543 287.074 31.3867 286.512 31.4883V31.5234C287.199 31.6094 287.723 31.8281 288.082 32.1797C288.441 32.5312 288.621 33.0039 288.621 33.5977C288.621 34.3984 288.348 35.0195 287.801 35.4609C287.258 35.8984 286.475 36.1172 285.451 36.1172C284.58 36.1172 283.82 35.9551 283.172 35.6309V35.0508C283.5 35.2227 283.867 35.3574 284.273 35.4551C284.684 35.5527 285.068 35.6016 285.428 35.6016C286.291 35.6016 286.939 35.4277 287.373 35.0801C287.807 34.7285 288.023 34.2344 288.023 33.5977C288.023 33.0312 287.801 32.5957 287.355 32.291C286.914 31.9863 286.264 31.834 285.404 31.834H284.479V31.2715H285.416C286.127 31.2715 286.689 31.1035 287.104 30.7676C287.521 30.4277 287.73 29.9688 287.73 29.3906C287.73 28.9141 287.561 28.5332 287.221 28.248C286.885 27.959 286.443 27.8145 285.896 27.8145C285.471 27.8145 285.082 27.875 284.73 27.9961C284.379 28.1133 283.984 28.3164 283.547 28.6055L283.26 28.2129C283.592 27.9355 283.992 27.7168 284.461 27.5566C284.93 27.3926 285.404 27.3105 285.885 27.3105C286.674 27.3105 287.283 27.498 287.713 27.873C288.143 28.2441 288.357 28.7695 288.357 29.4492ZM290.713 29.9883C290.713 30.7148 290.801 31.2617 290.977 31.6289C291.152 31.9922 291.428 32.1738 291.803 32.1738C292.557 32.1738 292.934 31.4453 292.934 29.9883C292.934 29.2695 292.836 28.7305 292.641 28.3711C292.449 28.0078 292.17 27.8262 291.803 27.8262C291.428 27.8262 291.152 28.0078 290.977 28.3711C290.801 28.7305 290.713 29.2695 290.713 29.9883ZM293.508 29.9883C293.508 30.8711 293.361 31.543 293.068 32.0039C292.775 32.4609 292.354 32.6895 291.803 32.6895C291.283 32.6895 290.875 32.4551 290.578 31.9863C290.285 31.5137 290.139 30.8477 290.139 29.9883C290.139 29.1172 290.279 28.4531 290.561 27.9961C290.842 27.5391 291.256 27.3105 291.803 27.3105C292.346 27.3105 292.766 27.5469 293.062 28.0195C293.359 28.4883 293.508 29.1445 293.508 29.9883ZM295.705 33.4336C295.705 34.1562 295.793 34.6992 295.969 35.0625C296.145 35.4219 296.42 35.6016 296.795 35.6016C297.549 35.6016 297.926 34.8789 297.926 33.4336C297.926 31.9922 297.549 31.2715 296.795 31.2715C296.42 31.2715 296.145 31.4512 295.969 31.8105C295.793 32.166 295.705 32.707 295.705 33.4336ZM298.5 33.4336C298.5 34.3164 298.355 34.9883 298.066 35.4492C297.777 35.9062 297.357 36.1348 296.807 36.1348C296.275 36.1348 295.863 35.8984 295.57 35.4258C295.277 34.9492 295.131 34.2852 295.131 33.4336C295.131 32.5547 295.273 31.8887 295.559 31.4355C295.848 30.9824 296.264 30.7559 296.807 30.7559C297.342 30.7559 297.758 30.9902 298.055 31.459C298.352 31.9277 298.5 32.5859 298.5 33.4336ZM296.977 27.4336L292.225 36H291.662L296.414 27.4336H296.977Z" fill="white"/>
<path d="M197.895 52.4648H198.492C199.051 52.4648 199.469 52.3555 199.746 52.1367C200.023 51.9141 200.162 51.5918 200.162 51.1699C200.162 50.7441 200.045 50.4297 199.811 50.2266C199.58 50.0234 199.217 49.9219 198.721 49.9219H197.895V52.4648ZM201.996 51.1055C201.996 52.0273 201.707 52.7324 201.129 53.2207C200.555 53.709 199.736 53.9531 198.674 53.9531H197.895V57H196.078V48.4336H198.814C199.854 48.4336 200.643 48.6582 201.182 49.1074C201.725 49.5527 201.996 50.2188 201.996 51.1055ZM208.113 57L207.873 56.1621H207.779C207.588 56.4668 207.316 56.7031 206.965 56.8711C206.613 57.0352 206.213 57.1172 205.764 57.1172C204.994 57.1172 204.414 56.9121 204.023 56.502C203.633 56.0879 203.438 55.4941 203.438 54.7207V50.4492H205.225V54.2754C205.225 54.748 205.309 55.1035 205.477 55.3418C205.645 55.5762 205.912 55.6934 206.279 55.6934C206.779 55.6934 207.141 55.5273 207.363 55.1953C207.586 54.8594 207.697 54.3047 207.697 53.5312V50.4492H209.484V57H208.113ZM215.004 50.3262C215.777 50.3262 216.383 50.6289 216.82 51.2344C217.258 51.8359 217.477 52.6621 217.477 53.7129C217.477 54.7949 217.25 55.6328 216.797 56.2266C216.348 56.8203 215.734 57.1172 214.957 57.1172C214.188 57.1172 213.584 56.8379 213.146 56.2793H213.023L212.725 57H211.359V47.8828H213.146V50.0039C213.146 50.2734 213.123 50.7051 213.076 51.2988H213.146C213.564 50.6504 214.184 50.3262 215.004 50.3262ZM214.43 51.7559C213.988 51.7559 213.666 51.8926 213.463 52.166C213.26 52.4355 213.154 52.8828 213.146 53.5078V53.7012C213.146 54.4043 213.25 54.9082 213.457 55.2129C213.668 55.5176 214 55.6699 214.453 55.6699C214.82 55.6699 215.111 55.502 215.326 55.166C215.545 54.8262 215.654 54.334 215.654 53.6895C215.654 53.0449 215.545 52.5625 215.326 52.2422C215.107 51.918 214.809 51.7559 214.43 51.7559ZM220.74 57H218.953V47.8828H220.74V57ZM222.545 48.7559C222.545 48.1738 222.869 47.8828 223.518 47.8828C224.166 47.8828 224.49 48.1738 224.49 48.7559C224.49 49.0332 224.408 49.25 224.244 49.4062C224.084 49.5586 223.842 49.6348 223.518 49.6348C222.869 49.6348 222.545 49.3418 222.545 48.7559ZM224.408 57H222.621V50.4492H224.408V57ZM228.949 57.1172C226.91 57.1172 225.891 55.998 225.891 53.7598C225.891 52.6465 226.168 51.7969 226.723 51.2109C227.277 50.6211 228.072 50.3262 229.107 50.3262C229.865 50.3262 230.545 50.4746 231.146 50.7715L230.619 52.1543C230.338 52.041 230.076 51.9492 229.834 51.8789C229.592 51.8047 229.35 51.7676 229.107 51.7676C228.178 51.7676 227.713 52.4277 227.713 53.748C227.713 55.0293 228.178 55.6699 229.107 55.6699C229.451 55.6699 229.77 55.625 230.062 55.5352C230.355 55.4414 230.648 55.2969 230.941 55.1016V56.6309C230.652 56.8145 230.359 56.9414 230.062 57.0117C229.77 57.082 229.398 57.1172 228.949 57.1172ZM232.213 56.1621C232.213 55.834 232.301 55.5859 232.477 55.418C232.652 55.25 232.908 55.166 233.244 55.166C233.568 55.166 233.818 55.252 233.994 55.4238C234.174 55.5957 234.264 55.8418 234.264 56.1621C234.264 56.4707 234.174 56.7148 233.994 56.8945C233.814 57.0703 233.564 57.1582 233.244 57.1582C232.916 57.1582 232.662 57.0723 232.482 56.9004C232.303 56.7246 232.213 56.4785 232.213 56.1621ZM232.213 51.3223C232.213 50.9941 232.301 50.7461 232.477 50.5781C232.652 50.4102 232.908 50.3262 233.244 50.3262C233.568 50.3262 233.818 50.4121 233.994 50.584C234.174 50.7559 234.264 51.002 234.264 51.3223C234.264 51.6387 234.172 51.8848 233.988 52.0605C233.809 52.2324 233.561 52.3184 233.244 52.3184C232.916 52.3184 232.662 52.2324 232.482 52.0605C232.303 51.8887 232.213 51.6426 232.213 51.3223ZM244.09 57H238.729V56.4844L241.008 54.1055C241.648 53.4414 242.098 52.9336 242.355 52.582C242.613 52.2305 242.803 51.8945 242.924 51.5742C243.045 51.2539 243.105 50.918 243.105 50.5664C243.105 50.0547 242.938 49.6387 242.602 49.3184C242.266 48.998 241.83 48.8379 241.295 48.8379C240.58 48.8379 239.896 49.0977 239.244 49.6172L238.928 49.2129C239.643 48.6113 240.436 48.3105 241.307 48.3105C242.053 48.3105 242.639 48.5098 243.064 48.9082C243.494 49.3066 243.709 49.8555 243.709 50.5547C243.709 51.1211 243.564 51.6699 243.275 52.2012C242.99 52.7285 242.467 53.3809 241.705 54.1582L239.508 56.4141V56.4375H244.09V57ZM248.068 51.8496C248.982 51.8496 249.701 52.0703 250.225 52.5117C250.752 52.9531 251.016 53.5605 251.016 54.334C251.016 55.2129 250.742 55.8965 250.195 56.3848C249.648 56.873 248.895 57.1172 247.934 57.1172C247.508 57.1172 247.104 57.0762 246.721 56.9941C246.338 56.9082 246.018 56.7871 245.76 56.6309V56.0273C246.182 56.2422 246.557 56.3926 246.885 56.4785C247.213 56.5605 247.562 56.6016 247.934 56.6016C248.684 56.6016 249.285 56.4043 249.738 56.0098C250.191 55.6113 250.418 55.0742 250.418 54.3984C250.418 53.7617 250.197 53.2617 249.756 52.8984C249.314 52.5352 248.715 52.3535 247.957 52.3535C247.449 52.3535 246.918 52.4297 246.363 52.582L246.012 52.3535L246.352 48.4336H250.477V48.9961H246.902L246.639 52.0195C247.248 51.9062 247.725 51.8496 248.068 51.8496ZM256.758 57L253.564 49.0898H253.518C253.549 49.5742 253.564 50.0703 253.564 50.5781V57H252.99V48.4336H253.916L256.951 55.9688H256.986L260.021 48.4336H260.924V57H260.32V50.5078C260.32 50.0547 260.344 49.5859 260.391 49.1016H260.344L257.139 57H256.758ZM265.793 54V53.5195H268.576V54H265.793ZM277.975 50.4492C277.975 50.9805 277.807 51.4277 277.471 51.791C277.139 52.1543 276.691 52.3867 276.129 52.4883V52.5234C276.816 52.6094 277.34 52.8281 277.699 53.1797C278.059 53.5312 278.238 54.0039 278.238 54.5977C278.238 55.3984 277.965 56.0195 277.418 56.4609C276.875 56.8984 276.092 57.1172 275.068 57.1172C274.197 57.1172 273.438 56.9551 272.789 56.6309V56.0508C273.117 56.2227 273.484 56.3574 273.891 56.4551C274.301 56.5527 274.686 56.6016 275.045 56.6016C275.908 56.6016 276.557 56.4277 276.99 56.0801C277.424 55.7285 277.641 55.2344 277.641 54.5977C277.641 54.0312 277.418 53.5957 276.973 53.291C276.531 52.9863 275.881 52.834 275.021 52.834H274.096V52.2715H275.033C275.744 52.2715 276.307 52.1035 276.721 51.7676C277.139 51.4277 277.348 50.9688 277.348 50.3906C277.348 49.9141 277.178 49.5332 276.838 49.248C276.502 48.959 276.061 48.8145 275.514 48.8145C275.088 48.8145 274.699 48.875 274.348 48.9961C273.996 49.1133 273.602 49.3164 273.164 49.6055L272.877 49.2129C273.209 48.9355 273.609 48.7168 274.078 48.5566C274.547 48.3926 275.021 48.3105 275.502 48.3105C276.291 48.3105 276.9 48.498 277.33 48.873C277.76 49.2441 277.975 49.7695 277.975 50.4492ZM283.09 57H282.516V50.7598C282.516 50.1934 282.539 49.6055 282.586 48.9961C282.527 49.0547 282.467 49.1113 282.404 49.166C282.342 49.2207 281.738 49.6953 280.594 50.5898L280.26 50.1738L282.586 48.4336H283.09V57ZM286.898 56.543C286.898 56.1602 287.055 55.9688 287.367 55.9688C287.688 55.9688 287.848 56.1602 287.848 56.543C287.848 56.9258 287.688 57.1172 287.367 57.1172C287.055 57.1172 286.898 56.9258 286.898 56.543ZM289.576 53.3496C289.576 52.2363 289.727 51.3008 290.027 50.543C290.332 49.7812 290.762 49.2168 291.316 48.8496C291.875 48.4824 292.547 48.2988 293.332 48.2988C293.699 48.2988 294.035 48.3438 294.34 48.4336V48.9492C294.055 48.8438 293.711 48.791 293.309 48.791C292.344 48.791 291.592 49.1387 291.053 49.834C290.518 50.5293 290.217 51.541 290.15 52.8691H290.227C290.523 52.4863 290.863 52.1973 291.246 52.002C291.629 51.8066 292.033 51.709 292.459 51.709C293.26 51.709 293.885 51.9375 294.334 52.3945C294.787 52.8516 295.014 53.4824 295.014 54.2871C295.014 55.1621 294.775 55.8535 294.299 56.3613C293.826 56.8652 293.188 57.1172 292.383 57.1172C291.516 57.1172 290.83 56.7871 290.326 56.127C289.826 55.4629 289.576 54.5371 289.576 53.3496ZM292.383 56.6016C293.023 56.6016 293.521 56.4004 293.877 55.998C294.232 55.5957 294.41 55.0215 294.41 54.2754C294.41 53.6191 294.234 53.1074 293.883 52.7402C293.531 52.373 293.053 52.1895 292.447 52.1895C292.049 52.1895 291.678 52.2773 291.334 52.4531C290.994 52.6289 290.723 52.8633 290.52 53.1562C290.316 53.4453 290.215 53.7422 290.215 54.0469C290.215 54.4805 290.311 54.8984 290.502 55.3008C290.697 55.6992 290.959 56.0156 291.287 56.25C291.619 56.4844 291.984 56.6016 292.383 56.6016ZM296.9 50.9883C296.9 51.7148 296.988 52.2617 297.164 52.6289C297.34 52.9922 297.615 53.1738 297.99 53.1738C298.744 53.1738 299.121 52.4453 299.121 50.9883C299.121 50.2695 299.023 49.7305 298.828 49.3711C298.637 49.0078 298.357 48.8262 297.99 48.8262C297.615 48.8262 297.34 49.0078 297.164 49.3711C296.988 49.7305 296.9 50.2695 296.9 50.9883ZM299.695 50.9883C299.695 51.8711 299.549 52.543 299.256 53.0039C298.963 53.4609 298.541 53.6895 297.99 53.6895C297.471 53.6895 297.062 53.4551 296.766 52.9863C296.473 52.5137 296.326 51.8477 296.326 50.9883C296.326 50.1172 296.467 49.4531 296.748 48.9961C297.029 48.5391 297.443 48.3105 297.99 48.3105C298.533 48.3105 298.953 48.5469 299.25 49.0195C299.547 49.4883 299.695 50.1445 299.695 50.9883ZM301.893 54.4336C301.893 55.1562 301.98 55.6992 302.156 56.0625C302.332 56.4219 302.607 56.6016 302.982 56.6016C303.736 56.6016 304.113 55.8789 304.113 54.4336C304.113 52.9922 303.736 52.2715 302.982 52.2715C302.607 52.2715 302.332 52.4512 302.156 52.8105C301.98 53.166 301.893 53.707 301.893 54.4336ZM304.688 54.4336C304.688 55.3164 304.543 55.9883 304.254 56.4492C303.965 56.9062 303.545 57.1348 302.994 57.1348C302.463 57.1348 302.051 56.8984 301.758 56.4258C301.465 55.9492 301.318 55.2852 301.318 54.4336C301.318 53.5547 301.461 52.8887 301.746 52.4355C302.035 51.9824 302.451 51.7559 302.994 51.7559C303.529 51.7559 303.945 51.9902 304.242 52.459C304.539 52.9277 304.688 53.5859 304.688 54.4336ZM303.164 48.4336L298.412 57H297.85L302.602 48.4336H303.164Z" fill="white"/>
<path d="M197.865 78H196.078V69.4336H200.988V70.9219H197.865V73.1309H200.771V74.6133H197.865V78ZM203.947 74.7129C203.947 75.3613 204.053 75.8516 204.264 76.1836C204.479 76.5156 204.826 76.6816 205.307 76.6816C205.783 76.6816 206.125 76.5176 206.332 76.1895C206.543 75.8574 206.648 75.3652 206.648 74.7129C206.648 74.0645 206.543 73.5781 206.332 73.2539C206.121 72.9297 205.775 72.7676 205.295 72.7676C204.818 72.7676 204.475 72.9297 204.264 73.2539C204.053 73.5742 203.947 74.0605 203.947 74.7129ZM208.477 74.7129C208.477 75.7793 208.195 76.6133 207.633 77.2148C207.07 77.8164 206.287 78.1172 205.283 78.1172C204.654 78.1172 204.1 77.9805 203.619 77.707C203.139 77.4297 202.77 77.0332 202.512 76.5176C202.254 76.002 202.125 75.4004 202.125 74.7129C202.125 73.6426 202.404 72.8105 202.963 72.2168C203.521 71.623 204.307 71.3262 205.318 71.3262C205.947 71.3262 206.502 71.4629 206.982 71.7363C207.463 72.0098 207.832 72.4023 208.09 72.9141C208.348 73.4258 208.477 74.0254 208.477 74.7129ZM214.594 78L214.354 77.1621H214.26C214.068 77.4668 213.797 77.7031 213.445 77.8711C213.094 78.0352 212.693 78.1172 212.244 78.1172C211.475 78.1172 210.895 77.9121 210.504 77.502C210.113 77.0879 209.918 76.4941 209.918 75.7207V71.4492H211.705V75.2754C211.705 75.748 211.789 76.1035 211.957 76.3418C212.125 76.5762 212.393 76.6934 212.76 76.6934C213.26 76.6934 213.621 76.5273 213.844 76.1953C214.066 75.8594 214.178 75.3047 214.178 74.5312V71.4492H215.965V78H214.594ZM223.887 78H222.1V74.1738C222.1 73.7012 222.016 73.3477 221.848 73.1133C221.68 72.875 221.412 72.7559 221.045 72.7559C220.545 72.7559 220.184 72.9238 219.961 73.2598C219.738 73.5918 219.627 74.1445 219.627 74.918V78H217.84V71.4492H219.205L219.445 72.2871H219.545C219.744 71.9707 220.018 71.7324 220.365 71.5723C220.717 71.4082 221.115 71.3262 221.561 71.3262C222.322 71.3262 222.9 71.5332 223.295 71.9473C223.689 72.3574 223.887 72.9512 223.887 73.7285V78ZM227.801 78.1172C227.031 78.1172 226.426 77.8184 225.984 77.2207C225.547 76.623 225.328 75.7949 225.328 74.7363C225.328 73.6621 225.551 72.8262 225.996 72.2285C226.445 71.627 227.062 71.3262 227.848 71.3262C228.672 71.3262 229.301 71.6465 229.734 72.2871H229.793C229.703 71.7988 229.658 71.3633 229.658 70.9805V68.8828H231.451V78H230.08L229.734 77.1504H229.658C229.252 77.7949 228.633 78.1172 227.801 78.1172ZM228.428 76.6934C228.885 76.6934 229.219 76.5605 229.43 76.2949C229.645 76.0293 229.762 75.5781 229.781 74.9414V74.748C229.781 74.0449 229.672 73.541 229.453 73.2363C229.238 72.9316 228.887 72.7793 228.398 72.7793C228 72.7793 227.689 72.9492 227.467 73.2891C227.248 73.625 227.139 74.1152 227.139 74.7598C227.139 75.4043 227.25 75.8887 227.473 76.2129C227.695 76.5332 228.014 76.6934 228.428 76.6934ZM241.512 78H236.578V69.4336H241.512V70.9219H238.395V72.8027H241.295V74.291H238.395V76.5H241.512V78ZM245.824 78.1172C243.785 78.1172 242.766 76.998 242.766 74.7598C242.766 73.6465 243.043 72.7969 243.598 72.2109C244.152 71.6211 244.947 71.3262 245.982 71.3262C246.74 71.3262 247.42 71.4746 248.021 71.7715L247.494 73.1543C247.213 73.041 246.951 72.9492 246.709 72.8789C246.467 72.8047 246.225 72.7676 245.982 72.7676C245.053 72.7676 244.588 73.4277 244.588 74.748C244.588 76.0293 245.053 76.6699 245.982 76.6699C246.326 76.6699 246.645 76.625 246.938 76.5352C247.23 76.4414 247.523 76.2969 247.816 76.1016V77.6309C247.527 77.8145 247.234 77.9414 246.938 78.0117C246.645 78.082 246.273 78.1172 245.824 78.1172ZM250.764 74.7129C250.764 75.3613 250.869 75.8516 251.08 76.1836C251.295 76.5156 251.643 76.6816 252.123 76.6816C252.6 76.6816 252.941 76.5176 253.148 76.1895C253.359 75.8574 253.465 75.3652 253.465 74.7129C253.465 74.0645 253.359 73.5781 253.148 73.2539C252.938 72.9297 252.592 72.7676 252.111 72.7676C251.635 72.7676 251.291 72.9297 251.08 73.2539C250.869 73.5742 250.764 74.0605 250.764 74.7129ZM255.293 74.7129C255.293 75.7793 255.012 76.6133 254.449 77.2148C253.887 77.8164 253.104 78.1172 252.1 78.1172C251.471 78.1172 250.916 77.9805 250.436 77.707C249.955 77.4297 249.586 77.0332 249.328 76.5176C249.07 76.002 248.941 75.4004 248.941 74.7129C248.941 73.6426 249.221 72.8105 249.779 72.2168C250.338 71.623 251.123 71.3262 252.135 71.3262C252.764 71.3262 253.318 71.4629 253.799 71.7363C254.279 72.0098 254.648 72.4023 254.906 72.9141C255.164 73.4258 255.293 74.0254 255.293 74.7129ZM261.34 76.0547C261.34 76.7266 261.105 77.2383 260.637 77.5898C260.172 77.9414 259.475 78.1172 258.545 78.1172C258.068 78.1172 257.662 78.084 257.326 78.0176C256.99 77.9551 256.676 77.8613 256.383 77.7363V76.2598C256.715 76.416 257.088 76.5469 257.502 76.6523C257.92 76.7578 258.287 76.8105 258.604 76.8105C259.252 76.8105 259.576 76.623 259.576 76.248C259.576 76.1074 259.533 75.9941 259.447 75.9082C259.361 75.8184 259.213 75.7188 259.002 75.6094C258.791 75.4961 258.51 75.3652 258.158 75.2168C257.654 75.0059 257.283 74.8105 257.045 74.6309C256.811 74.4512 256.639 74.2461 256.529 74.0156C256.424 73.7812 256.371 73.4941 256.371 73.1543C256.371 72.5723 256.596 72.123 257.045 71.8066C257.498 71.4863 258.139 71.3262 258.967 71.3262C259.756 71.3262 260.523 71.498 261.27 71.8418L260.73 73.1309C260.402 72.9902 260.096 72.875 259.811 72.7852C259.525 72.6953 259.234 72.6504 258.938 72.6504C258.41 72.6504 258.146 72.793 258.146 73.0781C258.146 73.2383 258.23 73.377 258.398 73.4941C258.57 73.6113 258.943 73.7852 259.518 74.0156C260.029 74.2227 260.404 74.416 260.643 74.5957C260.881 74.7754 261.057 74.9824 261.17 75.2168C261.283 75.4512 261.34 75.7305 261.34 76.0547ZM261.797 71.4492H263.754L264.99 75.1348C265.096 75.4551 265.168 75.834 265.207 76.2715H265.242C265.285 75.8691 265.369 75.4902 265.494 75.1348L266.707 71.4492H268.623L265.852 78.8379C265.598 79.5215 265.234 80.0332 264.762 80.373C264.293 80.7129 263.744 80.8828 263.115 80.8828C262.807 80.8828 262.504 80.8496 262.207 80.7832V79.3652C262.422 79.416 262.656 79.4414 262.91 79.4414C263.227 79.4414 263.502 79.3438 263.736 79.1484C263.975 78.957 264.16 78.666 264.293 78.2754L264.398 77.9531L261.797 71.4492ZM274.137 76.0547C274.137 76.7266 273.902 77.2383 273.434 77.5898C272.969 77.9414 272.271 78.1172 271.342 78.1172C270.865 78.1172 270.459 78.084 270.123 78.0176C269.787 77.9551 269.473 77.8613 269.18 77.7363V76.2598C269.512 76.416 269.885 76.5469 270.299 76.6523C270.717 76.7578 271.084 76.8105 271.4 76.8105C272.049 76.8105 272.373 76.623 272.373 76.248C272.373 76.1074 272.33 75.9941 272.244 75.9082C272.158 75.8184 272.01 75.7188 271.799 75.6094C271.588 75.4961 271.307 75.3652 270.955 75.2168C270.451 75.0059 270.08 74.8105 269.842 74.6309C269.607 74.4512 269.436 74.2461 269.326 74.0156C269.221 73.7812 269.168 73.4941 269.168 73.1543C269.168 72.5723 269.393 72.123 269.842 71.8066C270.295 71.4863 270.936 71.3262 271.764 71.3262C272.553 71.3262 273.32 71.498 274.066 71.8418L273.527 73.1309C273.199 72.9902 272.893 72.875 272.607 72.7852C272.322 72.6953 272.031 72.6504 271.734 72.6504C271.207 72.6504 270.943 72.793 270.943 73.0781C270.943 73.2383 271.027 73.377 271.195 73.4941C271.367 73.6113 271.74 73.7852 272.314 74.0156C272.826 74.2227 273.201 74.416 273.439 74.5957C273.678 74.7754 273.854 74.9824 273.967 75.2168C274.08 75.4512 274.137 75.7305 274.137 76.0547ZM278.291 76.6934C278.604 76.6934 278.979 76.625 279.416 76.4883V77.8184C278.971 78.0176 278.424 78.1172 277.775 78.1172C277.061 78.1172 276.539 77.9375 276.211 77.5781C275.887 77.2148 275.725 76.6719 275.725 75.9492V72.791H274.869V72.0352L275.854 71.4375L276.369 70.0547H277.512V71.4492H279.346V72.791H277.512V75.9492C277.512 76.2031 277.582 76.3906 277.723 76.5117C277.867 76.6328 278.057 76.6934 278.291 76.6934ZM283.459 72.5977C283.08 72.5977 282.783 72.7188 282.568 72.9609C282.354 73.1992 282.23 73.5391 282.199 73.9805H284.707C284.699 73.5391 284.584 73.1992 284.361 72.9609C284.139 72.7188 283.838 72.5977 283.459 72.5977ZM283.711 78.1172C282.656 78.1172 281.832 77.8262 281.238 77.2441C280.645 76.6621 280.348 75.8379 280.348 74.7715C280.348 73.6738 280.621 72.8262 281.168 72.2285C281.719 71.627 282.479 71.3262 283.447 71.3262C284.373 71.3262 285.094 71.5898 285.609 72.1172C286.125 72.6445 286.383 73.373 286.383 74.3027V75.1699H282.158C282.178 75.6777 282.328 76.0742 282.609 76.3594C282.891 76.6445 283.285 76.7871 283.793 76.7871C284.188 76.7871 284.561 76.7461 284.912 76.6641C285.264 76.582 285.631 76.4512 286.014 76.2715V77.6543C285.701 77.8105 285.367 77.9258 285.012 78C284.656 78.0781 284.223 78.1172 283.711 78.1172ZM293.701 78H291.914V74.1738C291.914 73.7012 291.834 73.3477 291.674 73.1133C291.518 72.875 291.27 72.7559 290.93 72.7559C290.473 72.7559 290.141 72.9238 289.934 73.2598C289.727 73.5957 289.623 74.1484 289.623 74.918V78H287.836V71.4492H289.201L289.441 72.2871H289.541C289.717 71.9863 289.971 71.752 290.303 71.584C290.635 71.4121 291.016 71.3262 291.445 71.3262C292.426 71.3262 293.09 71.6465 293.438 72.2871H293.596C293.771 71.9824 294.029 71.7461 294.369 71.5781C294.713 71.4102 295.1 71.3262 295.529 71.3262C296.271 71.3262 296.832 71.5176 297.211 71.9004C297.594 72.2793 297.785 72.8887 297.785 73.7285V78H295.992V74.1738C295.992 73.7012 295.912 73.3477 295.752 73.1133C295.596 72.875 295.348 72.7559 295.008 72.7559C294.57 72.7559 294.242 72.9121 294.023 73.2246C293.809 73.5371 293.701 74.0332 293.701 74.7129V78ZM299.373 77.1621C299.373 76.834 299.461 76.5859 299.637 76.418C299.812 76.25 300.068 76.166 300.404 76.166C300.729 76.166 300.979 76.252 301.154 76.4238C301.334 76.5957 301.424 76.8418 301.424 77.1621C301.424 77.4707 301.334 77.7148 301.154 77.8945C300.975 78.0703 300.725 78.1582 300.404 78.1582C300.076 78.1582 299.822 78.0723 299.643 77.9004C299.463 77.7246 299.373 77.4785 299.373 77.1621ZM299.373 72.3223C299.373 71.9941 299.461 71.7461 299.637 71.5781C299.812 71.4102 300.068 71.3262 300.404 71.3262C300.729 71.3262 300.979 71.4121 301.154 71.584C301.334 71.7559 301.424 72.002 301.424 72.3223C301.424 72.6387 301.332 72.8848 301.148 73.0605C300.969 73.2324 300.721 73.3184 300.404 73.3184C300.076 73.3184 299.822 73.2324 299.643 73.0605C299.463 72.8887 299.373 72.6426 299.373 72.3223ZM311.25 78H305.889V77.4844L308.168 75.1055C308.809 74.4414 309.258 73.9336 309.516 73.582C309.773 73.2305 309.963 72.8945 310.084 72.5742C310.205 72.2539 310.266 71.918 310.266 71.5664C310.266 71.0547 310.098 70.6387 309.762 70.3184C309.426 69.998 308.99 69.8379 308.455 69.8379C307.74 69.8379 307.057 70.0977 306.404 70.6172L306.088 70.2129C306.803 69.6113 307.596 69.3105 308.467 69.3105C309.213 69.3105 309.799 69.5098 310.225 69.9082C310.654 70.3066 310.869 70.8555 310.869 71.5547C310.869 72.1211 310.725 72.6699 310.436 73.2012C310.15 73.7285 309.627 74.3809 308.865 75.1582L306.668 77.4141V77.4375H311.25V78ZM318.105 78H312.744V77.4844L315.023 75.1055C315.664 74.4414 316.113 73.9336 316.371 73.582C316.629 73.2305 316.818 72.8945 316.939 72.5742C317.061 72.2539 317.121 71.918 317.121 71.5664C317.121 71.0547 316.953 70.6387 316.617 70.3184C316.281 69.998 315.846 69.8379 315.311 69.8379C314.596 69.8379 313.912 70.0977 313.26 70.6172L312.943 70.2129C313.658 69.6113 314.451 69.3105 315.322 69.3105C316.068 69.3105 316.654 69.5098 317.08 69.9082C317.51 70.3066 317.725 70.8555 317.725 71.5547C317.725 72.1211 317.58 72.6699 317.291 73.2012C317.006 73.7285 316.482 74.3809 315.721 75.1582L313.523 77.4141V77.4375H318.105V78ZM319.887 77.543C319.887 77.1602 320.043 76.9688 320.355 76.9688C320.676 76.9688 320.836 77.1602 320.836 77.543C320.836 77.9258 320.676 78.1172 320.355 78.1172C320.043 78.1172 319.887 77.9258 319.887 77.543ZM324.943 72.8496C325.857 72.8496 326.576 73.0703 327.1 73.5117C327.627 73.9531 327.891 74.5605 327.891 75.334C327.891 76.2129 327.617 76.8965 327.07 77.3848C326.523 77.873 325.77 78.1172 324.809 78.1172C324.383 78.1172 323.979 78.0762 323.596 77.9941C323.213 77.9082 322.893 77.7871 322.635 77.6309V77.0273C323.057 77.2422 323.432 77.3926 323.76 77.4785C324.088 77.5605 324.438 77.6016 324.809 77.6016C325.559 77.6016 326.16 77.4043 326.613 77.0098C327.066 76.6113 327.293 76.0742 327.293 75.3984C327.293 74.7617 327.072 74.2617 326.631 73.8984C326.189 73.5352 325.59 73.3535 324.832 73.3535C324.324 73.3535 323.793 73.4297 323.238 73.582L322.887 73.3535L323.227 69.4336H327.352V69.9961H323.777L323.514 73.0195C324.123 72.9062 324.6 72.8496 324.943 72.8496ZM333.633 78L330.439 70.0898H330.393C330.424 70.5742 330.439 71.0703 330.439 71.5781V78H329.865V69.4336H330.791L333.826 76.9688H333.861L336.896 69.4336H337.799V78H337.195V71.5078C337.195 71.0547 337.219 70.5859 337.266 70.1016H337.219L334.014 78H333.633ZM342.668 75V74.5195H345.451V75H342.668ZM355.137 78H349.775V77.4844L352.055 75.1055C352.695 74.4414 353.145 73.9336 353.402 73.582C353.66 73.2305 353.85 72.8945 353.971 72.5742C354.092 72.2539 354.152 71.918 354.152 71.5664C354.152 71.0547 353.984 70.6387 353.648 70.3184C353.312 69.998 352.877 69.8379 352.342 69.8379C351.627 69.8379 350.943 70.0977 350.291 70.6172L349.975 70.2129C350.689 69.6113 351.482 69.3105 352.354 69.3105C353.1 69.3105 353.686 69.5098 354.111 69.9082C354.541 70.3066 354.756 70.8555 354.756 71.5547C354.756 72.1211 354.611 72.6699 354.322 73.2012C354.037 73.7285 353.514 74.3809 352.752 75.1582L350.555 77.4141V77.4375H355.137V78ZM359.379 69.2871C360.105 69.2871 360.689 69.4727 361.131 69.8438C361.576 70.2148 361.799 70.7168 361.799 71.3496C361.799 71.7871 361.66 72.1738 361.383 72.5098C361.109 72.8457 360.664 73.1562 360.047 73.4414C360.797 73.75 361.324 74.0879 361.629 74.4551C361.934 74.8223 362.086 75.2676 362.086 75.791C362.086 76.498 361.838 77.0625 361.342 77.4844C360.85 77.9062 360.188 78.1172 359.355 78.1172C358.492 78.1172 357.83 77.9199 357.369 77.5254C356.908 77.1309 356.678 76.5566 356.678 75.8027C356.678 75.291 356.84 74.8418 357.164 74.4551C357.488 74.0684 357.99 73.7383 358.67 73.4648C358.041 73.168 357.598 72.8555 357.34 72.5273C357.082 72.1953 356.953 71.7988 356.953 71.3379C356.953 70.9277 357.057 70.5684 357.264 70.2598C357.471 69.9473 357.76 69.707 358.131 69.5391C358.506 69.3711 358.922 69.2871 359.379 69.2871ZM357.275 75.8906C357.275 76.4297 357.457 76.8477 357.82 77.1445C358.188 77.4414 358.699 77.5898 359.355 77.5898C359.996 77.5898 360.512 77.4336 360.902 77.1211C361.293 76.8047 361.488 76.377 361.488 75.8379C361.488 75.3535 361.334 74.9609 361.025 74.6602C360.721 74.3555 360.131 74.0371 359.256 73.7051C358.537 73.9824 358.027 74.2891 357.727 74.625C357.426 74.9609 357.275 75.3828 357.275 75.8906ZM359.367 69.8145C358.816 69.8145 358.373 69.9512 358.037 70.2246C357.705 70.4941 357.539 70.8652 357.539 71.3379C357.539 71.6113 357.6 71.8535 357.721 72.0645C357.846 72.2715 358.023 72.4609 358.254 72.6328C358.488 72.8008 358.879 72.998 359.426 73.2246C360.062 72.9785 360.52 72.707 360.797 72.4102C361.074 72.1133 361.213 71.7559 361.213 71.3379C361.213 70.8691 361.047 70.498 360.715 70.2246C360.387 69.9512 359.938 69.8145 359.367 69.8145ZM363.773 77.543C363.773 77.1602 363.93 76.9688 364.242 76.9688C364.562 76.9688 364.723 77.1602 364.723 77.543C364.723 77.9258 364.562 78.1172 364.242 78.1172C363.93 78.1172 363.773 77.9258 363.773 77.543ZM368.83 72.8496C369.744 72.8496 370.463 73.0703 370.986 73.5117C371.514 73.9531 371.777 74.5605 371.777 75.334C371.777 76.2129 371.504 76.8965 370.957 77.3848C370.41 77.873 369.656 78.1172 368.695 78.1172C368.27 78.1172 367.865 78.0762 367.482 77.9941C367.1 77.9082 366.779 77.7871 366.521 77.6309V77.0273C366.943 77.2422 367.318 77.3926 367.646 77.4785C367.975 77.5605 368.324 77.6016 368.695 77.6016C369.445 77.6016 370.047 77.4043 370.5 77.0098C370.953 76.6113 371.18 76.0742 371.18 75.3984C371.18 74.7617 370.959 74.2617 370.518 73.8984C370.076 73.5352 369.477 73.3535 368.719 73.3535C368.211 73.3535 367.68 73.4297 367.125 73.582L366.773 73.3535L367.113 69.4336H371.238V69.9961H367.664L367.4 73.0195C368.01 72.9062 368.486 72.8496 368.83 72.8496ZM373.775 71.9883C373.775 72.7148 373.863 73.2617 374.039 73.6289C374.215 73.9922 374.49 74.1738 374.865 74.1738C375.619 74.1738 375.996 73.4453 375.996 71.9883C375.996 71.2695 375.898 70.7305 375.703 70.3711C375.512 70.0078 375.232 69.8262 374.865 69.8262C374.49 69.8262 374.215 70.0078 374.039 70.3711C373.863 70.7305 373.775 71.2695 373.775 71.9883ZM376.57 71.9883C376.57 72.8711 376.424 73.543 376.131 74.0039C375.838 74.4609 375.416 74.6895 374.865 74.6895C374.346 74.6895 373.938 74.4551 373.641 73.9863C373.348 73.5137 373.201 72.8477 373.201 71.9883C373.201 71.1172 373.342 70.4531 373.623 69.9961C373.904 69.5391 374.318 69.3105 374.865 69.3105C375.408 69.3105 375.828 69.5469 376.125 70.0195C376.422 70.4883 376.57 71.1445 376.57 71.9883ZM378.768 75.4336C378.768 76.1562 378.855 76.6992 379.031 77.0625C379.207 77.4219 379.482 77.6016 379.857 77.6016C380.611 77.6016 380.988 76.8789 380.988 75.4336C380.988 73.9922 380.611 73.2715 379.857 73.2715C379.482 73.2715 379.207 73.4512 379.031 73.8105C378.855 74.166 378.768 74.707 378.768 75.4336ZM381.562 75.4336C381.562 76.3164 381.418 76.9883 381.129 77.4492C380.84 77.9062 380.42 78.1348 379.869 78.1348C379.338 78.1348 378.926 77.8984 378.633 77.4258C378.34 76.9492 378.193 76.2852 378.193 75.4336C378.193 74.5547 378.336 73.8887 378.621 73.4355C378.91 72.9824 379.326 72.7559 379.869 72.7559C380.404 72.7559 380.82 72.9902 381.117 73.459C381.414 73.9277 381.562 74.5859 381.562 75.4336ZM380.039 69.4336L375.287 78H374.725L379.477 69.4336H380.039Z" fill="white"/>
<path d="M197.865 99H196.078V90.4336H200.988V91.9219H197.865V94.1309H200.771V95.6133H197.865V99ZM203.947 95.7129C203.947 96.3613 204.053 96.8516 204.264 97.1836C204.479 97.5156 204.826 97.6816 205.307 97.6816C205.783 97.6816 206.125 97.5176 206.332 97.1895C206.543 96.8574 206.648 96.3652 206.648 95.7129C206.648 95.0645 206.543 94.5781 206.332 94.2539C206.121 93.9297 205.775 93.7676 205.295 93.7676C204.818 93.7676 204.475 93.9297 204.264 94.2539C204.053 94.5742 203.947 95.0605 203.947 95.7129ZM208.477 95.7129C208.477 96.7793 208.195 97.6133 207.633 98.2148C207.07 98.8164 206.287 99.1172 205.283 99.1172C204.654 99.1172 204.1 98.9805 203.619 98.707C203.139 98.4297 202.77 98.0332 202.512 97.5176C202.254 97.002 202.125 96.4004 202.125 95.7129C202.125 94.6426 202.404 93.8105 202.963 93.2168C203.521 92.623 204.307 92.3262 205.318 92.3262C205.947 92.3262 206.502 92.4629 206.982 92.7363C207.463 93.0098 207.832 93.4023 208.09 93.9141C208.348 94.4258 208.477 95.0254 208.477 95.7129ZM214.594 99L214.354 98.1621H214.26C214.068 98.4668 213.797 98.7031 213.445 98.8711C213.094 99.0352 212.693 99.1172 212.244 99.1172C211.475 99.1172 210.895 98.9121 210.504 98.502C210.113 98.0879 209.918 97.4941 209.918 96.7207V92.4492H211.705V96.2754C211.705 96.748 211.789 97.1035 211.957 97.3418C212.125 97.5762 212.393 97.6934 212.76 97.6934C213.26 97.6934 213.621 97.5273 213.844 97.1953C214.066 96.8594 214.178 96.3047 214.178 95.5312V92.4492H215.965V99H214.594ZM223.887 99H222.1V95.1738C222.1 94.7012 222.016 94.3477 221.848 94.1133C221.68 93.875 221.412 93.7559 221.045 93.7559C220.545 93.7559 220.184 93.9238 219.961 94.2598C219.738 94.5918 219.627 95.1445 219.627 95.918V99H217.84V92.4492H219.205L219.445 93.2871H219.545C219.744 92.9707 220.018 92.7324 220.365 92.5723C220.717 92.4082 221.115 92.3262 221.561 92.3262C222.322 92.3262 222.9 92.5332 223.295 92.9473C223.689 93.3574 223.887 93.9512 223.887 94.7285V99ZM227.801 99.1172C227.031 99.1172 226.426 98.8184 225.984 98.2207C225.547 97.623 225.328 96.7949 225.328 95.7363C225.328 94.6621 225.551 93.8262 225.996 93.2285C226.445 92.627 227.062 92.3262 227.848 92.3262C228.672 92.3262 229.301 92.6465 229.734 93.2871H229.793C229.703 92.7988 229.658 92.3633 229.658 91.9805V89.8828H231.451V99H230.08L229.734 98.1504H229.658C229.252 98.7949 228.633 99.1172 227.801 99.1172ZM228.428 97.6934C228.885 97.6934 229.219 97.5605 229.43 97.2949C229.645 97.0293 229.762 96.5781 229.781 95.9414V95.748C229.781 95.0449 229.672 94.541 229.453 94.2363C229.238 93.9316 228.887 93.7793 228.398 93.7793C228 93.7793 227.689 93.9492 227.467 94.2891C227.248 94.625 227.139 95.1152 227.139 95.7598C227.139 96.4043 227.25 96.8887 227.473 97.2129C227.695 97.5332 228.014 97.6934 228.428 97.6934ZM239.883 99H238.066V91.9453H235.74V90.4336H242.209V91.9453H239.883V99ZM247.043 92.3262C247.285 92.3262 247.486 92.3438 247.646 92.3789L247.512 94.0547C247.367 94.0156 247.191 93.9961 246.984 93.9961C246.414 93.9961 245.969 94.1426 245.648 94.4355C245.332 94.7285 245.174 95.1387 245.174 95.666V99H243.387V92.4492H244.74L245.004 93.5508H245.092C245.295 93.1836 245.568 92.8887 245.912 92.666C246.26 92.4395 246.637 92.3262 247.043 92.3262ZM251.549 93.5977C251.17 93.5977 250.873 93.7188 250.658 93.9609C250.443 94.1992 250.32 94.5391 250.289 94.9805H252.797C252.789 94.5391 252.674 94.1992 252.451 93.9609C252.229 93.7188 251.928 93.5977 251.549 93.5977ZM251.801 99.1172C250.746 99.1172 249.922 98.8262 249.328 98.2441C248.734 97.6621 248.438 96.8379 248.438 95.7715C248.438 94.6738 248.711 93.8262 249.258 93.2285C249.809 92.627 250.568 92.3262 251.537 92.3262C252.463 92.3262 253.184 92.5898 253.699 93.1172C254.215 93.6445 254.473 94.373 254.473 95.3027V96.1699H250.248C250.268 96.6777 250.418 97.0742 250.699 97.3594C250.98 97.6445 251.375 97.7871 251.883 97.7871C252.277 97.7871 252.65 97.7461 253.002 97.6641C253.354 97.582 253.721 97.4512 254.104 97.2715V98.6543C253.791 98.8105 253.457 98.9258 253.102 99C252.746 99.0781 252.312 99.1172 251.801 99.1172ZM260.086 99L259.74 98.1094H259.693C259.393 98.4883 259.082 98.752 258.762 98.9004C258.445 99.0449 258.031 99.1172 257.52 99.1172C256.891 99.1172 256.395 98.9375 256.031 98.5781C255.672 98.2188 255.492 97.707 255.492 97.043C255.492 96.3477 255.734 95.8359 256.219 95.5078C256.707 95.1758 257.441 94.9922 258.422 94.957L259.559 94.9219V94.6348C259.559 93.9707 259.219 93.6387 258.539 93.6387C258.016 93.6387 257.4 93.7969 256.693 94.1133L256.102 92.9062C256.855 92.5117 257.691 92.3145 258.609 92.3145C259.488 92.3145 260.162 92.5059 260.631 92.8887C261.1 93.2715 261.334 93.8535 261.334 94.6348V99H260.086ZM259.559 95.9648L258.867 95.9883C258.348 96.0039 257.961 96.0977 257.707 96.2695C257.453 96.4414 257.326 96.7031 257.326 97.0547C257.326 97.5586 257.615 97.8105 258.193 97.8105C258.607 97.8105 258.938 97.6914 259.184 97.4531C259.434 97.2148 259.559 96.8984 259.559 96.5039V95.9648ZM267.75 97.0547C267.75 97.7266 267.516 98.2383 267.047 98.5898C266.582 98.9414 265.885 99.1172 264.955 99.1172C264.479 99.1172 264.072 99.084 263.736 99.0176C263.4 98.9551 263.086 98.8613 262.793 98.7363V97.2598C263.125 97.416 263.498 97.5469 263.912 97.6523C264.33 97.7578 264.697 97.8105 265.014 97.8105C265.662 97.8105 265.986 97.623 265.986 97.248C265.986 97.1074 265.943 96.9941 265.857 96.9082C265.771 96.8184 265.623 96.7188 265.412 96.6094C265.201 96.4961 264.92 96.3652 264.568 96.2168C264.064 96.0059 263.693 95.8105 263.455 95.6309C263.221 95.4512 263.049 95.2461 262.939 95.0156C262.834 94.7812 262.781 94.4941 262.781 94.1543C262.781 93.5723 263.006 93.123 263.455 92.8066C263.908 92.4863 264.549 92.3262 265.377 92.3262C266.166 92.3262 266.934 92.498 267.68 92.8418L267.141 94.1309C266.812 93.9902 266.506 93.875 266.221 93.7852C265.936 93.6953 265.645 93.6504 265.348 93.6504C264.82 93.6504 264.557 93.793 264.557 94.0781C264.557 94.2383 264.641 94.377 264.809 94.4941C264.98 94.6113 265.354 94.7852 265.928 95.0156C266.439 95.2227 266.814 95.416 267.053 95.5957C267.291 95.7754 267.467 95.9824 267.58 96.2168C267.693 96.4512 267.75 96.7305 267.75 97.0547ZM273.785 99L273.545 98.1621H273.451C273.26 98.4668 272.988 98.7031 272.637 98.8711C272.285 99.0352 271.885 99.1172 271.436 99.1172C270.666 99.1172 270.086 98.9121 269.695 98.502C269.305 98.0879 269.109 97.4941 269.109 96.7207V92.4492H270.896V96.2754C270.896 96.748 270.98 97.1035 271.148 97.3418C271.316 97.5762 271.584 97.6934 271.951 97.6934C272.451 97.6934 272.812 97.5273 273.035 97.1953C273.258 96.8594 273.369 96.3047 273.369 95.5312V92.4492H275.156V99H273.785ZM280.688 92.3262C280.93 92.3262 281.131 92.3438 281.291 92.3789L281.156 94.0547C281.012 94.0156 280.836 93.9961 280.629 93.9961C280.059 93.9961 279.613 94.1426 279.293 94.4355C278.977 94.7285 278.818 95.1387 278.818 95.666V99H277.031V92.4492H278.385L278.648 93.5508H278.736C278.939 93.1836 279.213 92.8887 279.557 92.666C279.904 92.4395 280.281 92.3262 280.688 92.3262ZM281.543 92.4492H283.5L284.736 96.1348C284.842 96.4551 284.914 96.834 284.953 97.2715H284.988C285.031 96.8691 285.115 96.4902 285.24 96.1348L286.453 92.4492H288.369L285.598 99.8379C285.344 100.521 284.98 101.033 284.508 101.373C284.039 101.713 283.49 101.883 282.861 101.883C282.553 101.883 282.25 101.85 281.953 101.783V100.365C282.168 100.416 282.402 100.441 282.656 100.441C282.973 100.441 283.248 100.344 283.482 100.148C283.721 99.957 283.906 99.666 284.039 99.2754L284.145 98.9531L281.543 92.4492ZM289.061 98.1621C289.061 97.834 289.148 97.5859 289.324 97.418C289.5 97.25 289.756 97.166 290.092 97.166C290.416 97.166 290.666 97.252 290.842 97.4238C291.021 97.5957 291.111 97.8418 291.111 98.1621C291.111 98.4707 291.021 98.7148 290.842 98.8945C290.662 99.0703 290.412 99.1582 290.092 99.1582C289.764 99.1582 289.51 99.0723 289.33 98.9004C289.15 98.7246 289.061 98.4785 289.061 98.1621ZM289.061 93.3223C289.061 92.9941 289.148 92.7461 289.324 92.5781C289.5 92.4102 289.756 92.3262 290.092 92.3262C290.416 92.3262 290.666 92.4121 290.842 92.584C291.021 92.7559 291.111 93.002 291.111 93.3223C291.111 93.6387 291.02 93.8848 290.836 94.0605C290.656 94.2324 290.408 94.3184 290.092 94.3184C289.764 94.3184 289.51 94.2324 289.33 94.0605C289.15 93.8887 289.061 93.6426 289.061 93.3223ZM296.871 99L300.398 90.9961H295.553V90.4336H301.096V90.8613L297.557 99H296.871ZM302.719 98.543C302.719 98.1602 302.875 97.9688 303.188 97.9688C303.508 97.9688 303.668 98.1602 303.668 98.543C303.668 98.9258 303.508 99.1172 303.188 99.1172C302.875 99.1172 302.719 98.9258 302.719 98.543ZM307.775 93.8496C308.689 93.8496 309.408 94.0703 309.932 94.5117C310.459 94.9531 310.723 95.5605 310.723 96.334C310.723 97.2129 310.449 97.8965 309.902 98.3848C309.355 98.873 308.602 99.1172 307.641 99.1172C307.215 99.1172 306.811 99.0762 306.428 98.9941C306.045 98.9082 305.725 98.7871 305.467 98.6309V98.0273C305.889 98.2422 306.264 98.3926 306.592 98.4785C306.92 98.5605 307.27 98.6016 307.641 98.6016C308.391 98.6016 308.992 98.4043 309.445 98.0098C309.898 97.6113 310.125 97.0742 310.125 96.3984C310.125 95.7617 309.904 95.2617 309.463 94.8984C309.021 94.5352 308.422 94.3535 307.664 94.3535C307.156 94.3535 306.625 94.4297 306.07 94.582L305.719 94.3535L306.059 90.4336H310.184V90.9961H306.609L306.346 94.0195C306.955 93.9062 307.432 93.8496 307.775 93.8496ZM316.465 99L313.271 91.0898H313.225C313.256 91.5742 313.271 92.0703 313.271 92.5781V99H312.697V90.4336H313.623L316.658 97.9688H316.693L319.729 90.4336H320.631V99H320.027V92.5078C320.027 92.0547 320.051 91.5859 320.098 91.1016H320.051L316.846 99H316.465ZM325.5 96V95.5195H328.283V96H325.5ZM338.016 94.0664C338.016 95.1914 337.867 96.1328 337.57 96.8906C337.277 97.6484 336.848 98.209 336.281 98.5723C335.719 98.9355 335.037 99.1172 334.236 99.1172C333.83 99.1172 333.455 99.0664 333.111 98.9648V98.4609C333.279 98.5156 333.48 98.5586 333.715 98.5898C333.953 98.6172 334.135 98.6309 334.26 98.6309C335.225 98.6309 335.98 98.2832 336.527 97.5879C337.074 96.8887 337.379 95.8711 337.441 94.5352H337.371C337.086 94.9102 336.746 95.1992 336.352 95.4023C335.957 95.6016 335.545 95.7012 335.115 95.7012C334.322 95.7012 333.703 95.4824 333.258 95.0449C332.816 94.6074 332.596 93.9863 332.596 93.1816C332.596 92.3223 332.838 91.627 333.322 91.0957C333.811 90.5645 334.443 90.2988 335.221 90.2988C335.783 90.2988 336.275 90.4473 336.697 90.7441C337.119 91.0371 337.443 91.4688 337.67 92.0391C337.9 92.6094 338.016 93.2852 338.016 94.0664ZM335.221 90.8145C334.604 90.8145 334.111 91.0234 333.744 91.4414C333.377 91.8555 333.193 92.4238 333.193 93.1465C333.193 93.8262 333.363 94.3418 333.703 94.6934C334.043 95.0449 334.529 95.2207 335.162 95.2207C335.557 95.2207 335.924 95.1328 336.264 94.957C336.607 94.7812 336.879 94.5488 337.078 94.2598C337.281 93.9668 337.383 93.6699 337.383 93.3691C337.383 92.9121 337.291 92.4844 337.107 92.0859C336.928 91.6875 336.674 91.377 336.346 91.1543C336.021 90.9277 335.646 90.8145 335.221 90.8145ZM339.75 98.543C339.75 98.1602 339.906 97.9688 340.219 97.9688C340.539 97.9688 340.699 98.1602 340.699 98.543C340.699 98.9258 340.539 99.1172 340.219 99.1172C339.906 99.1172 339.75 98.9258 339.75 98.543ZM344.807 93.8496C345.721 93.8496 346.439 94.0703 346.963 94.5117C347.49 94.9531 347.754 95.5605 347.754 96.334C347.754 97.2129 347.48 97.8965 346.934 98.3848C346.387 98.873 345.633 99.1172 344.672 99.1172C344.246 99.1172 343.842 99.0762 343.459 98.9941C343.076 98.9082 342.756 98.7871 342.498 98.6309V98.0273C342.92 98.2422 343.295 98.3926 343.623 98.4785C343.951 98.5605 344.301 98.6016 344.672 98.6016C345.422 98.6016 346.023 98.4043 346.477 98.0098C346.93 97.6113 347.156 97.0742 347.156 96.3984C347.156 95.7617 346.936 95.2617 346.494 94.8984C346.053 94.5352 345.453 94.3535 344.695 94.3535C344.188 94.3535 343.656 94.4297 343.102 94.582L342.75 94.3535L343.09 90.4336H347.215V90.9961H343.641L343.377 94.0195C343.986 93.9062 344.463 93.8496 344.807 93.8496ZM349.752 92.9883C349.752 93.7148 349.84 94.2617 350.016 94.6289C350.191 94.9922 350.467 95.1738 350.842 95.1738C351.596 95.1738 351.973 94.4453 351.973 92.9883C351.973 92.2695 351.875 91.7305 351.68 91.3711C351.488 91.0078 351.209 90.8262 350.842 90.8262C350.467 90.8262 350.191 91.0078 350.016 91.3711C349.84 91.7305 349.752 92.2695 349.752 92.9883ZM352.547 92.9883C352.547 93.8711 352.4 94.543 352.107 95.0039C351.814 95.4609 351.393 95.6895 350.842 95.6895C350.322 95.6895 349.914 95.4551 349.617 94.9863C349.324 94.5137 349.178 93.8477 349.178 92.9883C349.178 92.1172 349.318 91.4531 349.6 90.9961C349.881 90.5391 350.295 90.3105 350.842 90.3105C351.385 90.3105 351.805 90.5469 352.102 91.0195C352.398 91.4883 352.547 92.1445 352.547 92.9883ZM354.744 96.4336C354.744 97.1562 354.832 97.6992 355.008 98.0625C355.184 98.4219 355.459 98.6016 355.834 98.6016C356.588 98.6016 356.965 97.8789 356.965 96.4336C356.965 94.9922 356.588 94.2715 355.834 94.2715C355.459 94.2715 355.184 94.4512 355.008 94.8105C354.832 95.166 354.744 95.707 354.744 96.4336ZM357.539 96.4336C357.539 97.3164 357.395 97.9883 357.105 98.4492C356.816 98.9062 356.396 99.1348 355.846 99.1348C355.314 99.1348 354.902 98.8984 354.609 98.4258C354.316 97.9492 354.17 97.2852 354.17 96.4336C354.17 95.5547 354.312 94.8887 354.598 94.4355C354.887 93.9824 355.303 93.7559 355.846 93.7559C356.381 93.7559 356.797 93.9902 357.094 94.459C357.391 94.9277 357.539 95.5859 357.539 96.4336ZM356.016 90.4336L351.264 99H350.701L355.453 90.4336H356.016Z" fill="white"/>
<path d="M201.322 120L200.701 117.961H197.578L196.957 120H195L198.023 111.398H200.244L203.279 120H201.322ZM200.268 116.438C199.693 114.59 199.369 113.545 199.295 113.303C199.225 113.061 199.174 112.869 199.143 112.729C199.014 113.229 198.645 114.465 198.035 116.438H200.268ZM207.615 115.189H211.014V119.631C210.463 119.811 209.943 119.936 209.455 120.006C208.971 120.08 208.475 120.117 207.967 120.117C206.674 120.117 205.686 119.738 205.002 118.98C204.322 118.219 203.982 117.127 203.982 115.705C203.982 114.322 204.377 113.244 205.166 112.471C205.959 111.697 207.057 111.311 208.459 111.311C209.338 111.311 210.186 111.486 211.002 111.838L210.398 113.291C209.773 112.979 209.123 112.822 208.447 112.822C207.662 112.822 207.033 113.086 206.561 113.613C206.088 114.141 205.852 114.85 205.852 115.74C205.852 116.67 206.041 117.381 206.42 117.873C206.803 118.361 207.357 118.605 208.084 118.605C208.463 118.605 208.848 118.566 209.238 118.488V116.701H207.615V115.189ZM221.232 117.621C221.232 118.395 220.953 119.004 220.395 119.449C219.84 119.895 219.066 120.117 218.074 120.117C217.16 120.117 216.352 119.945 215.648 119.602V117.914C216.227 118.172 216.715 118.354 217.113 118.459C217.516 118.564 217.883 118.617 218.215 118.617C218.613 118.617 218.918 118.541 219.129 118.389C219.344 118.236 219.451 118.01 219.451 117.709C219.451 117.541 219.404 117.393 219.311 117.264C219.217 117.131 219.078 117.004 218.895 116.883C218.715 116.762 218.346 116.568 217.787 116.303C217.264 116.057 216.871 115.82 216.609 115.594C216.348 115.367 216.139 115.104 215.982 114.803C215.826 114.502 215.748 114.15 215.748 113.748C215.748 112.99 216.004 112.395 216.516 111.961C217.031 111.527 217.742 111.311 218.648 111.311C219.094 111.311 219.518 111.363 219.92 111.469C220.326 111.574 220.75 111.723 221.191 111.914L220.605 113.326C220.148 113.139 219.77 113.008 219.469 112.934C219.172 112.859 218.879 112.822 218.59 112.822C218.246 112.822 217.982 112.902 217.799 113.062C217.615 113.223 217.523 113.432 217.523 113.689C217.523 113.85 217.561 113.99 217.635 114.111C217.709 114.229 217.826 114.344 217.986 114.457C218.15 114.566 218.535 114.766 219.141 115.055C219.941 115.438 220.49 115.822 220.787 116.209C221.084 116.592 221.232 117.062 221.232 117.621ZM228.691 120H226.904V116.174C226.904 115.229 226.553 114.756 225.85 114.756C225.35 114.756 224.988 114.926 224.766 115.266C224.543 115.605 224.432 116.156 224.432 116.918V120H222.645V110.883H224.432V112.74C224.432 112.885 224.418 113.225 224.391 113.76L224.35 114.287H224.443C224.842 113.646 225.475 113.326 226.342 113.326C227.111 113.326 227.695 113.533 228.094 113.947C228.492 114.361 228.691 114.955 228.691 115.729V120ZM234.691 120L234.346 119.109H234.299C233.998 119.488 233.688 119.752 233.367 119.9C233.051 120.045 232.637 120.117 232.125 120.117C231.496 120.117 231 119.938 230.637 119.578C230.277 119.219 230.098 118.707 230.098 118.043C230.098 117.348 230.34 116.836 230.824 116.508C231.312 116.176 232.047 115.992 233.027 115.957L234.164 115.922V115.635C234.164 114.971 233.824 114.639 233.145 114.639C232.621 114.639 232.006 114.797 231.299 115.113L230.707 113.906C231.461 113.512 232.297 113.314 233.215 113.314C234.094 113.314 234.768 113.506 235.236 113.889C235.705 114.271 235.939 114.854 235.939 115.635V120H234.691ZM234.164 116.965L233.473 116.988C232.953 117.004 232.566 117.098 232.312 117.27C232.059 117.441 231.932 117.703 231.932 118.055C231.932 118.559 232.221 118.811 232.799 118.811C233.213 118.811 233.543 118.691 233.789 118.453C234.039 118.215 234.164 117.898 234.164 117.504V116.965ZM241.441 113.326C241.684 113.326 241.885 113.344 242.045 113.379L241.91 115.055C241.766 115.016 241.59 114.996 241.383 114.996C240.812 114.996 240.367 115.143 240.047 115.436C239.73 115.729 239.572 116.139 239.572 116.666V120H237.785V113.449H239.139L239.402 114.551H239.49C239.693 114.184 239.967 113.889 240.311 113.666C240.658 113.439 241.035 113.326 241.441 113.326ZM245.947 114.598C245.568 114.598 245.271 114.719 245.057 114.961C244.842 115.199 244.719 115.539 244.688 115.98H247.195C247.188 115.539 247.072 115.199 246.85 114.961C246.627 114.719 246.326 114.598 245.947 114.598ZM246.199 120.117C245.145 120.117 244.32 119.826 243.727 119.244C243.133 118.662 242.836 117.838 242.836 116.771C242.836 115.674 243.109 114.826 243.656 114.229C244.207 113.627 244.967 113.326 245.936 113.326C246.861 113.326 247.582 113.59 248.098 114.117C248.613 114.645 248.871 115.373 248.871 116.303V117.17H244.646C244.666 117.678 244.816 118.074 245.098 118.359C245.379 118.645 245.773 118.787 246.281 118.787C246.676 118.787 247.049 118.746 247.4 118.664C247.752 118.582 248.119 118.451 248.502 118.271V119.654C248.189 119.811 247.855 119.926 247.5 120C247.145 120.078 246.711 120.117 246.199 120.117ZM256.371 120H254.584V116.174C254.584 115.229 254.232 114.756 253.529 114.756C253.029 114.756 252.668 114.926 252.445 115.266C252.223 115.605 252.111 116.156 252.111 116.918V120H250.324V110.883H252.111V112.74C252.111 112.885 252.098 113.225 252.07 113.76L252.029 114.287H252.123C252.521 113.646 253.154 113.326 254.021 113.326C254.791 113.326 255.375 113.533 255.773 113.947C256.172 114.361 256.371 114.955 256.371 115.729V120ZM259.635 116.713C259.635 117.361 259.74 117.852 259.951 118.184C260.166 118.516 260.514 118.682 260.994 118.682C261.471 118.682 261.812 118.518 262.02 118.189C262.23 117.857 262.336 117.365 262.336 116.713C262.336 116.064 262.23 115.578 262.02 115.254C261.809 114.93 261.463 114.768 260.982 114.768C260.506 114.768 260.162 114.93 259.951 115.254C259.74 115.574 259.635 116.061 259.635 116.713ZM264.164 116.713C264.164 117.779 263.883 118.613 263.32 119.215C262.758 119.816 261.975 120.117 260.971 120.117C260.342 120.117 259.787 119.98 259.307 119.707C258.826 119.43 258.457 119.033 258.199 118.518C257.941 118.002 257.812 117.4 257.812 116.713C257.812 115.643 258.092 114.811 258.65 114.217C259.209 113.623 259.994 113.326 261.006 113.326C261.635 113.326 262.189 113.463 262.67 113.736C263.15 114.01 263.52 114.402 263.777 114.914C264.035 115.426 264.164 116.025 264.164 116.713ZM267.428 120H265.641V110.883H267.428V120ZM271.383 120.117C270.613 120.117 270.008 119.818 269.566 119.221C269.129 118.623 268.91 117.795 268.91 116.736C268.91 115.662 269.133 114.826 269.578 114.229C270.027 113.627 270.645 113.326 271.43 113.326C272.254 113.326 272.883 113.646 273.316 114.287H273.375C273.285 113.799 273.24 113.363 273.24 112.98V110.883H275.033V120H273.662L273.316 119.15H273.24C272.834 119.795 272.215 120.117 271.383 120.117ZM272.01 118.693C272.467 118.693 272.801 118.561 273.012 118.295C273.227 118.029 273.344 117.578 273.363 116.941V116.748C273.363 116.045 273.254 115.541 273.035 115.236C272.82 114.932 272.469 114.779 271.98 114.779C271.582 114.779 271.271 114.949 271.049 115.289C270.83 115.625 270.721 116.115 270.721 116.76C270.721 117.404 270.832 117.889 271.055 118.213C271.277 118.533 271.596 118.693 272.01 118.693ZM279.615 114.598C279.236 114.598 278.939 114.719 278.725 114.961C278.51 115.199 278.387 115.539 278.355 115.98H280.863C280.855 115.539 280.74 115.199 280.518 114.961C280.295 114.719 279.994 114.598 279.615 114.598ZM279.867 120.117C278.812 120.117 277.988 119.826 277.395 119.244C276.801 118.662 276.504 117.838 276.504 116.771C276.504 115.674 276.777 114.826 277.324 114.229C277.875 113.627 278.635 113.326 279.604 113.326C280.529 113.326 281.25 113.59 281.766 114.117C282.281 114.645 282.539 115.373 282.539 116.303V117.17H278.314C278.334 117.678 278.484 118.074 278.766 118.359C279.047 118.645 279.441 118.787 279.949 118.787C280.344 118.787 280.717 118.746 281.068 118.664C281.42 118.582 281.787 118.451 282.17 118.271V119.654C281.857 119.811 281.523 119.926 281.168 120C280.812 120.078 280.379 120.117 279.867 120.117ZM287.648 113.326C287.891 113.326 288.092 113.344 288.252 113.379L288.117 115.055C287.973 115.016 287.797 114.996 287.59 114.996C287.02 114.996 286.574 115.143 286.254 115.436C285.938 115.729 285.779 116.139 285.779 116.666V120H283.992V113.449H285.346L285.609 114.551H285.697C285.9 114.184 286.174 113.889 286.518 113.666C286.865 113.439 287.242 113.326 287.648 113.326ZM294.012 118.055C294.012 118.727 293.777 119.238 293.309 119.59C292.844 119.941 292.146 120.117 291.217 120.117C290.74 120.117 290.334 120.084 289.998 120.018C289.662 119.955 289.348 119.861 289.055 119.736V118.26C289.387 118.416 289.76 118.547 290.174 118.652C290.592 118.758 290.959 118.811 291.275 118.811C291.924 118.811 292.248 118.623 292.248 118.248C292.248 118.107 292.205 117.994 292.119 117.908C292.033 117.818 291.885 117.719 291.674 117.609C291.463 117.496 291.182 117.365 290.83 117.217C290.326 117.006 289.955 116.811 289.717 116.631C289.482 116.451 289.311 116.246 289.201 116.016C289.096 115.781 289.043 115.494 289.043 115.154C289.043 114.572 289.268 114.123 289.717 113.807C290.17 113.486 290.811 113.326 291.639 113.326C292.428 113.326 293.195 113.498 293.941 113.842L293.402 115.131C293.074 114.99 292.768 114.875 292.482 114.785C292.197 114.695 291.906 114.65 291.609 114.65C291.082 114.65 290.818 114.793 290.818 115.078C290.818 115.238 290.902 115.377 291.07 115.494C291.242 115.611 291.615 115.785 292.189 116.016C292.701 116.223 293.076 116.416 293.314 116.596C293.553 116.775 293.729 116.982 293.842 117.217C293.955 117.451 294.012 117.73 294.012 118.055ZM295.154 119.162C295.154 118.834 295.242 118.586 295.418 118.418C295.594 118.25 295.85 118.166 296.186 118.166C296.51 118.166 296.76 118.252 296.936 118.424C297.115 118.596 297.205 118.842 297.205 119.162C297.205 119.471 297.115 119.715 296.936 119.895C296.756 120.07 296.506 120.158 296.186 120.158C295.857 120.158 295.604 120.072 295.424 119.9C295.244 119.725 295.154 119.479 295.154 119.162ZM295.154 114.322C295.154 113.994 295.242 113.746 295.418 113.578C295.594 113.41 295.85 113.326 296.186 113.326C296.51 113.326 296.76 113.412 296.936 113.584C297.115 113.756 297.205 114.002 297.205 114.322C297.205 114.639 297.113 114.885 296.93 115.061C296.75 115.232 296.502 115.318 296.186 115.318C295.857 115.318 295.604 115.232 295.424 115.061C295.244 114.889 295.154 114.643 295.154 114.322ZM305.004 120H304.43V113.76C304.43 113.193 304.453 112.605 304.5 111.996C304.441 112.055 304.381 112.111 304.318 112.166C304.256 112.221 303.652 112.695 302.508 113.59L302.174 113.174L304.5 111.434H305.004V120ZM311.01 114.85C311.924 114.85 312.643 115.07 313.166 115.512C313.693 115.953 313.957 116.561 313.957 117.334C313.957 118.213 313.684 118.896 313.137 119.385C312.59 119.873 311.836 120.117 310.875 120.117C310.449 120.117 310.045 120.076 309.662 119.994C309.279 119.908 308.959 119.787 308.701 119.631V119.027C309.123 119.242 309.498 119.393 309.826 119.479C310.154 119.561 310.504 119.602 310.875 119.602C311.625 119.602 312.227 119.404 312.68 119.01C313.133 118.611 313.359 118.074 313.359 117.398C313.359 116.762 313.139 116.262 312.697 115.898C312.256 115.535 311.656 115.354 310.898 115.354C310.391 115.354 309.859 115.43 309.305 115.582L308.953 115.354L309.293 111.434H313.418V111.996H309.844L309.58 115.02C310.189 114.906 310.666 114.85 311.01 114.85ZM315.668 119.543C315.668 119.16 315.824 118.969 316.137 118.969C316.457 118.969 316.617 119.16 316.617 119.543C316.617 119.926 316.457 120.117 316.137 120.117C315.824 120.117 315.668 119.926 315.668 119.543ZM323.602 120H318.24V119.484L320.52 117.105C321.16 116.441 321.609 115.934 321.867 115.582C322.125 115.23 322.314 114.895 322.436 114.574C322.557 114.254 322.617 113.918 322.617 113.566C322.617 113.055 322.449 112.639 322.113 112.318C321.777 111.998 321.342 111.838 320.807 111.838C320.092 111.838 319.408 112.098 318.756 112.617L318.439 112.213C319.154 111.611 319.947 111.311 320.818 111.311C321.564 111.311 322.15 111.51 322.576 111.908C323.006 112.307 323.221 112.855 323.221 113.555C323.221 114.121 323.076 114.67 322.787 115.201C322.502 115.729 321.979 116.381 321.217 117.158L319.02 119.414V119.438H323.602V120ZM327.58 114.85C328.494 114.85 329.213 115.07 329.736 115.512C330.264 115.953 330.527 116.561 330.527 117.334C330.527 118.213 330.254 118.896 329.707 119.385C329.16 119.873 328.406 120.117 327.445 120.117C327.02 120.117 326.615 120.076 326.232 119.994C325.85 119.908 325.529 119.787 325.271 119.631V119.027C325.693 119.242 326.068 119.393 326.396 119.479C326.725 119.561 327.074 119.602 327.445 119.602C328.195 119.602 328.797 119.404 329.25 119.01C329.703 118.611 329.93 118.074 329.93 117.398C329.93 116.762 329.709 116.262 329.268 115.898C328.826 115.535 328.227 115.354 327.469 115.354C326.961 115.354 326.43 115.43 325.875 115.582L325.523 115.354L325.863 111.434H329.988V111.996H326.414L326.15 115.02C326.76 114.906 327.236 114.85 327.58 114.85ZM336.27 120L333.076 112.09H333.029C333.061 112.574 333.076 113.07 333.076 113.578V120H332.502V111.434H333.428L336.463 118.969H336.498L339.533 111.434H340.436V120H339.832V113.508C339.832 113.055 339.855 112.586 339.902 112.102H339.855L336.65 120H336.27ZM345.305 117V116.52H348.088V117H345.305ZM355.746 120H355.172V113.76C355.172 113.193 355.195 112.605 355.242 111.996C355.184 112.055 355.123 112.111 355.061 112.166C354.998 112.221 354.395 112.695 353.25 113.59L352.916 113.174L355.242 111.434H355.746V120ZM364.676 115.066C364.676 116.191 364.527 117.133 364.23 117.891C363.938 118.648 363.508 119.209 362.941 119.572C362.379 119.936 361.697 120.117 360.896 120.117C360.49 120.117 360.115 120.066 359.771 119.965V119.461C359.939 119.516 360.141 119.559 360.375 119.59C360.613 119.617 360.795 119.631 360.92 119.631C361.885 119.631 362.641 119.283 363.188 118.588C363.734 117.889 364.039 116.871 364.102 115.535H364.031C363.746 115.91 363.406 116.199 363.012 116.402C362.617 116.602 362.205 116.701 361.775 116.701C360.982 116.701 360.363 116.482 359.918 116.045C359.477 115.607 359.256 114.986 359.256 114.182C359.256 113.322 359.498 112.627 359.982 112.096C360.471 111.564 361.104 111.299 361.881 111.299C362.443 111.299 362.936 111.447 363.357 111.744C363.779 112.037 364.104 112.469 364.33 113.039C364.561 113.609 364.676 114.285 364.676 115.066ZM361.881 111.814C361.264 111.814 360.771 112.023 360.404 112.441C360.037 112.855 359.854 113.424 359.854 114.146C359.854 114.826 360.023 115.342 360.363 115.693C360.703 116.045 361.189 116.221 361.822 116.221C362.217 116.221 362.584 116.133 362.924 115.957C363.268 115.781 363.539 115.549 363.738 115.26C363.941 114.967 364.043 114.67 364.043 114.369C364.043 113.912 363.951 113.484 363.768 113.086C363.588 112.688 363.334 112.377 363.006 112.154C362.682 111.928 362.307 111.814 361.881 111.814ZM366.41 119.543C366.41 119.16 366.566 118.969 366.879 118.969C367.199 118.969 367.359 119.16 367.359 119.543C367.359 119.926 367.199 120.117 366.879 120.117C366.566 120.117 366.41 119.926 366.41 119.543ZM374.057 113.449C374.057 113.98 373.889 114.428 373.553 114.791C373.221 115.154 372.773 115.387 372.211 115.488V115.523C372.898 115.609 373.422 115.828 373.781 116.18C374.141 116.531 374.32 117.004 374.32 117.598C374.32 118.398 374.047 119.02 373.5 119.461C372.957 119.898 372.174 120.117 371.15 120.117C370.279 120.117 369.52 119.955 368.871 119.631V119.051C369.199 119.223 369.566 119.357 369.973 119.455C370.383 119.553 370.768 119.602 371.127 119.602C371.99 119.602 372.639 119.428 373.072 119.08C373.506 118.729 373.723 118.234 373.723 117.598C373.723 117.031 373.5 116.596 373.055 116.291C372.613 115.986 371.963 115.834 371.104 115.834H370.178V115.271H371.115C371.826 115.271 372.389 115.104 372.803 114.768C373.221 114.428 373.43 113.969 373.43 113.391C373.43 112.914 373.26 112.533 372.92 112.248C372.584 111.959 372.143 111.814 371.596 111.814C371.17 111.814 370.781 111.875 370.43 111.996C370.078 112.113 369.684 112.316 369.246 112.605L368.959 112.213C369.291 111.936 369.691 111.717 370.16 111.557C370.629 111.393 371.104 111.311 371.584 111.311C372.373 111.311 372.982 111.498 373.412 111.873C373.842 112.244 374.057 112.77 374.057 113.449ZM376.412 113.988C376.412 114.715 376.5 115.262 376.676 115.629C376.852 115.992 377.127 116.174 377.502 116.174C378.256 116.174 378.633 115.445 378.633 113.988C378.633 113.27 378.535 112.73 378.34 112.371C378.148 112.008 377.869 111.826 377.502 111.826C377.127 111.826 376.852 112.008 376.676 112.371C376.5 112.73 376.412 113.27 376.412 113.988ZM379.207 113.988C379.207 114.871 379.061 115.543 378.768 116.004C378.475 116.461 378.053 116.689 377.502 116.689C376.982 116.689 376.574 116.455 376.277 115.986C375.984 115.514 375.838 114.848 375.838 113.988C375.838 113.117 375.979 112.453 376.26 111.996C376.541 111.539 376.955 111.311 377.502 111.311C378.045 111.311 378.465 111.547 378.762 112.02C379.059 112.488 379.207 113.145 379.207 113.988ZM381.404 117.434C381.404 118.156 381.492 118.699 381.668 119.062C381.844 119.422 382.119 119.602 382.494 119.602C383.248 119.602 383.625 118.879 383.625 117.434C383.625 115.992 383.248 115.271 382.494 115.271C382.119 115.271 381.844 115.451 381.668 115.811C381.492 116.166 381.404 116.707 381.404 117.434ZM384.199 117.434C384.199 118.316 384.055 118.988 383.766 119.449C383.477 119.906 383.057 120.135 382.506 120.135C381.975 120.135 381.562 119.898 381.27 119.426C380.977 118.949 380.83 118.285 380.83 117.434C380.83 116.555 380.973 115.889 381.258 115.436C381.547 114.982 381.963 114.756 382.506 114.756C383.041 114.756 383.457 114.99 383.754 115.459C384.051 115.928 384.199 116.586 384.199 117.434ZM382.676 111.434L377.924 120H377.361L382.113 111.434H382.676Z" fill="white"/>
<path d="M201.322 141L200.701 138.961H197.578L196.957 141H195L198.023 132.398H200.244L203.279 141H201.322ZM200.268 137.438C199.693 135.59 199.369 134.545 199.295 134.303C199.225 134.061 199.174 133.869 199.143 133.729C199.014 134.229 198.645 135.465 198.035 137.438H200.268ZM207.615 136.189H211.014V140.631C210.463 140.811 209.943 140.936 209.455 141.006C208.971 141.08 208.475 141.117 207.967 141.117C206.674 141.117 205.686 140.738 205.002 139.98C204.322 139.219 203.982 138.127 203.982 136.705C203.982 135.322 204.377 134.244 205.166 133.471C205.959 132.697 207.057 132.311 208.459 132.311C209.338 132.311 210.186 132.486 211.002 132.838L210.398 134.291C209.773 133.979 209.123 133.822 208.447 133.822C207.662 133.822 207.033 134.086 206.561 134.613C206.088 135.141 205.852 135.85 205.852 136.74C205.852 137.67 206.041 138.381 206.42 138.873C206.803 139.361 207.357 139.605 208.084 139.605C208.463 139.605 208.848 139.566 209.238 139.488V137.701H207.615V136.189ZM219.48 141H217.664V133.945H215.338V132.434H221.807V133.945H219.48V141ZM225.697 135.598C225.318 135.598 225.021 135.719 224.807 135.961C224.592 136.199 224.469 136.539 224.438 136.98H226.945C226.938 136.539 226.822 136.199 226.6 135.961C226.377 135.719 226.076 135.598 225.697 135.598ZM225.949 141.117C224.895 141.117 224.07 140.826 223.477 140.244C222.883 139.662 222.586 138.838 222.586 137.771C222.586 136.674 222.859 135.826 223.406 135.229C223.957 134.627 224.717 134.326 225.686 134.326C226.611 134.326 227.332 134.59 227.848 135.117C228.363 135.645 228.621 136.373 228.621 137.303V138.17H224.396C224.416 138.678 224.566 139.074 224.848 139.359C225.129 139.645 225.523 139.787 226.031 139.787C226.426 139.787 226.799 139.746 227.15 139.664C227.502 139.582 227.869 139.451 228.252 139.271V140.654C227.939 140.811 227.605 140.926 227.25 141C226.895 141.078 226.461 141.117 225.949 141.117ZM234.234 141L233.889 140.109H233.842C233.541 140.488 233.23 140.752 232.91 140.9C232.594 141.045 232.18 141.117 231.668 141.117C231.039 141.117 230.543 140.938 230.18 140.578C229.82 140.219 229.641 139.707 229.641 139.043C229.641 138.348 229.883 137.836 230.367 137.508C230.855 137.176 231.59 136.992 232.57 136.957L233.707 136.922V136.635C233.707 135.971 233.367 135.639 232.688 135.639C232.164 135.639 231.549 135.797 230.842 136.113L230.25 134.906C231.004 134.512 231.84 134.314 232.758 134.314C233.637 134.314 234.311 134.506 234.779 134.889C235.248 135.271 235.482 135.854 235.482 136.635V141H234.234ZM233.707 137.965L233.016 137.988C232.496 138.004 232.109 138.098 231.855 138.27C231.602 138.441 231.475 138.703 231.475 139.055C231.475 139.559 231.764 139.811 232.342 139.811C232.756 139.811 233.086 139.691 233.332 139.453C233.582 139.215 233.707 138.898 233.707 138.504V137.965ZM243.193 141H241.406V137.174C241.406 136.701 241.326 136.348 241.166 136.113C241.01 135.875 240.762 135.756 240.422 135.756C239.965 135.756 239.633 135.924 239.426 136.26C239.219 136.596 239.115 137.148 239.115 137.918V141H237.328V134.449H238.693L238.934 135.287H239.033C239.209 134.986 239.463 134.752 239.795 134.584C240.127 134.412 240.508 134.326 240.938 134.326C241.918 134.326 242.582 134.646 242.93 135.287H243.088C243.264 134.982 243.521 134.746 243.861 134.578C244.205 134.41 244.592 134.326 245.021 134.326C245.764 134.326 246.324 134.518 246.703 134.9C247.086 135.279 247.277 135.889 247.277 136.729V141H245.484V137.174C245.484 136.701 245.404 136.348 245.244 136.113C245.088 135.875 244.84 135.756 244.5 135.756C244.062 135.756 243.734 135.912 243.516 136.225C243.301 136.537 243.193 137.033 243.193 137.713V141ZM248.865 140.162C248.865 139.834 248.953 139.586 249.129 139.418C249.305 139.25 249.561 139.166 249.896 139.166C250.221 139.166 250.471 139.252 250.646 139.424C250.826 139.596 250.916 139.842 250.916 140.162C250.916 140.471 250.826 140.715 250.646 140.895C250.467 141.07 250.217 141.158 249.896 141.158C249.568 141.158 249.314 141.072 249.135 140.9C248.955 140.725 248.865 140.479 248.865 140.162ZM248.865 135.322C248.865 134.994 248.953 134.746 249.129 134.578C249.305 134.41 249.561 134.326 249.896 134.326C250.221 134.326 250.471 134.412 250.646 134.584C250.826 134.756 250.916 135.002 250.916 135.322C250.916 135.639 250.824 135.885 250.641 136.061C250.461 136.232 250.213 136.318 249.896 136.318C249.568 136.318 249.314 136.232 249.135 136.061C248.955 135.889 248.865 135.643 248.865 135.322ZM260.613 134.449C260.613 134.996 260.459 135.443 260.15 135.791C259.846 136.139 259.412 136.371 258.85 136.488V136.535C259.537 136.621 260.047 136.84 260.379 137.191C260.711 137.543 260.877 138.004 260.877 138.574C260.877 139.391 260.594 140.02 260.027 140.461C259.461 140.898 258.656 141.117 257.613 141.117C257.16 141.117 256.744 141.082 256.365 141.012C255.99 140.945 255.625 140.826 255.27 140.654V139.729C255.641 139.912 256.035 140.053 256.453 140.15C256.875 140.244 257.273 140.291 257.648 140.291C259.129 140.291 259.869 139.711 259.869 138.551C259.869 137.512 259.053 136.992 257.42 136.992H256.576V136.154H257.432C258.1 136.154 258.629 136.008 259.02 135.715C259.41 135.418 259.605 135.008 259.605 134.484C259.605 134.066 259.461 133.738 259.172 133.5C258.887 133.262 258.498 133.143 258.006 133.143C257.631 133.143 257.277 133.193 256.945 133.295C256.613 133.396 256.234 133.584 255.809 133.857L255.316 133.201C255.668 132.924 256.072 132.707 256.529 132.551C256.99 132.391 257.475 132.311 257.982 132.311C258.814 132.311 259.461 132.502 259.922 132.885C260.383 133.264 260.613 133.785 260.613 134.449ZM262.477 140.379C262.477 140.117 262.535 139.92 262.652 139.787C262.773 139.65 262.945 139.582 263.168 139.582C263.395 139.582 263.57 139.65 263.695 139.787C263.824 139.92 263.889 140.117 263.889 140.379C263.889 140.633 263.824 140.828 263.695 140.965C263.566 141.102 263.391 141.17 263.168 141.17C262.969 141.17 262.803 141.109 262.67 140.988C262.541 140.863 262.477 140.66 262.477 140.379ZM266.455 141L270.006 133.33H265.336V132.434H271.037V133.213L267.533 141H266.455ZM274.916 135.768C275.818 135.768 276.527 135.992 277.043 136.441C277.562 136.887 277.822 137.498 277.822 138.275C277.822 139.162 277.539 139.857 276.973 140.361C276.41 140.865 275.633 141.117 274.641 141.117C273.676 141.117 272.939 140.963 272.432 140.654V139.717C272.705 139.893 273.045 140.031 273.451 140.133C273.857 140.23 274.258 140.279 274.652 140.279C275.34 140.279 275.873 140.117 276.252 139.793C276.635 139.469 276.826 139 276.826 138.387C276.826 137.191 276.094 136.594 274.629 136.594C274.258 136.594 273.762 136.65 273.141 136.764L272.637 136.441L272.959 132.434H277.219V133.33H273.791L273.574 135.902C274.023 135.812 274.471 135.768 274.916 135.768ZM283.488 141L280.582 133.406H280.535C280.59 134.008 280.617 134.723 280.617 135.551V141H279.697V132.434H281.197L283.91 139.5H283.957L286.693 132.434H288.182V141H287.186V135.48C287.186 134.848 287.213 134.16 287.268 133.418H287.221L284.291 141H283.488ZM292.969 138.229V137.338H295.846V138.229H292.969ZM306.082 139.031H304.811V141H303.879V139.031H299.713V138.182L303.779 132.387H304.811V138.146H306.082V139.031ZM303.879 138.146V135.299C303.879 134.74 303.898 134.109 303.938 133.406H303.891C303.703 133.781 303.527 134.092 303.363 134.338L300.686 138.146H303.879ZM307.219 140.379C307.219 140.117 307.277 139.92 307.395 139.787C307.516 139.65 307.688 139.582 307.91 139.582C308.137 139.582 308.312 139.65 308.438 139.787C308.566 139.92 308.631 140.117 308.631 140.379C308.631 140.633 308.566 140.828 308.438 140.965C308.309 141.102 308.133 141.17 307.91 141.17C307.711 141.17 307.545 141.109 307.412 140.988C307.283 140.863 307.219 140.66 307.219 140.379ZM311.197 141L314.748 133.33H310.078V132.434H315.779V133.213L312.275 141H311.197ZM317.812 134.988C317.812 135.652 317.885 136.15 318.029 136.482C318.174 136.814 318.408 136.98 318.732 136.98C319.373 136.98 319.693 136.316 319.693 134.988C319.693 133.668 319.373 133.008 318.732 133.008C318.408 133.008 318.174 133.172 318.029 133.5C317.885 133.828 317.812 134.324 317.812 134.988ZM320.496 134.988C320.496 135.879 320.346 136.553 320.045 137.01C319.748 137.463 319.311 137.689 318.732 137.689C318.186 137.689 317.76 137.457 317.455 136.992C317.154 136.527 317.004 135.859 317.004 134.988C317.004 134.102 317.148 133.434 317.438 132.984C317.73 132.535 318.162 132.311 318.732 132.311C319.299 132.311 319.734 132.543 320.039 133.008C320.344 133.473 320.496 134.133 320.496 134.988ZM322.969 138.422C322.969 139.09 323.041 139.59 323.186 139.922C323.33 140.25 323.566 140.414 323.895 140.414C324.223 140.414 324.465 140.252 324.621 139.928C324.777 139.6 324.855 139.098 324.855 138.422C324.855 137.754 324.777 137.26 324.621 136.939C324.465 136.615 324.223 136.453 323.895 136.453C323.566 136.453 323.33 136.615 323.186 136.939C323.041 137.26 322.969 137.754 322.969 138.422ZM325.658 138.422C325.658 139.309 325.508 139.98 325.207 140.438C324.91 140.891 324.473 141.117 323.895 141.117C323.34 141.117 322.912 140.885 322.611 140.42C322.314 139.955 322.166 139.289 322.166 138.422C322.166 137.535 322.311 136.867 322.6 136.418C322.893 135.969 323.324 135.744 323.895 135.744C324.449 135.744 324.881 135.975 325.189 136.436C325.502 136.893 325.658 137.555 325.658 138.422ZM324.146 132.434L319.395 141H318.533L323.285 132.434H324.146Z" fill="white"/>
<path d="M79.9839 2C90.6054 1.99784 101.121 4.11082 110.917 8.21569L80.0002 82L79.9839 2Z" fill="url(#paint6_linear)"/>
<path d="M110.991 8.24658C123.266 13.4047 134.06 21.5453 142.394 31.9301C150.728 42.315 156.337 54.6157 158.715 67.7169C161.092 80.8182 160.161 94.3056 156.008 106.956C151.854 119.607 144.608 131.021 134.928 140.163L80 81.9999L110.991 8.24658Z" fill="url(#paint7_linear)"/>
<path d="M134.87 140.218C126.154 148.432 115.705 154.585 104.294 158.222C92.883 161.859 80.801 162.888 68.9394 161.232C57.0778 159.576 45.7394 155.278 35.7606 148.655C25.7819 142.032 17.4175 133.253 11.2847 122.966L80.0002 82L134.87 140.218Z" fill="url(#paint8_linear)"/>
<path d="M11.2436 122.897C3.07203 109.159 -0.796642 93.2876 0.136453 77.3301L80 82L11.2436 122.897Z" fill="url(#paint9_linear)"/>
<path d="M0.141113 77.2501C1.10798 60.9941 7.01286 45.4202 17.0668 32.6096C27.1206 19.7989 40.8447 10.3616 56.4051 5.55859L80 81.9999L0.141113 77.2501Z" fill="url(#paint10_linear)"/>
<path d="M56.4814 5.53501C64.0654 3.2024 71.9542 2.01102 79.8888 2L79.9999 81.9999L56.4814 5.53501Z" fill="url(#paint11_linear)"/>
<circle cx="79.8441" cy="81.8441" r="46.8441" fill="#1D1D1B"/>
<defs>
<filter id="filter0_d" x="140" y="0" width="70" height="64" filterUnits="userSpaceOnUse" color-interpolation-filters="sRGB">
<feFlood flood-opacity="0" result="BackgroundImageFix"/>
<feColorMatrix in="SourceAlpha" type="matrix" values="0 0 0 0 0 0 0 0 0 0 0 0 0 0 0 0 0 0 127 0"/>
<feOffset/>
<feGaussianBlur stdDeviation="15"/>
<feColorMatrix type="matrix" values="0 0 0 0 0 0 0 0 0 0 0 0 0 0 0 0 0 0 1 0"/>
<feBlend mode="normal" in2="BackgroundImageFix" result="effect1_dropShadow"/>
<feBlend mode="normal" in="SourceGraphic" in2="effect1_dropShadow" result="shape"/>
</filter>
<filter id="filter1_d" x="140" y="42" width="70" height="64" filterUnits="userSpaceOnUse" color-interpolation-filters="sRGB">
<feFlood flood-opacity="0" result="BackgroundImageFix"/>
<feColorMatrix in="SourceAlpha" type="matrix" values="0 0 0 0 0 0 0 0 0 0 0 0 0 0 0 0 0 0 127 0"/>
<feOffset/>
<feGaussianBlur stdDeviation="15"/>
<feColorMatrix type="matrix" values="0 0 0 0 0 0 0 0 0 0 0 0 0 0 0 0 0 0 1 0"/>
<feBlend mode="normal" in2="BackgroundImageFix" result="effect1_dropShadow"/>
<feBlend mode="normal" in="SourceGraphic" in2="effect1_dropShadow" result="shape"/>
</filter>
<filter id="filter2_d" x="140" y="64" width="70" height="64" filterUnits="userSpaceOnUse" color-interpolation-filters="sRGB">
<feFlood flood-opacity="0" result="BackgroundImageFix"/>
<feColorMatrix in="SourceAlpha" type="matrix" values="0 0 0 0 0 0 0 0 0 0 0 0 0 0 0 0 0 0 127 0"/>
<feOffset/>
<feGaussianBlur stdDeviation="15"/>
<feColorMatrix type="matrix" values="0 0 0 0 0 0 0 0 0 0 0 0 0 0 0 0 0 0 1 0"/>
<feBlend mode="normal" in2="BackgroundImageFix" result="effect1_dropShadow"/>
<feBlend mode="normal" in="SourceGraphic" in2="effect1_dropShadow" result="shape"/>
</filter>
<filter id="filter3_d" x="140" y="105" width="70" height="64" filterUnits="userSpaceOnUse" color-interpolation-filters="sRGB">
<feFlood flood-opacity="0" result="BackgroundImageFix"/>
<feColorMatrix in="SourceAlpha" type="matrix" values="0 0 0 0 0 0 0 0 0 0 0 0 0 0 0 0 0 0 127 0"/>
<feOffset/>
<feGaussianBlur stdDeviation="15"/>
<feColorMatrix type="matrix" values="0 0 0 0 0 0 0 0 0 0 0 0 0 0 0 0 0 0 1 0"/>
<feBlend mode="normal" in2="BackgroundImageFix" result="effect1_dropShadow"/>
<feBlend mode="normal" in="SourceGraphic" in2="effect1_dropShadow" result="shape"/>
</filter>
<linearGradient id="paint0_linear" x1="170" y1="34" x2="180" y2="34" gradientUnits="userSpaceOnUse">
<stop stop-color="#65A6F2"/>
<stop offset="1" stop-color="#22BBDD"/>
</linearGradient>
<linearGradient id="paint1_linear" x1="180" y1="55" x2="170" y2="55" gradientUnits="userSpaceOnUse">
<stop stop-color="#E01E73"/>
<stop offset="1" stop-color="#FF7272"/>
</linearGradient>
<linearGradient id="paint2_linear" x1="180" y1="76" x2="170" y2="76" gradientUnits="userSpaceOnUse">
<stop stop-color="#FF9D0A"/>
<stop offset="1" stop-color="#FEFFC7"/>
</linearGradient>
<linearGradient id="paint3_linear" x1="170" y1="98" x2="180" y2="98" gradientUnits="userSpaceOnUse">
<stop stop-color="#B4FABD"/>
<stop offset="1" stop-color="#22DD9A"/>
</linearGradient>
<linearGradient id="paint4_linear" x1="180" y1="119" x2="170" y2="119" gradientUnits="userSpaceOnUse">
<stop stop-color="#C41005"/>
<stop offset="1" stop-color="#DD5E16"/>
</linearGradient>
<linearGradient id="paint5_linear" x1="170" y1="139" x2="180" y2="139" gradientUnits="userSpaceOnUse">
<stop stop-color="#FA1DBC"/>
<stop offset="1" stop-color="#A122DD"/>
</linearGradient>
<linearGradient id="paint6_linear" x1="79.9839" y1="41.3443" x2="112.439" y2="41.3443" gradientUnits="userSpaceOnUse">
<stop stop-color="#65A6F2"/>
<stop offset="1" stop-color="#22BBDD"/>
</linearGradient>
<linearGradient id="paint7_linear" x1="80" y1="73.1235" x2="163.934" y2="73.1235" gradientUnits="userSpaceOnUse">
<stop stop-color="#FF7272"/>
<stop offset="1" stop-color="#E01E73"/>
</linearGradient>
<linearGradient id="paint8_linear" x1="11.2847" y1="121.344" x2="140.948" y2="121.344" gradientUnits="userSpaceOnUse">
<stop stop-color="#FEFFC7"/>
<stop offset="1" stop-color="#FF9D0A"/>
</linearGradient>
<linearGradient id="paint9_linear" x1="1.98028e-07" y1="99.74" x2="83.9344" y2="99.74" gradientUnits="userSpaceOnUse">
<stop stop-color="#B4FABD"/>
<stop offset="1" stop-color="#22DD9A"/>
</linearGradient>
<linearGradient id="paint10_linear" x1="0.141113" y1="43.1527" x2="83.9275" y2="43.1527" gradientUnits="userSpaceOnUse">
<stop stop-color="#C31005"/>
<stop offset="1" stop-color="#DD5E16"/>
</linearGradient>
<linearGradient id="paint11_linear" x1="68.2407" y1="2" x2="68.2407" y2="81.9999" gradientUnits="userSpaceOnUse">
<stop stop-color="#FA1DBC"/>
<stop offset="1" stop-color="#A122DD"/>
</linearGradient>
</defs>
</svg>
