<svg width="384" height="169" viewBox="0 0 384 169" fill="none" xmlns="http://www.w3.org/2000/svg">
<g filter="url(#filter0_d)">
<line x1="172" y1="32" x2="178" y2="32" stroke="url(#paint0_linear)" stroke-width="4" stroke-linecap="round"/>
</g>
<line x1="172" y1="53" x2="178" y2="53" stroke="url(#paint1_linear)" stroke-width="4" stroke-linecap="round"/>
<g filter="url(#filter1_d)">
<line x1="172" y1="74" x2="178" y2="74" stroke="url(#paint2_linear)" stroke-width="4" stroke-linecap="round" stroke-linejoin="round"/>
</g>
<g filter="url(#filter2_d)">
<line x1="172" y1="96" x2="178" y2="96" stroke="url(#paint3_linear)" stroke-width="4" stroke-linecap="round"/>
</g>
<line x1="172" y1="117" x2="178" y2="117" stroke="url(#paint4_linear)" stroke-width="4" stroke-linecap="round"/>
<g filter="url(#filter3_d)">
<line x1="172" y1="137" x2="178" y2="137" stroke="url(#paint5_linear)" stroke-width="4" stroke-linecap="round"/>
</g>
<path d="M197.895 31.4648H198.492C199.051 31.4648 199.469 31.3555 199.746 31.1367C200.023 30.9141 200.162 30.5918 200.162 30.1699C200.162 29.7441 200.045 29.4297 199.811 29.2266C199.58 29.0234 199.217 28.9219 198.721 28.9219H197.895V31.4648ZM201.996 30.1055C201.996 31.0273 201.707 31.7324 201.129 32.2207C200.555 32.709 199.736 32.9531 198.674 32.9531H197.895V36H196.078V27.4336H198.814C199.854 27.4336 200.643 27.6582 201.182 28.1074C201.725 28.5527 201.996 29.2188 201.996 30.1055ZM207.129 29.3262C207.371 29.3262 207.572 29.3438 207.732 29.3789L207.598 31.0547C207.453 31.0156 207.277 30.9961 207.07 30.9961C206.5 30.9961 206.055 31.1426 205.734 31.4355C205.418 31.7285 205.26 32.1387 205.26 32.666V36H203.473V29.4492H204.826L205.09 30.5508H205.178C205.381 30.1836 205.654 29.8887 205.998 29.666C206.346 29.4395 206.723 29.3262 207.129 29.3262ZM211.635 30.5977C211.256 30.5977 210.959 30.7188 210.744 30.9609C210.529 31.1992 210.406 31.5391 210.375 31.9805H212.883C212.875 31.5391 212.76 31.1992 212.537 30.9609C212.314 30.7188 212.014 30.5977 211.635 30.5977ZM211.887 36.1172C210.832 36.1172 210.008 35.8262 209.414 35.2441C208.82 34.6621 208.523 33.8379 208.523 32.7715C208.523 31.6738 208.797 30.8262 209.344 30.2285C209.895 29.627 210.654 29.3262 211.623 29.3262C212.549 29.3262 213.27 29.5898 213.785 30.1172C214.301 30.6445 214.559 31.373 214.559 32.3027V33.1699H210.334C210.354 33.6777 210.504 34.0742 210.785 34.3594C211.066 34.6445 211.461 34.7871 211.969 34.7871C212.363 34.7871 212.736 34.7461 213.088 34.6641C213.439 34.582 213.807 34.4512 214.189 34.2715V35.6543C213.877 35.8105 213.543 35.9258 213.188 36C212.832 36.0781 212.398 36.1172 211.887 36.1172ZM220.582 34.0547C220.582 34.7266 220.348 35.2383 219.879 35.5898C219.414 35.9414 218.717 36.1172 217.787 36.1172C217.311 36.1172 216.904 36.084 216.568 36.0176C216.232 35.9551 215.918 35.8613 215.625 35.7363V34.2598C215.957 34.416 216.33 34.5469 216.744 34.6523C217.162 34.7578 217.529 34.8105 217.846 34.8105C218.494 34.8105 218.818 34.623 218.818 34.248C218.818 34.1074 218.775 33.9941 218.689 33.9082C218.604 33.8184 218.455 33.7188 218.244 33.6094C218.033 33.4961 217.752 33.3652 217.4 33.2168C216.896 33.0059 216.525 32.8105 216.287 32.6309C216.053 32.4512 215.881 32.2461 215.771 32.0156C215.666 31.7812 215.613 31.4941 215.613 31.1543C215.613 30.5723 215.838 30.123 216.287 29.8066C216.74 29.4863 217.381 29.3262 218.209 29.3262C218.998 29.3262 219.766 29.498 220.512 29.8418L219.973 31.1309C219.645 30.9902 219.338 30.875 219.053 30.7852C218.768 30.6953 218.477 30.6504 218.18 30.6504C217.652 30.6504 217.389 30.793 217.389 31.0781C217.389 31.2383 217.473 31.377 217.641 31.4941C217.812 31.6113 218.186 31.7852 218.76 32.0156C219.271 32.2227 219.646 32.416 219.885 32.5957C220.123 32.7754 220.299 32.9824 220.412 33.2168C220.525 33.4512 220.582 33.7305 220.582 34.0547ZM226.137 36L225.791 35.1094H225.744C225.443 35.4883 225.133 35.752 224.812 35.9004C224.496 36.0449 224.082 36.1172 223.57 36.1172C222.941 36.1172 222.445 35.9375 222.082 35.5781C221.723 35.2188 221.543 34.707 221.543 34.043C221.543 33.3477 221.785 32.8359 222.27 32.5078C222.758 32.1758 223.492 31.9922 224.473 31.957L225.609 31.9219V31.6348C225.609 30.9707 225.27 30.6387 224.59 30.6387C224.066 30.6387 223.451 30.7969 222.744 31.1133L222.152 29.9062C222.906 29.5117 223.742 29.3145 224.66 29.3145C225.539 29.3145 226.213 29.5059 226.682 29.8887C227.15 30.2715 227.385 30.8535 227.385 31.6348V36H226.137ZM225.609 32.9648L224.918 32.9883C224.398 33.0039 224.012 33.0977 223.758 33.2695C223.504 33.4414 223.377 33.7031 223.377 34.0547C223.377 34.5586 223.666 34.8105 224.244 34.8105C224.658 34.8105 224.988 34.6914 225.234 34.4531C225.484 34.2148 225.609 33.8984 225.609 33.5039V32.9648ZM231.018 36H229.23V26.8828H231.018V36ZM235.611 30.5977C235.232 30.5977 234.936 30.7188 234.721 30.9609C234.506 31.1992 234.383 31.5391 234.352 31.9805H236.859C236.852 31.5391 236.736 31.1992 236.514 30.9609C236.291 30.7188 235.99 30.5977 235.611 30.5977ZM235.863 36.1172C234.809 36.1172 233.984 35.8262 233.391 35.2441C232.797 34.6621 232.5 33.8379 232.5 32.7715C232.5 31.6738 232.773 30.8262 233.32 30.2285C233.871 29.627 234.631 29.3262 235.6 29.3262C236.525 29.3262 237.246 29.5898 237.762 30.1172C238.277 30.6445 238.535 31.373 238.535 32.3027V33.1699H234.311C234.33 33.6777 234.48 34.0742 234.762 34.3594C235.043 34.6445 235.438 34.7871 235.945 34.7871C236.34 34.7871 236.713 34.7461 237.064 34.6641C237.416 34.582 237.783 34.4512 238.166 34.2715V35.6543C237.854 35.8105 237.52 35.9258 237.164 36C236.809 36.0781 236.375 36.1172 235.863 36.1172ZM239.736 35.1621C239.736 34.834 239.824 34.5859 240 34.418C240.176 34.25 240.432 34.166 240.768 34.166C241.092 34.166 241.342 34.252 241.518 34.4238C241.697 34.5957 241.787 34.8418 241.787 35.1621C241.787 35.4707 241.697 35.7148 241.518 35.8945C241.338 36.0703 241.088 36.1582 240.768 36.1582C240.439 36.1582 240.186 36.0723 240.006 35.9004C239.826 35.7246 239.736 35.4785 239.736 35.1621ZM239.736 30.3223C239.736 29.9941 239.824 29.7461 240 29.5781C240.176 29.4102 240.432 29.3262 240.768 29.3262C241.092 29.3262 241.342 29.4121 241.518 29.584C241.697 29.7559 241.787 30.002 241.787 30.3223C241.787 30.6387 241.695 30.8848 241.512 31.0605C241.332 31.2324 241.084 31.3184 240.768 31.3184C240.439 31.3184 240.186 31.2324 240.006 31.0605C239.826 30.8887 239.736 30.6426 239.736 30.3223ZM248.736 30.8496C249.65 30.8496 250.369 31.0703 250.893 31.5117C251.42 31.9531 251.684 32.5605 251.684 33.334C251.684 34.2129 251.41 34.8965 250.863 35.3848C250.316 35.873 249.562 36.1172 248.602 36.1172C248.176 36.1172 247.771 36.0762 247.389 35.9941C247.006 35.9082 246.686 35.7871 246.428 35.6309V35.0273C246.85 35.2422 247.225 35.3926 247.553 35.4785C247.881 35.5605 248.23 35.6016 248.602 35.6016C249.352 35.6016 249.953 35.4043 250.406 35.0098C250.859 34.6113 251.086 34.0742 251.086 33.3984C251.086 32.7617 250.865 32.2617 250.424 31.8984C249.982 31.5352 249.383 31.3535 248.625 31.3535C248.117 31.3535 247.586 31.4297 247.031 31.582L246.68 31.3535L247.02 27.4336H251.145V27.9961H247.57L247.307 31.0195C247.916 30.9062 248.393 30.8496 248.736 30.8496ZM257.426 36L254.232 28.0898H254.186C254.217 28.5742 254.232 29.0703 254.232 29.5781V36H253.658V27.4336H254.584L257.619 34.9688H257.654L260.689 27.4336H261.592V36H260.988V29.5078C260.988 29.0547 261.012 28.5859 261.059 28.1016H261.012L257.807 36H257.426ZM266.461 33V32.5195H269.244V33H266.461ZM276.053 30.8496C276.967 30.8496 277.686 31.0703 278.209 31.5117C278.736 31.9531 279 32.5605 279 33.334C279 34.2129 278.727 34.8965 278.18 35.3848C277.633 35.873 276.879 36.1172 275.918 36.1172C275.492 36.1172 275.088 36.0762 274.705 35.9941C274.322 35.9082 274.002 35.7871 273.744 35.6309V35.0273C274.166 35.2422 274.541 35.3926 274.869 35.4785C275.197 35.5605 275.547 35.6016 275.918 35.6016C276.668 35.6016 277.27 35.4043 277.723 35.0098C278.176 34.6113 278.402 34.0742 278.402 33.3984C278.402 32.7617 278.182 32.2617 277.74 31.8984C277.299 31.5352 276.699 31.3535 275.941 31.3535C275.434 31.3535 274.902 31.4297 274.348 31.582L273.996 31.3535L274.336 27.4336H278.461V27.9961H274.887L274.623 31.0195C275.232 30.9062 275.709 30.8496 276.053 30.8496ZM280.711 35.543C280.711 35.1602 280.867 34.9688 281.18 34.9688C281.5 34.9688 281.66 35.1602 281.66 35.543C281.66 35.9258 281.5 36.1172 281.18 36.1172C280.867 36.1172 280.711 35.9258 280.711 35.543ZM288.803 31.6934C288.803 33.1973 288.572 34.3105 288.111 35.0332C287.654 35.7559 286.961 36.1172 286.031 36.1172C285.137 36.1172 284.457 35.7461 283.992 35.0039C283.527 34.2578 283.295 33.1543 283.295 31.6934C283.295 30.2012 283.52 29.0957 283.969 28.377C284.422 27.6582 285.109 27.2988 286.031 27.2988C286.934 27.2988 287.621 27.6719 288.094 28.418C288.566 29.1602 288.803 30.252 288.803 31.6934ZM283.928 31.6934C283.928 33.0215 284.102 34.0039 284.449 34.6406C284.797 35.2734 285.324 35.5898 286.031 35.5898C286.77 35.5898 287.307 35.2617 287.643 34.6055C287.982 33.9492 288.152 32.9785 288.152 31.6934C288.152 30.4277 287.982 29.4668 287.643 28.8105C287.307 28.1543 286.77 27.8262 286.031 27.8262C285.293 27.8262 284.758 28.1543 284.426 28.8105C284.094 29.4668 283.928 30.4277 283.928 31.6934ZM290.713 29.9883C290.713 30.7148 290.801 31.2617 290.977 31.6289C291.152 31.9922 291.428 32.1738 291.803 32.1738C292.557 32.1738 292.934 31.4453 292.934 29.9883C292.934 29.2695 292.836 28.7305 292.641 28.3711C292.449 28.0078 292.17 27.8262 291.803 27.8262C291.428 27.8262 291.152 28.0078 290.977 28.3711C290.801 28.7305 290.713 29.2695 290.713 29.9883ZM293.508 29.9883C293.508 30.8711 293.361 31.543 293.068 32.0039C292.775 32.4609 292.354 32.6895 291.803 32.6895C291.283 32.6895 290.875 32.4551 290.578 31.9863C290.285 31.5137 290.139 30.8477 290.139 29.9883C290.139 29.1172 290.279 28.4531 290.561 27.9961C290.842 27.5391 291.256 27.3105 291.803 27.3105C292.346 27.3105 292.766 27.5469 293.062 28.0195C293.359 28.4883 293.508 29.1445 293.508 29.9883ZM295.705 33.4336C295.705 34.1562 295.793 34.6992 295.969 35.0625C296.145 35.4219 296.42 35.6016 296.795 35.6016C297.549 35.6016 297.926 34.8789 297.926 33.4336C297.926 31.9922 297.549 31.2715 296.795 31.2715C296.42 31.2715 296.145 31.4512 295.969 31.8105C295.793 32.166 295.705 32.707 295.705 33.4336ZM298.5 33.4336C298.5 34.3164 298.355 34.9883 298.066 35.4492C297.777 35.9062 297.357 36.1348 296.807 36.1348C296.275 36.1348 295.863 35.8984 295.57 35.4258C295.277 34.9492 295.131 34.2852 295.131 33.4336C295.131 32.5547 295.273 31.8887 295.559 31.4355C295.848 30.9824 296.264 30.7559 296.807 30.7559C297.342 30.7559 297.758 30.9902 298.055 31.459C298.352 31.9277 298.5 32.5859 298.5 33.4336ZM296.977 27.4336L292.225 36H291.662L296.414 27.4336H296.977Z" fill="white"/>
<path d="M197.895 52.4648H198.492C199.051 52.4648 199.469 52.3555 199.746 52.1367C200.023 51.9141 200.162 51.5918 200.162 51.1699C200.162 50.7441 200.045 50.4297 199.811 50.2266C199.58 50.0234 199.217 49.9219 198.721 49.9219H197.895V52.4648ZM201.996 51.1055C201.996 52.0273 201.707 52.7324 201.129 53.2207C200.555 53.709 199.736 53.9531 198.674 53.9531H197.895V57H196.078V48.4336H198.814C199.854 48.4336 200.643 48.6582 201.182 49.1074C201.725 49.5527 201.996 50.2188 201.996 51.1055ZM208.113 57L207.873 56.1621H207.779C207.588 56.4668 207.316 56.7031 206.965 56.8711C206.613 57.0352 206.213 57.1172 205.764 57.1172C204.994 57.1172 204.414 56.9121 204.023 56.502C203.633 56.0879 203.438 55.4941 203.438 54.7207V50.4492H205.225V54.2754C205.225 54.748 205.309 55.1035 205.477 55.3418C205.645 55.5762 205.912 55.6934 206.279 55.6934C206.779 55.6934 207.141 55.5273 207.363 55.1953C207.586 54.8594 207.697 54.3047 207.697 53.5312V50.4492H209.484V57H208.113ZM215.004 50.3262C215.777 50.3262 216.383 50.6289 216.82 51.2344C217.258 51.8359 217.477 52.6621 217.477 53.7129C217.477 54.7949 217.25 55.6328 216.797 56.2266C216.348 56.8203 215.734 57.1172 214.957 57.1172C214.188 57.1172 213.584 56.8379 213.146 56.2793H213.023L212.725 57H211.359V47.8828H213.146V50.0039C213.146 50.2734 213.123 50.7051 213.076 51.2988H213.146C213.564 50.6504 214.184 50.3262 215.004 50.3262ZM214.43 51.7559C213.988 51.7559 213.666 51.8926 213.463 52.166C213.26 52.4355 213.154 52.8828 213.146 53.5078V53.7012C213.146 54.4043 213.25 54.9082 213.457 55.2129C213.668 55.5176 214 55.6699 214.453 55.6699C214.82 55.6699 215.111 55.502 215.326 55.166C215.545 54.8262 215.654 54.334 215.654 53.6895C215.654 53.0449 215.545 52.5625 215.326 52.2422C215.107 51.918 214.809 51.7559 214.43 51.7559ZM220.74 57H218.953V47.8828H220.74V57ZM222.545 48.7559C222.545 48.1738 222.869 47.8828 223.518 47.8828C224.166 47.8828 224.49 48.1738 224.49 48.7559C224.49 49.0332 224.408 49.25 224.244 49.4062C224.084 49.5586 223.842 49.6348 223.518 49.6348C222.869 49.6348 222.545 49.3418 222.545 48.7559ZM224.408 57H222.621V50.4492H224.408V57ZM228.949 57.1172C226.91 57.1172 225.891 55.998 225.891 53.7598C225.891 52.6465 226.168 51.7969 226.723 51.2109C227.277 50.6211 228.072 50.3262 229.107 50.3262C229.865 50.3262 230.545 50.4746 231.146 50.7715L230.619 52.1543C230.338 52.041 230.076 51.9492 229.834 51.8789C229.592 51.8047 229.35 51.7676 229.107 51.7676C228.178 51.7676 227.713 52.4277 227.713 53.748C227.713 55.0293 228.178 55.6699 229.107 55.6699C229.451 55.6699 229.77 55.625 230.062 55.5352C230.355 55.4414 230.648 55.2969 230.941 55.1016V56.6309C230.652 56.8145 230.359 56.9414 230.062 57.0117C229.77 57.082 229.398 57.1172 228.949 57.1172ZM232.213 56.1621C232.213 55.834 232.301 55.5859 232.477 55.418C232.652 55.25 232.908 55.166 233.244 55.166C233.568 55.166 233.818 55.252 233.994 55.4238C234.174 55.5957 234.264 55.8418 234.264 56.1621C234.264 56.4707 234.174 56.7148 233.994 56.8945C233.814 57.0703 233.564 57.1582 233.244 57.1582C232.916 57.1582 232.662 57.0723 232.482 56.9004C232.303 56.7246 232.213 56.4785 232.213 56.1621ZM232.213 51.3223C232.213 50.9941 232.301 50.7461 232.477 50.5781C232.652 50.4102 232.908 50.3262 233.244 50.3262C233.568 50.3262 233.818 50.4121 233.994 50.584C234.174 50.7559 234.264 51.002 234.264 51.3223C234.264 51.6387 234.172 51.8848 233.988 52.0605C233.809 52.2324 233.561 52.3184 233.244 52.3184C232.916 52.3184 232.662 52.2324 232.482 52.0605C232.303 51.8887 232.213 51.6426 232.213 51.3223ZM244.09 57H238.729V56.4844L241.008 54.1055C241.648 53.4414 242.098 52.9336 242.355 52.582C242.613 52.2305 242.803 51.8945 242.924 51.5742C243.045 51.2539 243.105 50.918 243.105 50.5664C243.105 50.0547 242.938 49.6387 242.602 49.3184C242.266 48.998 241.83 48.8379 241.295 48.8379C240.58 48.8379 239.896 49.0977 239.244 49.6172L238.928 49.2129C239.643 48.6113 240.436 48.3105 241.307 48.3105C242.053 48.3105 242.639 48.5098 243.064 48.9082C243.494 49.3066 243.709 49.8555 243.709 50.5547C243.709 51.1211 243.564 51.6699 243.275 52.2012C242.99 52.7285 242.467 53.3809 241.705 54.1582L239.508 56.4141V56.4375H244.09V57ZM248.068 51.8496C248.982 51.8496 249.701 52.0703 250.225 52.5117C250.752 52.9531 251.016 53.5605 251.016 54.334C251.016 55.2129 250.742 55.8965 250.195 56.3848C249.648 56.873 248.895 57.1172 247.934 57.1172C247.508 57.1172 247.104 57.0762 246.721 56.9941C246.338 56.9082 246.018 56.7871 245.76 56.6309V56.0273C246.182 56.2422 246.557 56.3926 246.885 56.4785C247.213 56.5605 247.562 56.6016 247.934 56.6016C248.684 56.6016 249.285 56.4043 249.738 56.0098C250.191 55.6113 250.418 55.0742 250.418 54.3984C250.418 53.7617 250.197 53.2617 249.756 52.8984C249.314 52.5352 248.715 52.3535 247.957 52.3535C247.449 52.3535 246.918 52.4297 246.363 52.582L246.012 52.3535L246.352 48.4336H250.477V48.9961H246.902L246.639 52.0195C247.248 51.9062 247.725 51.8496 248.068 51.8496ZM256.758 57L253.564 49.0898H253.518C253.549 49.5742 253.564 50.0703 253.564 50.5781V57H252.99V48.4336H253.916L256.951 55.9688H256.986L260.021 48.4336H260.924V57H260.32V50.5078C260.32 50.0547 260.344 49.5859 260.391 49.1016H260.344L257.139 57H256.758ZM265.793 54V53.5195H268.576V54H265.793ZM278.262 57H272.9V56.4844L275.18 54.1055C275.82 53.4414 276.27 52.9336 276.527 52.582C276.785 52.2305 276.975 51.8945 277.096 51.5742C277.217 51.2539 277.277 50.918 277.277 50.5664C277.277 50.0547 277.109 49.6387 276.773 49.3184C276.438 48.998 276.002 48.8379 275.467 48.8379C274.752 48.8379 274.068 49.0977 273.416 49.6172L273.1 49.2129C273.814 48.6113 274.607 48.3105 275.479 48.3105C276.225 48.3105 276.811 48.5098 277.236 48.9082C277.666 49.3066 277.881 49.8555 277.881 50.5547C277.881 51.1211 277.736 51.6699 277.447 52.2012C277.162 52.7285 276.639 53.3809 275.877 54.1582L273.68 56.4141V56.4375H278.262V57ZM282.24 51.8496C283.154 51.8496 283.873 52.0703 284.396 52.5117C284.924 52.9531 285.188 53.5605 285.188 54.334C285.188 55.2129 284.914 55.8965 284.367 56.3848C283.82 56.873 283.066 57.1172 282.105 57.1172C281.68 57.1172 281.275 57.0762 280.893 56.9941C280.51 56.9082 280.189 56.7871 279.932 56.6309V56.0273C280.354 56.2422 280.729 56.3926 281.057 56.4785C281.385 56.5605 281.734 56.6016 282.105 56.6016C282.855 56.6016 283.457 56.4043 283.91 56.0098C284.363 55.6113 284.59 55.0742 284.59 54.3984C284.59 53.7617 284.369 53.2617 283.928 52.8984C283.486 52.5352 282.887 52.3535 282.129 52.3535C281.621 52.3535 281.09 52.4297 280.535 52.582L280.184 52.3535L280.523 48.4336H284.648V48.9961H281.074L280.811 52.0195C281.42 51.9062 281.896 51.8496 282.24 51.8496ZM286.898 56.543C286.898 56.1602 287.055 55.9688 287.367 55.9688C287.688 55.9688 287.848 56.1602 287.848 56.543C287.848 56.9258 287.688 57.1172 287.367 57.1172C287.055 57.1172 286.898 56.9258 286.898 56.543ZM294.99 52.6934C294.99 54.1973 294.76 55.3105 294.299 56.0332C293.842 56.7559 293.148 57.1172 292.219 57.1172C291.324 57.1172 290.645 56.7461 290.18 56.0039C289.715 55.2578 289.482 54.1543 289.482 52.6934C289.482 51.2012 289.707 50.0957 290.156 49.377C290.609 48.6582 291.297 48.2988 292.219 48.2988C293.121 48.2988 293.809 48.6719 294.281 49.418C294.754 50.1602 294.99 51.252 294.99 52.6934ZM290.115 52.6934C290.115 54.0215 290.289 55.0039 290.637 55.6406C290.984 56.2734 291.512 56.5898 292.219 56.5898C292.957 56.5898 293.494 56.2617 293.83 55.6055C294.17 54.9492 294.34 53.9785 294.34 52.6934C294.34 51.4277 294.17 50.4668 293.83 49.8105C293.494 49.1543 292.957 48.8262 292.219 48.8262C291.48 48.8262 290.945 49.1543 290.613 49.8105C290.281 50.4668 290.115 51.4277 290.115 52.6934ZM296.9 50.9883C296.9 51.7148 296.988 52.2617 297.164 52.6289C297.34 52.9922 297.615 53.1738 297.99 53.1738C298.744 53.1738 299.121 52.4453 299.121 50.9883C299.121 50.2695 299.023 49.7305 298.828 49.3711C298.637 49.0078 298.357 48.8262 297.99 48.8262C297.615 48.8262 297.34 49.0078 297.164 49.3711C296.988 49.7305 296.9 50.2695 296.9 50.9883ZM299.695 50.9883C299.695 51.8711 299.549 52.543 299.256 53.0039C298.963 53.4609 298.541 53.6895 297.99 53.6895C297.471 53.6895 297.062 53.4551 296.766 52.9863C296.473 52.5137 296.326 51.8477 296.326 50.9883C296.326 50.1172 296.467 49.4531 296.748 48.9961C297.029 48.5391 297.443 48.3105 297.99 48.3105C298.533 48.3105 298.953 48.5469 299.25 49.0195C299.547 49.4883 299.695 50.1445 299.695 50.9883ZM301.893 54.4336C301.893 55.1562 301.98 55.6992 302.156 56.0625C302.332 56.4219 302.607 56.6016 302.982 56.6016C303.736 56.6016 304.113 55.8789 304.113 54.4336C304.113 52.9922 303.736 52.2715 302.982 52.2715C302.607 52.2715 302.332 52.4512 302.156 52.8105C301.98 53.166 301.893 53.707 301.893 54.4336ZM304.688 54.4336C304.688 55.3164 304.543 55.9883 304.254 56.4492C303.965 56.9062 303.545 57.1348 302.994 57.1348C302.463 57.1348 302.051 56.8984 301.758 56.4258C301.465 55.9492 301.318 55.2852 301.318 54.4336C301.318 53.5547 301.461 52.8887 301.746 52.4355C302.035 51.9824 302.451 51.7559 302.994 51.7559C303.529 51.7559 303.945 51.9902 304.242 52.459C304.539 52.9277 304.688 53.5859 304.688 54.4336ZM303.164 48.4336L298.412 57H297.85L302.602 48.4336H303.164Z" fill="white"/>
<path d="M197.865 78H196.078V69.4336H200.988V70.9219H197.865V73.1309H200.771V74.6133H197.865V78ZM203.947 74.7129C203.947 75.3613 204.053 75.8516 204.264 76.1836C204.479 76.5156 204.826 76.6816 205.307 76.6816C205.783 76.6816 206.125 76.5176 206.332 76.1895C206.543 75.8574 206.648 75.3652 206.648 74.7129C206.648 74.0645 206.543 73.5781 206.332 73.2539C206.121 72.9297 205.775 72.7676 205.295 72.7676C204.818 72.7676 204.475 72.9297 204.264 73.2539C204.053 73.5742 203.947 74.0605 203.947 74.7129ZM208.477 74.7129C208.477 75.7793 208.195 76.6133 207.633 77.2148C207.07 77.8164 206.287 78.1172 205.283 78.1172C204.654 78.1172 204.1 77.9805 203.619 77.707C203.139 77.4297 202.77 77.0332 202.512 76.5176C202.254 76.002 202.125 75.4004 202.125 74.7129C202.125 73.6426 202.404 72.8105 202.963 72.2168C203.521 71.623 204.307 71.3262 205.318 71.3262C205.947 71.3262 206.502 71.4629 206.982 71.7363C207.463 72.0098 207.832 72.4023 208.09 72.9141C208.348 73.4258 208.477 74.0254 208.477 74.7129ZM214.594 78L214.354 77.1621H214.26C214.068 77.4668 213.797 77.7031 213.445 77.8711C213.094 78.0352 212.693 78.1172 212.244 78.1172C211.475 78.1172 210.895 77.9121 210.504 77.502C210.113 77.0879 209.918 76.4941 209.918 75.7207V71.4492H211.705V75.2754C211.705 75.748 211.789 76.1035 211.957 76.3418C212.125 76.5762 212.393 76.6934 212.76 76.6934C213.26 76.6934 213.621 76.5273 213.844 76.1953C214.066 75.8594 214.178 75.3047 214.178 74.5312V71.4492H215.965V78H214.594ZM223.887 78H222.1V74.1738C222.1 73.7012 222.016 73.3477 221.848 73.1133C221.68 72.875 221.412 72.7559 221.045 72.7559C220.545 72.7559 220.184 72.9238 219.961 73.2598C219.738 73.5918 219.627 74.1445 219.627 74.918V78H217.84V71.4492H219.205L219.445 72.2871H219.545C219.744 71.9707 220.018 71.7324 220.365 71.5723C220.717 71.4082 221.115 71.3262 221.561 71.3262C222.322 71.3262 222.9 71.5332 223.295 71.9473C223.689 72.3574 223.887 72.9512 223.887 73.7285V78ZM227.801 78.1172C227.031 78.1172 226.426 77.8184 225.984 77.2207C225.547 76.623 225.328 75.7949 225.328 74.7363C225.328 73.6621 225.551 72.8262 225.996 72.2285C226.445 71.627 227.062 71.3262 227.848 71.3262C228.672 71.3262 229.301 71.6465 229.734 72.2871H229.793C229.703 71.7988 229.658 71.3633 229.658 70.9805V68.8828H231.451V78H230.08L229.734 77.1504H229.658C229.252 77.7949 228.633 78.1172 227.801 78.1172ZM228.428 76.6934C228.885 76.6934 229.219 76.5605 229.43 76.2949C229.645 76.0293 229.762 75.5781 229.781 74.9414V74.748C229.781 74.0449 229.672 73.541 229.453 73.2363C229.238 72.9316 228.887 72.7793 228.398 72.7793C228 72.7793 227.689 72.9492 227.467 73.2891C227.248 73.625 227.139 74.1152 227.139 74.7598C227.139 75.4043 227.25 75.8887 227.473 76.2129C227.695 76.5332 228.014 76.6934 228.428 76.6934ZM241.512 78H236.578V69.4336H241.512V70.9219H238.395V72.8027H241.295V74.291H238.395V76.5H241.512V78ZM245.824 78.1172C243.785 78.1172 242.766 76.998 242.766 74.7598C242.766 73.6465 243.043 72.7969 243.598 72.2109C244.152 71.6211 244.947 71.3262 245.982 71.3262C246.74 71.3262 247.42 71.4746 248.021 71.7715L247.494 73.1543C247.213 73.041 246.951 72.9492 246.709 72.8789C246.467 72.8047 246.225 72.7676 245.982 72.7676C245.053 72.7676 244.588 73.4277 244.588 74.748C244.588 76.0293 245.053 76.6699 245.982 76.6699C246.326 76.6699 246.645 76.625 246.938 76.5352C247.23 76.4414 247.523 76.2969 247.816 76.1016V77.6309C247.527 77.8145 247.234 77.9414 246.938 78.0117C246.645 78.082 246.273 78.1172 245.824 78.1172ZM250.764 74.7129C250.764 75.3613 250.869 75.8516 251.08 76.1836C251.295 76.5156 251.643 76.6816 252.123 76.6816C252.6 76.6816 252.941 76.5176 253.148 76.1895C253.359 75.8574 253.465 75.3652 253.465 74.7129C253.465 74.0645 253.359 73.5781 253.148 73.2539C252.938 72.9297 252.592 72.7676 252.111 72.7676C251.635 72.7676 251.291 72.9297 251.08 73.2539C250.869 73.5742 250.764 74.0605 250.764 74.7129ZM255.293 74.7129C255.293 75.7793 255.012 76.6133 254.449 77.2148C253.887 77.8164 253.104 78.1172 252.1 78.1172C251.471 78.1172 250.916 77.9805 250.436 77.707C249.955 77.4297 249.586 77.0332 249.328 76.5176C249.07 76.002 248.941 75.4004 248.941 74.7129C248.941 73.6426 249.221 72.8105 249.779 72.2168C250.338 71.623 251.123 71.3262 252.135 71.3262C252.764 71.3262 253.318 71.4629 253.799 71.7363C254.279 72.0098 254.648 72.4023 254.906 72.9141C255.164 73.4258 255.293 74.0254 255.293 74.7129ZM261.34 76.0547C261.34 76.7266 261.105 77.2383 260.637 77.5898C260.172 77.9414 259.475 78.1172 258.545 78.1172C258.068 78.1172 257.662 78.084 257.326 78.0176C256.99 77.9551 256.676 77.8613 256.383 77.7363V76.2598C256.715 76.416 257.088 76.5469 257.502 76.6523C257.92 76.7578 258.287 76.8105 258.604 76.8105C259.252 76.8105 259.576 76.623 259.576 76.248C259.576 76.1074 259.533 75.9941 259.447 75.9082C259.361 75.8184 259.213 75.7188 259.002 75.6094C258.791 75.4961 258.51 75.3652 258.158 75.2168C257.654 75.0059 257.283 74.8105 257.045 74.6309C256.811 74.4512 256.639 74.2461 256.529 74.0156C256.424 73.7812 256.371 73.4941 256.371 73.1543C256.371 72.5723 256.596 72.123 257.045 71.8066C257.498 71.4863 258.139 71.3262 258.967 71.3262C259.756 71.3262 260.523 71.498 261.27 71.8418L260.73 73.1309C260.402 72.9902 260.096 72.875 259.811 72.7852C259.525 72.6953 259.234 72.6504 258.938 72.6504C258.41 72.6504 258.146 72.793 258.146 73.0781C258.146 73.2383 258.23 73.377 258.398 73.4941C258.57 73.6113 258.943 73.7852 259.518 74.0156C260.029 74.2227 260.404 74.416 260.643 74.5957C260.881 74.7754 261.057 74.9824 261.17 75.2168C261.283 75.4512 261.34 75.7305 261.34 76.0547ZM261.797 71.4492H263.754L264.99 75.1348C265.096 75.4551 265.168 75.834 265.207 76.2715H265.242C265.285 75.8691 265.369 75.4902 265.494 75.1348L266.707 71.4492H268.623L265.852 78.8379C265.598 79.5215 265.234 80.0332 264.762 80.373C264.293 80.7129 263.744 80.8828 263.115 80.8828C262.807 80.8828 262.504 80.8496 262.207 80.7832V79.3652C262.422 79.416 262.656 79.4414 262.91 79.4414C263.227 79.4414 263.502 79.3438 263.736 79.1484C263.975 78.957 264.16 78.666 264.293 78.2754L264.398 77.9531L261.797 71.4492ZM274.137 76.0547C274.137 76.7266 273.902 77.2383 273.434 77.5898C272.969 77.9414 272.271 78.1172 271.342 78.1172C270.865 78.1172 270.459 78.084 270.123 78.0176C269.787 77.9551 269.473 77.8613 269.18 77.7363V76.2598C269.512 76.416 269.885 76.5469 270.299 76.6523C270.717 76.7578 271.084 76.8105 271.4 76.8105C272.049 76.8105 272.373 76.623 272.373 76.248C272.373 76.1074 272.33 75.9941 272.244 75.9082C272.158 75.8184 272.01 75.7188 271.799 75.6094C271.588 75.4961 271.307 75.3652 270.955 75.2168C270.451 75.0059 270.08 74.8105 269.842 74.6309C269.607 74.4512 269.436 74.2461 269.326 74.0156C269.221 73.7812 269.168 73.4941 269.168 73.1543C269.168 72.5723 269.393 72.123 269.842 71.8066C270.295 71.4863 270.936 71.3262 271.764 71.3262C272.553 71.3262 273.32 71.498 274.066 71.8418L273.527 73.1309C273.199 72.9902 272.893 72.875 272.607 72.7852C272.322 72.6953 272.031 72.6504 271.734 72.6504C271.207 72.6504 270.943 72.793 270.943 73.0781C270.943 73.2383 271.027 73.377 271.195 73.4941C271.367 73.6113 271.74 73.7852 272.314 74.0156C272.826 74.2227 273.201 74.416 273.439 74.5957C273.678 74.7754 273.854 74.9824 273.967 75.2168C274.08 75.4512 274.137 75.7305 274.137 76.0547ZM278.291 76.6934C278.604 76.6934 278.979 76.625 279.416 76.4883V77.8184C278.971 78.0176 278.424 78.1172 277.775 78.1172C277.061 78.1172 276.539 77.9375 276.211 77.5781C275.887 77.2148 275.725 76.6719 275.725 75.9492V72.791H274.869V72.0352L275.854 71.4375L276.369 70.0547H277.512V71.4492H279.346V72.791H277.512V75.9492C277.512 76.2031 277.582 76.3906 277.723 76.5117C277.867 76.6328 278.057 76.6934 278.291 76.6934ZM283.459 72.5977C283.08 72.5977 282.783 72.7188 282.568 72.9609C282.354 73.1992 282.23 73.5391 282.199 73.9805H284.707C284.699 73.5391 284.584 73.1992 284.361 72.9609C284.139 72.7188 283.838 72.5977 283.459 72.5977ZM283.711 78.1172C282.656 78.1172 281.832 77.8262 281.238 77.2441C280.645 76.6621 280.348 75.8379 280.348 74.7715C280.348 73.6738 280.621 72.8262 281.168 72.2285C281.719 71.627 282.479 71.3262 283.447 71.3262C284.373 71.3262 285.094 71.5898 285.609 72.1172C286.125 72.6445 286.383 73.373 286.383 74.3027V75.1699H282.158C282.178 75.6777 282.328 76.0742 282.609 76.3594C282.891 76.6445 283.285 76.7871 283.793 76.7871C284.188 76.7871 284.561 76.7461 284.912 76.6641C285.264 76.582 285.631 76.4512 286.014 76.2715V77.6543C285.701 77.8105 285.367 77.9258 285.012 78C284.656 78.0781 284.223 78.1172 283.711 78.1172ZM293.701 78H291.914V74.1738C291.914 73.7012 291.834 73.3477 291.674 73.1133C291.518 72.875 291.27 72.7559 290.93 72.7559C290.473 72.7559 290.141 72.9238 289.934 73.2598C289.727 73.5957 289.623 74.1484 289.623 74.918V78H287.836V71.4492H289.201L289.441 72.2871H289.541C289.717 71.9863 289.971 71.752 290.303 71.584C290.635 71.4121 291.016 71.3262 291.445 71.3262C292.426 71.3262 293.09 71.6465 293.438 72.2871H293.596C293.771 71.9824 294.029 71.7461 294.369 71.5781C294.713 71.4102 295.1 71.3262 295.529 71.3262C296.271 71.3262 296.832 71.5176 297.211 71.9004C297.594 72.2793 297.785 72.8887 297.785 73.7285V78H295.992V74.1738C295.992 73.7012 295.912 73.3477 295.752 73.1133C295.596 72.875 295.348 72.7559 295.008 72.7559C294.57 72.7559 294.242 72.9121 294.023 73.2246C293.809 73.5371 293.701 74.0332 293.701 74.7129V78ZM299.373 77.1621C299.373 76.834 299.461 76.5859 299.637 76.418C299.812 76.25 300.068 76.166 300.404 76.166C300.729 76.166 300.979 76.252 301.154 76.4238C301.334 76.5957 301.424 76.8418 301.424 77.1621C301.424 77.4707 301.334 77.7148 301.154 77.8945C300.975 78.0703 300.725 78.1582 300.404 78.1582C300.076 78.1582 299.822 78.0723 299.643 77.9004C299.463 77.7246 299.373 77.4785 299.373 77.1621ZM299.373 72.3223C299.373 71.9941 299.461 71.7461 299.637 71.5781C299.812 71.4102 300.068 71.3262 300.404 71.3262C300.729 71.3262 300.979 71.4121 301.154 71.584C301.334 71.7559 301.424 72.002 301.424 72.3223C301.424 72.6387 301.332 72.8848 301.148 73.0605C300.969 73.2324 300.721 73.3184 300.404 73.3184C300.076 73.3184 299.822 73.2324 299.643 73.0605C299.463 72.8887 299.373 72.6426 299.373 72.3223ZM310.963 71.4492C310.963 71.9805 310.795 72.4277 310.459 72.791C310.127 73.1543 309.68 73.3867 309.117 73.4883V73.5234C309.805 73.6094 310.328 73.8281 310.688 74.1797C311.047 74.5312 311.227 75.0039 311.227 75.5977C311.227 76.3984 310.953 77.0195 310.406 77.4609C309.863 77.8984 309.08 78.1172 308.057 78.1172C307.186 78.1172 306.426 77.9551 305.777 77.6309V77.0508C306.105 77.2227 306.473 77.3574 306.879 77.4551C307.289 77.5527 307.674 77.6016 308.033 77.6016C308.896 77.6016 309.545 77.4277 309.979 77.0801C310.412 76.7285 310.629 76.2344 310.629 75.5977C310.629 75.0312 310.406 74.5957 309.961 74.291C309.52 73.9863 308.869 73.834 308.01 73.834H307.084V73.2715H308.021C308.732 73.2715 309.295 73.1035 309.709 72.7676C310.127 72.4277 310.336 71.9688 310.336 71.3906C310.336 70.9141 310.166 70.5332 309.826 70.248C309.49 69.959 309.049 69.8145 308.502 69.8145C308.076 69.8145 307.688 69.875 307.336 69.9961C306.984 70.1133 306.59 70.3164 306.152 70.6055L305.865 70.2129C306.197 69.9355 306.598 69.7168 307.066 69.5566C307.535 69.3926 308.01 69.3105 308.49 69.3105C309.279 69.3105 309.889 69.498 310.318 69.873C310.748 70.2441 310.963 70.7695 310.963 71.4492ZM318.264 73.6934C318.264 75.1973 318.033 76.3105 317.572 77.0332C317.115 77.7559 316.422 78.1172 315.492 78.1172C314.598 78.1172 313.918 77.7461 313.453 77.0039C312.988 76.2578 312.756 75.1543 312.756 73.6934C312.756 72.2012 312.98 71.0957 313.43 70.377C313.883 69.6582 314.57 69.2988 315.492 69.2988C316.395 69.2988 317.082 69.6719 317.555 70.418C318.027 71.1602 318.264 72.252 318.264 73.6934ZM313.389 73.6934C313.389 75.0215 313.562 76.0039 313.91 76.6406C314.258 77.2734 314.785 77.5898 315.492 77.5898C316.23 77.5898 316.768 77.2617 317.104 76.6055C317.443 75.9492 317.613 74.9785 317.613 73.6934C317.613 72.4277 317.443 71.4668 317.104 70.8105C316.768 70.1543 316.23 69.8262 315.492 69.8262C314.754 69.8262 314.219 70.1543 313.887 70.8105C313.555 71.4668 313.389 72.4277 313.389 73.6934ZM323.918 78L320.725 70.0898H320.678C320.709 70.5742 320.725 71.0703 320.725 71.5781V78H320.15V69.4336H321.076L324.111 76.9688H324.146L327.182 69.4336H328.084V78H327.48V71.5078C327.48 71.0547 327.504 70.5859 327.551 70.1016H327.504L324.299 78H323.918ZM332.953 75V74.5195H335.736V75H332.953ZM345.135 71.4492C345.135 71.9805 344.967 72.4277 344.631 72.791C344.299 73.1543 343.852 73.3867 343.289 73.4883V73.5234C343.977 73.6094 344.5 73.8281 344.859 74.1797C345.219 74.5312 345.398 75.0039 345.398 75.5977C345.398 76.3984 345.125 77.0195 344.578 77.4609C344.035 77.8984 343.252 78.1172 342.229 78.1172C341.357 78.1172 340.598 77.9551 339.949 77.6309V77.0508C340.277 77.2227 340.645 77.3574 341.051 77.4551C341.461 77.5527 341.846 77.6016 342.205 77.6016C343.068 77.6016 343.717 77.4277 344.15 77.0801C344.584 76.7285 344.801 76.2344 344.801 75.5977C344.801 75.0312 344.578 74.5957 344.133 74.291C343.691 73.9863 343.041 73.834 342.182 73.834H341.256V73.2715H342.193C342.904 73.2715 343.467 73.1035 343.881 72.7676C344.299 72.4277 344.508 71.9688 344.508 71.3906C344.508 70.9141 344.338 70.5332 343.998 70.248C343.662 69.959 343.221 69.8145 342.674 69.8145C342.248 69.8145 341.859 69.875 341.508 69.9961C341.156 70.1133 340.762 70.3164 340.324 70.6055L340.037 70.2129C340.369 69.9355 340.77 69.7168 341.238 69.5566C341.707 69.3926 342.182 69.3105 342.662 69.3105C343.451 69.3105 344.061 69.498 344.49 69.873C344.92 70.2441 345.135 70.7695 345.135 71.4492ZM352.436 73.6934C352.436 75.1973 352.205 76.3105 351.744 77.0332C351.287 77.7559 350.594 78.1172 349.664 78.1172C348.77 78.1172 348.09 77.7461 347.625 77.0039C347.16 76.2578 346.928 75.1543 346.928 73.6934C346.928 72.2012 347.152 71.0957 347.602 70.377C348.055 69.6582 348.742 69.2988 349.664 69.2988C350.566 69.2988 351.254 69.6719 351.727 70.418C352.199 71.1602 352.436 72.252 352.436 73.6934ZM347.561 73.6934C347.561 75.0215 347.734 76.0039 348.082 76.6406C348.43 77.2734 348.957 77.5898 349.664 77.5898C350.402 77.5898 350.939 77.2617 351.275 76.6055C351.615 75.9492 351.785 74.9785 351.785 73.6934C351.785 72.4277 351.615 71.4668 351.275 70.8105C350.939 70.1543 350.402 69.8262 349.664 69.8262C348.926 69.8262 348.391 70.1543 348.059 70.8105C347.727 71.4668 347.561 72.4277 347.561 73.6934ZM354.059 77.543C354.059 77.1602 354.215 76.9688 354.527 76.9688C354.848 76.9688 355.008 77.1602 355.008 77.543C355.008 77.9258 354.848 78.1172 354.527 78.1172C354.215 78.1172 354.059 77.9258 354.059 77.543ZM362.15 73.6934C362.15 75.1973 361.92 76.3105 361.459 77.0332C361.002 77.7559 360.309 78.1172 359.379 78.1172C358.484 78.1172 357.805 77.7461 357.34 77.0039C356.875 76.2578 356.643 75.1543 356.643 73.6934C356.643 72.2012 356.867 71.0957 357.316 70.377C357.77 69.6582 358.457 69.2988 359.379 69.2988C360.281 69.2988 360.969 69.6719 361.441 70.418C361.914 71.1602 362.15 72.252 362.15 73.6934ZM357.275 73.6934C357.275 75.0215 357.449 76.0039 357.797 76.6406C358.145 77.2734 358.672 77.5898 359.379 77.5898C360.117 77.5898 360.654 77.2617 360.99 76.6055C361.33 75.9492 361.5 74.9785 361.5 73.6934C361.5 72.4277 361.33 71.4668 360.99 70.8105C360.654 70.1543 360.117 69.8262 359.379 69.8262C358.641 69.8262 358.105 70.1543 357.773 70.8105C357.441 71.4668 357.275 72.4277 357.275 73.6934ZM364.061 71.9883C364.061 72.7148 364.148 73.2617 364.324 73.6289C364.5 73.9922 364.775 74.1738 365.15 74.1738C365.904 74.1738 366.281 73.4453 366.281 71.9883C366.281 71.2695 366.184 70.7305 365.988 70.3711C365.797 70.0078 365.518 69.8262 365.15 69.8262C364.775 69.8262 364.5 70.0078 364.324 70.3711C364.148 70.7305 364.061 71.2695 364.061 71.9883ZM366.855 71.9883C366.855 72.8711 366.709 73.543 366.416 74.0039C366.123 74.4609 365.701 74.6895 365.15 74.6895C364.631 74.6895 364.223 74.4551 363.926 73.9863C363.633 73.5137 363.486 72.8477 363.486 71.9883C363.486 71.1172 363.627 70.4531 363.908 69.9961C364.189 69.5391 364.604 69.3105 365.15 69.3105C365.693 69.3105 366.113 69.5469 366.41 70.0195C366.707 70.4883 366.855 71.1445 366.855 71.9883ZM369.053 75.4336C369.053 76.1562 369.141 76.6992 369.316 77.0625C369.492 77.4219 369.768 77.6016 370.143 77.6016C370.896 77.6016 371.273 76.8789 371.273 75.4336C371.273 73.9922 370.896 73.2715 370.143 73.2715C369.768 73.2715 369.492 73.4512 369.316 73.8105C369.141 74.166 369.053 74.707 369.053 75.4336ZM371.848 75.4336C371.848 76.3164 371.703 76.9883 371.414 77.4492C371.125 77.9062 370.705 78.1348 370.154 78.1348C369.623 78.1348 369.211 77.8984 368.918 77.4258C368.625 76.9492 368.479 76.2852 368.479 75.4336C368.479 74.5547 368.621 73.8887 368.906 73.4355C369.195 72.9824 369.611 72.7559 370.154 72.7559C370.689 72.7559 371.105 72.9902 371.402 73.459C371.699 73.9277 371.848 74.5859 371.848 75.4336ZM370.324 69.4336L365.572 78H365.01L369.762 69.4336H370.324Z" fill="white"/>
<path d="M197.865 99H196.078V90.4336H200.988V91.9219H197.865V94.1309H200.771V95.6133H197.865V99ZM203.947 95.7129C203.947 96.3613 204.053 96.8516 204.264 97.1836C204.479 97.5156 204.826 97.6816 205.307 97.6816C205.783 97.6816 206.125 97.5176 206.332 97.1895C206.543 96.8574 206.648 96.3652 206.648 95.7129C206.648 95.0645 206.543 94.5781 206.332 94.2539C206.121 93.9297 205.775 93.7676 205.295 93.7676C204.818 93.7676 204.475 93.9297 204.264 94.2539C204.053 94.5742 203.947 95.0605 203.947 95.7129ZM208.477 95.7129C208.477 96.7793 208.195 97.6133 207.633 98.2148C207.07 98.8164 206.287 99.1172 205.283 99.1172C204.654 99.1172 204.1 98.9805 203.619 98.707C203.139 98.4297 202.77 98.0332 202.512 97.5176C202.254 97.002 202.125 96.4004 202.125 95.7129C202.125 94.6426 202.404 93.8105 202.963 93.2168C203.521 92.623 204.307 92.3262 205.318 92.3262C205.947 92.3262 206.502 92.4629 206.982 92.7363C207.463 93.0098 207.832 93.4023 208.09 93.9141C208.348 94.4258 208.477 95.0254 208.477 95.7129ZM214.594 99L214.354 98.1621H214.26C214.068 98.4668 213.797 98.7031 213.445 98.8711C213.094 99.0352 212.693 99.1172 212.244 99.1172C211.475 99.1172 210.895 98.9121 210.504 98.502C210.113 98.0879 209.918 97.4941 209.918 96.7207V92.4492H211.705V96.2754C211.705 96.748 211.789 97.1035 211.957 97.3418C212.125 97.5762 212.393 97.6934 212.76 97.6934C213.26 97.6934 213.621 97.5273 213.844 97.1953C214.066 96.8594 214.178 96.3047 214.178 95.5312V92.4492H215.965V99H214.594ZM223.887 99H222.1V95.1738C222.1 94.7012 222.016 94.3477 221.848 94.1133C221.68 93.875 221.412 93.7559 221.045 93.7559C220.545 93.7559 220.184 93.9238 219.961 94.2598C219.738 94.5918 219.627 95.1445 219.627 95.918V99H217.84V92.4492H219.205L219.445 93.2871H219.545C219.744 92.9707 220.018 92.7324 220.365 92.5723C220.717 92.4082 221.115 92.3262 221.561 92.3262C222.322 92.3262 222.9 92.5332 223.295 92.9473C223.689 93.3574 223.887 93.9512 223.887 94.7285V99ZM227.801 99.1172C227.031 99.1172 226.426 98.8184 225.984 98.2207C225.547 97.623 225.328 96.7949 225.328 95.7363C225.328 94.6621 225.551 93.8262 225.996 93.2285C226.445 92.627 227.062 92.3262 227.848 92.3262C228.672 92.3262 229.301 92.6465 229.734 93.2871H229.793C229.703 92.7988 229.658 92.3633 229.658 91.9805V89.8828H231.451V99H230.08L229.734 98.1504H229.658C229.252 98.7949 228.633 99.1172 227.801 99.1172ZM228.428 97.6934C228.885 97.6934 229.219 97.5605 229.43 97.2949C229.645 97.0293 229.762 96.5781 229.781 95.9414V95.748C229.781 95.0449 229.672 94.541 229.453 94.2363C229.238 93.9316 228.887 93.7793 228.398 93.7793C228 93.7793 227.689 93.9492 227.467 94.2891C227.248 94.625 227.139 95.1152 227.139 95.7598C227.139 96.4043 227.25 96.8887 227.473 97.2129C227.695 97.5332 228.014 97.6934 228.428 97.6934ZM239.883 99H238.066V91.9453H235.74V90.4336H242.209V91.9453H239.883V99ZM247.043 92.3262C247.285 92.3262 247.486 92.3438 247.646 92.3789L247.512 94.0547C247.367 94.0156 247.191 93.9961 246.984 93.9961C246.414 93.9961 245.969 94.1426 245.648 94.4355C245.332 94.7285 245.174 95.1387 245.174 95.666V99H243.387V92.4492H244.74L245.004 93.5508H245.092C245.295 93.1836 245.568 92.8887 245.912 92.666C246.26 92.4395 246.637 92.3262 247.043 92.3262ZM251.549 93.5977C251.17 93.5977 250.873 93.7188 250.658 93.9609C250.443 94.1992 250.32 94.5391 250.289 94.9805H252.797C252.789 94.5391 252.674 94.1992 252.451 93.9609C252.229 93.7188 251.928 93.5977 251.549 93.5977ZM251.801 99.1172C250.746 99.1172 249.922 98.8262 249.328 98.2441C248.734 97.6621 248.438 96.8379 248.438 95.7715C248.438 94.6738 248.711 93.8262 249.258 93.2285C249.809 92.627 250.568 92.3262 251.537 92.3262C252.463 92.3262 253.184 92.5898 253.699 93.1172C254.215 93.6445 254.473 94.373 254.473 95.3027V96.1699H250.248C250.268 96.6777 250.418 97.0742 250.699 97.3594C250.98 97.6445 251.375 97.7871 251.883 97.7871C252.277 97.7871 252.65 97.7461 253.002 97.6641C253.354 97.582 253.721 97.4512 254.104 97.2715V98.6543C253.791 98.8105 253.457 98.9258 253.102 99C252.746 99.0781 252.312 99.1172 251.801 99.1172ZM260.086 99L259.74 98.1094H259.693C259.393 98.4883 259.082 98.752 258.762 98.9004C258.445 99.0449 258.031 99.1172 257.52 99.1172C256.891 99.1172 256.395 98.9375 256.031 98.5781C255.672 98.2188 255.492 97.707 255.492 97.043C255.492 96.3477 255.734 95.8359 256.219 95.5078C256.707 95.1758 257.441 94.9922 258.422 94.957L259.559 94.9219V94.6348C259.559 93.9707 259.219 93.6387 258.539 93.6387C258.016 93.6387 257.4 93.7969 256.693 94.1133L256.102 92.9062C256.855 92.5117 257.691 92.3145 258.609 92.3145C259.488 92.3145 260.162 92.5059 260.631 92.8887C261.1 93.2715 261.334 93.8535 261.334 94.6348V99H260.086ZM259.559 95.9648L258.867 95.9883C258.348 96.0039 257.961 96.0977 257.707 96.2695C257.453 96.4414 257.326 96.7031 257.326 97.0547C257.326 97.5586 257.615 97.8105 258.193 97.8105C258.607 97.8105 258.938 97.6914 259.184 97.4531C259.434 97.2148 259.559 96.8984 259.559 96.5039V95.9648ZM267.75 97.0547C267.75 97.7266 267.516 98.2383 267.047 98.5898C266.582 98.9414 265.885 99.1172 264.955 99.1172C264.479 99.1172 264.072 99.084 263.736 99.0176C263.4 98.9551 263.086 98.8613 262.793 98.7363V97.2598C263.125 97.416 263.498 97.5469 263.912 97.6523C264.33 97.7578 264.697 97.8105 265.014 97.8105C265.662 97.8105 265.986 97.623 265.986 97.248C265.986 97.1074 265.943 96.9941 265.857 96.9082C265.771 96.8184 265.623 96.7188 265.412 96.6094C265.201 96.4961 264.92 96.3652 264.568 96.2168C264.064 96.0059 263.693 95.8105 263.455 95.6309C263.221 95.4512 263.049 95.2461 262.939 95.0156C262.834 94.7812 262.781 94.4941 262.781 94.1543C262.781 93.5723 263.006 93.123 263.455 92.8066C263.908 92.4863 264.549 92.3262 265.377 92.3262C266.166 92.3262 266.934 92.498 267.68 92.8418L267.141 94.1309C266.812 93.9902 266.506 93.875 266.221 93.7852C265.936 93.6953 265.645 93.6504 265.348 93.6504C264.82 93.6504 264.557 93.793 264.557 94.0781C264.557 94.2383 264.641 94.377 264.809 94.4941C264.98 94.6113 265.354 94.7852 265.928 95.0156C266.439 95.2227 266.814 95.416 267.053 95.5957C267.291 95.7754 267.467 95.9824 267.58 96.2168C267.693 96.4512 267.75 96.7305 267.75 97.0547ZM273.785 99L273.545 98.1621H273.451C273.26 98.4668 272.988 98.7031 272.637 98.8711C272.285 99.0352 271.885 99.1172 271.436 99.1172C270.666 99.1172 270.086 98.9121 269.695 98.502C269.305 98.0879 269.109 97.4941 269.109 96.7207V92.4492H270.896V96.2754C270.896 96.748 270.98 97.1035 271.148 97.3418C271.316 97.5762 271.584 97.6934 271.951 97.6934C272.451 97.6934 272.812 97.5273 273.035 97.1953C273.258 96.8594 273.369 96.3047 273.369 95.5312V92.4492H275.156V99H273.785ZM280.688 92.3262C280.93 92.3262 281.131 92.3438 281.291 92.3789L281.156 94.0547C281.012 94.0156 280.836 93.9961 280.629 93.9961C280.059 93.9961 279.613 94.1426 279.293 94.4355C278.977 94.7285 278.818 95.1387 278.818 95.666V99H277.031V92.4492H278.385L278.648 93.5508H278.736C278.939 93.1836 279.213 92.8887 279.557 92.666C279.904 92.4395 280.281 92.3262 280.688 92.3262ZM281.543 92.4492H283.5L284.736 96.1348C284.842 96.4551 284.914 96.834 284.953 97.2715H284.988C285.031 96.8691 285.115 96.4902 285.24 96.1348L286.453 92.4492H288.369L285.598 99.8379C285.344 100.521 284.98 101.033 284.508 101.373C284.039 101.713 283.49 101.883 282.861 101.883C282.553 101.883 282.25 101.85 281.953 101.783V100.365C282.168 100.416 282.402 100.441 282.656 100.441C282.973 100.441 283.248 100.344 283.482 100.148C283.721 99.957 283.906 99.666 284.039 99.2754L284.145 98.9531L281.543 92.4492ZM289.061 98.1621C289.061 97.834 289.148 97.5859 289.324 97.418C289.5 97.25 289.756 97.166 290.092 97.166C290.416 97.166 290.666 97.252 290.842 97.4238C291.021 97.5957 291.111 97.8418 291.111 98.1621C291.111 98.4707 291.021 98.7148 290.842 98.8945C290.662 99.0703 290.412 99.1582 290.092 99.1582C289.764 99.1582 289.51 99.0723 289.33 98.9004C289.15 98.7246 289.061 98.4785 289.061 98.1621ZM289.061 93.3223C289.061 92.9941 289.148 92.7461 289.324 92.5781C289.5 92.4102 289.756 92.3262 290.092 92.3262C290.416 92.3262 290.666 92.4121 290.842 92.584C291.021 92.7559 291.111 93.002 291.111 93.3223C291.111 93.6387 291.02 93.8848 290.836 94.0605C290.656 94.2324 290.408 94.3184 290.092 94.3184C289.764 94.3184 289.51 94.2324 289.33 94.0605C289.15 93.8887 289.061 93.6426 289.061 93.3223ZM298.91 99H298.336V92.7598C298.336 92.1934 298.359 91.6055 298.406 90.9961C298.348 91.0547 298.287 91.1113 298.225 91.166C298.162 91.2207 297.559 91.6953 296.414 92.5898L296.08 92.1738L298.406 90.4336H298.91V99ZM307.951 94.6934C307.951 96.1973 307.721 97.3105 307.26 98.0332C306.803 98.7559 306.109 99.1172 305.18 99.1172C304.285 99.1172 303.605 98.7461 303.141 98.0039C302.676 97.2578 302.443 96.1543 302.443 94.6934C302.443 93.2012 302.668 92.0957 303.117 91.377C303.57 90.6582 304.258 90.2988 305.18 90.2988C306.082 90.2988 306.77 90.6719 307.242 91.418C307.715 92.1602 307.951 93.252 307.951 94.6934ZM303.076 94.6934C303.076 96.0215 303.25 97.0039 303.598 97.6406C303.945 98.2734 304.473 98.5898 305.18 98.5898C305.918 98.5898 306.455 98.2617 306.791 97.6055C307.131 96.9492 307.301 95.9785 307.301 94.6934C307.301 93.4277 307.131 92.4668 306.791 91.8105C306.455 91.1543 305.918 90.8262 305.18 90.8262C304.441 90.8262 303.906 91.1543 303.574 91.8105C303.242 92.4668 303.076 93.4277 303.076 94.6934ZM313.605 99L310.412 91.0898H310.365C310.396 91.5742 310.412 92.0703 310.412 92.5781V99H309.838V90.4336H310.764L313.799 97.9688H313.834L316.869 90.4336H317.771V99H317.168V92.5078C317.168 92.0547 317.191 91.5859 317.238 91.1016H317.191L313.986 99H313.605ZM322.641 96V95.5195H325.424V96H322.641ZM333.082 99H332.508V92.7598C332.508 92.1934 332.531 91.6055 332.578 90.9961C332.52 91.0547 332.459 91.1113 332.396 91.166C332.334 91.2207 331.73 91.6953 330.586 92.5898L330.252 92.1738L332.578 90.4336H333.082V99ZM342.123 94.6934C342.123 96.1973 341.893 97.3105 341.432 98.0332C340.975 98.7559 340.281 99.1172 339.352 99.1172C338.457 99.1172 337.777 98.7461 337.312 98.0039C336.848 97.2578 336.615 96.1543 336.615 94.6934C336.615 93.2012 336.84 92.0957 337.289 91.377C337.742 90.6582 338.43 90.2988 339.352 90.2988C340.254 90.2988 340.941 90.6719 341.414 91.418C341.887 92.1602 342.123 93.252 342.123 94.6934ZM337.248 94.6934C337.248 96.0215 337.422 97.0039 337.77 97.6406C338.117 98.2734 338.645 98.5898 339.352 98.5898C340.09 98.5898 340.627 98.2617 340.963 97.6055C341.303 96.9492 341.473 95.9785 341.473 94.6934C341.473 93.4277 341.303 92.4668 340.963 91.8105C340.627 91.1543 340.09 90.8262 339.352 90.8262C338.613 90.8262 338.078 91.1543 337.746 91.8105C337.414 92.4668 337.248 93.4277 337.248 94.6934ZM343.746 98.543C343.746 98.1602 343.902 97.9688 344.215 97.9688C344.535 97.9688 344.695 98.1602 344.695 98.543C344.695 98.9258 344.535 99.1172 344.215 99.1172C343.902 99.1172 343.746 98.9258 343.746 98.543ZM351.838 94.6934C351.838 96.1973 351.607 97.3105 351.146 98.0332C350.689 98.7559 349.996 99.1172 349.066 99.1172C348.172 99.1172 347.492 98.7461 347.027 98.0039C346.562 97.2578 346.33 96.1543 346.33 94.6934C346.33 93.2012 346.555 92.0957 347.004 91.377C347.457 90.6582 348.145 90.2988 349.066 90.2988C349.969 90.2988 350.656 90.6719 351.129 91.418C351.602 92.1602 351.838 93.252 351.838 94.6934ZM346.963 94.6934C346.963 96.0215 347.137 97.0039 347.484 97.6406C347.832 98.2734 348.359 98.5898 349.066 98.5898C349.805 98.5898 350.342 98.2617 350.678 97.6055C351.018 96.9492 351.188 95.9785 351.188 94.6934C351.188 93.4277 351.018 92.4668 350.678 91.8105C350.342 91.1543 349.805 90.8262 349.066 90.8262C348.328 90.8262 347.793 91.1543 347.461 91.8105C347.129 92.4668 346.963 93.4277 346.963 94.6934ZM353.748 92.9883C353.748 93.7148 353.836 94.2617 354.012 94.6289C354.188 94.9922 354.463 95.1738 354.838 95.1738C355.592 95.1738 355.969 94.4453 355.969 92.9883C355.969 92.2695 355.871 91.7305 355.676 91.3711C355.484 91.0078 355.205 90.8262 354.838 90.8262C354.463 90.8262 354.188 91.0078 354.012 91.3711C353.836 91.7305 353.748 92.2695 353.748 92.9883ZM356.543 92.9883C356.543 93.8711 356.396 94.543 356.104 95.0039C355.811 95.4609 355.389 95.6895 354.838 95.6895C354.318 95.6895 353.91 95.4551 353.613 94.9863C353.32 94.5137 353.174 93.8477 353.174 92.9883C353.174 92.1172 353.314 91.4531 353.596 90.9961C353.877 90.5391 354.291 90.3105 354.838 90.3105C355.381 90.3105 355.801 90.5469 356.098 91.0195C356.395 91.4883 356.543 92.1445 356.543 92.9883ZM358.74 96.4336C358.74 97.1562 358.828 97.6992 359.004 98.0625C359.18 98.4219 359.455 98.6016 359.83 98.6016C360.584 98.6016 360.961 97.8789 360.961 96.4336C360.961 94.9922 360.584 94.2715 359.83 94.2715C359.455 94.2715 359.18 94.4512 359.004 94.8105C358.828 95.166 358.74 95.707 358.74 96.4336ZM361.535 96.4336C361.535 97.3164 361.391 97.9883 361.102 98.4492C360.812 98.9062 360.393 99.1348 359.842 99.1348C359.311 99.1348 358.898 98.8984 358.605 98.4258C358.312 97.9492 358.166 97.2852 358.166 96.4336C358.166 95.5547 358.309 94.8887 358.594 94.4355C358.883 93.9824 359.299 93.7559 359.842 93.7559C360.377 93.7559 360.793 93.9902 361.09 94.459C361.387 94.9277 361.535 95.5859 361.535 96.4336ZM360.012 90.4336L355.26 99H354.697L359.449 90.4336H360.012Z" fill="white"/>
<path d="M201.322 120L200.701 117.961H197.578L196.957 120H195L198.023 111.398H200.244L203.279 120H201.322ZM200.268 116.438C199.693 114.59 199.369 113.545 199.295 113.303C199.225 113.061 199.174 112.869 199.143 112.729C199.014 113.229 198.645 114.465 198.035 116.438H200.268ZM207.615 115.189H211.014V119.631C210.463 119.811 209.943 119.936 209.455 120.006C208.971 120.08 208.475 120.117 207.967 120.117C206.674 120.117 205.686 119.738 205.002 118.98C204.322 118.219 203.982 117.127 203.982 115.705C203.982 114.322 204.377 113.244 205.166 112.471C205.959 111.697 207.057 111.311 208.459 111.311C209.338 111.311 210.186 111.486 211.002 111.838L210.398 113.291C209.773 112.979 209.123 112.822 208.447 112.822C207.662 112.822 207.033 113.086 206.561 113.613C206.088 114.141 205.852 114.85 205.852 115.74C205.852 116.67 206.041 117.381 206.42 117.873C206.803 118.361 207.357 118.605 208.084 118.605C208.463 118.605 208.848 118.566 209.238 118.488V116.701H207.615V115.189ZM221.232 117.621C221.232 118.395 220.953 119.004 220.395 119.449C219.84 119.895 219.066 120.117 218.074 120.117C217.16 120.117 216.352 119.945 215.648 119.602V117.914C216.227 118.172 216.715 118.354 217.113 118.459C217.516 118.564 217.883 118.617 218.215 118.617C218.613 118.617 218.918 118.541 219.129 118.389C219.344 118.236 219.451 118.01 219.451 117.709C219.451 117.541 219.404 117.393 219.311 117.264C219.217 117.131 219.078 117.004 218.895 116.883C218.715 116.762 218.346 116.568 217.787 116.303C217.264 116.057 216.871 115.82 216.609 115.594C216.348 115.367 216.139 115.104 215.982 114.803C215.826 114.502 215.748 114.15 215.748 113.748C215.748 112.99 216.004 112.395 216.516 111.961C217.031 111.527 217.742 111.311 218.648 111.311C219.094 111.311 219.518 111.363 219.92 111.469C220.326 111.574 220.75 111.723 221.191 111.914L220.605 113.326C220.148 113.139 219.77 113.008 219.469 112.934C219.172 112.859 218.879 112.822 218.59 112.822C218.246 112.822 217.982 112.902 217.799 113.062C217.615 113.223 217.523 113.432 217.523 113.689C217.523 113.85 217.561 113.99 217.635 114.111C217.709 114.229 217.826 114.344 217.986 114.457C218.15 114.566 218.535 114.766 219.141 115.055C219.941 115.438 220.49 115.822 220.787 116.209C221.084 116.592 221.232 117.062 221.232 117.621ZM228.691 120H226.904V116.174C226.904 115.229 226.553 114.756 225.85 114.756C225.35 114.756 224.988 114.926 224.766 115.266C224.543 115.605 224.432 116.156 224.432 116.918V120H222.645V110.883H224.432V112.74C224.432 112.885 224.418 113.225 224.391 113.76L224.35 114.287H224.443C224.842 113.646 225.475 113.326 226.342 113.326C227.111 113.326 227.695 113.533 228.094 113.947C228.492 114.361 228.691 114.955 228.691 115.729V120ZM234.691 120L234.346 119.109H234.299C233.998 119.488 233.688 119.752 233.367 119.9C233.051 120.045 232.637 120.117 232.125 120.117C231.496 120.117 231 119.938 230.637 119.578C230.277 119.219 230.098 118.707 230.098 118.043C230.098 117.348 230.34 116.836 230.824 116.508C231.312 116.176 232.047 115.992 233.027 115.957L234.164 115.922V115.635C234.164 114.971 233.824 114.639 233.145 114.639C232.621 114.639 232.006 114.797 231.299 115.113L230.707 113.906C231.461 113.512 232.297 113.314 233.215 113.314C234.094 113.314 234.768 113.506 235.236 113.889C235.705 114.271 235.939 114.854 235.939 115.635V120H234.691ZM234.164 116.965L233.473 116.988C232.953 117.004 232.566 117.098 232.312 117.27C232.059 117.441 231.932 117.703 231.932 118.055C231.932 118.559 232.221 118.811 232.799 118.811C233.213 118.811 233.543 118.691 233.789 118.453C234.039 118.215 234.164 117.898 234.164 117.504V116.965ZM241.441 113.326C241.684 113.326 241.885 113.344 242.045 113.379L241.91 115.055C241.766 115.016 241.59 114.996 241.383 114.996C240.812 114.996 240.367 115.143 240.047 115.436C239.73 115.729 239.572 116.139 239.572 116.666V120H237.785V113.449H239.139L239.402 114.551H239.49C239.693 114.184 239.967 113.889 240.311 113.666C240.658 113.439 241.035 113.326 241.441 113.326ZM245.947 114.598C245.568 114.598 245.271 114.719 245.057 114.961C244.842 115.199 244.719 115.539 244.688 115.98H247.195C247.188 115.539 247.072 115.199 246.85 114.961C246.627 114.719 246.326 114.598 245.947 114.598ZM246.199 120.117C245.145 120.117 244.32 119.826 243.727 119.244C243.133 118.662 242.836 117.838 242.836 116.771C242.836 115.674 243.109 114.826 243.656 114.229C244.207 113.627 244.967 113.326 245.936 113.326C246.861 113.326 247.582 113.59 248.098 114.117C248.613 114.645 248.871 115.373 248.871 116.303V117.17H244.646C244.666 117.678 244.816 118.074 245.098 118.359C245.379 118.645 245.773 118.787 246.281 118.787C246.676 118.787 247.049 118.746 247.4 118.664C247.752 118.582 248.119 118.451 248.502 118.271V119.654C248.189 119.811 247.855 119.926 247.5 120C247.145 120.078 246.711 120.117 246.199 120.117ZM256.371 120H254.584V116.174C254.584 115.229 254.232 114.756 253.529 114.756C253.029 114.756 252.668 114.926 252.445 115.266C252.223 115.605 252.111 116.156 252.111 116.918V120H250.324V110.883H252.111V112.74C252.111 112.885 252.098 113.225 252.07 113.76L252.029 114.287H252.123C252.521 113.646 253.154 113.326 254.021 113.326C254.791 113.326 255.375 113.533 255.773 113.947C256.172 114.361 256.371 114.955 256.371 115.729V120ZM259.635 116.713C259.635 117.361 259.74 117.852 259.951 118.184C260.166 118.516 260.514 118.682 260.994 118.682C261.471 118.682 261.812 118.518 262.02 118.189C262.23 117.857 262.336 117.365 262.336 116.713C262.336 116.064 262.23 115.578 262.02 115.254C261.809 114.93 261.463 114.768 260.982 114.768C260.506 114.768 260.162 114.93 259.951 115.254C259.74 115.574 259.635 116.061 259.635 116.713ZM264.164 116.713C264.164 117.779 263.883 118.613 263.32 119.215C262.758 119.816 261.975 120.117 260.971 120.117C260.342 120.117 259.787 119.98 259.307 119.707C258.826 119.43 258.457 119.033 258.199 118.518C257.941 118.002 257.812 117.4 257.812 116.713C257.812 115.643 258.092 114.811 258.65 114.217C259.209 113.623 259.994 113.326 261.006 113.326C261.635 113.326 262.189 113.463 262.67 113.736C263.15 114.01 263.52 114.402 263.777 114.914C264.035 115.426 264.164 116.025 264.164 116.713ZM267.428 120H265.641V110.883H267.428V120ZM271.383 120.117C270.613 120.117 270.008 119.818 269.566 119.221C269.129 118.623 268.91 117.795 268.91 116.736C268.91 115.662 269.133 114.826 269.578 114.229C270.027 113.627 270.645 113.326 271.43 113.326C272.254 113.326 272.883 113.646 273.316 114.287H273.375C273.285 113.799 273.24 113.363 273.24 112.98V110.883H275.033V120H273.662L273.316 119.15H273.24C272.834 119.795 272.215 120.117 271.383 120.117ZM272.01 118.693C272.467 118.693 272.801 118.561 273.012 118.295C273.227 118.029 273.344 117.578 273.363 116.941V116.748C273.363 116.045 273.254 115.541 273.035 115.236C272.82 114.932 272.469 114.779 271.98 114.779C271.582 114.779 271.271 114.949 271.049 115.289C270.83 115.625 270.721 116.115 270.721 116.76C270.721 117.404 270.832 117.889 271.055 118.213C271.277 118.533 271.596 118.693 272.01 118.693ZM279.615 114.598C279.236 114.598 278.939 114.719 278.725 114.961C278.51 115.199 278.387 115.539 278.355 115.98H280.863C280.855 115.539 280.74 115.199 280.518 114.961C280.295 114.719 279.994 114.598 279.615 114.598ZM279.867 120.117C278.812 120.117 277.988 119.826 277.395 119.244C276.801 118.662 276.504 117.838 276.504 116.771C276.504 115.674 276.777 114.826 277.324 114.229C277.875 113.627 278.635 113.326 279.604 113.326C280.529 113.326 281.25 113.59 281.766 114.117C282.281 114.645 282.539 115.373 282.539 116.303V117.17H278.314C278.334 117.678 278.484 118.074 278.766 118.359C279.047 118.645 279.441 118.787 279.949 118.787C280.344 118.787 280.717 118.746 281.068 118.664C281.42 118.582 281.787 118.451 282.17 118.271V119.654C281.857 119.811 281.523 119.926 281.168 120C280.812 120.078 280.379 120.117 279.867 120.117ZM287.648 113.326C287.891 113.326 288.092 113.344 288.252 113.379L288.117 115.055C287.973 115.016 287.797 114.996 287.59 114.996C287.02 114.996 286.574 115.143 286.254 115.436C285.938 115.729 285.779 116.139 285.779 116.666V120H283.992V113.449H285.346L285.609 114.551H285.697C285.9 114.184 286.174 113.889 286.518 113.666C286.865 113.439 287.242 113.326 287.648 113.326ZM294.012 118.055C294.012 118.727 293.777 119.238 293.309 119.59C292.844 119.941 292.146 120.117 291.217 120.117C290.74 120.117 290.334 120.084 289.998 120.018C289.662 119.955 289.348 119.861 289.055 119.736V118.26C289.387 118.416 289.76 118.547 290.174 118.652C290.592 118.758 290.959 118.811 291.275 118.811C291.924 118.811 292.248 118.623 292.248 118.248C292.248 118.107 292.205 117.994 292.119 117.908C292.033 117.818 291.885 117.719 291.674 117.609C291.463 117.496 291.182 117.365 290.83 117.217C290.326 117.006 289.955 116.811 289.717 116.631C289.482 116.451 289.311 116.246 289.201 116.016C289.096 115.781 289.043 115.494 289.043 115.154C289.043 114.572 289.268 114.123 289.717 113.807C290.17 113.486 290.811 113.326 291.639 113.326C292.428 113.326 293.195 113.498 293.941 113.842L293.402 115.131C293.074 114.99 292.768 114.875 292.482 114.785C292.197 114.695 291.906 114.65 291.609 114.65C291.082 114.65 290.818 114.793 290.818 115.078C290.818 115.238 290.902 115.377 291.07 115.494C291.242 115.611 291.615 115.785 292.189 116.016C292.701 116.223 293.076 116.416 293.314 116.596C293.553 116.775 293.729 116.982 293.842 117.217C293.955 117.451 294.012 117.73 294.012 118.055ZM295.154 119.162C295.154 118.834 295.242 118.586 295.418 118.418C295.594 118.25 295.85 118.166 296.186 118.166C296.51 118.166 296.76 118.252 296.936 118.424C297.115 118.596 297.205 118.842 297.205 119.162C297.205 119.471 297.115 119.715 296.936 119.895C296.756 120.07 296.506 120.158 296.186 120.158C295.857 120.158 295.604 120.072 295.424 119.9C295.244 119.725 295.154 119.479 295.154 119.162ZM295.154 114.322C295.154 113.994 295.242 113.746 295.418 113.578C295.594 113.41 295.85 113.326 296.186 113.326C296.51 113.326 296.76 113.412 296.936 113.584C297.115 113.756 297.205 114.002 297.205 114.322C297.205 114.639 297.113 114.885 296.93 115.061C296.75 115.232 296.502 115.318 296.186 115.318C295.857 115.318 295.604 115.232 295.424 115.061C295.244 114.889 295.154 114.643 295.154 114.322ZM307.031 120H301.67V119.484L303.949 117.105C304.59 116.441 305.039 115.934 305.297 115.582C305.555 115.23 305.744 114.895 305.865 114.574C305.986 114.254 306.047 113.918 306.047 113.566C306.047 113.055 305.879 112.639 305.543 112.318C305.207 111.998 304.771 111.838 304.236 111.838C303.521 111.838 302.838 112.098 302.186 112.617L301.869 112.213C302.584 111.611 303.377 111.311 304.248 111.311C304.994 111.311 305.58 111.51 306.006 111.908C306.436 112.307 306.65 112.855 306.65 113.555C306.65 114.121 306.506 114.67 306.217 115.201C305.932 115.729 305.408 116.381 304.646 117.158L302.449 119.414V119.438H307.031V120ZM311.01 114.85C311.924 114.85 312.643 115.07 313.166 115.512C313.693 115.953 313.957 116.561 313.957 117.334C313.957 118.213 313.684 118.896 313.137 119.385C312.59 119.873 311.836 120.117 310.875 120.117C310.449 120.117 310.045 120.076 309.662 119.994C309.279 119.908 308.959 119.787 308.701 119.631V119.027C309.123 119.242 309.498 119.393 309.826 119.479C310.154 119.561 310.504 119.602 310.875 119.602C311.625 119.602 312.227 119.404 312.68 119.01C313.133 118.611 313.359 118.074 313.359 117.398C313.359 116.762 313.139 116.262 312.697 115.898C312.256 115.535 311.656 115.354 310.898 115.354C310.391 115.354 309.859 115.43 309.305 115.582L308.953 115.354L309.293 111.434H313.418V111.996H309.844L309.58 115.02C310.189 114.906 310.666 114.85 311.01 114.85ZM319.699 120L316.506 112.09H316.459C316.49 112.574 316.506 113.07 316.506 113.578V120H315.932V111.434H316.857L319.893 118.969H319.928L322.963 111.434H323.865V120H323.262V113.508C323.262 113.055 323.285 112.586 323.332 112.102H323.285L320.08 120H319.699ZM328.734 117V116.52H331.518V117H328.734ZM341.203 120H335.842V119.484L338.121 117.105C338.762 116.441 339.211 115.934 339.469 115.582C339.727 115.23 339.916 114.895 340.037 114.574C340.158 114.254 340.219 113.918 340.219 113.566C340.219 113.055 340.051 112.639 339.715 112.318C339.379 111.998 338.943 111.838 338.408 111.838C337.693 111.838 337.01 112.098 336.357 112.617L336.041 112.213C336.756 111.611 337.549 111.311 338.42 111.311C339.166 111.311 339.752 111.51 340.178 111.908C340.607 112.307 340.822 112.855 340.822 113.555C340.822 114.121 340.678 114.67 340.389 115.201C340.104 115.729 339.58 116.381 338.818 117.158L336.621 119.414V119.438H341.203V120ZM345.182 114.85C346.096 114.85 346.814 115.07 347.338 115.512C347.865 115.953 348.129 116.561 348.129 117.334C348.129 118.213 347.855 118.896 347.309 119.385C346.762 119.873 346.008 120.117 345.047 120.117C344.621 120.117 344.217 120.076 343.834 119.994C343.451 119.908 343.131 119.787 342.873 119.631V119.027C343.295 119.242 343.67 119.393 343.998 119.479C344.326 119.561 344.676 119.602 345.047 119.602C345.797 119.602 346.398 119.404 346.852 119.01C347.305 118.611 347.531 118.074 347.531 117.398C347.531 116.762 347.311 116.262 346.869 115.898C346.428 115.535 345.828 115.354 345.07 115.354C344.562 115.354 344.031 115.43 343.477 115.582L343.125 115.354L343.465 111.434H347.59V111.996H344.016L343.752 115.02C344.361 114.906 344.838 114.85 345.182 114.85ZM349.84 119.543C349.84 119.16 349.996 118.969 350.309 118.969C350.629 118.969 350.789 119.16 350.789 119.543C350.789 119.926 350.629 120.117 350.309 120.117C349.996 120.117 349.84 119.926 349.84 119.543ZM357.932 115.693C357.932 117.197 357.701 118.311 357.24 119.033C356.783 119.756 356.09 120.117 355.16 120.117C354.266 120.117 353.586 119.746 353.121 119.004C352.656 118.258 352.424 117.154 352.424 115.693C352.424 114.201 352.648 113.096 353.098 112.377C353.551 111.658 354.238 111.299 355.16 111.299C356.062 111.299 356.75 111.672 357.223 112.418C357.695 113.16 357.932 114.252 357.932 115.693ZM353.057 115.693C353.057 117.021 353.23 118.004 353.578 118.641C353.926 119.273 354.453 119.59 355.16 119.59C355.898 119.59 356.436 119.262 356.771 118.605C357.111 117.949 357.281 116.979 357.281 115.693C357.281 114.428 357.111 113.467 356.771 112.811C356.436 112.154 355.898 111.826 355.16 111.826C354.422 111.826 353.887 112.154 353.555 112.811C353.223 113.467 353.057 114.428 353.057 115.693ZM359.842 113.988C359.842 114.715 359.93 115.262 360.105 115.629C360.281 115.992 360.557 116.174 360.932 116.174C361.686 116.174 362.062 115.445 362.062 113.988C362.062 113.27 361.965 112.73 361.77 112.371C361.578 112.008 361.299 111.826 360.932 111.826C360.557 111.826 360.281 112.008 360.105 112.371C359.93 112.73 359.842 113.27 359.842 113.988ZM362.637 113.988C362.637 114.871 362.49 115.543 362.197 116.004C361.904 116.461 361.482 116.689 360.932 116.689C360.412 116.689 360.004 116.455 359.707 115.986C359.414 115.514 359.268 114.848 359.268 113.988C359.268 113.117 359.408 112.453 359.689 111.996C359.971 111.539 360.385 111.311 360.932 111.311C361.475 111.311 361.895 111.547 362.191 112.02C362.488 112.488 362.637 113.145 362.637 113.988ZM364.834 117.434C364.834 118.156 364.922 118.699 365.098 119.062C365.273 119.422 365.549 119.602 365.924 119.602C366.678 119.602 367.055 118.879 367.055 117.434C367.055 115.992 366.678 115.271 365.924 115.271C365.549 115.271 365.273 115.451 365.098 115.811C364.922 116.166 364.834 116.707 364.834 117.434ZM367.629 117.434C367.629 118.316 367.484 118.988 367.195 119.449C366.906 119.906 366.486 120.135 365.936 120.135C365.404 120.135 364.992 119.898 364.699 119.426C364.406 118.949 364.26 118.285 364.26 117.434C364.26 116.555 364.402 115.889 364.688 115.436C364.977 114.982 365.393 114.756 365.936 114.756C366.471 114.756 366.887 114.99 367.184 115.459C367.48 115.928 367.629 116.586 367.629 117.434ZM366.105 111.434L361.354 120H360.791L365.543 111.434H366.105Z" fill="white"/>
<path d="M201.322 141L200.701 138.961H197.578L196.957 141H195L198.023 132.398H200.244L203.279 141H201.322ZM200.268 137.438C199.693 135.59 199.369 134.545 199.295 134.303C199.225 134.061 199.174 133.869 199.143 133.729C199.014 134.229 198.645 135.465 198.035 137.438H200.268ZM207.615 136.189H211.014V140.631C210.463 140.811 209.943 140.936 209.455 141.006C208.971 141.08 208.475 141.117 207.967 141.117C206.674 141.117 205.686 140.738 205.002 139.98C204.322 139.219 203.982 138.127 203.982 136.705C203.982 135.322 204.377 134.244 205.166 133.471C205.959 132.697 207.057 132.311 208.459 132.311C209.338 132.311 210.186 132.486 211.002 132.838L210.398 134.291C209.773 133.979 209.123 133.822 208.447 133.822C207.662 133.822 207.033 134.086 206.561 134.613C206.088 135.141 205.852 135.85 205.852 136.74C205.852 137.67 206.041 138.381 206.42 138.873C206.803 139.361 207.357 139.605 208.084 139.605C208.463 139.605 208.848 139.566 209.238 139.488V137.701H207.615V136.189ZM219.48 141H217.664V133.945H215.338V132.434H221.807V133.945H219.48V141ZM225.697 135.598C225.318 135.598 225.021 135.719 224.807 135.961C224.592 136.199 224.469 136.539 224.438 136.98H226.945C226.938 136.539 226.822 136.199 226.6 135.961C226.377 135.719 226.076 135.598 225.697 135.598ZM225.949 141.117C224.895 141.117 224.07 140.826 223.477 140.244C222.883 139.662 222.586 138.838 222.586 137.771C222.586 136.674 222.859 135.826 223.406 135.229C223.957 134.627 224.717 134.326 225.686 134.326C226.611 134.326 227.332 134.59 227.848 135.117C228.363 135.645 228.621 136.373 228.621 137.303V138.17H224.396C224.416 138.678 224.566 139.074 224.848 139.359C225.129 139.645 225.523 139.787 226.031 139.787C226.426 139.787 226.799 139.746 227.15 139.664C227.502 139.582 227.869 139.451 228.252 139.271V140.654C227.939 140.811 227.605 140.926 227.25 141C226.895 141.078 226.461 141.117 225.949 141.117ZM234.234 141L233.889 140.109H233.842C233.541 140.488 233.23 140.752 232.91 140.9C232.594 141.045 232.18 141.117 231.668 141.117C231.039 141.117 230.543 140.938 230.18 140.578C229.82 140.219 229.641 139.707 229.641 139.043C229.641 138.348 229.883 137.836 230.367 137.508C230.855 137.176 231.59 136.992 232.57 136.957L233.707 136.922V136.635C233.707 135.971 233.367 135.639 232.688 135.639C232.164 135.639 231.549 135.797 230.842 136.113L230.25 134.906C231.004 134.512 231.84 134.314 232.758 134.314C233.637 134.314 234.311 134.506 234.779 134.889C235.248 135.271 235.482 135.854 235.482 136.635V141H234.234ZM233.707 137.965L233.016 137.988C232.496 138.004 232.109 138.098 231.855 138.27C231.602 138.441 231.475 138.703 231.475 139.055C231.475 139.559 231.764 139.811 232.342 139.811C232.756 139.811 233.086 139.691 233.332 139.453C233.582 139.215 233.707 138.898 233.707 138.504V137.965ZM243.193 141H241.406V137.174C241.406 136.701 241.326 136.348 241.166 136.113C241.01 135.875 240.762 135.756 240.422 135.756C239.965 135.756 239.633 135.924 239.426 136.26C239.219 136.596 239.115 137.148 239.115 137.918V141H237.328V134.449H238.693L238.934 135.287H239.033C239.209 134.986 239.463 134.752 239.795 134.584C240.127 134.412 240.508 134.326 240.938 134.326C241.918 134.326 242.582 134.646 242.93 135.287H243.088C243.264 134.982 243.521 134.746 243.861 134.578C244.205 134.41 244.592 134.326 245.021 134.326C245.764 134.326 246.324 134.518 246.703 134.9C247.086 135.279 247.277 135.889 247.277 136.729V141H245.484V137.174C245.484 136.701 245.404 136.348 245.244 136.113C245.088 135.875 244.84 135.756 244.5 135.756C244.062 135.756 243.734 135.912 243.516 136.225C243.301 136.537 243.193 137.033 243.193 137.713V141ZM248.865 140.162C248.865 139.834 248.953 139.586 249.129 139.418C249.305 139.25 249.561 139.166 249.896 139.166C250.221 139.166 250.471 139.252 250.646 139.424C250.826 139.596 250.916 139.842 250.916 140.162C250.916 140.471 250.826 140.715 250.646 140.895C250.467 141.07 250.217 141.158 249.896 141.158C249.568 141.158 249.314 141.072 249.135 140.9C248.955 140.725 248.865 140.479 248.865 140.162ZM248.865 135.322C248.865 134.994 248.953 134.746 249.129 134.578C249.305 134.41 249.561 134.326 249.896 134.326C250.221 134.326 250.471 134.412 250.646 134.584C250.826 134.756 250.916 135.002 250.916 135.322C250.916 135.639 250.824 135.885 250.641 136.061C250.461 136.232 250.213 136.318 249.896 136.318C249.568 136.318 249.314 136.232 249.135 136.061C248.955 135.889 248.865 135.643 248.865 135.322ZM257.865 135.85C258.779 135.85 259.498 136.07 260.021 136.512C260.549 136.953 260.812 137.561 260.812 138.334C260.812 139.213 260.539 139.896 259.992 140.385C259.445 140.873 258.691 141.117 257.73 141.117C257.305 141.117 256.9 141.076 256.518 140.994C256.135 140.908 255.814 140.787 255.557 140.631V140.027C255.979 140.242 256.354 140.393 256.682 140.479C257.01 140.561 257.359 140.602 257.73 140.602C258.48 140.602 259.082 140.404 259.535 140.01C259.988 139.611 260.215 139.074 260.215 138.398C260.215 137.762 259.994 137.262 259.553 136.898C259.111 136.535 258.512 136.354 257.754 136.354C257.246 136.354 256.715 136.43 256.16 136.582L255.809 136.354L256.148 132.434H260.273V132.996H256.699L256.436 136.02C257.045 135.906 257.521 135.85 257.865 135.85ZM266.555 141L263.361 133.09H263.314C263.346 133.574 263.361 134.07 263.361 134.578V141H262.787V132.434H263.713L266.748 139.969H266.783L269.818 132.434H270.721V141H270.117V134.508C270.117 134.055 270.141 133.586 270.188 133.102H270.141L266.936 141H266.555ZM275.59 138V137.52H278.373V138H275.59ZM285.182 135.85C286.096 135.85 286.814 136.07 287.338 136.512C287.865 136.953 288.129 137.561 288.129 138.334C288.129 139.213 287.855 139.896 287.309 140.385C286.762 140.873 286.008 141.117 285.047 141.117C284.621 141.117 284.217 141.076 283.834 140.994C283.451 140.908 283.131 140.787 282.873 140.631V140.027C283.295 140.242 283.67 140.393 283.998 140.479C284.326 140.561 284.676 140.602 285.047 140.602C285.797 140.602 286.398 140.404 286.852 140.01C287.305 139.611 287.531 139.074 287.531 138.398C287.531 137.762 287.311 137.262 286.869 136.898C286.428 136.535 285.828 136.354 285.07 136.354C284.562 136.354 284.031 136.43 283.477 136.582L283.125 136.354L283.465 132.434H287.59V132.996H284.016L283.752 136.02C284.361 135.906 284.838 135.85 285.182 135.85ZM289.84 140.543C289.84 140.16 289.996 139.969 290.309 139.969C290.629 139.969 290.789 140.16 290.789 140.543C290.789 140.926 290.629 141.117 290.309 141.117C289.996 141.117 289.84 140.926 289.84 140.543ZM297.932 136.693C297.932 138.197 297.701 139.311 297.24 140.033C296.783 140.756 296.09 141.117 295.16 141.117C294.266 141.117 293.586 140.746 293.121 140.004C292.656 139.258 292.424 138.154 292.424 136.693C292.424 135.201 292.648 134.096 293.098 133.377C293.551 132.658 294.238 132.299 295.16 132.299C296.062 132.299 296.75 132.672 297.223 133.418C297.695 134.16 297.932 135.252 297.932 136.693ZM293.057 136.693C293.057 138.021 293.23 139.004 293.578 139.641C293.926 140.273 294.453 140.59 295.16 140.59C295.898 140.59 296.436 140.262 296.771 139.605C297.111 138.949 297.281 137.979 297.281 136.693C297.281 135.428 297.111 134.467 296.771 133.811C296.436 133.154 295.898 132.826 295.16 132.826C294.422 132.826 293.887 133.154 293.555 133.811C293.223 134.467 293.057 135.428 293.057 136.693ZM299.842 134.988C299.842 135.715 299.93 136.262 300.105 136.629C300.281 136.992 300.557 137.174 300.932 137.174C301.686 137.174 302.062 136.445 302.062 134.988C302.062 134.27 301.965 133.73 301.77 133.371C301.578 133.008 301.299 132.826 300.932 132.826C300.557 132.826 300.281 133.008 300.105 133.371C299.93 133.73 299.842 134.27 299.842 134.988ZM302.637 134.988C302.637 135.871 302.49 136.543 302.197 137.004C301.904 137.461 301.482 137.689 300.932 137.689C300.412 137.689 300.004 137.455 299.707 136.986C299.414 136.514 299.268 135.848 299.268 134.988C299.268 134.117 299.408 133.453 299.689 132.996C299.971 132.539 300.385 132.311 300.932 132.311C301.475 132.311 301.895 132.547 302.191 133.02C302.488 133.488 302.637 134.145 302.637 134.988ZM304.834 138.434C304.834 139.156 304.922 139.699 305.098 140.062C305.273 140.422 305.549 140.602 305.924 140.602C306.678 140.602 307.055 139.879 307.055 138.434C307.055 136.992 306.678 136.271 305.924 136.271C305.549 136.271 305.273 136.451 305.098 136.811C304.922 137.166 304.834 137.707 304.834 138.434ZM307.629 138.434C307.629 139.316 307.484 139.988 307.195 140.449C306.906 140.906 306.486 141.135 305.936 141.135C305.404 141.135 304.992 140.898 304.699 140.426C304.406 139.949 304.26 139.285 304.26 138.434C304.26 137.555 304.402 136.889 304.688 136.436C304.977 135.982 305.393 135.756 305.936 135.756C306.471 135.756 306.887 135.99 307.184 136.459C307.48 136.928 307.629 137.586 307.629 138.434ZM306.105 132.434L301.354 141H300.791L305.543 132.434H306.105Z" fill="white"/>
<path d="M79.9834 2C88.3471 1.9983 96.6594 3.30816 104.617 5.88185L79.9997 81.9999L79.9834 2Z" fill="url(#paint6_linear)"/>
<path d="M104.694 5.90649C124.864 12.4523 141.611 26.7389 151.253 45.6265C160.895 64.514 162.643 86.4571 156.113 106.633L80 81.9999L104.694 5.90649Z" fill="url(#paint7_linear)"/>
<path d="M156.088 106.709C152.191 118.711 145.51 129.62 136.591 138.546C127.672 147.472 116.768 154.162 104.77 158.069C92.7714 161.976 80.0191 162.989 67.5544 161.026C55.0897 159.063 43.266 154.179 33.0493 146.774L79.9999 82L156.088 106.709Z" fill="url(#paint8_linear)"/>
<path d="M32.9848 146.727C19.345 136.819 9.18364 122.856 3.95117 106.83L80.0001 82L32.9848 146.727Z" fill="url(#paint9_linear)"/>
<path d="M3.92628 106.754C-2.63556 86.5888 -0.922346 64.643 8.68938 45.7401C18.3011 26.8372 35.0248 12.5239 55.1851 5.94604L80 82L3.92628 106.754Z" fill="url(#paint10_linear)"/>
<path d="M55.2612 5.92108C63.215 3.33471 71.5252 2.01162 79.8889 2L80 81.9998L55.2612 5.92108Z" fill="url(#paint11_linear)"/>
<circle cx="79.8441" cy="81.8441" r="46.8441" fill="#1D1D1B"/>
<defs>
<filter id="filter0_d" x="140" y="0" width="70" height="64" filterUnits="userSpaceOnUse" color-interpolation-filters="sRGB">
<feFlood flood-opacity="0" result="BackgroundImageFix"/>
<feColorMatrix in="SourceAlpha" type="matrix" values="0 0 0 0 0 0 0 0 0 0 0 0 0 0 0 0 0 0 127 0"/>
<feOffset/>
<feGaussianBlur stdDeviation="15"/>
<feColorMatrix type="matrix" values="0 0 0 0 0 0 0 0 0 0 0 0 0 0 0 0 0 0 1 0"/>
<feBlend mode="normal" in2="BackgroundImageFix" result="effect1_dropShadow"/>
<feBlend mode="normal" in="SourceGraphic" in2="effect1_dropShadow" result="shape"/>
</filter>
<filter id="filter1_d" x="140" y="42" width="70" height="64" filterUnits="userSpaceOnUse" color-interpolation-filters="sRGB">
<feFlood flood-opacity="0" result="BackgroundImageFix"/>
<feColorMatrix in="SourceAlpha" type="matrix" values="0 0 0 0 0 0 0 0 0 0 0 0 0 0 0 0 0 0 127 0"/>
<feOffset/>
<feGaussianBlur stdDeviation="15"/>
<feColorMatrix type="matrix" values="0 0 0 0 0 0 0 0 0 0 0 0 0 0 0 0 0 0 1 0"/>
<feBlend mode="normal" in2="BackgroundImageFix" result="effect1_dropShadow"/>
<feBlend mode="normal" in="SourceGraphic" in2="effect1_dropShadow" result="shape"/>
</filter>
<filter id="filter2_d" x="140" y="64" width="70" height="64" filterUnits="userSpaceOnUse" color-interpolation-filters="sRGB">
<feFlood flood-opacity="0" result="BackgroundImageFix"/>
<feColorMatrix in="SourceAlpha" type="matrix" values="0 0 0 0 0 0 0 0 0 0 0 0 0 0 0 0 0 0 127 0"/>
<feOffset/>
<feGaussianBlur stdDeviation="15"/>
<feColorMatrix type="matrix" values="0 0 0 0 0 0 0 0 0 0 0 0 0 0 0 0 0 0 1 0"/>
<feBlend mode="normal" in2="BackgroundImageFix" result="effect1_dropShadow"/>
<feBlend mode="normal" in="SourceGraphic" in2="effect1_dropShadow" result="shape"/>
</filter>
<filter id="filter3_d" x="140" y="105" width="70" height="64" filterUnits="userSpaceOnUse" color-interpolation-filters="sRGB">
<feFlood flood-opacity="0" result="BackgroundImageFix"/>
<feColorMatrix in="SourceAlpha" type="matrix" values="0 0 0 0 0 0 0 0 0 0 0 0 0 0 0 0 0 0 127 0"/>
<feOffset/>
<feGaussianBlur stdDeviation="15"/>
<feColorMatrix type="matrix" values="0 0 0 0 0 0 0 0 0 0 0 0 0 0 0 0 0 0 1 0"/>
<feBlend mode="normal" in2="BackgroundImageFix" result="effect1_dropShadow"/>
<feBlend mode="normal" in="SourceGraphic" in2="effect1_dropShadow" result="shape"/>
</filter>
<linearGradient id="paint0_linear" x1="170" y1="34" x2="180" y2="34" gradientUnits="userSpaceOnUse">
<stop stop-color="#65A6F2"/>
<stop offset="1" stop-color="#22BBDD"/>
</linearGradient>
<linearGradient id="paint1_linear" x1="180" y1="55" x2="170" y2="55" gradientUnits="userSpaceOnUse">
<stop stop-color="#E01E73"/>
<stop offset="1" stop-color="#FF7272"/>
</linearGradient>
<linearGradient id="paint2_linear" x1="180" y1="76" x2="170" y2="76" gradientUnits="userSpaceOnUse">
<stop stop-color="#FF9D0A"/>
<stop offset="1" stop-color="#FEFFC7"/>
</linearGradient>
<linearGradient id="paint3_linear" x1="170" y1="98" x2="180" y2="98" gradientUnits="userSpaceOnUse">
<stop stop-color="#B4FABD"/>
<stop offset="1" stop-color="#22DD9A"/>
</linearGradient>
<linearGradient id="paint4_linear" x1="180" y1="119" x2="170" y2="119" gradientUnits="userSpaceOnUse">
<stop stop-color="#C41005"/>
<stop offset="1" stop-color="#DD5E16"/>
</linearGradient>
<linearGradient id="paint5_linear" x1="170" y1="139" x2="180" y2="139" gradientUnits="userSpaceOnUse">
<stop stop-color="#FA1DBC"/>
<stop offset="1" stop-color="#A122DD"/>
</linearGradient>
<linearGradient id="paint6_linear" x1="79.9834" y1="41.3442" x2="105.829" y2="41.3442" gradientUnits="userSpaceOnUse">
<stop stop-color="#65A6F2"/>
<stop offset="1" stop-color="#22BBDD"/>
</linearGradient>
<linearGradient id="paint7_linear" x1="80" y1="55.4441" x2="163.934" y2="55.4441" gradientUnits="userSpaceOnUse">
<stop stop-color="#FF7272"/>
<stop offset="1" stop-color="#E01E73"/>
</linearGradient>
<linearGradient id="paint8_linear" x1="33.0493" y1="121.344" x2="162.139" y2="121.344" gradientUnits="userSpaceOnUse">
<stop stop-color="#FEFFC7"/>
<stop offset="1" stop-color="#FF9D0A"/>
</linearGradient>
<linearGradient id="paint9_linear" x1="3.95117" y1="113.833" x2="83.7402" y2="113.833" gradientUnits="userSpaceOnUse">
<stop stop-color="#B4FABD"/>
<stop offset="1" stop-color="#22DD9A"/>
</linearGradient>
<linearGradient id="paint10_linear" x1="1.98028e-07" y1="55.5239" x2="83.9344" y2="55.5239" gradientUnits="userSpaceOnUse">
<stop stop-color="#C31005"/>
<stop offset="1" stop-color="#DD5E16"/>
</linearGradient>
<linearGradient id="paint11_linear" x1="67.6306" y1="2" x2="67.6306" y2="81.9998" gradientUnits="userSpaceOnUse">
<stop stop-color="#FA1DBC"/>
<stop offset="1" stop-color="#A122DD"/>
</linearGradient>
</defs>
</svg>
