<svg width="469" height="476" viewBox="0 0 469 476" fill="none" xmlns="http://www.w3.org/2000/svg">
<circle cx="229.999" cy="230" r="197.897" stroke="#22BBDD"/>
<circle cx="230" cy="230" r="229.5" stroke="#22BBDD" stroke-dasharray="4 4"/>
<circle cx="230" cy="230" r="187.363" stroke="#22BBDD" stroke-dasharray="4 4"/>
<circle cx="157.696" cy="155.527" r="8.5" transform="rotate(45 157.696 155.527)" stroke="#22BBDD"/>
<circle cx="170.424" cy="168.255" r="4.5" transform="rotate(45 170.424 168.255)" stroke="#22BBDD"/>
<circle cx="179.616" cy="177.447" r="3.5" transform="rotate(45 179.616 177.447)" stroke="#22BBDD"/>
<circle cx="187.395" cy="185.225" r="2.5" transform="rotate(45 187.395 185.225)" stroke="#22BBDD"/>
<circle cx="305.643" cy="157.697" r="8.5" transform="rotate(135 305.643 157.697)" stroke="#22BBDD"/>
<circle cx="292.915" cy="170.425" r="4.5" transform="rotate(135 292.915 170.425)" stroke="#22BBDD"/>
<circle cx="283.723" cy="179.617" r="3.5" transform="rotate(135 283.723 179.617)" stroke="#22BBDD"/>
<circle cx="275.945" cy="187.395" r="2.5" transform="rotate(135 275.945 187.395)" stroke="#22BBDD"/>
<circle cx="303.155" cy="305.644" r="8.5" transform="rotate(-135 303.155 305.644)" stroke="#22BBDD"/>
<circle cx="290.428" cy="292.916" r="4.5" transform="rotate(-135 290.428 292.916)" stroke="#22BBDD"/>
<circle cx="281.235" cy="283.723" r="3.5" transform="rotate(-135 281.235 283.723)" stroke="#22BBDD"/>
<circle cx="273.457" cy="275.945" r="2.5" transform="rotate(-135 273.457 275.945)" stroke="#22BBDD"/>
<circle cx="155.527" cy="303.155" r="8.5" transform="rotate(-45 155.527 303.155)" stroke="#22BBDD"/>
<circle cx="168.255" cy="290.427" r="4.5" transform="rotate(-45 168.255 290.427)" stroke="#22BBDD"/>
<circle cx="177.447" cy="281.235" r="3.5" transform="rotate(-45 177.447 281.235)" stroke="#22BBDD"/>
<circle cx="185.225" cy="273.457" r="2.5" transform="rotate(-45 185.225 273.457)" stroke="#22BBDD"/>
<circle cx="78.2505" cy="81.7617" r="70.229" transform="rotate(-90 78.2505 81.7617)" fill="#141413"/>
<circle cx="78.2505" cy="81.7617" r="69.729" transform="rotate(-90 78.2505 81.7617)" fill="#141413" stroke="#22BBDD"/>
<path d="M35.4156 110.552L35.1798 110.421L45.7679 94.0162L33.5811 82.6674L33.6597 82.5621L48.9128 65.9733L49.0177 66.026L118.548 106.418L118.417 106.655L48.9653 66.2893L33.948 82.6411L46.0824 93.9636L35.4156 110.552Z" fill="#22BBDD"/>
<path d="M70.7744 117.411L70.6689 117.384L35.1055 110.685L35.1318 110.422L70.6162 117.095L95.4237 49.2084L95.6873 49.2873L70.7744 117.411Z" fill="#22BBDD"/>
<path d="M36.9622 55.4232L36.7881 55.6199L48.8848 66.3303L49.0589 66.1336L36.9622 55.4232Z" fill="#22BBDD"/>
<path d="M35.3608 82.4109C35.3608 83.061 34.8422 83.5796 34.1921 83.5796C33.542 83.5796 33.0234 83.061 33.0234 82.4109C33.0234 81.7622 33.5398 81.2444 34.1879 81.2422C34.8471 81.2664 35.3608 81.7928 35.3608 82.4109Z" fill="#252423" stroke="#22BBDD" stroke-width="0.5"/>
<path d="M37.9218 110.005C37.9218 110.805 37.2839 111.442 36.4848 111.442C35.6857 111.442 35.0479 110.805 35.0479 110.005C35.0479 109.208 35.6835 108.571 36.4806 108.568C37.2889 108.598 37.9218 109.243 37.9218 110.005Z" fill="#252423" stroke="#22BBDD" stroke-width="0.5"/>
<path d="M97.1254 48.8885C97.1254 49.5386 96.6068 50.0572 95.9567 50.0572C95.3067 50.0572 94.7881 49.5386 94.7881 48.8885C94.7881 48.2384 95.3067 47.7198 95.9567 47.7198C96.6068 47.7198 97.1254 48.2384 97.1254 48.8885Z" fill="#252423" stroke="#22BBDD" stroke-width="0.5"/>
<path d="M37.5317 55.0547C37.5317 55.7048 37.0131 56.2233 36.363 56.2233C35.7129 56.2233 35.1943 55.7048 35.1943 55.0547C35.1943 54.406 35.7107 53.8882 36.3588 53.886C37.018 53.9101 37.5317 54.4366 37.5317 55.0547Z" fill="#252423" stroke="#22BBDD" stroke-width="0.5"/>
<path d="M123.858 58.1118L100.429 68.27L100.533 68.511L123.962 58.3529L123.858 58.1118Z" fill="#22BBDD"/>
<path d="M68.2302 44.6684L68.0068 44.8066L78.0312 61.0021L78.2546 60.8639L68.2302 44.6684Z" fill="#22BBDD"/>
<path d="M71.3518 87.7552L45.3545 93.2028L45.4084 93.4599L71.4057 88.0124L71.3518 87.7552Z" fill="#22BBDD"/>
<path opacity="0.8" d="M123.858 58.1117L86.4189 74.3444L86.5235 74.5854L123.963 58.3528L123.858 58.1117Z" fill="#22BBDD"/>
<path d="M103.587 83.6033L103.364 83.7428L118.316 107.608L118.539 107.469L103.587 83.6033Z" fill="#22BBDD"/>
<path opacity="0.8" d="M95.4345 70.5909L95.2119 70.7304L118.316 107.608L118.539 107.469L95.4345 70.5909Z" fill="#22BBDD"/>
<path opacity="0.8" d="M68.2302 44.6684L68.0068 44.8066L91.9667 83.5166L92.1901 83.3783L68.2302 44.6684Z" fill="#22BBDD"/>
<path opacity="0.8" d="M102.124 81.3072L45.3545 93.2028L45.4084 93.4599L102.178 81.5643L102.124 81.3072Z" fill="#22BBDD"/>
<path d="M70.6865 117.297L45.2295 93.3902L48.8287 66.173L48.855 66.1467L68.0331 44.6304H68.0857L102.843 39.7964L124.07 58.1865V58.2653L118.579 107.682L118.474 107.708L70.6865 117.297ZM45.5185 93.2851L70.7653 117.035L118.317 107.445L123.781 58.2916L102.764 40.0854L68.1645 44.8668L49.0914 66.2781L45.5185 93.2851Z" fill="#22BBDD"/>
<circle opacity="0.1" cx="67.3284" cy="51.8182" r="8.80301" fill="#22BBDD"/>
<circle cx="67.3285" cy="51.8183" r="7.62927" fill="#22BBDD"/>
<circle opacity="0.1" cx="81.2276" cy="67.1077" r="10.6563" fill="#22BBDD"/>
<circle cx="81.2276" cy="67.1076" r="9.23544" fill="#22BBDD"/>
<circle opacity="0.1" cx="92.8101" cy="47.6484" r="10.193" fill="#22BBDD"/>
<circle cx="92.8105" cy="47.6484" r="8.8339" fill="#22BBDD"/>
<path d="M70.9073 107.445V85.0755C70.9073 83.5923 71.4915 82.1699 72.5313 81.1211C73.571 80.0723 74.9813 79.4831 76.4517 79.4831H101.402V76.687C101.402 73.6112 98.9065 71.0947 95.8571 71.0947H57.0463C55.5759 71.0947 54.1656 71.6839 53.1259 72.7326C52.0861 73.7814 51.502 75.2038 51.502 76.687V115.833C51.502 117.316 52.0861 118.739 53.1259 119.788C54.1656 120.836 55.5759 121.425 57.0463 121.425H95.8571C98.9065 121.425 101.402 118.909 101.402 115.833V113.037H76.4517C74.9813 113.037 73.571 112.448 72.5313 111.399C71.4915 110.35 70.9073 108.928 70.9073 107.445ZM79.2239 85.0755C77.6992 85.0755 76.4517 86.3337 76.4517 87.8716V104.649C76.4517 106.186 77.6992 107.445 79.2239 107.445H104.174V85.0755H79.2239ZM87.5405 100.454C85.2396 100.454 83.3822 98.5809 83.3822 96.2601C83.3822 93.9393 85.2396 92.0658 87.5405 92.0658C89.8414 92.0658 91.6988 93.9393 91.6988 96.2601C91.6988 98.5809 89.8414 100.454 87.5405 100.454Z" fill="#141413"/>
<path d="M70.4073 85.0755V107.445C70.4073 109.059 71.0431 110.608 72.1762 111.751C73.3094 112.894 74.8473 113.537 76.4517 113.537H100.902V115.833C100.902 118.637 98.6263 120.925 95.8571 120.925H57.0463C55.7099 120.925 54.4273 120.39 53.4809 119.435C52.5345 118.481 52.002 117.185 52.002 115.833V76.687C52.002 75.335 52.5345 74.0393 53.4809 73.0847C54.4273 72.1301 55.7099 71.5947 57.0463 71.5947H95.8571C98.6263 71.5947 100.902 73.8833 100.902 76.687V78.9831H76.4517C74.8473 78.9831 73.3094 79.6261 72.1762 80.7691C71.0431 81.9119 70.4073 83.4611 70.4073 85.0755ZM76.9517 87.8716C76.9517 86.6058 77.9794 85.5755 79.2239 85.5755H103.674V106.945H79.2239C77.9794 106.945 76.9517 105.914 76.9517 104.649V87.8716ZM82.8822 96.2601C82.8822 98.853 84.9594 100.954 87.5405 100.954C90.1216 100.954 92.1988 98.853 92.1988 96.2601C92.1988 93.6672 90.1216 91.5658 87.5405 91.5658C84.9594 91.5658 82.8822 93.6672 82.8822 96.2601Z" stroke="#22BBDD"/>
<circle cx="378.066" cy="381.578" r="70.229" fill="#141413"/>
<g filter="url(#filter0_d)">
<circle cx="378.066" cy="381.578" r="70.229" fill="#141413"/>
<circle cx="378.066" cy="381.578" r="69.729" stroke="#22BBDD"/>
</g>
<mask id="mask0" mask-type="alpha" maskUnits="userSpaceOnUse" x="318" y="321" width="120" height="121">
<circle cx="378.066" cy="381.578" r="59.1947" fill="#141413" stroke="#22BBDD"/>
</mask>
<g mask="url(#mask0)">
<mask id="mask1" mask-type="alpha" maskUnits="userSpaceOnUse" x="310" y="307" width="208" height="135">
<rect x="310.178" y="307.656" width="207.176" height="133.482" rx="20" fill="#22BBDD"/>
</mask>
<g mask="url(#mask1)">
<path d="M314.071 395.486L314.071 395.254L431.378 395.254L441.111 404.987L509.475 404.987L509.475 405.219L441.019 405.219L431.286 395.486L314.071 395.486Z" fill="#22BBDD"/>
<path d="M441.064 405.219L441.064 404.987L314.071 404.987L314.071 405.219L441.064 405.219Z" fill="#22BBDD"/>
<path d="M314.071 412.171L314.071 411.939L450.519 411.939L450.566 411.986L469.383 427.698L511.05 427.698L511.05 427.93L469.29 427.93L469.244 427.93L450.427 412.171L314.071 412.171Z" fill="#22BBDD"/>
<path d="M395.783 395.301L415.017 365.545L497.841 365.545L497.841 365.777L415.156 365.777L395.968 395.44L395.783 395.301Z" fill="#22BBDD"/>
<path d="M482.082 377.596L482.082 377.364L407.462 377.364L407.462 377.596L482.082 377.596Z" fill="#22BBDD"/>
<path d="M402.967 384.548L402.967 384.316L314.071 384.316L314.071 384.548L402.967 384.548Z" fill="#22BBDD"/>
<path d="M338.775 395.44L338.96 395.301L345.912 405.034L345.727 405.173L338.775 395.44Z" fill="#22BBDD"/>
<path d="M389.757 384.362L406.813 353.773L407.045 353.865L389.943 384.455L389.757 384.362Z" fill="#22BBDD"/>
<path d="M385.262 384.362L402.364 353.773L402.596 353.865L385.493 384.455L385.262 384.362Z" fill="#22BBDD"/>
<path d="M426.28 412.171L426.465 411.986L444.819 428.949L452.791 428.949L452.791 429.181L444.726 429.181L444.68 429.135L426.28 412.171Z" fill="#22BBDD"/>
<path d="M421.644 412.171L421.83 411.986L441.898 430.849L441.759 430.988L421.644 412.171Z" fill="#22BBDD"/>
<path d="M423.128 377.364L433 365.545L433.186 365.731L423.313 377.549L423.128 377.364Z" fill="#22BBDD"/>
<path d="M426.882 377.364L436.569 365.545L436.754 365.731L427.067 377.549L426.882 377.364Z" fill="#22BBDD"/>
<path d="M366.675 435.762L366.675 424.222L373.164 412.032L373.35 412.125L366.907 424.314L366.907 435.762L366.675 435.762Z" fill="#22BBDD"/>
<path d="M361.67 435.762L361.67 423.851L367.603 412.032L367.788 412.125L361.902 423.944L361.902 435.762L361.67 435.762Z" fill="#22BBDD"/>
<path d="M314.071 426.261L314.071 426.029L341.231 426.029L351.984 411.986L352.169 412.125L341.324 426.261L314.071 426.261Z" fill="#22BBDD"/>
<mask id="path-71-inside-1" fill="white">
<path d="M365.286 437.014C365.286 436.18 365.935 435.531 366.769 435.531C367.603 435.531 368.252 436.18 368.252 437.014C368.252 437.848 367.603 438.497 366.769 438.497C365.935 438.497 365.286 437.848 365.286 437.014ZM368.02 437.014C368.02 436.319 367.464 435.762 366.769 435.762C366.074 435.762 365.517 436.319 365.517 437.014C365.517 437.709 366.074 438.265 366.769 438.265C367.464 438.265 368.02 437.709 368.02 437.014Z"/>
</mask>
<path d="M365.286 437.014C365.286 436.18 365.935 435.531 366.769 435.531C367.603 435.531 368.252 436.18 368.252 437.014C368.252 437.848 367.603 438.497 366.769 438.497C365.935 438.497 365.286 437.848 365.286 437.014ZM368.02 437.014C368.02 436.319 367.464 435.762 366.769 435.762C366.074 435.762 365.517 436.319 365.517 437.014C365.517 437.709 366.074 438.265 366.769 438.265C367.464 438.265 368.02 437.709 368.02 437.014Z" fill="#22BBDD"/>
<path d="M366.286 437.014C366.286 436.732 366.487 436.531 366.769 436.531L366.769 434.531C365.382 434.531 364.286 435.627 364.286 437.014L366.286 437.014ZM366.769 436.531C367.051 436.531 367.252 436.732 367.252 437.014L369.252 437.014C369.252 435.627 368.155 434.531 366.769 434.531L366.769 436.531ZM367.252 437.014C367.252 437.296 367.051 437.497 366.769 437.497L366.769 439.497C368.155 439.497 369.252 438.4 369.252 437.014L367.252 437.014ZM366.769 437.497C366.487 437.497 366.286 437.296 366.286 437.014L364.286 437.014C364.286 438.4 365.382 439.497 366.769 439.497L366.769 437.497ZM369.02 437.014C369.02 435.766 368.016 434.762 366.769 434.762L366.769 436.762C366.912 436.762 367.02 436.871 367.02 437.014L369.02 437.014ZM366.769 434.762C365.521 434.762 364.517 435.766 364.517 437.014L366.517 437.014C366.517 436.871 366.626 436.762 366.769 436.762L366.769 434.762ZM364.517 437.014C364.517 438.261 365.521 439.265 366.769 439.265L366.769 437.265C366.626 437.265 366.517 437.157 366.517 437.014L364.517 437.014ZM366.769 439.265C368.016 439.265 369.02 438.261 369.02 437.014L367.02 437.014C367.02 437.157 366.912 437.265 366.769 437.265L366.769 439.265Z" fill="#22BBDD" mask="url(#path-71-inside-1)"/>
<mask id="path-73-inside-2" fill="white">
<path d="M410.799 398.684C410.799 397.85 411.448 397.201 412.282 397.201C413.117 397.201 413.766 397.85 413.766 398.684C413.766 399.518 413.117 400.167 412.282 400.167C411.448 400.167 410.799 399.472 410.799 398.684ZM413.534 398.684C413.534 397.989 412.978 397.433 412.282 397.433C411.587 397.433 411.031 397.989 411.031 398.684C411.031 399.379 411.587 399.935 412.282 399.935C412.978 399.935 413.534 399.379 413.534 398.684Z"/>
</mask>
<path d="M410.799 398.684C410.799 397.85 411.448 397.201 412.282 397.201C413.117 397.201 413.766 397.85 413.766 398.684C413.766 399.518 413.117 400.167 412.282 400.167C411.448 400.167 410.799 399.472 410.799 398.684ZM413.534 398.684C413.534 397.989 412.978 397.433 412.282 397.433C411.587 397.433 411.031 397.989 411.031 398.684C411.031 399.379 411.587 399.935 412.282 399.935C412.978 399.935 413.534 399.379 413.534 398.684Z" fill="#22BBDD"/>
<path d="M411.799 398.684C411.799 398.402 412.001 398.201 412.282 398.201L412.282 396.201C410.896 396.201 409.799 397.297 409.799 398.684L411.799 398.684ZM412.282 398.201C412.564 398.201 412.766 398.402 412.766 398.684L414.766 398.684C414.766 397.297 413.669 396.201 412.282 396.201L412.282 398.201ZM412.766 398.684C412.766 398.966 412.564 399.167 412.282 399.167L412.282 401.167C413.669 401.167 414.766 400.07 414.766 398.684L412.766 398.684ZM412.282 399.167C412.021 399.167 411.799 398.94 411.799 398.684L409.799 398.684C409.799 400.004 410.876 401.167 412.282 401.167L412.282 399.167ZM414.534 398.684C414.534 397.436 413.53 396.433 412.282 396.433L412.282 398.433C412.425 398.433 412.534 398.541 412.534 398.684L414.534 398.684ZM412.282 396.433C411.035 396.433 410.031 397.436 410.031 398.684L412.031 398.684C412.031 398.541 412.14 398.433 412.282 398.433L412.282 396.433ZM410.031 398.684C410.031 399.931 411.035 400.935 412.282 400.935L412.282 398.935C412.14 398.935 412.031 398.827 412.031 398.684L410.031 398.684ZM412.282 400.935C413.53 400.935 414.534 399.931 414.534 398.684L412.534 398.684C412.534 398.827 412.425 398.935 412.282 398.935L412.282 400.935Z" fill="#22BBDD" mask="url(#path-73-inside-2)"/>
<path d="M405.516 402.531C405.516 403.299 406.139 403.921 406.906 403.921C407.674 403.921 408.297 403.299 408.297 402.531C408.297 401.763 407.674 401.14 406.906 401.14C406.139 401.14 405.516 401.763 405.516 402.531Z" fill="#22BBDD"/>
<path d="M410.892 398.777L410.892 398.545L341.184 398.545L341.184 398.777L410.892 398.777Z" fill="#22BBDD"/>
<path d="M406.906 402.624L406.906 402.392L343.873 402.392L343.873 402.623L406.906 402.624Z" fill="#22BBDD"/>
<path d="M466.231 379.82L466.231 379.589L405.979 379.589L405.979 379.82L466.231 379.82Z" fill="#22BBDD"/>
<path d="M472.257 371.663L472.257 371.431L431.841 371.431L431.841 371.663L472.257 371.663Z" fill="#22BBDD"/>
<mask id="path-80-inside-3" fill="white">
<path d="M360.418 437.014C360.418 436.18 361.067 435.531 361.902 435.531C362.736 435.531 363.385 436.18 363.385 437.014C363.385 437.848 362.736 438.497 361.902 438.497C361.067 438.497 360.418 437.848 360.418 437.014ZM363.199 437.014C363.199 436.319 362.643 435.762 361.948 435.762C361.253 435.762 360.697 436.319 360.697 437.014C360.697 437.709 361.253 438.265 361.948 438.265C362.643 438.265 363.199 437.709 363.199 437.014Z"/>
</mask>
<path d="M360.418 437.014C360.418 436.18 361.067 435.531 361.902 435.531C362.736 435.531 363.385 436.18 363.385 437.014C363.385 437.848 362.736 438.497 361.902 438.497C361.067 438.497 360.418 437.848 360.418 437.014ZM363.199 437.014C363.199 436.319 362.643 435.762 361.948 435.762C361.253 435.762 360.697 436.319 360.697 437.014C360.697 437.709 361.253 438.265 361.948 438.265C362.643 438.265 363.199 437.709 363.199 437.014Z" fill="#22BBDD"/>
<path d="M361.418 437.014C361.418 436.732 361.62 436.531 361.902 436.531L361.902 434.531C360.515 434.531 359.418 435.627 359.418 437.014L361.418 437.014ZM361.902 436.531C362.184 436.531 362.385 436.732 362.385 437.014L364.385 437.014C364.385 435.627 363.288 434.531 361.902 434.531L361.902 436.531ZM362.385 437.014C362.385 437.296 362.184 437.497 361.902 437.497L361.902 439.497C363.288 439.497 364.385 438.4 364.385 437.014L362.385 437.014ZM361.902 437.497C361.62 437.497 361.418 437.296 361.418 437.014L359.418 437.014C359.418 438.4 360.515 439.497 361.902 439.497L361.902 437.497ZM364.199 437.014C364.199 435.766 363.196 434.762 361.948 434.762L361.948 436.762C362.091 436.762 362.199 436.871 362.199 437.014L364.199 437.014ZM361.948 434.762C360.7 434.762 359.697 435.766 359.697 437.014L361.697 437.014C361.697 436.871 361.805 436.762 361.948 436.762L361.948 434.762ZM359.697 437.014C359.697 438.261 360.7 439.265 361.948 439.265L361.948 437.265C361.805 437.265 361.697 437.157 361.697 437.014L359.697 437.014ZM361.948 439.265C363.195 439.265 364.199 438.261 364.199 437.014L362.199 437.014C362.199 437.157 362.091 437.265 361.948 437.265L361.948 439.265Z" fill="#22BBDD" mask="url(#path-80-inside-3)"/>
<path d="M406.165 352.846C406.165 352.011 406.813 351.363 407.648 351.363C408.482 351.363 409.131 352.011 409.131 352.846C409.131 353.68 408.482 354.329 407.648 354.329C406.813 354.329 406.165 353.68 406.165 352.846ZM408.945 352.846C408.945 352.151 408.389 351.594 407.694 351.594C406.999 351.594 406.443 352.151 406.443 352.846C406.443 353.541 406.999 354.097 407.694 354.097C408.389 354.097 408.945 353.541 408.945 352.846Z" fill="#22BBDD"/>
<path d="M402.966 353.736C402.474 353.736 402.076 353.338 402.076 352.846C402.076 352.354 402.474 351.955 402.966 351.955C403.458 351.955 403.856 352.354 403.856 352.846C403.856 353.338 403.458 353.736 402.966 353.736Z" fill="#22BBDD" stroke="#22BBDD"/>
<path d="M310.039 342.139L310.039 341.908L311.475 341.908L321.209 351.641L389.618 351.641L389.618 351.872L321.116 351.872L311.383 342.139L310.039 342.139Z" fill="#22BBDD"/>
<path d="M310.038 358.825L310.038 358.593L330.663 358.593L349.481 374.351L391.147 374.351L391.147 374.583L349.434 374.583L349.388 374.537L330.571 358.825L310.038 358.825Z" fill="#22BBDD"/>
<path d="M375.111 366.704L375.111 366.472L340.026 366.472L340.026 366.704L375.111 366.704Z" fill="#22BBDD"/>
<path d="M363.663 358.825L363.663 358.593L330.617 358.593L330.617 358.825L363.663 358.825Z" fill="#22BBDD"/>
<path d="M285.613 341.954L304.894 312.152L350.593 312.152L350.593 312.384L305.033 312.384L285.845 342.093L285.613 341.954Z" fill="#22BBDD"/>
<path d="M362.181 324.203L362.181 323.971L287.56 323.971L287.56 324.203L362.181 324.203Z" fill="#22BBDD"/>
<path d="M330.153 326.427L330.292 326.288L348.646 343.252L356.618 343.252L356.618 343.483L348.554 343.483L348.507 343.437L330.153 326.427Z" fill="#22BBDD"/>
<path d="M325.519 326.427L325.658 326.288L345.727 345.106L345.588 345.291L325.519 326.427Z" fill="#22BBDD"/>
<path d="M316.759 324.017L326.446 312.199L326.585 312.338L316.945 324.156L316.759 324.017Z" fill="#22BBDD"/>
<path d="M323.99 374.212L324.036 362.672L326.168 358.639L326.354 358.732L324.222 362.764L324.222 374.212L323.99 374.212Z" fill="#22BBDD"/>
<path d="M319.03 374.212L319.03 362.301L320.792 358.778L321.023 358.871L319.262 362.393L319.262 374.212L319.03 374.212Z" fill="#22BBDD"/>
<mask id="path-95-inside-4" fill="white">
<path d="M322.599 375.464C322.599 374.629 323.248 373.98 324.082 373.98C324.917 373.98 325.565 374.629 325.565 375.464C325.565 376.298 324.917 376.947 324.082 376.947C323.248 376.947 322.599 376.298 322.599 375.464ZM325.38 375.464C325.38 374.768 324.824 374.212 324.129 374.212C323.433 374.212 322.877 374.768 322.877 375.464C322.877 376.159 323.433 376.715 324.129 376.715C324.824 376.715 325.38 376.159 325.38 375.464Z"/>
</mask>
<path d="M322.599 375.464C322.599 374.629 323.248 373.98 324.082 373.98C324.917 373.98 325.565 374.629 325.565 375.464C325.565 376.298 324.917 376.947 324.082 376.947C323.248 376.947 322.599 376.298 322.599 375.464ZM325.38 375.464C325.38 374.768 324.824 374.212 324.129 374.212C323.433 374.212 322.877 374.768 322.877 375.464C322.877 376.159 323.433 376.715 324.129 376.715C324.824 376.715 325.38 376.159 325.38 375.464Z" fill="#22BBDD"/>
<path d="M323.599 375.464C323.599 375.182 323.8 374.98 324.082 374.98L324.082 372.98C322.696 372.98 321.599 374.077 321.599 375.464L323.599 375.464ZM324.082 374.98C324.364 374.98 324.565 375.182 324.565 375.464L326.565 375.464C326.565 374.077 325.469 372.98 324.082 372.98L324.082 374.98ZM324.565 375.464C324.565 375.746 324.364 375.947 324.082 375.947L324.082 377.947C325.469 377.947 326.565 376.85 326.565 375.464L324.565 375.464ZM324.082 375.947C323.8 375.947 323.599 375.746 323.599 375.464L321.599 375.464C321.599 376.85 322.696 377.947 324.082 377.947L324.082 375.947ZM326.38 375.464C326.38 374.216 325.376 373.212 324.129 373.212L324.129 375.212C324.272 375.212 324.38 375.321 324.38 375.464L326.38 375.464ZM324.129 373.212C322.881 373.212 321.877 374.216 321.877 375.464L323.877 375.464C323.877 375.321 323.986 375.212 324.129 375.212L324.129 373.212ZM321.877 375.464C321.877 376.711 322.881 377.715 324.129 377.715L324.129 375.715C323.986 375.715 323.877 375.607 323.877 375.464L321.877 375.464ZM324.129 377.715C325.376 377.715 326.38 376.711 326.38 375.464L324.38 375.464C324.38 375.607 324.272 375.715 324.129 375.715L324.129 377.715Z" fill="#22BBDD" mask="url(#path-95-inside-4)"/>
<path d="M361.717 324.11C361.717 324.878 362.34 325.5 363.108 325.5C363.876 325.5 364.498 324.878 364.498 324.11C364.498 323.342 363.876 322.72 363.108 322.72C362.34 322.72 361.717 323.342 361.717 324.11Z" fill="#22BBDD"/>
<path d="M346.376 326.474L346.376 326.242L286.124 326.242L286.124 326.474L346.376 326.474Z" fill="#22BBDD"/>
<path d="M390.823 353.504C389.82 353.504 389.006 352.691 389.006 351.687C389.006 350.683 389.82 349.87 390.823 349.87C391.827 349.87 392.641 350.683 392.641 351.687C392.641 352.691 391.827 353.504 390.823 353.504Z" fill="#22BBDD" stroke="#22BBDD"/>
<path d="M375.528 367.872C374.78 367.872 374.174 367.266 374.174 366.518C374.174 365.771 374.78 365.164 375.528 365.164C376.276 365.164 376.882 365.771 376.882 366.518C376.882 367.266 376.276 367.872 375.528 367.872Z" fill="#22BBDD" stroke="#22BBDD"/>
<path d="M357.685 344.235C357.193 344.235 356.794 343.836 356.794 343.344C356.794 342.853 357.193 342.454 357.685 342.454C358.177 342.454 358.575 342.853 358.575 343.344C358.575 343.836 358.177 344.235 357.685 344.235Z" fill="#22BBDD" stroke="#22BBDD"/>
<path d="M345.17 345.847C345.17 346.615 345.793 347.238 346.561 347.238C347.329 347.238 347.951 346.615 347.951 345.847C347.951 345.079 347.329 344.457 346.561 344.457C345.793 344.457 345.17 345.079 345.17 345.847Z" fill="#22BBDD"/>
<mask id="path-103-inside-5" fill="white">
<path d="M317.779 375.464C317.779 374.629 318.428 373.98 319.262 373.98C320.096 373.98 320.745 374.629 320.745 375.464C320.745 376.298 320.096 376.947 319.262 376.947C318.428 376.947 317.779 376.298 317.779 375.464ZM320.56 375.464C320.56 374.768 320.004 374.212 319.308 374.212C318.613 374.212 318.057 374.768 318.057 375.464C318.057 376.159 318.613 376.715 319.308 376.715C320.004 376.715 320.56 376.159 320.56 375.464Z"/>
</mask>
<path d="M317.779 375.464C317.779 374.629 318.428 373.98 319.262 373.98C320.096 373.98 320.745 374.629 320.745 375.464C320.745 376.298 320.096 376.947 319.262 376.947C318.428 376.947 317.779 376.298 317.779 375.464ZM320.56 375.464C320.56 374.768 320.004 374.212 319.308 374.212C318.613 374.212 318.057 374.768 318.057 375.464C318.057 376.159 318.613 376.715 319.308 376.715C320.004 376.715 320.56 376.159 320.56 375.464Z" fill="#22BBDD"/>
<path d="M318.779 375.464C318.779 375.182 318.98 374.98 319.262 374.98L319.262 372.98C317.875 372.98 316.779 374.077 316.779 375.464L318.779 375.464ZM319.262 374.98C319.544 374.98 319.745 375.182 319.745 375.464L321.745 375.464C321.745 374.077 320.649 372.98 319.262 372.98L319.262 374.98ZM319.745 375.464C319.745 375.746 319.544 375.947 319.262 375.947L319.262 377.947C320.649 377.947 321.745 376.85 321.745 375.464L319.745 375.464ZM319.262 375.947C318.98 375.947 318.779 375.746 318.779 375.464L316.779 375.464C316.779 376.85 317.875 377.947 319.262 377.947L319.262 375.947ZM321.56 375.464C321.56 374.216 320.556 373.212 319.308 373.212L319.308 375.212C319.451 375.212 319.56 375.321 319.56 375.464L321.56 375.464ZM319.308 373.212C318.061 373.212 317.057 374.216 317.057 375.464L319.057 375.464C319.057 375.321 319.165 375.212 319.308 375.212L319.308 373.212ZM317.057 375.464C317.057 376.711 318.061 377.715 319.308 377.715L319.308 375.715C319.165 375.715 319.057 375.607 319.057 375.464L317.057 375.464ZM319.308 377.715C320.556 377.715 321.56 376.711 321.56 375.464L319.56 375.464C319.56 375.607 319.451 375.715 319.308 375.715L319.308 377.715Z" fill="#22BBDD" mask="url(#path-103-inside-5)"/>
<path d="M394.485 441.139L407.138 418.753L407.323 418.892L394.67 441.231L394.485 441.139Z" fill="#22BBDD"/>
<path d="M390.036 441.139L402.642 418.753L402.874 418.892L390.221 441.231L390.036 441.139Z" fill="#22BBDD"/>
<mask id="path-107-inside-6" fill="white">
<path d="M406.443 417.826C406.443 416.991 407.092 416.342 407.926 416.342C408.76 416.342 409.409 416.991 409.409 417.826C409.409 418.66 408.76 419.309 407.926 419.309C407.092 419.309 406.443 418.66 406.443 417.826ZM409.224 417.826C409.224 417.13 408.668 416.574 407.972 416.574C407.277 416.574 406.721 417.13 406.721 417.826C406.721 418.521 407.277 419.077 407.972 419.077C408.668 419.077 409.224 418.521 409.224 417.826Z"/>
</mask>
<path d="M406.443 417.826C406.443 416.991 407.092 416.342 407.926 416.342C408.76 416.342 409.409 416.991 409.409 417.826C409.409 418.66 408.76 419.309 407.926 419.309C407.092 419.309 406.443 418.66 406.443 417.826ZM409.224 417.826C409.224 417.13 408.668 416.574 407.972 416.574C407.277 416.574 406.721 417.13 406.721 417.826C406.721 418.521 407.277 419.077 407.972 419.077C408.668 419.077 409.224 418.521 409.224 417.826Z" fill="#22BBDD"/>
<path d="M407.443 417.826C407.443 417.544 407.644 417.342 407.926 417.342L407.926 415.342C406.539 415.342 405.443 416.439 405.443 417.826L407.443 417.826ZM407.926 417.342C408.208 417.342 408.409 417.544 408.409 417.826L410.409 417.826C410.409 416.439 409.313 415.342 407.926 415.342L407.926 417.342ZM408.409 417.826C408.409 418.108 408.208 418.309 407.926 418.309L407.926 420.309C409.313 420.309 410.409 419.212 410.409 417.826L408.409 417.826ZM407.926 418.309C407.644 418.309 407.443 418.108 407.443 417.826L405.443 417.826C405.443 419.212 406.539 420.309 407.926 420.309L407.926 418.309ZM410.224 417.826C410.224 416.578 409.22 415.574 407.972 415.574L407.972 417.574C408.115 417.574 408.224 417.683 408.224 417.826L410.224 417.826ZM407.972 415.574C406.725 415.574 405.721 416.578 405.721 417.826L407.721 417.826C407.721 417.683 407.829 417.574 407.972 417.574L407.972 415.574ZM405.721 417.826C405.721 419.073 406.725 420.077 407.972 420.077L407.972 418.077C407.829 418.077 407.721 417.969 407.721 417.826L405.721 417.826ZM407.972 420.077C409.22 420.077 410.224 419.073 410.224 417.826L408.224 417.826C408.224 417.969 408.115 418.077 407.972 418.077L407.972 420.077Z" fill="#22BBDD" mask="url(#path-107-inside-6)"/>
<path d="M403.244 418.716C402.753 418.716 402.354 418.317 402.354 417.826C402.354 417.334 402.753 416.935 403.244 416.935C403.736 416.935 404.135 417.334 404.135 417.826C404.135 418.317 403.736 418.716 403.244 418.716Z" fill="#22BBDD" stroke="#22BBDD"/>
<path d="M346.237 326.335C346.237 325.5 346.886 324.852 347.72 324.852C348.554 324.852 349.203 325.5 349.203 326.335C349.203 327.169 348.554 327.818 347.72 327.818C346.886 327.818 346.237 327.169 346.237 326.335ZM349.018 326.335C349.018 325.639 348.462 325.083 347.766 325.083C347.071 325.083 346.515 325.639 346.515 326.335C346.515 327.03 347.071 327.586 347.766 327.586C348.462 327.586 349.018 327.076 349.018 326.335Z" fill="#22BBDD"/>
<path d="M363.015 328.894C360.278 328.894 358.092 326.707 358.092 323.971C358.092 321.235 360.278 319.048 363.015 319.048C365.751 319.048 367.937 321.235 367.937 323.971C367.937 326.705 365.708 328.894 363.015 328.894Z" fill="#22BBDD" stroke="#22BBDD"/>
<path d="M346.422 350.492C343.686 350.492 341.499 348.306 341.499 345.569C341.499 342.833 343.686 340.646 346.422 340.646C349.158 340.646 351.345 342.833 351.345 345.569C351.345 348.306 349.158 350.492 346.422 350.492Z" fill="#22BBDD" stroke="#22BBDD"/>
<path d="M410.16 377.688L410.16 377.688L410.16 377.701C410.199 379.169 408.955 380.433 407.416 380.433C405.884 380.433 404.671 379.22 404.671 377.688C404.671 376.157 405.884 374.944 407.416 374.944C408.947 374.944 410.16 376.157 410.16 377.688Z" fill="#22BBDD" stroke="#22BBDD"/>
<path d="M345.819 407.685C344.288 407.685 343.075 406.472 343.075 404.941C343.075 403.409 344.288 402.197 345.819 402.197C347.351 402.197 348.563 403.409 348.563 404.941C348.563 406.426 347.304 407.685 345.819 407.685Z" fill="#22BBDD" stroke="#22BBDD"/>
<path d="M409.697 402.716L409.697 402.716L409.697 402.729C409.736 404.197 408.492 405.461 406.953 405.461C405.421 405.461 404.208 404.248 404.208 402.716C404.208 401.185 405.421 399.972 406.953 399.972C408.484 399.972 409.697 401.185 409.697 402.716Z" fill="#22BBDD" stroke="#22BBDD"/>
<path d="M437.172 368.197C435.64 368.197 434.427 366.984 434.427 365.452C434.427 363.921 435.64 362.708 437.172 362.708C438.703 362.708 439.916 363.921 439.916 365.452C439.916 366.984 438.703 368.197 437.172 368.197Z" fill="#22BBDD" stroke="#22BBDD"/>
<path d="M349.063 377.188C347.532 377.188 346.319 375.975 346.319 374.444C346.319 372.912 347.532 371.7 349.063 371.7C350.595 371.7 351.808 372.912 351.808 374.444C351.808 375.934 350.59 377.188 349.063 377.188Z" fill="#22BBDD" stroke="#22BBDD"/>
<path d="M343.744 426.585L343.744 426.585L343.744 426.598C343.783 428.108 342.543 429.33 341 429.33C339.468 429.33 338.255 428.117 338.255 426.585C338.255 425.054 339.468 423.841 341 423.841C342.531 423.841 343.744 425.054 343.744 426.585Z" fill="#22BBDD" stroke="#22BBDD"/>
</g>
</g>
<ellipse cx="77.895" cy="379.237" rx="70.229" ry="70.229" fill="#141413"/>
<path d="M147.624 379.237C147.624 417.747 116.405 448.966 77.895 448.966C39.3848 448.966 8.16602 417.747 8.16602 379.237C8.16602 340.726 39.3848 309.508 77.895 309.508C116.405 309.508 147.624 340.726 147.624 379.237Z" fill="#141413" stroke="#22BBDD"/>
<path d="M77.2525 323.053L97.2479 330.964L116.98 339.509L125.526 359.241L133.436 379.237L125.526 399.232L116.98 418.964L97.2479 427.51L77.2525 435.42L57.2572 427.51L37.525 418.964L28.9795 399.232L21.0693 379.237L28.9795 359.241L37.525 339.509L57.2572 330.964L77.2525 323.053Z" fill="white" fill-opacity="0.02"/>
<path d="M62.256 328.986L72.2537 325.031L72.3457 325.263L77.2525 323.322L82.1594 325.263L82.2514 325.031L92.2491 328.986L92.1571 329.219L97.1523 331.195L102.082 333.329L102.181 333.1L112.047 337.373L111.948 337.602L116.79 339.699L118.887 344.542L119.116 344.442L123.389 354.308L123.16 354.408L125.295 359.337L127.271 364.332L127.503 364.24L131.458 374.238L131.226 374.33L133.167 379.237L131.226 384.144L131.458 384.235L127.503 394.233L127.271 394.141L125.295 399.136L123.16 404.066L123.389 404.165L119.116 414.031L118.887 413.932L116.79 418.774L111.948 420.871L112.047 421.101L102.181 425.373L102.082 425.144L97.1522 427.279L92.1571 429.255L92.2491 429.487L82.2514 433.442L82.1594 433.21L77.2525 435.151L72.3457 433.21L72.2537 433.442L62.256 429.487L62.348 429.255L57.3529 427.279L52.4235 425.144L52.3241 425.373L42.4581 421.101L42.5574 420.871L37.7151 418.774L35.618 413.932L35.3886 414.031L31.1159 404.165L31.3453 404.066L29.2105 399.136L27.2344 394.141L27.0019 394.233L23.0469 384.235L23.2793 384.144L21.3382 379.237L23.2793 374.33L23.0469 374.238L27.0019 364.24L27.2344 364.332L29.2105 359.337L31.3453 354.408L31.1159 354.308L35.3886 344.442L35.618 344.542L37.7151 339.699L42.5574 337.602L42.4581 337.373L52.3241 333.1L52.4235 333.329L57.3529 331.195L62.348 329.219L62.256 328.986Z" stroke="#22BBDD" stroke-opacity="0.4" stroke-width="0.5" stroke-dasharray="10 10"/>
<path d="M34.9634 408.55L34.7474 408.429L44.4448 393.405L33.2832 383.011L33.3552 382.914L47.3252 367.721L47.4212 367.769L111.102 404.763L110.982 404.98L47.3732 368.01L33.6193 382.986L44.7328 393.356L34.9634 408.55Z" fill="#22BBDD"/>
<path d="M126.761 414.831L110.753 404.868L111.113 404.771L127.913 388.55L115.913 361.187L116.129 361.091L128.201 388.599L128.153 388.671L111.305 404.916L126.881 414.614L126.761 414.831Z" fill="#22BBDD"/>
<path d="M67.3469 414.831L67.2504 414.807L34.6787 408.671L34.7029 408.43L67.2021 414.542L89.9225 352.366L90.164 352.439L67.3469 414.831Z" fill="#22BBDD"/>
<path d="M36.3802 358.058L36.2207 358.239L47.2998 368.048L47.4593 367.868L36.3802 358.058Z" fill="#22BBDD"/>
<path d="M116.039 361.439L89.8103 352.588L89.7862 352.564L75.9372 338.396L64.834 348.522L64.6895 348.354L75.9613 338.059L89.9548 352.371L115.943 361.151L126.612 346.478L126.805 346.622L116.039 361.439Z" fill="#22BBDD"/>
<path d="M77.5293 337.805C77.5293 338.389 77.0637 338.854 76.48 338.854C75.8962 338.854 75.4307 338.389 75.4307 337.805C75.4307 337.221 75.8962 336.756 76.48 336.756C77.0637 336.756 77.5293 337.221 77.5293 337.805Z" fill="#252423" stroke="#22BBDD" stroke-width="0.5"/>
<path d="M128.251 346.13C128.251 346.714 127.785 347.18 127.202 347.18C126.618 347.18 126.152 346.714 126.152 346.13C126.152 345.546 126.618 345.081 127.202 345.081C127.782 345.081 128.251 345.568 128.251 346.13Z" fill="#252423" stroke="#22BBDD" stroke-width="0.5"/>
<path d="M34.8926 382.776C34.8926 383.36 34.427 383.825 33.8433 383.825C33.2595 383.825 32.7939 383.36 32.7939 382.776C32.7939 382.193 33.2573 381.729 33.8391 381.726C34.432 381.748 34.8926 382.222 34.8926 382.776Z" fill="#252423" stroke="#22BBDD" stroke-width="0.5"/>
<path d="M37.2375 408.049C37.2375 408.769 36.6628 409.344 35.9425 409.344C35.2222 409.344 34.6475 408.769 34.6475 408.049C34.6475 407.33 35.22 406.756 35.9383 406.754C36.6677 406.78 37.2375 407.363 37.2375 408.049Z" fill="#252423" stroke="#22BBDD" stroke-width="0.5"/>
<path d="M91.4609 352.073C91.4609 352.657 90.9954 353.123 90.4116 353.123C89.8278 353.123 89.3623 352.657 89.3623 352.073C89.3623 351.49 89.8278 351.024 90.4116 351.024C90.9954 351.024 91.4609 351.49 91.4609 352.073Z" fill="#252423" stroke="#22BBDD" stroke-width="0.5"/>
<path d="M128.347 414.441C128.347 415.024 127.881 415.49 127.297 415.49C126.714 415.49 126.248 415.024 126.248 414.441C126.248 413.858 126.711 413.393 127.293 413.391C127.886 413.413 128.347 413.887 128.347 414.441Z" fill="#252423" stroke="#22BBDD" stroke-width="0.5"/>
<path d="M36.8809 357.721C36.8809 358.305 36.4153 358.77 35.8315 358.77C35.2478 358.77 34.7822 358.305 34.7822 357.721C34.7822 357.139 35.2456 356.674 35.8274 356.672C36.4202 356.694 36.8809 357.167 36.8809 357.721Z" fill="#252423" stroke="#22BBDD" stroke-width="0.5"/>
<path d="M115.966 360.521L94.5078 369.824L94.6035 370.045L116.062 360.742L115.966 360.521Z" fill="#22BBDD"/>
<path d="M65.0181 348.208L64.8135 348.335L73.9945 363.168L74.1991 363.041L65.0181 348.208Z" fill="#22BBDD"/>
<path d="M67.8767 387.67L44.0664 392.66L44.1158 392.895L67.9261 387.906L67.8767 387.67Z" fill="#22BBDD"/>
<path opacity="0.8" d="M115.966 360.521L81.6758 375.388L81.7715 375.608L116.061 360.741L115.966 360.521Z" fill="#22BBDD"/>
<path d="M97.4002 383.868L97.1963 383.995L110.89 405.853L111.094 405.725L97.4002 383.868Z" fill="#22BBDD"/>
<path opacity="0.8" d="M89.9334 371.95L89.7295 372.078L110.89 405.853L111.094 405.725L89.9334 371.95Z" fill="#22BBDD"/>
<path opacity="0.8" d="M65.0181 348.208L64.8135 348.335L86.7577 383.788L86.9623 383.662L65.0181 348.208Z" fill="#22BBDD"/>
<path opacity="0.8" d="M96.0601 381.765L44.0664 392.66L44.1158 392.895L96.1094 382L96.0601 381.765Z" fill="#22BBDD"/>
<path d="M67.2676 414.727L43.9521 392.831L47.2486 367.904L47.2726 367.88L64.8374 348.173H64.8855L96.7186 343.746L116.16 360.589V360.661L111.131 405.921L111.035 405.945L67.2676 414.727ZM44.2168 392.735L67.3398 414.487L110.891 405.704L115.896 360.685L96.6465 344.011L64.9577 348.39L47.4892 368L44.2168 392.735Z" fill="#22BBDD"/>
<path d="M112.367 410.84C116.245 410.84 119.39 407.695 119.39 403.817C119.39 399.938 116.245 396.794 112.367 396.794C108.488 396.794 105.344 399.938 105.344 403.817C105.344 407.695 108.488 410.84 112.367 410.84Z" fill="#22BBDD"/>
<path d="M117.048 403.803C117.048 405.032 116.584 406.151 115.793 406.997C114.946 407.925 113.718 408.499 112.353 408.499C110.906 408.499 109.596 407.844 108.749 406.806C108.067 405.987 107.685 404.95 107.685 403.831C107.685 401.237 109.787 399.135 112.38 399.135C114.946 399.108 117.048 401.21 117.048 403.803Z" fill="#191918"/>
<path d="M115.878 366.361C118.464 366.361 120.56 364.265 120.56 361.679C120.56 359.094 118.464 356.997 115.878 356.997C113.292 356.997 111.196 359.094 111.196 361.679C111.196 364.265 113.292 366.361 115.878 366.361Z" fill="#22BBDD"/>
<path d="M118.999 361.67C118.999 362.489 118.69 363.236 118.162 363.8C117.598 364.419 116.779 364.801 115.869 364.801C114.904 364.801 114.031 364.364 113.467 363.672C113.012 363.126 112.757 362.435 112.757 361.689C112.757 359.96 114.158 358.558 115.887 358.558C117.598 358.54 118.999 359.941 118.999 361.67Z" fill="#191918"/>
<path d="M80.7641 382.748C84.6428 382.748 87.787 379.604 87.787 375.725C87.787 371.847 84.6428 368.702 80.7641 368.702C76.8855 368.702 73.7412 371.847 73.7412 375.725C73.7412 379.604 76.8855 382.748 80.7641 382.748Z" fill="#22BBDD"/>
<path d="M85.4459 375.712C85.4459 376.94 84.9818 378.059 84.1901 378.906C83.3438 379.834 82.1153 380.407 80.7503 380.407C79.3034 380.407 77.993 379.752 77.1467 378.715C76.4642 377.896 76.082 376.858 76.082 375.739C76.082 373.146 78.1841 371.044 80.7776 371.044C83.3438 371.016 85.4459 373.118 85.4459 375.712Z" fill="#191918"/>
<path d="M47.9909 372.214C49.9303 372.214 51.5024 370.642 51.5024 368.702C51.5024 366.763 49.9303 365.191 47.9909 365.191C46.0516 365.191 44.4795 366.763 44.4795 368.702C44.4795 370.642 46.0516 372.214 47.9909 372.214Z" fill="#22BBDD"/>
<path d="M50.3323 368.696C50.3323 369.31 50.1003 369.869 49.7044 370.293C49.2813 370.757 48.667 371.043 47.9845 371.043C47.2611 371.043 46.6059 370.716 46.1827 370.197C45.8415 369.788 45.6504 369.269 45.6504 368.709C45.6504 367.412 46.7014 366.361 47.9982 366.361C49.2813 366.348 50.3323 367.399 50.3323 368.696Z" fill="#191918"/>
<path d="M67.8886 420.204C71.1208 420.204 73.741 417.583 73.741 414.351C73.741 411.119 71.1208 408.499 67.8886 408.499C64.6564 408.499 62.0361 411.119 62.0361 414.351C62.0361 417.583 64.6564 420.204 67.8886 420.204Z" fill="#22BBDD"/>
<path d="M71.7905 414.34C71.7905 415.364 71.4038 416.296 70.744 417.002C70.0388 417.775 69.015 418.253 67.8775 418.253C66.6718 418.253 65.5798 417.707 64.8746 416.842C64.3058 416.16 63.9873 415.295 63.9873 414.363C63.9873 412.201 65.739 410.45 67.9003 410.45C70.0388 410.427 71.7905 412.179 71.7905 414.34Z" fill="#191918"/>
<ellipse cx="378.066" cy="81.9338" rx="70.229" ry="70.229" transform="rotate(90 378.066 81.9338)" fill="#141413"/>
<path d="M378.066 151.663C339.556 151.663 308.337 120.444 308.337 81.9338C308.337 43.4235 339.556 12.2048 378.066 12.2048C416.576 12.2048 447.795 43.4235 447.795 81.9338C447.795 120.444 416.576 151.663 378.066 151.663Z" fill="#141413" stroke="#22BBDD"/>
<path d="M361.759 82.7082H362.617C363.226 82.7082 363.72 82.2142 363.72 81.6048V81.6048C363.72 80.9954 364.214 80.5014 364.824 80.5014H365.498C366.48 80.5014 367.276 81.2973 367.276 82.2791V83.9341C367.276 84.5435 367.77 85.0375 368.379 85.0375V85.0375C368.988 85.0375 369.482 84.5435 369.482 83.9342V83.8729C369.482 83.2296 370.004 82.7082 370.647 82.7082H371.444" stroke="#22BBDD" stroke-width="0.5"/>
<path d="M323.631 89.8188H324.489C325.098 89.8188 325.592 89.3248 325.592 88.7154V88.7154C325.592 88.106 326.086 87.612 326.696 87.612H327.37C328.352 87.612 329.148 88.4079 329.148 89.3897V91.0448C329.148 91.6541 329.642 92.1481 330.251 92.1481V92.1481C330.861 92.1481 331.355 91.6541 331.355 91.0448V90.9835C331.355 90.3402 331.876 89.8188 332.519 89.8188H333.316" stroke="#22BBDD" stroke-width="0.5"/>
<path d="M434.215 89.8188H433.357C432.747 89.8188 432.253 89.3248 432.253 88.7154V88.7154C432.253 88.106 431.759 87.612 431.15 87.612H430.476C429.494 87.612 428.698 88.4079 428.698 89.3897V91.0448C428.698 91.6541 428.204 92.1481 427.595 92.1481V92.1481C426.985 92.1481 426.491 91.6541 426.491 91.0448V90.9835C426.491 90.3402 425.97 89.8188 425.327 89.8188H424.53" stroke="#22BBDD" stroke-width="0.5"/>
<path d="M316.03 82.7711H318.075C318.701 82.7711 319.208 83.2785 319.208 83.9043V83.9043C319.208 84.5302 319.716 85.0375 320.342 85.0375H322.64C323.926 85.0375 324.969 83.9946 324.969 82.7082V82.1666C324.969 81.1792 325.769 80.3788 326.757 80.3788H327.348C328.009 80.3788 328.545 80.9144 328.545 81.575V81.575C328.545 82.2356 329.08 82.7711 329.741 82.7711H331.723" stroke="#22BBDD" stroke-width="0.5"/>
<path d="M441.815 82.7711H439.77C439.145 82.7711 438.637 83.2785 438.637 83.9043V83.9043C438.637 84.5302 438.13 85.0375 437.504 85.0375H435.206C433.92 85.0375 432.877 83.9946 432.877 82.7082V82.1666C432.877 81.1792 432.076 80.3788 431.089 80.3788H430.497C429.837 80.3788 429.301 80.9144 429.301 81.575V81.575C429.301 82.2356 428.766 82.7711 428.105 82.7711H426.123" stroke="#22BBDD" stroke-width="0.5"/>
<path d="M385.666 82.7082H387.628V80.5014H391.183V85.0375H393.39V82.7082H395.351" stroke="#22BBDD" stroke-width="0.5"/>
<circle cx="346.802" cy="82.8307" r="11.1564" fill="#22BBDD"/>
<circle r="11.1564" transform="matrix(-1 0 0 1 411.044 82.8307)" fill="#22BBDD"/>
<circle cx="378.432" cy="82.8308" r="5.51689" fill="white" fill-opacity="0.02"/>
<circle cx="378.432" cy="82.8308" r="5.26689" stroke="#22BBDD" stroke-opacity="0.4" stroke-width="0.5" stroke-dasharray="10 10"/>
<circle cx="346.802" cy="82.8308" r="13.8487" stroke="#22BBDD" stroke-width="0.5"/>
<circle r="13.8487" transform="matrix(-1 0 0 1 411.043 82.8308)" stroke="#22BBDD" stroke-width="0.5"/>
<circle cx="378.432" cy="82.8307" r="6.73806" stroke="#22BBDD" stroke-width="0.5"/>
<circle cx="346.802" cy="82.8308" r="14.5843" stroke="#22BBDD" stroke-width="0.5"/>
<circle r="14.5843" transform="matrix(-1 0 0 1 411.044 82.8308)" stroke="#22BBDD" stroke-width="0.5"/>
<circle cx="378.432" cy="82.8308" r="6.98326" stroke="#22BBDD" stroke-width="0.5"/>
<path d="M359.92 75.9653H361.023C362.31 75.9653 363.353 74.9224 363.353 73.636V73.636C363.353 72.3495 364.396 71.3066 365.682 71.3066H367.827C368.742 71.3066 369.483 72.0476 369.483 72.9617V72.9617C369.483 73.8758 370.224 74.6168 371.138 74.6168H373.773C374.789 74.6168 375.612 75.4401 375.612 76.4557V76.4557" stroke="#22BBDD" stroke-width="0.5"/>
<path d="M397.435 75.9653H396.331C395.045 75.9653 394.002 74.9224 394.002 73.636V73.636C394.002 72.3495 392.959 71.3066 391.672 71.3066H389.527C388.613 71.3066 387.872 72.0476 387.872 72.9617V72.9617C387.872 73.8758 387.131 74.6168 386.217 74.6168H383.581C382.565 74.6168 381.742 75.4401 381.742 76.4557V76.4557" stroke="#22BBDD" stroke-width="0.5"/>
<path d="M359.92 89.5737H361.023C362.31 89.5737 363.353 90.6166 363.353 91.903V91.903C363.353 93.1895 364.396 94.2324 365.682 94.2324H367.827C368.742 94.2324 369.483 93.4914 369.483 92.5773V92.5773C369.483 91.6632 370.224 90.9222 371.138 90.9222H373.773C374.789 90.9222 375.612 90.0989 375.612 89.0833V89.0833" stroke="#22BBDD" stroke-width="0.5"/>
<path d="M397.435 89.5737H396.331C395.045 89.5737 394.002 90.6166 394.002 91.903V91.903C394.002 93.1895 392.959 94.2324 391.672 94.2324H389.527C388.613 94.2324 387.872 93.4914 387.872 92.5773V92.5773C387.872 91.6632 387.131 90.9222 386.217 90.9222H383.581C382.565 90.9222 381.742 90.0989 381.742 89.0833V89.0833" stroke="#22BBDD" stroke-width="0.5"/>
<path d="M339.936 69.958V69.5903C339.936 68.2361 338.839 67.1383 337.484 67.1383V67.1383C336.13 67.1383 335.032 66.0405 335.032 64.6864V62.3113C335.032 60.1021 333.242 58.3113 331.032 58.3113H323.631" stroke="#22BBDD" stroke-width="0.5"/>
<path d="M417.909 69.958V69.5903C417.909 68.2361 419.007 67.1383 420.361 67.1383V67.1383C421.715 67.1383 422.813 66.0405 422.813 64.6864V62.3113C422.813 60.1021 424.604 58.3113 426.813 58.3113H434.215" stroke="#22BBDD" stroke-width="0.5"/>
<path d="M334.175 76.4557V76.1298C334.175 74.8672 333.151 73.8437 331.889 73.8437V73.8437C330.626 73.8437 329.603 72.8202 329.603 71.5577V69.6671C329.603 67.458 327.812 65.6671 325.603 65.6671H318.973" stroke="#22BBDD" stroke-width="0.5"/>
<path d="M423.671 76.4557V76.1298C423.671 74.8672 424.694 73.8437 425.957 73.8437V73.8437C427.22 73.8437 428.243 72.8202 428.243 71.5577V69.6671C428.243 67.458 430.034 65.6671 432.243 65.6671H438.873" stroke="#22BBDD" stroke-width="0.5"/>
<circle cx="359.43" cy="89.4511" r="0.975976" transform="rotate(-90 359.43 89.4511)" fill="#252423" stroke="#22BBDD" stroke-width="0.5"/>
<circle r="0.975976" transform="matrix(-1.19249e-08 -1 -1 1.19249e-08 398.416 89.4511)" fill="#252423" stroke="#22BBDD" stroke-width="0.5"/>
<circle r="0.975976" transform="matrix(-1.19249e-08 -1 -1 1.19249e-08 334.42 89.5736)" fill="#252423" stroke="#22BBDD" stroke-width="0.5"/>
<circle cx="423.426" cy="89.5736" r="0.975976" transform="rotate(-90 423.426 89.5736)" fill="#252423" stroke="#22BBDD" stroke-width="0.5"/>
<circle cx="340.06" cy="70.3258" r="0.975976" fill="#252423" stroke="#22BBDD" stroke-width="0.5"/>
<circle r="0.975976" transform="matrix(-1 0 0 1 417.787 70.3258)" fill="#252423" stroke="#22BBDD" stroke-width="0.5"/>
<circle cx="361.146" cy="82.7082" r="0.975976" transform="rotate(-90 361.146 82.7082)" fill="#252423" stroke="#22BBDD" stroke-width="0.5"/>
<circle r="0.975976" transform="matrix(-1.19249e-08 -1 -1 1.19249e-08 396.7 82.7082)" fill="#252423" stroke="#22BBDD" stroke-width="0.5"/>
<circle r="0.975976" transform="matrix(-1.19249e-08 -1 -1 1.19249e-08 332.704 82.7082)" fill="#252423" stroke="#22BBDD" stroke-width="0.5"/>
<circle cx="425.142" cy="82.7082" r="0.975976" transform="rotate(-90 425.142 82.7082)" fill="#252423" stroke="#22BBDD" stroke-width="0.5"/>
<circle cx="359.43" cy="75.9653" r="0.975976" transform="rotate(-90 359.43 75.9653)" fill="#252423" stroke="#22BBDD" stroke-width="0.5"/>
<circle r="0.975976" transform="matrix(-1.19249e-08 -1 -1 1.19249e-08 398.416 75.9653)" fill="#252423" stroke="#22BBDD" stroke-width="0.5"/>
<circle r="0.975976" transform="matrix(-1.19249e-08 -1 -1 1.19249e-08 334.174 75.8427)" fill="#252423" stroke="#22BBDD" stroke-width="0.5"/>
<circle cx="423.67" cy="75.8427" r="0.975976" transform="rotate(-90 423.67 75.8427)" fill="#252423" stroke="#22BBDD" stroke-width="0.5"/>
<path d="M346.802 67.9965V63.5829C346.802 62.2288 347.9 61.131 349.254 61.131V61.131C350.608 61.131 351.706 60.0332 351.706 58.679V58.679C351.706 57.3249 350.608 56.2271 349.254 56.2271H345.208C343.448 56.2271 342.021 54.8 342.021 53.0396V53.0396" stroke="#22BBDD" stroke-width="0.5"/>
<path d="M411.044 67.9965V63.5829C411.044 62.2288 409.946 61.131 408.592 61.131V61.131C407.238 61.131 406.14 60.0332 406.14 58.679V58.679C406.14 57.3249 407.238 56.2271 408.592 56.2271H412.638C414.398 56.2271 415.825 54.8 415.825 53.0396V53.0396" stroke="#22BBDD" stroke-width="0.5"/>
<path d="M347.048 97.4199V101.833C347.048 103.188 345.95 104.285 344.596 104.285V104.285C343.242 104.285 342.144 105.383 342.144 106.737V106.737C342.144 108.091 343.242 109.189 344.596 109.189H348.642C350.402 109.189 351.829 110.616 351.829 112.377V112.377" stroke="#22BBDD" stroke-width="0.5"/>
<path d="M410.798 97.4199V101.833C410.798 103.188 411.896 104.285 413.25 104.285V104.285C414.604 104.285 415.702 105.383 415.702 106.737V106.737C415.702 108.091 414.604 109.189 413.25 109.189H409.204C407.444 109.189 406.017 110.616 406.017 112.377V112.377" stroke="#22BBDD" stroke-width="0.5"/>
<circle cx="346.925" cy="68.6095" r="0.975976" fill="#252423" stroke="#22BBDD" stroke-width="0.5"/>
<circle r="0.975976" transform="matrix(-1 0 0 1 410.921 68.6095)" fill="#252423" stroke="#22BBDD" stroke-width="0.5"/>
<path d="M358.877 116.055V108.971C358.877 107.6 359.989 106.488 361.36 106.488V106.488C362.731 106.488 363.843 105.376 363.843 104.005V103.071C363.843 101.184 362.313 99.6548 360.426 99.6548H358.035C355.826 99.6548 354.035 97.8639 354.035 95.6548V95.2132" stroke="#22BBDD" stroke-width="0.5"/>
<path d="M398.969 116.055V108.971C398.969 107.6 397.857 106.488 396.486 106.488V106.488C395.114 106.488 394.003 105.376 394.003 104.005V103.071C394.003 101.184 395.532 99.6548 397.419 99.6548H399.811C402.02 99.6548 403.811 97.8639 403.811 95.6548V95.2132" stroke="#22BBDD" stroke-width="0.5"/>
<path d="M353.913 70.2032V67.3377C353.913 65.1286 355.704 63.3377 357.913 63.3377H359.92C361.275 63.3377 362.372 62.24 362.372 60.8858V60.8858C362.372 59.5316 361.275 58.4338 359.92 58.4338H359.614C358.09 58.4338 356.855 57.1988 356.855 55.6754V52.6718" stroke="#22BBDD" stroke-width="0.5"/>
<path d="M403.933 70.2032V67.3377C403.933 65.1286 402.142 63.3377 399.933 63.3377H397.925C396.571 63.3377 395.473 62.24 395.473 60.8858V60.8858C395.473 59.5316 396.571 58.4338 397.925 58.4338H398.232C399.755 58.4338 400.99 57.1988 400.99 55.6754V52.6718" stroke="#22BBDD" stroke-width="0.5"/>
<circle cx="346.925" cy="97.0521" r="0.975976" fill="#252423" stroke="#22BBDD" stroke-width="0.5"/>
<circle r="0.975976" transform="matrix(-1 0 0 1 410.921 97.0521)" fill="#252423" stroke="#22BBDD" stroke-width="0.5"/>
<circle cx="353.79" cy="70.4484" r="0.975976" fill="#252423" stroke="#22BBDD" stroke-width="0.5"/>
<circle r="0.975976" transform="matrix(-1 0 0 1 404.055 70.4484)" fill="#252423" stroke="#22BBDD" stroke-width="0.5"/>
<circle cx="353.79" cy="95.0905" r="0.975976" fill="#252423" stroke="#22BBDD" stroke-width="0.5"/>
<circle r="0.975976" transform="matrix(-1 0 0 1 404.055 95.0905)" fill="#252423" stroke="#22BBDD" stroke-width="0.5"/>
<path d="M339.937 95.2132V98.0786C339.937 100.288 338.146 102.079 335.937 102.079H333.929C332.575 102.079 331.477 103.176 331.477 104.531V104.531C331.477 105.885 332.575 106.983 333.929 106.983H334.236C335.759 106.983 336.994 108.218 336.994 109.741V112.745" stroke="#22BBDD" stroke-width="0.5"/>
<path d="M417.909 95.2132V98.0786C417.909 100.288 419.7 102.079 421.909 102.079H423.916C425.271 102.079 426.368 103.176 426.368 104.531V104.531C426.368 105.885 425.271 106.983 423.916 106.983H423.61C422.087 106.983 420.852 108.218 420.852 109.741V112.745" stroke="#22BBDD" stroke-width="0.5"/>
<circle cx="340.06" cy="95.3358" r="0.975976" fill="#252423" stroke="#22BBDD" stroke-width="0.5"/>
<circle r="0.975976" transform="matrix(-1 0 0 1 417.787 95.3358)" fill="#252423" stroke="#22BBDD" stroke-width="0.5"/>
<path d="M220.822 218.723L220.428 217.584H219.858V219.336H220.253V218.066L220.691 219.336H220.953L221.391 218.066V219.336H221.785V217.584H221.26L220.822 218.723Z" fill="#22BBDD"/>
<path d="M218.281 217.891H218.763V219.336H219.157V217.891H219.639V217.584H218.281V217.891Z" fill="#22BBDD"/>
<path d="M211.055 216.883C207.07 216.883 204.792 219.073 203.917 221.745V219.117L200.763 215V221.788C199.887 219.117 197.61 216.927 193.625 216.927C189.552 216.927 187.274 219.204 186.442 222.007C185.61 219.204 183.289 216.883 179.216 216.883C174.004 216.883 171.683 220.65 171.683 224.416C171.683 225.818 171.99 227.219 172.69 228.401C172.209 228.664 171.639 228.796 170.895 228.796C168.88 228.796 167.917 227.832 167.917 225.905V222.708L171.508 218.328H167.917V215L164.632 219.029V226.037C164.632 226.124 164.632 226.212 164.632 226.299C164.632 226.255 164.632 226.212 164.632 226.212C164.676 228.051 163.449 228.883 161.522 228.883C159.508 228.883 158.544 227.92 158.544 225.993L158.5 218.328H155.216L155.26 226.168C155.26 229.759 157.581 231.905 161.522 231.905C163.493 231.905 165.245 231.292 166.296 230.285C167.391 231.292 168.924 231.818 170.895 231.818C172.515 231.818 173.829 231.423 174.88 230.766C176.019 231.511 177.464 231.949 179.26 231.949C182.982 231.949 185.26 230.022 186.223 227.569V233.088L189.289 237.161V230.46C190.428 231.161 191.873 231.949 193.625 231.949C197.566 231.949 199.887 229.759 200.763 227.088V231.949H203.917V227.044C204.792 229.715 207.07 231.905 211.055 231.905C212.851 231.905 214.296 231.467 215.435 230.723V231.905H218.544L218.588 224.942C218.588 224.766 218.588 224.547 218.588 224.372C218.588 220.693 216.267 216.883 211.055 216.883ZM179.216 228.839C176.632 228.839 175.011 227.088 175.011 224.416C175.011 221.745 176.676 219.993 179.216 219.993C181.756 219.993 183.42 221.745 183.42 224.416C183.42 227.088 181.8 228.839 179.216 228.839ZM193.625 228.839C191.041 228.839 189.42 227.088 189.42 224.416C189.42 221.745 191.084 219.993 193.625 219.993C196.165 219.993 197.829 221.745 197.829 224.416C197.829 227.088 196.165 228.839 193.625 228.839ZM211.055 228.839C208.471 228.839 206.851 227.088 206.851 224.416C206.851 221.745 208.515 219.993 211.055 219.993C213.595 219.993 215.26 221.745 215.26 224.416C215.26 227.088 213.595 228.839 211.055 228.839Z" fill="#22BBDD"/>
<path d="M244.077 218.022C240.354 218.022 237.376 220.737 237.376 224.942C237.376 229.19 240.354 231.949 244.077 231.949C246.617 231.949 248.807 230.679 249.945 228.533L248.719 228.095C247.756 229.671 246.048 230.635 244.077 230.635C241.23 230.635 238.909 228.62 238.69 225.511H250.602C250.646 225.292 250.646 225.117 250.646 224.898C250.646 220.737 247.887 218.022 244.077 218.022ZM238.69 224.372C238.953 221.306 241.23 219.336 244.077 219.336C246.967 219.336 249.026 221.263 249.288 224.372H238.69Z" fill="#22BBDD"/>
<path d="M272.631 218.022C268.909 218.022 265.931 220.737 265.931 224.942C265.931 229.19 268.909 231.949 272.631 231.949C275.172 231.949 277.361 230.679 278.5 228.533L277.274 228.095C276.31 229.671 274.602 230.635 272.631 230.635C269.785 230.635 267.464 228.62 267.245 225.511H279.157C279.201 225.292 279.201 225.117 279.201 224.898C279.201 220.737 276.442 218.022 272.631 218.022ZM267.245 224.328C267.507 221.263 269.785 219.292 272.631 219.292C275.522 219.292 277.58 221.219 277.843 224.328H267.245Z" fill="#22BBDD"/>
<path d="M287.391 224.372L285.464 223.934C284.369 223.671 282.88 223.058 283.143 221.175C283.318 220.036 284.588 219.248 286.077 219.248C287.522 219.248 288.661 220.036 288.924 221.35H290.194C289.931 219.161 288.223 218.022 286.077 218.022C283.975 218.022 282.092 219.204 281.829 221.044C281.522 224.022 283.493 224.854 285.114 225.204L287.041 225.642C288.705 226.036 289.318 227 289.318 228.051C289.318 229.584 288.048 230.635 285.99 230.635C283.625 230.635 282.792 229.277 282.398 228.226H281.216C281.522 230.635 283.712 231.905 285.902 231.905C288.661 231.905 290.588 230.372 290.588 228.095C290.676 226.431 289.8 224.985 287.391 224.372Z" fill="#22BBDD"/>
<path d="M301.58 224.372L299.653 223.934C298.559 223.671 297.07 223.058 297.332 221.175C297.507 220.036 298.778 219.248 300.267 219.248C301.712 219.248 302.851 220.036 303.113 221.35H304.383C304.121 219.161 302.413 218.022 300.267 218.022C298.164 218.022 296.281 219.204 296.018 221.044C295.712 224.022 297.683 224.854 299.303 225.204L301.23 225.642C302.894 226.036 303.507 227 303.507 228.051C303.507 229.584 302.237 230.635 300.179 230.635C297.814 230.635 296.982 229.277 296.588 228.226H295.405C295.712 230.635 297.902 231.905 300.091 231.905C302.851 231.905 304.778 230.372 304.778 228.095C304.865 226.431 304.033 224.985 301.58 224.372Z" fill="#22BBDD"/>
<path d="M234.267 221.219C233.172 219.292 230.982 218.066 228.617 218.066C224.807 218.066 221.741 221.044 221.741 225.029C221.741 229.015 224.807 231.949 228.617 231.949C230.982 231.949 233.259 230.679 234.267 228.708V229.671C234.267 232.912 233.478 234.839 232.121 235.89L233.128 236.898C234.661 235.628 235.581 233.35 235.581 229.671V218.328H234.267V221.219ZM228.617 230.635C225.551 230.635 223.055 228.226 223.055 225.029C223.055 221.832 225.551 219.38 228.617 219.38C231.727 219.38 234.267 221.701 234.267 225.029C234.267 228.358 231.595 230.635 228.617 230.635Z" fill="#22BBDD"/>
<path d="M293.785 218.022H292.428V231.993H293.785V218.022Z" fill="#22BBDD"/>
<path d="M261.683 218.985C260.763 218.328 259.668 217.978 258.398 217.978C258.354 217.978 258.354 217.978 258.311 217.978C258.267 217.978 258.267 217.978 258.223 217.978C256.953 217.978 255.814 218.328 254.938 218.985C254.895 218.985 254.895 219.029 254.851 219.073C254.719 219.161 254.588 219.292 254.457 219.38C254.369 219.423 254.325 219.511 254.281 219.555C254.194 219.642 254.106 219.73 254.019 219.817C253.931 219.905 253.887 219.993 253.843 220.08C253.756 220.168 253.712 220.299 253.625 220.387C253.581 220.474 253.493 220.606 253.449 220.693C253.406 220.737 253.406 220.781 253.362 220.869V220.912C253.318 221.044 253.23 221.131 253.187 221.263C252.88 222.051 252.661 223.015 252.705 224.066V231.949H254.062V224.066C254.062 221.701 255.157 220.08 256.909 219.555C257.391 219.423 257.916 219.336 258.398 219.336C258.924 219.336 259.406 219.423 259.887 219.555C261.595 220.124 262.734 221.744 262.734 224.066V231.949H264.092V224.066C264.092 223.015 263.916 222.051 263.61 221.263C263.041 220.255 262.427 219.511 261.683 218.985Z" fill="#22BBDD"/>
<path d="M191.391 241.015V241.54H189.464V242.898H190.997V243.467H189.464V245.307H188.938V241.058L191.391 241.015Z" fill="#22BBDD"/>
<path d="M198.924 240.971C200.151 240.971 201.07 241.934 201.07 243.161C201.07 244.343 200.107 245.35 198.924 245.35C197.698 245.35 196.778 244.387 196.778 243.161C196.778 241.978 197.742 240.971 198.924 240.971ZM198.924 244.781C199.8 244.781 200.501 244.08 200.501 243.161C200.501 242.241 199.8 241.54 198.924 241.54C198.048 241.54 197.348 242.285 197.348 243.161C197.348 244.08 198.048 244.781 198.924 244.781Z" fill="#22BBDD"/>
<path d="M209.435 243.818V241.015H210.004V243.818C210.004 244.737 209.303 245.35 208.427 245.35C207.595 245.35 206.851 244.737 206.851 243.818V241.015H207.42V243.818C207.42 244.387 207.858 244.781 208.383 244.781C208.909 244.781 209.435 244.431 209.435 243.818Z" fill="#22BBDD"/>
<path d="M218.588 245.307L216.661 242.109V245.307H216.092V241.058H216.661L218.588 244.255V241.058H219.157V245.307H218.588Z" fill="#22BBDD"/>
<path d="M225.245 245.307V241.058H226.909C228.136 241.058 228.836 241.978 228.836 243.204C228.836 244.387 228.136 245.307 226.909 245.307H225.245ZM226.866 244.737C227.741 244.737 228.223 244.036 228.223 243.161C228.223 242.285 227.785 241.54 226.866 241.54H225.771V244.737H226.866Z" fill="#22BBDD"/>
<path d="M235.099 244.212L234.705 245.307H234.048L235.668 241.058H236.281L237.902 245.307H237.289L236.895 244.212H235.099ZM236.676 243.686L235.975 241.803L235.274 243.686H236.676Z" fill="#22BBDD"/>
<path d="M245.96 241.015V241.54H244.69V245.263H244.121V241.54H242.851V241.015C242.851 241.015 245.96 241.015 245.96 241.015Z" fill="#22BBDD"/>
<path d="M252.223 241.015V245.263H251.653V241.015C251.653 241.015 252.223 241.015 252.223 241.015Z" fill="#22BBDD"/>
<path d="M260.194 240.971C261.42 240.971 262.34 241.934 262.34 243.161C262.34 244.343 261.376 245.35 260.194 245.35C258.968 245.35 258.048 244.387 258.048 243.161C258.048 241.978 258.968 240.971 260.194 240.971ZM260.194 244.781C261.07 244.781 261.77 244.08 261.77 243.161C261.77 242.241 261.07 241.54 260.194 241.54C259.318 241.54 258.617 242.285 258.617 243.161C258.617 244.08 259.318 244.781 260.194 244.781Z" fill="#22BBDD"/>
<path d="M270.705 245.307L268.778 242.109V245.307H268.209V241.058H268.778L270.705 244.255V241.058H271.275V245.307H270.705Z" fill="#22BBDD"/>
<defs>
<filter id="filter0_d" x="287.837" y="295.349" width="180.458" height="180.458" filterUnits="userSpaceOnUse" color-interpolation-filters="sRGB">
<feFlood flood-opacity="0" result="BackgroundImageFix"/>
<feColorMatrix in="SourceAlpha" type="matrix" values="0 0 0 0 0 0 0 0 0 0 0 0 0 0 0 0 0 0 127 0"/>
<feOffset dy="4"/>
<feGaussianBlur stdDeviation="10"/>
<feColorMatrix type="matrix" values="0 0 0 0 0 0 0 0 0 0 0 0 0 0 0 0 0 0 0.25 0"/>
<feBlend mode="normal" in2="BackgroundImageFix" result="effect1_dropShadow"/>
<feBlend mode="normal" in="SourceGraphic" in2="effect1_dropShadow" result="shape"/>
</filter>
</defs>
</svg>
