<svg width="500" height="500" viewBox="0 0 500 500" fill="none" xmlns="http://www.w3.org/2000/svg">
<mask id="mask0" mask-type="alpha" maskUnits="userSpaceOnUse" x="192" y="145" width="308" height="220">
<rect width="308" height="220" transform="matrix(-1 0 0 1 500 145)" fill="#C4C4C4"/>
</mask>
<g mask="url(#mask0)">
<path d="M462.051 286.555C449.853 259.834 423.714 242.989 399.898 230.21C385.376 222.659 370.854 215.688 355.171 210.46C340.068 205.232 323.223 201.166 307.539 203.49C299.988 204.651 293.017 208.718 289.532 216.269C286.628 222.659 287.789 230.791 289.532 237.18C293.017 251.702 300.569 265.062 308.12 278.422C315.09 291.782 322.642 305.143 326.127 320.245C328.45 328.958 329.031 339.995 326.127 348.708C321.48 361.487 308.12 359.745 297.664 356.84C281.4 351.612 266.878 341.738 252.937 331.863C241.319 323.15 229.702 314.437 218.665 304.562C197.173 285.974 175.681 266.805 150.122 255.768C134.439 248.798 117.012 245.893 100.748 247.636C93.1967 248.798 86.2262 251.121 79.8366 255.768C74.6087 259.834 69.9617 265.062 65.8956 270.29C56.6016 280.165 46.1459 286.555 33.3667 288.878C20.0066 291.202 6.06567 288.297 -6.13269 283.069C-50.2791 265.643 -82.2272 219.173 -88.6168 169.218C-88.6168 168.637 -88.0359 168.637 -88.0359 169.218C-83.9698 201.166 -69.4479 230.791 -47.9556 252.864C-28.2059 273.775 0.256897 290.04 28.1388 288.297C42.6607 287.716 54.859 280.746 65.3148 269.709C69.3809 265.062 73.447 260.415 78.094 255.768C83.3219 251.121 88.5497 248.217 94.9393 247.055C125.145 240.085 157.093 254.607 182.07 272.614C198.335 284.231 213.438 298.172 229.121 311.532C242.481 322.569 256.422 333.025 271.525 342.318C279.076 346.965 286.628 351.032 294.76 353.936C301.149 356.259 307.539 358.002 313.929 357.421C332.517 355.098 328.45 326.635 324.384 313.275C319.737 298.172 311.605 284.231 304.054 270.29C297.664 258.092 290.694 245.313 288.37 231.953C287.208 226.144 287.208 219.754 289.532 214.526C291.855 208.718 297.083 205.232 302.892 203.49C309.282 201.747 316.252 201.747 323.223 202.328C331.355 202.909 339.487 204.651 347.038 206.975C370.854 213.365 394.089 224.982 415.582 238.342C434.169 249.96 452.757 264.481 462.051 286.555C462.632 286.555 462.051 286.555 462.051 286.555Z" fill="#22BBDD"/>
<path d="M481.22 267.386C467.86 241.246 441.139 225.563 416.162 213.365C401.059 206.394 385.956 200.004 370.273 195.357C354.589 190.71 337.163 187.225 321.479 190.13C313.928 191.872 306.377 195.938 303.472 203.49C300.568 209.879 302.311 218.012 304.053 224.401C308.119 238.923 316.252 252.283 324.384 265.062C331.935 277.842 340.067 291.202 344.133 306.304C346.457 315.017 347.619 326.054 344.714 334.767C340.648 347.546 326.707 346.965 316.252 344.061C299.987 339.414 284.303 330.12 269.782 320.826C257.583 312.694 245.385 303.981 233.767 295.268C211.113 277.842 189.04 259.254 162.32 249.379C146.056 242.989 128.629 240.666 111.784 242.989C104.233 244.151 96.6813 247.055 90.8726 252.283C85.6447 256.93 81.5786 262.158 76.9316 267.386C68.2185 277.842 57.1819 284.812 44.4027 287.136C31.0426 289.459 16.5208 287.136 3.74152 283.069C-41.5666 267.386 -75.8381 222.078 -83.9704 172.703C-83.9704 172.123 -83.3895 172.123 -83.3895 172.703C-78.1617 204.071 -62.4781 233.114 -39.824 255.187C-18.9125 275.518 10.1311 290.04 39.1748 287.716C54.2775 286.555 66.4759 279.003 76.3507 267.967C80.4168 263.32 84.4829 258.092 89.1299 253.445C94.3578 248.798 99.5856 245.893 106.556 244.151C136.181 235.438 169.29 248.798 195.43 265.643C212.275 276.68 227.959 290.04 244.223 302.238C258.164 312.694 272.686 322.569 288.37 331.282C295.921 335.348 304.053 339.414 312.185 342.318C318.575 344.642 325.546 345.804 331.935 344.642C351.104 341.738 345.876 313.275 341.229 299.915C336.001 284.812 327.288 271.452 319.156 257.511C312.185 245.893 304.634 233.114 302.311 219.754C301.149 213.945 301.149 208.137 303.472 202.328C305.796 196.519 311.024 192.453 316.832 190.71C323.222 188.387 330.192 188.387 337.163 188.387C345.295 188.968 353.427 190.13 361.56 191.872C385.956 197.681 410.353 208.137 432.426 220.335C451.595 231.953 471.345 245.893 481.22 267.386C481.8 267.386 481.8 267.967 481.22 267.386Z" fill="#22BBDD"/>
<path d="M500.387 247.636C485.866 222.078 457.984 206.975 432.425 195.938C416.742 189.549 401.058 183.74 384.793 179.674C369.11 175.608 351.103 172.703 334.838 176.769C327.287 178.512 320.317 182.578 317.412 190.71C315.089 197.681 316.25 205.232 318.574 211.622C323.221 226.144 331.934 238.923 340.066 251.121C348.198 263.9 356.912 276.68 361.559 291.782C364.463 300.496 366.206 310.951 363.301 320.245C359.235 333.024 345.294 333.024 334.257 330.701C317.412 326.635 301.148 317.922 286.045 309.209C273.266 301.657 260.487 293.525 248.288 284.812C225.053 267.967 201.237 250.54 173.936 241.246C157.091 236.019 139.084 233.695 122.239 237.18C114.106 238.923 107.136 241.827 100.746 247.055C95.5184 251.702 91.4523 257.511 86.8054 262.739C78.0923 273.194 67.6365 280.746 54.2764 283.65C40.3354 286.555 26.3945 284.812 13.0344 280.746C-33.4355 266.805 -70.0306 222.658 -79.9054 173.865C-79.9054 173.284 -79.3245 173.284 -79.3245 173.865C-72.9349 205.232 -56.0895 233.695 -32.2737 254.606C-10.2005 273.775 20.0049 287.716 49.0486 284.231C64.1513 282.488 76.3496 274.937 86.2245 263.32C90.2906 258.092 94.3567 252.864 99.0037 248.798C104.232 244.151 109.459 240.666 116.43 238.342C147.797 228.467 181.488 240.666 208.789 256.93C226.796 267.386 243.06 280.165 259.906 291.782C274.427 301.657 290.111 310.951 305.795 319.083C313.927 323.15 322.059 326.635 330.191 328.958C336.581 330.701 343.551 332.444 350.522 330.701C369.691 326.635 363.882 298.753 358.654 285.974C352.845 270.871 343.551 257.511 334.838 244.732C327.287 233.114 319.736 220.916 316.25 207.556C315.089 201.747 314.508 195.938 316.831 190.13C319.155 184.321 324.383 180.255 329.61 177.931C336 175.027 343.551 175.027 349.941 175.027C358.073 175.027 366.786 176.189 374.919 177.931C399.896 182.578 424.874 192.453 448.109 204.07C469.02 213.364 489.351 226.725 500.387 247.636C500.968 247.636 500.387 248.217 500.387 247.636Z" fill="#22BBDD"/>
<path d="M518.976 227.306C503.293 202.328 474.249 188.387 448.11 178.512C432.426 172.703 416.162 167.476 399.316 163.99C383.052 160.505 364.464 158.182 348.2 162.829C340.648 165.152 333.097 169.799 330.193 177.931C327.869 184.902 329.612 192.453 331.935 198.843C337.163 213.365 346.457 225.563 355.17 237.761C363.883 249.96 373.177 262.739 378.405 277.261C381.309 285.974 383.633 296.43 380.729 305.723C377.243 318.503 362.721 319.084 351.685 317.341C334.259 314.437 317.413 306.304 301.73 297.591C288.37 290.621 275.59 283.069 262.811 274.937C238.414 259.254 214.018 242.408 185.555 234.276C168.71 229.629 150.122 227.886 132.695 231.953C124.563 233.695 117.593 237.18 111.203 242.989C105.975 247.636 101.909 253.445 97.843 259.254C89.1299 270.29 78.6742 277.842 65.3141 281.327C51.3732 284.812 36.8513 283.65 22.9104 280.165C-25.3021 267.967 -63.6398 224.982 -75.2573 176.77C-75.2573 176.189 -74.6764 176.189 -74.6764 176.77C-67.1251 208.137 -49.118 235.438 -24.1404 255.768C-0.905457 274.356 29.8808 287.136 59.5054 282.489C74.6081 280.165 87.3873 272.033 97.2622 259.834C101.328 254.607 105.394 249.379 109.461 244.732C114.108 239.504 119.916 236.019 126.887 233.695C158.254 222.659 193.106 233.695 221.569 248.798C240.157 258.673 257.002 270.871 275.01 281.908C290.112 291.202 306.377 299.915 322.641 307.466C330.773 310.951 339.486 314.437 348.2 316.179C355.17 317.922 362.141 319.084 369.111 317.341C388.861 312.694 381.309 284.812 376.082 272.033C369.692 257.511 359.817 244.732 350.523 231.372C342.391 220.335 334.259 208.137 330.773 194.777C329.031 188.968 328.45 183.159 330.773 177.35C333.097 171.542 338.325 166.895 343.553 164.571C349.942 161.667 357.494 161.086 364.464 160.505C373.177 160.505 381.89 161.086 390.023 162.248C415.581 165.733 441.72 175.027 464.955 185.483C485.867 194.196 507.359 206.975 518.976 227.306C519.557 227.306 519.557 227.306 518.976 227.306Z" fill="#22BBDD"/>
<path d="M537.564 205.813C520.719 181.417 491.094 168.637 463.793 159.343C447.529 154.115 430.684 149.468 413.257 146.564C396.412 143.66 377.824 142.498 361.56 147.145C353.427 149.468 346.457 154.696 344.133 162.829C341.81 169.799 344.133 177.35 347.038 183.74C352.847 197.681 362.721 209.879 372.015 221.497C381.309 233.695 391.184 245.893 396.993 260.415C400.478 269.128 402.802 279.584 400.478 288.878C396.993 302.238 382.471 302.819 371.434 301.657C353.427 299.334 336.582 291.783 320.318 284.231C306.377 277.842 293.017 270.29 279.656 262.739C254.098 247.636 229.12 231.953 200.077 224.982C182.651 220.916 163.482 220.335 146.056 224.982C137.923 227.306 130.953 230.791 124.563 236.6C119.335 241.827 115.269 247.636 111.203 253.445C103.071 264.481 92.6152 273.195 78.6742 277.261C64.7333 281.327 49.6306 280.746 35.6896 277.842C-13.6847 267.386 -54.3458 226.144 -67.7059 178.512C-67.7059 177.931 -67.125 177.931 -67.125 178.512C-58.4119 209.298 -39.2431 236.6 -13.1038 255.187C11.2928 272.614 43.2409 284.231 73.4464 278.422C89.1299 275.518 101.328 266.805 111.203 254.607C115.269 249.379 118.754 243.57 123.401 238.923C128.048 233.695 133.857 230.21 140.828 227.306C172.776 215.107 208.209 224.982 237.834 238.923C257.002 248.217 274.429 259.834 293.017 269.709C306.958 277.842 323.222 285.974 340.648 292.363C349.361 295.849 358.074 298.753 366.788 300.496C373.758 301.657 381.309 302.819 387.699 300.496C407.449 295.268 399.316 267.386 393.508 255.187C386.537 240.666 376.081 228.467 366.207 215.688C357.494 204.651 348.78 193.034 344.714 179.674C342.972 173.865 342.391 168.056 344.133 162.248C345.876 155.858 351.104 151.792 356.913 148.888C363.302 145.402 370.854 144.821 377.824 144.241C386.537 143.66 395.25 144.241 403.963 144.821C430.103 147.726 456.823 155.858 481.22 165.733C502.712 173.865 524.785 186.064 537.564 205.813C538.145 205.813 538.145 206.394 537.564 205.813Z" fill="#22BBDD"/>
</g>
<path d="M251.075 325.319L251.073 324.477C251.073 324.477 251.071 323.635 251.913 323.633C254.715 315.156 251.254 307.858 245.122 301.756C244.276 300.074 243.43 298.392 242.584 296.71L242.58 295.026L240.895 295.03L234.26 336.308C232.57 333.786 228.36 333.796 224.994 334.646C219.945 336.343 217.427 339.718 218.278 343.084C219.128 346.45 224.185 348.122 228.391 346.427C232.597 344.733 235.117 342.2 235.109 338.832L239.261 315.244C242.89 318.855 249.382 321.944 249.397 327.85C249.407 332.06 247.732 335.433 246.054 337.963C246.054 337.963 245.214 338.807 246.056 338.805C247.387 340.13 250.031 333.566 250.251 332.9C251.087 330.372 251.081 327.846 251.075 325.319ZM250.227 322.795C247.444 317.265 240.939 312.579 240.922 305.977L240.918 304.293C247.319 307.473 252.603 315.607 250.227 322.795Z" fill="#22BBDD"/>
<path d="M259.952 193L248.26 193.85H247.425L229.886 195.551H229.051L213.183 197.252H212.348V203.204V205.755V211.707V246.57C209.842 244.869 207.337 244.869 203.996 246.57C200.655 248.27 198.985 251.672 200.655 254.223C201.49 255.923 204.831 256.774 208.172 255.073C211.512 253.372 213.183 250.821 213.183 248.27V211.707L228.216 210.006V227.863C226.545 226.162 223.205 226.162 220.699 227.863C217.359 229.564 215.688 232.965 216.523 234.665C217.359 237.216 221.534 237.216 224.875 235.516C228.216 233.815 229.886 231.264 229.051 228.713V209.156L246.589 207.455V221.06C244.919 219.36 242.414 219.36 239.073 221.06C235.732 224.462 234.062 227.013 234.897 229.564C235.732 232.115 239.908 232.114 243.249 230.414C246.589 228.713 248.26 226.162 247.425 223.611V207.455H259.952V244.869C258.282 243.169 255.776 243.169 252.436 244.869C249.095 246.57 247.425 249.971 248.26 252.522C249.095 255.073 253.271 255.073 256.611 253.372C259.952 251.672 261.622 249.121 260.787 246.57V206.605V201.503V193H259.952ZM228.216 204.054L213.183 205.755V203.204L228.216 201.503V204.054ZM246.589 203.204L229.886 204.054V201.503L247.425 199.803V203.204H246.589ZM259.952 202.353L248.26 203.204V199.803L259.952 198.952V202.353Z" fill="#22BBDD"/>
<path d="M395.84 317.05C396.682 320.419 394.156 323.787 389.946 325.471C385.735 327.997 380.683 327.155 378.999 323.787C377.314 320.419 379.841 316.208 384.051 314.524C387.419 312.84 391.63 312.84 394.156 314.524V271.579H371.42V301.051C372.262 303.577 369.736 307.788 365.525 309.472C361.315 311.998 356.263 311.156 354.579 307.788C352.894 304.419 355.421 300.209 359.631 298.525C362.999 296.841 367.21 296.841 369.736 298.525V282.526H357.105V275.789H369.736V271.579H334.369V316.208C335.211 318.735 332.685 322.945 328.474 324.629C324.264 327.155 319.212 326.313 317.528 322.945C315.843 319.577 318.37 315.366 322.58 313.682C325.948 311.998 330.159 311.998 332.685 313.682V264H395.84V317.05Z" fill="#22BBDD"/>
<path d="M295.894 197.519L290.842 224.466H290L294.21 197.519H295.894Z" fill="#22BBDD"/>
<path d="M296.739 191.625H313.58V189.941H306.002C309.37 188.257 311.054 185.73 310.212 183.204C309.37 180.678 306.002 178.994 301.791 180.678C298.423 181.52 295.897 184.046 295.897 186.572V189.941H292.529V191.625H295.897L295.055 196.677H291.687V198.361H295.055H295.897H312.738V195.835H295.897L296.739 191.625ZM296.739 189.099C296.739 189.941 297.581 189.941 298.423 189.941H296.739V189.099Z" fill="#22BBDD"/>
<path d="M428.476 148V153.894L427.634 179.157C427.634 181.683 425.95 184.209 423.424 185.893C420.055 187.577 415.845 186.735 415.003 184.209C414.161 181.683 415.845 178.315 419.213 176.63C421.739 174.946 425.108 175.788 426.792 176.63L427.634 153.052L400.688 158.105L399.846 199.366C399.846 201.892 398.161 204.419 395.635 206.103C392.267 207.787 388.057 206.945 387.215 204.419C386.373 201.892 388.057 198.524 391.425 196.84C394.793 195.156 397.319 195.998 399.004 196.84L399.846 158.105V152.21H400.688L426.792 148.842L428.476 148Z" fill="#22BBDD"/>
<path d="M8 135.5H184C188.142 135.5 191.5 138.858 191.5 143V357C191.5 361.142 188.142 364.5 184 364.5H8C3.85787 364.5 0.5 361.142 0.5 357V143C0.5 138.858 3.85786 135.5 8 135.5Z" stroke="#22BBDD"/>
<path d="M170.6 335.21V337.11L163.7 339.71V337.91L168.6 336.11L163.7 334.31V332.51L170.6 335.21Z" fill="#22BBDD"/>
<path d="M150.9 332.61V334.41L146 336.21L150.9 338.01V339.81L144 337.21V335.31L150.9 332.61Z" fill="#22BBDD"/>
<path d="M159.115 326.855H161.285L156.133 341.561H153.963L159.115 326.855Z" fill="#22BBDD"/>
<path d="M39.4998 158.4V160.8L30.7998 164V161.7L36.8998 159.5L30.7998 157.3V155L39.4998 158.4Z" fill="#22BBDD"/>
<path d="M23.6 155.1V157.4L17.5 159.6L23.6 161.8V164.1L15 160.8V158.4L23.6 155.1Z" fill="#22BBDD"/>
<path d="M43.043 189.8H89.8482C92.3334 189.8 94.3482 191.815 94.3482 194.3C94.3482 196.785 92.3334 198.8 89.8482 198.8H43.043C40.5577 198.8 38.543 196.785 38.543 194.3C38.543 191.815 40.5577 189.8 43.043 189.8Z" stroke="#22BBDD"/>
<path d="M107.863 189.8H126.216C128.701 189.8 130.716 191.815 130.716 194.3C130.716 196.785 128.701 198.8 126.216 198.8H107.863C105.378 198.8 103.363 196.785 103.363 194.3C103.363 191.815 105.378 189.8 107.863 189.8Z" stroke="#22BBDD"/>
<path d="M142.828 189.8H171.9C174.386 189.8 176.4 191.815 176.4 194.3C176.4 196.785 174.386 198.8 171.9 198.8H142.828C140.343 198.8 138.328 196.785 138.328 194.3C138.328 191.815 140.343 189.8 142.828 189.8Z" stroke="#22BBDD"/>
<path d="M43.043 208.346H59.5921C62.0774 208.346 64.0921 210.361 64.0921 212.846C64.0921 215.331 62.0774 217.346 59.5921 217.346H43.043C40.5577 217.346 38.543 215.331 38.543 212.846C38.543 210.361 40.5577 208.346 43.043 208.346Z" stroke="#22BBDD"/>
<path d="M76.8057 208.346H112.09C114.575 208.346 116.59 210.361 116.59 212.846C116.59 215.331 114.575 217.346 112.09 217.346H76.8057C74.3204 217.346 72.3057 215.331 72.3057 212.846C72.3057 210.361 74.3204 208.346 76.8057 208.346Z" stroke="#22BBDD"/>
<path d="M129.402 208.346H171.9C174.385 208.346 176.4 210.361 176.4 212.846C176.4 215.331 174.385 217.346 171.9 217.346H129.402C126.917 217.346 124.902 215.331 124.902 212.846C124.902 210.361 126.917 208.346 129.402 208.346Z" stroke="#22BBDD"/>
<path d="M43.043 226.891H67.9075C70.3928 226.891 72.4075 228.906 72.4075 231.391C72.4075 233.877 70.3928 235.891 67.9075 235.891H43.043C40.5577 235.891 38.543 233.877 38.543 231.391C38.543 228.906 40.5577 226.891 43.043 226.891Z" stroke="#22BBDD"/>
<path d="M83.6182 226.891H139.24C141.725 226.891 143.74 228.906 143.74 231.391C143.74 233.877 141.725 235.891 139.24 235.891H83.6182C81.1329 235.891 79.1182 233.877 79.1182 231.391C79.1182 228.906 81.1329 226.891 83.6182 226.891Z" stroke="#22BBDD"/>
<path d="M156.353 226.891H172C174.485 226.891 176.5 228.906 176.5 231.391C176.5 233.877 174.485 235.891 172 235.891H156.353C153.867 235.891 151.853 233.877 151.853 231.391C151.853 228.906 153.867 226.891 156.353 226.891Z" stroke="#22BBDD"/>
<path d="M43.043 245.537H77.0244C79.5097 245.537 81.5244 247.552 81.5244 250.037C81.5244 252.523 79.5097 254.537 77.0244 254.537H43.043C40.5577 254.537 38.543 252.523 38.543 250.037C38.543 247.552 40.5577 245.537 43.043 245.537Z" stroke="#22BBDD"/>
<path d="M93.5361 245.537H126.215C128.7 245.537 130.715 247.552 130.715 250.037C130.715 252.523 128.7 254.537 126.215 254.537H93.5361C91.0508 254.537 89.0361 252.523 89.0361 250.037C89.0361 247.552 91.0509 245.537 93.5361 245.537Z" stroke="#22BBDD"/>
<path d="M142.828 245.537H171.9C174.386 245.537 176.4 247.552 176.4 250.037C176.4 252.523 174.386 254.537 171.9 254.537H142.828C140.343 254.537 138.328 252.523 138.328 250.037C138.328 247.552 140.343 245.537 142.828 245.537Z" stroke="#22BBDD"/>
<path d="M43.043 264.083H52.3788C54.8641 264.083 56.8788 266.098 56.8788 268.583C56.8788 271.068 54.8641 273.083 52.3788 273.083H43.043C40.5577 273.083 38.543 271.068 38.543 268.583C38.543 266.098 40.5577 264.083 43.043 264.083Z" stroke="#22BBDD"/>
<path d="M68.8906 264.083H97.1615C99.6468 264.083 101.662 266.098 101.662 268.583C101.662 271.068 99.6468 273.083 97.1615 273.083H68.8906C66.4053 273.083 64.3906 271.068 64.3906 268.583C64.3906 266.098 66.4053 264.083 68.8906 264.083Z" stroke="#22BBDD"/>
<path d="M113.072 264.083H172C174.485 264.083 176.5 266.098 176.5 268.583C176.5 271.068 174.485 273.083 172 273.083H113.072C110.587 273.083 108.572 271.068 108.572 268.583C108.572 266.098 110.587 264.083 113.072 264.083Z" stroke="#22BBDD"/>
<path d="M43.043 282.629H88.2452C90.7305 282.629 92.7452 284.643 92.7452 287.129C92.7452 289.614 90.7305 291.629 88.2452 291.629H43.043C40.5577 291.629 38.543 289.614 38.543 287.129C38.543 284.643 40.5577 282.629 43.043 282.629Z" stroke="#22BBDD"/>
<path d="M105.158 282.629H112.09C114.575 282.629 116.59 284.643 116.59 287.129C116.59 289.614 114.575 291.629 112.09 291.629H105.158C102.673 291.629 100.658 289.614 100.658 287.129C100.658 284.643 102.673 282.629 105.158 282.629Z" stroke="#22BBDD"/>
<path d="M129.402 282.629H171.9C174.385 282.629 176.4 284.643 176.4 287.129C176.4 289.614 174.385 291.629 171.9 291.629H129.402C126.917 291.629 124.902 289.614 124.902 287.129C124.902 284.643 126.917 282.629 129.402 282.629Z" stroke="#22BBDD"/>
<path d="M43.043 301.274H104.876C107.361 301.274 109.376 303.289 109.376 305.774C109.376 308.26 107.361 310.274 104.876 310.274H43.043C40.5577 310.274 38.543 308.26 38.543 305.774C38.543 303.289 40.5577 301.274 43.043 301.274Z" stroke="#22BBDD"/>
<path d="M120.987 301.274H140.342C142.827 301.274 144.842 303.289 144.842 305.774C144.842 308.26 142.827 310.274 140.342 310.274H120.987C118.502 310.274 116.487 308.26 116.487 305.774C116.487 303.289 118.502 301.274 120.987 301.274Z" stroke="#22BBDD"/>
<path d="M156.353 301.274H172C174.485 301.274 176.5 303.289 176.5 305.774C176.5 308.26 174.485 310.274 172 310.274H156.353C153.867 310.274 151.853 308.26 151.853 305.774C151.853 303.289 153.867 301.274 156.353 301.274Z" stroke="#22BBDD"/>
<path d="M24.5 194.2C24.5 196.685 22.4853 198.7 20 198.7C17.5147 198.7 15.5 196.685 15.5 194.2C15.5 191.715 17.5147 189.7 20 189.7C22.4853 189.7 24.5 191.715 24.5 194.2Z" stroke="#22BBDD"/>
<path d="M24.5 212.846C24.5 215.331 22.4853 217.346 20 217.346C17.5147 217.346 15.5 215.331 15.5 212.846C15.5 210.361 17.5147 208.346 20 208.346C22.4853 208.346 24.5 210.361 24.5 212.846Z" stroke="#22BBDD"/>
<path d="M24.5 231.391C24.5 233.877 22.4853 235.891 20 235.891C17.5147 235.891 15.5 233.877 15.5 231.391C15.5 228.906 17.5147 226.891 20 226.891C22.4853 226.891 24.5 228.906 24.5 231.391Z" stroke="#22BBDD"/>
<path d="M24.5 249.937C24.5 252.422 22.4853 254.437 20 254.437C17.5147 254.437 15.5 252.422 15.5 249.937C15.5 247.452 17.5147 245.437 20 245.437C22.4853 245.437 24.5 247.452 24.5 249.937Z" stroke="#22BBDD"/>
<path d="M24.5 268.583C24.5 271.068 22.4853 273.083 20 273.083C17.5147 273.083 15.5 271.068 15.5 268.583C15.5 266.098 17.5147 264.083 20 264.083C22.4853 264.083 24.5 266.098 24.5 268.583Z" stroke="#22BBDD"/>
<path d="M24.5 287.129C24.5 289.614 22.4853 291.629 20 291.629C17.5147 291.629 15.5 289.614 15.5 287.129C15.5 284.643 17.5147 282.629 20 282.629C22.4853 282.629 24.5 284.643 24.5 287.129Z" stroke="#22BBDD"/>
<path d="M24.5 305.774C24.5 308.26 22.4853 310.274 20 310.274C17.5147 310.274 15.5 308.26 15.5 305.774C15.5 303.289 17.5147 301.274 20 301.274C22.4853 301.274 24.5 303.289 24.5 305.774Z" stroke="#22BBDD"/>
<path d="M183 150C183 152.736 180.736 155 178 155C175.264 155 173 152.736 173 150C173 147.264 175.264 145 178 145C180.736 145 183 147.264 183 150Z" fill="#22BBDD"/>
</svg>
