<svg width="500" height="500" viewBox="0 0 500 500" fill="none" xmlns="http://www.w3.org/2000/svg">
<path d="M52.4414 228.095H61.2004C63.4095 228.095 65.2004 226.304 65.2004 224.095V217.741C65.2004 215.532 66.9912 213.741 69.2004 213.741H84.326C86.5352 213.741 88.326 215.532 88.326 217.741V239.246C88.326 241.455 90.1169 243.246 92.326 243.246H98.6799C100.889 243.246 102.68 241.455 102.68 239.246V232.095C102.68 229.886 104.471 228.095 106.68 228.095H115.439" stroke="#22BBDD"/>
<path d="M3 182.253H19.6728C21.8819 182.253 23.6728 184.044 23.6728 186.253V192.995C23.6728 195.204 25.4636 196.995 27.6728 196.995H57.1422C59.3513 196.995 61.1422 195.204 61.1422 192.995V170.692C61.1422 168.483 62.933 166.692 65.1422 166.692H80.399C82.6082 166.692 84.399 168.483 84.399 170.692V178.253C84.399 180.462 86.1899 182.253 88.399 182.253H105.072" stroke="#22BBDD"/>
<path d="M121.021 141.174V128.185C121.021 125.976 119.23 124.185 117.021 124.185H95.2818C93.0726 124.185 91.2818 122.394 91.2818 120.185V75C91.2818 72.7909 89.4909 71 87.2818 71H22.1387" stroke="#22BBDD"/>
<path d="M158.5 263.182V303.838C158.5 306.048 156.709 307.838 154.5 307.838H107.477C105.268 307.838 103.477 309.629 103.477 311.838V335.736C103.477 337.945 105.268 339.736 107.477 339.736H135.362C137.571 339.736 139.362 341.527 139.362 343.736V377.215" stroke="#22BBDD"/>
<path d="M375.428 308.815H389.823C393.137 308.815 395.823 306.128 395.823 302.815V291.84C395.823 288.526 398.509 285.84 401.823 285.84H426.789C430.103 285.84 432.789 288.526 432.789 291.84V327.066C432.789 330.379 435.476 333.066 438.789 333.066H449.734C453.048 333.066 455.734 330.379 455.734 327.066V314.815C455.734 311.501 458.42 308.815 461.734 308.815H476.129" stroke="#22BBDD"/>
<ellipse cx="298.686" cy="309.8" rx="57.2957" ry="57.9902" fill="white" fill-opacity="0.02"/>
<path d="M354.429 296.333C355.111 299.235 355.577 302.221 355.81 305.273L355.312 305.311C355.425 306.792 355.482 308.289 355.482 309.8C355.482 311.311 355.425 312.808 355.312 314.289L355.81 314.328C355.577 317.38 355.111 320.366 354.429 323.267L353.942 323.153C353.251 326.095 352.337 328.949 351.218 331.696L351.681 331.885C350.535 334.698 349.177 337.401 347.627 339.971L347.198 339.713C345.647 342.285 343.902 344.724 341.983 347.01L342.366 347.331C340.422 349.646 338.302 351.804 336.027 353.785L335.699 353.408C333.444 355.371 331.035 357.157 328.493 358.747L328.758 359.17C326.209 360.765 323.526 362.162 320.732 363.342L320.537 362.882C317.802 364.037 314.958 364.982 312.026 365.696L312.144 366.182C309.247 366.888 306.264 367.371 303.213 367.612L303.174 367.114C301.693 367.231 300.197 367.29 298.686 367.29C297.176 367.29 295.679 367.231 294.199 367.114L294.159 367.612C291.109 367.371 288.126 366.888 285.229 366.182L285.347 365.696C282.415 364.982 279.571 364.037 276.836 362.882L276.641 363.342C273.847 362.162 271.164 360.765 268.614 359.17L268.88 358.747C266.338 357.157 263.929 355.371 261.674 353.408L261.346 353.785C259.071 351.804 256.951 349.646 255.007 347.331L255.39 347.01C253.471 344.724 251.726 342.285 250.174 339.713L249.746 339.971C248.196 337.401 246.838 334.698 245.692 331.885L246.155 331.696C245.036 328.949 244.122 326.095 243.43 323.153L242.944 323.267C242.262 320.366 241.796 317.38 241.563 314.328L242.061 314.289C241.948 312.808 241.891 311.311 241.891 309.8C241.891 308.289 241.948 306.792 242.061 305.311L241.563 305.273C241.796 302.221 242.262 299.235 242.944 296.333L243.43 296.448C244.122 293.506 245.036 290.651 246.155 287.904L245.692 287.716C246.838 284.902 248.196 282.2 249.746 279.629L250.174 279.887C251.726 277.315 253.471 274.876 255.39 272.591L255.007 272.269C256.951 269.954 259.071 267.796 261.346 265.815L261.674 266.192C263.929 264.23 266.338 262.443 268.88 260.854L268.614 260.43C271.164 258.836 273.847 257.438 276.641 256.258L276.836 256.719C279.571 255.563 282.415 254.619 285.347 253.904L285.229 253.419C288.126 252.713 291.109 252.23 294.159 251.988L294.199 252.487C295.679 252.37 297.176 252.31 298.686 252.31C300.197 252.31 301.693 252.37 303.174 252.487L303.213 251.988C306.264 252.23 309.247 252.713 312.144 253.419L312.026 253.904C314.958 254.619 317.802 255.563 320.537 256.719L320.732 256.258C323.526 257.438 326.209 258.836 328.758 260.43L328.493 260.854C331.035 262.443 333.444 264.23 335.699 266.192L336.027 265.815C338.302 267.796 340.422 269.954 342.366 272.269L341.983 272.591C343.902 274.876 345.647 277.315 347.198 279.887L347.627 279.629C349.177 282.2 350.535 284.902 351.681 287.716L351.218 287.904C352.337 290.651 353.251 293.506 353.942 296.448L354.429 296.333Z" stroke="#22BBDD" stroke-opacity="0.4" stroke-dasharray="10 10"/>
<path d="M370.762 309.8C370.762 349.994 338.488 382.569 298.687 382.569C258.886 382.569 226.612 349.994 226.612 309.8C226.612 269.606 258.886 237.031 298.687 237.031C338.488 237.031 370.762 269.606 370.762 309.8Z" stroke="#22BBDD"/>
<path d="M497.659 238.383H467.958C464.644 238.383 461.958 235.697 461.958 232.383V196C461.958 192.686 459.272 190 455.958 190H404.206C400.892 190 398.205 192.686 398.205 196V218.377C398.205 221.691 395.519 224.377 392.205 224.377H340.453C337.139 224.377 334.453 227.064 334.453 230.377V243.476" stroke="#22BBDD"/>
<path d="M497.659 379.828H467.958C464.644 379.828 461.958 382.515 461.958 385.828V422.211C461.958 425.525 459.272 428.211 455.958 428.211H404.206C400.892 428.211 398.205 425.525 398.205 422.211V399.834C398.205 396.52 395.519 393.834 392.205 393.834H340.453C337.139 393.834 334.453 391.148 334.453 387.834V374.735" stroke="#22BBDD"/>
<circle cx="298.339" cy="309.453" r="82.8393" stroke="#22BBDD"/>
<circle cx="298.339" cy="309.453" r="82.8393" stroke="#22BBDD"/>
<circle cx="298.339" cy="309.453" r="47.1224" stroke="#22BBDD"/>
<path d="M120 71.5H296C300.142 71.5 303.5 74.8579 303.5 79V293C303.5 297.142 300.142 300.5 296 300.5H120C115.858 300.5 112.5 297.142 112.5 293V79C112.5 74.8579 115.858 71.5 120 71.5Z" fill="#141413" stroke="#22BBDD"/>
<path d="M182.996 125.738L182.996 125.738C187.76 139.246 180.83 154.147 167.546 158.972L167.545 158.972C157.272 162.724 146.207 159.332 139.547 151.346C137.971 149.44 136.627 147.265 135.605 144.882C135.469 144.544 135.334 144.186 135.197 143.82C135.128 143.635 135.058 143.449 134.987 143.262C133.06 137.717 133.062 131.966 134.668 126.752L134.668 126.751C136.977 119.237 142.586 112.892 150.41 110.033L150.411 110.033C153.008 109.08 155.635 108.603 158.235 108.514C168.974 108.156 179.168 114.856 182.996 125.738ZM143.781 147.673L143.782 147.673C149.031 153.932 157.705 156.585 165.743 153.654C176.132 149.883 181.526 138.203 177.806 127.624C174.845 119.093 166.845 113.857 158.412 114.106L158.412 114.106C156.367 114.168 154.288 114.542 152.269 115.291C146.129 117.535 141.735 122.521 139.935 128.402C138.684 132.481 138.684 136.995 140.209 141.321L140.213 141.331C140.358 141.747 140.513 142.188 140.699 142.601C141.492 144.465 142.528 146.177 143.781 147.673Z" stroke="#22BBDD"/>
<path d="M281.536 174L268.718 191.865C263.494 199.146 254.91 203.249 245.964 202.742V202.742C237.863 202.283 230.007 205.606 224.694 211.738L213.491 224.67C206.369 232.89 195.322 236.558 184.697 234.229V234.229C175.046 232.114 164.975 234.938 157.832 241.764L137 261.67" stroke="#22BBDD"/>
<path d="M206.397 241.043C206.924 243.484 205.371 245.87 202.957 246.397C200.516 246.924 198.13 245.371 197.603 242.957C197.076 240.516 198.63 238.13 201.043 237.603C203.454 237.076 205.87 238.63 206.397 241.043Z" fill="#22BBDD" stroke="#22BBDD"/>
<path d="M238.397 203.043C238.924 205.484 237.371 207.87 234.957 208.397C232.516 208.924 230.13 207.371 229.603 204.958C229.076 202.517 230.63 200.131 233.043 199.604C235.457 199.077 237.87 200.604 238.397 203.043Z" fill="#22BBDD" stroke="#22BBDD"/>
<path d="M265.397 206.043C265.924 208.484 264.371 210.87 261.957 211.397C259.516 211.924 257.13 210.371 256.603 207.957C256.076 205.516 257.629 203.13 260.043 202.603C262.484 202.076 264.87 203.629 265.397 206.043Z" fill="#22BBDD" stroke="#22BBDD"/>
<path d="M174.397 231.043C174.924 233.484 173.371 235.87 170.957 236.397C168.516 236.924 166.13 235.371 165.603 232.958C165.076 230.517 166.629 228.132 169.043 227.604C171.487 227.077 173.87 228.603 174.397 231.043Z" fill="#22BBDD" stroke="#22BBDD"/>
<path d="M206.5 131V158C206.5 159.381 205.381 160.5 204 160.5C202.619 160.5 201.5 159.381 201.5 158V131C201.5 129.619 202.619 128.5 204 128.5C205.381 128.5 206.5 129.619 206.5 131Z" stroke="#22BBDD"/>
<path d="M217.5 122V158C217.5 159.381 216.381 160.5 215 160.5C213.619 160.5 212.5 159.381 212.5 158V122C212.5 120.619 213.619 119.5 215 119.5C216.381 119.5 217.5 120.619 217.5 122Z" stroke="#22BBDD"/>
<path d="M227.5 127V158C227.5 159.381 226.381 160.5 225 160.5C223.619 160.5 222.5 159.381 222.5 158V127C222.5 125.619 223.619 124.5 225 124.5C226.381 124.5 227.5 125.619 227.5 127Z" stroke="#22BBDD"/>
<path d="M239.5 137V158C239.5 159.381 238.381 160.5 237 160.5C235.619 160.5 234.5 159.381 234.5 158V137C234.5 135.619 235.619 134.5 237 134.5C238.381 134.5 239.5 135.619 239.5 137Z" stroke="#22BBDD"/>
<path d="M206.5 143V158C206.5 159.381 205.381 160.5 204 160.5C202.619 160.5 201.5 159.381 201.5 158V143C201.5 141.619 202.619 140.5 204 140.5C205.381 140.5 206.5 141.619 206.5 143Z" fill="#22BBDD" stroke="#22BBDD"/>
<path d="M217.5 137V158C217.5 159.381 216.381 160.5 215 160.5C213.619 160.5 212.5 159.381 212.5 158V137C212.5 135.619 213.619 134.5 215 134.5C216.381 134.5 217.5 135.619 217.5 137Z" fill="#22BBDD" stroke="#22BBDD"/>
<path d="M227.5 140V158C227.5 159.381 226.381 160.5 225 160.5C223.619 160.5 222.5 159.381 222.5 158V140C222.5 138.619 223.619 137.5 225 137.5C226.381 137.5 227.5 138.619 227.5 140Z" fill="#22BBDD" stroke="#22BBDD"/>
<path d="M239.5 147V158C239.5 159.381 238.381 160.5 237 160.5C235.619 160.5 234.5 159.381 234.5 158V147C234.5 145.619 235.619 144.5 237 144.5C238.381 144.5 239.5 145.619 239.5 147Z" fill="#22BBDD" stroke="#22BBDD"/>
<path d="M250.5 142V158C250.5 159.381 249.381 160.5 248 160.5C246.619 160.5 245.5 159.381 245.5 158V142C245.5 140.619 246.619 139.5 248 139.5C249.381 139.5 250.5 140.619 250.5 142Z" stroke="#22BBDD"/>
<path d="M260.5 126V158C260.5 159.381 259.381 160.5 258 160.5C256.619 160.5 255.5 159.381 255.5 158V126C255.5 124.619 256.619 123.5 258 123.5C259.381 123.5 260.5 124.619 260.5 126Z" stroke="#22BBDD"/>
<path d="M271.5 133V158C271.5 159.381 270.381 160.5 269 160.5C267.619 160.5 266.5 159.381 266.5 158V133C266.5 131.619 267.619 130.5 269 130.5C270.381 130.5 271.5 131.619 271.5 133Z" stroke="#22BBDD"/>
<path d="M282.5 116V158C282.5 159.381 281.381 160.5 280 160.5C278.619 160.5 277.5 159.381 277.5 158V116C277.5 114.619 278.619 113.5 280 113.5C281.381 113.5 282.5 114.619 282.5 116Z" stroke="#22BBDD"/>
<path d="M250.5 152V158C250.5 159.381 249.381 160.5 248 160.5C246.619 160.5 245.5 159.381 245.5 158V152C245.5 150.619 246.619 149.5 248 149.5C249.381 149.5 250.5 150.619 250.5 152Z" fill="#22BBDD" stroke="#22BBDD"/>
<path d="M260.5 146V158C260.5 159.381 259.381 160.5 258 160.5C256.619 160.5 255.5 159.381 255.5 158V146C255.5 144.619 256.619 143.5 258 143.5C259.381 143.5 260.5 144.619 260.5 146Z" fill="#22BBDD" stroke="#22BBDD"/>
<path d="M271.5 148V158C271.5 159.381 270.381 160.5 269 160.5C267.619 160.5 266.5 159.381 266.5 158V148C266.5 146.619 267.619 145.5 269 145.5C270.381 145.5 271.5 146.619 271.5 148Z" fill="#22BBDD" stroke="#22BBDD"/>
<path d="M282.5 128V158C282.5 159.381 281.381 160.5 280 160.5C278.619 160.5 277.5 159.381 277.5 158V128C277.5 126.619 278.619 125.5 280 125.5C281.381 125.5 282.5 126.619 282.5 128Z" fill="#22BBDD" stroke="#22BBDD"/>
</svg>
