<svg width="500" height="500" viewBox="0 0 500 500" fill="none" xmlns="http://www.w3.org/2000/svg">
<mask id="mask0" mask-type="alpha" maskUnits="userSpaceOnUse" x="188" y="210" width="287" height="94">
<rect x="188" y="210" width="287" height="94" fill="#C4C4C4"/>
</mask>
<g mask="url(#mask0)">
<path d="M474.789 231.55C470.679 234.839 465.746 236.894 461.224 238.949C454.647 241.827 447.659 244.704 440.671 245.937C436.149 246.76 428.338 247.582 426.283 241.827C424.639 237.305 428.338 231.139 423.817 227.439C420.528 224.562 414.362 226.617 410.662 228.261C404.085 230.728 398.33 234.427 392.575 238.127C388.054 241.005 383.943 243.882 379.421 246.76C369.555 252.515 357.634 258.681 346.124 255.803C339.547 254.159 335.026 249.226 332.148 243.471C329.682 238.949 327.215 234.427 323.105 230.728C314.883 223.329 302.14 227.028 293.508 231.961C277.887 241.005 268.432 259.503 249.934 263.613C245.001 264.847 240.068 264.436 235.136 263.202C229.381 261.558 224.037 257.447 219.515 253.748C214.582 250.048 209.649 247.582 203.894 245.937C198.139 244.704 192.384 244.704 186.629 245.937C174.297 247.993 162.787 254.159 152.1 260.325C140.59 266.491 129.902 273.89 118.803 280.878C112.226 284.989 105.238 289.1 98.6604 293.622C91.6722 298.143 84.6841 303.076 78.1069 308.009C64.5416 317.464 51.3874 327.329 37 335.962V336.373C60.4309 322.396 81.3955 305.131 104.004 290.333C115.103 283.345 126.202 276.357 137.301 269.779C148.4 262.791 159.91 256.214 172.242 251.281C184.574 246.349 198.55 243.471 210.882 249.226C216.226 251.692 220.748 255.803 225.681 259.092C230.203 262.38 235.136 264.436 240.48 264.847C258.567 266.902 271.31 251.692 283.231 240.594C291.863 232.783 302.551 225.795 314.883 227.85C328.037 229.906 330.093 244.704 338.725 252.103C352.702 264.436 373.666 252.103 386.409 243.471C392.164 239.771 397.919 236.072 403.674 232.783C408.607 229.906 415.184 226.617 421.35 227.028C427.927 227.439 425.872 235.25 425.872 240.182C426.283 244.704 429.983 246.76 434.093 247.171C442.315 247.582 450.536 244.293 457.935 241.005C463.69 238.538 470.268 235.661 474.789 231.55C475.2 231.55 475.2 231.139 474.789 231.55Z" fill="#22BBDD"/>
<path d="M474.378 235.661C470.678 238.949 465.745 241.005 461.224 243.06C455.058 246.348 448.069 248.815 441.081 250.459C436.559 251.281 429.16 252.514 427.105 246.759C425.461 242.238 429.16 236.072 424.638 232.372C421.35 229.495 415.184 231.961 411.895 233.194C405.729 235.661 399.974 239.36 394.219 243.06C390.109 245.937 385.998 248.815 381.476 251.692C372.021 257.447 360.1 263.613 349.002 261.147C342.835 259.503 338.314 254.57 335.025 249.226C332.559 244.704 330.092 240.182 325.982 236.894C317.76 229.906 305.017 233.605 296.796 238.538C281.586 247.582 272.543 266.08 254.455 270.19C249.523 271.424 244.59 271.013 239.657 269.779C233.902 268.135 228.969 264.435 224.036 260.736C219.103 257.447 214.171 254.57 208.416 253.748C202.661 252.514 196.906 252.926 191.562 253.748C179.641 256.214 168.131 262.38 157.854 268.546C146.755 275.123 136.478 282.111 125.791 289.1C119.213 293.21 112.636 297.321 106.059 301.843C99.071 306.365 92.494 311.297 85.9168 316.23C72.7626 326.096 60.0194 335.551 46.043 344.183V344.594C68.6519 330.618 88.7943 313.353 110.992 298.554C121.68 291.566 132.368 284.578 143.056 277.59C153.743 270.602 164.842 264.024 176.763 258.681C188.684 253.337 202.25 250.87 214.582 256.214C219.926 258.681 224.447 262.38 229.38 265.669C233.902 268.546 238.835 270.602 244.179 271.013C261.855 273.068 274.187 257.447 285.697 246.348C293.918 238.538 304.606 231.55 316.116 233.194C329.27 234.838 331.326 249.226 339.958 256.625C353.934 268.546 374.077 255.803 386.409 247.582C391.753 243.882 397.508 240.182 403.263 236.894C408.196 234.016 414.362 230.317 420.528 231.139C427.516 231.961 425.049 239.771 425.461 244.293C425.872 248.815 429.571 250.87 433.682 250.87C441.492 251.281 449.714 247.582 457.113 244.293C463.279 242.649 469.856 239.771 474.378 235.661C474.789 235.661 474.378 235.25 474.378 235.661Z" fill="#22BBDD"/>
<path d="M473.556 239.36C469.856 242.649 465.334 244.704 460.812 247.17C454.646 250.459 448.069 253.337 441.492 254.57C436.97 255.803 429.571 256.625 427.516 251.281C425.871 246.759 429.16 241.004 424.638 237.305C421.35 234.427 415.595 236.894 412.306 238.538C406.14 241.004 400.796 244.704 395.041 248.404C390.931 251.281 386.82 254.159 382.709 257.036C373.666 262.791 362.156 269.368 351.057 266.491C344.891 264.846 340.369 260.325 337.08 254.981C334.614 250.87 332.148 246.348 328.037 243.06C319.815 236.483 307.483 240.182 299.673 245.115C284.875 254.159 276.242 272.246 258.977 277.179C254.455 278.412 249.523 278.412 244.59 277.179C238.835 275.945 233.902 271.835 228.969 268.957C224.036 265.669 219.514 263.202 213.759 261.969C208.416 260.736 202.661 261.147 197.317 262.38C185.807 264.846 174.708 271.424 164.431 277.179C153.743 283.756 143.466 290.744 133.19 297.732C127.024 301.843 120.447 305.953 114.28 310.475C107.703 314.997 101.126 320.341 94.9602 325.274C82.217 335.139 69.8849 345.005 56.3196 353.227V353.638C78.5174 339.661 97.8377 321.985 119.213 307.187C129.49 300.198 140.178 293.21 150.455 286.222C161.142 279.234 171.83 272.246 183.34 266.902C194.85 261.558 208.416 258.68 220.337 263.613C225.68 265.669 230.202 269.368 234.724 272.657C239.246 275.534 243.768 277.179 249.111 277.59C266.787 279.234 278.297 263.613 289.396 252.925C297.207 245.115 307.483 238.127 318.993 239.36C331.736 241.004 334.203 254.981 342.835 261.969C356.812 273.479 376.132 260.736 388.053 252.103C393.397 248.404 398.741 244.704 404.496 241.004C409.429 238.127 415.595 234.427 421.35 234.838C427.927 235.249 425.871 243.06 426.283 247.582C426.694 252.103 430.393 253.748 434.504 253.748C442.314 253.748 450.125 250.048 457.113 247.17C463.279 246.348 469.034 243.882 473.556 239.36C473.967 239.36 473.556 239.36 473.556 239.36Z" fill="#22BBDD"/>
<path d="M473.144 243.471C469.445 246.76 464.923 248.815 460.812 251.281C454.646 254.57 448.48 257.447 441.903 259.092C437.381 260.325 430.393 261.147 428.338 255.803C426.694 251.692 429.982 245.526 425.46 242.238C422.172 239.771 416.417 242.238 413.128 243.471C407.373 245.937 401.618 250.048 396.685 253.748C392.575 256.625 388.875 259.503 384.764 262.38C376.132 268.135 364.622 274.712 353.523 272.246C347.357 271.013 342.835 266.491 339.547 261.558C337.08 257.447 334.203 253.337 330.503 250.048C322.282 243.471 310.361 247.582 302.55 252.515C288.163 261.558 280.353 279.645 263.088 284.578C258.566 285.811 253.633 285.811 249.111 284.578C243.356 283.345 238.424 279.645 233.902 276.768C229.38 273.89 224.447 271.424 218.692 270.191C213.348 269.368 207.593 269.779 202.249 271.013C190.74 273.479 180.052 280.056 170.597 286.222C160.32 292.799 150.455 300.199 140.178 307.187C134.012 311.298 127.846 315.408 121.68 319.93C115.103 324.863 108.937 329.796 102.771 334.729C90.4385 344.594 78.5174 354.46 65.7743 363.092V363.503C87.1499 349.527 106.059 331.851 126.613 317.053C136.478 310.064 146.755 303.076 157.032 296.088C167.309 289.1 177.585 282.112 189.095 276.768C200.194 271.424 213.348 268.135 225.269 273.068C230.613 275.123 235.135 278.823 239.657 281.701C244.179 284.578 248.7 286.222 254.044 286.633C271.309 287.867 282.408 272.657 293.096 261.558C300.906 253.748 310.772 246.76 321.871 247.993C334.203 249.226 337.08 263.202 345.713 269.78C359.689 280.878 378.598 268.135 390.108 259.503C395.041 255.803 400.385 251.692 405.729 248.404C410.251 245.526 416.417 241.827 422.172 242.238C428.749 242.649 427.105 250.459 427.516 254.57C427.927 259.092 431.626 260.736 435.737 260.736C443.547 260.736 451.358 257.036 457.935 253.748C462.868 250.459 469.034 247.582 473.144 243.471C473.556 243.471 473.144 243.471 473.144 243.471Z" fill="#22BBDD"/>
<path d="M472.734 247.171C469.446 250.459 464.924 252.514 460.813 254.981C454.647 258.269 448.481 261.147 442.315 262.791C438.204 264.024 430.805 265.258 428.75 259.914C427.106 255.803 429.983 249.637 425.461 246.759C422.173 244.293 416.829 246.759 413.54 248.404C407.785 251.281 402.441 254.981 397.509 258.68C393.809 261.558 390.109 264.847 385.999 267.313C377.366 273.479 366.678 279.645 355.579 277.59C349.413 276.356 344.892 272.246 341.603 267.313C338.726 263.202 336.259 259.092 332.559 256.214C324.338 250.048 312.828 254.159 305.018 259.092C291.041 268.546 283.642 286.222 266.788 291.155C262.267 292.388 257.745 292.388 253.223 291.566C247.468 290.333 242.946 287.044 238.013 284.167C233.492 281.289 228.559 278.823 223.215 278.001C217.871 277.179 212.527 277.59 207.183 278.823C196.084 281.7 185.808 288.277 176.353 294.444C166.487 301.021 156.622 308.42 147.167 315.408C141.412 319.519 135.246 324.041 129.491 328.562C123.325 333.495 117.159 338.428 111.404 343.361C99.4828 353.227 87.9729 363.092 75.2297 371.725V372.136C95.7832 357.748 114.281 340.483 134.013 325.685C143.467 318.286 153.333 311.708 163.199 304.309C173.064 297.321 183.341 290.333 194.029 284.989C205.128 279.645 217.46 276.356 229.792 280.467C235.136 282.523 239.247 285.811 244.179 288.689C248.701 291.155 253.223 292.799 258.156 293.21C275.01 294.032 285.698 278.823 295.974 268.135C303.374 260.325 312.828 253.337 324.338 254.159C336.67 254.981 339.548 268.546 347.769 275.123C361.745 285.811 379.833 272.657 390.931 264.024C395.864 260.325 400.797 256.214 406.141 252.925C410.663 250.048 416.418 246.348 421.762 246.759C428.339 247.171 426.694 254.57 427.106 258.68C427.517 262.791 431.216 264.435 435.327 264.435C442.726 264.435 450.537 260.736 456.703 257.036C462.869 254.159 468.624 251.281 472.734 247.171C473.145 247.171 472.734 247.171 472.734 247.171Z" fill="#22BBDD"/>
</g>
<path d="M378.5 279.997C380.087 270.364 377.827 262.43 372.122 256.753C371.276 255.071 370.43 253.389 369.584 251.707L369.58 250.023L367.895 250.027L361.26 291.305C359.57 288.783 355.36 288.793 351.994 289.644C346.945 291.34 344.427 294.715 345.278 298.081C346.128 301.447 351.185 303.119 355.391 301.424C359.597 299.73 362.117 297.197 362.109 293.829L366.261 270.241C369.89 273.853 376.382 276.942 376.397 282.847C376.407 287.057 374.678 290.467 373 292.997C373 292.997 372.5 293.997 373.056 293.802C374.5 293.497 375 291.997 375 291.997C375 291.997 377.587 287.364 378.5 279.997ZM377.227 277.793C374.005 271.388 367.937 267.016 367.918 259.29C374.319 262.471 379.603 270.604 377.227 277.793Z" fill="#22BBDD"/>
<path d="M33 120.5H209C213.142 120.5 216.5 123.858 216.5 128V342C216.5 346.142 213.142 349.5 209 349.5H33C28.8579 349.5 25.5 346.142 25.5 342V128C25.5 123.858 28.8579 120.5 33 120.5Z" fill="#141413" stroke="#22BBDD"/>
<path d="M49 188.5H193C194.933 188.5 196.5 190.067 196.5 192V204C196.5 205.933 194.933 207.5 193 207.5H49C47.067 207.5 45.5 205.933 45.5 204V192C45.5 190.067 47.067 188.5 49 188.5Z" stroke="#22BBDD"/>
<path d="M53 197.636L56.1818 200.818L63 194" stroke="#22BBDD" stroke-linecap="round" stroke-linejoin="round"/>
<path d="M49 216.5H193C194.933 216.5 196.5 218.067 196.5 220V232C196.5 233.933 194.933 235.5 193 235.5H49C47.067 235.5 45.5 233.933 45.5 232V220C45.5 218.067 47.067 216.5 49 216.5Z" stroke="#22BBDD"/>
<path d="M53 225.636L56.1818 228.818L63 222" stroke="#22BBDD" stroke-linecap="round" stroke-linejoin="round"/>
<path d="M49 244.5H193C194.933 244.5 196.5 246.067 196.5 248V260C196.5 261.933 194.933 263.5 193 263.5H49C47.067 263.5 45.5 261.933 45.5 260V248C45.5 246.067 47.067 244.5 49 244.5Z" stroke="#22BBDD"/>
<path d="M53 253.636L56.1818 256.818L63 250" stroke="#22BBDD" stroke-linecap="round" stroke-linejoin="round"/>
<circle cx="208" cy="334" r="59.5" fill="#141413" stroke="#22BBDD"/>
<ellipse cx="208" cy="333.78" rx="52.7624" ry="53.3237" fill="white" fill-opacity="0.02"/>
<path d="M258.525 318.37C259.504 321.65 260.178 325.064 260.514 328.578L260.017 328.626C260.179 330.321 260.262 332.041 260.262 333.78C260.262 335.518 260.179 337.238 260.017 338.933L260.514 338.981C260.178 342.495 259.504 345.909 258.525 349.189L258.046 349.046C257.053 352.376 255.744 355.568 254.153 358.584L254.596 358.818C252.968 361.906 251.048 364.813 248.874 367.501L248.485 367.187C246.318 369.866 243.897 372.326 241.258 374.529L241.578 374.913C238.918 377.133 236.039 379.095 232.979 380.761L232.74 380.321C229.74 381.954 226.564 383.299 223.248 384.319L223.395 384.797C220.121 385.805 216.711 386.5 213.2 386.847L213.151 386.35C211.457 386.517 209.738 386.603 208 386.603C206.261 386.603 204.543 386.517 202.848 386.35L202.799 386.847C199.288 386.5 195.879 385.805 192.604 384.797L192.751 384.319C189.436 383.299 186.26 381.954 183.26 380.321L183.021 380.761C179.96 379.095 177.081 377.133 174.421 374.913L174.742 374.529C172.103 372.326 169.681 369.866 167.514 367.187L167.126 367.501C164.951 364.813 163.032 361.906 161.404 358.818L161.846 358.584C160.255 355.568 158.946 352.376 157.953 349.046L157.474 349.189C156.496 345.909 155.822 342.495 155.485 338.981L155.983 338.933C155.82 337.238 155.737 335.519 155.737 333.78C155.737 332.041 155.82 330.321 155.983 328.626L155.485 328.578C155.822 325.064 156.496 321.65 157.474 318.37L157.953 318.513C158.946 315.183 160.255 311.991 161.846 308.975L161.404 308.741C163.032 305.653 164.951 302.746 167.126 300.058L167.514 300.372C169.681 297.693 172.103 295.233 174.742 293.03L174.421 292.646C177.081 290.426 179.96 288.464 183.021 286.798L183.26 287.238C186.26 285.605 189.436 284.26 192.751 283.24L192.604 282.762C195.879 281.754 199.288 281.059 202.799 280.712L202.848 281.209C204.543 281.042 206.261 280.956 208 280.956C209.738 280.956 211.457 281.042 213.151 281.209L213.2 280.712C216.711 281.059 220.121 281.754 223.396 282.762L223.248 283.24C226.564 284.26 229.74 285.605 232.74 287.238L232.979 286.798C236.039 288.464 238.918 290.426 241.578 292.646L241.258 293.03C243.897 295.233 246.318 297.693 248.485 300.372L248.874 300.058C251.048 302.746 252.968 305.653 254.596 308.741L254.153 308.975C255.744 311.992 257.053 315.183 258.046 318.513L258.525 318.37Z" stroke="#22BBDD" stroke-opacity="0.4" stroke-dasharray="10 10"/>
<g clip-path="url(#clip0)">
<path d="M232.759 318.748H228.624V313.424C228.552 308.172 226.409 303.163 222.666 299.495C218.923 295.827 213.885 293.8 208.656 293.858C197.643 293.858 188.678 302.637 188.678 313.424V318.748H184.925C183.886 318.748 182.889 319.163 182.154 319.902C181.419 320.64 181.006 321.641 181.006 322.685V361.325C181.006 362.369 181.419 363.371 182.154 364.109C182.889 364.847 183.886 365.262 184.925 365.262H232.759C233.799 365.262 234.795 364.847 235.53 364.109C236.265 363.371 236.678 362.369 236.678 361.325V322.705C236.681 322.186 236.581 321.672 236.386 321.192C236.19 320.712 235.902 320.276 235.537 319.908C235.173 319.541 234.74 319.249 234.263 319.05C233.787 318.851 233.275 318.748 232.759 318.748ZM212.83 347.891C212.83 348.935 212.417 349.936 211.682 350.674C210.947 351.413 209.95 351.828 208.911 351.828C207.871 351.828 206.874 351.413 206.139 350.674C205.404 349.936 204.991 348.935 204.991 347.891V336.139C204.991 335.095 205.404 334.094 206.139 333.356C206.874 332.617 207.871 332.203 208.911 332.203C209.95 332.203 210.947 332.617 211.682 333.356C212.417 334.094 212.83 335.095 212.83 336.139V347.891ZM220.796 318.748H196.555V313.424C196.627 310.269 197.941 307.271 200.209 305.087C202.477 302.902 205.515 301.71 208.656 301.771C211.796 301.71 214.833 302.903 217.099 305.087C219.366 307.272 220.677 310.27 220.747 313.424L220.796 318.748Z" stroke="#22BBDD" stroke-miterlimit="10"/>
</g>
<path d="M180.856 151.512H159.309C156.929 151.512 155 149.583 155 147.203C155 144.823 156.929 142.894 159.309 142.894H180.856C183.236 142.894 185.166 144.823 185.166 147.203C185.166 149.583 183.236 151.512 180.856 151.512Z" fill="#191918" stroke="#22BBDD" stroke-miterlimit="10"/>
<path d="M242.624 165.877H159.309C156.929 165.877 155 163.948 155 161.568C155 159.188 156.929 157.258 159.309 157.258H242.624C245.004 157.258 246.934 159.188 246.934 161.568C246.934 163.948 245.004 165.877 242.624 165.877Z" fill="#191918" stroke="#22BBDD" stroke-miterlimit="10"/>
<path d="M207.775 140.82V137.583" stroke="#22BBDD" stroke-miterlimit="10"/>
<path d="M207.775 132.244V112.987" stroke="#22BBDD" stroke-miterlimit="10" stroke-dasharray="3.38 3.38"/>
<path d="M207.775 110.236V110.236C207.775 108.449 209.224 107 211.012 107H211.881" stroke="#22BBDD" stroke-miterlimit="10"/>
<path d="M219.682 107H340.995" stroke="#22BBDD" stroke-miterlimit="10" stroke-dasharray="3.81 3.81"/>
<path d="M344.895 107H345.764C347.551 107 349 108.449 349 110.236V110.236" stroke="#22BBDD" stroke-miterlimit="10"/>
<path d="M349 116.871L348.919 138.691" stroke="#22BBDD" stroke-miterlimit="10" stroke-dasharray="4.06 4.06"/>
<path d="M348.892 145.846L348.865 153" stroke="#22BBDD" stroke-miterlimit="10"/>
<path d="M374.174 189.589C373.851 190.722 373.527 191.854 373.042 192.825C371.747 195.9 369.805 198.489 367.54 200.593C365.436 202.696 363.009 204.314 360.42 205.609H360.258C356.536 207.227 352.491 208.036 348.284 207.874C345.371 207.713 342.62 207.065 339.869 205.933C339.707 205.933 339.545 205.771 339.384 205.771C334.367 203.505 330.484 199.945 327.895 195.576C324.658 190.236 323.364 183.764 324.658 177.453C324.982 175.673 325.629 173.893 326.438 172.113C332.102 159.329 347.313 153.504 360.096 159.167C367.863 162.727 373.203 169.685 374.66 177.453C375.469 181.498 375.469 185.543 374.174 189.589ZM356.86 166.287C347.96 162.242 337.442 166.287 333.396 175.187C333.073 175.996 332.749 176.644 332.587 177.453C331.131 182.145 331.94 187 334.205 191.045C334.205 191.045 334.205 191.045 334.205 191.207C335.985 194.443 338.736 197.033 342.296 198.651C342.944 198.974 343.591 199.136 344.4 199.46H344.562C348.122 200.431 351.844 200.431 355.08 199.298C357.993 198.327 360.582 196.709 362.685 194.282C363.818 192.987 364.951 191.369 365.76 189.589C366.245 188.456 366.569 187.485 366.893 186.353C367.54 183.278 367.378 180.204 366.569 177.453C365.274 172.76 361.876 168.553 356.86 166.287Z" stroke="#22BBDD" stroke-miterlimit="10"/>
<path d="M374.66 177.453H366.569C367.378 180.365 367.54 183.44 366.892 186.353C366.569 187.485 366.245 188.618 365.76 189.589C364.95 191.369 363.98 192.825 362.685 194.282C360.581 196.547 357.992 198.327 355.08 199.298C351.681 200.431 348.121 200.593 344.561 199.46H344.4C343.752 199.298 343.105 198.974 342.296 198.651C338.736 197.033 335.985 194.443 334.205 191.207C334.205 191.207 334.205 191.207 334.205 191.045C331.94 187 331.292 182.145 332.587 177.453H324.496C323.202 183.764 324.496 190.236 327.732 195.576C330.322 199.945 334.205 203.505 339.221 205.771C339.383 205.771 339.545 205.933 339.707 205.933C342.458 207.065 345.371 207.713 348.121 207.874C352.329 208.036 356.374 207.227 360.096 205.609H360.258C362.847 204.476 365.274 202.696 367.378 200.593C369.643 198.489 371.423 195.738 372.88 192.825C373.365 191.693 373.689 190.722 374.012 189.589C375.469 185.543 375.469 181.498 374.66 177.453Z" fill="#22BBDD" stroke="#22BBDD" stroke-miterlimit="10"/>
<path d="M242.624 151.512H195.221C192.841 151.512 190.911 149.583 190.911 147.203C190.911 144.823 192.841 142.894 195.221 142.894H242.624C245.004 142.894 246.933 144.823 246.933 147.203C246.933 149.583 245.004 151.512 242.624 151.512Z" fill="#191918" stroke="#22BBDD" stroke-miterlimit="10"/>
<defs>
<clipPath id="clip0">
<rect width="56.6915" height="72.408" fill="white" transform="translate(180.496 293.366)"/>
</clipPath>
</defs>
</svg>
