<svg width="24" height="24" viewBox="0 0 24 24" fill="none" xmlns="http://www.w3.org/2000/svg">
<path d="M8.3421 6.37037V16.563C8.3421 17.37 8.65991 18.1448 9.22698 18.7168C9.79418 19.2889 10.5644 19.6111 11.3684 19.6111H22.2368V20.3852C22.2368 21.5146 21.3198 22.4333 20.2105 22.4333H2.52632C1.9903 22.4333 1.47536 22.2186 1.09501 21.835C0.714522 21.4512 0.5 20.9298 0.5 20.3852V2.54815C0.5 2.00356 0.714522 1.48214 1.09501 1.09836C1.47536 0.714732 1.9903 0.5 2.52632 0.5H20.2105C21.3198 0.5 22.2368 1.41874 22.2368 2.54815V3.32222H11.3684C10.5644 3.32222 9.79418 3.64442 9.22698 4.21653C8.65991 4.78849 8.3421 5.56333 8.3421 6.37037ZM11.8684 7.64444C11.8684 7.21578 12.217 6.87037 12.6316 6.87037H23.5V16.063H12.6316C12.217 16.063 11.8684 15.7176 11.8684 15.2889V7.64444ZM14.0263 11.4667C14.0263 12.7962 15.0924 13.8778 16.4211 13.8778C17.7497 13.8778 18.8158 12.7962 18.8158 11.4667C18.8158 10.1371 17.7497 9.05556 16.4211 9.05556C15.0924 9.05556 14.0263 10.1371 14.0263 11.4667Z" stroke="#22BBDD"/>
</svg>
