<svg width="24" height="24" viewBox="0 0 24 24" fill="none" xmlns="http://www.w3.org/2000/svg">
<path d="M17.5 20.868V2.868C17.5 1.55889 18.6333 0.5 19.868 0.5C21.1013 0.5 22.236 1.43754 22.236 3V20.868C22.236 21.8374 21.9074 22.4825 21.4737 22.8876C21.0314 23.3007 20.4414 23.5 19.868 23.5C18.6468 23.5 17.5 22.5985 17.5 20.868ZM10 20.868V12C10 10.6909 11.1333 9.632 12.368 9.632C13.6013 9.632 14.736 10.5695 14.736 12.132V20.868C14.736 21.8374 14.4074 22.4825 13.9737 22.8876C13.5314 23.3007 12.9414 23.5 12.368 23.5C11.1668 23.5 10 22.6065 10 20.868ZM4.868 18.776C6.17722 18.776 7.236 19.8375 7.236 21.132C7.236 21.76 6.98652 22.3623 6.54243 22.8064C6.09834 23.2505 5.49603 23.5 4.868 23.5C4.23997 23.5 3.63766 23.2505 3.19357 22.8064C2.74948 22.3623 2.5 21.76 2.5 21.132C2.5 19.8375 3.55878 18.776 4.868 18.776Z" stroke="#22BBDD"/>
</svg>
